<svg id="export" xmlns="http://www.w3.org/2000/svg" viewBox="0 0 512 512"><defs><style>.cls-1,.cls-2{fill:currentColor;}.cls-1{opacity:0.25;}</style></defs><title>address-book</title><path class="cls-1" d="M408,56a16,16,0,0,0-16-16H64A16,16,0,0,0,48,56V456a16,16,0,0,0,16,16H392a16,16,0,0,0,16-16V408h72V360H408V280h72V232H408V152h72V104H408Z"/><path class="cls-2" d="M310,376H136V340.05a33.13,33.13,0,0,1,15-27.72l38-24.91-16-44V193.61a49.5,49.5,0,0,1,49.5-49.5h0a49.5,49.5,0,0,1,49.5,49.5v49.82l-18,43,40.68,25.94A33.16,33.16,0,0,1,310,340.31Z"/></svg>