<svg id="export" xmlns="http://www.w3.org/2000/svg" viewBox="0 0 512 512"><defs><style>.cls-1,.cls-2{fill:currentColor;}.cls-1{opacity:0.25;}</style></defs><title>user-secret</title><path class="cls-1" d="M372.37,33.89A22,22,0,0,0,351.3,18.13a22.2,22.2,0,0,0-5.32.65L213.9,51.8l-46-30.66a17.85,17.85,0,0,0-9.94-3h0A17.91,17.91,0,0,0,140.77,31L113,140H399.29Z"/><polygon class="cls-1" points="419.12 176 93.04 176 16 239.07 16 264 496 264 496 239.07 419.12 176"/><path class="cls-2" d="M370.86,305.67a84.91,84.91,0,0,0-64.86,30,91,91,0,0,0-102.77.27,82.59,82.59,0,1,0,19.11,38.29,48.73,48.73,0,0,1,65,.06,85.14,85.14,0,1,0,83.52-68.64Z"/><polygon class="cls-2" points="419 176 93 176 113 140 399 140 419 176"/></svg>