<svg id="export" xmlns="http://www.w3.org/2000/svg" viewBox="0 0 512 512">
  <defs>
    <style>
      .cls-1 {
        fill: currentColor;
      }
    </style>
  </defs>
  <title>closed-captioning#cc</title>
  <path class="cls-1" d="M480,64H32A16,16,0,0,0,16,80V432a16,16,0,0,0,16,16H480a16,16,0,0,0,16-16V80A16,16,0,0,0,480,64ZM176.2285,318.2285a61.573,61.573,0,0,0,38.5137-13.3462l22.3037,28.2588a97.2371,97.2371,0,0,1-60.8174,21.0874,98.2285,98.2285,0,0,1,0-196.457,97.2371,97.2371,0,0,1,60.8174,21.0874l-22.3037,28.2588a61.573,61.573,0,0,0-38.5137-13.3462,62.2285,62.2285,0,0,0,0,124.457Zm182.106,0a61.5727,61.5727,0,0,0,38.5136-13.3462l22.3038,28.2588a97.2371,97.2371,0,0,1-60.8174,21.0874,98.2285,98.2285,0,0,1,0-196.457,97.2371,97.2371,0,0,1,60.8174,21.0874l-22.3038,28.2588a61.5727,61.5727,0,0,0-38.5136-13.3462,62.2285,62.2285,0,0,0,0,124.457Z"/>
</svg>
