<svg id="export" xmlns="http://www.w3.org/2000/svg" viewBox="0 0 512 512">
  <defs>
    <style>
      .cls-1 {
        fill: currentColor;
      }
    </style>
  </defs>
  <title>equalizer</title>
  <g>
    <path class="cls-1" d="M112,140.1132V16H64V140.1132a72.0064,72.0064,0,0,0,0,135.7736V496h48V275.8868a72.0064,72.0064,0,0,0,0-135.7736Z"/>
    <path class="cls-1" d="M280,284.1132V16H232V284.1132a72.0064,72.0064,0,0,0,0,135.7736V496h48V419.8868a72.0064,72.0064,0,0,0,0-135.7736Z"/>
    <path class="cls-1" d="M448,76.1132V16H400V76.1132a72.0064,72.0064,0,0,0,0,135.7736V496h48V211.8868a72.0064,72.0064,0,0,0,0-135.7736Z"/>
  </g>
</svg>
