<svg id="export" xmlns="http://www.w3.org/2000/svg" viewBox="0 0 512 512">
  <defs>
    <style>
      .cls-1 {
        fill: currentColor;
      }
    </style>
  </defs>
  <title>fiber-new#new</title>
  <g>
    <path class="cls-1" d="M208,64C102.1309,64,16,150.1309,16,256s86.1309,192,192,192,192-86.1309,192-192S313.8691,64,208,64Zm0,336c-79.4023,0-144-64.5981-144-144s64.5977-144,144-144,144,64.5981,144,144S287.4023,400,208,400Z"/>
    <circle class="cls-1" cx="208" cy="256" r="88"/>
    <path class="cls-1" d="M479.6973,161.6465a278.9205,278.9205,0,0,0-45.12-80.6577L397.126,111.0112a232.0632,232.0632,0,0,1,5.584,282.7242l38.6015,28.5292a280.4654,280.4654,0,0,0,38.3858-260.6181Z"/>
  </g>
</svg>
