<svg id="export" xmlns="http://www.w3.org/2000/svg" viewBox="0 0 512 512">
  <defs>
    <style>
      .cls-1 {
        fill: currentColor;
      }
    </style>
  </defs>
  <title>fiber-pin#pin</title>
  <g>
    <path class="cls-1" d="M480,64H32A16,16,0,0,0,16,80V432a16,16,0,0,0,16,16H480a16,16,0,0,0,16-16V80A16,16,0,0,0,480,64ZM186,255.999a34.0383,34.0383,0,0,1-34,34H106V344H70l.001-184h93.4814A34.0557,34.0557,0,0,1,186,192Zm72,87.9995H222V160h36ZM434,344H387.2056L338,227.1367V344H302V160h46.7927L398,276.8667V160.0015h36Z"/>
    <rect class="cls-1" x="106.001" y="194" width="43.999" height="59.999"/>
  </g>
</svg>
