<svg id="export" xmlns="http://www.w3.org/2000/svg" viewBox="0 0 512 512">
  <defs>
    <style>
      .cls-1 {
        fill: currentColor;
      }
    </style>
  </defs>
  <title>fiber-dvr#dvr</title>
  <g>
    <path class="cls-1" d="M120,96H16V400H120a40.0455,40.0455,0,0,0,40-40V136A40.0455,40.0455,0,0,0,120,96Zm-8,256H64V144h48Z"/>
    <path class="cls-1" d="M496,232V136a40.0455,40.0455,0,0,0-40-40H352V400h48V272h15.7513L440,332.6221V400h48V323.3779l-21.1539-52.8845A40.0636,40.0636,0,0,0,496,232Zm-48-8H400V144h48Z"/>
    <polygon class="cls-1" points="288 149.874 256 329.074 224 149.874 224 96 176 96 176 154.126 219.906 400 292.094 400 336 154.126 336 96 288 96 288 149.874"/>
  </g>
</svg>
