<svg id="export" xmlns="http://www.w3.org/2000/svg" viewBox="0 0 512 512">
  <defs>
    <style>
      .cls-1 {
        fill: currentColor;
      }
    </style>
  </defs>
  <title>headphones-mic</title>
  <path class="cls-1" d="M464,216H432V192c0-97.0469-78.9531-176-176-176S80,94.9531,80,192v24H48a32,32,0,0,0-32,32V352a32,32,0,0,0,32,32h96V192a112,112,0,0,1,224,0V438.5317A9.4792,9.4792,0,0,1,358.5317,448H232v48H358.5317A57.5336,57.5336,0,0,0,416,438.5317V384h48a32,32,0,0,0,32-32V248A32,32,0,0,0,464,216Z"/>
</svg>
