<svg id="export" xmlns="http://www.w3.org/2000/svg" viewBox="0 0 512 512">
  <defs>
    <style>
      .cls-1 {
        fill: currentColor;
      }
    </style>
  </defs>
  <title>headphones-mute</title>
  <g>
    <polygon class="cls-1" points="303.029 224.019 256.495 270.553 209.96 224.019 176.019 257.96 222.553 304.495 176.019 351.029 209.96 384.971 256.495 338.436 303.029 384.971 336.971 351.029 290.436 304.495 336.971 257.96 303.029 224.019"/>
    <path class="cls-1" d="M464,232H432V192c0-97.0469-78.9531-176-176-176S80,94.9531,80,192v40H48a32,32,0,0,0-32,32V392a32,32,0,0,0,32,32h96V192a112,112,0,0,1,224,0V424h96a32,32,0,0,0,32-32V264A32,32,0,0,0,464,232Z"/>
  </g>
</svg>
