<svg id="export" xmlns="http://www.w3.org/2000/svg" viewBox="0 0 512 512">
  <defs>
    <style>
      .cls-1 {
        fill: currentColor;
      }
    </style>
  </defs>
  <title>high-quality#hq</title>
  <g>
    <path class="cls-1" d="M380,176H336a8.0092,8.0092,0,0,0-8,8V328a8.0092,8.0092,0,0,0,8,8h44a12.0134,12.0134,0,0,0,12-12V188A12.0134,12.0134,0,0,0,380,176Z"/>
    <path class="cls-1" d="M464,16H48A32,32,0,0,0,16,48V464a32,32,0,0,0,32,32H464a32,32,0,0,0,32-32V48A32,32,0,0,0,464,16ZM240,376H192V280H128v96H80V136h48v96h64V136h48Zm172.0313,37.313-20.3133-30.47A60.0383,60.0383,0,0,1,380,384H336a56.0632,56.0632,0,0,1-56-56V184a56.0632,56.0632,0,0,1,56-56h44a60.0681,60.0681,0,0,1,60,60V324a59.6292,59.6292,0,0,1-8.894,31.3928l20.8628,31.2942Z"/>
  </g>
</svg>
