<svg id="export" xmlns="http://www.w3.org/2000/svg" viewBox="0 0 512 512">
  <defs>
    <style>
      .cls-1 {
        fill: currentColor;
      }
    </style>
  </defs>
  <title>library-music</title>
  <g>
    <path class="cls-1" d="M64,168H24V472a16,16,0,0,0,16,16H344V448H64Z"/>
    <path class="cls-1" d="M136,96H96V400a16,16,0,0,0,16,16H416V376H136Z"/>
    <path class="cls-1" d="M472,24H184a16.0169,16.0169,0,0,0-16,16V328a16,16,0,0,0,16,16H472a15.987,15.987,0,0,0,15.9634-15.2731c.0107-.2428.0366-.4815.0366-.7269V40A16,16,0,0,0,472,24ZM350.6558,296c-30.4014,0-55.0465-22.82-55.0465-50.969,0-1.7939.2979-111.3019.2979-111.3019l-54,10.2709V96.6687l90.2418-17.1641-.2417,117.5945a58.89,58.89,0,0,1,18.7486-3.037c30.4013,0,55.0463,22.82,55.0463,50.9689S381.0571,296,350.6558,296Z"/>
  </g>
</svg>
