<svg id="export" xmlns="http://www.w3.org/2000/svg" viewBox="0 0 512 512">
  <defs>
    <style>
      .cls-1 {
        fill: currentColor;
      }
    </style>
  </defs>
  <title>loop-1</title>
  <g>
    <polygon class="cls-1" points="208 291 208 333 320 333 320 291 285 291 285 168 243 168 243 203 208 203 208 245 243 245 243 291 208 291"/>
    <path class="cls-1" d="M448,210.3984v29.58a120.1359,120.1359,0,0,1-120,120H120v-64L88,323.0557,54.189,351.6648,16,383.9787l104,88v-64H328c92.6357,0,168-75.3642,168-168v-72h-.8237Z"/>
    <path class="cls-1" d="M64,293.58V264A120.1359,120.1359,0,0,1,184,144H392v64l32-27.0769,33.8108-28.6091L496,120,392,32V96H184C91.3643,96,16,171.3643,16,264v72h.824Z"/>
  </g>
</svg>
