<svg id="export" xmlns="http://www.w3.org/2000/svg" viewBox="0 0 512 512">
  <defs>
    <style>
      .cls-1 {
        fill: currentColor;
      }
    </style>
  </defs>
  <title>loop-circular</title>
  <g>
    <path class="cls-1" d="M123.8621,128.71l-26.74,26.979c-37.9815,38.0039-58.25,88.8344-57.0752,143.1381,1.1562,53.4468,22.84,103.9278,61.0556,142.1441L135.0439,407.03A158.8514,158.8514,0,0,1,88.0361,297.7891c-.89-41.1114,14.4073-79.5386,43.0713-108.2027l25.783-26.0133L214.137,224V72h-144Z"/>
    <path class="cls-1" d="M414.89,340.3c37.9727-38.0029,58.2383-88.83,57.0635-143.1265-1.1562-53.4467-22.84-103.9277-61.0556-142.144L376.9561,88.9707c61.0351,61.0347,62.8007,158.58,3.9365,217.4434L355.11,332.4272,297.863,272V424h144l-53.7251-56.71Z"/>
  </g>
</svg>
