<svg id="export" xmlns="http://www.w3.org/2000/svg" viewBox="0 0 512 512">
  <defs>
    <style>
      .cls-1 {
        fill: currentColor;
      }
    </style>
  </defs>
  <title>queue-add</title>
  <g>
    <path class="cls-1" d="M344,24H40A16,16,0,0,0,24,40V344H64V64H344Z"/>
    <path class="cls-1" d="M416,111.2381V96H112a16,16,0,0,0-16,16V416h40V136H416Z"/>
    <path class="cls-1" d="M487.9634,183.2731A15.987,15.987,0,0,0,472,168H184a16,16,0,0,0-16,16V472a16.0169,16.0169,0,0,0,16,16H472a16,16,0,0,0,16-16V184C488,183.7546,487.9742,183.5158,487.9634,183.2731ZM424,356H356v68H308V356H240V308h68V240h48v68h68Z"/>
  </g>
</svg>
