<svg id="export" xmlns="http://www.w3.org/2000/svg" viewBox="0 0 512 512">
  <defs>
    <style>
      .cls-1 {
        fill: currentColor;
      }
    </style>
  </defs>
  <title>recent-actors</title>
  <g>
    <path class="cls-1" d="M488,30.6666H200a8,8,0,0,0-8,8v432a8,8,0,0,0,8,8H488a8,8,0,0,0,8-8v-432A8,8,0,0,0,488,30.6666ZM432,368H258V332.1289a33.1427,33.1427,0,0,1,15.08-27.7883L311.42,279.42l-16.1348-43.9912V185.7142a49.7144,49.7144,0,0,1,99.4288,0v49.7143l-17.6586,43.0006L416.92,304.3406A33.1429,33.1429,0,0,1,432,332.1289Z"/>
    <path class="cls-1" d="M104,80V432a8,8,0,0,0,8,8h48V72H112A8,8,0,0,0,104,80Z"/>
    <path class="cls-1" d="M16,128V384a16,16,0,0,0,16,16H72V112H32A16,16,0,0,0,16,128Z"/>
  </g>
</svg>
