<svg id="export" xmlns="http://www.w3.org/2000/svg" viewBox="0 0 512 512">
  <defs>
    <style>
      .cls-1 {
        fill: currentColor;
      }
    </style>
  </defs>
  <title>remote-control</title>
  <g>
    <path class="cls-1" d="M320,192H192a16,16,0,0,0-16,16V480a16,16,0,0,0,16,16H320a16,16,0,0,0,16-16V208A16,16,0,0,0,320,192ZM256,296a24,24,0,1,1,24-24A24,24,0,0,1,256,296Z"/>
    <path class="cls-1" d="M154.2242,138.2241,188.15,172.15a95.8469,95.8469,0,0,1,135.701,0l33.9253-33.9253a143.7707,143.7707,0,0,0-203.5516,0Z"/>
    <path class="cls-1" d="M256,16A222.5317,222.5317,0,0,0,97.6082,81.6082l33.9992,33.9992a175.7194,175.7194,0,0,1,248.7852,0l33.9992-33.9992A222.5315,222.5315,0,0,0,256,16Z"/>
  </g>
</svg>
