<svg id="export" xmlns="http://www.w3.org/2000/svg" viewBox="0 0 512 512">
  <defs>
    <style>
      .cls-1 {
        fill: currentColor;
      }
    </style>
  </defs>
  <title>screen-mirroring</title>
  <path class="cls-1" d="M56,288V408a16,16,0,0,0,16,16H440a16,16,0,0,0,16-16V96a16,16,0,0,0-16-16H72A16,16,0,0,0,56,96V224a32,32,0,0,1,0,64ZM219.6355,130.5461A199.56,199.56,0,0,1,222.3641,378l-38.6986-28.3789A151.6988,151.6988,0,0,0,181.55,159.7451Zm-69.8414,53.5451a111.758,111.758,0,0,1,1.6014,141.8655L112.6346,297.532a63.8315,63.8315,0,0,0-.9829-84.1983Z"/>
</svg>
