<svg id="export" xmlns="http://www.w3.org/2000/svg" viewBox="0 0 512 512">
  <defs>
    <style>
      .cls-1 {
        fill: currentColor;
      }
    </style>
  </defs>
  <title>sorround-sound</title>
  <path class="cls-1" d="M464,16H48A32,32,0,0,0,16,48V464a32,32,0,0,0,32,32H464a32,32,0,0,0,32-32V48A32,32,0,0,0,464,16ZM151.8174,343.4189l-36.7695,30.8536a183.9987,183.9987,0,0,1,10.8447-248.38L159.834,159.834a135.9992,135.9992,0,0,0-8.0166,183.5849ZM256,328a72,72,0,1,1,72-72A72,72,0,0,1,256,328Zm140.9521,46.2725-36.7695-30.8536A135.9992,135.9992,0,0,0,352.166,159.834l33.9414-33.9414a183.9987,183.9987,0,0,1,10.8447,248.38Z"/>
</svg>
