<svg id="export" xmlns="http://www.w3.org/2000/svg" viewBox="0 0 512 512">
  <defs>
    <style>
      .cls-1 {
        fill: currentColor;
      }
    </style>
  </defs>
  <title>speaker</title>
  <g>
    <path class="cls-1" d="M398.2222,16H113.7778C103.96,16,96,23.675,96,33.1428V478.8572C96,488.325,103.96,496,113.7778,496H398.2222C408.0405,496,416,488.325,416,478.8572V33.1428C416,23.675,408.0405,16,398.2222,16ZM256,80a56,56,0,1,1-56,56A56,56,0,0,1,256,80Zm0,352a96,96,0,1,1,96-96A96,96,0,0,1,256,432Z"/>
    <circle class="cls-1" cx="256" cy="336" r="64"/>
  </g>
</svg>
