<svg id="export" xmlns="http://www.w3.org/2000/svg" viewBox="0 0 512 512">
  <defs>
    <style>
      .cls-1 {
        fill: currentColor;
      }
    </style>
  </defs>
  <title>speaker-group</title>
  <g>
    <path class="cls-1" d="M468,128H368V280a56,56,0,0,1,0,112V496H468a12,12,0,0,0,12-12V140A12,12,0,0,0,468,128Z"/>
    <path class="cls-1" d="M318.2222,16H33.7778C23.96,16,16,23.675,16,33.1428V478.8572C16,488.325,23.96,496,33.7778,496H318.2222C328.0405,496,336,488.325,336,478.8572V33.1428C336,23.675,328.0405,16,318.2222,16ZM176,80a56,56,0,1,1-56,56A56,56,0,0,1,176,80Zm0,352a96,96,0,1,1,96-96A96,96,0,0,1,176,432Z"/>
    <circle class="cls-1" cx="176" cy="336" r="64"/>
  </g>
</svg>
