<svg id="export" xmlns="http://www.w3.org/2000/svg" viewBox="0 0 512 512">
  <defs>
    <style>
      .cls-1 {
        fill: currentColor;
      }
    </style>
  </defs>
  <title>tv-slash</title>
  <g>
    <path class="cls-1" d="M480,88H314.4414l72-72H318.5586L256.25,78.3086,193.9414,16H126.0586l72,72H168.775L316.5676,235.5969h0L487.2305,406.26A15.9865,15.9865,0,0,0,496,392V104A16,16,0,0,0,480,88Z"/>
    <rect class="cls-1" x="160" y="432" width="192" height="64"/>
    <path class="cls-1" d="M16,16V45.4219L58.5781,88H32a16,16,0,0,0-16,16V392a16,16,0,0,0,16,16H378.5781l88,88H496V466.4568L45.7092,16Z"/>
  </g>
</svg>
