<svg id="export" xmlns="http://www.w3.org/2000/svg" viewBox="0 0 512 512">
  <defs>
    <style>
      .cls-1 {
        fill: currentColor;
      }
    </style>
  </defs>
  <title>eye</title>
  <g>
    <path class="cls-1" d="M256,144.9272A103.3091,103.3091,0,1,0,359.3086,248.2363,103.4257,103.4257,0,0,0,256,144.9272Zm0,174.6182a71.3091,71.3091,0,1,1,71.3086-71.3091A71.39,71.39,0,0,1,256,319.5454Z"/>
    <path class="cls-1" d="M397.2217,131.1006l-.2178-.2222c-77.75-77.749-204.2578-77.749-282.0078,0L16,233.79v28.8926l98.7783,102.69.2178.2217a199.4085,199.4085,0,0,0,282.0078,0L496,262.6826V233.79ZM464,249.79l-89.7324,93.2852a167.4086,167.4086,0,0,1-236.5352,0L48,249.79v-3.1074L137.73,153.4c65.2461-65.13,171.2949-65.13,236.541,0L464,246.6826Z"/>
    <rect class="cls-1" x="240" y="232" width="32" height="32"/>
  </g>
</svg>
