<svg id="export" xmlns="http://www.w3.org/2000/svg" viewBox="0 0 512 512">
  <defs>
    <style>
      .cls-1 {
        fill: currentColor;
      }
    </style>
  </defs>
  <title>key-alt</title>
  <path class="cls-1" d="M152,104C77.0093,104,16,165.0093,16,240S77.0093,376,152,376a136.4163,136.4163,0,0,0,127.2754-88H360v72H496V192H279.2754A136.4163,136.4163,0,0,0,152,104ZM464,328H392V256H255.4961l-3.2412,11.7427a104,104,0,1,1,0-55.4854L255.4961,224H464Z"/>
  <path class="cls-1" d="M152,184a56,56,0,1,0,56,56A56.0636,56.0636,0,0,0,152,184Zm0,80a24,24,0,1,1,24-24A24.0269,24.0269,0,0,1,152,264Z"/>
</svg>
