<svg id="export" xmlns="http://www.w3.org/2000/svg" viewBox="0 0 512 512">
  <defs>
    <style>
      .cls-1 {
        fill: currentColor;
      }
    </style>
  </defs>
  <title>key</title>
  <g>
    <path class="cls-1" d="M336,15.9976c-88.2241,0-160,71.7754-160,160A159.8294,159.8294,0,0,0,181.97,219.4L16,385.3707V495.9976H144v-48h40v-48h38.6274l69.97-69.9707A159.8106,159.8106,0,0,0,336,335.9976c88.2241,0,160-71.7753,160-160S424.2241,15.9976,336,15.9976Zm0,288a127.7138,127.7138,0,0,1-42.5327-7.2431l-9.5039-3.3477-74.5908,74.5908H152v48H112v48H48v-65.373L218.5908,228.0338l-3.3476-9.5039A128.0175,128.0175,0,1,1,336,303.9976Z"/>
    <path class="cls-1" d="M344,103.9976a64,64,0,1,0,64,64A64.0724,64.0724,0,0,0,344,103.9976Zm0,96a32,32,0,1,1,32-32A32.0363,32.0363,0,0,1,344,199.9976Z"/>
  </g>
</svg>
