<svg id="export" xmlns="http://www.w3.org/2000/svg" viewBox="0 0 512 512">
  <defs>
    <style>
      .cls-1 {
        fill: currentColor;
      }
    </style>
  </defs>
  <title>mouth-slash</title>
  <g>
    <path class="cls-1" d="M412.8,107.1958c-24.0669-32.09-47.1406-46.4-74.8135-46.4-22.5405,0-44.0483,13.373-62.1972,38.6738a180.5117,180.5117,0,0,0-15.0362,25.3262h-9.5058A180.5607,180.5607,0,0,0,236.2109,99.47c-18.1494-25.3008-39.6572-38.6738-62.1977-38.6738a71.228,71.228,0,0,0-36.6724,9.9179l24.054,24.0541a38.734,38.734,0,0,1,12.6189-1.972c25.1758,0,46.5132,39.8643,51.9936,53.8047l3.9693,10.1953H271.083l10.9116-.0249,3.9888-10.146c5.49-13.9648,26.8271-53.8291,52.0034-53.8291,11.8745,0,27.0073,3.9922,49.2134,33.6,18.5889,24.7856,65.6733,80.813,82.5488,100.8013L424.9336,348.0166q-.4035.8349-.8189,1.6631c-.8642,1.7225-1.7844,3.409-2.73,5.0785l23.3092,23.3092a150.0889,150.0889,0,0,0,8.0225-14.0381q.7193-1.4341,1.4106-2.8857l.3057-.6426L496,248.44v-39.757C481.1976,191.1572,431.3475,131.9256,412.8,107.1958Z"/>
    <path class="cls-1" d="M387.3049,320.678,432.731,217.7158,331.7974,172.5952l-7.7852,8.8081c-.2238.2533-18.7785,20.8768-47.7544,28.2275l25.1712,25.1713a142.3865,142.3865,0,0,0,37.883-23.7958L390.6,233.9336l-27.5635,62.4755Z"/>
    <path class="cls-1" d="M16,16V37.9409l77.2075,77.2075C71.6932,143.5993,29.9726,197.9577,16,216.1505V255.29L57.4409,360.15l.4317.9932q.6929,1.4561,1.4111,2.8847A151.2487,151.2487,0,0,0,116.1445,425.5a155.367,155.367,0,0,0,80.63,22.5h118.45a155.3639,155.3639,0,0,0,80.63-22.5q2.391-1.4511,4.718-2.9861L474.0591,496H496V472.687L39.313,16ZM191.98,213.9209l87.2613,87.2613a807.52,807.52,0,0,0-125.816,6.1918l-31.6157-66.39,62.17-31.0855Zm-29.1995-29.1995-83.3586,41.68L134.6138,342.3l11.6489-1.665a775.6411,775.6411,0,0,1,166.7332-5.698L377.2294,399.17A123.3492,123.3492,0,0,1,315.2251,416h-118.45c-45.9336,0-88.6753-26.0332-108.8926-66.3281q-.4512-.8965-.8872-1.8037L42.2139,234.5547C56.3613,216.1329,94.2729,166.73,116.05,137.991Z"/>
  </g>
</svg>
