<svg id="export" xmlns="http://www.w3.org/2000/svg" viewBox="0 0 512 512">
  <defs>
    <style>
      .cls-1 {
        fill: currentColor;
      }
    </style>
  </defs>
  <title>universal-access</title>
  <g>
    <circle class="cls-1" cx="254.1305" cy="121.9122" r="30.0878"/>
    <polygon class="cls-1" points="128 200 224 200 224 294.468 193.579 408 226.708 408 255.365 301.048 256.635 301.048 285.292 408 318.421 408 288 294.468 288 200 384 200 384 168 128 168 128 200"/>
    <path class="cls-1" d="M256,16C123.4517,16,16,123.4517,16,256S123.4517,496,256,496,496,388.5483,496,256,388.5483,16,256,16Zm0,448C141.1248,464,48,370.8752,48,256S141.1248,48,256,48s208,93.1248,208,208S370.8752,464,256,464Z"/>
  </g>
</svg>
