<svg id="export" xmlns="http://www.w3.org/2000/svg" viewBox="0 0 512 512"><defs><style>.cls-1,.cls-2{fill:currentColor;}.cls-1{opacity:0.25;}</style></defs><title>battery-unknown</title><polygon class="cls-1" points="424 160 424 88 16 88 16 424 424 424 424 352 496 352 496 160 424 160"/><path class="cls-2" d="M211,323H169V273.13A35.17,35.17,0,0,1,204.13,238h28.25a35.5,35.5,0,0,0,0-71H169V125h63.38a77.5,77.5,0,0,1,0,155H211Z"/><polygon class="cls-2" points="169 353.4 169 370.2 169 387 202.6 387 211 387 211 370.2 211 345 169 345 169 353.4"/></svg>