<svg id="export" xmlns="http://www.w3.org/2000/svg" viewBox="0 0 512 512"><defs><style>.cls-1,.cls-2{fill:currentColor;}.cls-2{opacity:0.25;}</style></defs><title>fire</title><path class="cls-1" d="M200,16s44.2,65.12-10.95,120.28S48,238.06,48,348.37c0,1.21,0,2.43,0,3.63,1.49,79.88,72.1,144,152,144h70.83c-60.35-122.47-6-189.32,46.91-277C392,96,227.58,25.19,200,16Z"/><path class="cls-2" d="M465.62,350.76c-.26-1-.53-2-.81-3.07C453.55,306.39,384,240,384,240c-43.49,74.78-80.56,150.36-32,256h.66C428.17,496,484,424,465.62,350.76Z"/></svg>