<svg id="export" xmlns="http://www.w3.org/2000/svg" viewBox="0 0 512 512">
  <defs>
    <style>
      .cls-1 {
        fill: currentColor;
      }
    </style>
  </defs>
  <title>cut</title>
  <path class="cls-1" d="M425.8164,464H464V425.8164L298.1836,260,464,94.1836V56H425.8164L260,221.8164,198.4238,160.24A99.0675,99.0675,0,1,0,160.24,198.4238L221.8164,260l-56.5709,56.5708a98.9582,98.9582,0,1,0,35.9252,40.4419L260,298.1836ZM112,157a45,45,0,1,1,45-45A45.0508,45.0508,0,0,1,112,157Zm0,288a45,45,0,1,1,45-45A45.0508,45.0508,0,0,1,112,445Z"/>
</svg>
