<svg id="export" xmlns="http://www.w3.org/2000/svg" viewBox="0 0 512 512">
  <defs>
    <style>
      .cls-1 {
        fill: currentColor;
      }
    </style>
  </defs>
  <title>double-quote-serif-left</title>
  <g>
    <path class="cls-1" d="M26.0012,171V376a24,24,0,0,0,24,24h136a24,24,0,0,0,24-24V240a24,24,0,0,0-24-24h-88V195l112-112V35h-48Z"/>
    <path class="cls-1" d="M474.0012,83V35h-48l-136,136V376a24,24,0,0,0,24,24h136a24,24,0,0,0,24-24V240a24,24,0,0,0-24-24h-88V195Z"/>
  </g>
</svg>
