<svg id="export" xmlns="http://www.w3.org/2000/svg" viewBox="0 0 512 512">
  <defs>
    <style>
      .cls-1 {
        fill: currentColor;
      }
    </style>
  </defs>
  <title>highlighter</title>
  <path class="cls-1" d="M493.1353,115.0254l-92.9224-94.12A33.75,33.75,0,0,0,376.0176,10.79h-.0244a33.7553,33.7553,0,0,0-24.2066,10.15L86.1084,290.8311a34.0908,34.0908,0,0,0,.188,47.8925l13.2895,13.29L16,436.582V480H123.6318l51.97-51.97,11.0649,11.0644a34.0006,34.0006,0,0,0,48.876-.8183L493.7734,162.1357A33.9074,33.9074,0,0,0,493.1353,115.0254ZM210.6611,412.1777l-35.06-35.06L137.36,415.36l-25.0291-25.0288L150.35,351.8652l-37.1938-37.1933L171.3149,255.59l96.002,96.002Z"/>
</svg>
