<svg id="export" xmlns="http://www.w3.org/2000/svg" viewBox="0 0 512 512">
  <defs>
    <style>
      .cls-1 {
        fill: currentColor;
      }
    </style>
  </defs>
  <title>highligt</title>
  <g>
    <polygon points="120 184 120 304 208 352 208 464 304 464 304 352 392 304 392 184 120 184"/>
    <path d="M320,480H192V361.498l-88-48V168H408V313.498l-88,48Zm-96-32h64V342.502l88-48V200H136v94.502l88,48Z"/>
  </g>
  <g>
    <rect class="cls-1" x="232" y="32" width="48" height="88"/>
    <rect class="cls-1" x="80.5439" y="47.4498" width="48" height="86.1888" transform="translate(-33.005 104.9657) rotate(-46.8808)"/>
    <rect class="cls-1" x="364.3616" y="66.5442" width="86.1888" height="48" transform="translate(48.1498 302.9535) rotate(-43.1187)"/>
    <polygon class="cls-1" points="104 313.498 192 361.498 192 480 320 480 320 361.498 408 313.498 408 168 104 168 104 313.498"/>
  </g>
</svg>
