<svg id="export" xmlns="http://www.w3.org/2000/svg" viewBox="0 0 512 512">
  <defs>
    <style>
      .cls-1 {
        fill: currentColor;
      }
    </style>
  </defs>
  <title>pen-fancy</title>
  <g>
    <path class="cls-1" d="M169.65,235.105l-70.9214,14.45a23.8735,23.8735,0,0,0-17.6494,15.0039L22.251,419.65a24.0359,24.0359,0,0,0,5.47,25.4814l6.8462,6.8462,68.7056-68.7055,25.455,25.455L60.022,477.4331l5.6382,5.6382a24.0262,24.0262,0,0,0,25.4824,5.47l155.1562-58.8525a23.9214,23.9214,0,0,0,14.9385-17.3223l15.3521-70.3218ZM176,376H136V336h40Z"/>
    <path class="cls-1" d="M470.1074,41.8926a88.3989,88.3989,0,0,0-130.9248,6.5293L201.7957,216.3408l93.8637,93.8638L463.5781,172.8174a88.3989,88.3989,0,0,0,6.5293-130.9248Z"/>
  </g>
</svg>
