<svg id="export" xmlns="http://www.w3.org/2000/svg" viewBox="0 0 512 512">
  <defs>
    <style>
      .cls-1 {
        fill: currentColor;
      }
    </style>
  </defs>
  <title>pen</title>
  <g>
    <path class="cls-1" d="M189.2056,219.7944A626.818,626.818,0,0,0,38.8384,461.66v0a9,9,0,0,0,2.1587,9.2549l.0874.0874a9,9,0,0,0,9.2549,2.1587h0A626.818,626.818,0,0,0,292.2056,322.7944l92.5669-92.5669-103-103Z"/>
    <path class="cls-1" d="M458.668,53.332a72.8318,72.8318,0,0,0-103,0l-48.44,48.44,103,103,48.44-48.4405A72.8318,72.8318,0,0,0,458.668,53.332Z"/>
  </g>
</svg>
