<svg id="export" xmlns="http://www.w3.org/2000/svg" viewBox="0 0 512 512">
  <defs>
    <style>
      .cls-1 {
        fill: currentColor;
      }
    </style>
  </defs>
  <title>text-strike#strikethrough</title>
  <path class="cls-1" d="M32,32V480H480V32ZM336.5112,385.1924C319.6489,401.835,298.3989,411,276.6763,411h-104V357h104c10.0288,0,18.0273-6.416,21.9023-10.2412a20.6478,20.6478,0,0,0,6.0586-16.8242A21.8963,21.8963,0,0,0,295.08,313.748L257.0254,288h87.7407a75.826,75.826,0,0,1,13.6426,36.9736A74.6392,74.6392,0,0,1,336.5112,385.1924ZM432,256H80V224h88.3413c-15.3-18.8406-20.6064-43.9609-13.4814-68.6875,9.18-31.8594,36.4023-53.165,69.3515-54.2783.6192-.02,1.1934-.0381,119.794-.0156l-.0108,54c-31.2534-.0069-111.8125-.02-118.2812-.003-13.3179.6055-17.6963,10.8467-18.9644,15.2481-1.0478,3.6357-3.518,16.1386,8.6768,24.39L258.7983,224H432Z"/>
</svg>
