<svg id="export" xmlns="http://www.w3.org/2000/svg" viewBox="0 0 512 512">
  <defs>
    <style>
      .cls-1 {
        fill: currentColor;
      }
    </style>
  </defs>
  <title>text-format-clear</title>
  <polygon class="cls-1" points="304 282.954 208 378.954 208 400 186.954 400 168 400 168 418.954 168 432 344 432 344 400 304 400 304 282.954"/>
  <path class="cls-1" d="M450.3013,32l-56,56H72v80h64V120h72V274.3013l-176,176-16,16V496H45.6987l16-16L208,333.6987v.0005l96-96v0l72-72v0l32-32v0L421.6987,120h.0005L424,117.6992v-.0005l56-56,16-16V16H466.3013ZM304,178.3013V120h58.3013Z"/>
</svg>
