<svg id="export" xmlns="http://www.w3.org/2000/svg" viewBox="0 0 512 512">
  <defs>
    <style>
      .cls-1 {
        fill: currentColor;
      }
    </style>
  </defs>
  <title>envelope-plus</title>
  <polygon class="cls-1" points="32 117 32 299 153.333 208 32 117"/>
  <path class="cls-1" d="M292,258a59.9994,59.9994,0,0,1-72,0l-36.6667-27.5L32,344v40H252.2319A140.0078,140.0078,0,0,1,480,283.104V117Z"/>
  <path class="cls-1" d="M241.6,229.2a24,24,0,0,0,28.8,0L480,72V32H32V72Z"/>
  <path class="cls-1" d="M493.3369,368.5129q-.5808-2.5158-1.2822-4.9841t-1.5191-4.8846q-.8177-2.4164-1.75-4.7784a103.6014,103.6014,0,0,0-7.8425-15.7935q-2.606-4.2888-5.6047-8.2972-.7486-1.001-1.5205-1.9834a104.2918,104.2918,0,0,0-43.6841-32.5778q-1.1811-.4659-2.3755-.9032-2.39-.875-4.8325-1.635t-4.9351-1.4015a103.8819,103.8819,0,0,0-20.6394-3.1389Q394.6927,288,392,288t-5.3518.1353a103.8819,103.8819,0,0,0-20.6394,3.1389q-2.4924.6413-4.9351,1.4015t-4.8325,1.635q-1.1946.4374-2.3755.9032a104.2918,104.2918,0,0,0-43.6841,32.5778q-.7716.9822-1.5205,1.9834-2.9944,4.0042-5.6047,8.2972a103.6014,103.6014,0,0,0-7.8425,15.7935q-.9314,2.3616-1.75,4.7784t-1.5191,4.8846q-.7009,2.4675-1.2822,4.9841a104.9033,104.9033,0,0,0,0,46.9742q.5808,2.5158,1.2822,4.9841t1.5191,4.8846q.8177,2.4164,1.75,4.7784a103.6014,103.6014,0,0,0,7.8425,15.7935q2.606,4.2888,5.6047,8.2972.7486,1.001,1.5205,1.9834a104.2918,104.2918,0,0,0,43.6841,32.5778q1.1811.4659,2.3755.9032,2.39.875,4.8325,1.635t4.9351,1.4015a103.8819,103.8819,0,0,0,20.6394,3.1389Q389.3073,496,392,496t5.3518-.1353a103.8819,103.8819,0,0,0,20.6394-3.1389q2.4924-.6413,4.9351-1.4015t4.8325-1.635q1.1946-.4374,2.3755-.9032a104.2918,104.2918,0,0,0,43.6841-32.5778q.7719-.9822,1.5205-1.9834,2.9944-4.0042,5.6047-8.2972a103.6014,103.6014,0,0,0,7.8425-15.7935q.9314-2.3616,1.75-4.7784t1.5191-4.8846q.7009-2.4675,1.2822-4.9841a104.9033,104.9033,0,0,0,0-46.9742ZM450.2861,410h-39.143v39.1431h-36V410H336V374h39.1431V334.8569h36V374h39.143Z"/>
</svg>
