<svg id="export" xmlns="http://www.w3.org/2000/svg" viewBox="0 0 512 512">
  <defs>
    <style>
      .cls-1 {
        fill: currentColor;
      }
    </style>
  </defs>
  <title>file-xls</title>
  <polygon class="cls-1" points="480 202 310 202 310 32 88 32 88 252 480 252 480 202"/>
  <polygon class="cls-1" points="480 166 480 160 352 32 346 32 346 166 480 166"/>
  <path class="cls-1" d="M32,288V480H480V288ZM177.7745,447.4667l-27.2408-40.06-27.2408,40.06H94.2706l41.7519-61.4L93.1373,323H122.16l28.3741,41.7266L178.9078,323H207.93l-42.8852,63.0667,41.7519,61.4ZM318,447H242V323h24V423h52Zm74,0H344V423h48a12,12,0,0,0,0-24H376a36,36,0,0,1,0-72h40v24H376a12,12,0,0,0,0,24h16a36,36,0,0,1,0,72Z"/>
</svg>
