<svg id="export" xmlns="http://www.w3.org/2000/svg" viewBox="0 0 512 512">
  <defs>
    <style>
      .cls-1 {
        fill: currentColor;
      }
    </style>
  </defs>
  <title>folder-special</title>
  <path class="cls-1" d="M472,472a24,24,0,0,0,24-24V128a24,24,0,0,0-24-24H258.6667L237.8975,54.1538A23,23,0,0,0,216.6667,40H39A23,23,0,0,0,16,63V448a24,24,0,0,0,24,24ZM159.588,263.73l59.184-9.6185c.3862-.28.71-.516,1.0968-.7965L247.3052,200h17.39l27.4364,53.3153c.3865.28.7106.516,1.0968.7965l59.184,9.6185c2.4579,7.5644,2.9162,8.9742,5.3741,16.5389L315.5583,322.838c-.1474.4542-.2713.835-.4187,1.2892l9.1413,59.26c-6.4345,4.6751-7.6339,5.5465-14.0688,10.2216l-53.5344-27.0063h-1.3554l-53.5344,27.0063c-6.4349-4.6751-7.6343-5.5465-14.0688-10.2216l9.1413-59.26c-.1474-.4542-.2713-.835-.4187-1.2892l-42.2278-42.5688C156.6718,272.7045,157.13,271.2947,159.588,263.73Z"/>
</svg>
