<svg id="export" xmlns="http://www.w3.org/2000/svg" viewBox="0 0 512 512">
  <defs>
    <style>
      .cls-1 {
        fill: currentColor;
      }
    </style>
  </defs>
  <title>images</title>
  <path class="cls-1" d="M120,120H16V496H392V392H496V16H120ZM344,448H64V168h56V392H344ZM134.8462,369.1538V233.7692L168,200.6154V64H448v92.7693l21.9231,21.9231V281.1538L448,259.2307V306.923l6.8462,6.8462v55.3846Z"/>
  <polygon class="cls-1" points="350.846 162.077 448 259.231 469.923 281.154 469.923 178.692 448 156.769 402.077 110.846 350.846 162.077"/>
  <polygon class="cls-1" points="454.846 313.769 448 306.923 254.846 113.769 168 200.615 134.846 233.769 134.846 369.154 454.846 369.154 454.846 313.769"/>
</svg>
