<svg id="export" xmlns="http://www.w3.org/2000/svg" viewBox="0 0 512 512">
  <defs>
    <style>
      .cls-1 {
        fill: currentColor;
      }
    </style>
  </defs>
  <title>inbox-in</title>
  <path class="cls-1" d="M225.9418,36.9973q-.5385,1.47-.9344,3.0054a31.9656,31.9656,0,0,0-.9658,6.3506Q224,47.1714,224,48V216H152L256,336,360,216H288V48q0-.8285-.0416-1.6467a31.9656,31.9656,0,0,0-.9658-6.3506q-.3947-1.5337-.9344-3.0054a32.0132,32.0132,0,0,0-60.1164,0Z"/>
  <path class="cls-1" d="M320,48v96H447.3726V312H367.8431l-51.7647,72H186.6667l-43.1373-72H64V144H192V48a63.5861,63.5861,0,0,1,8.61-32H16V495.998H495.3726V16H311.39A63.5861,63.5861,0,0,1,320,48Z"/>
</svg>
