<svg id="export" xmlns="http://www.w3.org/2000/svg" viewBox="0 0 512 512">
  <defs>
    <style>
      .cls-1 {
        fill: currentColor;
      }
    </style>
  </defs>
  <title>library-bookmark</title>
  <path class="cls-1" d="M64,448V168H24V472a16,16,0,0,0,16,16H344V448Z"/>
  <path class="cls-1" d="M136,376V96H96V400a16,16,0,0,0,16,16H416V376Z"/>
  <path class="cls-1" d="M168,40V328a16,16,0,0,0,16,16H472a15.9868,15.9868,0,0,0,15.9633-15.2731c.0109-.2427.0367-.4815.0367-.7269V40a16,16,0,0,0-16-16H184a16.0167,16.0167,0,0,0-16,16ZM448,64V240H432L391.66,192,352,240H336V64Z"/>
</svg>
