<svg id="export" xmlns="http://www.w3.org/2000/svg" viewBox="0 0 512 512">
  <defs>
    <style>
      .cls-1 {
        opacity: 0.25;
      }

      .cls-2 {
        fill: currentColor;
      }
    </style>
  </defs>
  <title>gem#diamond</title>
  <g class="cls-1">
    <polygon class="cls-2" points="231.856 48 182.117 173 329.883 173 280.144 48 231.856 48"/>
    <polygon class="cls-2" points="368.629 173 491.896 173 408.563 48 318.889 48 368.629 173"/>
    <polygon class="cls-2" points="143.371 173 193.111 48 103.438 48 20.104 173 143.371 173"/>
  </g>
  <g>
    <polygon class="cls-2" points="250.378 480 261.622 480 338.693 209 173.307 209 250.378 480"/>
    <polygon class="cls-2" points="376.123 209 299.05 480 312.579 480 492.64 209 376.123 209"/>
    <polygon class="cls-2" points="135.877 209 19.36 209 199.421 480 212.95 480 135.877 209"/>
  </g>
</svg>
