<svg id="export" xmlns="http://www.w3.org/2000/svg" viewBox="0 0 512 512">
  <defs>
    <style>
      .cls-1, .cls-2 {
        fill: currentColor;
      }

      .cls-2 {
        opacity: 0.25;
      }
    </style>
  </defs>
  <title>gift</title>
  <path class="cls-1" d="M312,18a76.7765,76.7765,0,0,0-56,24.2334A76.9645,76.9645,0,1,0,200,172H312a77,77,0,0,0,0-154ZM235,130H200a35,35,0,1,1,35-35v35Zm77,0H277V95a34.9789,34.9789,0,1,1,35,35Z"/>
  <path class="cls-2" d="M456,130H56a24,24,0,0,0-24,24V458a24,24,0,0,0,24,24H456a24,24,0,0,0,24-24V154A24,24,0,0,0,456,130Z"/>
  <polygon class="cls-1" points="32 226 32 290 224 290 224 482 288 482 288 290 480 290 480 226 32 226"/>
</svg>
