<svg id="export" xmlns="http://www.w3.org/2000/svg" viewBox="0 0 512 512">
  <defs>
    <style>
      .cls-1, .cls-2 {
        fill: currentColor;
      }

      .cls-1 {
        opacity: 0.25;
      }
    </style>
  </defs>
  <title>money-bill-alt</title>
  <polygon class="cls-1" points="16 432 32 432 480 432 496 432 496 80 16 80 16 432"/>
  <path class="cls-2" d="M48,289.4087v39.522A157.4392,157.4392,0,0,1,117.3511,400H156.49a192.1816,192.1816,0,0,0-43.8662-68.0312A192.2376,192.2376,0,0,0,48,289.4087Z"/>
  <path class="cls-2" d="M48,183.0693v39.522a192.2388,192.2388,0,0,0,64.624-42.56A192.182,192.182,0,0,0,156.49,112H117.3511A157.4387,157.4387,0,0,1,48,183.0693Z"/>
  <path class="cls-2" d="M355.51,400h39.1391A157.4392,157.4392,0,0,1,464,328.9307v-39.522A191.8124,191.8124,0,0,0,355.51,400Z"/>
  <ellipse class="cls-2" cx="256" cy="256" rx="72" ry="80.1338"/>
  <path class="cls-2" d="M394.6489,112H355.51A191.8116,191.8116,0,0,0,464,222.5913v-39.522A157.4387,157.4387,0,0,1,394.6489,112Z"/>
</svg>
