<svg id="export" xmlns="http://www.w3.org/2000/svg" viewBox="0 0 512 512">
  <defs>
    <style>
      .cls-1, .cls-2 {
        fill:currentColor;
      }

      .cls-1 {
        opacity: 0.25;
      }
    </style>
  </defs>
  <title>developer-board</title>
  <path class="cls-1" d="M496,160V112H448V64a16,16,0,0,0-16-16H32A16,16,0,0,0,16,64V456a16,16,0,0,0,16,16H432a16,16,0,0,0,16-16V416h48V368H448V288h48V240H448V160Z"/>
  <rect class="cls-2" x="88" y="120" width="112" height="80"/>
  <rect class="cls-2" x="248" y="120" width="120" height="143.9999"/>
  <rect class="cls-2" x="248" y="312" width="120" height="96"/>
  <rect class="cls-2" x="88" y="248" width="112" height="160"/>
</svg>
