<svg id="export" xmlns="http://www.w3.org/2000/svg" viewBox="0 0 512 512">
  <defs>
    <style>
      .cls-1, .cls-2 {
        fill:currentColor;
      }

      .cls-1 {
        opacity: 0.25;
      }
    </style>
  </defs>
  <title>http</title>
  <rect class="cls-1" y="127" width="512" height="288" rx="16"/>
  <polygon class="cls-2" points="198 352 234 352 234 227.894 248 227.894 264 227.894 278 227.894 278 352 314 352 314 227.894 344 227.894 344 191.894 264 191.894 248 191.894 168 191.894 168 227.894 198 227.894 198 352"/>
  <path class="cls-2" d="M402,301.79h22a42.0479,42.0479,0,0,0,42-42V232a42.0478,42.0478,0,0,0-42-42H366V352h36ZM402,226h22a6.0066,6.0066,0,0,1,6,6v27.79a6.0066,6.0066,0,0,1-6,6H402Z"/>
  <polygon class="cls-2" points="82 290 110 290 110 352 146 352 146 192 110 192 110 254 82 254 82 192 46 192 46 352 82 352 82 290"/>
</svg>
