<svg id="export" xmlns="http://www.w3.org/2000/svg" viewBox="0 0 512 512">
  <defs>
    <style>
      .cls-1, .cls-2 {
        fill:currentColor;
      }

      .cls-2 {
        opacity: 0.25;
      }
    </style>
  </defs>
  <title>https</title>
  <path class="cls-1" d="M260,24c-74.9907,0-136,61.0093-136,136v32h48V160a88,88,0,0,1,176,0v32h48V160C396,85.0093,334.9907,24,260,24Z"/>
  <path class="cls-2" d="M400,192H120a32.0361,32.0361,0,0,0-32,32V456a32.0361,32.0361,0,0,0,32,32H400a32.0361,32.0361,0,0,0,32-32V224A32.0361,32.0361,0,0,0,400,192Z"/>
  <rect class="cls-1" x="224" y="312" width="72" height="72"/>
</svg>
