<svg id="export" xmlns="http://www.w3.org/2000/svg" viewBox="0 0 512 512">
  <defs>
    <style>
      .cls-1, .cls-2 {
        fill:currentColor;
      }

      .cls-1 {
        opacity: 0.25;
      }
    </style>
  </defs>
  <title>rss-square</title>
  <rect class="cls-1" x="32" y="32" width="448" height="448" rx="24"/>
  <g>
    <path class="cls-2" d="M116,259v42a99.112,99.112,0,0,1,99,99h42C257,322.252,193.748,259,116,259Z"/>
    <path class="cls-2" d="M116,179v42c98.7012,0,179,80.2988,179,179h42A221,221,0,0,0,116,179Z"/>
    <path class="cls-2" d="M328.8389,187.1611A299.0285,299.0285,0,0,0,116,99v42c142.8135,0,259,116.1865,259,259h42A299.0277,299.0277,0,0,0,328.8389,187.1611Z"/>
    <circle class="cls-2" cx="128" cy="388" r="32"/>
  </g>
</svg>
