<svg id="export" xmlns="http://www.w3.org/2000/svg" viewBox="0 0 512 512">
  <defs>
    <style>
      .cls-1, .cls-2 {
        fill:currentColor;
      }

      .cls-2 {
        opacity: 0.25;
      }
    </style>
  </defs>
  <title>share-boxed</title>
  <g>
    <path class="cls-1" d="M136.9343,168.1057A84.31,84.31,0,0,0,128,205.991v3.9778h0V414.5454h20.4576L187.9592,272.998a86.2,86.2,0,0,1,83.0271-63.0291h58.6563v89.4075h16.6692L488,158.55,346.3118,16H329.6426v91.6806H230.2882A102.306,102.306,0,0,0,136.9343,168.1057Z"/>
    <polygon class="cls-2" points="451 283 451 451 61 451 61 61 264 61 264 19 19 19 19 493 493 493 493 241 451 283"/>
  </g>
</svg>
