<svg id="export" xmlns="http://www.w3.org/2000/svg" viewBox="0 0 512 512">
  <defs>
    <style>
      .cls-1, .cls-2 {
        fill:currentColor;
      }

      .cls-1 {
        opacity: 0.25;
      }
    </style>
  </defs>
  <title>chevron-double-up-alt</title>
  <path class="cls-1" d="M455.9976,32.04l-400-.0214a23.9992,23.9992,0,0,0-24.0013,23.998l-.0217,400a24.0008,24.0008,0,0,0,23.9988,24.002l400,.0214a24,24,0,0,0,24.0012-23.999l.0217-400A24,24,0,0,0,455.9976,32.04Z"/>
  <polygon class="cls-2" points="101.029 368.029 134.971 401.971 256 280.941 377.029 401.971 410.971 368.029 256 213.059 101.029 368.029"/>
  <polygon class="cls-2" points="101.029 248.029 134.971 281.971 256 160.941 377.029 281.971 410.971 248.029 256 93.059 101.029 248.029"/>
</svg>
