<svg id="export" xmlns="http://www.w3.org/2000/svg" viewBox="0 0 512 512">
  <defs>
    <style>
      .cls-1, .cls-2 {
        fill:currentColor;
      }

      .cls-1 {
        opacity: 0.25;
      }
    </style>
  </defs>
  <title>chevron-double-down-alt</title>
  <path class="cls-1" d="M455.9976,31.9531l-400-.0224A24.0007,24.0007,0,0,0,31.9963,55.93l-.0217,400a23.9993,23.9993,0,0,0,23.9987,24.001l400,.0224a24.0007,24.0007,0,0,0,24.0013-23.999l.0217-400A23.9993,23.9993,0,0,0,455.9976,31.9531Z"/>
  <polygon class="cls-2" points="256 231.059 134.971 110.029 101.029 143.971 256 298.941 410.971 143.971 377.029 110.029 256 231.059"/>
  <polygon class="cls-2" points="256 351.059 134.971 230.029 101.029 263.971 256 418.941 410.971 263.971 377.029 230.029 256 351.059"/>
</svg>
