<svg id="export" xmlns="http://www.w3.org/2000/svg" viewBox="0 0 512 512">
  <defs>
    <style>
      .cls-1, .cls-2 {
        fill:currentColor;
      }

      .cls-1 {
        opacity: 0.25;
      }
    </style>
  </defs>
  <title>chevron-double-right-alt</title>
  <path class="cls-1" d="M455.9976,32.0107l-400-.0214a24,24,0,0,0-24.0013,23.999l-.0217,400a24.0006,24.0006,0,0,0,23.9988,24.001l400,.0214a24,24,0,0,0,24.0012-23.999l.0217-400A24,24,0,0,0,455.9976,32.0107Z"/>
  <polygon class="cls-2" points="143.971 410.971 298.941 256 143.971 101.029 110.029 134.971 231.059 256 110.029 377.029 143.971 410.971"/>
  <polygon class="cls-2" points="230.029 377.029 263.971 410.971 418.941 256 263.971 101.029 230.029 134.971 351.059 256 230.029 377.029"/>
</svg>
