<svg id="export" xmlns="http://www.w3.org/2000/svg" viewBox="0 0 512 512">
  <defs>
    <style>
      .cls-1, .cls-2 {
        fill:currentColor;
      }

      .cls-1 {
        opacity: 0.25;
      }
    </style>
  </defs>
  <title>infinity</title>
  <rect class="cls-1" x="32" y="32" width="448" height="448" rx="24"/>
  <path class="cls-2" d="M403.5537,195.1885l0,0a85.9986,85.9986,0,0,0-121.6216,0l-25.6961,25.6958L230.54,195.189A86,86,0,1,0,108.917,316.811h.0005a85.9986,85.9986,0,0,0,121.6216,0l25.6961-25.6958,25.696,25.6958A86,86,0,1,0,403.5537,195.1885ZM200.8408,287.1128a44,44,0,1,1,0-62.2256L231.9531,256Zm173.0147,0a44,44,0,0,1-62.2256,0L280.5176,256,311.63,224.8872a44.0506,44.0506,0,0,1,62.2256,0v0a44,44,0,0,1,0,62.2251Z"/>
</svg>
