<svg id="export" xmlns="http://www.w3.org/2000/svg" viewBox="0 0 512 512">
  <defs>
    <style>
      .cls-1, .cls-2 {
        fill:currentColor;
      }

      .cls-1 {
        opacity: 0.25;
      }
    </style>
  </defs>
  <title>overscan-settings</title>
  <path class="cls-1" d="M160,432h0a32,32,0,0,0,0,64h0a32,32,0,0,0,0-64Z"/>
  <path class="cls-1" d="M256,432h0a32,32,0,0,0,0,64h0a32,32,0,0,0,0-64Z"/>
  <path class="cls-1" d="M352,432h0a32,32,0,0,0,0,64h0a32,32,0,0,0,0-64Z"/>
  <rect class="cls-1" x="16" y="16" width="480" height="384" rx="24"/>
  <polygon class="cls-2" points="392 160 392 256 456 208 392 160"/>
  <polygon class="cls-2" points="256 56 208 120 304 120 256 56"/>
  <polygon class="cls-2" points="120 160 56 208 120 256 120 160"/>
  <polygon class="cls-2" points="304 296 208 296 256 360 304 296"/>
</svg>
