<svg id="export" xmlns="http://www.w3.org/2000/svg" viewBox="0 0 512 512">
  <defs>
    <style>
      .cls-1, .cls-2 {
        fill:currentColor;
      }

      .cls-2 {
        opacity: 0.25;
      }
    </style>
  </defs>
  <title>pin</title>
  <polygon class="cls-1" points="170.448 307.56 170.448 307.56 16.034 461.974 16.034 495.915 49.975 495.915 204.389 341.501 170.448 307.56"/>
  <path class="cls-2" d="M396.7943,212.1567l4.4992,4.4991a46.1258,46.1258,0,0,0,65.2306,0v-.0006a46.1248,46.1248,0,0,0,0-65.2305l-106-106a46.125,46.125,0,0,0-65.2306,65.2306l4.4983,4.4983Z"/>
  <path class="cls-2" d="M174.9282,181.5788l-49.4908-26.7439a8,8,0,0,0-9.62,1.546l-41.5522,44.007a8,8,0,0,0,.16,11.1492L170.4478,307.56h0l33.9413,33.9413,95.5578,95.5579a8.0006,8.0006,0,0,0,11.0917.2137l44.4265-41.1279a8,8,0,0,0,1.5909-9.6973L329.8513,336.502Z"/>
  <polygon class="cls-1" points="329.851 336.502 378.14 228.561 396.794 212.157 299.792 115.154 282.949 134.125 174.928 181.579 329.851 336.502"/>
</svg>
