<svg id="export" xmlns="http://www.w3.org/2000/svg" viewBox="0 0 512 512">
  <defs>
    <style>
      .cls-1 {
        fill:currentColor;
      }

      .cls-2 {
        opacity: 0.25;
      }
    </style>
  </defs>
  <title>select-all</title>
  <rect class="cls-1" x="120" y="120" width="272" height="272"/>
  <g class="cls-2">
    <rect class="cls-1" x="16" y="16" width="48" height="48"/>
    <rect class="cls-1" x="124" y="16" width="48" height="48"/>
    <rect class="cls-1" x="232" y="16" width="48" height="48"/>
    <rect class="cls-1" x="340" y="16" width="48" height="48"/>
    <rect class="cls-1" x="448" y="16" width="48" height="48"/>
    <rect class="cls-1" x="16" y="124" width="48" height="48"/>
    <rect class="cls-1" x="448" y="124" width="48" height="48"/>
    <rect class="cls-1" x="16" y="232" width="48" height="48"/>
    <rect class="cls-1" x="448" y="232" width="48" height="48"/>
    <rect class="cls-1" x="16" y="340" width="48" height="48"/>
    <rect class="cls-1" x="16" y="448" width="48" height="48"/>
    <rect class="cls-1" x="448" y="340" width="48" height="48"/>
    <rect class="cls-1" x="124" y="448" width="48" height="48"/>
    <rect class="cls-1" x="232" y="448" width="48" height="48"/>
    <rect class="cls-1" x="340" y="448" width="48" height="48"/>
    <rect class="cls-1" x="448" y="448" width="48" height="48"/>
  </g>
</svg>
