<svg id="export" xmlns="http://www.w3.org/2000/svg" viewBox="0 0 512 512">
  <defs>
    <style>
      .cls-1 {
        fill: none;
      }

      .cls-2 {
        fill:currentColor;
      }

      .cls-3 {
        opacity: 0.25;
      }
    </style>
  </defs>
  <title>trash-x</title>
  <rect class="cls-1" x="221" y="61" width="70" height="30"/>
  <path class="cls-2" d="M333,91V48c0-16.2617-11.6836-29-26.6-29H205.6C190.6836,19,179,31.7383,179,48V91H64v42H448V91Zm-42,0H221V61h70Z"/>
  <g class="cls-3">
    <path class="cls-2" d="M96,168V472.2051A23.7146,23.7146,0,0,0,119.5791,496H392.4209A23.7146,23.7146,0,0,0,416,472.2051V168Z"/>
  </g>
  <polygon class="cls-2" points="307.272 251.272 256 302.545 204.728 251.272 179.272 276.728 230.545 328 179.272 379.272 204.728 404.728 256 353.455 307.272 404.728 332.728 379.272 281.455 328 332.728 276.728 307.272 251.272"/>
</svg>
