<svg id="export" xmlns="http://www.w3.org/2000/svg" viewBox="0 0 512 512">
  <defs>
    <style>
      .cls-1 {
        fill:currentColor;
      }

      .cls-2 {
        opacity: 0.25;
      }
    </style>
  </defs>
  <title>trash-arrow-up</title>
  <path class="cls-1" d="M333,91V48c0-16.2617-11.6836-29-26.6-29H205.6C190.6836,19,179,31.7383,179,48V91H64v42H448V91ZM221,61h70V91H221Z"/>
  <g class="cls-2">
    <path class="cls-1" d="M96,472.2051A23.7146,23.7146,0,0,0,119.5791,496H392.4209A23.7146,23.7146,0,0,0,416,472.2051V168H96Z"/>
  </g>
  <polygon class="cls-1" points="238 309.098 238 422.546 274 422.546 274 308.721 315.243 350.153 340.757 324.755 256.388 239.998 171.301 324.697 196.699 350.211 238 309.098"/>
</svg>
