<svg id="export" xmlns="http://www.w3.org/2000/svg" viewBox="0 0 512 512">
  <defs>
    <style>
      .cls-1, .cls-2 {
        fill:currentColor;
      }

      .cls-1 {
        opacity: 0.25;
      }
    </style>
  </defs>
  <title>window-restore</title>
  <path class="cls-1" d="M472,30H152a26.0292,26.0292,0,0,0-26,26v65h36V66H462V337.1426H408v36h64a26.0292,26.0292,0,0,0,26-26V56A26.0292,26.0292,0,0,0,472,30Z"/>
  <path class="cls-2" d="M16.2476,264.22V458a24.0275,24.0275,0,0,0,24,24H352a24.0275,24.0275,0,0,0,24-24V264.22Z"/>
  <path class="cls-2" d="M352,153H40.2476a24.0275,24.0275,0,0,0-24,24v51.22H376V177A24.0275,24.0275,0,0,0,352,153Z"/>
</svg>
