<svg id="export" xmlns="http://www.w3.org/2000/svg" viewBox="0 0 512 512">
  <defs>
    <style>
      .cls-1, .cls-2 {
        fill:currentColor;
      }

      .cls-2 {
        opacity: 0.25;
      }
    </style>
  </defs>
  <title>zoom-in</title>
  <polygon class="cls-1" points="220 112 172 112 172 172 112 172 112 220 172 220 172 280 220 280 220 220 280 220 280 172 220 172 220 112"/>
  <path class="cls-2" d="M479.5977,400.4023l-81.084-81.0839L345.6,297.4573a179.3158,179.3158,0,0,0,31.0866-101.1145C376.6865,96.9014,295.7842,16,196.3428,16S16,96.9014,16,196.3428,96.9014,376.6865,196.3428,376.6865A179.3158,179.3158,0,0,0,297.4573,345.6l21.8611,52.9138,81.0839,81.084a56,56,0,1,0,79.1954-79.1954ZM64,196.3428C64,123.3691,123.3691,64,196.3428,64s132.3437,59.3691,132.3437,132.3428S269.3174,328.6865,196.3428,328.6865,64,269.3174,64,196.3428Z"/>
</svg>
