<svg id="export" xmlns="http://www.w3.org/2000/svg" viewBox="0 0 512 512">
  <defs>
    <style>
      .cls-1 {
        fill: currentColor;
      }
    </style>
  </defs>
  <title>star-circle</title>
  <g>
    <path class="cls-1" d="M365.1331,191.2416l-55.125-8.9586-25.5545-49.6585a32,32,0,0,0-56.9072,0L201.9919,182.283l-55.125,8.9586a32,32,0,0,0-17.5853,54.1217l39.3314,39.6494-8.5145,55.1952a32,32,0,0,0,46.0387,33.4491L256,348.503l49.8628,25.154a32,32,0,0,0,46.0387-33.4491l-8.5145-55.1952,39.3313-39.6494a32,32,0,0,0-17.5852-54.1217ZM309.3,273.9371l10.9755,71.1494L256,312.6618l-64.2755,32.4247L202.7,273.9371l-50.7-51.11,71.0588-11.5481L256,147.2668l32.9412,64.0124L360,222.8273Z"/>
    <path class="cls-1" d="M425.8564,87.3789A239.3646,239.3646,0,1,0,87.3438,425.8916,239.3646,239.3646,0,1,0,425.8564,87.3789ZM256.6006,464C142.2588,464,49.2354,370.9766,49.2354,256.6353S142.2588,49.2705,256.6006,49.2705s207.3642,93.0234,207.3642,207.3648S370.9414,464,256.6006,464Z"/>
  </g>
</svg>
