<svg id="export" xmlns="http://www.w3.org/2000/svg" viewBox="0 0 512 512">
  <defs>
    <style>
      .cls-1 {
        fill: currentColor;
      }
    </style>
  </defs>
  <title>3d-rotate</title>
  <path class="cls-1" d="M268.3184,126.874a24.0672,24.0672,0,0,0-23.9976.0015L145.31,184.04A24.0655,24.0655,0,0,0,133.31,204.8242V319.1528a24.0656,24.0656,0,0,0,12,20.7847l99.01,57.1636a24.0676,24.0676,0,0,0,24.001.0005L367.333,339.937a24.0673,24.0673,0,0,0,11.999-20.7842V204.8242a24.0674,24.0674,0,0,0-12-20.7846Zm82.3623,205.022-16.8875-9.5452-77.4724,44.7283-77.5059-44.7477-16.9218,9.5646L146.147,304.0376,165.31,293.2065V209.4429l75.0049-43.3037V144.5854h32v21.5464l75.0175,43.3111v83.802l19.0948,10.7927Z"/>
  <polygon class="cls-1" points="272.314 250.844 272.314 264.638 240.314 264.638 240.314 250.812 165.31 293.207 146.147 304.038 161.893 331.896 178.815 322.331 256.287 278.542 333.793 322.351 350.681 331.896 366.427 304.038 347.332 293.245 272.314 250.844"/>
  <polygon class="cls-1" points="240.314 264.638 272.314 264.638 272.314 250.844 272.314 166.132 272.314 144.585 240.314 144.585 240.314 166.139 240.314 250.812 240.314 264.638"/>
  <path class="cls-1" d="M368,15.9648H256.3206L256,16c-63.783.0944-123.4139,25.6786-168.5254,70.79A237.7327,237.7327,0,0,0,17.3857,256h32c0-114.1837,92.7971-207.0967,206.9349-207.2942v41.759Z"/>
  <path class="cls-1" d="M463.9824,256.0352c0,114.1057-93.2445,206.9721-207.9952,207.3314V432L144.3079,496H255.9872c132.3952-.36,239.9952-108.2137,239.9952-239.9648Z"/>
</svg>
