<svg id="export" xmlns="http://www.w3.org/2000/svg" viewBox="0 0 512 512">
  <defs>
    <style>
      .cls-1 {
        fill: currentColor;
      }
    </style>
  </defs>
  <title>aperture</title>
  <path class="cls-1" d="M256.6841,16.7363A239.2987,239.2987,0,0,0,87.4746,425.2446,239.2985,239.2985,0,0,0,425.8936,86.8252,237.7324,237.7324,0,0,0,256.6841,16.7363ZM463.9824,256.0352a206.0317,206.0317,0,0,1-22.8573,94.5668l13.49,23.3326-27.7031,16.0166-5.0755-8.779a207.1657,207.1657,0,0,1-154.5793,81.894L253.666,486.832l-27.7783-15.8857,5.2537-9.187a207.5868,207.5868,0,0,1-148.7021-93.542H55.3423v-32H65.5258a207.0958,207.0958,0,0,1,7.122-175.5152L59.37,137.58l27.75-15.9356,4.9276,8.581A207.14,207.14,0,0,1,246.7869,48.9778L260.36,25.3672l27.7421,15.9482-5.2147,9.071a207.6036,207.6036,0,0,1,148.1468,93.6268H458.666v32H447.908A206.1578,206.1578,0,0,1,463.9824,256.0352Z"/>
  <polygon class="cls-1" points="458.666 144.013 431.035 144.013 229.063 144.013 210.667 176.013 303.224 176.013 298.213 167.346 325.916 151.33 340.187 176.013 447.908 176.013 458.666 176.013 458.666 144.013"/>
  <polygon class="cls-1" points="325.916 151.33 298.213 167.346 303.224 176.013 349.136 255.426 353.573 247.666 381.352 263.552 367.668 287.48 421.836 381.172 426.912 389.951 454.615 373.935 441.125 350.602 340.187 176.013 325.916 151.33"/>
  <polygon class="cls-1" points="381.352 263.552 353.573 247.666 349.136 255.426 302.934 336.217 311.727 336.217 311.727 368.217 284.635 368.217 231.141 461.759 225.888 470.946 253.666 486.832 267.257 463.066 367.668 287.48 381.352 263.552"/>
  <polygon class="cls-1" points="311.727 368.217 311.727 336.217 302.934 336.217 210.337 336.217 215.144 344.587 187.394 360.523 173.436 336.217 65.526 336.217 55.342 336.217 55.342 368.217 82.439 368.217 284.635 368.217 311.727 368.217"/>
  <polygon class="cls-1" points="187.394 360.523 215.144 344.587 210.337 336.217 164.478 256.358 159.742 264.597 132 248.648 146.033 224.237 92.048 130.226 87.12 121.645 59.37 137.58 72.648 160.702 173.436 336.217 187.394 360.523"/>
  <polygon class="cls-1" points="132 248.648 159.742 264.597 164.478 256.358 210.667 176.013 229.063 144.013 282.888 50.386 288.103 41.315 260.36 25.367 246.787 48.978 146.033 224.237 132 248.648"/>
</svg>
