<svg id="export" xmlns="http://www.w3.org/2000/svg" viewBox="0 0 512 512">
  <defs>
    <style>
      .cls-1 {
        fill: currentColor;
      }
    </style>
  </defs>
  <title>blur-linear</title>
  <g>
    <rect class="cls-1" x="16" y="16" width="480" height="32"/>
    <rect class="cls-1" x="16" y="464" width="480" height="32"/>
    <path class="cls-1" d="M87.3711,231.4673A71.3706,71.3706,0,1,0,16,160.0967,71.4512,71.4512,0,0,0,87.3711,231.4673Zm0-110.7412A39.3706,39.3706,0,1,1,48,160.0967,39.4148,39.4148,0,0,1,87.3711,120.7261Z"/>
    <path class="cls-1" d="M274.3105,231.4673A59.4673,59.4673,0,1,0,214.8428,172,59.5343,59.5343,0,0,0,274.3105,231.4673Zm0-86.9346A27.4673,27.4673,0,1,1,246.8428,172,27.4979,27.4979,0,0,1,274.3105,144.5327Z"/>
    <path class="cls-1" d="M435.5161,215.4675a29.637,29.637,0,1,0-29.6372-29.6369A29.6369,29.6369,0,0,0,435.5161,215.4675Z"/>
    <path class="cls-1" d="M87.3711,427.35A71.3709,71.3709,0,1,0,16,355.979,71.4512,71.4512,0,0,0,87.3711,427.35Zm0-110.7417A39.3709,39.3709,0,1,1,48,355.979,39.4149,39.4149,0,0,1,87.3711,316.6079Z"/>
    <path class="cls-1" d="M274.3105,403.543a59.4676,59.4676,0,1,0-59.4677-59.4673A59.5343,59.5343,0,0,0,274.3105,403.543Zm0-86.9351a27.4676,27.4676,0,1,1-27.4677,27.4678A27.498,27.498,0,0,1,274.3105,316.6079Z"/>
    <path class="cls-1" d="M435.5161,359.8818a29.6369,29.6369,0,1,0-29.6372-29.6368A29.6368,29.6368,0,0,0,435.5161,359.8818Z"/>
  </g>
</svg>
