<svg id="export" xmlns="http://www.w3.org/2000/svg" viewBox="0 0 512 512">
  <defs>
    <style>
      .cls-1 {
        fill: currentColor;
      }
    </style>
  </defs>
  <title>blur-slash</title>
  <g>
    <path class="cls-1" d="M274.3105,164.9741a59.4675,59.4675,0,1,0-59.4677-59.4673A59.5343,59.5343,0,0,0,274.3105,164.9741Zm0-86.935a27.4675,27.4675,0,1,1-27.4677,27.4677A27.498,27.498,0,0,1,274.3105,78.0391Z"/>
    <circle class="cls-1" cx="435.5159" cy="115.3857" r="29.6369"/>
    <path class="cls-1" d="M87.3711,185.77a71.3706,71.3706,0,1,0,71.37,71.3706A71.4514,71.4514,0,0,0,87.3711,185.77Zm0,110.7412a39.3706,39.3706,0,1,1,39.37-39.3706A39.4156,39.4156,0,0,1,87.3711,296.5112Z"/>
    <circle class="cls-1" cx="435.5159" cy="257.1405" r="29.6369"/>
    <path class="cls-1" d="M87.3711,353.2583a71.3709,71.3709,0,1,0,71.37,71.3711A71.4518,71.4518,0,0,0,87.3711,353.2583Zm0,110.7417a39.3709,39.3709,0,1,1,39.37-39.3706A39.4156,39.4156,0,0,1,87.3711,464Z"/>
    <path class="cls-1" d="M274.3105,349.3071a59.4673,59.4673,0,1,0,59.4668,59.4673A59.5345,59.5345,0,0,0,274.3105,349.3071Zm0,86.9346a27.4673,27.4673,0,1,1,27.4668-27.4673A27.4988,27.4988,0,0,1,274.3105,436.2417Z"/>
    <path class="cls-1" d="M38.6272,16.6667H16V39.2935L27.532,50.8254a71.3151,71.3151,0,0,0,98.6653,98.6652l91.0271,91.0272a59.434,59.434,0,0,0,73.7085,73.7085l182.44,182.44H496V474.04ZM87.3711,129.0225A39.3686,39.3686,0,0,1,51.0845,74.3781l51.56,51.56A39.1526,39.1526,0,0,1,87.3711,129.0225Z"/>
  </g>
</svg>
