<svg id="export" xmlns="http://www.w3.org/2000/svg" viewBox="0 0 512 512">
  <defs>
    <style>
      .cls-1 {
        fill: currentColor;
      }
    </style>
  </defs>
  <title>blur-circular</title>
  <path class="cls-1" d="M256,16A240,240,0,0,0,86.2944,425.7051,240,240,0,1,0,425.7056,86.2944,238.4289,238.4289,0,0,0,256,16ZM403.0781,403.0781h0c-81.1,81.1-213.0581,81.1-294.1567,0s-81.0991-213.0571,0-294.1562a208.237,208.237,0,0,1,294.1567,0C484.1772,190.021,484.1772,321.9785,403.0781,403.0781Z"/>
  <path class="cls-1" d="M197.4834,242.3823a46.3321,46.3321,0,1,0-32.7764-13.5552A46.21,46.21,0,0,0,197.4834,242.3823ZM187.334,185.9014a14.3534,14.3534,0,1,1,0,20.2988A14.3065,14.3065,0,0,1,187.334,185.9014Z"/>
  <path class="cls-1" d="M314.5166,242.3823A46.3444,46.3444,0,1,0,281.74,163.2734l0,0a46.3321,46.3321,0,0,0,32.7769,79.1084Zm-10.1492-56.4812a14.3535,14.3535,0,1,1,0,20.2991A14.3691,14.3691,0,0,1,304.3674,185.9011Z"/>
  <path class="cls-1" d="M164.707,283.1729a46.3528,46.3528,0,1,0,65.5528,0A46.0471,46.0471,0,0,0,164.707,283.1729Zm42.9258,42.9257a14.3467,14.3467,0,1,1,0-20.2988A14.37,14.37,0,0,1,207.6328,326.0986Z"/>
  <path class="cls-1" d="M281.74,283.1729a46.3535,46.3535,0,1,0,65.5528,0A46.4048,46.4048,0,0,0,281.74,283.1729Zm42.9258,42.9257a14.3532,14.3532,0,1,1,4.2041-10.1494A14.3709,14.3709,0,0,1,324.666,326.0986Z"/>
  <circle class="cls-1" cx="314.5168" cy="98.5" r="29.6369" transform="translate(-14.217 74.8962) rotate(-13.2825)"/>
  <circle class="cls-1" cx="197.4833" cy="98.5" r="29.6369" transform="translate(-17.3478 48.0074) rotate(-13.2825)"/>
  <circle class="cls-1" cx="314.5168" cy="413.5" r="29.6369" transform="translate(-86.5891 83.3226) rotate(-13.2825)"/>
  <circle class="cls-1" cx="197.4833" cy="413.5" r="29.6369" transform="translate(-89.7199 56.4338) rotate(-13.2825)"/>
  <circle class="cls-1" cx="413.5" cy="314.5167" r="29.6369" transform="translate(-61.1996 103.4166) rotate(-13.2825)"/>
  <circle class="cls-1" cx="413.5" cy="197.4832" r="29.6369" transform="translate(-18.5304 350.2302) rotate(-45)"/>
  <circle class="cls-1" cx="98.5" cy="314.5167" r="29.637"/>
  <circle class="cls-1" cx="98.5" cy="197.4832" r="29.637"/>
</svg>
