<svg id="export" xmlns="http://www.w3.org/2000/svg" viewBox="0 0 512 512">
  <defs>
    <style>
      .cls-1 {
        fill: currentColor;
      }
    </style>
  </defs>
  <title>border-left</title>
  <g>
    <polygon class="cls-1" points="40 72 40 105.455 40 138.909 40 172.364 40 205.818 40 239.273 40 272.728 40 306.183 40 339.637 40 373.092 40 406.546 40 440 40 472 72 472 72 440 72 406.546 72 373.092 72 339.637 72 306.183 72 272.728 72 272 72 240 72 239.273 72 205.818 72 172.364 72 138.909 72 105.455 72 72 72 40 40 40 40 72"/>
    <rect class="cls-1" x="440" y="440" width="32" height="32"/>
    <rect class="cls-1" x="306.1816" y="440" width="33.4546" height="32"/>
    <rect class="cls-1" x="172.3638" y="440" width="33.4546" height="32"/>
    <rect class="cls-1" x="373.0908" y="440" width="33.4546" height="32"/>
    <rect class="cls-1" x="105.4546" y="440" width="33.4546" height="32"/>
    <rect class="cls-1" x="306.1816" y="40" width="33.4546" height="32"/>
    <rect class="cls-1" x="172.3638" y="40" width="33.4546" height="32"/>
    <rect class="cls-1" x="373.0908" y="40" width="33.4546" height="32"/>
    <rect class="cls-1" x="239.2725" y="40" width="33.4551" height="32"/>
    <rect class="cls-1" x="105.4546" y="40" width="33.4546" height="32"/>
    <rect class="cls-1" x="440" y="40" width="32" height="32"/>
    <rect class="cls-1" x="440" y="373.0908" width="32" height="33.4541"/>
    <rect class="cls-1" x="440" y="306.1816" width="32" height="33.4541"/>
    <rect class="cls-1" x="440" y="105.4541" width="32" height="33.4541"/>
    <rect class="cls-1" x="440" y="172.3633" width="32" height="33.4541"/>
    <rect class="cls-1" x="440" y="239.2725" width="32" height="33.4551"/>
    <rect class="cls-1" x="239.2725" y="239.2725" width="33.4551" height="33.4551"/>
    <rect class="cls-1" x="239.2725" y="306.1816" width="33.4551" height="33.4541"/>
    <rect class="cls-1" x="239.2725" y="172.3633" width="33.4551" height="33.4541"/>
    <rect class="cls-1" x="239.2725" y="105.4541" width="33.4551" height="33.4541"/>
    <rect class="cls-1" x="239.2725" y="373.0908" width="33.4551" height="33.4541"/>
    <rect class="cls-1" x="239.2725" y="440" width="33.4551" height="32"/>
    <rect class="cls-1" x="306.1816" y="239.2725" width="33.4546" height="33.4551"/>
    <rect class="cls-1" x="373.0908" y="239.2725" width="33.4546" height="33.4551"/>
    <rect class="cls-1" x="172.3638" y="239.2725" width="33.4546" height="33.4551"/>
    <rect class="cls-1" x="105.4546" y="239.2725" width="33.4546" height="33.4551"/>
  </g>
</svg>
