<svg id="export" xmlns="http://www.w3.org/2000/svg" viewBox="0 0 512 512">
  <defs>
    <style>
      .cls-1 {
        fill: currentColor;
      }
    </style>
  </defs>
  <title>border-outer</title>
  <g>
    <path class="cls-1" d="M456,40H56A16,16,0,0,0,40,56V456a16,16,0,0,0,16,16H456a16,16,0,0,0,16-16V56A16,16,0,0,0,456,40ZM440,440H72V72H440Z"/>
    <rect class="cls-1" x="239.2725" y="239.2725" width="33.4551" height="33.4551"/>
    <rect class="cls-1" x="239.2725" y="306.1816" width="33.4551" height="33.4541"/>
    <rect class="cls-1" x="239.2725" y="172.3633" width="33.4551" height="33.4541"/>
    <rect class="cls-1" x="239.2725" y="105.4541" width="33.4551" height="33.4541"/>
    <rect class="cls-1" x="239.2725" y="373.0908" width="33.4551" height="33.4541"/>
    <rect class="cls-1" x="306.1816" y="239.2725" width="33.4546" height="33.4551"/>
    <rect class="cls-1" x="373.0908" y="239.2725" width="33.4546" height="33.4551"/>
    <rect class="cls-1" x="172.3638" y="239.2725" width="33.4546" height="33.4551"/>
    <rect class="cls-1" x="105.4546" y="239.2725" width="33.4546" height="33.4551"/>
  </g>
</svg>
