<svg id="export" xmlns="http://www.w3.org/2000/svg" viewBox="0 0 512 512">
  <defs>
    <style>
      .cls-1 {
        fill: currentColor;
      }
    </style>
  </defs>
  <title>border-bottom</title>
  <g>
    <rect class="cls-1" x="40" y="440" width="432" height="32"/>
    <rect class="cls-1" x="40" y="306.1826" width="32" height="33.4541"/>
    <rect class="cls-1" x="40" y="373.0918" width="32" height="33.4541"/>
    <rect class="cls-1" x="40" y="239.2725" width="32" height="33.4551"/>
    <rect class="cls-1" x="40" y="172.3643" width="32" height="33.4541"/>
    <rect class="cls-1" x="40" y="105.4551" width="32" height="33.4541"/>
    <rect class="cls-1" x="40" y="40" width="32" height="32"/>
    <rect class="cls-1" x="306.1816" y="40" width="33.4546" height="32"/>
    <rect class="cls-1" x="172.3638" y="40" width="33.4546" height="32"/>
    <rect class="cls-1" x="373.0908" y="40" width="33.4546" height="32"/>
    <rect class="cls-1" x="239.2725" y="40" width="33.4551" height="32"/>
    <rect class="cls-1" x="105.4546" y="40" width="33.4546" height="32"/>
    <rect class="cls-1" x="440" y="40" width="32" height="32"/>
    <rect class="cls-1" x="440" y="373.0908" width="32" height="33.4541"/>
    <rect class="cls-1" x="440" y="306.1816" width="32" height="33.4541"/>
    <rect class="cls-1" x="440" y="105.4541" width="32" height="33.4541"/>
    <rect class="cls-1" x="440" y="172.3633" width="32" height="33.4541"/>
    <rect class="cls-1" x="440" y="239.2725" width="32" height="33.4551"/>
    <rect class="cls-1" x="239.2725" y="239.2725" width="33.4551" height="33.4551"/>
    <rect class="cls-1" x="239.2725" y="306.1816" width="33.4551" height="33.4541"/>
    <rect class="cls-1" x="239.2725" y="172.3633" width="33.4551" height="33.4541"/>
    <rect class="cls-1" x="239.2725" y="105.4541" width="33.4551" height="33.4541"/>
    <rect class="cls-1" x="239.2725" y="373.0908" width="33.4551" height="33.4541"/>
    <rect class="cls-1" x="306.1816" y="239.2725" width="33.4546" height="33.4551"/>
    <rect class="cls-1" x="373.0908" y="239.2725" width="33.4546" height="33.4551"/>
    <rect class="cls-1" x="172.3638" y="239.2725" width="33.4546" height="33.4551"/>
    <rect class="cls-1" x="105.4546" y="239.2725" width="33.4546" height="33.4551"/>
  </g>
</svg>
