<svg id="export" xmlns="http://www.w3.org/2000/svg" viewBox="0 0 512 512">
  <defs>
    <style>
      .cls-1 {
        fill: currentColor;
      }
    </style>
  </defs>
  <title>brush-alt</title>
  <path class="cls-1" d="M408,208H321.3833l13.0742-106.2627.0689-.6777a78.7773,78.7773,0,1,0-157.0528,0l.0274.3388L190.6167,208H104a48.0547,48.0547,0,0,0-48,48V496H456V256A48.0547,48.0547,0,0,0,408,208Zm16,256H88V320H424ZM88,288V256a16.0183,16.0183,0,0,1,16-16H226.7954L209.3477,98.1924a46.7772,46.7772,0,1,1,93.3046,0L285.2046,240H408a16.0183,16.0183,0,0,1,16,16v32Z"/>
</svg>
