<svg id="export" xmlns="http://www.w3.org/2000/svg" viewBox="0 0 512 512">
  <defs>
    <style>
      .cls-1 {
        fill: currentColor;
      }
    </style>
  </defs>
  <title>center-focus</title>
  <g>
    <path class="cls-1" d="M48,448V328H16V448a48.054,48.054,0,0,0,48,48H184V464H64A16.0183,16.0183,0,0,1,48,448Z"/>
    <path class="cls-1" d="M48,64A16.0183,16.0183,0,0,1,64,48H184V16H64A48.054,48.054,0,0,0,16,64V184H48Z"/>
    <path class="cls-1" d="M448,16H328V48H448a16.0183,16.0183,0,0,1,16,16V184h32V64A48.054,48.054,0,0,0,448,16Z"/>
    <path class="cls-1" d="M464,448a16.0183,16.0183,0,0,1-16,16H328v32H448a48.054,48.054,0,0,0,48-48V328H464Z"/>
    <path class="cls-1" d="M400,256c0-79.4023-64.5981-144-144-144S112,176.5977,112,256s64.5981,144,144,144S400,335.4023,400,256ZM256,368A112,112,0,1,1,368,256,112.1271,112.1271,0,0,1,256,368Z"/>
  </g>
</svg>
