<svg id="export" xmlns="http://www.w3.org/2000/svg" viewBox="0 0 512 512">
  <defs>
    <style>
      .cls-1 {
        fill: currentColor;
      }
    </style>
  </defs>
  <title>color-fill</title>
  <g>
    <path class="cls-1" d="M472,376H40a24.0275,24.0275,0,0,0-24,24v72a24.0275,24.0275,0,0,0,24,24H472a24.0275,24.0275,0,0,0,24-24V400A24.0275,24.0275,0,0,0,472,376Zm-8,88H48V408H464Z"/>
    <path class="cls-1" d="M45.01,239.4888a50.2005,50.2005,0,0,0,36.2006,61.07l158.502,40.5244h0a50.1748,50.1748,0,0,0,61.07-36.2007l52.959-207.1377L97.9688,32.3516l-12.01,46.9748L27.9634,64.4985l-7.9268,31.003,57.9955,14.8278Zm202.6289,70.5918h0L89.1372,269.5562a18.22,18.22,0,0,1-13.1245-22.1407L80,231.82V232H286.387L269.78,296.9561A18.22,18.22,0,0,1,247.6387,310.0806ZM314.812,120.8213,294.5685,200H88.1354L121.0449,71.2808Z"/>
    <path class="cls-1" d="M420,352c37.4951,0,68-32.2988,68-72,0-16.1807-9.3413-38.5142-28.5586-68.2769-13.2851-20.5756-26.3906-37.0214-26.9419-37.7114L420,158.37l-12.5,15.6416c-.5513.69-13.6567,17.1358-26.9419,37.7114C361.3413,241.4858,352,263.8193,352,280,352,319.7012,382.5049,352,420,352Zm0-141.4414c17.6577,24.6387,36,55.4268,36,69.4414,0,22.0562-16.1494,40-36,40s-36-17.9438-36-40C384,265.9854,402.3433,235.1958,420,210.5586Z"/>
  </g>
</svg>
