<svg id="export" xmlns="http://www.w3.org/2000/svg" viewBox="0 0 512 512">
  <defs>
    <style>
      .cls-1 {
        fill: currentColor;
      }
    </style>
  </defs>
  <title>contrast</title>
  <path class="cls-1" d="M256,16C123.4517,16,16,123.4517,16,256S123.4517,496,256,496,496,388.5483,496,256,388.5483,16,256,16ZM48,256q0-9.9119.9216-19.67L234,339.939v53.3278L50.8889,290.76A209.8162,209.8162,0,0,1,48,256Zm22.3005-93.8093L234,253.9343v49.3325L54.819,202.96a206.4594,206.4594,0,0,1,9.5135-27.9128Q67.1027,168.4976,70.3005,162.1907ZM234,49.1511v80.3928L144.3521,80.4512A206.9236,206.9236,0,0,1,234,49.1511ZM116.5212,101.6938,234,166.0273v51.2251L86.9137,134.82a209.4375,209.4375,0,0,1,22.0082-25.8976Q112.6419,105.2019,116.5212,101.6938Zm-7.5993,301.3843a207.3435,207.3435,0,0,1-44.5894-66.125c-.3633-.8589-.7051-1.7243-1.0563-2.5868L234,429.939v32.91a207.1157,207.1157,0,0,1-125.0781-59.7708Zm294.1562,0A207.1506,207.1506,0,0,1,266,463.761V48.239A207.9209,207.9209,0,0,1,403.0781,403.0781Z"/>
</svg>
