<svg id="export" xmlns="http://www.w3.org/2000/svg" viewBox="0 0 512 512">
  <defs>
    <style>
      .cls-1 {
        fill: currentColor;
      }
    </style>
  </defs>
  <title>crop-rotate</title>
  <path class="cls-1" d="M368,15.9648H256.3206L256,16c-63.783.0944-123.4139,25.6786-168.5254,70.79A237.7327,237.7327,0,0,0,17.3857,256h32c0-114.1837,92.7971-207.0967,206.9349-207.2942v41.759Z"/>
  <path class="cls-1" d="M463.9824,256.0352c0,114.1057-93.2445,206.9721-207.9952,207.3314V432L144.3079,496H255.9872c132.3952-.36,239.9952-108.2137,239.9952-239.9648Z"/>
  <path class="cls-1" d="M384,145.3721V128H361.3721l-24,24H184V120H152v32H120v32h32V360H320v32h32V360h32V328H352V222.6278l-32,32V328H201.3725Zm-200,160V184H305.3722Z"/>
</svg>
