<svg id="export" xmlns="http://www.w3.org/2000/svg" viewBox="0 0 512 512">
  <defs>
    <style>
      .cls-1 {
        fill: currentColor;
      }
    </style>
  </defs>
  <title>drop</title>
  <path class="cls-1" d="M256,494.1992c-94.7847,0-171.8975-77.1133-171.8975-171.8984a170.5259,170.5259,0,0,1,33.2627-101.6367l125.16-195.49a16,16,0,0,1,26.95,0L394.6343,220.6636a170.5283,170.5283,0,0,1,33.2632,101.6372C427.8975,417.0859,350.7847,494.1992,256,494.1992Zm0-430.7241L144.0327,238.36q-.2894.4518-.6084.8838a138.7533,138.7533,0,0,0-27.3218,83.0571c0,77.1406,62.7579,139.8984,139.8975,139.8984s139.8975-62.7578,139.8975-139.8984a138.753,138.753,0,0,0-27.3223-83.0576q-.3186-.4314-.6084-.8838Z"/>
</svg>
