<svg id="export" xmlns="http://www.w3.org/2000/svg" viewBox="0 0 512 512">
  <defs>
    <style>
      .cls-1 {
        fill: currentColor;
      }
    </style>
  </defs>
  <title>exposure</title>
  <g>
    <path class="cls-1" d="M456,40H56A16,16,0,0,0,40,56V456a16,16,0,0,0,16,16H456a16,16,0,0,0,16-16V56A16,16,0,0,0,456,40ZM72,72H417.3726L72,417.373ZM440,440H94.627L440,94.6274Z"/>
    <polygon class="cls-1" points="336 368 336 408 368 408 368 368 408 368 408 336 368 336 368 296 336 296 336 336 296 336 296 368 336 368"/>
    <rect class="cls-1" x="112" y="136" width="112" height="32"/>
  </g>
</svg>
