<svg id="export" xmlns="http://www.w3.org/2000/svg" viewBox="0 0 512 512">
  <defs>
    <style>
      .cls-1 {
        fill: currentColor;
      }
    </style>
  </defs>
  <title>flip</title>
  <g>
    <rect class="cls-1" x="296" y="40" width="32" height="32"/>
    <rect class="cls-1" x="368" y="40" width="32" height="32"/>
    <rect class="cls-1" x="296" y="440" width="32" height="32"/>
    <rect class="cls-1" x="368" y="440" width="32" height="32"/>
    <rect class="cls-1" x="440" y="40" width="32" height="32"/>
    <rect class="cls-1" x="440" y="105.4541" width="32" height="33.4541"/>
    <rect class="cls-1" x="440" y="172.3633" width="32" height="33.4541"/>
    <rect class="cls-1" x="440" y="373.0908" width="32" height="33.4541"/>
    <rect class="cls-1" x="440" y="239.2725" width="32" height="33.4541"/>
    <rect class="cls-1" x="440" y="306.1816" width="32" height="33.4541"/>
    <rect class="cls-1" x="440" y="440" width="32" height="32"/>
    <path class="cls-1" d="M224,40H56A16,16,0,0,0,40,56V456a16,16,0,0,0,16,16H224v24h32V16H224Zm0,400H72V72H224Z"/>
  </g>
</svg>
