<svg id="export" xmlns="http://www.w3.org/2000/svg" viewBox="0 0 512 512">
  <defs>
    <style>
      .cls-1 {
        fill: currentColor;
      }
    </style>
  </defs>
  <title>gradient</title>
  <g>
    <path class="cls-1" d="M440,40H72A16,16,0,0,0,56,56V456a16,16,0,0,0,16,16H440a16,16,0,0,0,16-16V56A16,16,0,0,0,440,40ZM88,280h48V232H88V72H424V232H376v48h48v48H376v40H328V328H280v40H232V328H184v40H136V328H88Z"/>
    <rect class="cls-1" x="136" y="280" width="48" height="48"/>
    <rect class="cls-1" x="184" y="232" width="48" height="48"/>
    <rect class="cls-1" x="232" y="280" width="48" height="48"/>
    <rect class="cls-1" x="280" y="232" width="48" height="48"/>
    <rect class="cls-1" x="328" y="280" width="48" height="48"/>
    <rect class="cls-1" x="136" y="184" width="48" height="48"/>
    <rect class="cls-1" x="232" y="184" width="48" height="48"/>
    <rect class="cls-1" x="328" y="184" width="48" height="48"/>
  </g>
</svg>
