<svg id="export" xmlns="http://www.w3.org/2000/svg" viewBox="0 0 512 512">
  <defs>
    <style>
      .cls-1 {
        fill: currentColor;
      }
    </style>
  </defs>
  <title>grid</title>
  <path class="cls-1" d="M448.4531,47.5469H63.5469a16,16,0,0,0-16,16V448.4531a16,16,0,0,0,16,16H448.4531a16,16,0,0,0,16-16V63.5469A16,16,0,0,0,448.4531,47.5469Zm-16,128.3017H336.1514V79.5469h96.3017ZM207.8486,304.1514V207.8486h96.3028v96.3028Zm96.3028,32v96.3017H207.8486V336.1514Zm-128.3028-32H79.5469V207.8486h96.3017Zm32-128.3028V79.5469h96.3028v96.3017Zm128.3028,32h96.3017v96.3028H336.1514ZM175.8486,79.5469v96.3017H79.5469V79.5469ZM79.5469,336.1514h96.3017v96.3017H79.5469Zm256.6045,96.3017V336.1514h96.3017v96.3017Z"/>
</svg>
