<svg id="export" xmlns="http://www.w3.org/2000/svg" viewBox="0 0 512 512">
  <defs>
    <style>
      .cls-1 {
        fill: currentColor;
      }
    </style>
  </defs>
  <title>healing</title>
  <g>
    <path class="cls-1" d="M157.02,451.1748a.0772.0772,0,0,1-.0141-.0127l-96.1665-96.167L116.6034,299.23,93.9758,276.6028,38.2114,332.3672a31.9991,31.9991,0,0,0,0,45.2549l96.167,96.1679a32.0367,32.0367,0,0,0,45.2539-.0009l55.7649-55.7649L212.781,395.408Z"/>
    <path class="cls-1" d="M354.9946,60.8379l96.1665,96.167-55.7619,55.7673,22.625,22.625,55.7644-55.7644a31.9991,31.9991,0,0,0,0-45.2549L377.6216,38.21a32.0374,32.0374,0,0,0-45.2539.0009L276.6028,93.9758,299.23,116.6029Z"/>
    <rect class="cls-1" x="245.5147" y="196.5441" width="21.9411" height="21.9411" transform="translate(-71.6123 242.1415) rotate(-44.9999)"/>
    <rect class="cls-1" x="245.5147" y="293.5147" width="21.9412" height="21.9412" transform="translate(-140.1809 270.5449) rotate(-45.0001)"/>
    <rect class="cls-1" x="294" y="245.0295" width="21.9411" height="21.9411" transform="translate(-91.6956 290.6266) rotate(-44.9999)"/>
    <rect class="cls-1" x="197.0295" y="245.0295" width="21.9411" height="21.9411" transform="translate(-120.0976 222.0595) rotate(-45.0001)"/>
    <path class="cls-1" d="M454.7107,313.2893l-240-240L190.9463,49.5254a47.9983,47.9983,0,0,0-67.8823,0l-73.54,73.5391h.0005a47.9989,47.9989,0,0,0,0,67.8818l31.7644,31.7644L321.0537,462.4746c.0789.0789.1622.1519.2416.23a47.9862,47.9862,0,0,0,67.6407-.23l73.5391-73.5391a47.9989,47.9989,0,0,0,0-67.8818ZM72.1523,168.3193a16.0006,16.0006,0,0,1,0-22.6279l73.5395-73.5391a15.9995,15.9995,0,0,1,22.6274,0l65.0538,65.0537-96.1667,96.1668ZM159.8333,256,256,159.8332l96.1714,96.1712-96.1621,96.1714ZM439.8481,366.3086l-73.5395,73.5391a15.9995,15.9995,0,0,1-22.6274,0l-65.0538-65.0538,96.1667-96.1667,65.0536,65.0535a16.0006,16.0006,0,0,1,0,22.6279Z"/>
  </g>
</svg>
