<svg id="export" xmlns="http://www.w3.org/2000/svg" viewBox="0 0 512 512">
  <defs>
    <style>
      .cls-1 {
        fill: currentColor;
      }
    </style>
  </defs>
  <title>layers</title>
  <g>
    <path class="cls-1" d="M487.9385,162.1079l-224-128a16.0026,16.0026,0,0,0-15.877,0l-224,128a16.0007,16.0007,0,0,0,.3828,27.9956l224,120a15.9993,15.9993,0,0,0,15.1114,0l224-120a16.0007,16.0007,0,0,0,.3828-27.9956ZM256,277.8486l-190.9609-102.3L256,66.4282l190.9609,109.12Z"/>
    <path class="cls-1" d="M32,238.54v36.521L248.2891,394.02a16.0011,16.0011,0,0,0,15.4218,0L480,275.0605V238.54L256,361.74Z"/>
    <path class="cls-1" d="M32,326.4v36.2666L248.4707,478.1177a16,16,0,0,0,15.0586,0L480,362.6666V326.4L256,445.8667Z"/>
  </g>
</svg>
