<svg id="export" xmlns="http://www.w3.org/2000/svg" viewBox="0 0 512 512">
  <defs>
    <style>
      .cls-1 {
        fill: currentColor;
      }
    </style>
  </defs>
  <title>line-style</title>
  <g>
    <path class="cls-1" d="M16,16V120H496V16ZM464,88H48V48H464Z"/>
    <path class="cls-1" d="M240,144H16v96H240Zm-32,64H48V176H208Z"/>
    <path class="cls-1" d="M272,240H496V144H272Zm32-64H464v32H304Z"/>
    <path class="cls-1" d="M152,272H16v88H152Zm-32,56H48V304h72Z"/>
    <path class="cls-1" d="M192,360H320V272H192Zm32-56h64v24H224Z"/>
    <path class="cls-1" d="M360,360H496V272H360Zm32-56h72v24H392Z"/>
    <path class="cls-1" d="M68.7217,390.5576a52.7212,52.7212,0,1,0,52.7207,52.7207A52.7806,52.7806,0,0,0,68.7217,390.5576Zm0,73.4424a20.7212,20.7212,0,1,1,20.7207-20.7217A20.7454,20.7454,0,0,1,68.7217,464Z"/>
    <path class="cls-1" d="M193.5742,390.5576a52.7212,52.7212,0,1,0,52.7207,52.7207A52.7806,52.7806,0,0,0,193.5742,390.5576Zm0,73.4424a20.7212,20.7212,0,1,1,20.7207-20.7217A20.7454,20.7454,0,0,1,193.5742,464Z"/>
    <path class="cls-1" d="M318.4258,390.5576a52.7212,52.7212,0,1,0,52.7217,52.7207A52.78,52.78,0,0,0,318.4258,390.5576Zm0,73.4424a20.7212,20.7212,0,1,1,20.7217-20.7217A20.7446,20.7446,0,0,1,318.4258,464Z"/>
    <path class="cls-1" d="M443.2783,390.5576A52.7212,52.7212,0,1,0,496,443.2783,52.78,52.78,0,0,0,443.2783,390.5576Zm0,73.4424A20.7212,20.7212,0,1,1,464,443.2783,20.7446,20.7446,0,0,1,443.2783,464Z"/>
  </g>
</svg>
