<svg id="export" xmlns="http://www.w3.org/2000/svg" viewBox="0 0 512 512">
  <defs>
    <style>
      .cls-1 {
        fill: currentColor;
      }
    </style>
  </defs>
  <title>object-ungroup</title>
  <path class="cls-1" d="M496,232V136H400v32H328V112h32V16H264V48H112V16H16v96H48V264H16v96h96V328h72v72H152v96h96V464H400v32h96V400H464V232Zm-64-64h32v32H432ZM296,48h32V80H296ZM48,48H80V80H48ZM80,328H48V296H80Zm32-32V264H80V112h32V80H264v32h32V264H264v32Zm216,0v32H296V296ZM216,464H184V432h32Zm248,0H432V432h32Zm-32-64H400v32H248V400H216V328h48v32h96V264H328V200h72v32h32Z"/>
</svg>
