<svg id="export" xmlns="http://www.w3.org/2000/svg" viewBox="0 0 512 512">
  <defs>
    <style>
      .cls-1 {
        fill: currentColor;
      }
    </style>
  </defs>
  <title>opacity</title>
  <path class="cls-1" d="M179.2637,350.0254a142.2132,142.2132,0,0,0,5.5881,19.183c2.6013.1142,5.2146.1832,7.8435.1832a176.94,176.94,0,0,0,32.7019-3.0461l-9.5486-9.5486,22.627-22.627,21.7839,21.784a176.8844,176.8844,0,0,0,43.6624-26.0721L292.291,318.251l22.627-22.627,11.9331,11.9333a177.0836,177.0836,0,0,0,27.9106-44.5013l-20.0732-20.0731,22.6269-22.6279,8.3772,8.3771a176.7768,176.7768,0,0,0,3.699-36.0363c0-3.2845-.0977-6.5463-.2754-9.7872A143.7112,143.7112,0,0,0,348.9,177.353L355.1,145.96q4.3059.85,8.5247,1.9113C343.7327,72.0773,274.6428,16,192.6953,16,95.2656,16,16,95.2656,16,192.6958,16,275.3132,73,344.8593,149.7354,364.1q-.9526-3.6355-1.7491-7.3164ZM48,192.6958C48,112.91,112.91,48,192.6953,48s144.6963,64.91,144.6963,144.6958-64.91,144.6958-144.6963,144.6958S48,272.4814,48,192.6958Z"/>
  <path class="cls-1" d="M285.1768,178.9966l15.5136-3.9141-7.8271-31.0278-15.5147,3.9136A176.9363,176.9363,0,0,0,148.0518,281.5254l-3.4073,15.6328,31.2666,6.8135,3.4063-15.6338A145.5593,145.5593,0,0,1,285.1768,178.9966Z"/>
  <path class="cls-1" d="M363.6243,147.8708q-4.2213-1.0531-8.5247-1.9113L348.9,177.353A144.6,144.6,0,0,1,465.3916,319.3047c0,2.9717-.1011,5.92-.2786,8.8476l21.3147,21.3145-22.6269,22.627-6.13-6.13A144.6742,144.6742,0,0,1,431.519,412.225l8.5474,8.5475L417.44,443.3994,408.37,434.33a144.3773,144.3773,0,0,1-46.1474,23.587l1.4013,1.4013-22.6269,22.6269-17.9749-17.9748c-.7751.0122-1.5491.0295-2.3269.0295-60.9316,0-115.21-38.8542-135.8435-94.7916a142.2132,142.2132,0,0,1-5.5881-19.183l-31.2774,6.7578q.7955,3.68,1.7491,7.3164A176.7655,176.7655,0,0,0,320.6953,496c97.4307,0,176.6963-79.2656,176.6963-176.6953C497.3916,238.0709,441.64,167.3357,363.6243,147.8708Z"/>
  <polygon class="cls-1" points="238.476 334.17 215.849 356.797 225.397 366.346 323.022 463.97 340.997 481.945 363.624 459.318 362.223 457.917 260.26 355.954 238.476 334.17"/>
  <polygon class="cls-1" points="314.918 295.624 292.291 318.251 303.922 329.882 408.37 434.33 417.439 443.399 440.066 420.772 431.519 412.225 326.851 307.557 314.918 295.624"/>
  <polygon class="cls-1" points="357.315 220.355 334.688 242.983 354.762 263.056 457.67 365.964 463.801 372.094 486.428 349.467 465.113 328.152 365.693 228.732 357.315 220.355"/>
</svg>
