<svg id="export" xmlns="http://www.w3.org/2000/svg" viewBox="0 0 512 512">
  <defs>
    <style>
      .cls-1 {
        fill: currentColor;
      }
    </style>
  </defs>
  <title>rounded-corner</title>
  <g>
    <path class="cls-1" d="M292,40H40V72H292c81.6074,0,148,66.3926,148,148V472h32V220C472,120.748,391.2524,40,292,40Z"/>
    <rect class="cls-1" x="239.2725" y="440" width="33.4546" height="32"/>
    <rect class="cls-1" x="105.4546" y="440" width="33.4546" height="32"/>
    <rect class="cls-1" x="172.3638" y="440" width="33.4546" height="32"/>
    <rect class="cls-1" x="306.1816" y="440" width="33.4546" height="32"/>
    <rect class="cls-1" x="373.0908" y="440" width="33.4546" height="32"/>
    <rect class="cls-1" x="40" y="440" width="32" height="32"/>
    <rect class="cls-1" x="40" y="373.0908" width="32" height="33.4541"/>
    <rect class="cls-1" x="40" y="306.1816" width="32" height="33.4541"/>
    <rect class="cls-1" x="40" y="105.4541" width="32" height="33.4541"/>
    <rect class="cls-1" x="40" y="239.2725" width="32" height="33.4541"/>
    <rect class="cls-1" x="40" y="172.3633" width="32" height="33.4541"/>
  </g>
</svg>
