<svg id="export" xmlns="http://www.w3.org/2000/svg" viewBox="0 0 512 512">
  <defs>
    <style>
      .cls-1 {
        fill: currentColor;
      }
    </style>
  </defs>
  <title>swap-horizontal-circle</title>
  <g>
    <path class="cls-1" d="M425.7061,86.2939A240.0007,240.0007,0,0,0,86.2939,425.7061,240.0007,240.0007,0,0,0,425.7061,86.2939ZM256,464C141.3086,464,48,370.6914,48,256S141.3086,48,256,48s208,93.3086,208,208S370.6914,464,256,464Z"/>
    <polygon class="cls-1" points="322.745 91.55 300.118 114.177 353.373 167.432 168 167.432 168 199.432 353.373 199.432 300.118 252.687 322.745 275.313 414.627 183.432 322.745 91.55"/>
    <polygon class="cls-1" points="203.882 259.313 181.255 236.687 89.373 328.568 181.255 420.45 203.882 397.823 150.627 344.568 336 344.568 336 312.568 150.627 312.568 203.882 259.313"/>
  </g>
</svg>
