<svg id="export" xmlns="http://www.w3.org/2000/svg" viewBox="0 0 512 512">
  <defs>
    <style>
      .cls-1 {
        fill: currentColor;
      }
    </style>
  </defs>
  <title>swap-vertical-circle</title>
  <g>
    <path class="cls-1" d="M425.7056,86.2939A240,240,0,0,0,86.2944,425.7061,240,240,0,0,0,425.7056,86.2939ZM256,464C141.3086,464,48,370.6914,48,256S141.3086,48,256,48s208,93.3086,208,208S370.6914,464,256,464Z"/>
    <polygon class="cls-1" points="397.824 300.118 344.568 353.373 344.568 168 312.568 168 312.568 353.373 259.313 300.118 236.687 322.745 328.568 414.627 420.451 322.745 397.824 300.118"/>
    <polygon class="cls-1" points="252.687 203.882 275.313 181.255 183.432 89.373 91.549 181.255 114.176 203.882 167.432 150.627 167.432 336 199.432 336 199.432 150.627 252.687 203.882"/>
  </g>
</svg>
