<svg id="export" xmlns="http://www.w3.org/2000/svg" viewBox="0 0 512 512">
  <defs>
    <style>
      .cls-1 {
        fill: currentColor;
      }
    </style>
  </defs>
  <title>vertical-align-center</title>
  <g>
    <path class="cls-1" d="M368,496H496V304H368Zm32-160h64V464H400Z"/>
    <path class="cls-1" d="M192,424H320V304H192Zm32-88h64v56H224Z"/>
    <path class="cls-1" d="M16,496H144V304H16ZM48,336h64V464H48Z"/>
    <path class="cls-1" d="M144,16H16V208H144ZM112,176H48V48h64Z"/>
    <path class="cls-1" d="M320,96H192V208H320Zm-32,80H224V128h64Z"/>
    <path class="cls-1" d="M368,16V208H496V16Zm96,160H400V48h64Z"/>
    <rect class="cls-1" x="16" y="240" width="480" height="32"/>
  </g>
</svg>
