<svg id="export" xmlns="http://www.w3.org/2000/svg" viewBox="0 0 512 512">
  <defs>
    <style>
      .cls-1 {
        opacity: 0.25;
      }

      .cls-2 {
        fill:currentColor;
      }
    </style>
  </defs>
  <title>envelope-plus</title>
  <g class="cls-1">
    <circle class="cls-2" cx="392" cy="392" r="104"/>
  </g>
  <polygon class="cls-2" points="32 117 32 299 153.333 208 32 117"/>
  <path class="cls-2" d="M292,258a59.9994,59.9994,0,0,1-72,0l-36.6667-27.5L32,344v40H252.2319A140.0078,140.0078,0,0,1,480,283.104V117Z"/>
  <g class="cls-1">
    <path class="cls-2" d="M241.6,229.2a24,24,0,0,0,28.8,0L480,72V32H32V72Z"/>
  </g>
  <polygon class="cls-2" points="375.143 449.143 411.143 449.143 411.143 410 450.286 410 450.286 374 411.143 374 411.143 334.857 375.143 334.857 375.143 374 336 374 336 410 375.143 410 375.143 449.143"/>
</svg>
