<svg id="export" xmlns="http://www.w3.org/2000/svg" viewBox="0 0 512 512">
  <defs>
    <style>
      .cls-1 {
        opacity: 0.25;
      }

      .cls-2 {
        fill:currentColor;
      }

      .cls-3 {
        fill: #fff;
      }
    </style>
  </defs>
  <title>file-ppt</title>
  <g class="cls-1">
    <polygon class="cls-2" points="480 202 310 202 310 32 88 32 88 252 480 252 480 202"/>
  </g>
  <polygon class="cls-2" points="480 166 480 160 352 32 346 32 346 166 480 166"/>
  <g>
    <polygon class="cls-3" points="364 448 388 448 388 348 424 348 424 324 328 324 328 348 364 348 364 448"/>
    <path class="cls-3" d="M244,412h20.5A43.5492,43.5492,0,0,0,308,368.5v-1A43.5492,43.5492,0,0,0,264.5,324H220V448h24Zm0-64h20.5A19.5223,19.5223,0,0,1,284,367.5v1A19.5223,19.5223,0,0,1,264.5,388H244Z"/>
    <path class="cls-3" d="M128,412h20.5A43.5492,43.5492,0,0,0,192,368.5v-1A43.5492,43.5492,0,0,0,148.5,324H104V448h24Zm0-64h20.5A19.5223,19.5223,0,0,1,168,367.5v1A19.5223,19.5223,0,0,1,148.5,388H128Z"/>
  </g>
  <g>
    <path class="cls-2" d="M32,288V480H480V288Zm72,160V324h44.5A43.5492,43.5492,0,0,1,192,367.5v1A43.5492,43.5492,0,0,1,148.5,412H128v36Zm116,0V324h44.5A43.5492,43.5492,0,0,1,308,367.5v1A43.5492,43.5492,0,0,1,264.5,412H244v36ZM424,348H388V448H364V348H328V324h96Z"/>
    <path class="cls-2" d="M284,368.5v-1A19.5223,19.5223,0,0,0,264.5,348H244v40h20.5A19.5223,19.5223,0,0,0,284,368.5Z"/>
    <path class="cls-2" d="M168,368.5v-1A19.5223,19.5223,0,0,0,148.5,348H128v40h20.5A19.5223,19.5223,0,0,0,168,368.5Z"/>
  </g>
</svg>
