<svg id="export" xmlns="http://www.w3.org/2000/svg" viewBox="0 0 512 512">
  <defs>
    <style>
      .cls-1, .cls-2 {
        fill:currentColor;
      }

      .cls-2 {
        opacity: 0.25;
      }
    </style>
  </defs>
  <title>file-code</title>
  <polygon class="cls-1" points="456 166 456 160 328 32 322 32 322 166 456 166"/>
  <polygon class="cls-2" points="286 202 286 32 64 32 64 480 456 480 456 202 286 202"/>
  <polygon class="cls-1" points="199.64 387.272 161.456 349.088 199.64 310.905 174.185 285.449 110.544 349.088 174.185 412.728 199.64 387.272"/>
  <polygon class="cls-1" points="332.728 410.551 396.368 346.912 332.728 283.272 307.272 308.728 345.456 346.912 307.272 385.095 332.728 410.551"/>
  <polygon class="cls-1" points="298.728 264 260.781 264 204.012 434.308 238.164 445.692 298.728 264"/>
</svg>
