<svg id="export" xmlns="http://www.w3.org/2000/svg" viewBox="0 0 512 512">
  <defs>
    <style>
      .cls-1, .cls-2 {
        fill:currentColor;
      }

      .cls-2 {
        opacity: 0.25;
      }
    </style>
  </defs>
  <title>file-archive</title>
  <polygon class="cls-1" points="456 166 456 160 328 32 322 32 322 166 456 166"/>
  <polygon class="cls-2" points="286 202 286 32 225 32 208 32 168 32 80 32 64 32 64 480 456 480 456 202 286 202"/>
  <polygon class="cls-1" points="208 384 200 280 136 280 128 384 128 400 208 400 208 384"/>
  <rect class="cls-1" x="168" y="192" width="40" height="40"/>
  <rect class="cls-1" x="168" y="32" width="40" height="40"/>
  <rect class="cls-1" x="168" y="112" width="40" height="40"/>
  <rect class="cls-1" x="128" y="152" width="40" height="40"/>
  <rect class="cls-1" x="128" y="72" width="40" height="40"/>
</svg>
