<svg id="export" xmlns="http://www.w3.org/2000/svg" viewBox="0 0 512 512">
  <defs>
    <style>
      .cls-1, .cls-2 {
        fill:currentColor;
      }

      .cls-1 {
        opacity: 0.25;
      }
    </style>
  </defs>
  <title>folder-shared</title>
  <path class="cls-1" d="M472,104H16V448a24,24,0,0,0,24,24H472a24,24,0,0,0,24-24V128A24,24,0,0,0,472,104Z"/>
  <path class="cls-2" d="M258.6667,104,237.8975,54.1538A23,23,0,0,0,216.6667,40H39A23,23,0,0,0,16,63v41Z"/>
  <path class="cls-2" d="M427.8926,370.9485,374.741,336.4l23.5446-57.3342v-44.78a66.2856,66.2856,0,1,0-132.5712,0v44.78l21.5126,58.6549-51.12,33.2277A44.19,44.19,0,0,0,216,408v24H448V408A44.19,44.19,0,0,0,427.8926,370.9485Z"/>
</svg>
