<svg id="export" xmlns="http://www.w3.org/2000/svg" viewBox="0 0 512 512">
  <defs>
    <style>
      .cls-1, .cls-2 {
        fill:currentColor;
      }

      .cls-1 {
        opacity: 0.25;
      }
    </style>
  </defs>
  <title>image</title>
  <polygon class="cls-1" points="32 34.167 32 309.279 32.002 309.279 56 285.245 80 261.208 80 82.167 432 82.167 432 198.231 456 222.182 479.974 246.107 480 246.162 480 34.167 32 34.167"/>
  <polygon class="cls-2" points="479.974 246.107 456 222.182 432 198.231 369.643 136 304 201.643 432 329.643 432 380.506 196.263 144.769 80 261.208 56 285.245 32.002 309.279 32 309.279 32 311.161 32 480.083 480 480.083 480 258.737 480 246.162 479.974 246.107"/>
</svg>
