<svg id="export" xmlns="http://www.w3.org/2000/svg" viewBox="0 0 512 512">
  <defs>
    <style>
      .cls-1 {
        fill:currentColor;
      }

      .cls-2 {
        fill: none;
      }

      .cls-3 {
        opacity: 0.25;
      }
    </style>
  </defs>
  <title>inbox-in</title>
  <path class="cls-1" d="M225.9418,36.9973q-.5385,1.47-.9344,3.0054a31.9656,31.9656,0,0,0-.9658,6.3506Q224,47.1714,224,48V216H152L256,336,360,216H288V48q0-.8285-.0416-1.6467a31.9656,31.9656,0,0,0-.9658-6.3506q-.3947-1.5337-.9344-3.0054a32.0132,32.0132,0,0,0-60.1164,0Z"/>
  <polygon class="cls-2" points="186.667 384 255.254 384 256.746 384 316.078 384 367.843 312 143.529 312 186.667 384"/>
  <polygon class="cls-1" points="367.843 312 316.078 384 256.746 384 255.254 384 186.667 384 143.529 312 64 312 16 312 16 495.998 495.373 495.998 495.373 312 447.373 312 367.843 312"/>
  <g class="cls-3">
    <path class="cls-1" d="M311.39,16A63.5861,63.5861,0,0,1,320,48v96H447.3726V312h48V16Z"/>
    <path class="cls-1" d="M16,128V312H64V144H192V48a63.5861,63.5861,0,0,1,8.61-32H16Z"/>
  </g>
</svg>
