<svg id="export" xmlns="http://www.w3.org/2000/svg" viewBox="0 0 512 512">
  <defs>
    <style>
      .cls-1, .cls-2 {
        fill:currentColor;
      }

      .cls-1 {
        opacity: 0.25;
      }
    </style>
  </defs>
  <title>library</title>
  <path class="cls-1" d="M64,168H24V472a16,16,0,0,0,16,16H344V448H64Z"/>
  <path class="cls-1" d="M136,96H96V400a16,16,0,0,0,16,16H416V376H136Z"/>
  <path class="cls-2" d="M472,24H184a16.0167,16.0167,0,0,0-16,16V328a16,16,0,0,0,16,16H472a15.9868,15.9868,0,0,0,15.9633-15.2731c.0109-.2427.0367-.4815.0367-.7269V40A16,16,0,0,0,472,24Z"/>
</svg>
