<svg id="export" xmlns="http://www.w3.org/2000/svg" viewBox="0 0 512 512">
  <defs>
    <style>
      .cls-1 {
        opacity: 0.25;
      }

      .cls-2 {
        fill:currentColor;
      }
    </style>
  </defs>
  <title>library-books</title>
  <g class="cls-1">
    <path class="cls-2" d="M64,168H24V472a16,16,0,0,0,16,16H344V448H64Z"/>
  </g>
  <g class="cls-1">
    <path class="cls-2" d="M136,376V96H96V400a16,16,0,0,0,16,16H416V376Z"/>
  </g>
  <path class="cls-2" d="M472,24H184a16.0167,16.0167,0,0,0-16,16V328a16,16,0,0,0,16,16H472a15.987,15.987,0,0,0,15.9634-15.2731c.0108-.2427.0366-.4815.0366-.7269V40A16,16,0,0,0,472,24ZM360,244v36H224V244ZM224,200V164H440v36m0-80H224V84H440Z"/>
</svg>
