<svg id="export" xmlns="http://www.w3.org/2000/svg" viewBox="0 0 512 512">
  <defs>
    <style>
      .cls-1 {
        opacity: 0.25;
      }

      .cls-2 {
        fill:currentColor;
      }
    </style>
  </defs>
  <title>tag</title>
  <g class="cls-1">
    <rect class="cls-2" x="33" y="32" width="448" height="448" rx="24"/>
  </g>
  <path class="cls-2" d="M247.0062,101.6207A17.4836,17.4836,0,0,0,234.6436,96.5H119.5023a23.311,23.311,0,0,0-23.311,23.311V234.63a17.4833,17.4833,0,0,0,5.5129,12.7427L275.6316,410.7593a17.4834,17.4834,0,0,0,24.8369-.9055L411.1919,289.5023a17.4833,17.4833,0,0,0-.5039-24.2Zm-75.054,96.8652a26.225,26.225,0,1,1,26.225-26.225A26.2249,26.2249,0,0,1,171.9522,198.4859Z"/>
</svg>
