<svg id="export" xmlns="http://www.w3.org/2000/svg" viewBox="0 0 512 512">
  <defs>
    <style>
      .cls-1 {
        fill: currentColor;
      }
    </style>
  </defs>
  <title>boat-alt</title>
  <g>
    <path class="cls-1" d="M435.2073,248l-24.3411-66.9365A32.0989,32.0989,0,0,0,380.793,160H341.5537l-16-96H221.1123l16,96H197.5537l-16-96H77.1123l16,96H48v88H16V448H443.7266L496,282.4658V248ZM258.8877,96h39.5586l10.6665,64H269.554Zm-144,0h39.5586l10.6665,64H125.554ZM80,192H380.793l20.3633,56H80ZM420.2734,416H48V280H463.2217Z"/>
    <rect class="cls-1" x="80" y="320" width="32" height="32"/>
    <rect class="cls-1" x="144" y="320" width="32" height="32"/>
    <rect class="cls-1" x="208" y="320" width="32" height="32"/>
    <rect class="cls-1" x="272" y="320" width="32" height="32"/>
    <rect class="cls-1" x="336" y="320" width="32" height="32"/>
  </g>
</svg>
