<svg id="export" xmlns="http://www.w3.org/2000/svg" viewBox="0 0 512 512">
  <defs>
    <style>
      .cls-1 {
        fill: currentColor;
      }
    </style>
  </defs>
  <title>bus-timer</title>
  <g>
    <path class="cls-1" d="M144,383.4546a48,48,0,1,0-48-48A48.0543,48.0543,0,0,0,144,383.4546Zm0-64a16,16,0,1,1-16,16A16.0183,16.0183,0,0,1,144,319.4546Z"/>
    <path class="cls-1" d="M360,383.4546a48,48,0,1,0-48-48A48.0543,48.0543,0,0,0,360,383.4546Zm0-64a16,16,0,1,1-16,16A16.0183,16.0183,0,0,1,360,319.4546Z"/>
    <path class="cls-1" d="M80,239.4546V64A16.0183,16.0183,0,0,1,96,48H264V16H96A48.0543,48.0543,0,0,0,48,64V399.4546a32.0361,32.0361,0,0,0,32,32H96V472.001a24.0272,24.0272,0,0,0,24,24h56a24.0272,24.0272,0,0,0,24-24V431.4546H312V472.001a24.0272,24.0272,0,0,0,24,24h56a24.0272,24.0272,0,0,0,24-24V431.4546h16a32.0361,32.0361,0,0,0,32-32V240ZM168,464.001H128V431.4546h40Zm216,0H344V431.4546h40Zm48-64.5464H80V272H432Z"/>
  </g>
  <path class="cls-1" d="M378.376,224a108,108,0,1,0-108-108A108.1225,108.1225,0,0,0,378.376,224Zm0-184a76,76,0,1,1-76,76A76.0859,76.0859,0,0,1,378.376,40Z"/>
  <polygon class="cls-1" points="418.395 119.633 394.073 108.65 394.073 67.81 362.073 67.81 362.073 129.312 405.225 148.797 418.395 119.633"/>
</svg>
