<svg id="export" xmlns="http://www.w3.org/2000/svg" viewBox="0 0 512 512">
  <defs>
    <style>
      .cls-1 {
        fill: currentColor;
      }
    </style>
  </defs>
  <title>car-alt</title>
  <path class="cls-1" d="M475.6563,223.1416l-90.2728-13.9078-55.0129-89.8695a32.0663,32.0663,0,0,0-27.5474-15.2911L72.2646,105.91a32.0166,32.0166,0,0,0-30.0664,21.7734L16,205.375V384H71.0057a68.0027,68.0027,0,0,0,129.9886,0H303.0057a68.0026,68.0026,0,0,0,129.9884,0H496V246.8623A23.873,23.873,0,0,0,475.6563,223.1416Zm-172.5782-87.07,44.1029,72.0466L224,208.074V136.7014ZM72.5205,137.9082,192,136.9563v71.1063l-143.1188-.0509ZM136,400a36,36,0,1,1,36-36A36.0406,36.0406,0,0,1,136,400Zm232,0a36,36,0,1,1,36-36A36.0406,36.0406,0,0,1,368,400Zm96-48H434.918a67.9824,67.9824,0,0,0-133.8361,0H202.9181a67.9824,67.9824,0,0,0-133.8362,0H48V240.0259l330.5264.529L464,253.7236Z"/>
</svg>
