<svg id="export" xmlns="http://www.w3.org/2000/svg" viewBox="0 0 512 512">
  <defs>
    <style>
      .cls-1 {
        fill: currentColor;
      }
    </style>
  </defs>
  <title>car</title>
  <g>
    <path class="cls-1" d="M144,383.4546a48,48,0,1,0-48-48A48.054,48.054,0,0,0,144,383.4546Zm0-64a16,16,0,1,1-16,16A16.0183,16.0183,0,0,1,144,319.4546Z"/>
    <path class="cls-1" d="M360,383.4546a48,48,0,1,0-48-48A48.054,48.054,0,0,0,360,383.4546Zm0-64a16,16,0,1,1-16,16A16.0183,16.0183,0,0,1,360,319.4546Z"/>
    <path class="cls-1" d="M448,231.4546h-.6279L406.6973,119.5967A48.1481,48.1481,0,0,0,361.5859,88H150.4141a48.1481,48.1481,0,0,0-45.1114,31.5967L64.6279,231.4546H64a32.0364,32.0364,0,0,0-32,32v136a32.0364,32.0364,0,0,0,32,32V472.001a24.0275,24.0275,0,0,0,24,24h56a24.0275,24.0275,0,0,0,24-24V431.4546H344V472.001a24.0275,24.0275,0,0,0,24,24h56a24.0275,24.0275,0,0,0,24-24V431.4546a32.0364,32.0364,0,0,0,32-32v-136A32.0364,32.0364,0,0,0,448,231.4546ZM135.377,130.5322A16.0474,16.0474,0,0,1,150.4141,120H361.5859a16.0474,16.0474,0,0,1,15.0371,10.5322l36.6993,100.9224H98.6777ZM136,464.001H96V431.4546h40Zm280,0H376V431.4546h40Zm32-64.5464H64v-136H448Z"/>
  </g>
</svg>
