<svg id="export" xmlns="http://www.w3.org/2000/svg" viewBox="0 0 512 512">
  <defs>
    <style>
      .cls-1 {
        fill: currentColor;
      }
    </style>
  </defs>
  <title>commute</title>
  <polygon class="cls-1" points="432 440 432 456 432 488 464 488 464 456 464 440 432 440"/>
  <g>
    <rect class="cls-1" x="80" y="288" width="32" height="32"/>
    <path class="cls-1" d="M446.9287,238.23A47.7757,47.7757,0,0,0,406.4336,216H296.2949a48.3386,48.3386,0,0,0-38.8183,19.7681L225.3074,280,200,314.7969V360H48V248H214.4l22.4-32H48V96A16.0183,16.0183,0,0,1,64,80H272a16.0183,16.0183,0,0,1,16,16v96h32V96a48.054,48.054,0,0,0-48-48H64A48.054,48.054,0,0,0,16,96V392H64v40H96V392H200v64h32v32h32V456H432V440h32v16h32V315.3408Zm-163.5732,16.36A16.0482,16.0482,0,0,1,296.2949,248H406.4336a15.9234,15.9234,0,0,1,13.498,7.41L461.0352,320H235.7842ZM464,424H232V352H464Z"/>
    <rect class="cls-1" x="264" y="368" width="32" height="32"/>
    <rect class="cls-1" x="400" y="368" width="32" height="32"/>
  </g>
</svg>
