<svg id="export" xmlns="http://www.w3.org/2000/svg" viewBox="0 0 512 512">
  <defs>
    <style>
      .cls-1 {
        fill: currentColor;
      }
    </style>
  </defs>
  <title>locomotive</title>
  <path class="cls-1" d="M496,373.0986l-24-64V243.7773a47.7366,47.7366,0,0,0-26.5342-42.9326L424,190.1113V96H312v88H243.5322L214.4727,96.82A47.9411,47.9411,0,0,0,168.9355,64H16v82.832l40,16.001v50.334L16,229.168V432h86.4883a52.8655,52.8655,0,0,0,105.4487-2.3934l14.3716-.3593A52.8668,52.8668,0,0,0,328,427.127c0-.175-.0117-.3471-.0132-.5217l14.2905-.3573c-.0048.2937-.0224.5843-.0224.879a52.8726,52.8726,0,1,0,105.7451,0c0-1.0506-.04-2.0916-.1-3.127H496ZM155.127,448A20.8726,20.8726,0,1,1,176,427.127,20.8961,20.8961,0,0,1,155.127,448Zm120,0A20.8726,20.8726,0,1,1,296,427.127,20.8961,20.8961,0,0,1,275.127,448Zm120,0A20.8726,20.8726,0,1,1,416,427.127,20.8961,20.8961,0,0,1,395.127,448ZM464,392H434.5986a52.779,52.779,0,0,0-80.5932,1.9448l-37.0283.9258a52.7944,52.7944,0,0,0-85.2642,2.1316l-32.6069.8152A52.8293,52.8293,0,0,0,109.7659,400H48V250.833l40-16.001V141.168L48,125.167V96H168.9355a15.981,15.981,0,0,1,15.18,10.94L220.4678,216H344V128h48v81.8887l39.1553,19.5771A15.9153,15.9153,0,0,1,440,243.7773V296H96v32H444.9121L464,378.9014Z"/>
</svg>
