<svg id="export" xmlns="http://www.w3.org/2000/svg" viewBox="0 0 512 512">
  <defs>
    <style>
      .cls-1 {
        fill: currentColor;
      }
    </style>
  </defs>
  <title>motobike-motorcycle</title>
  <path class="cls-1" d="M396,208a99.8442,99.8442,0,0,0-24.6553,3.0787l13.6683,29.8218a68.09,68.09,0,1,1-29.4772,12.4873l-13.5312-29.5225A99.9581,99.9581,0,1,0,396,208Z"/>
  <path class="cls-1" d="M116,376a68,68,0,1,1,64.9943-88h32.995a99.8227,99.8227,0,0,0-24.7408-48H120V208.087c-1.3276-.0525-2.66-.087-4-.087a100,100,0,1,0,99.2775,112H182.9181A68.0973,68.0973,0,0,1,116,376Z"/>
  <polygon class="cls-1" points="385.455 318.666 414.545 305.334 385.013 240.901 371.345 211.079 322.267 104 224 104 224 136 301.733 136 342.005 223.865 355.536 253.388 385.455 318.666"/>
  <polygon class="cls-1" points="304 244.589 304 208 120 208 120 208.087 120 240 189.249 240 269.132 240 239.132 288 213.989 288 180.994 288 96 288 96 320 182.918 320 215.277 320 256.868 320 304 244.589"/>
  <rect class="cls-1" x="48" y="152" width="104" height="32"/>
</svg>
