<svg id="export" xmlns="http://www.w3.org/2000/svg" viewBox="0 0 512 512">
  <defs>
    <style>
      .cls-1 {
        fill: currentColor;
      }
    </style>
  </defs>
  <title>parking</title>
  <g>
    <path class="cls-1" d="M256,16C159.1709,16,80.3945,94.7764,80.3945,191.6055a174.1971,174.1971,0,0,0,33.9873,103.84L235.6592,484.8721a24.1543,24.1543,0,0,0,40.6826-.002L397.6177,295.4453a174.198,174.198,0,0,0,33.9878-103.84C431.6055,94.7764,352.8291,16,256,16ZM371.5591,276.8652l-.3189.4317L256,457.2949,141.0493,277.75l-.6084-.8838a142.434,142.434,0,0,1-28.0464-85.2607C112.3945,112.4214,176.8159,48,256,48s143.6055,64.4214,143.6055,143.6055A142.432,142.432,0,0,1,371.5591,276.8652Z"/>
    <path class="cls-1" d="M280.313,114.7344H208V303.5186h32v-58.05h40.313A63.7591,63.7591,0,0,0,344,181.7813v-3.36A63.759,63.759,0,0,0,280.313,114.7344ZM312,181.7813a31.723,31.723,0,0,1-31.687,31.687H240V146.7344h40.313A31.723,31.723,0,0,1,312,178.4214Z"/>
  </g>
</svg>
