<svg id="export" xmlns="http://www.w3.org/2000/svg" viewBox="0 0 512 512">
  <defs>
    <style>
      .cls-1 {
        fill: currentColor;
      }
    </style>
  </defs>
  <title>subway</title>
  <g>
    <path class="cls-1" d="M384,186.7676A42.8161,42.8161,0,0,0,341.2324,144H170.7676A42.8161,42.8161,0,0,0,128,186.7676V378.233L30.4216,496H71.9785l79.5427-96H360.4788l79.5427,96h41.5569L384,378.233Zm-224,0A10.78,10.78,0,0,1,170.7676,176H341.2324A10.78,10.78,0,0,1,352,186.7676V248H160ZM352,368H160V280H352Z"/>
    <rect class="cls-1" x="184" y="304" width="32" height="32"/>
    <rect class="cls-1" x="296.8525" y="304.4263" width="31.5737" height="31.5737"/>
    <path class="cls-1" d="M425.7061,86.2944A240,240,0,0,0,16,256V360H48V256C48,141.3086,141.3086,48,256,48s208,93.3086,208,208V360h32V256A238.4285,238.4285,0,0,0,425.7061,86.2944Z"/>
  </g>
</svg>
