<svg id="export" xmlns="http://www.w3.org/2000/svg" viewBox="0 0 512 512">
  <defs>
    <style>
      .cls-1 {
        fill: currentColor;
      }
    </style>
  </defs>
  <title>taxi</title>
  <g>
    <polygon class="cls-1" points="80 304 112 304 112 208 152 208 152 176 40 176 40 208 80 208 80 304"/>
    <polygon class="cls-1" points="333.483 304 356 269.358 378.517 304 416.683 304 375.083 240 416.683 176 378.517 176 356 210.642 333.483 176 295.317 176 336.917 240 295.317 304 333.483 304"/>
    <rect class="cls-1" x="440" y="176" width="32" height="128"/>
    <rect class="cls-1" x="40" y="104" width="432" height="32"/>
    <rect class="cls-1" x="40" y="344" width="432" height="32"/>
    <path class="cls-1" d="M241.3376,280l8,24h33.7309L240.4019,176H194.4482L155.0089,304h33.4842l7.395-24ZM217.72,209.1465,230.6709,248H205.748Z"/>
  </g>
</svg>
