<svg id="export" xmlns="http://www.w3.org/2000/svg" viewBox="0 0 512 512">
  <defs>
    <style>
      .cls-1 {
        fill: currentColor;
      }
    </style>
  </defs>
  <title>traffic</title>
  <g>
    <path class="cls-1" d="M48,240V168H312V131.3408L262.9287,54.23A47.7757,47.7757,0,0,0,222.4336,32H112.2949A48.1432,48.1432,0,0,0,73.4766,51.7681L16,130.7969V272H48v32H80V272H192.8l22.4-32ZM99.3555,70.5894A16.0482,16.0482,0,0,1,112.2949,64H222.4336a15.9234,15.9234,0,0,1,13.498,7.41L277.0352,136H51.7842Z"/>
    <rect class="cls-1" x="80" y="184" width="32" height="32"/>
    <polygon class="cls-1" points="232 216 248 216 248 214.4 248 184 216 184 216 216 232 216"/>
    <path class="cls-1" d="M446.9287,230.23A47.7757,47.7757,0,0,0,406.4336,208H296.2949a48.1432,48.1432,0,0,0-38.8183,19.7681L248,240.7981,207.8525,296,200,306.7969V448h32v32h32V448H432v32h32V448h32V307.3408Zm-163.5732,16.36A16.0482,16.0482,0,0,1,296.2949,240H406.4336a15.9234,15.9234,0,0,1,13.498,7.41L461.0352,312H235.7842ZM464,416H232V344H464Z"/>
    <rect class="cls-1" x="264" y="360" width="32" height="32"/>
    <rect class="cls-1" x="400" y="360" width="32" height="32"/>
  </g>
</svg>
