<svg id="export" xmlns="http://www.w3.org/2000/svg" viewBox="0 0 512 512">
  <defs>
    <style>
      .cls-1 {
        fill: none;
      }

      .cls-2, .cls-3 {
        fill:currentColor;
      }

      .cls-3 {
        opacity: 0.25;
      }
    </style>
  </defs>
  <title>beach-access</title>
  <path class="cls-1" d="M80.541,97.5831c.2847-.2718.5731-.5379.859-.808-.2784-.0175-.57-.0487-.8448-.0627C80.5471,97.0014,80.5471,97.2933,80.541,97.5831Z"/>
  <polygon class="cls-2" points="262.967 265.268 233.268 294.967 394.302 456 453.698 456 262.967 265.268"/>
  <g>
    <path class="cls-2" d="M371.6465,101.019A208.5466,208.5466,0,0,0,119.8,68.0388c14.4932,4.4824,30.4914,11.0109,48.11,19.6194,38.2012,18.665,77.0171,43.9116,102.8531,61.8042A536.7265,536.7265,0,0,1,330.59,197.6452l68.8416-68.8415Z"/>
    <path class="cls-2" d="M68.0156,201.4209q-14.1932-34.44-19.8113-64.4935A208.524,208.524,0,0,0,77.019,395.6465l27.7847,27.7847L167.6051,360.63a424.493,424.493,0,0,1-43.39-55.29C107.8789,280.5024,84.8682,242.3125,68.0156,201.4209Z"/>
    <path class="cls-3" d="M81.4,96.7751c-.2859.27-.5743.5362-.859.808-1.338,63.4851,44.6815,143.7763,73.7515,187.9731a388.2024,388.2024,0,0,0,38.7919,49.5943l40.1839-40.1839,29.6983-29.6983L305.1147,223.12a500.4271,500.4271,0,0,0-54.8471-44.062C177.3748,128.5764,116.1846,98.9649,81.4,96.7751Z"/>
  </g>
</svg>
