<svg id="export" xmlns="http://www.w3.org/2000/svg" viewBox="0 0 512 512">
  <defs>
    <style>
      .cls-1, .cls-2 {
        fill:currentColor;
      }

      .cls-2 {
        opacity: 0.25;
      }
    </style>
  </defs>
  <title>building-business</title>
  <path class="cls-1" d="M16,496H138V424h36v72H296V16H16ZM180,112h36v36H180Zm0,84h36v36H180Zm0,84h36v36H180ZM96,112h36v36H96Zm0,84h36v36H96Zm0,84h36v36H96Z"/>
  <path class="cls-2" d="M328,160V496H496V160ZM430,412H394V376h36Zm0-80H394V296h36Zm0-80H394V216h36Z"/>
  <g>
    <rect class="cls-1" x="394" y="376" width="36" height="36"/>
    <rect class="cls-1" x="394" y="296" width="36" height="36"/>
    <rect class="cls-1" x="394" y="216" width="36" height="36"/>
  </g>
</svg>
