<svg id="export" xmlns="http://www.w3.org/2000/svg" viewBox="0 0 512 512">
  <defs>
    <style>
      .cls-1 {
        fill: #fff;
      }

      .cls-2, .cls-3 {
        fill:currentColor;
      }

      .cls-2 {
        opacity: 0.25;
      }
    </style>
  </defs>
  <title>building-slash</title>
  <rect class="cls-1" x="238" y="384" width="36" height="64"/>
  <polygon class="cls-2" points="424 453.422 418.578 448 274 448 238 448 88 448 16 448 16 496 448 496 466.578 496 424 453.422"/>
  <polygon class="cls-1" points="496 448 477.975 448 496 466.025 496 448"/>
  <polygon class="cls-1" points="45.976 16 45.709 16 88 58.306 88 58.024 45.976 16"/>
  <polygon class="cls-1" points="477.975 448 424 394.025 424 394.43 477.55 448 477.975 448"/>
  <polygon class="cls-1" points="88 58.024 88 58.306 328 298.395 328 298.025 88 58.024"/>
  <polygon class="cls-1" points="357.975 328 357.594 328 424 394.43 424 394.025 357.975 328"/>
  <polygon class="cls-1" points="328 298.025 328 298.395 357.594 328 357.975 328 328 298.025"/>
  <polygon class="cls-1" points="496 466.457 496 466.025 477.975 448 477.55 448 496 466.457"/>
  <path class="cls-3" d="M112.7007,32,316.5674,235.5969h0L424,343.0292V32ZM276,136H236V96h40Zm92,96H328V192h40Zm0-96H328V96h40Z"/>
  <path class="cls-3" d="M477.55,448,424,394.43,357.5942,328,328,298.3948,88,58.3064,45.709,16H16V45.4219l72,72V448H238V384h36v64H418.5776L424,453.4223,466.5776,496H496V466.4568ZM184,328H144V288h40Zm0-96H144V192h18.5781L184,213.4221Zm92,96H236V288h22.5781L276,305.4222Z"/>
</svg>
