<svg id="export" xmlns="http://www.w3.org/2000/svg" viewBox="0 0 512 512">
  <defs>
    <style>
      .cls-1, .cls-2 {
        fill:currentColor;
      }

      .cls-1 {
        opacity: 0.25;
      }
    </style>
  </defs>
  <title>city</title>
  <path class="cls-1" d="M320,120V272H216V496H480V88ZM281,452H245V416h36Zm0-86H245V330h36Zm137,86H382V416h36Zm0-86H382V330h36Zm0-85H382V245h36Zm0-86H382V159h36Z"/>
  <rect class="cls-2" x="245" y="416" width="36" height="36"/>
  <rect class="cls-2" x="245" y="330" width="36" height="36"/>
  <rect class="cls-2" x="382" y="330" width="36" height="36"/>
  <rect class="cls-2" x="382" y="159" width="36" height="36"/>
  <rect class="cls-2" x="382" y="416" width="36" height="36"/>
  <rect class="cls-2" x="382" y="245" width="36" height="36"/>
  <path class="cls-2" d="M111.238,32,16,106.5714V496H94V416h36v80h86V106.5714ZM130,366H94V330h36Zm0-85H94V245h36Zm0-86H94V159h36Z"/>
</svg>
