<svg id="export" xmlns="http://www.w3.org/2000/svg" viewBox="0 0 512 512">
  <defs>
    <style>
      .cls-1, .cls-3 {
        opacity: 0.25;
      }

      .cls-2, .cls-3 {
        fill:currentColor;
      }

      .cls-4 {
        fill: #fff;
      }
    </style>
  </defs>
  <title>hospital</title>
  <g class="cls-1">
    <rect class="cls-2" x="16" y="448" width="480" height="48"/>
  </g>
  <rect class="cls-3" x="160" y="16" width="192" height="192"/>
  <polygon class="cls-2" points="352 104 352 208 160 208 160 104 88 104 88 448 424 448 424 104 352 104"/>
  <polygon class="cls-2" points="274 48 238 48 238 86 200 86 200 122 238 122 238 160 274 160 274 122 312 122 312 86 274 86 274 48"/>
  <rect class="cls-4" x="157" y="262" width="40" height="40"/>
  <rect class="cls-4" x="237" y="262" width="40" height="40"/>
  <rect class="cls-4" x="317" y="262" width="40" height="40"/>
  <rect class="cls-4" x="157" y="354" width="40" height="40"/>
  <rect class="cls-4" x="317" y="354" width="40" height="40"/>
  <rect class="cls-4" x="238" y="376" width="38" height="72"/>
</svg>
