<svg id="export" xmlns="http://www.w3.org/2000/svg" viewBox="0 0 512 512">
  <defs>
    <style>
      .cls-1 {
        fill: none;
      }

      .cls-2, .cls-3 {
        fill:currentColor;
      }

      .cls-3 {
        opacity: 0.25;
      }
    </style>
  </defs>
  <title>industry-slash#factory-slash</title>
  <rect class="cls-1" x="132" y="312" width="40" height="40"/>
  <rect class="cls-1" x="292" y="392" width="40" height="40"/>
  <rect class="cls-1" x="212" y="312" width="40" height="40"/>
  <rect class="cls-1" x="132" y="392" width="40" height="40"/>
  <polygon class="cls-1" points="166.084 248 192.145 221.567 152 181.422 152 248 166.084 248"/>
  <rect class="cls-1" x="212" y="392" width="40" height="40"/>
  <polygon class="cls-2" points="16 16 16 45.422 32 61.422 32 61.422 152 181.422 152 181.422 192.145 221.567 192.145 221.567 466.577 496 496 496 496 466.457 45.709 16 16 16"/>
  <polygon class="cls-2" points="312 121 291.296 121 246.904 166.026 312 231.035 312 121"/>
  <polygon class="cls-3" points="456.723 121 328.584 247.613 480 399.029 480 121 456.723 121"/>
  <polygon class="cls-3" points="152 32 112.701 32 152 71.247 152 32"/>
  <polygon class="cls-3" points="265.578 295 192.145 221.567 166.084 248 152 248 152 181.422 32 61.422 32 480 450.577 480 389 418.423 265.578 295"/>
  <g>
    <rect class="cls-2" x="212" y="312" width="40" height="40"/>
    <rect class="cls-2" x="292" y="392" width="40" height="40"/>
    <rect class="cls-2" x="132" y="312" width="40" height="40"/>
    <rect class="cls-2" x="132" y="392" width="40" height="40"/>
    <rect class="cls-2" x="212" y="392" width="40" height="40"/>
  </g>
  <polygon class="cls-2" points="456.723 121 328.193 248 480 248 480 121 456.723 121"/>
</svg>
