<svg id="export" xmlns="http://www.w3.org/2000/svg" viewBox="0 0 512 512">
  <defs>
    <style>
      .cls-1, .cls-2 {
        fill:currentColor;
      }

      .cls-2 {
        opacity: 0.25;
      }
    </style>
  </defs>
  <title>industry#factory</title>
  <g>
    <rect class="cls-1" x="292" y="312" width="40" height="40"/>
    <rect class="cls-1" x="292" y="392" width="40" height="40"/>
    <rect class="cls-1" x="372" y="392" width="40" height="40"/>
    <rect class="cls-1" x="372" y="312" width="40" height="40"/>
    <rect class="cls-1" x="212" y="312" width="40" height="40"/>
    <rect class="cls-1" x="212" y="392" width="40" height="40"/>
    <rect class="cls-1" x="132" y="392" width="40" height="40"/>
    <rect class="cls-1" x="132" y="312" width="40" height="40"/>
  </g>
  <polygon class="cls-2" points="456.723 121 328.193 248 312 248 312 121 291.296 121 166.084 248 162 248 152 248 152 32 32 32 32 480 480 480 480 248 480 121 456.723 121"/>
  <polygon class="cls-1" points="456.723 121 328.193 248 480 248 480 121 456.723 121"/>
  <polygon class="cls-1" points="312 121 291.296 121 166.084 248 312 248 312 121"/>
</svg>
