<svg id="export" xmlns="http://www.w3.org/2000/svg" viewBox="0 0 512 512">
  <defs>
    <style>
      .cls-1 {
        fill: none;
      }

      .cls-2, .cls-3 {
        fill:currentColor;
      }

      .cls-3 {
        opacity: 0.25;
      }
    </style>
  </defs>
  <title>kitchen#oven</title>
  <rect class="cls-1" x="136" y="264" width="240" height="152"/>
  <path class="cls-2" d="M64,480a16,16,0,0,0,16,16H432a16,16,0,0,0,16-16V200H64Zm72-216H376V416H136Z"/>
  <path class="cls-3" d="M432,56H80A16,16,0,0,0,64,72v96H448V72A16,16,0,0,0,432,56Z"/>
  <g>
    <rect class="cls-2" x="360" y="96" width="32" height="32"/>
    <rect class="cls-2" x="120" y="96" width="32" height="32"/>
    <rect class="cls-2" x="184" y="96" width="32" height="32"/>
    <rect class="cls-2" x="248" y="96" width="32" height="32"/>
  </g>
</svg>
