<svg id="export" xmlns="http://www.w3.org/2000/svg" viewBox="0 0 512 512">
  <defs>
    <style>
      .cls-1 {
        fill: currentColor;
      }
    </style>
  </defs>
  <title>cloud-circle</title>
  <path class="cls-1" d="M256,495.3405c132.1841,0,239.34-107.1564,239.34-239.3405S388.1841,16.66,256,16.66,16.66,123.8159,16.66,256,123.8159,495.3405,256,495.3405ZM97.1162,294.1468a73.9171,73.9171,0,0,1,73.917-73.9171h2.176V200.92a83.349,83.349,0,0,1,166.698,0v19.31h4.9136A71.1793,71.1793,0,0,1,416,291.409v0a71.2284,71.2284,0,0,1-71.0195,71.0194H165.3979a68.4825,68.4825,0,0,1-68.2817-68.2817Z"/>
</svg>
