<svg id="export" xmlns="http://www.w3.org/2000/svg" viewBox="0 0 512 512">
  <defs>
    <style>
      .cls-1 {
        fill: currentColor;
      }
    </style>
  </defs>
  <title>portable-wifi</title>
  <g>
    <circle class="cls-1" cx="256" cy="256" r="64"/>
    <path class="cls-1" d="M431.3628,80.6372A248,248,0,0,0,80.6372,431.3623l0,0,34.0074-34.0074A199.378,199.378,0,0,1,56,256C56,145.72,145.72,56,256,56s200,89.72,200,200a199.378,199.378,0,0,1-58.6449,141.3551l34.0074,34.0074,0,0a248.0009,248.0009,0,0,0,0-350.7251Z"/>
    <path class="cls-1" d="M256,96C167.7759,96,96,167.7759,96,256a159.5023,159.5023,0,0,0,46.9159,113.0841L176,336h1.7026a112,112,0,1,1,156.5948,0H336l33.0841,33.0841A159.5023,159.5023,0,0,0,416,256C416,167.7759,344.2241,96,256,96Z"/>
  </g>
</svg>
