<svg id="export" xmlns="http://www.w3.org/2000/svg" viewBox="0 0 512 512">
  <defs>
    <style>
      .cls-1 {
        fill: currentColor;
      }
    </style>
  </defs>
  <title>wifi-signal-lock-3</title>
  <g>
    <path class="cls-1" d="M293.4355,157.1484V144.229A335.6764,335.6764,0,0,0,83.4373,189.84L51.2324,143.8467A389.8474,389.8474,0,0,1,256,86.1279q18.6264,0,37,1.7393V39.7024q-18.4278-1.5531-37-1.5745A439.853,439.853,0,0,0,8,114.7v51.09L228.0122,480h55.9756l142.54-203.5686a119.9945,119.9945,0,0,1-133.0925-119.283Z"/>
    <path class="cls-1" d="M471.9355,104V75.5273a60.3186,60.3186,0,0,0-60.25-60.25q-1.5571,0-3.0957.0787A59.8237,59.8237,0,0,0,388.2561,20.02q-2.7021,1.1448-5.2656,2.5406A60.6294,60.6294,0,0,0,357.386,49.43q-.6354,1.3169-1.2082,2.6682-1.1448,2.7022-2.0289,5.5327a60.0475,60.0475,0,0,0-2.7134,17.8967V104h-22v53.1484a84.0419,84.0419,0,0,0,100.9076,82.29q4.0972-.84,8.0438-2.073A82.9,82.9,0,0,0,462.21,225.4722v0a83.668,83.668,0,0,0,23.0472-24.7995q2.1069-3.4641,3.8822-7.139a83.497,83.497,0,0,0,8.296-36.385V104Zm-36-2h-48.5V75.5273a24.1305,24.1305,0,0,1,4.1473-13.5488,24.4275,24.4275,0,0,1,2.9636-3.59q.8234-.8232,1.7229-1.5664a24.2764,24.2764,0,0,1,7.087-4.0706q1.1138-.4083,2.2761-.709a24.2593,24.2593,0,0,1,30.3031,23.4851Z"/>
  </g>
</svg>
