<svg id="export" xmlns="http://www.w3.org/2000/svg" viewBox="0 0 512 512">
  <defs>
    <style>
      .cls-1 {
        fill: currentColor;
      }
    </style>
  </defs>
  <title>wifi-signal-lock-4</title>
  <g>
    <path class="cls-1" d="M293.4355,157.1484V105.936H293V39.7024q-18.4278-1.5531-37-1.5745A439.853,439.853,0,0,0,8,114.7v51.09L228.0122,480h55.9756l142.54-203.5686a119.9945,119.9945,0,0,1-133.0925-119.283Z"/>
    <path class="cls-1" d="M471.9355,104V75.5273a60.0442,60.0442,0,0,0-2.7133-17.8967q-.8816-2.8282-2.0288-5.5327-.5727-1.3509-1.2083-2.6682a60.6569,60.6569,0,0,0-25.6045-26.87q-2.561-1.3932-5.2656-2.5406a59.8237,59.8237,0,0,0-20.3337-4.6635q-1.5381-.0785-3.0958-.0787t-3.0957.0787A59.8237,59.8237,0,0,0,388.2561,20.02q-2.7021,1.1448-5.2656,2.5406A60.6294,60.6294,0,0,0,357.386,49.43q-.6354,1.3169-1.2082,2.6682-1.1448,2.7022-2.0289,5.5327a60.0475,60.0475,0,0,0-2.7134,17.8967V104h-22v53.1484a84,84,0,0,0,168,0V104Zm-36-2h-48.5V75.5273a24.1305,24.1305,0,0,1,4.1473-13.5488,24.4275,24.4275,0,0,1,2.9636-3.59q.8234-.8232,1.7229-1.5664a24.2764,24.2764,0,0,1,7.087-4.0706q1.1138-.4083,2.2761-.709a24.2717,24.2717,0,0,1,12.1063,0q1.1613.2993,2.2761.709a24.2738,24.2738,0,0,1,7.0869,4.0706q.8988.7419,1.723,1.5664a24.3572,24.3572,0,0,1,4.7158,6.6352,24.104,24.104,0,0,1,2.395,10.5039Z"/>
  </g>
</svg>
