<svg id="export" xmlns="http://www.w3.org/2000/svg" viewBox="0 0 512 512"><defs><style>.cls-1{fill:currentColor;}</style></defs><title>american-football</title><path class="cls-1" d="M49.3,464.65C99.68,491.91,161,498,222.49,484.19L29.77,291.47C15.92,352.92,22,414.28,49.3,464.65Z"/><path class="cls-1" d="M467,47C417.55,20.23,357.55,13.82,297.26,26.67l191.1,184.74C499.74,152.91,492.94,95,467,47Z"/><path class="cls-1" d="M125,122.71c-37,37-64.29,79.5-81.33,123.29L268,470.25c43.8-17,86.25-44.28,123.3-81.32,39.33-39.34,67.62-84.76,84.37-131.42L251,40.35C206.24,57.32,162.82,84.91,125,122.71Zm163,75.83,27.27-27.27,25.46,25.46L313.46,224l27.27,27.27-25.46,25.46L288,249.46,265.46,272l27.27,27.27-25.46,25.46L240,297.46l-27.27,27.27-25.46-25.46L214.54,272l-27.27-27.27,25.46-25.46L240,246.54,262.54,224l-27.27-27.27,25.46-25.46Z"/></svg>