<svg id="export" xmlns="http://www.w3.org/2000/svg" viewBox="0 0 512 512"><defs><style>.cls-1{fill:currentColor;}</style></defs><title>baseball</title><circle class="cls-1" cx="100" cy="100" r="76"/><path class="cls-1" d="M476.71,36.71h0a61.21,61.21,0,0,0-87.95,1.42L351.36,78q-39.35,42-75.8,86.52L168,296l.26.26L71.48,399.48,66,394a19.8,19.8,0,0,0-28,28l52,52a19.8,19.8,0,0,0,28-28l-5.48-5.48,103.22-96.78.26.26,89.8-69.39A1706.06,1706.06,0,0,0,469,131l7.68-7.68A61.22,61.22,0,0,0,476.71,36.71Z"/></svg>