<svg id="export" xmlns="http://www.w3.org/2000/svg" viewBox="0 0 512 512"><defs><style>.cls-1{fill:currentColor;}</style></defs><title>running</title><path class="cls-1" d="M371.74,208l-35.09-45.12-88.27-29.42L157.7,157.64A40,40,0,0,0,128,196.29V280h48V202.44l66.21-17.66-12.34,37.83-52.4,146.72L88.07,337.4,71.93,382.6l96.93,34.62A40,40,0,0,0,220,393l30.29-84.79L312,369.94V496h48V366.63a39.73,39.73,0,0,0-11.72-28.29l-60.65-60.65,22.91-70.19,25.71,33.06A39.75,39.75,0,0,0,367.83,256H448V208Z"/><circle class="cls-1" cx="309.91" cy="80" r="48"/></svg>