<svg id="export" xmlns="http://www.w3.org/2000/svg" viewBox="0 0 512 512">
  <defs>
    <style>
      .cls-1, .cls-2 {
        fill:currentColor;
      }

      .cls-1 {
        opacity: 0.25;
      }
    </style>
  </defs>
  <title>border-clear</title>
  <rect class="cls-1" x="32" y="32" width="448" height="448" rx="24"/>
  <rect class="cls-2" x="296" y="72" width="32" height="32"/>
  <rect class="cls-2" x="296" y="240" width="32" height="32"/>
  <polygon class="cls-2" points="240 88 240 104 272 104 272 88 272 72 240 72 240 88"/>
  <rect class="cls-2" x="296" y="408" width="32" height="32"/>
  <rect class="cls-2" x="240" y="240" width="32" height="32"/>
  <rect class="cls-2" x="240" y="184" width="32" height="32"/>
  <rect class="cls-2" x="240" y="128" width="32" height="32"/>
  <rect class="cls-2" x="240" y="296" width="32" height="32"/>
  <rect class="cls-2" x="408" y="408" width="32" height="32"/>
  <rect class="cls-2" x="408" y="352" width="32" height="32"/>
  <rect class="cls-2" x="352" y="408" width="32" height="32"/>
  <rect class="cls-2" x="408" y="296" width="32" height="32"/>
  <rect class="cls-2" x="352" y="240" width="32" height="32"/>
  <rect class="cls-2" x="352" y="72" width="32" height="32"/>
  <polygon class="cls-2" points="408 240 408 272 424 272 440 272 440 240 424 240 408 240"/>
  <rect class="cls-2" x="240" y="352" width="32" height="32"/>
  <rect class="cls-2" x="72" y="184" width="32" height="32"/>
  <rect class="cls-2" x="72" y="72" width="32" height="32"/>
  <rect class="cls-2" x="72" y="128" width="32" height="32"/>
  <polygon class="cls-2" points="72 240 72 272 88 272 104 272 104 240 88 240 72 240"/>
  <rect class="cls-2" x="72" y="408" width="32" height="32"/>
  <rect class="cls-2" x="72" y="296" width="32" height="32"/>
  <rect class="cls-2" x="72" y="352" width="32" height="32"/>
  <polygon class="cls-2" points="240 424 240 440 272 440 272 424 272 408 240 408 240 424"/>
  <rect class="cls-2" x="184" y="72" width="32" height="32"/>
  <rect class="cls-2" x="408" y="184" width="32" height="32"/>
  <rect class="cls-2" x="184" y="240" width="32" height="32"/>
  <rect class="cls-2" x="184" y="408" width="32" height="32"/>
  <rect class="cls-2" x="128" y="240" width="32" height="32"/>
  <rect class="cls-2" x="128" y="408" width="32" height="32"/>
  <rect class="cls-2" x="128" y="72" width="32" height="32"/>
  <rect class="cls-2" x="408" y="128" width="32" height="32"/>
  <rect class="cls-2" x="408" y="72" width="32" height="32"/>
</svg>
