<svg id="export" xmlns="http://www.w3.org/2000/svg" viewBox="0 0 512 512">
  <defs>
    <style>
      .cls-1, .cls-2 {
        fill:currentColor;
      }

      .cls-1 {
        opacity: 0.25;
      }
    </style>
  </defs>
  <title>border-outer</title>
  <rect class="cls-1" x="32" y="32" width="448" height="448" rx="24"/>
  <rect class="cls-2" x="128" y="240" width="32" height="32"/>
  <rect class="cls-2" x="352" y="240" width="32" height="32"/>
  <rect class="cls-2" x="240" y="184" width="32" height="32"/>
  <rect class="cls-2" x="240" y="240" width="32" height="32"/>
  <rect class="cls-2" x="240" y="128" width="32" height="32"/>
  <rect class="cls-2" x="240" y="296" width="32" height="32"/>
  <rect class="cls-2" x="240" y="352" width="32" height="32"/>
  <path class="cls-2" d="M424,72H88A16,16,0,0,0,72,88V424a16,16,0,0,0,16,16H424a16,16,0,0,0,16-16V88A16,16,0,0,0,424,72ZM408,240V408H104V104H408Z"/>
  <rect class="cls-2" x="184" y="240" width="32" height="32"/>
  <rect class="cls-2" x="296" y="240" width="32" height="32"/>
</svg>
