<svg id="export" xmlns="http://www.w3.org/2000/svg" viewBox="0 0 512 512">
  <defs>
    <style>
      .cls-1, .cls-2 {
        fill:currentColor;
      }

      .cls-1 {
        opacity: 0.25;
      }
    </style>
  </defs>
  <title>border-bottom</title>
  <rect class="cls-1" x="32" y="32" width="448" height="448" rx="24"/>
  <rect class="cls-2" x="72" y="72" width="32" height="32"/>
  <rect class="cls-2" x="128" y="240" width="32" height="32"/>
  <rect class="cls-2" x="128" y="72" width="32" height="32"/>
  <rect class="cls-2" x="72" y="128" width="32" height="32"/>
  <rect class="cls-2" x="184" y="240" width="32" height="32"/>
  <rect class="cls-2" x="184" y="72" width="32" height="32"/>
  <polygon class="cls-2" points="408 408 384 408 352 408 328 408 296 408 272 408 240 408 216 408 184 408 160 408 128 408 104 408 88 408 72 408 72 440 88 440 104 440 128 440 160 440 184 440 216 440 240 440 272 440 296 440 328 440 352 440 384 440 408 440 424 440 440 440 440 408 424 408 408 408"/>
  <rect class="cls-2" x="408" y="352" width="32" height="32"/>
  <polygon class="cls-2" points="104 272 104 240 88 240 72 240 72 272 88 272 104 272"/>
  <rect class="cls-2" x="72" y="184" width="32" height="32"/>
  <rect class="cls-2" x="72" y="296" width="32" height="32"/>
  <rect class="cls-2" x="72" y="352" width="32" height="32"/>
  <rect class="cls-2" x="296" y="240" width="32" height="32"/>
  <rect class="cls-2" x="296" y="72" width="32" height="32"/>
  <rect class="cls-2" x="240" y="352" width="32" height="32"/>
  <rect class="cls-2" x="352" y="72" width="32" height="32"/>
  <rect class="cls-2" x="352" y="240" width="32" height="32"/>
  <polygon class="cls-2" points="272 88 272 72 240 72 240 88 240 104 272 104 272 88"/>
  <rect class="cls-2" x="240" y="128" width="32" height="32"/>
  <rect class="cls-2" x="240" y="296" width="32" height="32"/>
  <rect class="cls-2" x="240" y="240" width="32" height="32"/>
  <rect class="cls-2" x="240" y="184" width="32" height="32"/>
  <rect class="cls-2" x="408" y="128" width="32" height="32"/>
  <rect class="cls-2" x="408" y="184" width="32" height="32"/>
  <polygon class="cls-2" points="408 240 408 272 424 272 440 272 440 240 424 240 408 240"/>
  <rect class="cls-2" x="408" y="72" width="32" height="32"/>
  <rect class="cls-2" x="408" y="296" width="32" height="32"/>
</svg>
