<svg id="export" xmlns="http://www.w3.org/2000/svg" viewBox="0 0 512 512">
  <defs>
    <style>
      .cls-1 {
        fill: none;
      }

      .cls-2, .cls-3 {
        fill:currentColor;
      }

      .cls-3 {
        opacity: 0.25;
      }
    </style>
  </defs>
  <title>crop</title>
  <polygon class="cls-1" points="376 376 376 181.255 181.255 376 376 376"/>
  <polygon class="cls-1" points="136 136 136 330.745 330.745 136 136 136"/>
  <polygon class="cls-2" points="440 376 440 117.255 376 181.255 376 376 181.255 376 136 376 136 330.745 136 136 330.745 136 394.745 72 136 72 136 16 72 16 72 72 16 72 16 136 72 136 72 440 376 440 376 496 440 496 440 440 496 440 496 376 440 376"/>
  <polygon class="cls-3" points="450.745 16 394.745 72 330.745 136 136 330.745 136 376 181.255 376 376 181.255 440 117.255 496 61.255 496 16 450.745 16"/>
</svg>
