<svg id="export" xmlns="http://www.w3.org/2000/svg" viewBox="0 0 512 512">
  <defs>
    <style>
      .cls-1, .cls-2 {
        fill:currentColor;
      }

      .cls-2 {
        opacity: 0.25;
      }
    </style>
  </defs>
  <title>exposure</title>
  <rect class="cls-1" x="112" y="134" width="112" height="36"/>
  <path class="cls-2" d="M456,35H56A21,21,0,0,0,35,56V456a21,21,0,0,0,21,21H456a21,21,0,0,0,21-21V56A21,21,0,0,0,456,35ZM77,77H405.3013L77,405.3013Z"/>
  <polygon class="cls-1" points="370 288 334 288 334 334 288 334 288 370 334 370 334 416 370 416 370 370 416 370 416 334 370 334 370 288"/>
</svg>
