<svg id="export" xmlns="http://www.w3.org/2000/svg" viewBox="0 0 512 512">
  <defs>
    <style>
      .cls-1, .cls-2 {
        fill:currentColor;
      }

      .cls-1 {
        opacity: 0.25;
      }
    </style>
  </defs>
  <title>gradient</title>
  <g>
    <rect class="cls-1" x="76" y="112" width="40" height="40"/>
    <rect class="cls-1" x="156" y="112" width="40" height="40"/>
    <rect class="cls-1" x="236" y="112" width="40" height="40"/>
    <rect class="cls-1" x="316" y="112" width="40" height="40"/>
    <rect class="cls-1" x="396" y="112" width="40" height="40"/>
    <polygon class="cls-1" points="356 152 356 192 316 192 316 152 276 152 276 192 236 192 236 152 196 152 196 192 156 192 156 152 116 152 116 192 76 192 76 232 76 272 76 312 76 390 436 390 436 312 436 272 436 232 436 192 396 192 396 152 356 152"/>
  </g>
  <g>
    <rect class="cls-2" x="156" y="232" width="40" height="40"/>
    <rect class="cls-2" x="236" y="232" width="40" height="40"/>
    <rect class="cls-2" x="316" y="232" width="40" height="40"/>
    <rect class="cls-2" x="116" y="272" width="40" height="40"/>
    <rect class="cls-2" x="196" y="272" width="40" height="40"/>
    <rect class="cls-2" x="276" y="272" width="40" height="40"/>
    <rect class="cls-2" x="356" y="272" width="40" height="40"/>
    <path class="cls-2" d="M454.7148,32H57.2852A21.2853,21.2853,0,0,0,36,53.2852v405.43A21.2852,21.2852,0,0,0,57.2852,480h397.43A21.2852,21.2852,0,0,0,476,458.7149V53.2852A21.2853,21.2853,0,0,0,454.7148,32ZM436,232H396v40h40v40H396v40H356V312H316v40H276V312H236v40H196V312H156v40H116V312H76V272h40V232H76V72H436Z"/>
  </g>
</svg>
