<svg id="export" xmlns="http://www.w3.org/2000/svg" viewBox="0 0 512 512">
  <defs>
    <style>
      .cls-1 {
        opacity: 0.25;
      }

      .cls-2 {
        fill:currentColor;
      }
    </style>
  </defs>
  <title>grid-slash</title>
  <g class="cls-1">
    <path class="cls-2" d="M341,371.3653,268.6348,299l-50.0572-50.0569L213,243.3653h0L140.6348,171,85,115.3652l-42-42V449a21,21,0,0,0,21,21H439.6348l-43-43Z"/>
    <path class="cls-2" d="M449,43H120.5642L470,393.1488V64A21,21,0,0,0,449,43Z"/>
  </g>
  <g>
    <polygon class="cls-2" points="427 299 427 213 341 213 341 263.886 376.043 299 427 299"/>
    <rect class="cls-2" x="341" y="85" width="86" height="86"/>
    <polygon class="cls-2" points="299 171 299 85 213 85 213 135.624 248.303 171 299 171"/>
    <rect class="cls-2" x="213" y="341" width="86" height="86"/>
    <rect class="cls-2" x="85" y="341" width="86" height="86"/>
    <rect class="cls-2" x="85" y="213" width="86" height="86"/>
    <polygon class="cls-2" points="45.289 16.256 16 16.256 16 46.365 43 73.365 85 115.365 85 171 140.635 171 213 243.365 213 299 268.635 299 341 371.365 341 427 396.635 427 439.635 470 466.301 496.667 496 496.667 496 466.968 45.289 16.256"/>
  </g>
</svg>
