<svg id="export" xmlns="http://www.w3.org/2000/svg" viewBox="0 0 512 512">
  <defs>
    <style>
      .cls-1, .cls-2 {
        fill:currentColor;
      }

      .cls-1 {
        opacity: 0.25;
      }
    </style>
  </defs>
  <title>hdr</title>
  <rect class="cls-1" x="16" y="64" width="480" height="376" rx="16"/>
  <path class="cls-2" d="M306.2549,342.9375V161.042a41.3312,41.3312,0,0,0-41.4815-41.084l-69.1845-.001V384.0205l69.1845.001A41.3312,41.3312,0,0,0,306.2549,342.9375Zm-74.666-186.98,33.1845.001a5.3,5.3,0,0,1,5.4815,5.084V342.9375a5.3,5.3,0,0,1-5.4815,5.084l-33.1845-.001Z"/>
  <polygon class="cls-2" points="90 269.989 134 269.989 134 384 170 384 170 120 134 120 134 233.989 90 233.989 90 120 54 120 54 384 90 384 90 269.989"/>
  <path class="cls-2" d="M369.4473,282h12.0239l31.9761,51.1621V384h36V322.8379L423.4731,281.28c14.813-3.2232,25.9742-16.9189,25.9742-33.28V153.957c0-18.748-14.6543-34-32.667-34h-83.333V384h36Zm0-66V155.957h44V246h-44Z"/>
</svg>
