<svg id="export" xmlns="http://www.w3.org/2000/svg" viewBox="0 0 512 512">
  <defs>
    <style>
      .cls-1, .cls-2 {
        fill:currentColor;
      }

      .cls-1 {
        opacity: 0.25;
      }

      .cls-3 {
        fill: #fff;
      }
    </style>
  </defs>
  <title>healing</title>
  <path class="cls-1" d="M354.9951,478.5342A49.67,49.67,0,0,1,319.64,463.8887L48.11,192.36a50,50,0,0,1,0-70.711l0,.001,73.539-73.5391a49.9984,49.9984,0,0,1,70.711,0L463.89,319.64a50,50,0,0,1,0,70.711l-73.5386,73.5381A49.6718,49.6718,0,0,1,354.9951,478.5342ZM157.0049,69.4658a13.9122,13.9122,0,0,0-9.8994,4.1006l-73.54,73.54a14,14,0,0,0,.0005,19.7989L345.0957,438.4336a14,14,0,0,0,19.7988,0l73.5391-73.5391a14.0007,14.0007,0,0,0,0-19.8L166.9043,73.5664A13.9073,13.9073,0,0,0,157.0049,69.4658Z"/>
  <path class="cls-2" d="M475.2031,132.9639l-96.167-96.168a34.04,34.04,0,0,0-48.083.001L36.7974,330.9531a33.9988,33.9988,0,0,0-.0005,48.083l96.1665,96.167,0,.001a34.04,34.04,0,0,0,48.083-.001L475.2026,181.0469a33.9988,33.9988,0,0,0,0-48.083ZM211.4854,270.5146l-18-18,18-18,18,18Zm45,45-18-18,18-18,18,18Zm0-90-18-18,18-18,18,18Zm45,45-18-18,18-18,18,18Z"/>
  <g>
    <rect class="cls-3" x="243.7574" y="194.7867" width="25.4558" height="25.4558" transform="translate(-71.6122 242.1421) rotate(-45)"/>
    <rect class="cls-3" x="243.7574" y="284.7867" width="25.4558" height="25.4558" transform="translate(-135.2518 268.5025) rotate(-45)"/>
    <rect class="cls-3" x="288.7574" y="239.7867" width="25.4558" height="25.4558" transform="translate(-90.2518 287.1428) rotate(-45.0001)"/>
    <rect class="cls-3" x="198.7574" y="239.7867" width="25.4558" height="25.4558" transform="translate(-116.6123 223.5031) rotate(-45.0001)"/>
  </g>
</svg>
