<svg id="export" xmlns="http://www.w3.org/2000/svg" viewBox="0 0 512 512">
  <defs>
    <style>
      .cls-1, .cls-2 {
        fill:currentColor;
      }

      .cls-2 {
        opacity: 0.25;
      }
    </style>
  </defs>
  <title>paint</title>
  <path class="cls-1" d="M274,296V255.4424l137.97-21.2256A82.5886,82.5886,0,0,0,399.4116,70H384v36h15.4116a46.5883,46.5883,0,0,1,7.0845,92.6348L238,224.5576V296Z"/>
  <path class="cls-2" d="M384,70V40a24.0275,24.0275,0,0,0-24-24H72A24.0275,24.0275,0,0,0,48,40V144a24.0275,24.0275,0,0,0,24,24H360a24.0275,24.0275,0,0,0,24-24V70Z"/>
  <polygon class="cls-1" points="238 296 184 296 184 496 328 496 328 296 274 296 238 296"/>
</svg>
