<svg id="export" xmlns="http://www.w3.org/2000/svg" viewBox="0 0 512 512">
  <defs>
    <style>
      .cls-1 {
        fill: currentColor;
      }
    </style>
  </defs>
  <title>golf</title>
  <g>
    <path class="cls-1" d="M378.8408,342.0342C339.3721,327.8252,287.2227,320,232,320a537.8177,537.8177,0,0,0-80,5.793V211.1568l152-56v-38.13l-152-71.2V16H120V416h32V358.1664A500.9453,500.9453,0,0,1,232,352c51.6211,0,99.9209,7.1533,136.002,20.1426C403.43,384.8965,416,399.43,416,408s-12.57,23.1035-47.998,35.8574C331.9209,456.8467,283.6211,464,232,464s-99.9209-7.1533-136.002-20.1426C60.57,431.1035,48,416.57,48,408c0-7.89,10.6688-20.8317,40-32.7878V341.0358c-.9518.33-1.9032.6609-2.8408.9984C27.998,362.6118,16,389.2646,16,408s11.998,45.3882,69.1592,65.9658C124.6279,488.1748,176.7773,496,232,496s107.3721-7.8252,146.8408-22.0342C436.002,453.3882,448,426.7354,448,408S436.002,362.6118,378.8408,342.0342ZM152,81.1631l114.5859,53.6748L152,177.0537Z"/>
    <circle class="cls-1" cx="432" cy="280" r="32"/>
  </g>
</svg>
