<svg id="export" xmlns="http://www.w3.org/2000/svg" viewBox="0 0 512 512">
  <defs>
    <style>
      .cls-1 {
        fill: currentColor;
      }
    </style>
  </defs>
  <title>tennis</title>
  <g>
    <path class="cls-1" d="M144,80a64,64,0,1,0-64,64A64.0724,64.0724,0,0,0,144,80ZM48,80a32,32,0,1,1,32,32A32.0364,32.0364,0,0,1,48,80Z"/>
    <path class="cls-1" d="M440.65,71.4355a133.3724,133.3724,0,0,0-94.2329-39.3476c-.2095-.001-.4136-.002-.6226-.002-37.49,0-74.0967,15.9688-103.1347,45.0069-29.58,29.58-53.7486,74.5293-64.6519,120.24a217.0526,217.0526,0,0,0-5.46,34.69,119.94,119.94,0,0,1-15.2646,51.4628,142.364,142.364,0,0,1-22.6913,29.518l-79.2852,81.207c-12.3887,12.4307-13.7055,25.2139-12.626,33.7559,1.2539,9.9189,6.5249,19.7715,15.2437,28.49s18.5708,13.99,28.4907,15.2442a37.92,37.92,0,0,0,4.7539.3c8.188,0,18.7554-2.6787,29.0738-12.9971l79.2783-81.1992a142.0738,142.0738,0,0,1,31.9692-24.044,118.7045,118.7045,0,0,1,48.605-13.9427,216.3523,216.3523,0,0,0,34.8857-5.5621c45.5445-10.9913,90.4087-35.2266,120.0113-64.83h0c29.2-29.2,45.1826-66.0479,45.0048-103.7569A133.37,133.37,0,0,0,440.65,71.4355ZM97.5562,436.4365c-3.9444,3.918-6.2564,3.625-7.128,3.5176-2.729-.3457-6.3281-2.5771-9.875-6.124s-5.7793-7.1465-6.124-9.876c-.1108-.877-.4053-3.2051,3.5767-7.1865L141.38,351.8563l19.61,19.6093Zm86.0493-87.61-19.9712-19.9706A173.6629,173.6629,0,0,0,184.82,299.7652a72.7683,72.7683,0,0,0,27.8785,27.8741A173.6693,173.6693,0,0,0,183.6055,348.8269ZM412.3662,246.7988c-25.2339,25.2334-65.4258,46.8262-104.8916,56.3506-39.2739,9.4776-72.1763,5.6846-88.0112-10.15C185.7007,259.2354,210.54,154.4678,265.2876,99.72c25.064-25.0634,53.4966-35.5078,80.1924-35.5078a103.2163,103.2163,0,0,1,72.5429,29.8506C453.6729,129.7129,463.8057,195.3584,412.3662,246.7988Z"/>
  </g>
</svg>
