<svg id="export" xmlns="http://www.w3.org/2000/svg" viewBox="0 0 512 512">
  <defs>
    <style>
      .cls-1 {
        fill: currentColor;
      }
    </style>
  </defs>
  <title>cast-connected</title>
  <g>
    <path class="cls-1" d="M472,80H40a24.0275,24.0275,0,0,0-24,24v72H48V112H464V392H264v32H472a24.0275,24.0275,0,0,0,24-24V104A24.0275,24.0275,0,0,0,472,80Z"/>
    <path class="cls-1" d="M16,360h0v64H80A64,64,0,0,0,16,360Z"/>
    <path class="cls-1" d="M424,152H88v43.0391a238.3922,238.3922,0,0,1,32,12.6848V184H392V320H232.2761a238.3842,238.3842,0,0,1,12.6848,32H424Z"/>
    <path class="cls-1" d="M16,288v32A104.1179,104.1179,0,0,1,120,424h32C152,349.0093,90.9907,288,16,288Z"/>
    <path class="cls-1" d="M16,216v32c97.0469,0,176,78.9531,176,176h32C224,309.3086,130.6914,216,16,216Z"/>
  </g>
</svg>
