<svg id="export" xmlns="http://www.w3.org/2000/svg" viewBox="0 0 512 512">
  <defs>
    <style>
      .cls-1 {
        fill: currentColor;
      }
    </style>
  </defs>
  <title>cloud-download</title>
  <g>
    <polygon class="cls-1" points="272 434.744 272 209.176 240 209.176 240 434.744 188.118 382.862 165.49 405.489 256 496 346.51 405.489 323.882 382.862 272 434.744"/>
    <path class="cls-1" d="M400,161.1758c0-79.4024-64.5981-144-144-144s-144,64.5976-144,144a96,96,0,0,0,0,192h80v-32H112a64,64,0,0,1,0-128h32v-32a112,112,0,1,1,224,0v32h32a64,64,0,1,1,0,128H320v32h80a96,96,0,1,0,0-192Z"/>
  </g>
</svg>
