<svg id="export" xmlns="http://www.w3.org/2000/svg" viewBox="0 0 512 512">
  <defs>
    <style>
      .cls-1 {
        fill: currentColor;
      }
    </style>
  </defs>
  <title>cloud-check</title>
  <g>
    <path class="cls-1" d="M400,217.4531V216c0-79.4019-64.5977-144-144-144S112,136.5981,112,216v2.4917a122.2746,122.2746,0,0,0-62.7939,32.7075A109.397,109.397,0,0,0,16,329.6191c0,31.1187,12.7891,60.7622,36.01,83.4693C74.6992,435.2754,105.3379,448,136.07,448H382.83a109.7477,109.7477,0,0,0,81.14-35.4541C484.625,390.3394,496,360.8887,496,329.6191,496,271.1821,455.7158,225.3916,400,217.4531ZM382.83,416H136.07C89.1543,416,48,375.6353,48,329.6191c0-42.2685,35.64-77.916,81.1367-81.1552L144,247.4058V216a112,112,0,0,1,224,0v32.04l15.7979.2C430.27,248.8281,464,283.0527,464,329.6191,464,378.0571,428.3457,416,382.83,416Z"/>
    <polygon class="cls-1" points="241.698 323.674 199.012 280.988 176.385 303.615 241.698 368.929 345.313 265.313 322.687 242.687 241.698 323.674"/>
  </g>
</svg>
