<svg id="export" xmlns="http://www.w3.org/2000/svg" viewBox="0 0 512 512">
  <defs>
    <style>
      .cls-1 {
        fill: currentColor;
      }
    </style>
  </defs>
  <title>developer-board</title>
  <g>
    <path class="cls-1" d="M496,153.5361V120H456.7681V71.7637C456.7681,58.4385,445.3066,48,430.6748,48H41.3247C26.6934,48,15.2319,58.4385,15.2319,71.7637V447.7725c0,13.3252,11.4615,23.7636,26.0928,23.7636h389.35c14.6318,0,26.0933-10.4384,26.0933-23.7636V409.5361H496V376H456.7681V281.5361H496V248H456.7681V153.5361ZM423.2319,438H48.7681V81.5361H423.2319Z"/>
    <path class="cls-1" d="M392.7681,312H255.2319v97.5361H392.7681Zm-33.5362,64H288.7681V345.5361h70.4638Z"/>
    <path class="cls-1" d="M224.7681,112H87.2319v97.5361H224.7681Zm-33.5362,64H120.7681V145.5361h70.4638Z"/>
    <path class="cls-1" d="M392.7681,112H255.2319V281.5361H392.7681ZM359.2319,248H288.7681V145.5361h70.4638Z"/>
    <path class="cls-1" d="M224.7681,240H87.2319V409.5361H224.7681ZM191.2319,376H120.7681V273.5361h70.4638Z"/>
  </g>
</svg>
