<svg id="export" xmlns="http://www.w3.org/2000/svg" viewBox="0 0 512 512">
  <defs>
    <style>
      .cls-1 {
        fill: currentColor;
      }
    </style>
  </defs>
  <title>https</title>
  <g>
    <path class="cls-1" d="M400,200H388V144a128,128,0,0,0-256,0v56H120a24.0275,24.0275,0,0,0-24,24V472a24.0275,24.0275,0,0,0,24,24H400a24.0275,24.0275,0,0,0,24-24V224A24.0275,24.0275,0,0,0,400,200ZM164,144a96,96,0,0,1,192,0v56H164ZM392,464H128V232H392Z"/>
    <rect class="cls-1" x="240" y="328" width="40" height="40"/>
  </g>
</svg>
