<svg id="export" xmlns="http://www.w3.org/2000/svg" viewBox="0 0 512 512">
  <defs>
    <style>
      .cls-1 {
        fill: currentColor;
      }
    </style>
  </defs>
  <title>link-broken</title>
  <g>
    <polygon class="cls-1" points="288 496 320 496 320 368 448 368 448 336 288 336 288 496"/>
    <polygon class="cls-1" points="224 176 224 16 192 16 192 144 64 144 64 176 224 176"/>
    <path class="cls-1" d="M78.7075,434.5732l-1.2783-1.2783A100.478,100.478,0,0,1,77.43,291.1973L152.6262,216H107.3721l-52.57,52.57A132.4771,132.4771,0,0,0,54.8,455.92l1.2783,1.2783a132.6269,132.6269,0,0,0,187.3521,0l4.57-4.57V407.373l-27.1973,27.1983A100.592,100.592,0,0,1,78.7075,434.5732Z"/>
    <path class="cls-1" d="M457.2,56.08l-1.2783-1.2783c-51.6533-51.6543-135.6988-51.6524-187.3521,0l-4.57,4.57v45.2551l27.1973-27.198a100.592,100.592,0,0,1,142.0952-.0019l1.2783,1.2783a100.478,100.478,0,0,1-.0005,142.0976L359.3735,296h45.2539l52.57-52.57A132.4771,132.4771,0,0,0,457.2,56.08Z"/>
  </g>
</svg>
