<svg id="export" xmlns="http://www.w3.org/2000/svg" viewBox="0 0 512 512">
  <defs>
    <style>
      .cls-1 {
        fill: currentColor;
      }
    </style>
  </defs>
  <title>link</title>
  <g>
    <path class="cls-1" d="M457.47,55.8335c-53.0254-53.0264-139.3066-53.0264-192.332,0l-96.167,96.167,22.627,22.6269L287.7646,78.46A104,104,0,0,1,434.8433,225.5391L338.676,321.7058l22.6271,22.6271L457.47,248.166C510.4966,195.14,510.4966,108.86,457.47,55.8335Z"/>
    <path class="cls-1" d="M225.5386,434.8428a103.9988,103.9988,0,0,1-147.0772,0H78.46a104.0012,104.0012,0,0,1,0-147.0782l90.51-90.51-22.6269-22.627-90.51,90.51A135.9994,135.9994,0,1,0,248.166,457.47l90.51-90.51-22.627-22.627Z"/>
    <rect class="cls-1" x="93.8237" y="243.4802" width="319.9997" height="32" transform="translate(-109.137 255.4803) rotate(-45)"/>
  </g>
</svg>
