<svg xmlns="http://www.w3.org/2000/svg" viewBox="0 0 512 512">
  <defs>
    <style>
      .cls-1 {
        fill: none;
        stroke: #000;
        stroke-miterlimit: 10;
        stroke-width: 32px;
      }

      .cls-2 {
        fill: currentColor;
      }
    </style>
  </defs>
  <title>paper-plane#send</title>
  <g id="edit">
    <path class="cls-1" d="M49.7375,241.0366V223.9678L459.6506,31.56a4.2672,4.2672,0,0,1,5.9388,4.9526L348.4417,480H331.3729L220.4256,309.3119Z"/>
    <line class="cls-1" x1="377.7375" y1="136" x2="209.7375" y2="320"/>
  </g>
  <g id="export">
    <path class="cls-2" d="M474.4445,19.8574a20.3352,20.3352,0,0,0-21.5923-2.7812L33.7375,213.8027v38.0664l176.0366,70.4141L322.69,496h38.0742L481.0587,40.5986A20.3417,20.3417,0,0,0,474.4445,19.8574Zm-137.188,439.836L240.1962,310.37,389.5534,146.7881l-23.6319-21.5762L215.4,290.0691,70.2565,232.0117,443.7028,56.72Z"/>
  </g>
</svg>
