<svg id="export" xmlns="http://www.w3.org/2000/svg" viewBox="0 0 512 512">
  <defs>
    <style>
      .cls-1 {
        fill: currentColor;
      }
    </style>
  </defs>
  <title>portable-wifi</title>
  <path class="cls-1" d="M256,320a64,64,0,1,1,64-64A64.0724,64.0724,0,0,1,256,320Zm0-96a32,32,0,1,0,32,32A32.0364,32.0364,0,0,0,256,224Z"/>
  <path class="cls-1" d="M108.9907,403.0093A207.3531,207.3531,0,0,1,48,256C48,141.3086,141.3086,48,256,48s208,93.3086,208,208a207.3531,207.3531,0,0,1-60.9907,147.0093l22.6965,22.6965A240,240,0,0,0,86.2944,86.2939a240.001,240.001,0,0,0,0,339.4119Z"/>
  <path class="cls-1" d="M171.187,340.813a120,120,0,1,1,169.626,0L363.43,363.43A151.5271,151.5271,0,0,0,408,256c0-83.8135-68.187-152-152-152S104,172.1865,104,256a151.5271,151.5271,0,0,0,44.57,107.43Z"/>
</svg>
