<svg id="export" xmlns="http://www.w3.org/2000/svg" viewBox="0 0 512 512">
  <defs>
    <style>
      .cls-1 {
        fill: currentColor;
      }
    </style>
  </defs>
  <title>rss-square</title>
  <g>
    <path class="cls-1" d="M136,432a56,56,0,1,0-56-56A56.0635,56.0635,0,0,0,136,432Zm0-80a24,24,0,1,1-24,24A24,24,0,0,1,136,352Z"/>
    <path class="cls-1" d="M472,16H40A24.0275,24.0275,0,0,0,16,40V472a24.0275,24.0275,0,0,0,24,24H472a24.0275,24.0275,0,0,0,24-24V40A24.0275,24.0275,0,0,0,472,16Zm-8,448H48V48H464Z"/>
    <path class="cls-1" d="M240,376h32c0-74.99-61.0093-136-136-136v32A104.1179,104.1179,0,0,1,240,376Z"/>
    <path class="cls-1" d="M320,376h32A216,216,0,0,0,136,160v32C237.458,192,320,274.542,320,376Z"/>
    <path class="cls-1" d="M400,376h32A296,296,0,0,0,136,80v32C281.57,112,400,230.43,400,376Z"/>
  </g>
</svg>
