<svg id="export" xmlns="http://www.w3.org/2000/svg" viewBox="0 0 512 512">
  <defs>
    <style>
      .cls-1 {
        fill: currentColor;
      }
    </style>
  </defs>
  <title>rss</title>
  <g>
    <path class="cls-1" d="M66,256v32c88.2246,0,160,71.7759,160,160h32C258,342.1309,171.8691,256,66,256Z"/>
    <path class="cls-1" d="M66,140v32c152.1865,0,276,123.813,276,276h32a305.9832,305.9832,0,0,0-90.2109-217.7891A305.9861,305.9861,0,0,0,66,140Z"/>
    <path class="cls-1" d="M456.6738,282.9551a422.59,422.59,0,0,0-90.86-134.7686A422.726,422.726,0,0,0,66,24V56c216.1494,0,392,175.8506,392,392h32A421.3717,421.3717,0,0,0,456.6738,282.9551Z"/>
    <path class="cls-1" d="M90,360a64,64,0,1,0,64,64A64.0724,64.0724,0,0,0,90,360Zm0,96a32,32,0,1,1,32-32A32.0364,32.0364,0,0,1,90,456Z"/>
  </g>
</svg>
