<svg id="export" xmlns="http://www.w3.org/2000/svg" viewBox="0 0 512 512">
  <defs>
    <style>
      .cls-1 {
        fill: currentColor;
      }
    </style>
  </defs>
  <title>share</title>
  <path class="cls-1" d="M68.1465,496H16V235.3335a114.1667,114.1667,0,0,1,12.0249-51.3091A136.27,136.27,0,0,1,152,104H288.5571V16H330.918L494.6274,179.71,330.3369,344h-41.78V256h-88.812a85.3983,85.3983,0,0,0-81.9927,62.2437ZM152,136a104.216,104.216,0,0,0-94.9229,61.4429l-.2919.6142A82.4473,82.4473,0,0,0,48,235.3335V449.1426l38.93-139.5A117.5,117.5,0,0,1,199.7451,224h120.812v84.5249L449.3726,179.71,320.5571,50.894V136Z"/>
</svg>
