<svg id="export" xmlns="http://www.w3.org/2000/svg" viewBox="0 0 512 512">
  <defs>
    <style>
      .cls-1 {
        fill: currentColor;
      }
    </style>
  </defs>
  <title>wifi-signal-lock-3</title>
  <g>
    <path class="cls-1" d="M383.2486,268.5027,256,450.2324l-22.3308-31.8916L345.2043,251.0381A117.3083,117.3083,0,0,1,321.54,228.8457L213.9677,390.2041,189.87,355.7891,300.13,187.1563A116.2545,116.2545,0,0,1,296,156.34V128.3816a355.66,355.66,0,0,0-40-2.2537A350.084,350.084,0,0,0,67.421,180.9138L39.856,141.5469A397.866,397.866,0,0,1,256,78.1279q20.0731,0,39.8564,1.9783V47.9775Q276.0171,46.1414,256,46.1279A432.0632,432.0632,0,0,0,8.2148,124.2539l-.2148.15v27.4375l32.9949,47.1218,0,0L237.7782,480h36.4436L419.8649,272H411.66A116.4178,116.4178,0,0,1,383.2486,268.5027ZM85.7878,207.1445a317.9838,317.9838,0,0,1,104.5337-42.257l-66.2862,96.88Zm57.8586,82.63L233.17,158.9321q11.3532-.8008,22.83-.8042,12.2034,0,24.2765.918L170.0988,327.553Z"/>
    <path class="cls-1" d="M468.5,97.127V72.3779a56.313,56.313,0,0,0-56.249-56.249H408.25A56.3131,56.3131,0,0,0,352,72.3779V97.127H328V156a84,84,0,0,0,168,0V97.127ZM384,72.3779a24.2767,24.2767,0,0,1,24.25-24.249h4.0015A24.2763,24.2763,0,0,1,436.5,72.3779V97.127H384ZM464,156a52,52,0,0,1-104,0V129.127H464Z"/>
  </g>
</svg>
