<svg id="export" xmlns="http://www.w3.org/2000/svg" viewBox="0 0 512 512">
  <defs>
    <style>
      .cls-1 {
        fill: currentColor;
      }
    </style>
  </defs>
  <title>wifi-signal-lock-1</title>
  <g>
    <path class="cls-1" d="M380.7993,272l-29.2388,41.7576a190.1432,190.1432,0,0,0-191.121,0L39.8564,141.5469A397.8624,397.8624,0,0,1,256,78.1279q20.1461,0,40,1.9922V47.99q-19.91-1.8494-40-1.8618A432.0632,432.0632,0,0,0,8.2148,124.2539l-.2148.15v27.4363L133.84,331.56l-.0005,0L237.7783,480h36.4434L378.16,331.5605l0,0L419.864,272ZM256,450.2324,178.8672,340.0752a158.2172,158.2172,0,0,1,154.2656,0Z"/>
    <path class="cls-1" d="M468.5,97.127V72.3779a56.2711,56.2711,0,0,0-27.104-48.094q-2.32-1.4109-4.7805-2.6-2.4583-1.1862-5.0442-2.1365a55.9909,55.9909,0,0,0-19.32-3.4187h-4.002A56.313,56.313,0,0,0,352,72.3779V97.127H328V156a84,84,0,0,0,168,0V97.127ZM384,72.3779a24.2763,24.2763,0,0,1,24.249-24.249h4.002A24.2763,24.2763,0,0,1,436.5,72.3779V97.127H384ZM464,156a52,52,0,0,1-104,0V129.127H464Z"/>
  </g>
</svg>
