<svg id="export" xmlns="http://www.w3.org/2000/svg" viewBox="0 0 512 512"><defs><style>.cls-1,.cls-2{fill:currentColor;}.cls-1{opacity:0.25;}</style></defs><title>audio-description</title><rect class="cls-1" x="16" y="64" width="480" height="384" rx="16"/><path class="cls-2" d="M139,166,79.69,344h38l12.67-38h67.38l12.67,38h37.95L189,166Zm3.28,104L164,204.92,185.69,270Z"/><path class="cls-2" d="M343.33,166H278V344.43h65.33A82.76,82.76,0,0,0,426,261.76V248.67A82.76,82.76,0,0,0,343.33,166ZM390,261.76a46.72,46.72,0,0,1-46.67,46.67H314V202h29.33A46.72,46.72,0,0,1,390,248.67Z"/></svg>