<svg id="export" xmlns="http://www.w3.org/2000/svg" viewBox="0 0 512 512"><defs><style>.cls-1,.cls-2{fill:currentColor;}.cls-1{opacity:0.25;}</style></defs><title>camera-enhance</title><path class="cls-1" d="M480,120H380.91L357.09,58.24A16,16,0,0,0,342.16,48H169.36a16,16,0,0,0-15,10.33L131,120H32a16,16,0,0,0-16,16V456a16,16,0,0,0,16,16H480a16,16,0,0,0,16-16V136A16,16,0,0,0,480,120Z"/><polygon class="cls-2" points="248 384 264 384 288 312 360 288 360 272 288 248 264 168 248 168 224 248 152 272 152 288 224 312 248 384"/></svg>