<svg id="export" xmlns="http://www.w3.org/2000/svg" viewBox="0 0 512 512"><defs><style>.cls-1,.cls-2{fill:currentColor;}.cls-1{opacity:0.25;}</style></defs><title>closed-captioning#cc</title><rect class="cls-1" x="16" y="64" width="480" height="384" rx="16"/><path class="cls-2" d="M358.33,318.23a62.23,62.23,0,0,1,0-124.46,61.58,61.58,0,0,1,38.52,13.35l22.3-28.26a97.22,97.22,0,0,0-60.82-21.09,98.23,98.23,0,0,0,0,196.46,97.22,97.22,0,0,0,60.82-21.09l-22.3-28.26A61.58,61.58,0,0,1,358.33,318.23Z"/><path class="cls-2" d="M176.23,193.77a61.57,61.57,0,0,1,38.51,13.35l22.31-28.26a97.22,97.22,0,0,0-60.82-21.09,98.23,98.23,0,0,0,0,196.46,97.22,97.22,0,0,0,60.82-21.09l-22.31-28.26a61.57,61.57,0,0,1-38.51,13.35,62.23,62.23,0,0,1,0-124.46Z"/></svg>