<svg id="export" xmlns="http://www.w3.org/2000/svg" viewBox="0 0 512 512"><defs><style>.cls-1{opacity:0.25;}.cls-2{fill:currentColor;}</style></defs><title>fiber-dvr#dvr</title><g class="cls-1"><rect class="cls-2" x="16" y="16" width="480" height="480" rx="32"/></g><path class="cls-2" d="M140.9,120H53V377h87.9A33.1,33.1,0,0,0,174,343.9V153.1A33.1,33.1,0,0,0,140.9,120ZM135,337H92V158h43Z"/><path class="cls-2" d="M459,234.2V152.1A33.1,33.1,0,0,0,425.9,119H338V377h39V267h15l21,52.4V377h39V312l-18.83-45.73C448,262.72,459,249.69,459,234.2Zm-82-12.92V159h43v70H377Z"/><polygon class="cls-2" points="284 164.87 256 322.23 228 164.87 228 119 189 119 189 168.42 226.12 377 285.88 377 323 168.42 323 119 284 119 284 164.87"/></svg>