<svg id="export" xmlns="http://www.w3.org/2000/svg" viewBox="0 0 512 512"><defs><style>.cls-1,.cls-2{fill:currentColor;}.cls-2{opacity:0.25;}</style></defs><title>library-add</title><path class="cls-1" d="M64,168H24V472a16,16,0,0,0,16,16H344V448H64Z"/><path class="cls-1" d="M136,96H96V400a16,16,0,0,0,16,16H416V376H136Z"/><path class="cls-2" d="M472,24H184a16,16,0,0,0-16,16V328a16,16,0,0,0,16,16H472a16,16,0,0,0,16-15.27c0-.25,0-.48,0-.73V40A16,16,0,0,0,472,24Z"/><polygon class="cls-1" points="308 272 356 272 356 204 424 204 424 156 356 156 356 88 308 88 308 156 240 156 240 204 308 204 308 272"/></svg>