<svg id="export" xmlns="http://www.w3.org/2000/svg" viewBox="0 0 512 512"><defs><style>.cls-1,.cls-2{fill:currentColor;}.cls-1{opacity:0.25;}</style></defs><title>movie-alt</title><path class="cls-1" d="M440,16H72A56.06,56.06,0,0,0,16,72V456a16,16,0,0,0,16,16H480a16,16,0,0,0,16-16V72A56.06,56.06,0,0,0,440,16Z"/><polygon class="cls-2" points="292.04 136 268.04 64 211.97 64 235.97 136 292.04 136"/><polygon class="cls-2" points="398.7 136 374.7 64 318.63 64 342.63 136 398.7 136"/><polygon class="cls-2" points="185.37 136 161.37 64 105.3 64 129.3 136 185.37 136"/></svg>