<svg id="export" xmlns="http://www.w3.org/2000/svg" viewBox="0 0 512 512"><defs><style>.cls-1,.cls-2{fill:currentColor;}.cls-1{opacity:0.25;}</style></defs><title>music-video</title><rect class="cls-1" x="16" y="64" width="480" height="384" rx="16"/><path class="cls-2" d="M237,340.79c0-23.86-20.89-43.21-46.66-43.21A50.26,50.26,0,0,0,180,298.66V228.18l108-22v91a41.13,41.13,0,0,0-.32,5c0,23.86,20.89,43.21,46.67,43.21S381,326,381,302.16,360.12,259,334.35,259A50.26,50.26,0,0,0,324,260V135.79l-180,35.8V335.8a41.13,41.13,0,0,0-.32,5c0,23.86,20.89,43.21,46.67,43.21S237,364.65,237,340.79Z"/></svg>