<svg id="export" xmlns="http://www.w3.org/2000/svg" viewBox="0 0 512 512"><defs><style>.cls-1,.cls-2{fill:currentColor;}.cls-1{opacity:0.25;}.cls-3{fill:#fff;}</style></defs><title>queue-play-next</title><path class="cls-1" d="M344,24H40A16,16,0,0,0,24,40V344H64V64H344Z"/><path class="cls-1" d="M416,111.24V96H112a16,16,0,0,0-16,16V416h40V136H416Z"/><path class="cls-2" d="M472,168H184a16,16,0,0,0-16,16V472a16,16,0,0,0,16,16H472a16,16,0,0,0,16-16V184c0-.25,0-.48,0-.73A16,16,0,0,0,472,168Z"/><polygon class="cls-3" points="400 328 288 248 280 248 280 408 288 408 400 328"/></svg>