<svg id="export" xmlns="http://www.w3.org/2000/svg" viewBox="0 0 512 512"><defs><style>.cls-1,.cls-2{fill:currentColor;}.cls-2{opacity:0.25;}</style></defs><title>speaker-group</title><path class="cls-1" d="M468,128H368V280a56,56,0,0,1,0,112V496H468a12,12,0,0,0,12-12V140A12,12,0,0,0,468,128Z"/><path class="cls-2" d="M318.22,16H33.78C24,16,16,23.68,16,33.14V478.86C16,488.32,24,496,33.78,496H318.22C328,496,336,488.32,336,478.86V33.14C336,23.68,328,16,318.22,16Z"/><circle class="cls-1" cx="176" cy="136" r="56"/><circle class="cls-1" cx="176" cy="336" r="96"/></svg>