<svg id="export" xmlns="http://www.w3.org/2000/svg" viewBox="0 0 512 512"><defs><style>.cls-1,.cls-2{fill:currentColor;}.cls-1{opacity:0.25;}</style></defs><title>tv-dvr</title><path class="cls-1" d="M480,88H32a16,16,0,0,0-16,16V392a16,16,0,0,0,16,16H480a16,16,0,0,0,16-16V104A16,16,0,0,0,480,88Z"/><rect class="cls-1" x="160" y="432" width="192" height="64"/><rect class="cls-2" x="160" y="432" width="192" height="64"/><rect class="cls-2" x="104" y="176" width="48" height="48"/><rect class="cls-2" x="104" y="272" width="48" height="48"/><rect class="cls-2" x="192" y="176" width="216" height="48"/><rect class="cls-2" x="192" y="272" width="216" height="48"/><polygon class="cls-2" points="386.44 16 318.56 16 256.25 78.31 193.94 16 126.06 16 198.06 88 314.44 88 386.44 16"/></svg>