<svg id="export" xmlns="http://www.w3.org/2000/svg" viewBox="0 0 512 512">
  <defs>
    <style>
      .cls-1 {
        fill: currentColor;
      }
    </style>
  </defs>
  <title>calendar-times</title>
  <g>
    <polygon class="cls-1" points="306.912 214.461 256 265.373 205.088 214.461 182.461 237.088 233.373 288 182.461 338.912 205.088 361.539 256 310.627 306.912 361.539 329.539 338.912 278.627 288 329.539 237.088 306.912 214.461"/>
    <path class="cls-1" d="M472,96H384V40H352V96H160V40H128V96H40a24.0275,24.0275,0,0,0-24,24V456a24.0275,24.0275,0,0,0,24,24H472a24.0275,24.0275,0,0,0,24-24V120A24.0275,24.0275,0,0,0,472,96Zm-8,352H48V128h80v40h32V128H352v40h32V128h80Z"/>
  </g>
</svg>
