<svg id="export" xmlns="http://www.w3.org/2000/svg" viewBox="0 0 512 512">
  <defs>
    <style>
      .cls-1 {
        fill: currentColor;
      }
    </style>
  </defs>
  <title>calendar-plus</title>
  <g>
    <polygon class="cls-1" points="272 200 240 200 240 272 168 272 168 304 240 304 240 376 272 376 272 304 344 304 344 272 272 272 272 200"/>
    <path class="cls-1" d="M472,96H384V40H352V96H160V40H128V96H40a24.0275,24.0275,0,0,0-24,24V456a24.0275,24.0275,0,0,0,24,24H472a24.0275,24.0275,0,0,0,24-24V120A24.0275,24.0275,0,0,0,472,96Zm-8,352H48V128h80v40h32V128H352v40h32V128h80Z"/>
  </g>
</svg>
