<svg id="export" xmlns="http://www.w3.org/2000/svg" viewBox="0 0 512 512">
  <defs>
    <style>
      .cls-1 {
        fill: currentColor;
      }
    </style>
  </defs>
  <title>compass-calibration</title>
  <g>
    <path class="cls-1" d="M301.42,210.229,182.332,150.5845a24,24,0,0,0-32.2148,32.1884l59.5683,119.19,119.0508,59.4248a24,24,0,0,0,32.1826-32.21Zm-67.8847,67.8731-44.0547-88.1485,88.0859,44.1172,44.0059,87.9751Z"/>
    <path class="cls-1" d="M256,88l60,80,19.83-22.0333A135.9012,135.9012,0,0,1,392,256h32C424,163.3643,348.6357,88,256,88Z"/>
    <path class="cls-1" d="M176.17,366.0333A135.9012,135.9012,0,0,1,120,256H88c0,92.6357,75.3643,168,168,168l-60-80Z"/>
    <path class="cls-1" d="M256,16C123.4517,16,16,123.4517,16,256S123.4517,496,256,496,496,388.5483,496,256,388.5483,16,256,16Zm0,448C141.1248,464,48,370.8752,48,256S141.1248,48,256,48s208,93.1248,208,208S370.8752,464,256,464Z"/>
  </g>
</svg>
