<svg id="export" xmlns="http://www.w3.org/2000/svg" viewBox="0 0 512 512">
  <defs>
    <style>
      .cls-1 {
        fill: currentColor;
      }
    </style>
  </defs>
  <title>directions</title>
  <g>
    <path class="cls-1" d="M488.9707,240.0688,274.0107,25.1094a23.9989,23.9989,0,0,0-33.9414-.0005L25.1084,240.0693a24.0274,24.0274,0,0,0,0,33.941L240.0684,488.97a23.9989,23.9989,0,0,0,33.9414,0L488.9707,274.01v0A24.0274,24.0274,0,0,0,488.9707,240.0688ZM257.0391,460.686,53.3926,257.04,257.0391,53.3931,460.6865,257.04Z"/>
    <polygon class="cls-1" points="168 224 168 320 200 320 200 256 313.373 256 268.687 300.687 291.313 323.313 374.627 240 291.313 156.687 268.687 179.313 313.373 224 168 224"/>
  </g>
</svg>
