<svg id="export" xmlns="http://www.w3.org/2000/svg" viewBox="0 0 512 512">
  <defs>
    <style>
      .cls-1 {
        fill: currentColor;
      }
    </style>
  </defs>
  <title>globe-lock</title>
  <g>
    <path class="cls-1" d="M468.5,104.998V80.249A56.313,56.313,0,0,0,412.251,24H408.25A56.3131,56.3131,0,0,0,352,80.249v24.749H328v58.8731a84,84,0,0,0,168,0V104.998ZM384,80.249A24.2767,24.2767,0,0,1,408.25,56h4.0015A24.2763,24.2763,0,0,1,436.5,80.249v24.749H384Zm80,83.6221a52,52,0,1,1-104,0V136.998H464Z"/>
    <path class="cls-1" d="M463.2114,273.9905c-7.2442,84.5327-65.0384,154.6238-143.0191,179.9053a199.9759,199.9759,0,0,0,18.3912-34.0433c16.6567-38.7783,26.7358-88.5117,28.9474-141.9155L320.3715,240H176.2344c1.5519-51.6968,10.8518-99.5962,26.5844-136.2236C218.0444,68.33,237.4282,48,256,48a207.8388,207.8388,0,0,1,63.8032,9.9783L333.5,28.821A239.61,239.61,0,0,0,256,16C123.4517,16,16,123.4517,16,256S123.4517,496,256,496,496,388.5483,496,256c0-3.073-.0782-6.1272-.1941-9.1716ZM335.7353,272c-1.6412,51.3145-10.923,98.8323-26.5541,135.2236C293.9556,442.67,274.5718,463,256,463s-37.9556-20.33-53.1812-55.7764C187.1877,370.8323,177.9059,323.3145,176.2647,272ZM190.9247,58.3975a202.2766,202.2766,0,0,0-17.5082,32.75C156.0406,131.6,145.822,183.9739,144.2266,240h-95.62C55.08,154.896,112.7739,84.12,190.9247,58.3975ZM48.6063,272h95.6468c1.6879,55.65,11.8908,107.64,29.1634,147.8525a200.0035,200.0035,0,0,0,18.3855,34.035C113.2062,428.407,55.1044,357.4219,48.6063,272Z"/>
  </g>
</svg>
