<svg id="export" xmlns="http://www.w3.org/2000/svg" viewBox="0 0 512 512">
  <defs>
    <style>
      .cls-1 {
        fill: currentColor;
      }
    </style>
  </defs>
  <title>language</title>
  <g>
    <path class="cls-1" d="M320,192V24H16V328H192V496H496V192ZM48,296V56H288V192H221.332L187.6953,96H148.3047L98.0933,239.3043h33.9072L140.166,216H192v80ZM184.6216,184H151.3784L168,136.562ZM464,464H224V224H464Z"/>
    <path class="cls-1" d="M317.4316,368.4805a136.8983,136.8983,0,0,0,10.09,14.1142Q310.1163,391.9786,288,392v32c24.1406,0,45.71-6.4082,64-18.8242C370.29,417.5918,391.8594,424,416,424V392q-22.0752,0-39.5195-9.4072a136.868,136.868,0,0,0,10.0879-14.1123A166.25,166.25,0,0,0,406.6624,320H424V288H368V264H336v24H280v32h17.3376A166.25,166.25,0,0,0,317.4316,368.4805ZM373.53,320A132.9751,132.9751,0,0,1,359.4316,351.52a104.2633,104.2633,0,0,1-7.4306,10.4483,103.59,103.59,0,0,1-6.93-9.65A132.3761,132.3761,0,0,1,330.4658,320Z"/>
  </g>
</svg>
