<svg id="export" xmlns="http://www.w3.org/2000/svg" viewBox="0 0 512 512">
  <defs>
    <style>
      .cls-1 {
        fill: currentColor;
      }
    </style>
  </defs>
  <title>location-pin</title>
  <g>
    <path class="cls-1" d="M253.9243,127.5918a64,64,0,1,0,64,64A64.0724,64.0724,0,0,0,253.9243,127.5918Zm0,96a32,32,0,1,1,32-32A32.0364,32.0364,0,0,1,253.9243,223.5918Z"/>
    <path class="cls-1" d="M426.9063,173.4375a173.9217,173.9217,0,1,0-318.711,112.9883L229.1069,472.0391a29.6185,29.6185,0,0,0,49.6348,0L399.6533,286.4258A174.45,174.45,0,0,0,426.9063,173.4375ZM372.8408,268.959l-118.916,182.55-118.917-182.55c-36.4-55.8789-28.5928-130.6621,18.5635-177.8174a141.92,141.92,0,0,1,200.7075,0C401.4346,138.2979,409.2412,213.08,372.8408,268.959Z"/>
  </g>
</svg>
