<svg id="export" xmlns="http://www.w3.org/2000/svg" viewBox="0 0 512 512">
  <defs>
    <style>
      .cls-1 {
        fill: currentColor;
      }
    </style>
  </defs>
  <title>map</title>
  <path class="cls-1" d="M478.4648,89.0225,329.6006,47.3818,180.2969,89.4385,41.459,50.0518h-.001A20.0011,20.0011,0,0,0,16,69.293V409.8877a24.0917,24.0917,0,0,0,17.4492,23.0889l146.8164,41.65,149.3653-42.0743,140.9834,39.4366A20.001,20.001,0,0,0,496,452.7275V112.1348A24.0791,24.0791,0,0,0,478.4648,89.0225ZM163,436.4661,48,403.8418V85.17l115,32.6244Zm150.6152-32.6469L195,437.2314V118.542L313.6152,85.13ZM464,436.91,345.6152,403.7959V85.0894L464,118.2041Z"/>
</svg>
