<svg id="export" xmlns="http://www.w3.org/2000/svg" viewBox="0 0 512 512">
  <defs>
    <style>
      .cls-1 {
        fill: currentColor;
      }
    </style>
  </defs>
  <title>drink</title>
  <path class="cls-1" d="M273.6367,128l3.81,32h96.43l-7.9971,64H252.5728l-7.4419-64h.09l-3.81-32h-.001l-.0454-.3893-9.04-77.7444L230.2471,32H104V64h97.7529l7.4419,64H117.876l40.4961,323.9692A32.05,32.05,0,0,0,190.125,480h147.75a32.05,32.05,0,0,0,31.7529-28.0312L410.124,128ZM154.124,160h58.7918l7.4419,64H162.124ZM337.8887,448l-.0137,0H190.124l-24-192h57.9546L238.032,376h32.2151L256.2935,256H361.88Z"/>
</svg>
