<svg id="export" xmlns="http://www.w3.org/2000/svg" viewBox="0 0 512 512">
  <defs>
    <style>
      .cls-1 {
        fill: currentColor;
      }
    </style>
  </defs>
  <title>lemon</title>
  <g>
    <path class="cls-1" d="M466.2783,47.9473a85.8829,85.8829,0,0,0-115.124-5.72,196.6741,196.6741,0,0,0-65.6426-11.1758A251.2631,251.2631,0,0,0,34.248,282.3159,196.638,196.638,0,0,0,45.4238,347.96,85.8717,85.8717,0,0,0,166.2656,468.8022,196.6648,196.6648,0,0,0,231.91,479.9785,251.2646,251.2646,0,0,0,483.1738,228.7139a196.6414,196.6414,0,0,0-11.1777-65.649A85.9827,85.9827,0,0,0,466.2783,47.9473ZM438.7031,165.563a164.6876,164.6876,0,0,1,12.4707,63.1514c0,120.9023-98.3613,219.2636-219.2636,219.2636a164.6918,164.6918,0,0,1-63.1514-12.4712l-10.33-4.2631-7.5586,8.23c-.3037.3306-.6074.6607-.9277.981a53.8615,53.8615,0,0,1-76.1719-76.1714c.32-.32.65-.625.9815-.9292l8.2294-7.5586-4.2626-10.3291a164.7185,164.7185,0,0,1-12.4717-63.1514C66.248,161.4131,164.6094,63.0518,285.5117,63.0518a164.692,164.692,0,0,1,63.15,12.4707l10.3242,4.2607,7.56-8.2222c.3-.3261.6-.6528.9336-.9863a53.8617,53.8617,0,0,1,76.1719,76.1719c-.3243.3237-.6592.6318-.9932.9389l-8.2139,7.5591Z"/>
    <path class="cls-1" d="M120.32,226.7432l28.4707,14.61A218.8943,218.8943,0,0,1,269.44,135.0469L258.56,104.9531A250.7953,250.7953,0,0,0,120.32,226.7432Z"/>
  </g>
</svg>
