<svg id="export" xmlns="http://www.w3.org/2000/svg" viewBox="0 0 512 512">
  <defs>
    <style>
      .cls-1 {
        fill: currentColor;
      }
    </style>
  </defs>
  <title>mug-tea</title>
  <g>
    <path class="cls-1" d="M436.5742,120H352V64H32V408a64.0724,64.0724,0,0,0,64,64H288a64.0724,64.0724,0,0,0,64-64v-8h84.5742A59.493,59.493,0,0,0,496,340.5742V179.4258A59.493,59.493,0,0,0,436.5742,120ZM161.3726,238.8936,192,269.5215v57.3721H128V269.5215l30.6274-30.6279ZM464,340.5742A27.4566,27.4566,0,0,1,436.5742,368H320v40a32.0364,32.0364,0,0,1-32,32H96a32.0364,32.0364,0,0,1-32-32V96h80V208.2661l-48,48v102.628H224V256.2656l-48-48V96H320v56H436.5742A27.4566,27.4566,0,0,1,464,179.4258Z"/>
    <path class="cls-1" d="M416,180H320V340h96a20.0226,20.0226,0,0,0,20-20V200A20.0226,20.0226,0,0,0,416,180ZM404,308H352V212h52Z"/>
  </g>
</svg>
