<svg id="export" xmlns="http://www.w3.org/2000/svg" viewBox="0 0 512 512">
  <defs>
    <style>
      .cls-1 {
        fill: currentColor;
      }
    </style>
  </defs>
  <title>pizza</title>
  <g>
    <path class="cls-1" d="M468.2852,106.1025C394.8818,57.1523,325.51,32.9219,256.2061,32.0273,186.0264,31.1592,116.8,52.7207,44.54,98.0547a31.8433,31.8433,0,0,0-10.5722,43.3027L228.5537,472.874a31.7246,31.7246,0,0,0,27.4434,15.8018h.16a31.721,31.721,0,0,0,27.4336-15.5371L477.96,149.1914A31.9611,31.9611,0,0,0,468.2852,106.1025Zm-17.7647,26.6241L256.1514,456.6758,61.5469,125.1621c65.5615-41.1338,127.9072-61.1611,190.46-61.1611q1.8927,0,3.7871.0244c62.9336.8115,126.6329,23.2842,194.7374,68.7Z"/>
    <path class="cls-1" d="M223.5762,231.4866a27.7308,27.7308,0,1,0-22.5074,32.1157A27.7309,27.7309,0,0,0,223.5762,231.4866Z"/>
    <circle class="cls-1" cx="307.7354" cy="283.7617" r="27.7308" transform="translate(-110.5911 268.7701) rotate(-40.6266)"/>
    <rect class="cls-1" x="231.9995" y="316.7854" width="32.001" height="62.482" transform="translate(-178.127 315.7442) rotate(-50.1944)"/>
    <rect class="cls-1" x="253.824" y="180.0261" width="68.352" height="32.0005" transform="translate(-50.4923 113.6047) rotate(-20.556)"/>
    <path class="cls-1" d="M120.5029,181.58c33.2881-20.8848,84.5459-45.5713,140.8184-45.5713q1.2335,0,2.4726.0166c46.876.6045,89.878,15.0029,135.3291,45.3125l17.754-26.6231c-50.8252-33.8925-99.337-49.999-152.6709-50.6875-65.0547-.8056-123.2911,26.9688-160.709,50.4454Z"/>
  </g>
</svg>
