<svg id="export" xmlns="http://www.w3.org/2000/svg" viewBox="0 0 512 512">
  <defs>
    <style>
      .cls-1 {
        fill: currentColor;
      }
    </style>
  </defs>
  <title>restaurant-menu</title>
  <g>
    <polygon class="cls-1" points="103.578 420.746 126.324 443.254 246.313 321.99 223.686 299.362 103.578 420.746"/>
    <path class="cls-1" d="M358.1582,265.5977q3.4672,0,6.9648-.2764c25.4649-2.0176,49.6436-14.6973,69.9209-36.669,20.0254-21.6982,34.0381-50.2988,38.4444-78.4687,4.9668-31.7549-2.5537-58.708-21.1758-75.8945s-46.0908-22.5245-77.3467-15.03c-27.7265,6.6475-55.1133,22.9053-75.1387,44.6035-20.2773,21.9727-30.98,47.0889-30.9521,72.6338a87.2006,87.2006,0,0,0,20.6787,56.2988l-20.4038,20.62L74.9209,59.1865,63.8926,74.2256A138.6485,138.6485,0,0,0,77.66,254.2578l76.5214,76.5215L227.7207,257.24l18.9219,18.9217-.4492.4536,22.6279,22.6274.4487-.4533L415.6377,445.1572,438.2646,422.53,291.7773,276.043l22.272-22.5088A86.8532,86.8532,0,0,0,358.1582,265.5977ZM154.1816,285.5244l-53.8945-53.8935A105.986,105.986,0,0,1,79.8447,109.3652L205.0938,234.6133Zm169.1612-159.959c15.834-17.1562,37.3681-29.9824,59.084-35.1894,20.249-4.8526,37.8076-2.1465,48.1826,7.4287s14.48,26.8642,11.2636,47.4336c-3.4511,22.0625-14.5117,44.5547-30.3447,61.7109-28.5947,30.9834-65.5263,35.4492-91.8984,11.1094S294.749,156.5488,323.3428,125.5654Z"/>
  </g>
</svg>
