<svg id="export" xmlns="http://www.w3.org/2000/svg" viewBox="0 0 512 512">
  <defs>
    <style>
      .cls-1 {
        fill: currentColor;
      }
    </style>
  </defs>
  <title>alarm-off</title>
  <g>
    <path class="cls-1" d="M430.81,400.7505,45.9746,16H16V45.4219L53.8076,83.2294,18.16,108.3926,45.84,147.6074,88.25,117.6714l21.9767,21.9766A207.3548,207.3548,0,0,0,48,288c0,114.8752,93.1248,208,208,208a207.3553,207.3553,0,0,0,148.3521-62.2264L466.5786,496H496V465.9409Z"/>
    <path class="cls-1" d="M316.5676,235.5969h0L448.3156,367.3447A207.3577,207.3577,0,0,0,464,288c0-114.8752-93.1248-208-208-208a207.3577,207.3577,0,0,0-79.3447,15.6844Z"/>
    <polygon class="cls-1" points="181.84 51.607 154.16 12.393 118.521 37.55 152.963 71.992 181.84 51.607"/>
    <rect class="cls-1" x="387.9999" y="-3.2346" width="48.0002" height="166.4692" transform="translate(109.0491 370.4561) rotate(-54.7824)"/>
  </g>
</svg>
