<svg id="export" xmlns="http://www.w3.org/2000/svg" viewBox="0 0 512 512">
  <defs>
    <style>
      .cls-1 {
        fill: currentColor;
      }
    </style>
  </defs>
  <title>bell-slash</title>
  <g>
    <path class="cls-1" d="M316.5679,235.5969,437.2888,356.318a7.9237,7.9237,0,0,0,.314-8.1283L392,264V176A136,136,0,0,0,256,40h0a135.56,135.56,0,0,0-95.6753,39.3538l156.243,156.2431Z"/>
    <path class="cls-1" d="M256,464a72,72,0,0,0,72-72H184A72,72,0,0,0,256,464Z"/>
    <path class="cls-1" d="M390.0592,360,45.9756,16H16V45.4219L122.1852,151.6071A136.7842,136.7842,0,0,0,120,176v88L74.3972,348.19A8,8,0,0,0,81.4316,360H330.5781l136,136H496V465.9409Z"/>
  </g>
</svg>
