<svg id="export" xmlns="http://www.w3.org/2000/svg" viewBox="0 0 512 512">
  <defs>
    <style>
      .cls-1 {
        fill: currentColor;
      }
    </style>
  </defs>
  <title>lemon</title>
  <path class="cls-1" d="M454.9645,158.06a69.8615,69.8615,0,0,0,0-98.7991h0a69.8613,69.8613,0,0,0-98.7989,0h0c-.4813.4813-.9423.9751-1.3989,1.4714a181.1012,181.1012,0,0,0-69.2548-13.6806l-.0005-.0005c-129.9326,0-235.2638,105.3315-235.2639,235.2641l0,0a181.1,181.1,0,0,0,13.6809,69.2547c-.4964.4565-.99.9174-1.4715,1.3989h0a69.8615,69.8615,0,0,0,0,98.7991h0a69.8617,69.8617,0,0,0,98.7989,0h0c.4813-.4815.9422-.9754,1.3988-1.4717A181.1,181.1,0,0,0,231.91,463.9778l0,0c129.9328,0,235.2638-105.3316,235.2641-235.2642l0,0a181.0988,181.0988,0,0,0-13.6808-69.2546c.4964-.4566.99-.9177,1.4715-1.3989ZM153.2393,243.6367l-37.3672-19.1758A255.7833,255.7833,0,0,1,256.86,100.251l14.28,39.498A213.9081,213.9081,0,0,0,153.2393,243.6367Z"/>
</svg>
