<svg id="export" xmlns="http://www.w3.org/2000/svg" viewBox="0 0 512 512">
  <defs>
    <style>
      .cls-1 {
        fill: currentColor;
      }
    </style>
  </defs>
  <title>pizza</title>
  <path class="cls-1" d="M471.06,101.9424c-74.2325-49.502-144.49-74.0069-214.7881-74.9141C254.834,27.01,253.4043,27,251.9668,27c-69.6846,0-138.4609,21.8838-210.084,66.8193a36.8176,36.8176,0,0,0-12.2265,50.0684L224.2412,475.4053a36.681,36.681,0,0,0,31.7315,18.27h.1855a36.6762,36.6762,0,0,0,31.72-17.9639L482.2471,151.7637A36.9556,36.9556,0,0,0,471.06,101.9424ZM168.9531,241.0947a27.7308,27.7308,0,1,1,32.1157,22.5076A27.7307,27.7307,0,0,1,168.9531,241.0947Zm91.5235,140.76-48-40,23.0468-27.6563,48,40ZM249.68,191.1729l64-24L326.32,200.88l-64,24Zm62.86,119.9a27.7308,27.7308,0,1,1,22.5073-32.1157A27.7312,27.7312,0,0,1,312.54,311.0732ZM414.0137,174.9756C363.6943,141.42,316.09,125.48,264.2,124.8086c-.9131-.0117-1.8272-.0176-2.7373-.0176-62.291,0-119.04,27.333-155.8965,50.457L86.4336,144.7529C127.3135,119.1045,190.6328,88.791,261.47,88.791c1.0674,0,2.126.0069,3.1953.0215,59.1543.7637,112.9571,18.625,169.3213,56.2119Z"/>
</svg>
