<svg id="export" xmlns="http://www.w3.org/2000/svg" viewBox="0 0 512 512">
  <defs>
    <style>
      .cls-1 {
        fill: currentColor;
      }
    </style>
  </defs>
  <title>compass</title>
  <path class="cls-1" d="M494.9263,233C484.1,119.1468,393.7456,28.4824,280.0283,17.1912V88h-48V17.1913C118.3115,28.4828,27.958,119.1472,17.1313,233H88v48H17.3206C29.0073,393.905,118.9624,483.5686,232,494.8062V424h48v70.8113C393.0645,483.5984,483.0483,393.9241,494.7368,281H423.9717V233ZM335.9111,347.0713,221.6392,290.0322,164.458,175.62a8,8,0,0,1,10.7388-10.7295L289.5215,222.15l57.1172,114.1845A8,8,0,0,1,335.9111,347.0713Z"/>
</svg>
