<svg id="export" xmlns="http://www.w3.org/2000/svg" viewBox="0 0 512 512">
  <defs>
    <style>
      .cls-1 {
        fill: currentColor;
      }
    </style>
  </defs>
  <title>compass-slash</title>
  <g>
    <path class="cls-1" d="M440.0234,410.0485l.0247-.029L326.9263,296.9514l-26.6714-26.6587L242.2144,212.28,101.8936,72.0255,45.8414,16H16V45.4219l56.23,56.23A238.9141,238.9141,0,0,0,17.1025,233H88.0576v48H17.2917C28.9805,393.9241,118.9642,483.5984,232.0288,494.8113V424h48v70.8062a238.92,238.92,0,0,0,130.32-55.0362l56.23,56.23H496V466.0249ZM176.1179,347.0713A8,8,0,0,1,165.39,336.3345L212.5781,242l57.9475,57.9475Z"/>
    <path class="cls-1" d="M336.8322,164.8908A8,8,0,0,1,347.5708,175.62L317.2529,236.282,461.3157,380.345A238.4975,238.4975,0,0,0,494.7083,281h-70.68V233h70.8687C484.0706,119.147,393.717,28.4825,280,17.1912V88H232V17.1912A238.51,238.51,0,0,0,131.5554,50.7431L276.1963,195.26Z"/>
  </g>
</svg>
