<svg id="export" xmlns="http://www.w3.org/2000/svg" viewBox="0 0 512 512">
  <defs>
    <style>
      .cls-1 {
        fill: currentColor;
      }
    </style>
  </defs>
  <title>globe-alt</title>
  <path class="cls-1" d="M400.1008,64.0667A239.9935,239.9935,0,0,0,16,256c0,110.3828,74.5251,203.3464,176,231.3562A240.0308,240.0308,0,0,0,400.1008,64.0667ZM252,416l-30.9014,28.8413a192.1845,192.1845,0,0,1-133.8-280.6731L136,208v64l68,72h48Zm179.9009-82.7987L392,280H224V216l32-24,80,16,24-24-16-40,30.4429-39.1406a195.1462,195.1462,0,0,1,17.3217,15.3761,192.3868,192.3868,0,0,1,40.1363,212.9658Z"/>
</svg>
