<svg id="export" xmlns="http://www.w3.org/2000/svg" viewBox="0 0 512 512">
  <defs>
    <style>
      .cls-1 {
        fill: currentColor;
      }
    </style>
  </defs>
  <title>language</title>
  <polygon class="cls-1" points="172 264 172 231.304 172 208 172 202 139.171 202 128.914 231.304 90.773 231.304 147.229 70 188.771 70 224.47 172 304 172 304 32 32 32 32 304 172 304 172 264"/>
  <polygon class="cls-1" points="184.229 166 168 119.631 151.771 166 184.229 166"/>
  <path class="cls-1" d="M480,208H208V480H480ZM424,322H400.2344a168.4586,168.4586,0,0,1-19.97,47.54,140.5218,140.5218,0,0,1-8.6387,12.33C381.6924,386.8838,393.6987,390,408,390v36c-24.0742,0-45.6343-6.2617-64-18.4023C325.6343,419.7383,304.0742,426,280,426V390q20.1936,0,36.4214-8.07a140.5833,140.5833,0,0,1-8.6856-12.39A164.6272,164.6272,0,0,1,291.9115,336c-1.9149-5.577-3.2531-10.3862-4.1459-14H264V286h62V248h36v38h62Z"/>
  <path class="cls-1" d="M325.0864,322a132.2782,132.2782,0,0,0,5.3493,14,111.4186,111.4186,0,0,0,13.53,22.7832q3.0176-3.9185,5.77-8.3232A129.7472,129.7472,0,0,0,362.8149,322H325.0864Z"/>
</svg>
