<svg id="export" xmlns="http://www.w3.org/2000/svg" viewBox="0 0 512 512">
  <defs>
    <style>
      .cls-1 {
        fill: currentColor;
      }
    </style>
  </defs>
  <title>location-pin-slash</title>
  <g>
    <path class="cls-1" d="M366.606,336.6123l-37.4546-37.437L45.8413,16H16V45.4219l81.9817,81.9819A171.99,171.99,0,0,0,117.4429,296.551l125.435,179.7815a16.0007,16.0007,0,0,0,26.2442,0L342.1877,371.61,466.5771,496H496V465.9448Z"/>
    <path class="cls-1" d="M256,141.0122A56.0031,56.0031,0,0,1,305.0313,224.07l11.5363,11.5266h0l70.9883,70.9883,7.0009-10.0342a171.8087,171.8087,0,0,0-249.75-232.5681l84.094,84.022A55.7333,55.7333,0,0,1,256,141.0122Z"/>
  </g>
</svg>
