<svg id="export" xmlns="http://www.w3.org/2000/svg" viewBox="0 0 512 512">
  <defs>
    <style>
      .cls-1 {
        fill: currentColor;
      }
    </style>
  </defs>
  <title>location-gps-off</title>
  <g>
    <path class="cls-1" d="M400.1855,370.1758,354.4771,324.489l-.0049.0072-25.3208-25.3209-141.6873-141.62-45.7078-45.686L45.8413,16H16V45.4219l96.0767,96.077A183.168,183.168,0,0,0,73.5649,232H16v64H76.3918A184.53,184.53,0,0,0,224,437.2087V496h64V437.2087a183.2677,183.2677,0,0,0,82.5007-37.2854L466.5771,496H496V466.0244l-95.83-95.83ZM256,376a119.9381,119.9381,0,0,1-98.2454-188.8231L324.823,354.2454A119.3283,119.3283,0,0,1,256,376Z"/>
    <path class="cls-1" d="M438.4351,232C428.0178,152.3833,366.5093,88.6161,288,74.7913V16H224V74.7913a182.5549,182.5549,0,0,0-51.2261,17.1351l49.0745,49.0325A120.01,120.01,0,0,1,371.06,290.0889l49.0547,49.0549A182.6232,182.6232,0,0,0,435.6082,296H496V232Z"/>
  </g>
</svg>
