<svg id="export" xmlns="http://www.w3.org/2000/svg" viewBox="0 0 512 512">
  <defs>
    <style>
      .cls-1 {
        fill: currentColor;
      }
    </style>
  </defs>
  <title>beaker</title>
  <path class="cls-1" d="M464.001,350.4688a31.8693,31.8693,0,0,0-5.65-18.146L352,181.8525V152h32a32.0361,32.0361,0,0,0,32-32V16H96V120a32.0361,32.0361,0,0,0,32,32h31.9165v30.9219L53.8677,332.0405l-.1616.23A31.8552,31.8552,0,0,0,48,350.5088v89.4224a56.0659,56.0659,0,0,0,55.9873,56L408.019,496h.0127a56,56,0,0,0,56-56.019ZM207.9165,198.25V104H144V64H368v40H304v93.1035L367.54,287H144.8Z"/>
</svg>
