<svg id="export" xmlns="http://www.w3.org/2000/svg" viewBox="0 0 512 512">
  <defs>
    <style>
      .cls-1 {
        fill: currentColor;
      }
    </style>
  </defs>
  <title>devices-other</title>
  <path class="cls-1" d="M304,392V216a48.0543,48.0543,0,0,1,48-48h88V125.0948c0-8.7588-6.3276-15.8593-14.1333-15.8593H30.1333c-7.8057,0-14.1333,7.1-14.1333,15.8593V424.1407C16,432.9,22.3276,440,30.1333,440H151.2l-5.1258-51.2582a83.9185,83.9185,0,0,1,0-145.4836L152,184h72l5.9258,59.2582a83.9185,83.9185,0,0,1,0,145.4836L224.8,440H304V392Z"/>
  <path class="cls-1" d="M352,200a16,16,0,0,0-16,16V424a16,16,0,0,0,16,16H464a16,16,0,0,0,16-16V216a16,16,0,0,0-16-16H352Z"/>
  <circle class="cls-1" cx="188" cy="316" r="52"/>
</svg>
