<svg id="export" xmlns="http://www.w3.org/2000/svg" viewBox="0 0 512 512">
  <defs>
    <style>
      .cls-1 {
        fill: currentColor;
      }
    </style>
  </defs>
  <title>devices-slash</title>
  <path class="cls-1" d="M316.5679,235.5969l7.9975,7.9978A48.0564,48.0564,0,0,1,368,216h56V96a16,16,0,0,0-16-16H160.7646L316.5674,235.5969Z"/>
  <path class="cls-1" d="M496,415.0292V264a16,16,0,0,0-16-16H368a16,16,0,0,0-16,16v7.0291Z"/>
  <path class="cls-1" d="M352,381.4222V456a16,16,0,0,0,16,16h74.5776l24,24H496V466.4568L45.709,16H16V45.4219L50.5781,80H32A16,16,0,0,0,16,96V368a16,16,0,0,0,16,16H207v40.1224l-55,6.7347V472H304V430.8571l-55-6.7347V384h71V349.4222Z"/>
</svg>
