<svg id="export" xmlns="http://www.w3.org/2000/svg" viewBox="0 0 512 512">
  <defs>
    <style>
      .cls-1 {
        fill: currentColor;
      }
    </style>
  </defs>
  <title>input-component</title>
  <path class="cls-1" d="M160,136a16,16,0,0,0-16-16H120V16H72V120H48a16,16,0,0,0-16,16V238H160Z"/>
  <path class="cls-1" d="M32,376a16,16,0,0,0,16,16H72V496h48V392h24a16,16,0,0,0,16-16V274H32Z"/>
  <path class="cls-1" d="M192,376a16,16,0,0,0,16,16h24V496h48V392h24a16,16,0,0,0,16-16V274H192Z"/>
  <path class="cls-1" d="M320,136a16,16,0,0,0-16-16H280V16H232V120H208a16,16,0,0,0-16,16V238H320Z"/>
  <path class="cls-1" d="M480,136a16,16,0,0,0-16-16H440V16H392V120H368a16,16,0,0,0-16,16V238H480Z"/>
  <path class="cls-1" d="M440,496V392h24a16,16,0,0,0,16-16V274H352V376a16,16,0,0,0,16,16h24V496Z"/>
</svg>
