<svg id="export" xmlns="http://www.w3.org/2000/svg" viewBox="0 0 512 512">
  <defs>
    <style>
      .cls-1 {
        fill: currentColor;
      }
    </style>
  </defs>
  <title>keyboard-hide</title>
  <polygon class="cls-1" points="176.305 392.234 255.833 471.762 335.362 392.234 176.305 392.234"/>
  <path class="cls-1" d="M39.834,360h432a24.0275,24.0275,0,0,0,24-24V96a24.0275,24.0275,0,0,0-24-24h-432a24.0275,24.0275,0,0,0-24,24V336A24.0275,24.0275,0,0,0,39.834,360ZM167.8335,160h-40V120h40Zm32,36v40h-40V196ZM143.834,274h160v36h-160Zm95.9995-114h-40V120h40Zm36,36v40h-40V196Zm-4-36V120h40v40Zm40,36h40v40h-40Zm24,76h40v40h-40Zm8-112V120h40v40Zm40,36h40v40h-40Zm24,76h40v40h-40Zm8-112V120h40v40Zm-344,112h40v40h-40Zm-16-112V120h40v40Zm32,76V196h40v40Z"/>
</svg>
