<svg id="export" xmlns="http://www.w3.org/2000/svg" viewBox="0 0 512 512">
  <defs>
    <style>
      .cls-1 {
        fill: currentColor;
      }
    </style>
  </defs>
  <title>qr-code</title>
  <g>
    <polygon class="cls-1" points="64 64.466 152 64.466 152 16.466 16 16.466 16 152 64 152 64 64.466"/>
    <polygon class="cls-1" points="64 360 16 360 16 496.466 152 496.466 152 448.466 64 448.466 64 360"/>
    <polygon class="cls-1" points="448.466 360.232 448.466 448.232 360 448.232 360 496.232 496.466 496.232 496.466 360.232 448.466 360.232"/>
    <polygon class="cls-1" points="448 152 496 152 496 16.466 360 16.466 360 64.466 448 64.466 448 152"/>
    <rect class="cls-1" x="104" y="360" width="48" height="48"/>
    <rect class="cls-1" x="104" y="104" width="48" height="48"/>
    <rect class="cls-1" x="360" y="104" width="48" height="48"/>
    <polygon class="cls-1" points="408 408 408 360 240 360 240 272 104 272 104 320 192 320 192 408 408 408"/>
    <polygon class="cls-1" points="272 240 360 240 360 276 280 276 280 324 408 324 408 192 320 192 320 104 192 104 192 152 272 152 272 240"/>
    <rect class="cls-1" x="104" y="192" width="128" height="48"/>
  </g>
</svg>
