<svg id="export" xmlns="http://www.w3.org/2000/svg" viewBox="0 0 512 512">
  <defs>
    <style>
      .cls-1 {
        fill: currentColor;
      }
    </style>
  </defs>
  <title>screen-lock-portrait#screen-lock-vertical</title>
  <path class="cls-1" d="M278.5,202.3145a24.25,24.25,0,0,0-48.5,0v26.4726h48.5Z"/>
  <path class="cls-1" d="M104,16A16,16,0,0,0,88,32V480a16,16,0,0,0,16,16H408a16,16,0,0,0,16-16V32a16,16,0,0,0-16-16ZM340,283.9355a84,84,0,1,1-168,0V230.7871h22V202.3145a60.25,60.25,0,0,1,120.5,0v28.4726H340Z"/>
</svg>
