<svg id="export" xmlns="http://www.w3.org/2000/svg" viewBox="0 0 512 512">
  <defs>
    <style>
      .cls-1 {
        fill: currentColor;
      }
    </style>
  </defs>
  <title>script</title>
  <g>
    <path class="cls-1" d="M393.4287,56a38.0433,38.0433,0,0,0-38-38H124.7911a76.943,76.943,0,0,1,12.0658,41.4287v395.5A39.1149,39.1149,0,0,0,174.25,493.9574,38.0433,38.0433,0,0,0,210.5713,456V393.4287H393.4287Z"/>
    <path class="cls-1" d="M429.4287,429.4287H246.5713V456A73.5428,73.5428,0,0,1,236.05,494H456a38.0433,38.0433,0,0,0,38-38V429.4287Z"/>
    <path class="cls-1" d="M75.6157,21.2955A41.4242,41.4242,0,0,0,18,59.4287V110h82.8569V59.4287A41.4908,41.4908,0,0,0,75.6157,21.2955Z"/>
  </g>
</svg>
