<svg id="export" xmlns="http://www.w3.org/2000/svg" viewBox="0 0 512 512">
  <defs>
    <style>
      .cls-1 {
        fill: currentColor;
      }
    </style>
  </defs>
  <title>tv-dvr</title>
  <path class="cls-1" d="M480,88H319.387l67.4812-72H321.0816L256.02,85.4185,191.23,16H125.57l67.2,72H32a16,16,0,0,0-16,16V408a16,16,0,0,0,16,16H136v72H376V424H480a16,16,0,0,0,16-16V104A16,16,0,0,0,480,88ZM104,168h36v36H104Zm0,80h36v36H104Zm0,76h36v36H104Zm300,36H180V324H404Zm0-76H180V248H404Zm0-80H180V168H404Z"/>
</svg>
