<svg id="export" xmlns="http://www.w3.org/2000/svg" viewBox="0 0 512 512">
  <defs>
    <style>
      .cls-1 {
        fill: currentColor;
      }
    </style>
  </defs>
  <title>blur-linear</title>
  <rect class="cls-1" x="16" y="16" width="480" height="32"/>
  <rect class="cls-1" x="16" y="464" width="480" height="32"/>
  <circle class="cls-1" cx="87.3708" cy="160.0967" r="73.3703" transform="translate(-54.6155 45.6219) rotate(-22.5)"/>
  <path class="cls-1" d="M274.3105,233.4673A61.4673,61.4673,0,1,0,212.8428,172,61.5369,61.5369,0,0,0,274.3105,233.4673Z"/>
  <path class="cls-1" d="M435.5156,233.4673a47.6368,47.6368,0,1,0-47.6367-47.6367A47.691,47.691,0,0,0,435.5156,233.4673Z"/>
  <circle class="cls-1" cx="87.3708" cy="355.9789" r="73.3703" transform="translate(-65.7421 22.9458) rotate(-10.9008)"/>
  <path class="cls-1" d="M274.3105,405.543a61.4676,61.4676,0,1,0-61.4677-61.4673A61.5369,61.5369,0,0,0,274.3105,405.543Z"/>
  <path class="cls-1" d="M435.5156,377.8818a47.637,47.637,0,1,0-47.6367-47.6367A47.691,47.691,0,0,0,435.5156,377.8818Z"/>
</svg>
