<svg id="export" xmlns="http://www.w3.org/2000/svg" viewBox="0 0 512 512">
  <defs>
    <style>
      .cls-1 {
        fill: currentColor;
      }
    </style>
  </defs>
  <title>border-style</title>
  <path class="cls-1" d="M435,16H77A61,61,0,0,0,16,77V435a61,61,0,0,0,61,61H435a61,61,0,0,0,61-61V77A61,61,0,0,0,435,16ZM160,440H128V408h32Zm56,0H184V408h32Zm56,0H240V408h32Zm56,0H296V408h32Zm56,0H352V408h32Zm56,0H408V408h32Zm0-56H408V352h32Zm0-56H408V296h32Zm0-56H408V240h32Zm0-56H408V184h32Zm0-56H408V128h32Zm0-72v16H104V440H72V88A16,16,0,0,1,88,72H440Z"/>
</svg>
