<svg id="export" xmlns="http://www.w3.org/2000/svg" viewBox="0 0 512 512">
  <defs>
    <style>
      .cls-1 {
        fill: currentColor;
      }
    </style>
  </defs>
  <title>border-outer</title>
  <path class="cls-1" d="M240,104H104V408H408V104H240ZM160,272H128V240h32Zm56,0H184V240h32Zm56,112H240V352h32Zm0-56H240V296h32Zm0-56H240V240h32Zm0-56H240V184h32Zm0-56H240V128h32Zm80,80h32v32H352Zm-56,0h32v32H296Z"/>
  <path class="cls-1" d="M435,16H77A61,61,0,0,0,16,77V435a61,61,0,0,0,61,61H435a61,61,0,0,0,61-61V77A61,61,0,0,0,435,16Zm5,408a16,16,0,0,1-16,16H88a16,16,0,0,1-16-16V88A16,16,0,0,1,88,72H424a16,16,0,0,1,16,16Z"/>
</svg>
