<svg id="export" xmlns="http://www.w3.org/2000/svg" viewBox="0 0 512 512">
  <defs>
    <style>
      .cls-1 {
        fill: currentColor;
      }
    </style>
  </defs>
  <title>camera-roll</title>
  <path class="cls-1" d="M328,136V104a32.0367,32.0367,0,0,0-32-32H280V48a32.0367,32.0367,0,0,0-32-32H96A32.0367,32.0367,0,0,0,64,48V72H48a32.0367,32.0367,0,0,0-32,32V464a32.0367,32.0367,0,0,0,32,32H296a32.0367,32.0367,0,0,0,32-32V440H496V136ZM232,376H192V336h40Zm0-136H192V200h40Zm72,136H264V336h40Zm0-136H264V200h40Zm72,136H336V336h40Zm0-136H336V200h40Zm72,136H408V336h40Zm0-136H408V200h40Z"/>
</svg>
