<svg id="export" xmlns="http://www.w3.org/2000/svg" viewBox="0 0 512 512">
  <defs>
    <style>
      .cls-1 {
        fill: currentColor;
      }
    </style>
  </defs>
  <title>contrast</title>
  <path class="cls-1" d="M256,16q-3.107,0-6.1943.0784-6.1758.1565-12.2715.6214a240.1907,240.1907,0,0,0-24.0181,3.0487q-5.91,1.0557-11.7173,2.3972-8.7084,2.01-17.1675,4.6442-5.636,1.7531-11.1513,3.7732-2.7568,1.01-5.482,2.0841-10.8991,4.298-21.2583,9.6087a239.84,239.84,0,0,0-24.9262,14.7323q-4.7879,3.2347-9.4092,6.6913Q103.1634,70.59,94.6294,78.3477a241.5227,241.5227,0,0,0-23.8252,24.99q-3.6679,4.445-7.1245,9.0665-6.9111,9.24-12.9341,19.1471a238.7515,238.7515,0,0,0-23.9556,53.08q-2.6294,8.4546-4.6445,17.1678-1.34,5.8059-2.397,11.7169A240.2644,240.2644,0,0,0,16.7,237.5343q-.4637,6.0943-.6216,12.2712Q16.0005,252.8933,16,256c0,132.5483,107.4517,240,240,240S496,388.5483,496,256,388.5483,16,256,16ZM391.7646,391.7645A190.7433,190.7433,0,0,1,256,448V64A192,192,0,0,1,391.7646,391.7645Z"/>
</svg>
