<svg id="export" xmlns="http://www.w3.org/2000/svg" viewBox="0 0 512 512">
  <defs>
    <style>
      .cls-1 {
        fill: currentColor;
      }
    </style>
  </defs>
  <title>crop-rotate</title>
  <path class="cls-1" d="M368,16H256.3206v.7407A239.2914,239.2914,0,0,0,17.3857,256.0352h32c0-114.1836,92.7971-207.0967,206.9349-207.2942V90.5Z"/>
  <path class="cls-1" d="M255.9872,495.3666c132.3952-.36,239.9952-107.58,239.9952-239.3314h-32c0,114.1062-93.2445,206.9721-207.9952,207.3314V432L144.3079,496H255.9872Z"/>
  <path class="cls-1" d="M208,368H312v40h48V368h40V320H360V222.6279l-48,48V320H217.3721L312,225.3721l48-48,36.686-36.6861-35.3134-35.3134L322.7451,144H192V104H144v40H104v48h40V368ZM192,192h82.7451L192,274.7451Z"/>
</svg>
