<svg id="export" xmlns="http://www.w3.org/2000/svg" viewBox="0 0 512 512">
  <defs>
    <style>
      .cls-1 {
        fill: currentColor;
      }
    </style>
  </defs>
  <title>flip-to-back</title>
  <path class="cls-1" d="M48,496H408V400.3477H112V112H16V464A32.0364,32.0364,0,0,0,48,496Z"/>
  <rect class="cls-1" x="448" y="312" width="48" height="48"/>
  <rect class="cls-1" x="348.8008" y="312" width="49.5996" height="48"/>
  <rect class="cls-1" x="249.6006" y="312" width="49.5996" height="48"/>
  <rect class="cls-1" x="152" y="312" width="48" height="48"/>
  <rect class="cls-1" x="152" y="113.6001" width="48" height="49.5996"/>
  <rect class="cls-1" x="152" y="212.7998" width="48" height="49.6001"/>
  <rect class="cls-1" x="152" y="16" width="48" height="48"/>
  <rect class="cls-1" x="348.7998" y="16" width="49.5996" height="48"/>
  <rect class="cls-1" x="249.5996" y="16" width="49.5996" height="48"/>
  <rect class="cls-1" x="448" y="16" width="48" height="48"/>
  <rect class="cls-1" x="448" y="212.8003" width="48" height="49.5996"/>
  <rect class="cls-1" x="448" y="113.6001" width="48" height="49.6001"/>
</svg>
