<svg id="export" xmlns="http://www.w3.org/2000/svg" viewBox="0 0 512 512">
  <defs>
    <style>
      .cls-1 {
        fill: currentColor;
      }
    </style>
  </defs>
  <title>gif</title>
  <path class="cls-1" d="M480,64H32A16,16,0,0,0,16,80V424a16,16,0,0,0,16,16H480a16,16,0,0,0,16-16V80A16,16,0,0,0,480,64ZM205.1494,384.0215H112c-18.748,0-34-15.5088-34-34.5713V154.5928c0-19.0625,15.252-34.5713,34-34.5713h88v36H114v192h55.1494V270H144V234h61.1494ZM276.957,384h-36V120h36ZM432,156.0215H350V234h58v36H350V384H314V120.0215H432Z"/>
</svg>
