<svg id="export" xmlns="http://www.w3.org/2000/svg" viewBox="0 0 512 512">
  <defs>
    <style>
      .cls-1 {
        fill: currentColor;
      }
    </style>
  </defs>
  <title>hdr-slash</title>
  <path class="cls-1" d="M449.4468,322.8379V384h-36V333.1621L385.22,288H369.4468v96h-36V288H306.2554v54.9375a41.3317,41.3317,0,0,1-41.4825,41.084l-69.184-.001V288H170v96H134V288H90v96H54V288H16V424a16,16,0,0,0,16,16H480a16,16,0,0,0,16-16V288H427.6733Z"/>
  <path class="cls-1" d="M496,80a16,16,0,0,0-16-16H32A16,16,0,0,0,16,80V224H0v32H512V224H496ZM54,224V120H90V224Zm80,0V120h36V224Zm136.2554,0V161.042a5.3,5.3,0,0,0-5.482-5.084l-33.1845-.001V224h-36V119.957l69.185.001a41.3315,41.3315,0,0,1,41.4815,41.084V224Zm143.1914,0V155.957h-44V224h-36V119.957H416.78c18.0122,0,32.6665,15.252,32.6665,34V224Z"/>
  <path class="cls-1" d="M270.2554,342.9375V288H231.5889v60.0205l33.1845.001A5.3,5.3,0,0,0,270.2554,342.9375Z"/>
</svg>
