<svg id="export" xmlns="http://www.w3.org/2000/svg" viewBox="0 0 512 512">
  <defs>
    <style>
      .cls-1 {
        fill: currentColor;
      }
    </style>
  </defs>
  <title>hdr</title>
  <path class="cls-1" d="M264.7734,155.958l-33.1845-.001V348.0205l33.1845.001a5.3,5.3,0,0,0,5.4815-5.084V161.042A5.3,5.3,0,0,0,264.7734,155.958Z"/>
  <polygon class="cls-1" points="369.447 216 369.447 246 413.447 246 413.447 155.957 369.447 155.957 369.447 216"/>
  <path class="cls-1" d="M480,64H32A16,16,0,0,0,16,80V424a16,16,0,0,0,16,16H480a16,16,0,0,0,16-16V80A16,16,0,0,0,480,64ZM170,384H134V269.9893H90V384H54V120H90V233.9893h44V120h36Zm136.2549-41.0625a41.3312,41.3312,0,0,1-41.4815,41.084l-69.1845-.001V119.957l69.1845.001a41.3312,41.3312,0,0,1,41.4815,41.084ZM449.4473,248c0,16.3608-11.1612,30.0565-25.9742,33.28l25.9742,41.5582V384h-36V333.1621L381.4712,282H369.4473V384h-36V119.957H416.78c18.0127,0,32.667,15.252,32.667,34Z"/>
</svg>
