<svg id="export" xmlns="http://www.w3.org/2000/svg" viewBox="0 0 512 512">
  <defs>
    <style>
      .cls-1 {
        fill: currentColor;
      }
    </style>
  </defs>
  <title>healing</title>
  <path class="cls-1" d="M456.125,311.875,400.25,256l19.1886-19.1887,55.7643-55.7644a33.9988,33.9988,0,0,0,0-48.083l-96.167-96.168a34.04,34.04,0,0,0-48.083.001L275.1885,92.5616,256,111.75l-39.8751-39.875L192.36,48.1113a49.9984,49.9984,0,0,0-70.711,0L48.11,121.65l0-.001a50,50,0,0,0,0,70.711L79.8751,224.125,111.75,256,92.5617,275.1887,36.7974,330.9531a33.9988,33.9988,0,0,0-.0005,48.083l96.1665,96.167,0,.001a34.04,34.04,0,0,0,48.083-.001l55.7646-55.7646L256,400.25,319.64,463.8887c.079.0788.1623.1518.2416.23a49.9862,49.9862,0,0,0,70.4694-.23l73.5386-73.5381a50,50,0,0,0,0-70.711Zm-244.64-41.36-18-18,18-18,18,18Zm-74.2795-39.97-63.64-63.6391a14,14,0,0,1-.0005-19.7989l73.54-73.54a14,14,0,0,1,19.7988,0l63.64,63.64Zm119.2794,84.97-18-18,18-18,18,18Zm0-90-18-18,18-18,18,18Zm45,9,18,18-18,18-18-18Zm136.9482,130.38-73.5391,73.5391a14,14,0,0,1-19.7988,0l-63.64-63.64,93.3382-93.3383,63.64,63.6391a14.0007,14.0007,0,0,1,0,19.8Z"/>
</svg>
