<svg id="export" xmlns="http://www.w3.org/2000/svg" viewBox="0 0 512 512">
  <defs>
    <style>
      .cls-1 {
        fill: currentColor;
      }
    </style>
  </defs>
  <title>layers-slash</title>
  <path class="cls-1" d="M24.062,162.1079a16,16,0,0,0,.3823,27.9956l224,120a15.9993,15.9993,0,0,0,15.1114,0l10.5376-5.645,26.854,26.8539L256,356.0332l-224-123.2v47.933L245.88,398.4a20.9983,20.9983,0,0,0,20.24,0l65.7517-36.1633,24.4553,24.4552L256,440.2,32,320.7332v47.6L246.1172,482.5293a21.0009,21.0009,0,0,0,19.7656,0l121.4878-64.7935,78.9309,78.9309H496V466.9678L45.699,16.6667H16V46.3652l76.5859,76.5861Z"/>
  <path class="cls-1" d="M487.5557,190.1035a16,16,0,0,0,.3823-27.9956l-224-128a16.0007,16.0007,0,0,0-15.876,0L160.7173,84.019,343.8091,267.1107Z"/>
  <polygon class="cls-1" points="480 232.833 370.021 293.322 400.945 324.247 480 280.766 480 232.833"/>
  <polygon class="cls-1" points="480 368.333 480 320.733 426.151 349.453 457.195 380.496 480 368.333"/>
</svg>
