<svg id="export" xmlns="http://www.w3.org/2000/svg" viewBox="0 0 512 512">
  <defs>
    <style>
      .cls-1 {
        fill: currentColor;
      }
    </style>
  </defs>
  <title>line-style</title>
  <rect class="cls-1" x="16" y="21" width="480" height="84"/>
  <rect class="cls-1" x="16" y="162" width="224" height="64"/>
  <rect class="cls-1" x="272" y="162" width="224" height="64"/>
  <rect class="cls-1" x="16" y="290" width="136" height="60"/>
  <rect class="cls-1" x="192" y="290" width="128" height="60"/>
  <rect class="cls-1" x="360" y="290" width="136" height="60"/>
  <path class="cls-1" d="M58.8848,410.23a42.8853,42.8853,0,1,0,42.8857,42.8857A42.9339,42.9339,0,0,0,58.8848,410.23Z"/>
  <path class="cls-1" d="M192.2949,410.23a42.8853,42.8853,0,1,0,42.8858,42.8857A42.9338,42.9338,0,0,0,192.2949,410.23Z"/>
  <path class="cls-1" d="M325.7051,410.23A42.8853,42.8853,0,1,0,368.59,453.1152,42.9341,42.9341,0,0,0,325.7051,410.23Z"/>
  <path class="cls-1" d="M459.1152,410.23A42.8853,42.8853,0,1,0,502,453.1152,42.9341,42.9341,0,0,0,459.1152,410.23Z"/>
</svg>
