<svg id="export" xmlns="http://www.w3.org/2000/svg" viewBox="0 0 512 512">
  <defs>
    <style>
      .cls-1 {
        fill: currentColor;
      }
    </style>
  </defs>
  <title>opacity</title>
  <g>
    <path class="cls-1" d="M367.6875,143.75C346.2656,67.2612,275.93,11,192.6953,11,92.5078,11,11,92.5083,11,192.6958c0,83.93,57.2075,154.74,134.6741,175.5132A181.7535,181.7535,0,0,0,320.6953,501c100.1875,0,181.6963-81.5083,181.6963-181.6958A182.0843,182.0843,0,0,0,367.6875,143.75ZM192.6953,332.3911C115.667,332.3911,53,269.7241,53,192.6958S115.667,53,192.6953,53s139.6963,62.6675,139.6963,139.6958S269.7246,332.3911,192.6953,332.3911Z"/>
    <path class="cls-1" d="M281.2627,163.4824l-5.1367-20.3618A181.9363,181.9363,0,0,0,143.166,280.46l20.5186,4.4712,20.5185,4.4711A138.1312,138.1312,0,0,1,202.7112,244.62a141.7328,141.7328,0,0,1,39.5149-40.8157,138.2522,138.2522,0,0,1,44.1733-19.96l-5.1367-20.3615Z"/>
  </g>
</svg>
