<svg id="export" xmlns="http://www.w3.org/2000/svg" viewBox="0 0 512 512">
  <defs>
    <style>
      .cls-1 {
        fill: currentColor;
      }
    </style>
  </defs>
  <title>cut</title>
  <path class="cls-1" d="M448,425.373,282.627,260,448,94.627V72H425.373L260,237.373,176.477,153.85a88.088,88.088,0,1,0-22.627,22.627L237.373,260l-78.9192,78.9194A88.0034,88.0034,0,1,0,179.6069,363.02L260,282.627,425.373,448H448ZM104,160a56,56,0,1,1,56-56A56.0632,56.0632,0,0,1,104,160Zm0,304a56,56,0,1,1,56-56A56.0632,56.0632,0,0,1,104,464Z"/>
</svg>
