<svg id="export" xmlns="http://www.w3.org/2000/svg" viewBox="0 0 512 512">
  <defs>
    <style>
      .cls-1 {
        fill: currentColor;
      }
    </style>
  </defs>
  <title>delete#backspace</title>
  <g>
    <polygon class="cls-1" points="227.313 363.313 312 278.627 396.687 363.313 419.313 340.687 334.627 256 419.313 171.313 396.687 148.687 312 233.373 227.313 148.687 204.687 171.313 289.373 256 204.687 340.687 227.313 363.313"/>
    <path class="cls-1" d="M472,64H194.6436a24.0963,24.0963,0,0,0-17.42,7.4917L16,241.623v28.754L177.2236,440.5083A24.0963,24.0963,0,0,0,194.6436,448H472a24.0275,24.0275,0,0,0,24-24V88A24.0275,24.0275,0,0,0,472,64Zm-8,352H198.084L48,257.623v-3.246L198.084,96H464Z"/>
  </g>
</svg>
