<svg id="export" xmlns="http://www.w3.org/2000/svg" viewBox="0 0 512 512">
  <defs>
    <style>
      .cls-1 {
        fill: currentColor;
      }
    </style>
  </defs>
  <title>double-quote-serif-left</title>
  <g>
    <path class="cls-1" d="M16,164.3729V392a24.0269,24.0269,0,0,0,24,24H208a24.0269,24.0269,0,0,0,24-24V224a24.0269,24.0269,0,0,0-24-24H121.6274L232,89.6277V19H161.3726ZM200,51V76.3729l-112,112V232H200V384H48V177.6277L174.6274,51Z"/>
    <path class="cls-1" d="M496,19H425.3726L280,164.3729V392a24.0269,24.0269,0,0,0,24,24H472a24.0269,24.0269,0,0,0,24-24V224a24.0269,24.0269,0,0,0-24-24H385.6274L496,89.6277ZM464,76.3729l-112,112V232H464V384H312V177.6277L438.6274,51H464Z"/>
  </g>
</svg>
