<svg id="export" xmlns="http://www.w3.org/2000/svg" viewBox="0 0 512 512">
  <defs>
    <style>
      .cls-1 {
        fill: currentColor;
      }
    </style>
  </defs>
  <title>highlighter</title>
  <path class="cls-1" d="M491.7119,116.4307,398.7891,22.31a31.7633,31.7633,0,0,0-22.7715-9.52h-.023a31.7717,31.7717,0,0,0-22.7827,9.5518L87.5337,292.2344a32.085,32.085,0,0,0,.1772,45.0752l14.6954,14.6963L16,439.4268V478H122.8032l52.7984-52.7988,12.48,12.48a32,32,0,0,0,46.0009-.77L492.3125,160.77A31.9119,31.9119,0,0,0,491.7119,116.4307ZM109.5483,446H54.4961l46.5518-47.0991,27.8,27.8Zm101.16-30.9463-35.1069-35.1064-24.1265,24.1264-27.9324-27.9321,23.9866-24.2686-37.1914-37.1894,48.3381-49.105,99.1211,99.1206Zm68.9573-73.74-98.5408-98.54L376.0166,44.791,468.94,138.9121Z"/>
</svg>
