<svg id="export" xmlns="http://www.w3.org/2000/svg" viewBox="0 0 512 512">
  <defs>
    <style>
      .cls-1 {
        fill: currentColor;
      }
    </style>
  </defs>
  <title>info</title>
  <g>
    <rect class="cls-1" x="256" y="95.9976" width="34.9236" height="34.9236"/>
    <path class="cls-1" d="M16,15.9976v480H496v-480Zm448,448H48v-416H464Z"/>
    <path class="cls-1" d="M224.2559,202.8375a17.5767,17.5767,0,0,1,33.0966,11.6973l-35.67,121.2773a50.0607,50.0607,0,0,0,48.0264,64.1855,50.2256,50.2256,0,0,0,43.25-24.8525l15.1045-25.9131L300.417,333.1168l-15.1045,25.915a18.1208,18.1208,0,0,1-15.6035,8.9658,18.06,18.06,0,0,1-17.3272-23.1562l35.67-121.2774a49.5768,49.5768,0,0,0-93.3526-32.9921l-11.7178,28.2343,29.5567,12.2657Z"/>
  </g>
</svg>
