<svg id="export" xmlns="http://www.w3.org/2000/svg" viewBox="0 0 512 512">
  <defs>
    <style>
      .cls-1 {
        fill: currentColor;
      }
    </style>
  </defs>
  <title>list-low-priority</title>
  <g>
    <rect class="cls-1" x="256" y="56" width="240" height="32"/>
    <rect class="cls-1" x="256" y="162.6665" width="240" height="32"/>
    <rect class="cls-1" x="256" y="269.333" width="240" height="32"/>
    <rect class="cls-1" x="328" y="376" width="168" height="32"/>
    <path class="cls-1" d="M167.1963,376H161.231C98.7954,376,48,311.4014,48,232S98.7954,88,161.231,88H216V56H161.231C121.7827,56,84.91,74.7549,57.4038,108.81,30.7041,141.8662,16,185.6162,16,232s14.7041,90.1338,41.4038,123.19C84.91,389.2451,121.7827,408,161.231,408h5.9653v68.7832l134.8-83.7852-134.8-86.2255Zm32-10.7725,42.8071,27.3819-42.8071,26.6074Z"/>
  </g>
</svg>
