<svg id="export" xmlns="http://www.w3.org/2000/svg" viewBox="0 0 512 512">
  <defs>
    <style>
      .cls-1 {
        fill: currentColor;
      }
    </style>
  </defs>
  <title>list-numbered</title>
  <g>
    <rect class="cls-1" x="184" y="80" width="288" height="32"/>
    <rect class="cls-1" x="184" y="240" width="288" height="32"/>
    <rect class="cls-1" x="184" y="400" width="288" height="32"/>
    <polygon class="cls-1" points="88 160 120 160 120 40 56 40 56 72 88 72 88 160"/>
    <polygon class="cls-1" points="56 224 104 224 104 238.111 56 262.111 56 312 136 312 136 280 91.777 280 136 257.889 136 192 56 192 56 224"/>
    <polygon class="cls-1" points="56 376 104 376 104 392 80 392 80 424 104 424 104 440 56 440 56 472 136 472 136 344 56 344 56 376"/>
  </g>
</svg>
