<svg id="export" xmlns="http://www.w3.org/2000/svg" viewBox="0 0 512 512">
  <defs>
    <style>
      .cls-1 {
        fill: currentColor;
      }
    </style>
  </defs>
  <title>list-high-priority</title>
  <g>
    <rect class="cls-1" x="256" y="416" width="240" height="32"/>
    <rect class="cls-1" x="256" y="309.333" width="240" height="32"/>
    <rect class="cls-1" x="256" y="202.6665" width="240" height="32"/>
    <rect class="cls-1" x="328" y="96" width="168" height="32"/>
    <path class="cls-1" d="M48,272c0-79.4019,50.7954-144,113.231-144h5.9653v69.2275l134.8-86.2255-134.8-83.7857V96H161.231C121.7827,96,84.91,114.7549,57.4038,148.81,30.7041,181.8662,16,225.6162,16,272s14.7041,90.1338,41.4038,123.19C84.91,429.2451,121.7827,448,161.231,448H216V416H161.231C98.7954,416,48,351.4014,48,272ZM199.1963,84.7837l42.8071,26.6069-42.8071,27.3819Z"/>
  </g>
</svg>
