<svg id="export" xmlns="http://www.w3.org/2000/svg" viewBox="0 0 512 512">
  <defs>
    <style>
      .cls-1 {
        fill: currentColor;
      }
    </style>
  </defs>
  <title>list</title>
  <g>
    <rect class="cls-1" x="208" y="80" width="264" height="32"/>
    <path class="cls-1" d="M104,32a64,64,0,1,0,64,64A64.0724,64.0724,0,0,0,104,32Zm0,96a32,32,0,1,1,32-32A32.0364,32.0364,0,0,1,104,128Z"/>
    <rect class="cls-1" x="208" y="240" width="264" height="32"/>
    <path class="cls-1" d="M104,192a64,64,0,1,0,64,64A64.0724,64.0724,0,0,0,104,192Zm0,96a32,32,0,1,1,32-32A32.0364,32.0364,0,0,1,104,288Z"/>
    <rect class="cls-1" x="208" y="400" width="264" height="32"/>
    <path class="cls-1" d="M104,352a64,64,0,1,0,64,64A64.0724,64.0724,0,0,0,104,352Zm0,96a32,32,0,1,1,32-32A32.0364,32.0364,0,0,1,104,448Z"/>
  </g>
</svg>
