<svg id="export" xmlns="http://www.w3.org/2000/svg" viewBox="0 0 512 512">
  <defs>
    <style>
      .cls-1 {
        fill: currentColor;
      }
    </style>
  </defs>
  <title>sort-alpha-up</title>
  <g>
    <polygon class="cls-1" points="52.687 107.687 75.313 130.313 127.196 78.432 127.196 496 159.196 496 159.196 78.432 211.079 130.314 233.706 107.687 143.196 17.177 52.687 107.687"/>
    <polygon class="cls-1" points="304 312 405.04 312 296 412.732 296 456 440 456 440 424 330.96 424 440 323.268 440 280 304 280 304 312"/>
    <path class="cls-1" d="M342.1987,168h59.6026l18.6667,56h33.7305L395.5322,48H348.4678L289.8015,224H323.532Zm29.3335-88h.9356l18.6667,56h-38.269Z"/>
  </g>
</svg>
