<svg id="export" xmlns="http://www.w3.org/2000/svg" viewBox="0 0 512 512">
  <defs>
    <style>
      .cls-1 {
        fill: currentColor;
      }
    </style>
  </defs>
  <title>sort-alpha-down</title>
  <g>
    <polygon class="cls-1" points="154.509 434.745 154.509 17.177 122.509 17.177 122.509 434.745 70.627 382.863 48 405.49 138.509 496 229.019 405.49 206.392 382.863 154.509 434.745"/>
    <polygon class="cls-1" points="299.313 313.177 400.353 313.177 291.313 413.909 291.313 457.177 435.313 457.177 435.313 425.177 326.274 425.177 435.313 324.445 435.313 281.177 299.313 281.177 299.313 313.177"/>
    <path class="cls-1" d="M337.5122,169.1768h59.6025l18.6669,56h33.73l-58.6663-176H343.7813l-58.6664,176h33.7305Zm29.3335-88h.9356l18.6668,56H348.1789Z"/>
  </g>
</svg>
