<svg id="export" xmlns="http://www.w3.org/2000/svg" viewBox="0 0 512 512">
  <defs>
    <style>
      .cls-1 {
        fill: currentColor;
      }
    </style>
  </defs>
  <title>text-shapes</title>
  <g>
    <path class="cls-1" d="M231.3594,147,150.4385,352h45.154l15.5935-39.5039h89.628L316.4075,352h45.154L280.6406,147Zm-3.5945,123.4961L256,198.9668l28.2351,71.5293Z"/>
    <path class="cls-1" d="M496,128V16H384V56H128V16H16V128H56V384H16V496H128V456H384v40H496V384H456V128ZM416,48h48V96H416ZM48,96V48H96V96ZM96,464H48V416H96Zm368-48v48H416V416Zm-40-64v32H384v40H128V384H88V128h40V88H384v40h40Z"/>
  </g>
</svg>
