<svg id="export" xmlns="http://www.w3.org/2000/svg" viewBox="0 0 512 512">
  <defs>
    <style>
      .cls-1 {
        fill: currentColor;
      }
    </style>
  </defs>
  <title>text-width</title>
  <g>
    <polygon class="cls-1" points="411.313 292.687 388.687 315.313 433.373 360 78.627 360 123.313 315.313 100.687 292.687 17.373 376 100.687 459.313 123.313 436.687 78.627 392 433.373 392 388.687 436.687 411.313 459.313 494.627 376 411.313 292.687"/>
    <polygon class="cls-1" points="144 112 224 112 224 288 192 288 192 320 320 320 320 288 288 288 288 112 368 112 368 144 400 144 400 80 112 80 112 144 144 144 144 112"/>
  </g>
</svg>
