<svg id="export" xmlns="http://www.w3.org/2000/svg" viewBox="0 0 512 512">
  <defs>
    <style>
      .cls-1 {
        fill: currentColor;
      }
    </style>
  </defs>
  <title>text-height</title>
  <g>
    <polygon class="cls-1" points="424 369.373 424 142.627 468.687 187.313 491.313 164.687 408 81.373 324.687 164.687 347.313 187.313 392 142.627 392 369.373 347.313 324.687 324.687 347.313 408 430.627 491.313 347.313 468.687 324.687 424 369.373"/>
    <polygon class="cls-1" points="16 144 48 144 48 112 128 112 128 392 96 392 96 424 224 424 224 392 192 392 192 112 272 112 272 144 304 144 304 80 16 80 16 144"/>
  </g>
</svg>
