<svg id="export" xmlns="http://www.w3.org/2000/svg" viewBox="0 0 512 512">
  <defs>
    <style>
      .cls-1, .cls-2 {
        fill:currentColor;
      }

      .cls-1 {
        opacity: 0.25;
      }
    </style>
  </defs>
  <title>call-split</title>
  <path class="cls-1" d="M456.0267,32.0107l-400-.0214A24,24,0,0,0,32.0254,55.9878l-.0217,400a24,24,0,0,0,23.9987,24.0015l400,.0214a24,24,0,0,0,24.0013-23.9985l.0217-400A24,24,0,0,0,456.0267,32.0107Z"/>
  <polygon class="cls-2" points="150.052 148 196.4 148 196.4 108 79.6 108 79.6 224.8 119.6 224.8 119.6 174.065 207.684 264.365 236.316 236.435 150.052 148"/>
  <polygon class="cls-2" points="315.6 148 362.909 148 229.2 290.068 229.2 400 269.2 400 269.2 305.931 392.4 175.029 392.4 224.8 432.4 224.8 432.4 108 315.6 108 315.6 148"/>
</svg>
