<svg id="export" xmlns="http://www.w3.org/2000/svg" viewBox="0 0 512 512">
  <defs>
    <style>
      .cls-1, .cls-2 {
        fill:currentColor;
      }

      .cls-1 {
        opacity: 0.25;
      }
    </style>
  </defs>
  <title>contact</title>
  <path class="cls-1" d="M472,48H40A24.0275,24.0275,0,0,0,16,72V440a24.0275,24.0275,0,0,0,24,24H472a24.0275,24.0275,0,0,0,24-24V72A24.0275,24.0275,0,0,0,472,48Z"/>
  <path class="cls-2" d="M400,416V405.178a36.0008,36.0008,0,0,0-18.5107-31.4666l-79.6631-44.2768L328,264V200a72,72,0,0,0-72-72h0a72,72,0,0,0-72,72v64l26.1738,65.4346-79.6631,44.2768A36.0008,36.0008,0,0,0,112,405.178V464H400V416Z"/>
</svg>
