<svg id="export" xmlns="http://www.w3.org/2000/svg" viewBox="0 0 512 512">
  <defs>
    <style>
      .cls-1, .cls-2 {
        fill:currentColor;
      }

      .cls-2 {
        opacity: 0.25;
      }
    </style>
  </defs>
  <title>mobile-arrow-remove</title>
  <path class="cls-1" d="M368,88V368H96v88a40.0455,40.0455,0,0,0,40,40H376a40.0455,40.0455,0,0,0,40-40V56a40.0455,40.0455,0,0,0-40-40H136A40.0455,40.0455,0,0,0,96,56V88ZM274,414v36H238V414Z"/>
  <polygon class="cls-2" points="240 312 240 264 172.23 264 280.506 161.423 247.494 126.577 136 232.203 136 168 88 168 88 312 240 312"/>
</svg>
