<svg id="export" xmlns="http://www.w3.org/2000/svg" viewBox="0 0 512 512">
  <defs>
    <style>
      .cls-1, .cls-2 {
        fill:currentColor;
      }

      .cls-2 {
        opacity: 0.25;
      }
    </style>
  </defs>
  <title>mobile-arrow-add</title>
  <path class="cls-1" d="M376,16H136A40.0451,40.0451,0,0,0,96,56V88H368V368H96v88a40.0451,40.0451,0,0,0,40,40H376a40.0451,40.0451,0,0,0,40-40V56A40.0451,40.0451,0,0,0,376,16ZM274,450H238V414h36Z"/>
  <polygon class="cls-2" points="104.506 321.423 216 215.797 216 280 264 280 264 136 112 136 112 184 179.77 184 71.494 286.577 104.506 321.423"/>
</svg>
