<svg id="export" xmlns="http://www.w3.org/2000/svg" viewBox="0 0 512 512">
  <defs>
    <style>
      .cls-1 {
        fill: currentColor;
      }
    </style>
  </defs>
  <title>bath#bathroom</title>
  <path class="cls-1" d="M466,278H82V118A49.2731,49.2731,0,0,1,96.5269,82.9292l.4023-.4023a49.6856,49.6856,0,0,1,56.1753-9.8391,79.1,79.1,0,0,0,12.7881,94.89l9.5366,9.5367L155.272,197.272l25.456,25.456,152-152L307.272,45.272,287.1147,65.4291l-9.5366-9.5365a79.1064,79.1064,0,0,0-99.1393-10.21A85.6185,85.6185,0,0,0,71.4731,57.0708l-.4023.4023A85.0386,85.0386,0,0,0,46,118V278H16v36H46v28.7017a25.9351,25.9351,0,0,0,1.3345,8.2216l29.7661,89.2984A25.9662,25.9662,0,0,0,101.7661,458H112l-11.0831,38h37.5L149.5,458H354.6075l11.4,38h37.5849l-11.4-38h18.0413a25.9662,25.9662,0,0,0,24.6655-17.7783l29.7652-89.2949A25.948,25.948,0,0,0,466,342.7017V314h30V278Z"/>
</svg>
