<svg id="export" xmlns="http://www.w3.org/2000/svg" viewBox="0 0 512 512">
  <defs>
    <style>
      .cls-1 {
        fill: currentColor;
      }
    </style>
  </defs>
  <title>building-business-slash</title>
  <g>
    <polygon class="cls-1" points="296.27 16 96.68 16 296.27 215.326 296.27 16"/>
    <path class="cls-1" d="M328,160v87.0291l66,66V296h36v36H412.9707L496,415.0292V160Zm102,92H394V216h36Z"/>
    <path class="cls-1" d="M16.27,16H16l.27,480h122V424h36v72h122V325.6917L328,357.4222V496H496V466.4568L45.7092,16Zm164,193.6916L202.5781,232H180.27Zm0,70.3084h36v36h-36Zm-84-84h36v36h-36Zm0,84h36v36h-36Z"/>
  </g>
</svg>
