<svg id="export" xmlns="http://www.w3.org/2000/svg" viewBox="0 0 512 512">
  <defs>
    <style>
      .cls-1 {
        fill: currentColor;
      }
    </style>
  </defs>
  <title>industry-slash#factory-slash</title>
  <g>
    <polygon class="cls-1" points="312 121 291.296 121 246.904 166.026 312 231.035 312 121"/>
    <polygon class="cls-1" points="480 121 456.723 121 328.584 247.613 480 399.029 480 121"/>
    <polygon class="cls-1" points="152 32 112.701 32 152 71.247 152 32"/>
    <path class="cls-1" d="M45.7092,16H16V45.4219l16,16V480H450.5771l16,16H496V466.4568ZM172,432H132V392h40Zm0-80H132V312h40Zm-5.9155-104H152V181.4221l40.145,40.145ZM252,432H212V392h40Zm0-80H212V312h40Zm80,80H292V392h40Z"/>
  </g>
</svg>
