<svg id="export" xmlns="http://www.w3.org/2000/svg" viewBox="0 0 512 512">
  <defs>
    <style>
      .cls-1 {
        fill: currentColor;
      }
    </style>
  </defs>
  <title>laundry</title>
  <g>
    <path class="cls-1" d="M257.4607,301.0046h0q-.6894-.4742-1.4052-.948a87.447,87.447,0,0,0-87.6086-4.7431l-8.4037,3.467a95.9956,95.9956,0,0,0,191.9337-.9521l-26.2207,8.8274C299.7529,315.41,275.4851,313.4019,257.4607,301.0046Z"/>
    <path class="cls-1" d="M424,16H88A16,16,0,0,0,72,32V480a16,16,0,0,0,16,16H424a16,16,0,0,0,16-16V32A16,16,0,0,0,424,16ZM224,72h32v32H224ZM120,72h72v32H120ZM256,424A128,128,0,1,1,384,296,128.1451,128.1451,0,0,1,256,424Z"/>
  </g>
</svg>
