<svg id="export" xmlns="http://www.w3.org/2000/svg" viewBox="0 0 512 512"><defs><style>.cls-1,.cls-2{fill:currentColor;}.cls-1{opacity:0.25;}</style></defs><title>hand-pointer</title><path class="cls-1" d="M456,216a32,32,0,0,0-27.71,16H416V216a32,32,0,0,0-59.71-16H344v-8a32,32,0,0,0-64,0H264V56a32,32,0,0,0-64,0V312.48H159.59l-32-35.53a79.8,79.8,0,0,0-112.68-5.87,8,8,0,0,0-.59,11.3L206.78,496l1.22-1.1V496H455.24l32-101.65a16,16,0,0,0,.74-4.81V248A32,32,0,0,0,456,216Z"/><rect class="cls-2" x="260" y="296" width="24" height="80"/><rect class="cls-2" x="340" y="296" width="24" height="80"/><rect class="cls-2" x="412" y="296" width="24" height="80"/></svg>