<svg id="export" xmlns="http://www.w3.org/2000/svg" viewBox="0 0 512 512">
  <defs>
    <style>
      .cls-1 {
        fill: currentColor;
      }
    </style>
  </defs>
  <title>address-card</title>
  <path class="cls-1" d="M488,64H24a8,8,0,0,0-8,8V445.5361a8,8,0,0,0,8,8H488a8,8,0,0,0,8-8V72A8,8,0,0,0,488,64ZM248,370.7681H74v-35.871a33.1431,33.1431,0,0,1,15.08-27.7885l38.34-24.9209-16.1346-43.9911V188.4823A49.7142,49.7142,0,0,1,161,138.7681h0a49.7142,49.7142,0,0,1,49.7142,49.7142v49.7143l-17.6585,43L232.92,307.1086A33.1431,33.1431,0,0,1,248,334.8971ZM440,280H288V232H440Zm0-88H288V144H440Z"/>
</svg>
