<svg id="export" xmlns="http://www.w3.org/2000/svg" viewBox="0 0 512 512">
  <defs>
    <style>
      .cls-1 {
        fill: currentColor;
      }
    </style>
  </defs>
  <title>id-card</title>
  <g>
    <path class="cls-1" d="M480,84V56a24,24,0,0,0-24-24H56A24,24,0,0,0,32,56V84Z"/>
    <path class="cls-1" d="M32,120V456a24,24,0,0,0,24,24H456a24,24,0,0,0,24-24V120ZM270,408H96V372.1289a33.1427,33.1427,0,0,1,15.08-27.7883L149.42,319.42l-16.1348-43.9912V225.7144a49.7144,49.7144,0,0,1,99.4288,0v49.7141l-17.6586,43.0007L254.92,344.3406A33.1429,33.1429,0,0,1,270,372.1289ZM432,274H296V238H432Zm0-64H296V174H432Z"/>
  </g>
</svg>
