<svg id="export" xmlns="http://www.w3.org/2000/svg" viewBox="0 0 512 512">
  <defs>
    <style>
      .cls-1 {
        fill: currentColor;
      }
    </style>
  </defs>
  <title>people_plus</title>
  <path class="cls-1" d="M101.01,143.8716q1.2188-1.804,2.5214-3.5456Q102.2293,142.0671,101.01,143.8716Z"/>
  <path class="cls-1" d="M97.5468,149.42q1.0888-1.8936,2.2656-3.7288Q98.6361,147.5259,97.5468,149.42Z"/>
  <path class="cls-1" d="M88.9958,169.6769q.6095-2.1457,1.3211-4.2474Q89.6058,167.5307,88.9958,169.6769Z"/>
  <path class="cls-1" d="M90.3169,165.43q.7108-2.1011,1.5211-4.1551Q91.0283,163.3279,90.3169,165.43Z"/>
  <path class="cls-1" d="M94.483,155.2274q.9525-1.9768,1.9972-3.8994Q95.4361,153.25,94.483,155.2274Z"/>
  <path class="cls-1" d="M103.5314,140.326a90.9136,90.9136,0,0,1,7.0057-8.286A90.9136,90.9136,0,0,0,103.5314,140.326Z"/>
  <path class="cls-1" d="M245.5652,136.6509q-1.9743-2.3741-4.1023-4.6109,2.1291,2.2332,4.1023,4.611Z"/>
  <path class="cls-1" d="M228.3516,120.6846q1.773,1.2609,3.4817,2.6038Q230.1251,121.9459,228.3516,120.6846Z"/>
  <path class="cls-1" d="M113.6053,128.9717q3.141-2.9946,6.5614-5.6833Q116.75,125.9733,113.6053,128.9717Z"/>
  <path class="cls-1" d="M231.8333,123.2884q3.4167,2.6849,6.5614,5.6833Q235.2537,125.9771,231.8333,123.2884Z"/>
  <path class="cls-1" d="M120.1667,123.2884q1.7082-1.3425,3.4817-2.6038Q121.8753,121.9455,120.1667,123.2884Z"/>
  <path class="cls-1" d="M16.4519,440.6241q.2246-1.7494.5575-3.4725Q16.6767,438.8741,16.4519,440.6241Z"/>
  <path class="cls-1" d="M19.7769,427.57c.2673-.6887.5434-1.3738.8376-2.05C20.32,426.1961,20.0442,426.8811,19.7769,427.57Z"/>
  <path class="cls-1" d="M87.4026,176.2088q.4516-2.2077,1.01-4.3753Q87.8545,174.0007,87.4026,176.2088Z"/>
  <path class="cls-1" d="M86.0321,185.1881q.2316-2.28.5751-4.5259Q86.264,182.9075,86.0321,185.1881Z"/>
  <path class="cls-1" d="M85.6829,189.7808q.1171-2.3121.3492-4.5927Q85.8005,187.4683,85.6829,189.7808Z"/>
  <path class="cls-1" d="M302.4348,194.4346v65.2465a98.4478,98.4478,0,0,1-15.4164,52.9407l-14.0166,22.0261,38.5657,24.37A111.9393,111.9393,0,0,1,408,304h48.3695l-73.1282-46.2113,33.4054-52.4943a62.6084,62.6084,0,0,0,9.7882-33.6131V106.4347a90.4407,90.4407,0,0,0-179.3457-16.59,127.7966,127.7966,0,0,1,18.3139,15.187A125.607,125.607,0,0,1,302.4348,194.4346Z"/>
  <path class="cls-1" d="M296,416v0a112.4839,112.4839,0,0,1,2.3182-22.7685l-75.0771-47.4428,33.4056-52.4943a62.6108,62.6108,0,0,0,9.7881-33.6132V194.4346q0-2.3412-.1177-4.6538a90.7507,90.7507,0,0,0-.9243-9.1186q-.3431-2.2454-.7954-4.4534t-1.01-4.3753q-.2785-1.0836-.5834-2.1566-1.219-4.2917-2.8422-8.4025-1.2145-3.08-2.645-6.047-.9525-1.9768-1.9972-3.8994-.5219-.9611-1.0666-1.908-1.0889-1.8936-2.2656-3.7288-.5882-.9174-1.1976-1.82-2.5328-3.7491-5.4248-7.2207h0q-1.9743-2.3742-4.1023-4.611-1.4973-1.5705-3.0682-3.0683-3.141-2.9946-6.5614-5.6833-1.7082-1.3425-3.4817-2.6038A90.0229,90.0229,0,0,0,176,104h0a90.0232,90.0232,0,0,0-52.3516,16.6846q-1.7731,1.2609-3.4817,2.6038-3.4167,2.6849-6.5614,5.6833-1.57,1.4973-3.0682,3.0683a90.9136,90.9136,0,0,0-7.0057,8.286q-1.3021,1.7411-2.5214,3.5456-.6093.9022-1.1976,1.82-1.1763,1.8346-2.2656,3.7288-.5445.947-1.0666,1.908-1.0442,1.9221-1.9972,3.8994-1.4288,2.9652-2.645,6.047-.81,2.0535-1.5211,4.1551t-1.3211,4.2474q-.3047,1.0731-.5834,2.1566-.5579,2.1672-1.01,4.3753t-.7954,4.4534q-.3432,2.2453-.5751,4.5259t-.3492,4.5927q-.1173,2.3121-.1177,4.6538v65.2465a62.6069,62.6069,0,0,0,9.7882,33.6132l33.4055,52.4943-86.836,54.8736q-.7566.4781-1.4942.9781-1.4754,1-2.8743,2.0843-.6992.5419-1.3789,1.1041a55.6538,55.6538,0,0,0-15.561,20.6906c-.2942.6767-.57,1.3618-.8376,2.05a55.6129,55.6129,0,0,0-2.7675,9.5818q-.3327,1.7225-.5575,3.4725A55.688,55.688,0,0,0,16,447.7083v46.8505l311.7092-.484A111.624,111.624,0,0,1,296,416Z"/>
  <polygon class="cls-1" points="441 344 399 344 399 399 344 399 344 441 399 441 399 496 441 496 441 441 496 441 496 408 496 399 441 399 441 344"/>
</svg>
