<svg id="export" xmlns="http://www.w3.org/2000/svg" viewBox="0 0 512 512">
  <defs>
    <style>
      .cls-1 {
        fill: currentColor;
      }
    </style>
  </defs>
  <title>person-female</title>
  <path class="cls-1" d="M314.33,179.356,317.7778,160h27.9761a14.2464,14.2464,0,0,0,13.8208-17.7014l-19.207-76.8274C333.0747,36.2982,308.3054,16,280,16s-53.0747,20.2982-60.3677,49.4712l-19.207,76.8274A14.2464,14.2464,0,0,0,214.2461,160h29.0044l2.7847,18.6386A55.6508,55.6508,0,0,0,210.68,212.63L160,392h64.2539l12.7627,104h80l12.7627-104H392L348.3372,214.774A55.6414,55.6414,0,0,0,314.33,179.356Z"/>
</svg>
