<svg id="export" xmlns="http://www.w3.org/2000/svg" viewBox="0 0 512 512">
  <defs>
    <style>
      .cls-1 {
        fill: currentColor;
      }
    </style>
  </defs>
  <title>user-female</title>
  <path class="cls-1" d="M410.1888,373.1616,307.63,308.3522,327.6472,272h39.8236a32,32,0,0,0,29.4126-44.6054s-31.3743-85.4373-37.1692-115.12C349.372,59.3,310.839,16,256,16h0c-54.6755,0-93.28,43.0447-103.6785,95.7938-5.872,29.7868-37.2048,115.6008-37.2048,115.6008A32,32,0,0,0,144.5292,272h39.8236L204.37,308.3522,101.8112,373.1616A64,64,0,0,0,72,427.2645v69.3069L440,496V427.2645A64,64,0,0,0,410.1888,373.1616Z"/>
</svg>
