<svg id="export" xmlns="http://www.w3.org/2000/svg" viewBox="0 0 512 512">
  <defs>
    <style>
      .cls-1, .cls-2 {
        fill:currentColor;
      }

      .cls-1 {
        opacity: 0.25;
      }
    </style>
  </defs>
  <title>command</title>
  <rect class="cls-1" x="32" y="32" width="448" height="448" rx="24"/>
  <g>
    <path class="cls-2" d="M337.6924,337.6924H174.3076V174.3076H337.6924Zm-115.3848-48h67.3848V222.3076H222.3076Z"/>
    <path class="cls-2" d="M222.3076,222.3076H152.1538a70.1538,70.1538,0,1,1,70.1538-70.1538ZM152.1538,130a22.1538,22.1538,0,1,0,0,44.3076h22.1538V152.1538A22.1787,22.1787,0,0,0,152.1538,130Z"/>
    <path class="cls-2" d="M359.8462,222.3076H289.6924V152.1538a70.1538,70.1538,0,1,1,70.1538,70.1538Zm-22.1538-48h22.1538a22.1538,22.1538,0,1,0-22.1538-22.1538Z"/>
    <path class="cls-2" d="M359.8462,430a70.233,70.233,0,0,1-70.1538-70.1538V289.6924h70.1538a70.1538,70.1538,0,0,1,0,140.3076Zm-22.1538-92.3076v22.1538a22.1538,22.1538,0,1,0,22.1538-22.1538Z"/>
    <path class="cls-2" d="M152.1538,430a70.1538,70.1538,0,0,1,0-140.3076h70.1538v70.1538A70.233,70.233,0,0,1,152.1538,430Zm0-92.3076a22.1538,22.1538,0,1,0,22.1538,22.1538V337.6924Z"/>
  </g>
</svg>
