<svg id="export" xmlns="http://www.w3.org/2000/svg" viewBox="0 0 512 512">
  <defs>
    <style>
      .cls-1 {
        fill: #fff;
      }

      .cls-2, .cls-3 {
        fill:currentColor;
      }

      .cls-3 {
        opacity: 0.25;
      }
    </style>
  </defs>
  <title>device-unknown</title>
  <rect class="cls-1" x="400" y="408" width="16" height="18"/>
  <rect class="cls-1" x="400" y="390" width="16" height="18"/>
  <path class="cls-2" d="M400,48a16,16,0,0,0-16-16H128a16,16,0,0,0-16,16V86H400Z"/>
  <path class="cls-2" d="M312,426H112v38a16,16,0,0,0,16,16H384a16,16,0,0,0,16-16V426Z"/>
  <polygon class="cls-3" points="112 86 112 426 238 426 274 426 400 426 400 86 112 86"/>
  <path class="cls-2" d="M210.7017,203.2983a45.3,45.3,0,0,1,47.0815-45.2646,45.3027,45.3027,0,0,1,4.0376,90.1943A27.3219,27.3219,0,0,0,238,275.2627V324h36V282.5938a81.3074,81.3074,0,1,0-99.2983-79.2955Z"/>
  <rect class="cls-2" x="238" y="354" width="36" height="36"/>
</svg>
