<svg id="export" xmlns="http://www.w3.org/2000/svg" viewBox="0 0 512 512">
  <defs>
    <style>
      .cls-1, .cls-2 {
        fill:currentColor;
      }

      .cls-2 {
        opacity: 0.25;
      }
    </style>
  </defs>
  <title>devices</title>
  <polygon class="cls-1" points="207 384 207 424.122 152 430.857 152 472 304 472 304 430.857 249 424.122 249 384 207 384"/>
  <rect class="cls-1" x="352" y="248" width="144" height="224" rx="16"/>
  <path class="cls-2" d="M249,384h71V264a48.0543,48.0543,0,0,1,48-48h56V96a16,16,0,0,0-16-16H32A16,16,0,0,0,16,96V368a16,16,0,0,0,16,16H249Z"/>
</svg>
