<svg id="export" xmlns="http://www.w3.org/2000/svg" viewBox="0 0 512 512">
  <defs>
    <style>
      .cls-1 {
        fill:currentColor;
      }

      .cls-2 {
        opacity: 0.25;
      }
    </style>
  </defs>
  <title>input-component</title>
  <g>
    <path class="cls-1" d="M144,120H48a16,16,0,0,0-16,16V238H160V136A16,16,0,0,0,144,120Z"/>
    <path class="cls-1" d="M32,376a16,16,0,0,0,16,16h96a16,16,0,0,0,16-16V274H32Z"/>
    <path class="cls-1" d="M304,120H208a16,16,0,0,0-16,16V238H320V136A16,16,0,0,0,304,120Z"/>
    <path class="cls-1" d="M192,376a16,16,0,0,0,16,16h96a16,16,0,0,0,16-16V274H192Z"/>
    <path class="cls-1" d="M352,376a16,16,0,0,0,16,16h96a16,16,0,0,0,16-16V274H352Z"/>
    <path class="cls-1" d="M464,120H368a16,16,0,0,0-16,16V238H480V136A16,16,0,0,0,464,120Z"/>
  </g>
  <g class="cls-2">
    <rect class="cls-1" x="72" y="16" width="48" height="104"/>
    <rect class="cls-1" x="72" y="392" width="48" height="104"/>
    <rect class="cls-1" x="232" y="16" width="48" height="104"/>
    <rect class="cls-1" x="232" y="392" width="48" height="104"/>
    <rect class="cls-1" x="392" y="16" width="48" height="104"/>
    <rect class="cls-1" x="392" y="392" width="48" height="104"/>
  </g>
</svg>
