<svg id="export" xmlns="http://www.w3.org/2000/svg" viewBox="0 0 512 512">
  <defs>
    <style>
      .cls-1, .cls-2 {
        fill:currentColor;
      }

      .cls-1 {
        opacity: 0.25;
      }
    </style>
  </defs>
  <title>keyboard</title>
  <rect class="cls-1" x="16" y="128" width="480" height="288" rx="24"/>
  <g>
    <rect class="cls-2" x="200" y="176" width="40" height="40"/>
    <rect class="cls-2" x="344" y="176" width="40" height="40"/>
    <rect class="cls-2" x="160" y="252" width="40" height="40"/>
    <rect class="cls-2" x="128" y="176" width="40" height="40"/>
    <rect class="cls-2" x="56" y="176" width="40" height="40"/>
    <rect class="cls-2" x="88" y="252" width="40" height="40"/>
    <rect class="cls-2" x="272" y="176" width="40" height="40"/>
    <rect class="cls-2" x="416" y="176" width="40" height="40"/>
    <rect class="cls-2" x="236" y="252" width="40" height="40"/>
    <rect class="cls-2" x="336" y="328" width="40" height="40"/>
    <rect class="cls-2" x="72" y="328" width="40" height="40"/>
    <rect class="cls-2" x="144" y="330" width="160" height="36"/>
    <rect class="cls-2" x="384" y="252" width="40" height="40"/>
    <rect class="cls-2" x="408" y="328" width="40" height="40"/>
    <rect class="cls-2" x="312" y="252" width="40" height="40"/>
  </g>
</svg>
