<svg id="export" xmlns="http://www.w3.org/2000/svg" viewBox="0 0 512 512">
  <defs>
    <style>
      .cls-1 {
        opacity: 0.25;
      }

      .cls-2 {
        fill:currentColor;
      }

      .cls-3 {
        fill: #fff;
      }
    </style>
  </defs>
  <title>printer-slash</title>
  <g class="cls-1">
    <polygon class="cls-2" points="376 140 376 16 136 16 136 55.271 220.842 140 376 140"/>
    <polygon class="cls-2" points="379.5 420 376.585 406.01 372.575 402 354.575 384 258.576 288 160 288 140 384 136.25 402 132.5 420 120 480 392 480 379.5 420"/>
  </g>
  <polygon class="cls-3" points="449.973 419.998 449.558 419.998 496 466.457 496 466.025 449.973 419.998"/>
  <polygon class="cls-3" points="407.509 377.934 413.571 383.998 413.973 383.998 407.404 377.429 407.509 377.934"/>
  <polygon class="cls-3" points="281.973 251.998 205.973 175.998 205.648 175.998 281.62 251.998 281.973 251.998"/>
  <polygon class="cls-3" points="431.973 401.998 431.564 401.998 449.558 419.998 449.973 419.998 431.973 401.998"/>
  <polygon class="cls-3" points="413.571 383.998 431.564 401.998 431.973 401.998 413.973 383.998 413.571 383.998"/>
  <polygon class="cls-3" points="317.973 287.998 317.606 287.998 361.055 331.462 360.955 330.979 317.973 287.998"/>
  <polygon class="cls-3" points="384.283 354.698 407.509 377.934 407.404 377.429 384.18 354.205 384.283 354.698"/>
  <polygon class="cls-3" points="360.955 330.979 361.055 331.462 384.283 354.698 384.18 354.205 360.955 330.979"/>
  <rect class="cls-3" x="317.6064" y="287.9975" width="0.3665" height="0.0003"/>
  <g>
    <polygon class="cls-2" points="316.568 235.599 332.969 252 352 252 376 252 381.273 252 387.243 280.658 393.984 313.016 464.968 384 480 384 480 176 376 176 256.889 176 316.567 235.599 316.568 235.599"/>
    <polygon class="cls-2" points="45.976 16 45.709 16 16 16 16 45.422 110.576 139.998 128.576 157.998 136 165.422 146.576 175.998 146.578 176 136 176 32 176 32 384 103.227 384 124.757 280.658 130.727 252 136 252 160 252 222.578 252 240.575 269.998 258.575 287.998 258.576 287.998 354.575 383.998 372.575 401.998 376.585 406.008 466.578 496 496 496 496 466.457 45.976 16"/>
  </g>
</svg>
