<svg id="export" xmlns="http://www.w3.org/2000/svg" viewBox="0 0 512 512">
  <defs>
    <style>
      .cls-1, .cls-3 {
        fill:currentColor;
      }

      .cls-1 {
        opacity: 0.25;
      }

      .cls-2 {
        fill: none;
      }
    </style>
  </defs>
  <title>screen-deskop-slash</title>
  <polygon class="cls-1" points="232 376 232 432 160 464 160 496 352 496 352 464 280 432 280 376 232 376"/>
  <path class="cls-2" d="M16,56a23.8623,23.8623,0,0,1,1.7068-8.8713L16,45.4219Z"/>
  <path class="cls-3" d="M16,56V352a24.0275,24.0275,0,0,0,24,24H346.5774L16,44Z"/>
  <path class="cls-3" d="M316.5679,235.5969,456.9707,376H472a24.0275,24.0275,0,0,0,24-24V56a24.0275,24.0275,0,0,0-24-24H112.7007L316.5676,235.5969Z"/>
  <polygon class="cls-1" points="45.709 16 16 16 16 45.422 17.707 47.129 346.577 376 466.577 496 496 496 496 466.457 45.709 16"/>
</svg>
