<svg id="export" xmlns="http://www.w3.org/2000/svg" viewBox="0 0 512 512">
  <defs>
    <style>
      .cls-1, .cls-2 {
        fill:currentColor;
      }

      .cls-2 {
        opacity: 0.25;
      }
    </style>
  </defs>
  <title>signal-cellular-off_1</title>
  <polygon class="cls-1" points="442.578 472 418.578 448 250.26 279.682 233.289 262.711 216.318 245.74 16 446.059 16 496 448 496 466.578 496 442.578 472"/>
  <polygon class="cls-2" points="45.709 16 16 16 16 45.422 216.318 245.74 233.289 262.711 250.26 279.682 418.578 448 442.578 472 466.578 496 496 496 496 466.457 45.709 16"/>
  <polygon class="cls-1" points="446.059 16 271.485 190.574 288.467 207.533 305.449 224.493 316.568 235.597 316.568 235.597 448 367.029 472 391.029 496 415.029 496 16 446.059 16"/>
</svg>
