<svg id="export" xmlns="http://www.w3.org/2000/svg" viewBox="0 0 512 512">
  <defs>
    <style>
      .cls-1, .cls-2 {
        fill:currentColor;
      }

      .cls-2 {
        opacity: 0.25;
      }
    </style>
  </defs>
  <title>tv-dvr</title>
  <rect class="cls-1" x="136" y="424" width="240" height="72"/>
  <polygon class="cls-1" points="386.868 16 321.082 16 256.02 85.418 191.23 16 125.57 16 192.77 88 319.387 88 386.868 16"/>
  <path class="cls-2" d="M480,88H32a16,16,0,0,0-16,16V408a16,16,0,0,0,16,16H480a16,16,0,0,0,16-16V104A16,16,0,0,0,480,88Z"/>
  <g>
    <rect class="cls-1" x="180" y="168" width="224" height="36"/>
    <rect class="cls-1" x="180" y="248" width="224" height="36"/>
    <rect class="cls-1" x="104" y="324" width="36" height="36"/>
    <rect class="cls-1" x="180" y="324" width="224" height="36"/>
    <rect class="cls-1" x="104" y="168" width="36" height="36"/>
    <rect class="cls-1" x="104" y="248" width="36" height="36"/>
  </g>
</svg>
