<svg id="export" xmlns="http://www.w3.org/2000/svg" viewBox="0 0 512 512">
  <defs>
    <style>
      .cls-1 {
        fill: currentColor;
      }
    </style>
  </defs>
  <title>alarm</title>
  <g>
    <path class="cls-1" d="M256,80C141.1248,80,48,173.1248,48,288s93.1248,208,208,208,208-93.1248,208-208S370.8752,80,256,80ZM380.4508,412.4508A176,176,0,1,1,432,288,174.8477,174.8477,0,0,1,380.4508,412.4508Z"/>
    <polygon class="cls-1" points="272 160 240 160 240 295.69 326.005 364.494 345.995 339.506 272 280.31 272 160"/>
    <rect class="cls-1" x="15.9131" y="59.9997" width="184.1738" height="32.0005" transform="translate(-24.0492 74.2625) rotate(-34.3803)"/>
    <rect class="cls-1" x="387.9997" y="-16.0869" width="32.0005" height="184.1738" transform="translate(113.1428 366.5066) rotate(-55.6194)"/>
  </g>
</svg>
