<svg id="export" xmlns="http://www.w3.org/2000/svg" viewBox="0 0 512 512">
  <defs>
    <style>
      .cls-1 {
        fill: currentColor;
      }
    </style>
  </defs>
  <title>alarm-off</title>
  <g>
    <rect class="cls-1" x="387.9997" y="-16.0869" width="32.0005" height="184.1738" transform="translate(113.1443 366.5082) rotate(-55.6197)"/>
    <polygon class="cls-1" points="193.035 37.205 174.965 10.795 117.794 49.912 140.816 72.934 193.035 37.205"/>
    <path class="cls-1" d="M191.8826,124.0008A176.2025,176.2025,0,0,1,419.9993,352.1175l24.3075,24.3075A207.1782,207.1782,0,0,0,464,288c0-114.8752-93.1248-208-208-208a207.1782,207.1782,0,0,0-88.425,19.6932Z"/>
    <path class="cls-1" d="M38.627,16H16V38.627L64.0542,86.6811,22.9648,114.7949l18.07,26.41,46.0411-31.5019,26.63,26.63A207.3681,207.3681,0,0,0,48,288c0,114.8752,93.1248,208,208,208a207.3581,207.3581,0,0,0,151.6592-65.7139L473.373,496H496V473.373ZM380.4508,412.4508A176,176,0,0,1,131.5492,163.5492c1.5676-1.5676,3.1683-3.09,4.7855-4.5876L385.0405,407.6674Q382.795,410.0943,380.4508,412.4508Z"/>
  </g>
</svg>
