<svg id="export" xmlns="http://www.w3.org/2000/svg" viewBox="0 0 512 512">
  <defs>
    <style>
      .cls-1 {
        fill: currentColor;
      }
    </style>
  </defs>
  <title>bell-ring</title>
  <g>
    <path class="cls-1" d="M408,267.9448V184c0-83.813-68.1865-152-152-152S104,100.187,104,184v83.9448L60.3291,348.5684A24,24,0,0,0,81.4316,384H168.376c-.24,2.6361-.376,5.3021-.376,8a88,88,0,0,0,176,0c0-2.6979-.1357-5.3639-.376-8h86.9444a24,24,0,0,0,21.1025-35.4312ZM312,392a56,56,0,1,1-111.418-8H311.418A55.79,55.79,0,0,1,312,392ZM94.8633,352,136,276.0552V184a120,120,0,0,1,240,0v92.0552L417.1367,352Z"/>
    <path class="cls-1" d="M444,188h32A219.67,219.67,0,0,0,397.7764,19.77L377.1436,44.23A187.733,187.733,0,0,1,444,188Z"/>
    <path class="cls-1" d="M134.8564,44.23,114.2236,19.77A219.67,219.67,0,0,0,36,188H68A187.733,187.733,0,0,1,134.8564,44.23Z"/>
  </g>
</svg>
