<svg id="export" xmlns="http://www.w3.org/2000/svg" viewBox="0 0 512 512">
  <defs>
    <style>
      .cls-1 {
        fill: currentColor;
      }
    </style>
  </defs>
  <title>at</title>
  <path class="cls-1" d="M495.8262,232a206.6476,206.6476,0,0,0-18.8824-78.4121,227.04,227.04,0,0,0-51.6093-71.2608C379.7085,39.5552,319.5708,16,256,16A240,240,0,0,0,86.2944,425.7056a239.9992,239.9992,0,0,0,337.6709,1.7221l-22.3965-22.8554A206.8245,206.8245,0,0,1,256,464C141.3086,464,48,370.6914,48,256S141.3086,48,256,48c112.7476,0,208,87.9253,208,192v36c0,28.6729-25.1216,52-56,52s-56-23.3271-56-52V160H320v26.7515a99.9876,99.9876,0,1,0,12.55,132.4364C347.9562,343.62,376.01,360,408,360c48.5234,0,88-37.6821,88-84V232ZM252,328a68,68,0,1,1,68-68A68.0773,68.0773,0,0,1,252,328Z"/>
</svg>
