<svg id="export" xmlns="http://www.w3.org/2000/svg" viewBox="0 0 512 512">
  <defs>
    <style>
      .cls-1 {
        fill: currentColor;
      }
    </style>
  </defs>
  <title>envelope-letter</title>
  <path class="cls-1" d="M400,163.1946V68a20.0226,20.0226,0,0,0-20-20H132a20.0226,20.0226,0,0,0-20,20v95.1946L16,231.7661V496H496V231.7661Zm53.6794,77.6675L400,275.96V202.52ZM144,80H368V296.8832L310.8337,334.261l-46.5778-24.1516-50.7642,24.5068L144,292.4249ZM263.7441,345.89,464,449.7266V464H48V450.043ZM48,271.5752l131.1436,79.6229L48,414.5087Zm295.4463,79.596L464,272.3472V413.6808ZM112,202.52v70.4766L58.6663,240.6152Z"/>
</svg>
