<svg id="export" xmlns="http://www.w3.org/2000/svg" viewBox="0 0 512 512">
  <defs>
    <style>
      .cls-1 {
        fill: currentColor;
      }
    </style>
  </defs>
  <title>envelope-minus</title>
  <g>
    <path class="cls-1" d="M16,16V400H224V368H48V352L213.333,228l23.4658,17.5993a32.1652,32.1652,0,0,0,38.4024,0l-.002.0005L464,104V248l32,32V16ZM48,312V104L186.667,208ZM464,64,256,220,48,64V48H464Z"/>
    <rect class="cls-1" x="317.7139" y="358.8569" width="114.2861" height="32"/>
    <path class="cls-1" d="M376,256A120,120,0,1,0,496,376,120,120,0,0,0,376,256Zm0,208a88,88,0,1,1,88-88A88,88,0,0,1,376,464Z"/>
  </g>
</svg>
