<svg id="export" xmlns="http://www.w3.org/2000/svg" viewBox="0 0 512 512">
  <defs>
    <style>
      .cls-1 {
        fill: currentColor;
      }
    </style>
  </defs>
  <title>file-acrobat</title>
  <g>
    <path class="cls-1" d="M334.6274,16H48V496H472V153.3726ZM440,166.6274V168H320V48h1.3726ZM80,464V48H288V200H440V464Z"/>
    <path class="cls-1" d="M326.3525,307.0176,293.16,314.4705a320.5208,320.5208,0,0,1-63.6043-69.0474l12.9133-41.3445A40.3553,40.3553,0,1,0,174.27,219.3911l29.3856,31.8955a320.1438,320.1438,0,0,1-28.3866,90.3743l-32.6679,7.3352a40.374,40.374,0,0,0,8.6518,79.7593,41.21,41.21,0,0,0,9.03-1.0093,39.9471,39.9471,0,0,0,29.68-27.3447l13.5265-43.3106a371.5163,371.5163,0,0,1,71.8632-16.0918l30.162,32.7378a39.8912,39.8912,0,0,0,29.4893,13.04,41.2225,41.2225,0,0,0,9.0308-1.0093,40.3551,40.3551,0,0,0-17.6822-78.75ZM188.3374,187.1719A16.1886,16.1886,0,0,1,200.3657,176.09a16.68,16.68,0,0,1,3.66-.4091,16.3712,16.3712,0,0,1,15.5346,21.2426l-8.4453,27.04L191.92,203.1289A16.1872,16.1872,0,0,1,188.3374,187.1719ZM167.0542,393.2466a16.3555,16.3555,0,1,1-19.1953-20.8335l27.64-6.2061Zm39.2227-62.2153a343.7648,343.7648,0,0,0,16.8383-53.74A344.3183,344.3183,0,0,0,261.3,318.6787,395.5281,395.5281,0,0,0,206.2769,331.0313Zm144.5283,20.2368a16.3557,16.3557,0,0,1-27.64,6.2065L303.97,336.6406l27.64-6.206a16.3552,16.3552,0,0,1,19.1948,20.8335Z"/>
  </g>
</svg>
