<svg id="export" xmlns="http://www.w3.org/2000/svg" viewBox="0 0 512 512">
  <defs>
    <style>
      .cls-1 {
        fill: currentColor;
      }
    </style>
  </defs>
  <title>file-ppt</title>
  <g>
    <path class="cls-1" d="M358.6274,16H72V240H16V496H496V153.3726ZM464,166.6274V168H344V48h1.3726ZM48,464V272H464V464Zm56-224V48H312V200H464v40Z"/>
    <path class="cls-1" d="M148.5,304H100V432h32V400h16.5A47.554,47.554,0,0,0,196,352.5v-1A47.554,47.554,0,0,0,148.5,304ZM164,352.5A15.5173,15.5173,0,0,1,148.5,368H132V336h16.5A15.5173,15.5173,0,0,1,164,351.5Z"/>
    <path class="cls-1" d="M264.5,304H216V432h32V400h16.5A47.554,47.554,0,0,0,312,352.5v-1A47.554,47.554,0,0,0,264.5,304ZM280,352.5A15.5173,15.5173,0,0,1,264.5,368H248V336h16.5A15.5173,15.5173,0,0,1,280,351.5Z"/>
    <polygon class="cls-1" points="328 336 360 336 360 432 392 432 392 336 424 336 424 304 328 304 328 336"/>
  </g>
</svg>
