<svg id="export" xmlns="http://www.w3.org/2000/svg" viewBox="0 0 512 512">
  <defs>
    <style>
      .cls-1 {
        fill: currentColor;
      }
    </style>
  </defs>
  <title>file-archive</title>
  <g>
    <rect class="cls-1" x="152" y="80" width="32" height="32"/>
    <rect class="cls-1" x="184" y="112" width="32" height="32"/>
    <rect class="cls-1" x="152" y="144" width="32" height="32"/>
    <rect class="cls-1" x="184" y="176" width="32" height="32"/>
    <rect class="cls-1" x="152" y="208" width="32" height="32"/>
    <path class="cls-1" d="M137.1836,272l-9.1367,118.7729L128,424H240V392l-9.1836-120Zm22.8638,120,6.769-88h34.3672l6.769,88Z"/>
    <path class="cls-1" d="M334.6274,16H48V496H472V153.3726ZM440,166.6274V168H320V48h1.3726ZM80,464V48H184V80h32V48h72V200H440V464Z"/>
  </g>
</svg>
