<svg id="export" xmlns="http://www.w3.org/2000/svg" viewBox="0 0 512 512">
  <defs>
    <style>
      .cls-1 {
        fill: currentColor;
      }
    </style>
  </defs>
  <title>file-doc</title>
  <g>
    <path class="cls-1" d="M358.627,16H72V240H16V496H496V153.3726ZM464,166.6274V168H344V48h1.373ZM464,464H48V272H464ZM104,240V48H312V200H464v40Z"/>
    <path class="cls-1" d="M192,375.8335v-15.667A56.23,56.23,0,0,0,135.833,304H88V432h47.833A56.23,56.23,0,0,0,192,375.8335ZM120,336h15.833A24.1937,24.1937,0,0,1,160,360.1665v15.667A24.1937,24.1937,0,0,1,135.833,400H120Z"/>
    <path class="cls-1" d="M260,432a52.0589,52.0589,0,0,0,52-52V356a52,52,0,0,0-104,0v24A52.0589,52.0589,0,0,0,260,432Zm-20-76a20,20,0,0,1,40,0v24a20,20,0,0,1-40,0Z"/>
    <path class="cls-1" d="M380,432a51.929,51.929,0,0,0,48.563-33.3748L398.8274,386.731A19.9965,19.9965,0,0,1,360,380V356a19.9965,19.9965,0,0,1,38.8274-6.731l29.7356-11.8942A52.0077,52.0077,0,0,0,328,356v24A52.0589,52.0589,0,0,0,380,432Z"/>
  </g>
</svg>
