<svg id="export" xmlns="http://www.w3.org/2000/svg" viewBox="0 0 512 512">
  <defs>
    <style>
      .cls-1 {
        fill: currentColor;
      }
    </style>
  </defs>
  <title>file-xls</title>
  <g>
    <path class="cls-1" d="M358.627,16H72V240H16V496H496V153.3726ZM464,166.6274V168H344V48h1.373ZM48,464V272H464V464Zm56-224V48H312V200H464v40Z"/>
    <polygon class="cls-1" points="174.977 302.667 150.534 338.613 126.09 302.667 87.393 302.667 131.185 367.067 87.393 431.467 126.09 431.467 150.534 395.52 174.977 431.467 213.674 431.467 169.882 367.067 213.674 302.667 174.977 302.667"/>
    <polygon class="cls-1" points="265.333 304 233.333 304 233.333 432 313.333 432 313.333 400 265.333 400 265.333 304"/>
    <path class="cls-1" d="M384,352H368a8,8,0,0,1,0-16h40V304H368a40,40,0,0,0,0,80h16a8,8,0,0,1,0,16H336v32h48a40,40,0,0,0,0-80Z"/>
  </g>
</svg>
