<svg id="export" xmlns="http://www.w3.org/2000/svg" viewBox="0 0 512 512">
  <defs>
    <style>
      .cls-1 {
        fill: currentColor;
      }
    </style>
  </defs>
  <title>folder-plus</title>
  <g>
    <polygon class="cls-1" points="320 368 352 368 352 304 416 304 416 272 352 272 352 208 320 208 320 272 256 272 256 304 320 304 320 368"/>
    <path class="cls-1" d="M472,104H269.3335L248.8208,54.77A23.9358,23.9358,0,0,0,226.667,40H40A24.0275,24.0275,0,0,0,16,64V448a24.0275,24.0275,0,0,0,24,24H472a24.0275,24.0275,0,0,0,24-24V128A24.0275,24.0275,0,0,0,472,104Zm-8,336H48V72H221.3335l26.667,64H464Z"/>
  </g>
</svg>
