<svg id="export" xmlns="http://www.w3.org/2000/svg" viewBox="0 0 512 512">
  <defs>
    <style>
      .cls-1 {
        fill: currentColor;
      }
    </style>
  </defs>
  <title>library-books</title>
  <g>
    <path class="cls-1" d="M472,16H168a24.0275,24.0275,0,0,0-24,24V344a24.0275,24.0275,0,0,0,24,24H472a24.0275,24.0275,0,0,0,24-24V40A24.0275,24.0275,0,0,0,472,16Zm-8,320H176V48H464Z"/>
    <path class="cls-1" d="M112,400V80H80V408a24,24,0,0,0,24,24H432V400Z"/>
    <path class="cls-1" d="M48,464V144H16V472a24,24,0,0,0,24,24H368V464Z"/>
    <rect class="cls-1" x="224" y="96" width="192" height="32"/>
    <rect class="cls-1" x="224" y="160" width="192" height="32"/>
    <rect class="cls-1" x="224" y="224" width="128" height="32"/>
  </g>
</svg>
