<svg id="export" xmlns="http://www.w3.org/2000/svg" viewBox="0 0 512 512">
  <defs>
    <style>
      .cls-1 {
        fill: currentColor;
      }
    </style>
  </defs>
  <title>library-bookmark</title>
  <g>
    <path class="cls-1" d="M472,16H168a24.0275,24.0275,0,0,0-24,24V344a24.0275,24.0275,0,0,0,24,24H472a24.0275,24.0275,0,0,0,24-24V40A24.0275,24.0275,0,0,0,472,16ZM400,48.333V221.1494l-48.3975-42.49L304,220.8994V48.333ZM464,336H176V48h96V264h31.6406l48.0752-42.6592L400.3047,264H432V48h32Z"/>
    <path class="cls-1" d="M112,400V80H80V408a24,24,0,0,0,24,24H432V400Z"/>
    <path class="cls-1" d="M48,464V144H16V472a24,24,0,0,0,24,24H368V464Z"/>
  </g>
</svg>
