<svg id="export" xmlns="http://www.w3.org/2000/svg" viewBox="0 0 512 512">
  <defs>
    <style>
      .cls-1 {
        fill: currentColor;
      }
    </style>
  </defs>
  <title>note</title>
  <g>
    <path class="cls-1" d="M408.1572,464.2861h-360v-368h240l32-32h-280a24.0275,24.0275,0,0,0-24,24v384a24.0275,24.0275,0,0,0,24,24h376a24.0275,24.0275,0,0,0,24-24v-272l-32,32Z"/>
    <path class="cls-1" d="M478.3989,33.6006a60.16,60.16,0,0,0-84.9829,0L190.751,236.2666l-19.9229,84.07-.145.6768a17.3431,17.3431,0,0,0,20.294,20.3056l84.7573-20.07,202.665-202.665A60.1614,60.1614,0,0,0,478.3989,33.6006ZM455.772,95.957,259.5244,292.2041,207.457,304.543l12.3389-52.0664L416.0435,56.2275A28.0926,28.0926,0,0,1,455.772,95.957Z"/>
  </g>
</svg>
