<svg id="export" xmlns="http://www.w3.org/2000/svg" viewBox="0 0 512 512">
  <defs>
    <style>
      .cls-1 {
        fill: currentColor;
      }
    </style>
  </defs>
  <title>paperclip</title>
  <path class="cls-1" d="M153.4561,472a136,136,0,0,1-96.167-232.166L253.8926,43.2305,276.52,65.8574,79.916,262.4609A104,104,0,0,0,226.9951,409.5391l207.917-207.917A72,72,0,0,0,333.0879,99.7988l-207.917,207.917a40,40,0,1,0,56.5684,56.5684L361.373,184.6523,384,207.2793,204.3672,386.9111A72,72,0,0,1,102.5439,285.0889l207.917-207.917A104,104,0,1,1,457.5391,224.249L249.6221,432.166A135.1077,135.1077,0,0,1,153.4561,472Z"/>
</svg>
