<svg id="export" xmlns="http://www.w3.org/2000/svg" viewBox="0 0 512 512">
  <defs>
    <style>
      .cls-1 {
       fill: currentColor;
      }
    </style>
  </defs>
  <title>comment-square-rate-review</title>
  <path class="cls-1" d="M456,32H56A24,24,0,0,0,32,56V328a24,24,0,0,0,24,24H388.7666l69.522,128H480V56A24,24,0,0,0,456,32ZM98.4761,287.98a1.1052,1.1052,0,0,1-1.2935-1.2935l15.4854-65.3457L226.252,107.7567a36.1713,36.1713,0,0,1,51.1538,0h0a36.1716,36.1716,0,0,1,0,51.1538L163.8218,272.4944ZM384,298H202l36-36H384Z"/>
</svg>
