<svg id="export" xmlns="http://www.w3.org/2000/svg" viewBox="0 0 512 512">
  <defs>
    <style>
      .cls-1 {
       fill: currentColor;
      }

      .cls-2 {
        fill: none;
      }
    </style>
  </defs>
  <title>speech-notes-slash</title>
  <path class="cls-1" d="M466.7,496h.2878l-.1323-.1323C466.8027,495.9114,466.7516,495.9562,466.7,496Z"/>
  <path class="cls-2" d="M16,46.687c.3314-.2262.6576-.4595.99-.6847l-.99-.99Z"/>
  <g>
    <polygon class="cls-1" points="398.385 368 336.385 306 336.385 306 300.385 270 300.385 270 256.385 226 256.385 226 220.385 190 220.385 190 144 113.615 144 113.615 140.385 110 140.385 110 78.385 48 78.385 48 46.385 16 16 16 16 45.013 16.99 46.002 16.99 46.002 466.855 495.867 466.855 495.868 466.987 496 496 496 496 465.615 496 465.615 398.385 368"/>
    <path class="cls-1" d="M192,110H416v36H227.297l44,44H416v36H307.297l44,44H416v36H387.297l62,62H464a16,16,0,0,0,16-16V64a16,16,0,0,0-16-16H129.297L192,110.703Z"/>
    <path class="cls-1" d="M32,352a16,16,0,0,0,16,16h80V480h8L248,368h40.0762L32,111.9238Zm72-82h40v36H104Z"/>
  </g>
</svg>
