<svg id="export" xmlns="http://www.w3.org/2000/svg" viewBox="0 0 512 512">
  <defs>
    <style>
      .cls-1, .cls-2 {
        fill:currentColor;
      }

      .cls-1 {
        opacity: 0.25;
      }
    </style>
  </defs>
  <title>taxi</title>
  <rect class="cls-1" x="16" y="104" width="480" height="272"/>
  <g>
    <path class="cls-2" d="M240.4014,176H194.4482l-39.44,128h33.4852l7.3947-24h45.449l8,24h33.7307Zm-34.6529,72L217.72,209.1475,230.6707,248Z"/>
    <polygon class="cls-2" points="112 176 48 176 40 176 40 208 48 208 80 208 80 304 112 304 112 208 152 208 152 176 112 176"/>
    <polygon class="cls-2" points="416.683 176 378.517 176 356 210.642 333.483 176 295.317 176 336.917 240 295.317 304 333.483 304 356 269.358 378.517 304 416.683 304 375.083 240 416.683 176"/>
    <polygon class="cls-2" points="440 304 464 304 472 304 472 176 464 176 440 176 440 304"/>
  </g>
</svg>
