<svg xmlns="http://www.w3.org/2000/svg" id="export" viewBox="0 0 512 512">
  <defs>
    <style>
      .cls-1{fill:currentColor}
    </style>
  </defs>
  <path d="M332.3564,195l-28.328-50.99L289,139,243.586,123.8621l-12.3421-4.1141-73.1531,26.6006A29.0881,29.0881,0,0,0,139,173.6035V232h42V182.709l37.0667-13.479-28.9454,88.7023-1.114-.3581L129.3705,440h44.1162l48.4219-150.6459L259,357.3555V440h42V354.04a29.0775,29.0775,0,0,0-3.541-13.8867l-37.185-68.1727,24.7192-75.7514,14.3632,25.8538A29.0162,29.0162,0,0,0,324.707,237H376V195Z" class="cls-1"/>
  <circle cx="292" cy="76" r="36" class="cls-1"/>
</svg>
