<svg xmlns="http://www.w3.org/2000/svg" id="export" viewBox="0 0 512 512">
  <defs>
    <style>
      .cls-1{fill:currentColor}
    </style>
  </defs>
  <path d="M325.8329,32.6511q4.268-1.5823,8.5818-2.8218Q330.1036,31.07,325.8329,32.6511Z" class="cls-1"/>
  <path d="M452.415,218.9771c-10.8618-27.8394-28.3046-49.2793-50.4423-62.003A98.0918,98.0918,0,0,0,390.6,151.3806a155.202,155.202,0,0,1-19.9457,26.9619c-.7386.8012-1.4821,1.5987-2.2389,2.3861a155.1274,155.1274,0,0,1-51.0021,35.2338A156.4334,156.4334,0,0,1,288,225.2905V188.23c.3251-.0906,40-12.23,54.4271-32.4148,1.2273-1.717,2.8792-3.08,4.2542-4.67q2.4952-2.8857,4.7923-5.9148.4376-.576.8669-1.1572c.0221-.03.0437-.06.0658-.09q1.8013-2.438,3.4733-4.9585,1.6068-2.4207,3.0926-4.9124,1.5705-2.6334,3.0034-5.3406.6542-1.2356,1.2791-2.4852c1.0746-2.1486,2.0924-4.3246,3.0364-6.5321q1.1328-2.6492,2.1384-5.35,2.01-5.4,3.5014-10.98c.3048-1.1416.5871-2.29.8585-3.4407.391-1.6588.753-3.3254,1.0736-5.0017q1.0865-5.6784,1.6256-11.4687.1341-1.446.2333-2.897.1983-2.9019.2555-5.8208.0284-1.4589.0211-2.9214-.0145-2.9241-.1732-5.8584-.08-1.4667-.1954-2.9348-.2319-2.936-.6109-5.874a119.45,119.45,0,0,0-3.6286-17.57q-.5208-1.82-1.102-3.6334-1.7439-5.4393-4.0388-10.8014l-.0114-.0254q-2.8879.0291-5.785.1984a119.3352,119.3352,0,0,0-26.0385,4.4545q-4.3111,1.2405-8.5818,2.8218-1.4226.5276-2.8394,1.0935t-2.8268,1.1706a121.4894,121.4894,0,0,0-11.0383,5.4084q-1.33.7377-2.636,1.5056-3.2635,1.9191-6.3684,4.0192-3.1042,2.0984-6.0456,4.3682-2.3527,1.8141-4.5988,3.7326t-4.3833,3.9339q-2.1372,2.0155-4.1639,4.1248-2.5329,2.6358-4.89,5.41t-4.5333,5.6739c-.7571,1.0087-1.4913,2.0324-2.2152,3.0629q-.9095,1.2951-1.7829,2.6127-1.8405,2.7728-3.5259,5.6366T260.78,90.2167q-.66,1.2814-1.2894,2.5781c-.71,1.4637-1.3842,2.9445-2.0347,4.4352q-.4147.9507-.8122,1.9085a120.8065,120.8065,0,0,0-4.21,11.8063q-.1869.6253-.3673,1.2528-.6281,2.1876-1.1741,4.4-.1491.6045-.2916,1.2109a120.1584,120.1584,0,0,0-2.6991,16.4706q-.3983,4.2933-.486,8.628-.03,1.5037-.024,3.011.0072,1.4622.05,2.927c.0311,1.0511.4983,18.1028.5573,19.1553,0,0-52.87-21.2452-60.8452-22.5122-24.9429-3.9619-47.811-.0982-67.9678,11.4863-22.1377,12.7232-39.5806,34.1636-50.4424,62.0025-9.874,25.3071-13.6079,54.8173-10.5136,83.0942C68.3726,394.7524,97.89,457.0986,143.5923,482.3691A99.9086,99.9086,0,0,0,192.69,494.9126c19.5855,0,40.6289-5.1948,62.9751-15.5757h9.83C307.8887,499.03,345.58,500.0562,377.5664,482.37c45.7026-25.271,75.22-87.6172,85.3623-180.2988C466.0229,273.7939,462.2891,244.2842,452.415,218.9771Z" class="cls-1"/>
</svg>
