<svg xmlns="http://www.w3.org/2000/svg" id="export" viewBox="0 0 512 512">
  <defs>
    <style>
      .cls-1{fill:currentColor}
    </style>
  </defs>
  <path d="M200,390v36H112v38a16,16,0,0,0,16,16H384a16,16,0,0,0,16-16V426H312V390h88V122H112V390Zm74,36H238V390h36ZM259.1494,158.06A81.3087,81.3087,0,0,1,274,318.5938V360H238V311.2627a27.3219,27.3219,0,0,1,23.8208-27.0347,45.303,45.303,0,1,0-51.1191-44.93h-36A81.2993,81.2993,0,0,1,259.1494,158.06Z" class="cls-1"/>
  <path d="M400,48a16,16,0,0,0-16-16H128a16,16,0,0,0-16,16V86H400Z" class="cls-1"/>
</svg>
