<svg xmlns="http://www.w3.org/2000/svg" viewBox="0 0 512 512">
  <path fill="currentColor" d="M477.54,374l-41-40.94,23.47-23.48a8,8,0,0,0,0-11.31L424.77,263a8,8,0,0,0-11.31,0l-58.93,58.93L191.41,158.78l58.93-58.93a8,8,0,0,0,0-11.32L215.05,53.24a8,8,0,0,0-11.31,0L180.27,76.71l-41-40.95a8,8,0,0,0-11.31,0L34.46,129.31a8,8,0,0,0,0,11.31l40.95,40.95L51.94,205a8,8,0,0,0,0,11.32l35.29,35.29a8,8,0,0,0,11.31,0l58.93-58.93L320.59,355.83l-58.93,58.93a8,8,0,0,0,0,11.32L297,461.37a8,8,0,0,0,11.31,0l23.47-23.47,40.95,40.94a8,8,0,0,0,11.31,0l93.55-93.54A8,8,0,0,0,477.54,374Z"/>
</svg>
