<svg xmlns="http://www.w3.org/2000/svg" id="export" viewBox="0 0 512 512">
  <defs>
    <style>
      .cls-1{fill:currentColor}
    </style>
  </defs>
  <path d="M336.2224,225.989l37.41,30.0376a140.3594,140.3594,0,0,0-.189-176.2876l-37.3457,30.1174a92.4644,92.4644,0,0,1,.1245,116.1326Z" class="cls-1"/>
  <path d="M438.3745,27.3755l-37.44,30.1938a175.6141,175.6141,0,0,1,.2363,220.5682L438.6743,308.25a224.0553,224.0553,0,0,0-.3-280.8747Z" class="cls-1"/>
  <path d="M354.189,373.1616l-99.8616-63.1045,38.4163-60.3686A72,72,0,0,0,304,211.0334V120a104,104,0,0,0-208,0v91.0334a72,72,0,0,0,11.2563,38.6551l38.4163,60.3686L45.8113,373.1616A64,64,0,0,0,16,427.2646v69.3067L384,496V427.2646A64,64,0,0,0,354.189,373.1616Z" class="cls-1"/>
</svg>
