<svg xmlns="http://www.w3.org/2000/svg" id="export" viewBox="0 0 512 512">
  <defs>
    <style>
      .cls-1{fill:currentColor}
    </style>
  </defs>
  <rect width="480" height="32" x="16" y="16" class="cls-1"/>
  <rect width="480" height="32" x="16" y="464" class="cls-1"/>
  <circle cx="87.371" cy="160.097" r="73.37" class="cls-1" transform="rotate(-22.5 87.37 160.096)"/>
  <path d="M274.3105,233.4673A61.4673,61.4673,0,1,0,212.8428,172,61.5369,61.5369,0,0,0,274.3105,233.4673Z" class="cls-1"/>
  <path d="M435.5156,233.4673a47.6368,47.6368,0,1,0-47.6367-47.6367A47.691,47.691,0,0,0,435.5156,233.4673Z" class="cls-1"/>
  <circle cx="87.371" cy="355.979" r="73.37" class="cls-1" transform="rotate(-10.901 87.37 355.978)"/>
  <path d="M274.3105,405.543a61.4676,61.4676,0,1,0-61.4677-61.4673A61.5369,61.5369,0,0,0,274.3105,405.543Z" class="cls-1"/>
  <path d="M435.5156,377.8818a47.637,47.637,0,1,0-47.6367-47.6367A47.691,47.691,0,0,0,435.5156,377.8818Z" class="cls-1"/>
</svg>
