<svg xmlns="http://www.w3.org/2000/svg" viewBox="0 0 512 512">
  <path fill="currentColor" d="M430.481,236.9247a68.5152,68.5152,0,0,0-23.9414-1.8565L368,238.9474V152.39a8,8,0,0,0-8.38-7.991l-100.3447,4.7784,4.4089-43.8014a68.5168,68.5168,0,0,0-1.8567-23.9416c-7.75-28.9138-33.6459-49.5189-65.3913-49.5189s-57.6414,20.6051-65.3916,49.5189a68.5192,68.5192,0,0,0-1.8567,23.9416l4.3745,43.46L40.38,144.399A8,8,0,0,0,32,152.39V471.61a8,8,0,0,0,8.38,7.9909l92.2517-4.393-3.4446-34.2205a68.5192,68.5192,0,0,1,1.8567-23.9416c7.75-28.9139,33.6462-49.5189,65.3916-49.5189s57.6413,20.605,65.3913,49.5189a68.5168,68.5168,0,0,1,1.8567,23.9416l-3.41,33.8827,99.3462,4.7308A8,8,0,0,0,368,471.61V365.6851l38.54,3.8792a68.5152,68.5152,0,0,0,23.9414-1.8565c28.914-7.75,49.519-33.6462,49.519-65.3916S459.395,244.6749,430.481,236.9247Z"/>
</svg>
