<svg xmlns="http://www.w3.org/2000/svg" viewBox="0 0 512 512">
  <path fill="currentColor" d="M389.0527,126.3013A302.8966,302.8966,0,0,0,280.0117,18.15L272,13.5156,263.9883,18.15A301.0834,301.0834,0,0,0,113.3965,279.0415c0,3.4458.06,6.9448.1767,10.3994,1.5918,46.856,19.5108,86.2827,51.8194,114.0186C186.95,421.9653,213.8216,434.187,243,439.0643V496h42V440.9758c.3334-.0244.6671-.0475,1-.0738V140.8h0a236.84,236.84,0,0,1,36,125.5246V434.1658A155.8879,155.8879,0,0,0,378.6074,403.46c32.3086-27.7359,50.2276-67.1626,51.8194-114.0176.1171-3.4556.1767-6.9546.1767-10.4A300.9377,300.9377,0,0,0,389.0527,126.3013Z"/>
</svg>
