<svg xmlns="http://www.w3.org/2000/svg" id="export" viewBox="0 0 512 512">
  <defs>
    <style>
      .cls-1{fill:currentColor}
    </style>
  </defs>
  <path d="M282.7656,81.9053l42.7725,72.6319L279.67,185.1609l3.1983,4.79L393.7065,212.04,416,100.1732,413.2139,96l-47.6914,31.8415L324.127,57.5479a72,72,0,0,0-124.0831,0l-24.0683,40.87,15.6113,68.0842,49.8184-84.5971v-.0005a23.9993,23.9993,0,0,1,41.36.0005Z" class="cls-1"/>
  <path d="M85.5645,370.3633a23.5661,23.5661,0,0,1,.1562-24.0884l42.5059-72.18L176.5117,304l3.0322-4.8965L153.6812,189.0851,42.6421,215.1879,40,219.4539l47.4082,29.3615L44.3594,321.9175a72,72,0,0,0,62.042,108.5356h49.34l48-48H106.4014A23.5658,23.5658,0,0,1,85.5645,370.3633Z" class="cls-1"/>
  <path d="M479.8115,321.9175l-31.9057-54.1792L386.1836,257.52,438.45,346.2744A24,24,0,0,1,417.77,382.4531H333.3716l-.6582-55.0739-5.7593.0688L248,408.3132,329.6152,488l5.0176-.06-.687-57.4869H417.77a72.0007,72.0007,0,0,0,62.042-108.5356Z" class="cls-1"/>
</svg>
