<svg xmlns="http://www.w3.org/2000/svg" id="export" viewBox="0 0 512 512">
  <defs>
    <style>
      .cls-1{fill:currentColor}
    </style>
  </defs>
  <path d="M480,80H32A16,16,0,0,0,16,96v64A264,264,0,0,1,280,424H480a16,16,0,0,0,16-16V96A16,16,0,0,0,480,80ZM432,265.8887l-64,32-64-32V230.1113l64,32,64-32ZM456,188l-88,44-88-44V172l88-44,88,44Z" class="cls-1"/>
  <path d="M16,360v64H80A64,64,0,0,0,16,360Z" class="cls-1"/>
  <path d="M16.2539,280.6348v48a95.219,95.219,0,0,1,95.1113,95.1113h48C159.3652,344.8345,95.166,280.6348,16.2539,280.6348Z" class="cls-1"/>
  <path d="M16.3936,197.5083v48c98.2041,0,178.0986,79.8945,178.0986,178.0981h48A224.6183,224.6183,0,0,0,176.27,263.731,224.6186,224.6186,0,0,0,16.3936,197.5083Z" class="cls-1"/>
</svg>
