<svg xmlns="http://www.w3.org/2000/svg" id="export" viewBox="0 0 512 512">
  <defs>
    <style>
      .cls-1{fill:currentColor}
    </style>
  </defs>
  <path d="M372.4727,269.9448l-37.2134,53.146a174.0759,174.0759,0,0,0-158.5186,0L51.2324,143.8467A389.8461,389.8461,0,0,1,256,86.1279q18.6266,0,37,1.7393V39.7024q-18.4278-1.5531-37-1.5745A439.8435,439.8435,0,0,0,8,114.7007V165.79L228.0122,480h55.9756l142.54-203.5686a120.7334,120.7334,0,0,1-13.0926.717A119.441,119.441,0,0,1,372.4727,269.9448Z" class="cls-1"/>
  <path d="M471.9355,104V75.5273a60.25,60.25,0,0,0-120.5,0V104h-22v53.1484a84,84,0,0,0,168,0V104Zm-36-2h-48.5V75.5273a24.25,24.25,0,0,1,48.5,0Z" class="cls-1"/>
</svg>
