<svg xmlns="http://www.w3.org/2000/svg" id="export" viewBox="0 0 512 512">
  <defs>
    <style>
      .cls-1{fill:currentColor}
    </style>
  </defs>
  <path d="M395.8354,319.1372l29.9681,29.968a172.4645,172.4645,0,0,0,2.094-26.8039,170.52,170.52,0,0,0-33.2632-101.6372L269.4751,25.1743a16,16,0,0,0-26.95,0L187.624,110.9258l23.1653,23.1653Z" class="cls-1"/>
  <path d="M45.6985,16.6667H16v29.698l129.834,129.834L117.3652,220.665A170.525,170.525,0,0,0,84.1025,322.3013c0,94.7846,77.1128,171.8974,171.8975,171.8974a171.7544,171.7544,0,0,0,138.1322-69.7018l72.17,72.17H496V466.9683Z" class="cls-1"/>
</svg>
