<svg xmlns="http://www.w3.org/2000/svg" id="export" viewBox="0 0 512 512">
  <defs>
    <style>
      .cls-1{fill:currentColor}
    </style>
  </defs>
  <path d="M440.0621,410.0029,342.0593,312l-40-40h-.0837l-40-40-20.6907-20.6907.0349-.0488L101.9973,71.9377l-.0455.0384L45.9756,16H16V45.4219l56.23,56.23A239.0169,239.0169,0,0,0,16,256c0,132.5483,107.4517,240,240,240a239.0179,239.0179,0,0,0,154.3483-56.23l56.23,56.23H496V466.0244l-55.9762-55.9761ZM176,232h26.5781l40,40H176ZM280,352v48H232V352H176V312H282.5781l40,40Z" class="cls-1"/>
  <path d="M316.47,106.05l39.06,27.9-58.5871,82.022L312.9707,232H336v23.0291L461.3157,380.345A238.8785,238.8785,0,0,0,496,256C496,123.4517,388.5483,16,256,16A238.88,238.88,0,0,0,131.6551,50.6841L262.5328,181.562Z" class="cls-1"/>
</svg>
