<svg xmlns="http://www.w3.org/2000/svg" viewBox="0 0 512 512">
  <path fill="currentColor" d="M472,16H40A24.0275,24.0275,0,0,0,16,40V472a24.0275,24.0275,0,0,0,24,24H472a24.0275,24.0275,0,0,0,24-24V40A24.0275,24.0275,0,0,0,472,16ZM369.1371,369.1371l-63.0957-9.0137-11.987,5.1372L256,416l-38.2417-50.989L205.65,360.1676l-62.7868,8.9695,9.0137-63.0957-5.1372-11.987L96,256l50.989-38.2418,4.8434-12.1085-8.97-62.7868,63.0957,9.0137,11.987-5.1373L256,96l38.2417,50.9889,12.1086,4.8435,62.7868-8.97-9.0137,63.0957,5.1372,11.9867L416,256l-50.989,38.2417L360.1676,306.35Z"/>
</svg>
