<svg xmlns="http://www.w3.org/2000/svg" id="export" viewBox="0 0 512 512">
  <defs>
    <style>
      .cls-1{fill:currentColor}
    </style>
  </defs>
  <polygon points="431.456 314 394.971 314 462.232 381.261 495.768 414.797 495.768 249.688 462.232 283.224 431.456 314" class="cls-1"/>
  <path d="M495.7681,465.793v-.084l-33.5362-33.5362L344.0593,314h-.0844l-36-36h.0844L175.8275,145.7681,156.55,126.4905l-2.3822-2.3822-11.8763-11.8764h-.0847L45.9746,16H16V45.4219l66.81,66.81H41A24.7961,24.7961,0,0,0,16.2319,137v61.776l33.5362,33.5363L95.4556,278H248.5784l36,36H80.5439L49.7681,283.2241,16.2319,249.688V471.0327A24.7961,24.7961,0,0,0,41,495.8008H466.3794l.1992.1992H496V466.0249Z" class="cls-1"/>
  <path d="M226.7389,145.7681l89.8287,89.8288h0L358.9709,278h57.5735l45.6875-45.6877,33.5362-33.5363V137A24.7961,24.7961,0,0,0,471,112.2319H368.3936l.05-95.87h-214.22l-.03,56.8615,41.9783,41.9783ZM196.2021,58.3618h130.22l-.0282,53.87H196.174Z" class="cls-1"/>
</svg>
