<svg xmlns="http://www.w3.org/2000/svg" id="export" viewBox="0 0 512 512">
  <defs>
    <style>
      .cls-1{fill:currentColor}
    </style>
  </defs>
  <path d="M135.8306,383.4951a16.3555,16.3555,0,1,0,31.2236,9.7515l8.4448-27.04-27.64,6.2061A16.1892,16.1892,0,0,0,135.8306,383.4951Z" class="cls-1"/>
  <path d="M223.1152,277.291a343.7648,343.7648,0,0,1-16.8383,53.74A395.5281,395.5281,0,0,1,261.3,318.6787,344.3183,344.3183,0,0,1,223.1152,277.291Z" class="cls-1"/>
  <path d="M338.7769,362.35a16.3551,16.3551,0,1,0-7.1665-31.9155l-27.64,6.206,19.1948,20.834A16.1893,16.1893,0,0,0,338.7769,362.35Z" class="cls-1"/>
  <path d="M219.5605,196.9233a16.3712,16.3712,0,0,0-15.5346-21.2426,16.68,16.68,0,0,0-3.66.4091,16.3548,16.3548,0,0,0-8.4453,27.0391l19.1948,20.8345Z" class="cls-1"/>
  <path d="M286,32H64V480H456V202H286Zm40.3525,275.0176a40.3551,40.3551,0,0,1,17.6822,78.75,41.2225,41.2225,0,0,1-9.0308,1.0093,39.8912,39.8912,0,0,1-29.4893-13.04L275.3525,340.999a371.5144,371.5144,0,0,0-71.863,16.0918l-13.5266,43.3106a39.9471,39.9471,0,0,1-29.68,27.3447,41.21,41.21,0,0,1-9.03,1.0093,40.3713,40.3713,0,0,1-8.6518-79.7593l32.6679-7.3352a320.1468,320.1468,0,0,0,28.3865-90.3743L174.27,219.3911a40.3549,40.3549,0,1,1,68.1992-15.3125l-12.9133,41.3445A320.5208,320.5208,0,0,0,293.16,314.4705Z" class="cls-1"/>
  <polygon points="456 166 456 160 328 32 322 32 322 166 456 166" class="cls-1"/>
</svg>
