<svg xmlns="http://www.w3.org/2000/svg" id="export" viewBox="0 0 512 512">
  <defs>
    <style>
      .cls-1{fill:currentColor}
    </style>
  </defs>
  <polygon points="481.414 255.959 424.578 199.124 424.578 199.124 424.537 199.165 315.516 90.144 315.516 90.144 258.681 146.979 367.702 256 258.681 365.021 315.516 421.856 315.516 421.856 424.537 312.835 424.578 312.876 424.578 312.876 481.414 256.041 481.372 256 481.414 255.959" class="cls-1"/>
  <polygon points="260.164 256 260.205 255.959 203.37 199.124 203.329 199.165 94.308 90.144 37.473 146.979 146.494 256 37.473 365.021 94.308 421.856 203.329 312.835 203.37 312.876 260.205 256.041 260.164 256" class="cls-1"/>
</svg>
