<svg xmlns="http://www.w3.org/2000/svg" id="export" viewBox="0 0 512 512">
  <defs>
    <style>
      .cls-1{fill:currentColor}
    </style>
  </defs>
  <path d="M205.9844,296l-34.909-96H66.2871v96H16V448a48.054,48.054,0,0,0,48,48H448a48.054,48.054,0,0,0,48-48V296ZM136,432H88V360h48Zm96,0H184V360h48Zm96,0H280V360h48Zm96,0H376V360h48Z" class="cls-1"/>
  <path d="M301,200a15.3793,15.3793,0,0,1,9.332-14.1519l11.88-5.0918a57.3971,57.3971,0,0,0,0-105.5126l-11.8814-5.0918A15.38,15.38,0,0,1,301,56V16H259V56a57.3322,57.3322,0,0,0,34.7871,52.7563l11.8814,5.0918a15.3968,15.3968,0,0,1,0,28.3038l-11.88,5.0918A57.3319,57.3319,0,0,0,259,200v48h42Z" class="cls-1"/>
  <path d="M413,200a15.3793,15.3793,0,0,1,9.332-14.1519l11.88-5.0918a57.3971,57.3971,0,0,0,0-105.5126l-11.8814-5.0918A15.38,15.38,0,0,1,413,56V16H371V56a57.3322,57.3322,0,0,0,34.7871,52.7563l11.8814,5.0918a15.3968,15.3968,0,0,1,0,28.3038l-11.88,5.0918A57.3319,57.3319,0,0,0,371,200v48h42Z" class="cls-1"/>
  <circle cx="120" cy="128" r="48" class="cls-1"/>
</svg>
