<svg xmlns="http://www.w3.org/2000/svg" viewBox="0 0 512 512">
  <path fill="currentColor" d="M391.9707,345.374l-21.7651-33.6833,123.737-120.3928H402.1675L334.7788,256.865l-13.5522-20.9734A95.6214,95.6214,0,0,0,240.6079,192H192.4712l14.6567-68.1943A15.4613,15.4613,0,0,1,220.9248,112H296V48H220.0791l-1.3174.0273A79.45,79.45,0,0,0,144.69,109.7505L127.012,192H47.8936v64h65.3632L84.8438,388.2A15.4622,15.4622,0,0,1,71.0479,400H16v64H72.5522l.6582-.0273A79.4494,79.4494,0,0,0,147.2832,402.25L178.7161,256h61.8918a31.8638,31.8638,0,0,1,26.8643,14.626l20.5219,31.7593L163.0015,424h91.7749l68.6445-66.7891,14.7959,22.898A95.6215,95.6215,0,0,0,418.8354,424H480V360H418.8354A31.8645,31.8645,0,0,1,391.9707,345.374Z"/>
</svg>
