<svg xmlns="http://www.w3.org/2000/svg" viewBox="0 0 512 512">
  <path fill="currentColor" d="M256,498A242,242,0,0,0,427.12,84.88,242,242,0,0,0,84.88,427.12,240.4176,240.4176,0,0,0,256,498ZM218.9462,337.4124a30.3532,30.3532,0,1,1,0-42.9258A30.3531,30.3531,0,0,1,218.9462,337.4124ZM227.12,413.5a29.637,29.637,0,1,1-29.6369-29.637A29.637,29.637,0,0,1,227.12,413.5Zm-8.174-195.9866a30.3532,30.3532,0,1,1,0-42.9258A30.3529,30.3529,0,0,1,218.9462,217.5134ZM167.8463,98.5a29.637,29.637,0,1,1,29.637,29.637A29.637,29.637,0,0,1,167.8463,98.5ZM128.137,197.4833A29.637,29.637,0,1,1,98.5,167.8463,29.6369,29.6369,0,0,1,128.137,197.4833ZM98.5,284.88a29.6369,29.6369,0,1,1-29.637,29.6368A29.6369,29.6369,0,0,1,98.5,284.88Zm344.637-87.3966a29.637,29.637,0,1,1-29.637-29.637A29.6369,29.6369,0,0,1,443.137,197.4833ZM293.0538,174.5876a30.3532,30.3532,0,1,1,0,42.9258A30.3531,30.3531,0,0,1,293.0538,174.5876ZM284.88,98.5a29.637,29.637,0,1,1,29.637,29.637A29.637,29.637,0,0,1,284.88,98.5Zm8.174,195.9866a30.3532,30.3532,0,1,1,0,42.9258A30.3529,30.3529,0,0,1,293.0538,294.4866Zm51.1,119.0134a29.637,29.637,0,1,1-29.6369-29.637A29.637,29.637,0,0,1,344.1537,413.5Zm39.7094-98.9833A29.637,29.637,0,1,1,413.5,344.1537,29.6368,29.6368,0,0,1,383.8631,314.5167Z"/>
</svg>
