<svg xmlns="http://www.w3.org/2000/svg" id="export" viewBox="0 0 512 512">
  <defs>
    <style>
      .cls-1{fill:currentColor}
    </style>
  </defs>
  <path d="M447.3481,271.8328a190.699,190.699,0,0,1-15.4472,61.3685L392,280H224V216l32-24,44.2388,8.8477A119.3847,119.3847,0,0,1,292,157.1484V72h-.2766V18.65A240.2812,240.2812,0,0,0,56,123.3151,238.8612,238.8612,0,0,0,16,256c0,110.3828,74.5251,203.3464,176,231.3562A239.9791,239.9791,0,0,0,496,256q0-6.4951-.3474-12.9053A120.1063,120.1063,0,0,1,447.3481,271.8328ZM252,416l-30.9014,28.8413a192.1845,192.1845,0,0,1-133.8-280.6731L136,208v64l68,72h48Z" class="cls-1"/>
  <path d="M470.5,104h0V75.5273c0-.8309-.0293-1.6549-.063-2.4777-.0083-.2052-.0051-.4133-.0156-.618-.0073-.1449-.0244-.2871-.0327-.4316-.0513-.8828-.1277-1.7588-.2161-2.6313-.033-.3228-.073-.6435-.1111-.9647q-.0937-.7971-.2077-1.5878c-.0589-.4046-.1189-.8087-.1858-1.2107-.0684-.4147-.1468-.8261-.2237-1.2379-.2443-1.3068-.5156-2.6043-.8444-3.88a59.7666,59.7666,0,0,0-2.8421-8.39c-.1326-.3131-.2822-.6171-.42-.9275-.1589-.3578-.3186-.715-.4841-1.0691q-.2931-.6266-.5989-1.2459c-.1875-.3783-.3823-.7524-.5777-1.1262-.1555-.2977-.3-.6021-.46-.8969-.0755-.1386-.1594-.2718-.2359-.41q-.5031-.9078-1.0346-1.7974c-.2114-.3524-.4322-.6985-.65-1.0461-.241-.3836-.4844-.7655-.7337-1.1433-.1245-.1888-.24-.3839-.3664-.5712-.1035-.1529-.2161-.2988-.3208-.4507-.2864-.4152-.5806-.8245-.877-1.2322-.2026-.279-.4-.562-.6076-.8375q-.7119-.9445-1.4615-1.8585c-.07-.0856-.1345-.1754-.2048-.2606-.11-.1332-.23-.2571-.3413-.3893q-.8716-1.0373-1.7856-2.0361c-.1167-.1271-.2293-.2582-.347-.3841-.6948-.7431-1.4133-1.4629-2.1445-2.17-.1865-.1806-.3728-.3615-.5618-.54q-1.1019-1.0389-2.2536-2.0244c-.169-.144-.3413-.2838-.5117-.4261-.7654-.6383-1.5433-1.2619-2.34-1.8623-.0557-.042-.1077-.0885-.1636-.13-.0188-.0141-.0388-.0269-.0578-.0411-.68-.5078-1.3743-.9982-2.0762-1.4776-.2212-.1509-.4456-.2969-.6687-.4449q-.7871-.5223-1.5906-1.0207c-.14-.0865-.2739-.1805-.4143-.2659-.092-.056-.1882-.106-.2805-.1616-.6936-.4168-1.3945-.8228-2.1057-1.2121-.054-.0295-.1062-.0614-.16-.0908-.49-.2665-.9929-.5135-1.4922-.7653-.2785-.14-.5517-.29-.8322-.4269-.0843-.0411-.1653-.0873-.25-.1279-.146-.07-.2974-.1317-.4439-.2011q-.8847-.4181-1.7847-.808c-.1477-.064-.2912-.1362-.44-.1991-.09-.0385-.1845-.0708-.2753-.1088-.8123-.3393-1.63-.6672-2.46-.9715s-1.6712-.5852-2.5176-.8536c-.0942-.03-.1858-.0656-.28-.095-.1555-.0486-.3156-.087-.4717-.1343q-.948-.287-1.9089-.5433c-.2549-.068-.509-.1377-.7654-.2024-.8679-.2193-1.7409-.4261-2.6235-.6071a60.5777,60.5777,0,0,0-24.2544,0c-.8826.181-1.7554.3878-2.6235.6071-.2564.0647-.5108.1344-.7659.2025q-.96.2562-1.9077.5431c-.1565.0473-.3167.0858-.4724.1344-.0945.0294-.1861.0651-.28.095-.8464.2684-1.6877.5491-2.5176.8536-.8337.3059-1.656.6352-2.4721.9765-.0867.0363-.1763.0672-.2627.1038-.1705.0722-.3352.1548-.5047.2285q-.8481.3688-1.6831.7622c-.1589.0749-.3223.1412-.48.2175-.1232.0595-.2421.1269-.3649.1872-.5652.2775-1.1236.5664-1.6788.8609q-.0773.0411-.1547.0815c-.1812.0943-.3633.187-.5423.2851-.32.1753-.6316.3644-.948.5457-.4006.23-.8054.4532-1.2007.6912-.0759.0458-.155.0868-.2309.133-.2388.1453-.4683.3039-.7049.4523-.41.2575-.8188.5174-1.2224.7843q-.5467.3623-1.0854.7363c-.3308.2292-.6572.464-.9832.7-.269.1946-.5459.3789-.8117.5777-.0987.0738-.1907.1556-.2889.23-.7138.5411-1.4126,1.1008-2.101,1.6724-.3435.2854-.6817.5767-1.0186.87-.466.4046-.9233.8185-1.3769,1.237q-.769.7107-1.5132,1.4475-.5662.56-1.1189,1.1323c-.3706.3865-.7395.7747-1.1,1.1708-.4436.4874-.8758.9847-1.3035,1.4864-.206.2418-.426.4715-.6284.7166-.823.9969-1.6021,2.03-2.36,3.0794l-.0222.03-.0132.0188c-.3623.5013-.7292.999-1.0759,1.5117-.7893,1.1674-1.5239,2.3733-2.2317,3.5967-.051.0884-.1023.1768-.1528.2654-.2112.3693-.4331.7317-.6365,1.1057-.7344,1.35-1.4033,2.74-2.0351,4.1493-.0472.1053-.0962.21-.1426.3153-.1184.2684-.2483.5306-.3628.801a59.7666,59.7666,0,0,0-2.8421,8.39c-.0551.2142-.0974.4334-.15.6486-.0545.2211-.1026.4445-.1546.6666q-.3076,1.3148-.5552,2.6515c-.0771.4162-.1574.8313-.226,1.2505-.0633.3847-.118.7723-.1741,1.1594-.0759.53-.1467,1.0619-.2087,1.5964-.0367.3114-.0743.6226-.106.9356-.0872.8634-.1631,1.73-.2139,2.6036-.0083.1445-.0254.2867-.0327.4316-.01.2052-.0073.4139-.0156.62-.0337.8223-.063,1.6457-.063,2.476V104H328v53.1489a83.9441,83.9441,0,0,0,118.7051,76.4646,84.52,84.52,0,0,0,41.041-40.1726A83.4941,83.4941,0,0,0,496,157.1489V104Zm-36-8.4153V102H386V75.5273a24.25,24.25,0,0,1,48.5,0Z" class="cls-1"/>
</svg>
