<svg xmlns="http://www.w3.org/2000/svg" viewBox="0 0 512 512">
  <path fill="currentColor" d="M448.4531,42.5474H63.5469a21,21,0,0,0-21,21V448.4526a21,21,0,0,0,21,21H448.4531a21,21,0,0,0,21-21V63.5474A21,21,0,0,0,448.4531,42.5474Zm-21,128.3017H341.1514V84.5474h86.3017Zm0,128.3018H341.1514V212.8491h86.3017ZM84.5469,212.8491h86.3017v86.3018H84.5469Zm128.3017,0h86.3028v86.3018H212.8486Zm86.3028-42H212.8486V84.5474h86.3028ZM84.5469,84.5474h86.3017v86.3017H84.5469Zm0,256.6035h86.3017v86.3017H84.5469Zm128.3017,0h86.3028v86.3017H212.8486Zm214.6045,86.3017H341.1514V341.1509h86.3017Z"/>
</svg>
