<svg xmlns="http://www.w3.org/2000/svg" id="export" viewBox="0 0 512 512">
  <defs>
    <style>
      .cls-1{fill:currentColor}
    </style>
  </defs>
  <path d="M48,272V431.4541h67.397L65.81,496h52.9648l49.5874-64.5459H343.6382L393.2256,496H446.19L396.603,431.4541H464V272Zm296,40a32,32,0,1,1-32,32A32,32,0,0,1,344,312Zm-176,0a32,32,0,1,1-32,32A32,32,0,0,1,168,312Z" class="cls-1"/>
  <path d="M416,16H96A48.0547,48.0547,0,0,0,48,64V240H464V64A48.0547,48.0547,0,0,0,416,16ZM320,120H192V88H320Z" class="cls-1"/>
</svg>
