<svg xmlns="http://www.w3.org/2000/svg" id="export" viewBox="0 0 512 512">
  <defs>
    <style>
      .cls-1{fill:currentColor}
    </style>
  </defs>
  <polygon points="264 101.458 336.696 152.409 273.875 192.96 316.567 235.597 316.568 235.597 320.202 239.231 415.939 177.434 415.95 129.802 253.541 15.974 200 16.038 200 119.184 264 183.099 264 101.458" class="cls-1"/>
  <path d="M496,466.4568,45.7092,16H16V45.4219L61.5776,91,96,125.422l104,104v11.2234L96,307.7761v71.7392l2.0215,3.1317L200,316.8208V495.9985l55.7363.002,124.4463-86.3954L466.5776,496H496ZM264,412.3525V312.8877l57.1841,37.7186,13.0127,13.0128Z" class="cls-1"/>
</svg>
