<svg xmlns="http://www.w3.org/2000/svg" id="export" viewBox="0 0 512 512">
  <defs>
    <style>
      .cls-1{fill:currentColor}
    </style>
  </defs>
  <path d="M189.2056,219.7944A626.818,626.818,0,0,0,38.8384,461.66v0a8.999,8.999,0,0,0,2.1589,9.2549l.0872.0874a9,9,0,0,0,9.2549,2.1587h0a626.8172,626.8172,0,0,0,241.866-150.3672l52.9282-52.9282-103-103Z" class="cls-1"/>
  <path d="M458.668,53.332a72.8315,72.8315,0,0,0-103,0l-5.9626,5.9624L325.5645,35.1533a55.464,55.464,0,0,0-78.3457,0L113.15,169.2227,142.85,198.9219,276.917,64.8525a13.4117,13.4117,0,0,1,18.9482,0l24.1411,24.1412-52.4174,52.4174,103,103L458.668,156.332A72.8321,72.8321,0,0,0,458.668,53.332Z" class="cls-1"/>
</svg>
