<svg xmlns="http://www.w3.org/2000/svg" id="export" viewBox="0 0 512 512">
  <defs>
    <style>
      .cls-1{fill:currentColor}
    </style>
  </defs>
  <path d="M368,216h56V96a16,16,0,0,0-16-16H32A16,16,0,0,0,16,96V368a16,16,0,0,0,16,16H207v40.1224l-55,6.7347V472H304V430.8571l-55-6.7347V384h71V264A48.0543,48.0543,0,0,1,368,216ZM237.4536,252.4942c-.1208.3714-.2222.6831-.3428,1.0545l7.4786,48.4806-11.51,8.3623L189.283,288.2977h-1.1087l-43.7969,22.0939-11.51-8.3623,7.4787-48.4806c-.1208-.3714-.2219-.6831-.3427-1.0545l-34.5464-34.8258c2.0107-6.1886,2.3855-7.3419,4.3962-13.53l48.419-7.8687.8969-.6517L181.6152,152H195.842l22.4458,43.6175.897.6517,48.419,7.8687c2.0107,6.1886,2.3855,7.3419,4.3962,13.53Z" class="cls-1"/>
  <rect width="144" height="224" x="352" y="248" class="cls-1" rx="16"/>
</svg>
