<svg xmlns="http://www.w3.org/2000/svg" id="export" viewBox="0 0 512 512">
  <defs>
    <style>
      .cls-1{fill:currentColor}
    </style>
  </defs>
  <path d="M440.062,410.0029,296,265.9407,262.0593,232h-.0837l-40-40h.0837L201.89,171.8311l-.0484.0354-34.1626-34.1626.0464-.0374L101.9973,71.9377l-.0455.0385L45.9756,16H16V45.4219l56.23,56.23A239.0175,239.0175,0,0,0,16,256c0,132.5483,107.4517,240,240,240a239.017,239.017,0,0,0,154.3481-56.23l56.23,56.23H496V466.0244l-55.9761-55.9761ZM162.5781,192l40,40H88V192h38.3213a147.93,147.93,0,0,1,12.99-23.2673ZM261.6,352H312v48H261.6a148.2077,148.2077,0,0,1-135.2788-88H88V272H242.5781L280,309.4219V312H181.6506A99.9085,99.9085,0,0,0,261.6,352Z" class="cls-1"/>
  <path d="M256,16A238.88,238.88,0,0,0,131.655,50.6842l67.2652,67.265A147.1121,147.1121,0,0,1,261.6,104H312v48H261.6a99.8158,99.8158,0,0,0-25.366,3.2632l80.3335,80.3337h0L461.3157,380.345A238.8785,238.8785,0,0,0,496,256C496,123.4517,388.5483,16,256,16Z" class="cls-1"/>
</svg>
