<svg xmlns="http://www.w3.org/2000/svg" id="export" viewBox="0 0 512 512">
  <defs>
    <style>
      .cls-1{fill:currentColor}
    </style>
  </defs>
  <polygon points="120 184 120 304 208 352 208 464 304 464 304 352 392 304 392 184 120 184"/>
  <path d="M320,480H192V361.498l-88-48V168H408V313.498l-88,48Zm-96-32h64V342.502l88-48V200H136v94.502l88,48Z"/>
  <rect width="48" height="88" x="232" y="32" class="cls-1"/>
  <rect width="48" height="86.189" x="80.544" y="47.45" class="cls-1" transform="rotate(-46.881 104.544 90.544)"/>
  <rect width="86.189" height="48" x="364.362" y="66.544" class="cls-1" transform="rotate(-43.119 407.456 90.544)"/>
  <polygon points="104 313.498 192 361.498 192 480 320 480 320 361.498 408 313.498 408 168 104 168 104 313.498" class="cls-1"/>
</svg>
