<svg xmlns="http://www.w3.org/2000/svg" viewBox="0 0 512 512">
  <path fill="currentColor" d="M415.5928,496A80.4072,80.4072,0,0,0,496,415.5928V298.8571a120,120,0,0,0-120-120H280V112H448a32.0364,32.0364,0,0,0,32-32V16H432V64H264a32.0364,32.0364,0,0,0-32,32v82.8571H136a120,120,0,0,0-120,120V415.5928A80.4072,80.4072,0,0,0,96.4072,496h1.9322A80.4071,80.4071,0,0,0,160.11,467.0682l61.6045-82.4968h68.5712L351.86,464.6179A80.4077,80.4077,0,0,0,415.5928,496ZM192,325H157v35H115V325H80V283h35V248h42v35h35Zm149,0H299V283h42Zm56,56H355V339h42Zm0-112H355V227h42Zm14,14h42v42H411Z"/>
</svg>
