<svg xmlns="http://www.w3.org/2000/svg" id="export" viewBox="0 0 512 512">
  <defs>
    <style>
      .cls-1{fill:currentColor}
    </style>
  </defs>
  <polygon points="424 160 424 88 240 88 240 136 376 136 376 160 376 208 424 208 447.986 208 447.986 304 424 304 376 304 376 352 376 376 64 376 64 136 112 136 112 88 16 88 16 424 424 424 424 352 495.986 352 495.986 160 424 160" class="cls-1"/>
  <polygon points="156 304 156 306.286 196 306.286 196 304 196 266.286 156 266.286 156 304" class="cls-1"/>
  <polygon points="194 242.286 200 168 200 88 152 88 152 168 158 242.286 194 242.286" class="cls-1"/>
</svg>
