<svg xmlns="http://www.w3.org/2000/svg" id="export" viewBox="0 0 512 512">
  <defs>
    <style>
      .cls-1{fill:currentColor}
    </style>
  </defs>
  <path d="M256,160.6909A87.3091,87.3091,0,1,0,343.3091,248,87.3091,87.3091,0,0,0,256,160.6909ZM276,268H236V228h40Z" class="cls-1"/>
  <path d="M397.2217,130.8643l-.2178-.2222c-77.75-77.749-204.2578-77.749-282.0078,0L16,233.5537v28.8926l98.7783,102.69.2178.2217a199.6351,199.6351,0,0,0,282.0078,0L496,262.4463V233.5537ZM343.1926,335.1926A123.3086,123.3086,0,1,1,379.3091,248,122.5015,122.5015,0,0,1,343.1926,335.1926Z" class="cls-1"/>
</svg>
