<svg xmlns="http://www.w3.org/2000/svg" viewBox="0 0 512 512">
  <path fill="currentColor" d="M440.8057,85.1226,425.9253,16H382.9639l16.7832,77.9614c.3857,1.7912.7549,3.5862,1.1211,5.382A69.0143,69.0143,0,1,0,411,213.9044V428a23,23,0,0,1-46,0V332a65.0737,65.0737,0,0,0-65-65H248V96a32,32,0,0,0-32-32H48A32,32,0,0,0,16,96V496H248V309h52a23.0259,23.0259,0,0,1,23,23v96a65,65,0,0,0,130,0V199.7056A545.4106,545.4106,0,0,0,440.8057,85.1226ZM368,187a27,27,0,1,1,27-27A27.0308,27.0308,0,0,1,368,187ZM157.8374,376H121.02l16.7146-78h-47.69l22.8-114h36.7126l-15.6,78h48.31Z"/>
</svg>
