<svg xmlns="http://www.w3.org/2000/svg" id="export" viewBox="0 0 512 512">
  <defs>
    <style>
      .cls-1{fill:currentColor}
    </style>
  </defs>
  <path d="M237.4956,142.2437,125.0869,165.1455a27.0939,27.0939,0,0,0-20.0244,17.0264l-82.6,217.7636a27.2693,27.2693,0,0,0,6.2051,28.917L42.93,443.1147l119.81-119.81a43.9695,43.9695,0,1,1,24.2237,25.2724L67.6782,467.8628,81.94,482.124a27.2657,27.2657,0,0,0,28.915,6.2071l217.86-82.6377a27.1425,27.1425,0,0,0,16.9493-19.6543l24.3037-111.3233Z" class="cls-1"/>
  <path d="M485.5508,131.7822,380.7061,26.9375A24,24,0,0,0,345.16,28.71L267.894,123.146,389.3423,244.5942l94.436-77.2661a24,24,0,0,0,1.7725-35.5459Z" class="cls-1"/>
</svg>
