<svg xmlns="http://www.w3.org/2000/svg" id="export" viewBox="0 0 512 512">
  <defs>
    <style>
      .cls-1{fill:currentColor}
    </style>
  </defs>
  <path d="M96,472.2051A23.7146,23.7146,0,0,0,119.5791,496H392.4209A23.7146,23.7146,0,0,0,416,472.2051V168H96ZM256.3877,239.998l84.3691,84.7569-25.5136,25.3984L274,308.7207V422.5459H238V309.0977l-41.3008,41.1132-25.3984-25.5136Z" class="cls-1"/>
  <path d="M333,91V48c0-16.2617-11.6836-29-26.6-29H205.6C190.6836,19,179,31.7383,179,48V91H64v42H448V91ZM221,61h70V91H221Z" class="cls-1"/>
</svg>
