<svg xmlns="http://www.w3.org/2000/svg" id="export" viewBox="0 0 512 512">
  <defs>
    <style>
      .cls-1{fill:currentColor}
    </style>
  </defs>
  <path d="M390.877,360.8176,254.06,224h-.084l-60.4995-60.5.0552-.0286-45.9859-45.9861-.0466.0374L45.9756,16H16V45.4219L121.3262,150.7483A95.9807,95.9807,0,0,0,208,288h50.5776l60.312,60.312A31.7945,31.7945,0,0,1,304,352H136v64h96v56h64V416h8a95.554,95.554,0,0,0,60.8076-21.77L466.5771,496H496V466.0244l-105.15-105.15Z" class="cls-1"/>
  <path d="M316.5674,235.5969h0l83.4194,83.42a96.1025,96.1025,0,0,0-95.0039-95.0041Z" class="cls-1"/>
  <path d="M232,96H208a95.71,95.71,0,0,0-27.1216,3.9075L240.9707,160H368.9414V96H296V40H232Z" class="cls-1"/>
</svg>
