<svg xmlns="http://www.w3.org/2000/svg" id="export" viewBox="0 0 512 512">
  <defs>
    <style>
      .cls-1{fill:currentColor}
    </style>
  </defs>
  <path d="M480,120H380.9141L357.0913,58.2417A16,16,0,0,0,342.1636,48H177.3174A100.0446,100.0446,0,0,1,88,183.9136V184H16V456a16,16,0,0,0,16,16H480a16,16,0,0,0,16-16V136A16,16,0,0,0,480,120ZM256,386A104,104,0,1,1,360,282,104,104,0,0,1,256,386Z" class="cls-1"/>
  <polygon points="66 152 102 152 102 102 152 102 152 66 102 66 102 16 66 16 66 66 16 66 16 102 66 102 66 152" class="cls-1"/>
</svg>
