<svg xmlns="http://www.w3.org/2000/svg" id="export" viewBox="0 0 512 512">
  <defs>
    <style>
      .cls-1{fill:currentColor}
    </style>
  </defs>
  <path d="M480,144H32a16,16,0,0,0-16,16V344a16,16,0,0,0,16,16H480a16,16,0,0,0,16-16V160A16,16,0,0,0,480,144ZM130.64,220.5332H82.2246v24.8115h40.5947v18.7686H82.2246v41.0215H62.7451v-103.37H130.64Zm89.1182,84.6016-23.3032-41.59H184.6367v41.59H165.1582V201.6934h45.2861a28.84,28.84,0,0,1,15.001,3.8388,25.9612,25.9612,0,0,1,10.0235,10.8418,38.8989,38.8989,0,0,1,0,32.49A25.8863,25.8863,0,0,1,225.41,259.7061a26.7557,26.7557,0,0,1-6.7623,2.8111l24.7134,42.6176Zm128.8184-84.6016H298.8105v23.8877h41.9454V263.19H298.8105v23.1767h49.7657v18.7686H279.33v-103.37h69.2461Zm105.6543,0H404.4648v23.8877H446.41V263.19H404.4648v23.1767h49.7657v18.7686H384.9863v-103.37h69.2442Z" class="cls-1"/>
  <path d="M214.1406,243.2832a9.69,9.69,0,0,0,3.52-4.2656,16.3016,16.3016,0,0,0,1.3154-6.3985,15.496,15.496,0,0,0-1.2442-6.3984,9.6941,9.6941,0,0,0-3.5185-4.2656,9.5022,9.5022,0,0,0-5.332-1.4932H184.6367v24.3145h24.2442A9.3686,9.3686,0,0,0,214.1406,243.2832Z" class="cls-1"/>
</svg>
