<svg xmlns="http://www.w3.org/2000/svg" id="export" viewBox="0 0 512 512">
  <defs>
    <style>
      .cls-1{fill:currentColor}
    </style>
  </defs>
  <path d="M456,128H379.5044A76.9524,76.9524,0,0,0,256,38.2334,76.955,76.955,0,0,0,132.4956,128H56a24,24,0,0,0-24,24v80H480V152A24,24,0,0,0,456,128ZM312,56a35,35,0,0,1,0,70H277V91A35.04,35.04,0,0,1,312,56ZM200,56a35.04,35.04,0,0,1,35,35v35H200a35,35,0,0,1,0-70Z" class="cls-1"/>
  <path d="M288,480H456a24,24,0,0,0,24-24V288H288Z" class="cls-1"/>
  <path d="M32,456a24,24,0,0,0,24,24H224V288H32Z" class="cls-1"/>
</svg>
