<svg xmlns="http://www.w3.org/2000/svg" id="export" viewBox="0 0 512 512">
  <defs>
    <style>
      .cls-1{fill:currentColor}
    </style>
  </defs>
  <path d="M277.2061,412v0a118.2642,118.2642,0,0,1,24.3725-72.0838L254.3274,310.057l38.4163-60.3684A72.0007,72.0007,0,0,0,304,211.0335V120A104,104,0,0,0,200,16h0A104,104,0,0,0,96,120v91.0335a72.0007,72.0007,0,0,0,11.2563,38.6551l38.4163,60.3684L45.8113,373.1616A64,64,0,0,0,16,427.2645v69.3069l296.1143-.46A118.4212,118.4212,0,0,1,277.2061,412Z" class="cls-1"/>
  <polygon points="434.891 343.41 396 382.301 357.109 343.41 327.411 373.109 366.301 412 327.411 450.891 357.109 480.59 396 441.699 434.891 480.59 464.589 450.891 425.699 412 464.589 373.109 434.891 343.41" class="cls-1"/>
</svg>
