<svg xmlns="http://www.w3.org/2000/svg" id="export" viewBox="0 0 512 512">
  <defs>
    <style>
      .cls-1{fill:currentColor}
    </style>
  </defs>
  <path d="M161.8994,32H16V352H139.6479A98.6319,98.6319,0,0,1,232,416V58.168A106.9941,106.9941,0,0,0,161.8994,32ZM152,224H136l-32.2554-32L72,224H56V72h96Z" class="cls-1"/>
  <path d="M280,58.168V416c8-32,48-64,104-64H496V32H350.1006A106.9941,106.9941,0,0,0,280,58.168Z" class="cls-1"/>
  <path d="M305.4155,448h-98.831a116.2486,116.2486,0,0,0-99.5108-56H16v48h91.0737A68.3193,68.3193,0,0,1,169.94,481.4541L176.1743,496H335.8257l6.2339-14.5459A68.3193,68.3193,0,0,1,404.9263,440H496V392H404.9263A116.2486,116.2486,0,0,0,305.4155,448Z" class="cls-1"/>
</svg>
