<svg xmlns="http://www.w3.org/2000/svg" id="export" viewBox="0 0 512 512">
  <defs>
    <style>
      .cls-1{fill:currentColor}
    </style>
  </defs>
  <path d="M256,16C123.4517,16,16,123.4517,16,256S123.4517,496,256,496,496,388.5483,496,256,388.5483,16,256,16ZM142.3809,170.81,113.5967,149.189a179.5763,179.5763,0,0,1,61.5254-51.792A176.1158,176.1158,0,0,1,256,78v36A140.94,140.94,0,0,0,142.3809,170.81ZM256,344a88,88,0,1,1,88-88A88,88,0,0,1,256,344Z" class="cls-1"/>
  <rect width="48" height="48" x="232" y="232" class="cls-1"/>
</svg>
