<svg xmlns="http://www.w3.org/2000/svg" id="export" viewBox="0 0 512 512">
  <defs>
    <style>
      .cls-1{fill:currentColor}
    </style>
  </defs>
  <path d="M490.14,275.68c-35.39-20.49-56.68-19.64-68-13.7-18.22,9.53-34.16,32-51,55.75-17.72,25-36,50.76-61.27,68.71-20.42,14.53-42.37,21.75-66.4,21.75a142.86,142.86,0,0,1-38-5.5c-33-9.12-58.85-34.71-59.94-35.79S118.74,340,109.62,307c-10.87-39.34-5.55-73.88,16.28-105.59,17.93-26,43.84-45.65,68.89-64.61C250.5,94.6,276.44,71.25,242.11,16h-.51C115.88,23.72,16.31,128.12,16.31,255.78,16.31,388.45,123.86,496,256.53,496c125.08,0,227.81-95.6,239.16-217.71C495.69,278.29,491.47,276.45,490.14,275.68Z" class="cls-1"/>
  <path d="M150.14,295.76c6.1,22.07,24.81,41.22,25,41.41s19.29,18.88,41.41,25c26.94,7.44,48.83,4.27,68.87-10,19.43-13.82,35.66-36.68,51.36-58.78,19-26.78,38.67-54.46,65.84-68.67,27.84-14.56,58.33-12.89,92.74,5.2C483.67,120.69,398.76,33.36,290.67,18l-.27,0c12.53,29.83,12.22,57.06-.84,82.59-14.4,28.12-42.36,49.28-69.4,69.75C166.29,211.05,134.69,239.85,150.14,295.76Z" class="cls-1"/>
  <path d="M494.61,230.17h0a1.49,1.49,0,0,1,0,.21A1.49,1.49,0,0,0,494.61,230.17Z" class="cls-1"/>
</svg>
