<svg xmlns="http://www.w3.org/2000/svg" viewBox="0 0 512 512">
  <path fill="currentColor" d="M431.2437,154.8231,414.123,97.877,357.177,80.7563,313.877,40,256,53.6461,198.123,40l-43.3,40.7563L97.877,97.877,80.7563,154.8231,40,198.123,53.6461,256,40,313.877l40.7563,43.3L97.877,414.123l56.946,17.1207L198.123,472,256,458.3539,313.877,472l43.3-40.7563,56.946-17.1207,17.1207-56.946L472,313.877,458.3539,256,472,198.123ZM256,392a40,40,0,1,1,40-40A40,40,0,0,1,256,392Zm40-208-30,80H246l-30-80V128h80Z"/>
</svg>
