<svg xmlns="http://www.w3.org/2000/svg" id="export" viewBox="0 0 512 512">
  <defs>
    <style>
      .cls-1{fill:currentColor}
    </style>
  </defs>
  <path d="M435,16H77A61,61,0,0,0,16,77V435a61,61,0,0,0,61,61H435a61,61,0,0,0,61-61V77A61,61,0,0,0,435,16Zm5,408a16,16,0,0,1-16,16H88a16,16,0,0,1-16-16V88A16,16,0,0,1,88,72H424a16,16,0,0,1,16,16Z" class="cls-1"/>
  <rect width="136" height="136" x="104" y="104" class="cls-1"/>
  <rect width="136" height="136" x="104" y="272" class="cls-1"/>
  <rect width="136" height="136" x="272" y="104" class="cls-1"/>
  <rect width="136" height="136" x="272" y="272" class="cls-1"/>
</svg>
