<svg xmlns="http://www.w3.org/2000/svg" id="export" viewBox="0 0 512 512">
  <defs>
    <style>
      .cls-1{fill:currentColor}
    </style>
  </defs>
  <path d="M256,104C132.2882,104,32,204.2881,32,328v72H174a81.9371,81.9371,0,0,1,100.384-79.8965l61.3885-127.8926,32.455,15.5782-61.4065,127.93A81.8742,81.8742,0,0,1,338,400H480V328C480,204.2881,379.7118,104,256,104ZM120,352H80V312h40Zm48-112H128V200h40Zm112-48H240V152h40ZM432,352H392V312h40Z" class="cls-1"/>
  <circle cx="256" cy="400" r="46" class="cls-1"/>
</svg>
