<svg xmlns="http://www.w3.org/2000/svg" id="export" viewBox="0 0 512 512">
  <defs>
    <style>
      .cls-1{fill:currentColor}
    </style>
  </defs>
  <path d="M392.417,218.0073a156.9049,156.9049,0,0,0,0-155.9052L350.75,85.9121a108.9782,108.9782,0,0,1,0,108.2852Z" class="cls-1"/>
  <path d="M161.25,194.1973a108.9782,108.9782,0,0,1,0-108.2852l-41.6672-23.81a156.9049,156.9049,0,0,0,0,155.9052Z" class="cls-1"/>
  <path d="M469.5994,17.998,427.8054,41.88a197.6079,197.6079,0,0,1,0,196.3491l41.794,23.8821a246.6431,246.6431,0,0,0,0-244.1133Z" class="cls-1"/>
  <path d="M42.4006,17.998a246.6431,246.6431,0,0,0,0,244.1133l41.794-23.8821a197.6079,197.6079,0,0,1,0-196.3491Z" class="cls-1"/>
  <path d="M324,148a68,68,0,1,0-121.6743,41.6755L100.2173,496h50.5969L193.408,368.2188H323.4785L369.6216,496h50.56l.4192-.1514-110.6768-306.49A67.6393,67.6393,0,0,0,324,148ZM209.408,320.2188,244.48,215.0039a67.1168,67.1168,0,0,0,23.6333-.106l38.0325,105.3209Z" class="cls-1"/>
</svg>
