<svg xmlns="http://www.w3.org/2000/svg" id="export" viewBox="0 0 512 512">
  <defs>
    <style>
      .cls-1{fill:currentColor}
    </style>
  </defs>
  <circle cx="120" cy="264" r="32" class="cls-1"/>
  <circle cx="256" cy="384" r="32" class="cls-1"/>
  <circle cx="392" cy="264" r="32" class="cls-1"/>
  <path d="M425.7061,86.2944A238.189,238.189,0,0,0,280,17.179V16H232V128h48V65.4973C374.5835,77.3442,448,158.2578,448,256c0,105.8691-86.1309,192-192,192S64,361.8691,64,256a191.5786,191.5786,0,0,1,50.6572-129.957l114.82,144.8647,37.6172-29.8154L120.6123,56.28,101.7051,72.1646a240.0035,240.0035,0,1,0,324.001,14.13Z" class="cls-1"/>
</svg>
