<svg xmlns="http://www.w3.org/2000/svg" id="export" viewBox="0 0 512 512">
  <defs>
    <style>
      .cls-1{fill:currentColor}
    </style>
  </defs>
  <path d="M424,226H402v39.79h22a6.0066,6.0066,0,0,0,6-6V232A6.0066,6.0066,0,0,0,424,226Z" class="cls-1"/>
  <path d="M496,126.5319H16a16,16,0,0,0-16,16v256a16,16,0,0,0,16,16H496a16,16,0,0,0,16-16v-256A16,16,0,0,0,496,126.5319ZM146,352H110V290H82v62H46V192H82v62h28V192h36ZM344,227.8936H314V352H278V227.8936H234V352H198V227.8936H168v-36H344ZM466,259.79a42.0479,42.0479,0,0,1-42,42H402V352H366V190h58a42.0478,42.0478,0,0,1,42,42Z" class="cls-1"/>
</svg>
