<svg xmlns="http://www.w3.org/2000/svg" id="export" viewBox="0 0 512 512">
  <defs>
    <style>
      .cls-1{fill:currentColor}
    </style>
  </defs>
  <path d="M143.3994,331.91a17.4663,17.4663,0,0,0,3.2925-.3135l89.86-21.2788L426.7554,120.1138a62.923,62.923,0,0,0-88.9868-88.9864L147.5649,221.3311l-21.1342,89.1845-.1446.6748A17.4356,17.4356,0,0,0,143.3994,331.91Z" class="cls-1"/>
  <path d="M467,360H46a29.0328,29.0328,0,0,0-29,29v75.0928a29.0328,29.0328,0,0,0,29,29H467a29.0328,29.0328,0,0,0,29-29V389A29.0328,29.0328,0,0,0,467,360Zm-13,91.0928H59V402H454Z" class="cls-1"/>
</svg>
