<svg xmlns="http://www.w3.org/2000/svg" id="export" viewBox="0 0 512 512">
  <defs>
    <style>
      .cls-1{fill:currentColor}
    </style>
  </defs>
  <path d="M262.9666,265.2683,305.1147,223.12a500.4271,500.4271,0,0,0-54.8471-44.062C177.3748,128.5764,116.1846,98.9649,81.4,96.7751c-.2859.27-.5743.5362-.859.808-1.338,63.4851,44.6815,143.7763,73.7515,187.9731a388.2024,388.2024,0,0,0,38.7919,49.5943l40.1839-40.1839L394.3018,456h59.3964Z" class="cls-1"/>
  <path d="M270.7637,149.4624A536.7265,536.7265,0,0,1,330.59,197.6452l68.8416-68.8415L371.6465,101.019A208.5466,208.5466,0,0,0,119.8,68.0388c14.4932,4.4824,30.4914,11.0109,48.11,19.6194C206.1118,106.3232,244.9277,131.57,270.7637,149.4624Z" class="cls-1"/>
  <path d="M68.0156,201.4209q-14.1932-34.44-19.8113-64.4935A208.524,208.524,0,0,0,77.019,395.6465l27.7847,27.7847L167.6051,360.63a424.493,424.493,0,0,1-43.39-55.29C107.8789,280.5024,84.8682,242.3125,68.0156,201.4209Z" class="cls-1"/>
</svg>
