<svg xmlns="http://www.w3.org/2000/svg" id="export" viewBox="0 0 512 512">
  <defs>
    <style>
      .cls-1{fill:currentColor}
    </style>
  </defs>
  <path d="M448,280H430.2227l-37.7764-84.9966A32.0005,32.0005,0,0,0,363.2041,176H148.7959a32.0005,32.0005,0,0,0-29.2422,19.0034L81.7773,280H64a16,16,0,0,0-16,16V424a16,16,0,0,0,16,16H80v48.5466a8,8,0,0,0,8,8h56a8,8,0,0,0,8-8V440H360v48.5466a8,8,0,0,0,8,8h56a8,8,0,0,0,8-8V440h16a16,16,0,0,0,16-16V296A16,16,0,0,0,448,280ZM176,376.5464H96v-32h80Zm240,0H336v-32h80Z" class="cls-1"/>
  <polygon points="256 22.138 16 118.5 16 170.225 256 73.862 496 170.225 496 118.5 256 22.138" class="cls-1"/>
</svg>
