<svg xmlns="http://www.w3.org/2000/svg" id="export" viewBox="0 0 512 512">
  <defs>
    <style>
      .cls-1{fill:currentColor}
    </style>
  </defs>
  <path d="M397.2217,139.1006l-.2178-.2222a198.6866,198.6866,0,0,0-48.999-35.9315q-3.31-1.718-6.669-3.304a200.4825,200.4825,0,0,0-163.5695-3.1736h0L215.063,133.766A133.9182,133.9182,0,0,1,260,126c73.8877,0,134,60.1123,134,134a133.9157,133.9157,0,0,1-7.7661,44.9369l39.1523,39.1524L496,270.6826V241.79Z" class="cls-1"/>
  <path d="M260,162a98.02,98.02,0,0,0-15.4717,1.2314l112.24,112.24A97.9859,97.9859,0,0,0,260,162Z" class="cls-1"/>
  <path d="M16,16V45.0122l96.4812,96.4811L87.519,167.4427h0L56.8157,199.36h0L31.8538,225.3093,16,241.79v28.8926l98.7783,102.69.2178.2221A198.4994,198.4994,0,0,0,237.6,431.0557L54.4851,247.9407l24.9614-25.95L286.9512,429.4957a199.2793,199.2793,0,0,0,48.5832-14.0375L110.1492,190.0729l24.9616-25.95L466.9878,496H496V465.6147L46.3853,16Z" class="cls-1"/>
</svg>
