<svg xmlns="http://www.w3.org/2000/svg" id="export" viewBox="0 0 512 512">
  <defs>
    <style>
      .cls-1{fill:currentColor}
    </style>
  </defs>
  <path d="M469.4531,392.6008V63.5474a21,21,0,0,0-21-21H120.1125l41.9144,42h8.8217v8.84l42,42.0857V84.5474h86.3028v86.3017H248.1528l41.9146,42h9.084v9.1025l42,42.0857V212.8491h86.3017v86.3018h-51.26l41.9145,42h9.3452v9.3642ZM341.1514,170.8491V84.5474h86.3017v86.3017Z" class="cls-1"/>
  <path d="M16,16.2565V46.3652L42.5469,72.9121V448.4526a21,21,0,0,0,21,21H439.0874l27.2139,27.214H496V466.9678L45.2886,16.2565ZM170.8486,299.1509H84.5469V212.8491h86.3017Zm-86.3017,42h86.3017v86.3017H84.5469Zm128.3017,0h86.3028v86.3017H212.8486Zm184.2388,86.3017h-55.936v-55.936ZM268.7856,299.1509h-55.937v-55.937ZM140.4839,170.8491H84.5469v-55.937Z" class="cls-1"/>
</svg>
