<svg xmlns="http://www.w3.org/2000/svg" id="export" viewBox="0 0 512 512">
  <defs>
    <style>
      .cls-1{fill:currentColor}
    </style>
  </defs>
  <path d="M64,168H24V472a16,16,0,0,0,16,16H344V448H64Z" class="cls-1"/>
  <path d="M136,96H96V400a16,16,0,0,0,16,16H416V376H136Z" class="cls-1"/>
  <path d="M472,24H184a16.0169,16.0169,0,0,0-16,16V328a16,16,0,0,0,16,16H472a15.987,15.987,0,0,0,15.9634-15.2731c.0108-.2428.0366-.4815.0366-.7269V40A16,16,0,0,0,472,24ZM424,204H356v68H308V204H240V156h68V88h48v68h68Z" class="cls-1"/>
</svg>
