<svg xmlns="http://www.w3.org/2000/svg" viewBox="0 0 512 512">
  <path fill="currentColor" d="M393.3042,161.33,334.5322,76.437a48.0936,48.0936,0,0,0-38.7749-20.6724L184.23,54.1616,184,54.16c-57.5786,0-101.7568,9.6308-130.21,56.6342C28.5417,152.5029,17.0914,222.17,16.0747,341.9821L96.0039,342c41.5864,0,64.64-34.019,72.3814-65.95L192.6035,160h36.7759L203.5142,283.94l-.0625.2608c-6.2823,26.1763-18.7242,48.74-35.98,65.2524A101.49,101.49,0,0,1,96,378l-44.8-.01L22.7222,496H312V389.4932l98.6162-16.8872c22.3594-2.7491,38.8565-9.9551,50.4253-22.023,9.89-10.3179,15.91-23.5029,19.519-42.7519L496,225.4873V178.4458Z"/>
</svg>
