<svg xmlns="http://www.w3.org/2000/svg" id="export" viewBox="0 0 512 512">
  <defs>
    <style>
      .cls-1{fill:currentColor}
    </style>
  </defs>
  <path d="M368,88V287.0291l48,48V56a40.0451,40.0451,0,0,0-40-40H96.9709l72,72Z" class="cls-1"/>
  <path d="M416,386.0249v-.084l-48-48v.084L144,114.0254v-.085l-48-48v.085L45.9746,16H16V45.4219l80,80V456a40.0451,40.0451,0,0,0,40,40H376a40.0451,40.0451,0,0,0,40-40V445.4214L466.5786,496H496V466.0249ZM274,450H238V414h36ZM144,368V173.4219L338.5785,368Z" class="cls-1"/>
</svg>
