<svg xmlns="http://www.w3.org/2000/svg" id="export" viewBox="0 0 512 512">
  <defs>
    <style>
      .cls-1{fill:currentColor}
    </style>
  </defs>
  <path d="M344,24H40A16,16,0,0,0,24,40V344H64V64H344Z" class="cls-1"/>
  <path d="M416,111.2381V96H112a16,16,0,0,0-16,16V416h40V136H416Z" class="cls-1"/>
  <path d="M487.9634,183.2731A15.987,15.987,0,0,0,472,168H184a16,16,0,0,0-16,16V472a16.0169,16.0169,0,0,0,16,16H472a16,16,0,0,0,16-16V184C488,183.7546,487.9741,183.5158,487.9634,183.2731ZM356.7485,440c-30.4013,0-55.0464-22.82-55.0464-50.969,0-1.7937.2979-111.3019.2979-111.3019L248,288V240.6687l90.2418-17.1641L338,341.0991a58.8906,58.8906,0,0,1,18.7485-3.037c30.4014,0,55.0464,22.82,55.0464,50.9689S387.15,440,356.7485,440Z" class="cls-1"/>
</svg>
