<svg xmlns="http://www.w3.org/2000/svg" id="export" viewBox="0 0 512 512">
  <defs>
    <style>
      .cls-1{fill:currentColor}
    </style>
  </defs>
  <circle cx="87.491" cy="264.31" r="63.989" class="cls-1"/>
  <circle cx="86.491" cy="424.327" r="63.989" class="cls-1"/>
  <circle cx="272" cy="104" r="48" class="cls-1"/>
  <circle cx="424" cy="104" r="32" class="cls-1"/>
  <circle cx="424" cy="264" r="32" class="cls-1"/>
  <circle cx="272" cy="424" r="48" class="cls-1"/>
  <path d="M16,16.6667V46.3652L35.9768,66.342a63.9831,63.9831,0,0,0,89.4653,89.4654l99.3794,99.3794a47.9732,47.9732,0,0,0,55.9917,55.9917L392.04,422.4055c-.0259.5283-.04,1.06-.04,1.5945a32,32,0,0,0,32,32c.5347,0,1.0662-.0144,1.5945-.04l40.707,40.707H496V466.9678L45.699,16.6667Z" class="cls-1"/>
</svg>
