<svg xmlns="http://www.w3.org/2000/svg" viewBox="0 0 512 512">
  <path fill="currentColor" d="M256.0288,16c-132.5483,0-240,107.4517-240,240s107.4517,240,240,240,240-107.4517,240-240S388.5771,16,256.0288,16ZM72.1816,256h36A147.698,147.698,0,0,0,168.45,375.0237l26.4592-31.751,33.8441,58.0187L249.2744,436.47l1.9163,3.2851C152.0466,437.1962,72.1816,355.75,72.1816,256Zm263.7293,91.0713L221.6394,290.0322,164.458,175.62a8,8,0,0,1,10.7387-10.7295L289.5215,222.15l57.117,114.1845A8,8,0,0,1,335.9109,347.0713ZM403.8184,256A147.698,147.698,0,0,0,343.55,136.9763l-26.4592,31.7509-33.8441-58.0186L262.7256,75.53l-1.9163-3.2849C359.9534,74.8038,439.8184,156.25,439.8184,256Z"/>
</svg>
