<svg id="export" xmlns="http://www.w3.org/2000/svg" viewBox="0 0 512 512">
  <defs>
    <style>
      .cls-1 {
        fill: currentColor;
      }
    </style>
  </defs>
  <title>car-alt</title>
  <g>
    <path class="cls-1" d="M475.6563,223.1416,422.8108,215H16V366.2549H56a80,80,0,0,1,160,0h72a80,80,0,0,1,160,0h48V246.8623A23.873,23.873,0,0,0,475.6563,223.1416Z"/>
    <path class="cls-1" d="M373.4487,183l-42.687-87.0684-.3911-.6386a32.24,32.24,0,0,0-27.5474-15.291L72.2671,81.8389a32.0145,32.0145,0,0,0-30.0689,21.7734L16,183Z"/>
    <circle class="cls-1" cx="136" cy="366.2549" r="48"/>
    <circle class="cls-1" cx="368" cy="366.2549" r="48"/>
  </g>
</svg>
