<svg id="export" xmlns="http://www.w3.org/2000/svg" viewBox="0 0 512 512">
  <defs>
    <style>
      .cls-1 {
        fill: currentColor;
      }
    </style>
  </defs>
  <title>parking</title>
  <g>
    <path class="cls-1" d="M307,181.7813v-3.36a26.7172,26.7172,0,0,0-26.687-26.687H245v56.7339h35.313A26.7172,26.7172,0,0,0,307,181.7813Z"/>
    <path class="cls-1" d="M256,16C159.1709,16,80.3945,94.7764,80.3945,191.6055a174.1971,174.1971,0,0,0,33.9873,103.84L235.6592,484.8721a24.1543,24.1543,0,0,0,40.6826-.002L397.6177,295.4453a174.198,174.198,0,0,0,33.9878-103.84C431.6055,94.7764,352.8291,16,256,16ZM245,312H203V109.7344h77.313A68.765,68.765,0,0,1,349,178.4214v3.36a68.765,68.765,0,0,1-68.687,68.687H245Z"/>
  </g>
</svg>
