<svg id="export" xmlns="http://www.w3.org/2000/svg" viewBox="0 0 512 512">
  <defs>
    <style>
      .cls-1 {
        fill: currentColor;
      }
    </style>
  </defs>
  <title>petrol-station</title>
  <g>
    <path class="cls-1" d="M248,96a32,32,0,0,0-32-32H48A32,32,0,0,0,16,96v82.0381H248Z"/>
    <path class="cls-1" d="M440.8062,85.1226,425.9255,16H382.9633l16.7833,77.9614c.3856,1.7911.7551,3.586,1.1211,5.3817A69.0143,69.0143,0,1,0,411,213.9044V428a23,23,0,0,1-46,0V332a65.0737,65.0737,0,0,0-65-65H248V214.0381H16V496H248V309h52a23.0259,23.0259,0,0,1,23,23v96a65,65,0,0,0,130,0V199.7056A545.4432,545.4432,0,0,0,440.8062,85.1226ZM368,187a27,27,0,1,1,27-27A27.0308,27.0308,0,0,1,368,187Z"/>
  </g>
</svg>
