<svg id="export" xmlns="http://www.w3.org/2000/svg" viewBox="0 0 512 512">
  <defs>
    <style>
      .cls-1 {
        fill: currentColor;
      }
    </style>
  </defs>
  <title>railway</title>
  <g>
    <path class="cls-1" d="M348.6343,120h32V58.7676A42.8161,42.8161,0,0,0,337.8667,16H167.4019a42.8161,42.8161,0,0,0-42.7676,42.7676V120h224Z"/>
    <path class="cls-1" d="M455.3359,454l-22.9091-36H464V382H409.5176l-22.9092-36H416V310H363.6992l-24.1817-38h41.1168V152h-256V272h47.8482l-24.1817,38H96v36h29.3916l-22.9092,36H48v36H79.5732l-22.909,36H16v36H496V454ZM294,190h42v42H294Zm-126,0h42v42H168Zm128.8459,82,24.1819,38H190.9722l24.1819-38ZM168.0632,346H343.9368l22.9091,36H145.1541ZM99.3359,454l22.9091-36h267.51l22.9092,36Z"/>
  </g>
</svg>
