<svg id="export" xmlns="http://www.w3.org/2000/svg" viewBox="0 0 512 512">
  <defs>
    <style>
      .cls-1 {
        fill: currentColor;
      }
    </style>
  </defs>
  <title>subway</title>
  <g>
    <path class="cls-1" d="M423.584,88.416A237,237,0,0,0,19,256V360H61V256C61,148.4766,148.4766,61,256,61s195,87.4766,195,195V360h42V256A235.4462,235.4462,0,0,0,423.584,88.416Z"/>
    <path class="cls-1" d="M356.6348,248h32V186.7676A42.8161,42.8161,0,0,0,345.8672,144H175.4014a42.8152,42.8152,0,0,0-42.7666,42.7676V248h224Z"/>
    <path class="cls-1" d="M388.6348,280h-256v87.83L24.1836,496H79.2012l81.2307-96h192.28l80.4323,96h54.792L388.6348,377.4785ZM302,318h42v42H302Zm-126,0h42v42H176Z"/>
  </g>
</svg>
