<svg id="export" xmlns="http://www.w3.org/2000/svg" viewBox="0 0 512 512">
  <defs>
    <style>
      .cls-1 {
        fill: currentColor;
      }
    </style>
  </defs>
  <title>tram</title>
  <g>
    <path class="cls-1" d="M407.9385,400V264H104.0615V400h29.124l-60,96h49.5274l60-96H329.2871l60,96h49.5274l-60-96ZM312,310.116A23.9969,23.9969,0,1,1,304,328,23.9065,23.9065,0,0,1,312,310.116Zm-144,0A23.9969,23.9969,0,1,1,160,328,23.9065,23.9065,0,0,1,168,310.116Z"/>
    <path class="cls-1" d="M115.125,58h55.4839l22.8,38H152.5576a48.5509,48.5509,0,0,0-48.4961,48.4961V232h303.877V144.4961A48.5509,48.5509,0,0,0,359.4424,96H318.5913l22.8-38H396.875L415.9,96.05,448.1,79.95,426.3125,36.376A25.8568,25.8568,0,0,0,403.0557,22H108.9443A25.8545,25.8545,0,0,0,85.69,36.3726L63.9,79.95,96.1,96.05Zm184.2837,0-21.6,36H234.1914l-21.6-36Z"/>
  </g>
</svg>
