<svg id="export" xmlns="http://www.w3.org/2000/svg" viewBox="0 0 512 512">
  <defs>
    <style>
      .cls-1 {
        fill: currentColor;
      }
    </style>
  </defs>
  <title>chalkboard-teacher</title>
  <g>
    <path class="cls-1" d="M238.5342,387.3447l-38.502-25.0263L218.1748,318.14v-65.039a77.8814,77.8814,0,1,0-155.7627,0v64.7236l16.67,45.4512L42.0508,387.3447A57.0592,57.0592,0,0,0,16,435.35V496H264.5859V435.35A57.0576,57.0576,0,0,0,238.5342,387.3447ZM232.5859,464H48V435.35a25.17,25.17,0,0,1,11.4912-21.1748l58.417-37.97L94.4121,312.1406v-59.04a45.8814,45.8814,0,1,1,91.7627,0v58.7246l-25.8184,62.87,60.7383,39.48A25.1675,25.1675,0,0,1,232.5859,435.35Z"/>
    <path class="cls-1" d="M464.3906,335.6094v-288a24.0275,24.0275,0,0,0-24-24h-368a24.0275,24.0275,0,0,0-24,24v140l32-32v-100h352v280h-32v-64h-144v96h240v-32Zm-96,0h-80v-32h80Z"/>
  </g>
</svg>
