<svg id="export" xmlns="http://www.w3.org/2000/svg" viewBox="0 0 512 512">
  <defs>
    <style>
      .cls-1 {
        fill: currentColor;
      }
    </style>
  </defs>
  <title>id-card</title>
  <g>
    <path class="cls-1" d="M264.4067,330.9253l0,0-28.7456-18.6851,13.8208-33.6548V225.7144a65.7144,65.7144,0,1,0-131.4287,0v52.5561l12.7217,34.6846-27.646,17.97a48.9717,48.9717,0,0,0-22.3613,41.2036V424h206V372.1289A48.9718,48.9718,0,0,0,264.4067,330.9253ZM254.7681,392h-142V372.1289a17.0833,17.0833,0,0,1,7.8-14.373l49.0332-31.8721-19.5479-53.2969V225.7144a33.7144,33.7144,0,1,1,67.4287,0v46.5571l-21.4966,52.3462,50.982,33.1382,0,0a17.0828,17.0828,0,0,1,7.8,14.3726Z"/>
    <path class="cls-1" d="M472.7681,16h-432a24.0275,24.0275,0,0,0-24,24V472a24.0275,24.0275,0,0,0,24,24h432a24.0275,24.0275,0,0,0,24-24V40A24.0275,24.0275,0,0,0,472.7681,16Zm-8,32V80h-416V48Zm-416,416V112h416V464Z"/>
    <rect class="cls-1" x="296.7681" y="176" width="136" height="32"/>
    <rect class="cls-1" x="296.7681" y="240" width="136" height="32"/>
  </g>
</svg>
