<svg id="export" xmlns="http://www.w3.org/2000/svg" viewBox="0 0 512 512">
  <defs>
    <style>
      .cls-1 {
        fill: currentColor;
      }
    </style>
  </defs>
  <title>person-female</title>
  <path class="cls-1" d="M363.8721,210.9463l-.2881-1.023a71.7418,71.7418,0,0,0-9.3848-19.123,30.2484,30.2484,0,0,0,20.8975-36.3818L355.89,77.5908C346.8242,41.3271,315.6172,16,280,16s-66.8242,25.3271-75.89,61.59l-19.2041,76.8189A30.2448,30.2448,0,0,0,204.4,190.355a71.84,71.84,0,0,0-8.7568,16.8061L138.8525,408H211.415l11.5674,88H331.0508l11.5674-88H412.42ZM314.55,376l-11.5674,88H251.0508l-11.5674-88H181.1475l44.7558-158.4072a39.4788,39.4788,0,0,1,19.61-21.5371l10.5019-5.1573L251.3945,160H216.4932l18.6621-74.6484C240.6533,63.3594,259.0938,48,280,48s39.3467,15.3594,44.8447,37.3525L343.5068,160h-34.06l-5.5635,31.2461,10.1982,5.49A39.4579,39.4579,0,0,1,332.94,219.1621L371.58,376Z"/>
</svg>
