<svg id="export" xmlns="http://www.w3.org/2000/svg" viewBox="0 0 512 512">
  <defs>
    <style>
      .cls-1 {
        fill: currentColor;
      }
    </style>
  </defs>
  <title>user-unfollow</title>
  <g>
    <path class="cls-1" d="M216,16A112.1271,112.1271,0,0,0,104,128v79.68a80.2375,80.2375,0,0,0,9.7681,38.3081l27.4546,50.334L68.4,343.6563A79.7257,79.7257,0,0,0,32,410.7319V496H312V464H64V410.7319a47.8352,47.8352,0,0,1,21.84-40.2456l97.6612-63.48-41.6407-76.3413A48.1474,48.1474,0,0,1,136,207.68V128a80,80,0,0,1,160,0v79.68a48.1387,48.1387,0,0,1-5.8613,22.9848l-41.64,76.3418L312,348.2827V310.1171l-21.2231-13.7948,27.4545-50.334A80.2294,80.2294,0,0,0,328,207.68V128A112.1271,112.1271,0,0,0,216,16Z"/>
    <polygon class="cls-1" points="483.314 355.314 460.686 332.686 412 381.372 363.314 332.686 340.686 355.314 389.372 404 340.686 452.686 363.314 475.314 412 426.628 460.686 475.314 483.314 452.686 434.628 404 483.314 355.314"/>
  </g>
</svg>
