<svg id="export" xmlns="http://www.w3.org/2000/svg" viewBox="0 0 512 512">
  <defs>
    <style>
      .cls-1 {
        fill: currentColor;
      }
    </style>
  </defs>
  <title>user-female</title>
  <path class="cls-1" d="M403.6,343.6563l-72.8223-47.334L344.0435,272h23.4272A48,48,0,0,0,411.59,205.0918L361.5811,90.57a112.0293,112.0293,0,0,0-211.1622.0005L100.41,205.0918A48,48,0,0,0,144.5293,272h23.4272l13.2662,24.3223-72.8213,47.334A79.7236,79.7236,0,0,0,72,410.7319V496H440V410.7319A79.7257,79.7257,0,0,0,403.6,343.6563ZM408,464H104V410.7319a47.8355,47.8355,0,0,1,21.8408-40.2456l97.6607-63.48L186.9526,240H144.5293a16,16,0,0,1-14.72-22.2695l50.1723-114.896.4478-1.1431a80.0288,80.0288,0,0,1,151.1416,0l.2021.58,50.418,115.459A16,16,0,0,1,367.4707,240H325.0474l-36.5489,67.0068,97.6612,63.48h0A47.8345,47.8345,0,0,1,408,410.7319Z"/>
</svg>
