<svg id="export" xmlns="http://www.w3.org/2000/svg" viewBox="0 0 512 512"><defs><style>.cls-1{fill:currentColor;}</style></defs><title>4k</title><polygon class="cls-1" points="208 184 176 184 176 272 113.68 272 127.28 136 95.12 136 78.32 304 176 304 176 376 208 376 208 304 240 304 240 272 208 272 208 184"/><polygon class="cls-1" points="386.11 136 334.11 240 304 240 304 136 272 136 272 376 304 376 304 272 334.11 272 386.11 376 421.89 376 361.89 256 421.89 136 386.11 136"/><path class="cls-1" d="M464,16H48A32,32,0,0,0,16,48V464a32,32,0,0,0,32,32H464a32,32,0,0,0,32-32V48A32,32,0,0,0,464,16Zm0,448H48V48H464l0,416Z"/></svg>