<svg id="export" xmlns="http://www.w3.org/2000/svg" viewBox="0 0 512 512"><defs><style>.cls-1{fill:currentColor;}</style></defs><title>audio-description</title><path class="cls-1" d="M472,64H40A24,24,0,0,0,16,88V424a24,24,0,0,0,24,24H472a24,24,0,0,0,24-24V88A24,24,0,0,0,472,64Zm-8,352H48V96H464Z"/><path class="cls-1" d="M134.2,288h59.6l18.67,56H246.2L187.53,168H140.47L81.8,344h33.73Zm29.33-88h.94l18.66,56H144.87Z"/><path class="cls-1" d="M424,263.33V248.67A80.76,80.76,0,0,0,343.33,168H280V344h63.33A80.76,80.76,0,0,0,424,263.33ZM312,200h31.33A48.72,48.72,0,0,1,392,248.67v14.66A48.72,48.72,0,0,1,343.33,312H312Z"/></svg>