<svg id="export" xmlns="http://www.w3.org/2000/svg" viewBox="0 0 512 512"><defs><style>.cls-1{fill:currentColor;}</style></defs><title>camera-enhance</title><path class="cls-1" d="M472,112h-89.2L366.55,65.25a32,32,0,0,0-30.23-21.5H175.24A32,32,0,0,0,145,65.44L129.1,112H40a24,24,0,0,0-24,24V448a24,24,0,0,0,24,24H472a24,24,0,0,0,24-24V136A24,24,0,0,0,472,112Zm-8,328H48V144H152l23.22-68.25H336.32L360,144H464Z"/><path class="cls-1" d="M290,150.6l-7.35-21.76H229.39L222,150.6l-23.3,69-56.47,19.13-22.05,7.47.32,23.28.07,5.12,0,2.23.32,23,21.88,7L203,326.22l18.78,59.64,7,22.39h54.3l7.05-22.39L309,326.22l60.18-19.38,21.88-7,.32-23,0-2.23.07-5.12.32-23.28-22-7.47-56.47-19.13Zm69.4,125.78-75.93,24.44-23.75,75.43h-7.36l-23.75-75.43-75.93-24.44c0-3.52,0-3.83-.1-7.35L224,244.82l28.36-84h7.28l28.36,84L359.46,269C359.41,272.55,359.41,272.86,359.36,276.38Z"/></svg>