<svg id="export" xmlns="http://www.w3.org/2000/svg" viewBox="0 0 512 512"><defs><style>.cls-1{fill:currentColor;}</style></defs><title>closed-captioning#cc</title><path class="cls-1" d="M472,64H40A24,24,0,0,0,16,88V424a24,24,0,0,0,24,24H472a24,24,0,0,0,24-24V88A24,24,0,0,0,472,64Zm-8,352H48V96H464Z"/><path class="cls-1" d="M184,344a87.08,87.08,0,0,0,54.48-18.89L218.66,300A55.4,55.4,0,0,1,184,312a56,56,0,0,1,0-112,55.4,55.4,0,0,1,34.66,12l19.82-25.12A87.08,87.08,0,0,0,184,168a88,88,0,0,0,0,176Z"/><path class="cls-1" d="M347.43,344a87.1,87.1,0,0,0,54.48-18.89L382.09,300a55.4,55.4,0,0,1-34.66,12,56,56,0,0,1,0-112,55.4,55.4,0,0,1,34.66,12l19.82-25.12A87.1,87.1,0,0,0,347.43,168a88,88,0,0,0,0,176Z"/></svg>