<svg id="export" xmlns="http://www.w3.org/2000/svg" viewBox="0 0 512 512"><defs><style>.cls-1{fill:currentColor;}</style></defs><title>fiber-manual</title><path class="cls-1" d="M256,72C154.54,72,72,154.54,72,256s82.54,184,184,184,184-82.54,184-184S357.46,72,256,72Zm0,336c-83.81,0-152-68.19-152-152s68.19-152,152-152,152,68.19,152,152S339.81,408,256,408Z"/><path class="cls-1" d="M256,152A104,104,0,1,0,360,256,104.11,104.11,0,0,0,256,152Zm0,176a72,72,0,1,1,72-72A72.08,72.08,0,0,1,256,328Z"/></svg>