<svg id="export" xmlns="http://www.w3.org/2000/svg" viewBox="0 0 512 512"><defs><style>.cls-1{fill:currentColor;}</style></defs><title>fiber-smart</title><polygon class="cls-1" points="448 104 448 151.43 433.1 360 431.06 360 405.97 176 370.03 176 344.94 360 342.9 360 328 151.43 328 104 296 104 296 152 313.1 392 372.87 392 378.46 351.01 385.6 232 390.4 232 397.54 351.02 403.13 392 462.9 392 479.96 153.14 480 152.57 480 104 448 104"/><polygon class="cls-1" points="136 328 131.2 328 126.17 256.21 92.88 104 40 104 40 392 72 392 72 320 72 160 76.8 160 78.88 189.77 123.12 392 168 392 168 104 136 104 136 328"/><polygon class="cls-1" points="192 392 280 392 280 360 224 360 224 264 264 264 264 232 224 232 224 136 280 136 280 104 192 104 192 392"/></svg>