<svg id="export" xmlns="http://www.w3.org/2000/svg" viewBox="0 0 512 512"><defs><style>.cls-1{fill:currentColor;}</style></defs><title>fiber-pin#pin</title><path class="cls-1" d="M112,288h48a32,32,0,0,0,32-32V192a32,32,0,0,0-32-32H80V344h32Zm0-96h48v64H112Z"/><rect class="cls-1" x="224" y="160" width="32" height="184"/><polygon class="cls-1" points="328 200.02 370.44 344 424 344 424 160 392 160 392 303.98 349.56 160 296 160 296 344 328 344 328 200.02"/><path class="cls-1" d="M464,80H48c-17.94,0-32,12-32,27.43V404.57C16,420,30.06,432,48,432H464c17.94,0,32-12.05,32-27.43V107.43C496,92.05,481.94,80,464,80Zm0,320H48V112H464Z"/></svg>