<svg id="export" xmlns="http://www.w3.org/2000/svg" viewBox="0 0 512 512"><defs><style>.cls-1{fill:currentColor;}</style></defs><title>headphones-mic</title><path class="cls-1" d="M448,184H400V160c0-79.4-64.6-144-144-144S112,80.6,112,160v24H64a48.05,48.05,0,0,0-48,48V360a48.05,48.05,0,0,0,48,48h48a32,32,0,0,0,32-32V160a112,112,0,0,1,224,0V446.53A17.49,17.49,0,0,1,350.53,464H224v32H350.53A49.52,49.52,0,0,0,400,446.53V408h48a48.05,48.05,0,0,0,48-48V232A48.05,48.05,0,0,0,448,184ZM112,376H64a16,16,0,0,1-16-16V232a16,16,0,0,1,16-16h48v56h0V376Zm352-16a16,16,0,0,1-16,16H400V216h48a16,16,0,0,1,16,16Z"/></svg>