<svg id="export" xmlns="http://www.w3.org/2000/svg" viewBox="0 0 512 512"><defs><style>.cls-1{fill:currentColor;}</style></defs><title>headphones-mute</title><path class="cls-1" d="M448,216H400V184c0-79.4-64.6-144-144-144S112,104.6,112,184v32H64a48.05,48.05,0,0,0-48,48V392a48.05,48.05,0,0,0,48,48h48a32,32,0,0,0,32-32V184a112,112,0,0,1,224,0V408a32,32,0,0,0,32,32h48a48.05,48.05,0,0,0,48-48V264A48.05,48.05,0,0,0,448,216ZM112,408H64a16,16,0,0,1-16-16V264a16,16,0,0,1,16-16h48v56h0V408Zm352-16a16,16,0,0,1-16,16H400V248h48a16,16,0,0,1,16,16Z"/><polygon class="cls-1" points="308.69 229.68 256.5 281.87 204.3 229.68 181.68 252.3 233.87 304.5 181.68 356.69 204.3 379.31 256.5 327.12 308.69 379.31 331.31 356.69 279.12 304.5 331.31 252.3 308.69 229.68"/></svg>