<svg id="export" xmlns="http://www.w3.org/2000/svg" viewBox="0 0 512 512"><defs><style>.cls-1{fill:currentColor;}</style></defs><title>high-quality#hq</title><path class="cls-1" d="M416,324V188a52.06,52.06,0,0,0-52-52H320a48.05,48.05,0,0,0-48,48V328a48.05,48.05,0,0,0,48,48h44a51.88,51.88,0,0,0,15.74-2.44L411,417.3l26-18.6-31.26-43.76A51.7,51.7,0,0,0,416,324Zm-32,0a20,20,0,0,1-20,20H320a16,16,0,0,1-16-16V184a16,16,0,0,1,16-16h44a20,20,0,0,1,20,20Z"/><polygon class="cls-1" points="208 240 128 240 128 136 96 136 96 376 128 376 128 272 208 272 208 376 240 376 240 136 208 136 208 240"/><path class="cls-1" d="M464,16H48A32,32,0,0,0,16,48V464a32,32,0,0,0,32,32H464a32,32,0,0,0,32-32V48A32,32,0,0,0,464,16Zm0,448H48V48H464l0,416Z"/></svg>