<svg id="export" xmlns="http://www.w3.org/2000/svg" viewBox="0 0 512 512"><defs><style>.cls-1{fill:currentColor;}</style></defs><title>loop-1</title><polygon class="cls-1" points="208 312 208 344 320 344 320 312 280 312 280 176 248 176 248 200 216 200 216 232 248 232 248 312 208 312"/><path class="cls-1" d="M464,210.51V264A112.12,112.12,0,0,1,352,376H78.63l44.68-44.69-22.62-22.62L56,353.37l-4.41,4.42L18,391.35l74,83.28L116,453.37,75.63,408H352c79.4,0,144-64.6,144-144V178.51Z"/><path class="cls-1" d="M48,256A112.12,112.12,0,0,1,160,144H433.37l-44.68,44.69,22.62,22.62L456,166.63l4.12-4.12L494,128.65,420,45.37,396,66.63,436.37,112H160C80.6,112,16,176.6,16,256v85.79l32-32Z"/></svg>