<svg id="export" xmlns="http://www.w3.org/2000/svg" viewBox="0 0 512 512"><defs><style>.cls-1{fill:currentColor;}</style></defs><title>media-skip-backward-circle</title><path class="cls-1" d="M425.71,86.29A238.43,238.43,0,0,0,256,16h0A240,240,0,0,0,86.29,425.71,240,240,0,0,0,425.71,86.29ZM256,464C141.31,464,48,370.69,48,256S141.31,48,256,48s208,93.31,208,208S370.69,464,256,464Z"/><path class="cls-1" d="M256,224.43V152H223.28L96,248.65v29.9L223.62,368H256V301.9L355.16,368H384V152H354.76Zm-32,23.46v81.3l-94.2-66L224,191.63Zm128,79.55-95.52-63.68,95.52-70Z"/></svg>