<svg id="export" xmlns="http://www.w3.org/2000/svg" viewBox="0 0 512 512"><defs><style>.cls-1{fill:currentColor;}</style></defs><title>media-skip-forward-circle</title><path class="cls-1" d="M425.71,86.29A240,240,0,0,0,86.29,425.71,240,240,0,0,0,425.71,86.29ZM256,464C141.31,464,48,370.69,48,256S141.31,48,256,48s208,93.31,208,208S370.69,464,256,464Z"/><path class="cls-1" d="M288.38,152H256v66.1L156.84,152H128V368h29.24L256,295.57V368h32.72L416,271.35v-29.9ZM160,326.29V192.56l95.52,63.68Zm128,2.08V190.81l94.2,66Z"/></svg>