<svg id="export" xmlns="http://www.w3.org/2000/svg" viewBox="0 0 512 512"><defs><style>.cls-1{fill:currentColor;}</style></defs><title>microphone-settings#mic-settings</title><path class="cls-1" d="M256,264a80.09,80.09,0,0,0,80-80V96a80,80,0,0,0-160,0v88A80.09,80.09,0,0,0,256,264ZM208,96a48,48,0,0,1,96,0v88a48,48,0,0,1-96,0Z"/><path class="cls-1" d="M376,176a120,120,0,0,1-240,0H104c0,78.41,59.68,143.14,136,151.16V416h32V327.16c76.32-8,136-72.75,136-151.16Z"/><rect class="cls-1" x="160" y="464" width="32" height="32"/><rect class="cls-1" x="240" y="464" width="32" height="32"/><rect class="cls-1" x="320" y="464" width="32" height="32"/></svg>