<svg id="export" xmlns="http://www.w3.org/2000/svg" viewBox="0 0 512 512"><defs><style>.cls-1{fill:currentColor;}</style></defs><title>music-video</title><path class="cls-1" d="M334.67,259.16A50.11,50.11,0,0,0,320,261.35V136L144,171.8V337.58h.14c-.08,1.06-.14,2.13-.14,3.21,0,23.86,20.89,43.21,46.67,43.21s46.66-19.35,46.66-43.21-20.89-43.21-46.66-43.21A50.11,50.11,0,0,0,176,299.77V229.06l112-22.78v99.3h.14c1.78,22.36,21.92,40,46.53,40,25.77,0,46.66-19.35,46.66-43.21S360.44,259.16,334.67,259.16Z"/><path class="cls-1" d="M464,72H48a32,32,0,0,0-32,32V415a32,32,0,0,0,32,32H464a32,32,0,0,0,32-32V104A32,32,0,0,0,464,72Zm0,343H48V104H464l0,311Z"/></svg>