<svg id="export" xmlns="http://www.w3.org/2000/svg" viewBox="0 0 512 512"><defs><style>.cls-1{fill:currentColor;}</style></defs><title>new-releases</title><path class="cls-1" d="M468.75,256l10.4-44.1,3.94-16.75L471.3,182.62l-31.06-33-13-43.4-5-16.47-16.47-5-43.4-13-33-31.06L316.85,28.91,300.1,32.85,256,43.25l-44.1-10.4-16.75-3.94L182.62,40.7l-33,31.06-43.4,13-16.47,5-5,16.47-13,43.4-31.06,33L28.91,195.15l3.94,16.75L43.25,256l-10.4,44.1-3.94,16.75L40.7,329.38l31.06,33,13,43.4,5,16.47,16.47,5,43.4,13,33,31.06,12.53,11.79,16.75-3.94,44.1-10.4,44.1,10.4,16.75,3.94,12.53-11.79,33-31.06,43.4-13,16.47-5,5-16.47,13-43.4,31.06-33,11.79-12.53-3.94-16.75ZM448,307.45l-36.23,38.49-15.22,50.61-50.61,15.22L307.45,448,256,435.87,204.55,448l-38.49-36.23-50.61-15.22-15.22-50.61L64,307.45,76.13,256,64,204.55l36.23-38.48,15.22-50.62,50.61-15.22L204.55,64,256,76.13,307.45,64l38.49,36.23,50.61,15.22,15.22,50.62L448,204.55,435.87,256Z"/><path class="cls-1" d="M256,296a56,56,0,1,0,56,56A56.06,56.06,0,0,0,256,296Zm0,80a24,24,0,1,1,24-24A24,24,0,0,1,256,376Z"/><path class="cls-1" d="M200,186.9,234.91,280h42.18L312,186.9V112H200ZM232,144h48v37.1l-24,64-24-64Z"/></svg>