<svg id="export" xmlns="http://www.w3.org/2000/svg" viewBox="0 0 512 512"><defs><style>.cls-1{fill:currentColor;}</style></defs><title>queue-remove</title><path class="cls-1" d="M368,48V16H40A24,24,0,0,0,16,40V368H48V48H368Z"/><path class="cls-1" d="M400,112h32V80H104a24,24,0,0,0-24,24V432h32V112H400Z"/><path class="cls-1" d="M472,144H168a24,24,0,0,0-24,24V472a24,24,0,0,0,24,24H472a24,24,0,0,0,24-24V168A24,24,0,0,0,472,144Zm-8,320H176V176H464Z"/><polygon class="cls-1" points="408 336 408 304 232 304 232 336 336 336 408 336"/></svg>