<svg id="export" xmlns="http://www.w3.org/2000/svg" viewBox="0 0 512 512"><defs><style>.cls-1{fill:currentColor;}</style></defs><title>queue-play-next</title><path class="cls-1" d="M368,48V16H40A24,24,0,0,0,16,40V368H48V48H368Z"/><path class="cls-1" d="M400,112h32V80H104a24,24,0,0,0-24,24V432h32V112H400Z"/><path class="cls-1" d="M472,144H168a24,24,0,0,0-24,24V472a24,24,0,0,0,24,24H472a24,24,0,0,0,24-24V168A24,24,0,0,0,472,144Zm-8,320H176V176H464Z"/><path class="cls-1" d="M411.53,312l-134.4-96H248V408h29.13ZM280,257.38,356.47,312,280,366.62Z"/></svg>