<svg id="export" xmlns="http://www.w3.org/2000/svg" viewBox="0 0 512 512"><defs><style>.cls-1{fill:currentColor;}</style></defs><title>random</title><polygon class="cls-1" points="227.11 281.24 344.43 424.4 432.57 424.4 380.69 476.28 403.31 498.91 493.82 408.4 403.31 317.89 380.69 340.52 432.57 392.4 359.57 392.4 247.8 256 359.57 119.6 432.17 119.6 380.69 171.08 403.31 193.71 493.82 103.2 403.31 12.69 380.69 35.31 432.97 87.6 344.43 87.6 227.11 230.76 103.58 80 16 80 16 112 88.42 112 206.43 256 88.42 400 16 400 16 432 103.58 432 227.11 281.24"/></svg>