<svg id="export" xmlns="http://www.w3.org/2000/svg" viewBox="0 0 512 512"><defs><style>.cls-1{fill:currentColor;}</style></defs><title>recent-actors</title><path class="cls-1" d="M432,332.13a49,49,0,0,0-22.36-41.2l-28.75-18.69,13.82-33.65V185.71a65.71,65.71,0,1,0-131.42,0v52.56L276,273l-27.65,18A49,49,0,0,0,226,332.13V384H432ZM400,352H258V332.13a17.08,17.08,0,0,1,7.8-14.37l49-31.88-19.54-53.29V185.71a33.71,33.71,0,0,1,67.42,0v46.56l-21.49,52.35,51,33.14a17.08,17.08,0,0,1,7.8,14.37Z"/><path class="cls-1" d="M472,14.67H184a24,24,0,0,0-24,24V56H112A24,24,0,0,0,88,80V96H48a32,32,0,0,0-32,32V384a32,32,0,0,0,32,32H88v16a24,24,0,0,0,24,24h48v14.67a24,24,0,0,0,24,24H472a24,24,0,0,0,24-24v-432A24,24,0,0,0,472,14.67ZM88,384H48V128H88Zm72,40H120V88h40Zm304,38.67H192v-416H464Z"/></svg>