<svg id="export" xmlns="http://www.w3.org/2000/svg" viewBox="0 0 512 512"><defs><style>.cls-1{fill:currentColor;}</style></defs><title>remote-settings</title><path class="cls-1" d="M328,392V121.33a24,24,0,0,0-24-24H192a24,24,0,0,0-24,24V392a24,24,0,0,0,24,24H304A24,24,0,0,0,328,392Zm-32-8H200V129.33h96Z"/><rect class="cls-1" x="232" y="161.33" width="32" height="32"/><path class="cls-1" d="M248,49.33a111.65,111.65,0,0,1,79.16,32.84l22.62-22.61a143.77,143.77,0,0,0-203.56,0l22.62,22.61A111.65,111.65,0,0,1,248,49.33Z"/><rect class="cls-1" x="160" y="464" width="32" height="32"/><rect class="cls-1" x="240" y="464" width="32" height="32"/><rect class="cls-1" x="320" y="464" width="32" height="32"/></svg>