<svg id="export" xmlns="http://www.w3.org/2000/svg" viewBox="0 0 512 512"><defs><style>.cls-1{fill:currentColor;}</style></defs><title>replay</title><path class="cls-1" d="M277.91,114.12l4.48-25.49,9.41-53.57L240.4,52.85,162.57,79.79,113,97l38,36.22,62.61,59.74,43.26,41.27,10.34-58.89,5.21-29.66C340.21,157.25,392,216.47,392,287.56c0,79.4-64.6,144-144,144s-144-64.6-144-144H72c0,97.05,78.95,176,176,176s176-78.95,176-176C424,200.71,360.76,128.36,277.91,114.12Zm-42.27,55.64L173,110l77.83-26.94Z"/></svg>