<svg id="export" xmlns="http://www.w3.org/2000/svg" viewBox="0 0 512 512"><defs><style>.cls-1{fill:currentColor;}</style></defs><title>tv-dvr</title><rect class="cls-1" x="112" y="200" width="32" height="32"/><rect class="cls-1" x="112" y="280" width="32" height="32"/><rect class="cls-1" x="176" y="200" width="224" height="32"/><rect class="cls-1" x="176" y="280" width="224" height="32"/><path class="cls-1" d="M472,88H303.13l72-72H329.87l-72,72h-3.24l-72-72H137.37l72,72H40a24,24,0,0,0-24,24V408a24,24,0,0,0,24,24H144v64H368V432H472a24,24,0,0,0,24-24V112A24,24,0,0,0,472,88ZM336,464H176V432H336Zm128-64H48V120H464Z"/></svg>