<svg id="export" xmlns="http://www.w3.org/2000/svg" viewBox="0 0 512 512"><defs><style>.cls-1{fill:currentColor;}</style></defs><title>tv-slash</title><path class="cls-1" d="M472,88H303.13l72-72H329.87l-72,72h-3.24l-72-72H137.37l72,72H154.63l32,32H464V397.37l26.22,26.22A23.85,23.85,0,0,0,496,408V112A24,24,0,0,0,472,88Z"/><path class="cls-1" d="M16,16V37.94L66.06,88H40a24,24,0,0,0-24,24V408a24,24,0,0,0,24,24H144v64H368V432h42.06l64,64H496V472.69L39.31,16ZM336,464H176V432H336Zm42.06-64H48V120H98.06Z"/></svg>