<svg id="export" xmlns="http://www.w3.org/2000/svg" viewBox="0 0 512 512"><defs><style>.cls-1{fill:currentColor;}</style></defs><title>volume-high</title><path class="cls-1" d="M145.37,120H16V392H145.37l104,104H288V16H249.37ZM128,360H48V152h80Zm128,97.37-96-96V150.63l96-96Z"/><path class="cls-1" d="M408,256a88.1,88.1,0,0,0-88-88v32a56,56,0,0,1,0,112v32A88.1,88.1,0,0,0,408,256Z"/><path class="cls-1" d="M320,57.45V89.72C401.31,101.4,464,171.51,464,256S401.31,410.6,320,422.28v32.27C419,442.66,496,358.16,496,256S419,69.34,320,57.45Z"/></svg>