<svg id="export" xmlns="http://www.w3.org/2000/svg" viewBox="0 0 512 512">
  <defs>
    <style>
      .cls-1 {
        fill:currentColor;
      }
    </style>
  </defs>
  <title>chat-square</title>
  <g>
    <path class="cls-1" d="M472,144.09H167.917a24.0272,24.0272,0,0,0-24,24V376a24.0272,24.0272,0,0,0,24,24H402.9131l52.0625,96H496V168.09A24.0272,24.0272,0,0,0,472,144.09Zm-8,301.4258L421.9619,368H175.917V176.09H464Z"/>
    <path class="cls-1" d="M47.9165,317.543V48.09H335.75V112h32V40.09a24.0272,24.0272,0,0,0-24-24H39.9165a24.0272,24.0272,0,0,0-24,24V368h41.02L112,264V240H88Z"/>
  </g>
</svg>
