<svg id="export" xmlns="http://www.w3.org/2000/svg" viewBox="0 0 512 512">
  <defs>
    <style>
      .cls-1 {
        fill:currentColor;
      }
    </style>
  </defs>
  <title>chat-bubble</title>
  <g>
    <path class="cls-1" d="M448.2051,392.5068C478.7241,365.3086,496,329.0518,496,291.4287c0-39.9834-18.7183-77.3779-52.707-105.2978C410.2183,158.9629,366.4321,144,320,144s-90.2183,14.9629-123.293,42.1309C162.7183,214.0508,144,251.4453,144,291.4287s18.7183,77.3779,52.707,105.2979c33.0747,27.1679,76.8609,42.1308,123.293,42.1308,6.1875,0,12.4121-.2734,18.585-.8164l10.5459,9.1406A199.8469,199.8469,0,0,0,480,496h16V461.9434l-4.686-4.6856A199.1632,199.1632,0,0,1,448.2051,392.5068ZM370.0889,423l-21.1612-18.3408-7.0556.8652A180.3241,180.3241,0,0,1,320,406.8574c-79.4019,0-144-51.7812-144-115.4287S240.5981,176,320,176s144,51.7813,144,115.4287c0,31.71-15.82,61.3145-44.5464,83.3584l-9.2148,7.0713,4.2519,12.0342A231.2785,231.2785,0,0,0,452.373,461.71,167.84,167.84,0,0,1,370.0889,423Z"/>
    <path class="cls-1" d="M60.1851,317.4756a220.492,220.492,0,0,0,34.8076-63.0225l4.2207-11.9756-9.2075-7.0654C62.918,214.626,48,186.7275,48,156.8574,48,96.833,109.0093,48,184,48c55.1681,0,102.7666,26.43,124.0772,64.3,3.957-.1916,7.9309-.3,11.9228-.3q12.0276,0,23.8341,1.1665c-8.2353-21.3343-22.5374-40.81-42.1979-56.96C270.0723,30.2793,228.2949,16,184,16S97.9277,30.2793,66.3638,56.2061C33.8862,82.8848,16,118.63,16,156.8574c0,35.7969,16.3516,70.2949,45.25,96.2422a188.3947,188.3947,0,0,1-40.563,60.7295L16,318.5146V352H32a190.6382,190.6382,0,0,0,85.2307-20.1248A157.3975,157.3975,0,0,1,112.16,298.23,158.696,158.696,0,0,1,60.1851,317.4756Z"/>
  </g>
</svg>
