<svg id="export" xmlns="http://www.w3.org/2000/svg" viewBox="0 0 512 512">
  <defs>
    <style>
      .cls-1 {
        fill:currentColor;
      }
    </style>
  </defs>
  <title>comment-bubble-smile</title>
  <g>
    <path class="cls-1" d="M427.8579,355.6875a201.5244,201.5244,0,0,0,47.0654-57.5366A171.1682,171.1682,0,0,0,496,216c0-54.0254-25.3755-104.6226-71.4521-142.4712C379.3848,36.4307,319.5269,16,256,16S132.6152,36.4307,87.4521,73.5288C41.3755,111.3774,16,161.9746,16,216S41.3755,320.6226,87.4521,358.4712C132.6152,395.5693,192.4731,416,256,416c9.3765,0,18.814-.4585,28.1479-1.3662l16.8272,14.584A273.3867,273.3867,0,0,0,480,496h16V457.3726l-4.6865-4.6861A285.2066,285.2066,0,0,1,427.8579,355.6875ZM321.9331,405.0361l-27.4775-23.8144-7.0552.8652A259.02,259.02,0,0,1,256,384C141.3086,384,48,308.6357,48,216S141.3086,48,256,48s208,75.3643,208,168c0,46.4292-23.0371,89.6777-64.8682,121.7783l-9.2089,7.0674,4.395,12.4634.0014.0039A317.4966,317.4966,0,0,0,456.936,462.8955,241.3773,241.3773,0,0,1,321.9331,405.0361Z"/>
    <rect class="cls-1" x="168" y="152" width="40" height="40"/>
    <rect class="cls-1" x="304" y="152" width="40" height="40"/>
    <path class="cls-1" d="M259.4375,280h-6.875a63.689,63.689,0,0,1-59.325-40h-34.47l4.6617,11.6538A95.5406,95.5406,0,0,0,252.5625,312h6.875a95.5406,95.5406,0,0,0,89.1333-60.3462L353.2325,240h-34.47A63.689,63.689,0,0,1,259.4375,280Z"/>
  </g>
</svg>
