<svg id="export" xmlns="http://www.w3.org/2000/svg" viewBox="0 0 512 512">
  <defs>
    <style>
      .cls-1 {
        fill:currentColor;
      }
    </style>
  </defs>
  <title>comment-square-smile</title>
  <g>
    <path class="cls-1" d="M472,16H40A24.0275,24.0275,0,0,0,16,40V344a24.0275,24.0275,0,0,0,24,24H379.249l69.522,128H496V40A24.0275,24.0275,0,0,0,472,16Zm-8,440.9922L398.2842,336H48V48H464Z"/>
    <rect class="cls-1" x="168" y="120" width="40" height="40"/>
    <rect class="cls-1" x="304" y="120" width="40" height="40"/>
    <path class="cls-1" d="M252.5625,280h6.875a95.54,95.54,0,0,0,89.1333-60.3467L353.2325,208h-34.47a63.6886,63.6886,0,0,1-59.3247,40h-6.875a63.6886,63.6886,0,0,1-59.3247-40h-34.47l4.6617,11.6533A95.54,95.54,0,0,0,252.5625,280Z"/>
  </g>
</svg>
