<svg id="export" xmlns="http://www.w3.org/2000/svg" viewBox="0 0 512 512">
  <defs>
    <style>
      .cls-1 {
        fill:currentColor;
      }
    </style>
  </defs>
  <title>speech</title>
  <g>
    <rect class="cls-1" x="144" y="240" width="32" height="32"/>
    <rect class="cls-1" x="240" y="240" width="32" height="32"/>
    <rect class="cls-1" x="336" y="240" width="32" height="32"/>
    <path class="cls-1" d="M464,32H48A32.0367,32.0367,0,0,0,16,64V352a32.0367,32.0367,0,0,0,32,32h64V496h30.627l112-112H464a32.0367,32.0367,0,0,0,32-32V64A32.0367,32.0367,0,0,0,464,32Zm0,320H241.373L144,449.373V352H48V64H464Z"/>
  </g>
</svg>
