<svg id="export" xmlns="http://www.w3.org/2000/svg" viewBox="0 0 512 512">
  <defs>
    <style>
      .cls-1 {
        fill: currentColor;
      }
    </style>
  </defs>
  <title>balance-scale-left</title>
  <g>
    <path class="cls-1" d="M93.875,255,16,419.4023v27.042l4.2344,4.5948a124.3458,124.3458,0,0,0,91.2236,39.9824c.14,0,.28,0,.42-.001a124.3433,124.3433,0,0,0,91.3692-40.6064l4.7529-5.23V419.4023L130.125,255ZM176,432.6084a90.9278,90.9278,0,0,1-64.2314,26.4121c-.1094.001-.2188.001-.3291.001A90.9073,90.9073,0,0,1,48,433.667v-7.0693l64-135.1114,64,135.1114Z"/>
    <path class="cls-1" d="M418.125,135h-36.25L304,299.4023v27.042l4.2344,4.5948a124.3458,124.3458,0,0,0,91.2236,39.9824c.14,0,.28,0,.42-.001a124.3433,124.3433,0,0,0,91.3692-40.6064l4.7529-5.23V299.4023ZM464,312.6084a90.9278,90.9278,0,0,1-64.2314,26.4121c-.1094.001-.2188.001-.3291.001A90.9073,90.9073,0,0,1,336,313.667v-7.0693l64-135.1114,64,135.1114Z"/>
    <path class="cls-1" d="M272,196.6587a55.9578,55.9578,0,0,0,39.6775-59.6333L416,91.8938V57.0281L299.29,107.5188a55.9916,55.9916,0,0,0-99.0037,41.1584L96,191.1978v34.5571l116.5239-47.51A56.1537,56.1537,0,0,0,240,196.6587V495H376V463H272ZM232,143a24,24,0,1,1,24,24A24,24,0,0,1,232,143Z"/>
  </g>
</svg>
