<svg id="export" xmlns="http://www.w3.org/2000/svg" viewBox="0 0 512 512">
  <defs>
    <style>
      .cls-1 {
        fill: currentColor;
      }
    </style>
  </defs>
  <title>bar-chart</title>
  <g>
    <path class="cls-1" d="M136,416h88a24.0275,24.0275,0,0,0,24-24V184a24.0275,24.0275,0,0,0-24-24H136a24.0275,24.0275,0,0,0-24,24V392A24.0275,24.0275,0,0,0,136,416Zm8-224h72V384H144Z"/>
    <path class="cls-1" d="M424,16H336a24.0275,24.0275,0,0,0-24,24V392a24.0275,24.0275,0,0,0,24,24h88a24.0275,24.0275,0,0,0,24-24V40A24.0275,24.0275,0,0,0,424,16Zm-8,368H344V48h72Z"/>
    <polygon class="cls-1" points="48 16 16 16 16 496 496 496 496 464 48 464 48 16"/>
  </g>
</svg>
