<svg id="export" xmlns="http://www.w3.org/2000/svg" viewBox="0 0 512 512">
  <defs>
    <style>
      .cls-1 {
        fill: currentColor;
      }
    </style>
  </defs>
  <title>basket-loaded</title>
  <g>
    <rect class="cls-1" x="120" y="304" width="32" height="128"/>
    <rect class="cls-1" x="200" y="304" width="32" height="128"/>
    <rect class="cls-1" x="280" y="304" width="32" height="128"/>
    <rect class="cls-1" x="360" y="304" width="32" height="128"/>
    <path class="cls-1" d="M473.6807,168,394.062,16H357.9385l79.6186,152H74.4429L154.0618,16H117.938L38.3191,168H16V279.4678L58.8564,496H453.1172L496,281.5845V168ZM464,278.4155,426.8828,464H85.1436L48,276.3315V272H464ZM464,240H48V200H464Z"/>
    <path class="cls-1" d="M171.3135,136l27.459-29.7471a81.6012,81.6012,0,0,1,122.2539,2.6382L343.9646,136h41.9182L345.4541,88.2207a113.6008,113.6008,0,0,0-170.1953-3.6728L127.7642,136Z"/>
  </g>
</svg>
