<svg id="export" xmlns="http://www.w3.org/2000/svg" viewBox="0 0 512 512">
  <defs>
    <style>
      .cls-1 {
        fill: currentColor;
      }
    </style>
  </defs>
  <title>basket-plus</title>
  <g>
    <path class="cls-1" d="M473.6813,168,394.0624,16H357.9378l79.619,152H74.4432l79.619-152H117.9376L38.3187,168H16V279.4678L58.8564,496h394.26L496,281.5845V168ZM464,278.4155,426.8833,464H85.1436L48,276.3315V272H464ZM464,240H48V200H464Z"/>
    <polygon class="cls-1" points="232 440 264 440 264 384 320 384 320 352 264 352 264 296 232 296 232 352 176 352 176 384 232 384 232 440"/>
  </g>
</svg>
