<svg id="export" xmlns="http://www.w3.org/2000/svg" viewBox="0 0 512 512">
  <defs>
    <style>
      .cls-1 {
        fill: currentColor;
      }
    </style>
  </defs>
  <title>branding-watermark</title>
  <g>
    <path class="cls-1" d="M472,72H40A24.0275,24.0275,0,0,0,16,96V416a24.0275,24.0275,0,0,0,24,24H472a24.0275,24.0275,0,0,0,24-24V96A24.0275,24.0275,0,0,0,472,72Zm-8,336H48V104H464Z"/>
    <rect class="cls-1" x="208" y="216" width="32" height="32"/>
    <rect class="cls-1" x="272" y="216" width="32" height="32"/>
    <rect class="cls-1" x="336" y="216" width="32" height="32"/>
    <rect class="cls-1" x="400" y="216" width="32" height="32"/>
    <rect class="cls-1" x="208" y="280" width="32" height="32"/>
    <rect class="cls-1" x="400" y="280" width="32" height="32"/>
    <rect class="cls-1" x="208" y="344" width="32" height="32"/>
    <rect class="cls-1" x="272" y="344" width="32" height="32"/>
    <rect class="cls-1" x="336" y="344" width="32" height="32"/>
    <rect class="cls-1" x="400" y="344" width="32" height="32"/>
  </g>
</svg>
