<svg id="export" xmlns="http://www.w3.org/2000/svg" viewBox="0 0 512 512">
  <defs>
    <style>
      .cls-1 {
        fill: currentColor;
      }
    </style>
  </defs>
  <title>briefcase-slash</title>
  <g>
    <path class="cls-1" d="M472,111.7319H368.7676V16h-224l.0005,60.8864,32,32L176.7676,48h160v63.7319H179.6138L213.15,145.2681H463.2314v80.2871l-53.1767,53.1767H346.6138L380.15,312.2681h43.7954l39.2861-39.2862V395.35l33.5372,33.5371V136.5A24.7965,24.7965,0,0,0,472,111.7319Z"/>
    <path class="cls-1" d="M496,473.3732v0L38.627,16H16V38.627l73.105,73.1049H42A24.7965,24.7965,0,0,0,17.2314,136.5V470.5327A24.7965,24.7965,0,0,0,42,495.3008L496,496ZM50.7686,145.2681h71.8725L256.105,278.7319h-152.16L50.7686,225.5552Zm0,316.4965V272.9819l39.2861,39.2862H289.6411L439.1377,461.7646Z"/>
  </g>
</svg>
