<svg id="export" xmlns="http://www.w3.org/2000/svg" viewBox="0 0 512 512">
  <defs>
    <style>
      .cls-1 {
        fill: currentColor;
      }
    </style>
  </defs>
  <title>british-pound-slash</title>
  <g>
    <path class="cls-1" d="M175.0469,62.99A207.9955,207.9955,0,0,1,432.5615,364.68L455.6924,387.81A238.87,238.87,0,0,0,496,254.6578c0-132.5482-107.4517-240-240-240A238.8676,238.8676,0,0,0,122.8474,54.9656l23.1309,23.1308A207.5693,207.5693,0,0,1,175.0469,62.99Z"/>
    <path class="cls-1" d="M275.6113,109.6577a67.7128,67.7128,0,0,0-60.5459,37.5258l25.241,25.2411a35.6438,35.6438,0,0,1,70.9524,4.8811h32A67.7244,67.7244,0,0,0,275.6113,109.6577Z"/>
    <path class="cls-1" d="M16,16V38.627L74.7485,97.3754A239.0217,239.0217,0,0,0,16,254.6578c0,132.5483,107.4517,240,240,240a239.0207,239.0207,0,0,0,157.2822-58.7485L473.373,496H496V473.373L38.627,16ZM239.9639,264h1.4091l80,80H239.9639Zm-32-33.4092V232h-48v32h48v80h-48v32H353.373l37.2315,37.2312A207.9826,207.9826,0,0,1,97.4265,120.0535Z"/>
  </g>
</svg>
