<svg id="export" xmlns="http://www.w3.org/2000/svg" viewBox="0 0 512 512">
  <defs>
    <style>
      .cls-1 {
        fill: currentColor;
      }
    </style>
  </defs>
  <title>cart-slash</title>
  <g>
    <path class="cls-1" d="M176.9844,368.3438a64,64,0,1,0,64,64A64.0726,64.0726,0,0,0,176.9844,368.3438Zm0,96a32,32,0,1,1,32-32A32.0361,32.0361,0,0,1,176.9844,464.3438Z"/>
    <polygon class="cls-1" points="163.92 96.039 195.92 128.039 464 128.039 464 191.383 428.5 304.039 371.92 304.039 403.92 336.039 451.968 336.039 496 196.305 496 96.039 163.92 96.039"/>
    <path class="cls-1" d="M38.627,16H16V38.627l77.5691,77.569,28.3625,219.8426h191.48L360.3331,382.96a63.9614,63.9614,0,1,0,90.0241,90.024L473.373,496H496V473.373ZM150.0684,304.0386,130.6138,153.2407,281.4116,304.0386Zm250.916,160.3052a31.9862,31.9862,0,0,1-17.8233-58.5557l44.3755,44.3755A31.9743,31.9743,0,0,1,400.9844,464.3438Z"/>
  </g>
</svg>
