<svg id="export" xmlns="http://www.w3.org/2000/svg" viewBox="0 0 512 512">
  <defs>
    <style>
      .cls-1 {
        fill: currentColor;
      }
    </style>
  </defs>
  <title>cart-plus</title>
  <g>
    <polygon class="cls-1" points="160 64 160 96 464 96 464 191.039 428.501 303.695 149.932 303.695 109.932 15.656 16 15.656 16 47.656 82.068 47.656 122.068 335.695 451.968 335.695 496 195.961 496 64 160 64"/>
    <path class="cls-1" d="M176.9844,368a64,64,0,1,0,64,64A64.0723,64.0723,0,0,0,176.9844,368Zm0,96a32,32,0,1,1,32-32A32.0363,32.0363,0,0,1,176.9844,464Z"/>
    <path class="cls-1" d="M400.9844,368a64,64,0,1,0,64,64A64.0723,64.0723,0,0,0,400.9844,368Zm0,96a32,32,0,1,1,32-32A32.0363,32.0363,0,0,1,400.9844,464Z"/>
    <polygon class="cls-1" points="272 128 272 184 216 184 216 216 272 216 272 272 304 272 304 216 360 216 360 184 304 184 304 128 272 128"/>
  </g>
</svg>
