<svg id="export" xmlns="http://www.w3.org/2000/svg" viewBox="0 0 512 512">
  <defs>
    <style>
      .cls-1 {
        fill: currentColor;
      }
    </style>
  </defs>
  <title>cart</title>
  <g>
    <polygon class="cls-1" points="160 96.039 160 128.039 464 128.039 464 191.384 428.5 304.039 149.932 304.039 109.932 16 16 16 16 48 82.068 48 122.068 336.039 451.968 336.039 496 196.306 496 96.039 160 96.039"/>
    <path class="cls-1" d="M176.9844,368.3438a64.0723,64.0723,0,0,0-64,64v.0009a64,64,0,0,0,128,0v-.0009A64.0724,64.0724,0,0,0,176.9844,368.3438Zm0,96a32,32,0,1,1,32-32A32.0365,32.0365,0,0,1,176.9844,464.3438Z"/>
    <path class="cls-1" d="M400.9844,368.3438a64.0723,64.0723,0,0,0-64,64v.0009a64,64,0,0,0,128,0v-.0009A64.0724,64.0724,0,0,0,400.9844,368.3438Zm0,96a32,32,0,1,1,32-32A32.0365,32.0365,0,0,1,400.9844,464.3438Z"/>
  </g>
</svg>
