<svg id="export" xmlns="http://www.w3.org/2000/svg" viewBox="0 0 512 512">
  <defs>
    <style>
      .cls-1 {
        fill: currentColor;
      }
    </style>
  </defs>
  <title>cart-arrow-down</title>
  <g>
    <polygon class="cls-1" points="160 72 160 104 464 104 464 191.382 428.5 304.039 149.932 304.039 109.932 16 16 16 16 48 82.068 48 122.068 336.039 451.968 336.039 496 196.305 496 72 160 72"/>
    <path class="cls-1" d="M176.9844,368.3438a64,64,0,1,0,64,64A64.0726,64.0726,0,0,0,176.9844,368.3438Zm0,96a32,32,0,1,1,32-32A32.0361,32.0361,0,0,1,176.9844,464.3438Z"/>
    <path class="cls-1" d="M400.9844,368.3438a64,64,0,1,0,64,64A64.0726,64.0726,0,0,0,400.9844,368.3438Zm0,96a32,32,0,1,1,32-32A32.0361,32.0361,0,0,1,400.9844,464.3438Z"/>
    <polygon class="cls-1" points="280 136 280 213.471 237.265 170.735 214.637 193.362 295.196 273.921 376.559 192.559 353.932 169.931 312 211.862 312 136 280 136"/>
  </g>
</svg>
