<svg id="export" xmlns="http://www.w3.org/2000/svg" viewBox="0 0 512 512">
  <defs>
    <style>
      .cls-1 {
        fill: currentColor;
      }
    </style>
  </defs>
  <title>cart-loaded</title>
  <g>
    <path class="cls-1" d="M176,368a64,64,0,1,0,64,64A64.0724,64.0724,0,0,0,176,368Zm0,96a32,32,0,1,1,32-32A32.0364,32.0364,0,0,1,176,464Z"/>
    <path class="cls-1" d="M400,368a64,64,0,1,0,64,64A64.0724,64.0724,0,0,0,400,368Zm0,96a32,32,0,1,1,32-32A32.0364,32.0364,0,0,1,400,464Z"/>
    <polygon class="cls-1" points="160 136 160 168 464 168 464 189.559 428.237 304 149.931 304 109.932 16 16 16 16 48 82.069 48 122.068 336 451.763 336 496 194.441 496 136 160 136"/>
    <path class="cls-1" d="M254.772,74.2529a81.6008,81.6008,0,0,1,122.2539,2.6387L399.9639,104h41.9184L401.4546,56.2217a113.6009,113.6009,0,0,0-170.1963-3.6738L183.7639,104h43.5493Z"/>
  </g>
</svg>
