<svg id="export" xmlns="http://www.w3.org/2000/svg" viewBox="0 0 512 512">
  <defs>
    <style>
      .cls-1 {
        fill: currentColor;
      }
    </style>
  </defs>
  <title>chart-multiline</title>
  <g>
    <path class="cls-1" d="M376,160v32h65.3725L364.627,268.7454a329.7689,329.7689,0,0,0-52.6958-68.6761A325.8538,325.8538,0,0,0,80,104v32c163.2148,0,296,132.7852,296,296h32a327.1529,327.1529,0,0,0-28.1053-133.2671L464,214.6274V280h32V160Z"/>
    <polygon class="cls-1" points="48 104 16 104 16 496 496 496 496 464 48 464 48 104"/>
    <path class="cls-1" d="M252,426.6279l81.5374-81.5374a294.4966,294.4966,0,0,0-13.8212-31.4345L252,381.3721l-72-72L76.686,412.6865l22.628,22.627L180,354.6279Z"/>
  </g>
</svg>
