<svg id="export" xmlns="http://www.w3.org/2000/svg" viewBox="0 0 512 512">
  <defs>
    <style>
      .cls-1 {
        fill: currentColor;
      }
    </style>
  </defs>
  <title>donate</title>
  <g>
    <path class="cls-1" d="M421.6792,320A182.8969,182.8969,0,0,0,440,240c0-101.458-82.542-184-184-184S72,138.542,72,240a182.8943,182.8943,0,0,0,18.321,80H16V496H496V320ZM256,88c83.8135,0,152,68.1865,152,152S339.8135,392,256,392,104,323.8135,104,240,172.1865,88,256,88ZM464,464H48V352h62.1206C122.0146,367.4556,144,384,160,392H88v32H424V392H352c16-8,37.9854-24.5444,49.8794-40H464Z"/>
    <path class="cls-1" d="M230.8457,260h52.3086a18,18,0,0,1,0,36H196.8457v32H240v32h32V328h11.1543a50,50,0,0,0,0-100H230.8457a18,18,0,1,1,0-36h86.3086V160H272V128H240v32h-9.1543a50,50,0,1,0,0,100Z"/>
  </g>
</svg>
