<svg id="export" xmlns="http://www.w3.org/2000/svg" viewBox="0 0 512 512">
  <defs>
    <style>
      .cls-1 {
        fill: currentColor;
      }
    </style>
  </defs>
  <title>euro</title>
  <path class="cls-1" d="M316,120h60V88H316c-73.7466,0-136.7939,46.6572-161.1951,112H104v32h42.2915a172.2127,172.2127,0,0,0,0,56H104v32h50.8049C179.2061,385.3428,242.2534,432,316,432h60V400H316a140.1756,140.1756,0,0,1-126.4736-80H344V288H178.8149a140.6664,140.6664,0,0,1,0-56H344V200H189.5264A140.1756,140.1756,0,0,1,316,120Z"/>
</svg>
