<svg id="export" xmlns="http://www.w3.org/2000/svg" viewBox="0 0 512 512">
  <defs>
    <style>
      .cls-1 {
        fill: currentColor;
      }
    </style>
  </defs>
  <title>loyalty</title>
  <g>
    <path class="cls-1" d="M485.8872,263.2607,248,25.373A31.7915,31.7915,0,0,0,225.3726,16H64A48.0547,48.0547,0,0,0,16,64V225.0781A32.1171,32.1171,0,0,0,26.0908,248.4L279.1523,486.125a23.8145,23.8145,0,0,0,16.41,6.51q.4468,0,.8955-.0166a23.8323,23.8323,0,0,0,16.7905-7.7344L486.5806,296.48A23.9422,23.9422,0,0,0,485.8872,263.2607ZM295.1714,457.2686,48,225.0781V64A16.0183,16.0183,0,0,1,64,48H225.3726L457.834,280.4619Z"/>
    <path class="cls-1" d="M136,84a52,52,0,1,0,52,52A52.0589,52.0589,0,0,0,136,84Zm0,72a20,20,0,1,1,20-20A20.0226,20.0226,0,0,1,136,156Z"/>
    <path class="cls-1" d="M205.7764,327.8574,290.23,412.3105l83.9517-83.9511a60.8394,60.8394,0,0,0-83.93-88.0508,60.8389,60.8389,0,0,0-84.4746,87.5488Zm22.6274-63.4111a28.8391,28.8391,0,0,1,40.7837,0l21.0415,21.043,20.541-20.5411a28.8384,28.8384,0,1,1,40.7832,40.7842L290.23,367.0566l-61.8252-61.8261A28.8722,28.8722,0,0,1,228.4038,264.4463Z"/>
  </g>
</svg>
