<svg id="export" xmlns="http://www.w3.org/2000/svg" viewBox="0 0 512 512">
  <defs>
    <style>
      .cls-1 {
        fill: currentColor;
      }
    </style>
  </defs>
  <title>percent</title>
  <g>
    <path class="cls-1" d="M144,200a88,88,0,1,0-88-88A88.1,88.1,0,0,0,144,200Zm0-144a56,56,0,1,1-56,56A56.0629,56.0629,0,0,1,144,56Z"/>
    <path class="cls-1" d="M360,312a88,88,0,1,0,88,88A88.1,88.1,0,0,0,360,312Zm0,144a56,56,0,1,1,56-56A56.0629,56.0629,0,0,1,360,456Z"/>
    <polygon class="cls-1" points="396.24 16 59.678 496 98.76 496 435.322 16 396.24 16"/>
  </g>
</svg>
