<svg id="export" xmlns="http://www.w3.org/2000/svg" viewBox="0 0 512 512">
  <defs>
    <style>
      .cls-1 {
        fill: currentColor;
      }
    </style>
  </defs>
  <title>ruble-circle-slash</title>
  <g>
    <path class="cls-1" d="M175.0469,64.3325A208.1328,208.1328,0,0,1,447.6675,336.9531q-2.7716,6.5523-5.9707,12.8618l23.6321,23.6324A238.8866,238.8866,0,0,0,496,256C496,123.4517,388.5483,16,256,16A238.8866,238.8866,0,0,0,138.553,46.6709l23.6321,23.6323Q168.4974,67.1129,175.0469,64.3325Z"/>
    <path class="cls-1" d="M357.0094,265.1274A83.95,83.95,0,0,0,292,128H219.8818l32,32H292a51.958,51.958,0,0,1,42.2041,82.3223Z"/>
    <path class="cls-1" d="M62.627,16H40V38.627L86.989,85.616A239.25,239.25,0,0,0,16,256c0,132.5483,107.4517,240,240,240a239.25,239.25,0,0,0,170.384-70.989L473.373,472H496V449.373ZM265.373,264H232.4209V231.0479ZM403.7566,402.3835c-.228.23-.4492.4654-.6785.6946A208,208,0,1,1,108.9219,108.9219c.2292-.2293.4646-.45.6946-.6785l90.8044,90.8045V264H168v32h32.4209v32H168v32h32.4209v32h32V360H296V328H232.4209V296H292c1.7466,0,3.4761-.071,5.1964-.1768Z"/>
  </g>
</svg>
