<svg id="export" xmlns="http://www.w3.org/2000/svg" viewBox="0 0 512 512">
  <defs>
    <style>
      .cls-1 {
        fill: currentColor;
      }
    </style>
  </defs>
  <title>wallet</title>
  <g>
    <path class="cls-1" d="M489.9717,119.0586a23.8385,23.8385,0,0,0-17-7.0586H456V72a24.0272,24.0272,0,0,0-24-24H86.6274A70.6273,70.6273,0,0,0,16,118.627V393.373A70.6273,70.6273,0,0,0,86.6274,464h385.4a24.0468,24.0468,0,0,0,24-23.9229l.9444-303.9951A23.84,23.84,0,0,0,489.9717,119.0586ZM464.0527,432H86.6274A38.6276,38.6276,0,0,1,48,393.373V118.627A38.6276,38.6276,0,0,1,86.6274,80H424v32H88v32H464.9473Z"/>
    <rect class="cls-1" x="392" y="264" width="32" height="32"/>
  </g>
</svg>
