<svg id="export" xmlns="http://www.w3.org/2000/svg" viewBox="0 0 512 512">
  <defs>
    <style>
      .cls-1 {
        fill: currentColor;
      }
    </style>
  </defs>
  <title>yen-circle-slash</title>
  <g>
    <path class="cls-1" d="M175.0469,64.3325A208.1327,208.1327,0,0,1,447.6674,336.9531q-3.9341,9.301-8.7134,18.1192l23.4433,23.4433A238.8628,238.8628,0,0,0,496,256C496,123.4517,388.5483,16,256,16A238.8645,238.8645,0,0,0,133.4846,49.6025l23.4432,23.4434Q165.7409,68.27,175.0469,64.3325Z"/>
    <polygon class="cls-1" points="272.814 188.933 295.754 211.872 349.02 137.3 322.98 118.7 272.814 188.933"/>
    <path class="cls-1" d="M276.8975,238.2705l-22.9392-22.9392L129.5,90.8726,106.713,68.0859h0L54.627,16H32V38.627l51.02,51.02A239.1853,239.1853,0,0,0,16,256c0,132.5483,107.4517,240,240,240A239.1853,239.1853,0,0,0,422.3527,428.98L473.373,480H496V457.373L282.5635,243.9365ZM399.7254,406.3523A207.993,207.993,0,0,1,105.6477,112.2747L241.373,248H176v32h64v32H176v32h64v56h32V344h65.373ZM272,312V280h1.373l32,32Z"/>
  </g>
</svg>
