<svg id="export" xmlns="http://www.w3.org/2000/svg" viewBox="0 0 512 512">
  <defs>
    <style>
      .cls-1, .cls-2 {
        fill:currentColor;
      }

      .cls-1 {
        opacity: 0.25;
      }
    </style>
  </defs>
  <title>calendar</title>
  <path class="cls-1" d="M472,88H400V16H336V88H176V16H112V88H40a24.0275,24.0275,0,0,0-24,24V448a24.0275,24.0275,0,0,0,24,24H472a24.0275,24.0275,0,0,0,24-24V112A24.0275,24.0275,0,0,0,472,88Z"/>
  <g>
    <rect class="cls-2" x="104" y="192" width="64" height="64"/>
    <rect class="cls-2" x="224" y="192" width="64" height="64"/>
    <rect class="cls-2" x="344" y="192" width="64" height="64"/>
    <rect class="cls-2" x="104" y="312" width="64" height="64"/>
    <rect class="cls-2" x="224" y="312" width="64" height="64"/>
    <rect class="cls-2" x="344" y="312" width="64" height="64"/>
  </g>
</svg>
