<svg id="export" xmlns="http://www.w3.org/2000/svg" viewBox="0 0 512 512">
  <defs>
    <style>
      .cls-1, .cls-2 {
        fill:currentColor;
      }

      .cls-1 {
        opacity: 0.25;
      }
    </style>
  </defs>
  <title>compass</title>
  <path class="cls-1" d="M494.9263,233C484.1,119.1468,393.7456,28.4824,280.0283,17.1912q-11.841-1.1757-24-1.1912-12.1509,0-24,1.1913C118.3115,28.4828,27.958,119.1472,17.1313,233c-.72,7.571-1.1025,15.24-1.1025,23a242.7467,242.7467,0,0,0,1.2918,25C29.0073,393.905,118.9624,483.5686,232,494.8062q11.8557,1.1786,24.0288,1.1938Q268.165,496,280,494.8113C393.0645,483.5984,483.0483,393.9241,494.7368,281a242.7465,242.7465,0,0,0,1.292-25C496.0288,248.2405,495.6465,240.571,494.9263,233Z"/>
  <g>
    <path class="cls-2" d="M280.0283,88V17.1912q-11.841-1.1757-24-1.1912-12.1509,0-24,1.1913V88Z"/>
    <path class="cls-2" d="M232,424v70.8062q11.8557,1.1786,24.0288,1.1938Q268.165,496,280,494.8113V424Z"/>
    <path class="cls-2" d="M494.9263,233H423.9717v48h70.7651a242.7465,242.7465,0,0,0,1.292-25C496.0288,248.2405,495.6465,240.571,494.9263,233Z"/>
    <path class="cls-2" d="M88,233H17.1313c-.72,7.571-1.1025,15.24-1.1025,23a242.7467,242.7467,0,0,0,1.2918,25H88Z"/>
    <path class="cls-2" d="M289.5215,222.15,175.1968,164.8908A8,8,0,0,0,164.458,175.62l57.1812,114.4119,114.2719,57.0391a8,8,0,0,0,10.7276-10.7368Z"/>
  </g>
</svg>
