<svg id="export" xmlns="http://www.w3.org/2000/svg" viewBox="0 0 512 512">
  <defs>
    <style>
      .cls-1, .cls-2 {
        fill:currentColor;
      }

      .cls-2 {
        opacity: 0.25;
      }
    </style>
  </defs>
  <title>language</title>
  <g>
    <polygon class="cls-1" points="32 32 32 304 172 304 172 208 172 202 139.171 202 128.914 231.304 90.773 231.304 147.229 70 188.771 70 224.47 172 304 172 304 32 32 32"/>
    <polygon class="cls-1" points="184.229 166 168 119.631 151.771 166 184.229 166"/>
  </g>
  <rect class="cls-2" x="208" y="208" width="272" height="272"/>
  <path class="cls-1" d="M362,286V248H326v38H264v36h23.7656a168.4586,168.4586,0,0,0,19.97,47.54,140.5833,140.5833,0,0,0,8.6856,12.39Q300.2238,389.9834,280,390v36c24.0742,0,45.6343-6.2617,64-18.4023C362.3657,419.7383,383.9258,426,408,426V390c-14.3013,0-26.3076-3.1162-36.3745-8.13a140.5218,140.5218,0,0,0,8.6387-12.33,168.4586,168.4586,0,0,0,19.97-47.54H424V286H362Zm-12.2642,64.46q-2.7531,4.4048-5.77,8.3232c-9.9472-12.7754-15.7221-26.8555-18.8794-36.7832h37.7285A129.7472,129.7472,0,0,1,349.7358,350.46Z"/>
</svg>
