<svg id="export" xmlns="http://www.w3.org/2000/svg" viewBox="0 0 512 512">
  <defs>
    <style>
      .cls-1 {
        fill: currentColor;
      }
    </style>
  </defs>
  <title>battery-slash</title>
  <g>
    <path class="cls-1" d="M432,176V119.59A23.8248,23.8248,0,0,0,408,96H163.8818l32,32H400v80h64V312H416v32h80V176Z"/>
    <path class="cls-1" d="M150.627,128l-32-32-80-80H16V38.627L73.373,96H39.9863a23.8248,23.8248,0,0,0-24,23.59V400.41a23.8244,23.8244,0,0,0,24,23.59H401.373l72,72H496V473.3731L266.5635,243.9365ZM47.9863,392V128H105.373l264,264Z"/>
  </g>
</svg>
