<svg id="export" xmlns="http://www.w3.org/2000/svg" viewBox="0 0 512 512">
  <defs>
    <style>
      .cls-1 {
        fill: currentColor;
      }
    </style>
  </defs>
  <title>battery-4</title>
  <g>
    <rect class="cls-1" x="80" y="160" width="32" height="200"/>
    <rect class="cls-1" x="144" y="160" width="32" height="200"/>
    <rect class="cls-1" x="208" y="160" width="32" height="200"/>
    <rect class="cls-1" x="272" y="160" width="32" height="200"/>
    <path class="cls-1" d="M432,176V119.59A23.8248,23.8248,0,0,0,408,96H39.9863a23.8248,23.8248,0,0,0-24,23.59V400.41a23.8248,23.8248,0,0,0,24,23.59H408a23.8248,23.8248,0,0,0,24-23.59V344h64V176Zm32,136H400v80H47.9863V128H400v80h64Z"/>
  </g>
</svg>
