<svg id="export" xmlns="http://www.w3.org/2000/svg" viewBox="0 0 512 512">
  <defs>
    <style>
      .cls-1 {
        fill: currentColor;
      }
    </style>
  </defs>
  <title>battery-unknown</title>
  <g>
    <path class="cls-1" d="M432,176V119.59A23.8248,23.8248,0,0,0,408,96H352v32h48v80h64V312H400v80H47.9863V128H136V96H39.9863a23.8248,23.8248,0,0,0-24,23.59V400.41a23.8244,23.8244,0,0,0,24,23.59H408a23.8244,23.8244,0,0,0,24-23.59V344h64V176Z"/>
    <path class="cls-1" d="M288,136a48.0547,48.0547,0,0,1-48,48H208a32.0364,32.0364,0,0,0-32,32v56h32V216h32a80,80,0,0,0,0-160H168V88h72A48.0547,48.0547,0,0,1,288,136Z"/>
    <polygon class="cls-1" points="176 320 176 336 208 336 208 320 208 304 176 304 176 320"/>
  </g>
</svg>
