<svg id="export" xmlns="http://www.w3.org/2000/svg" viewBox="0 0 512 512">
  <defs>
    <style>
      .cls-1 {
        fill: currentColor;
      }
    </style>
  </defs>
  <title>fire</title>
  <g>
    <path class="cls-1" d="M311.145,257.6c5.499-9.0312,11.1846-18.37,16.8018-28,18.7939-32.2178,22.2436-64.6807,10.2539-96.4883C314.0078,68.9326,233.1416,29.83,214.4214,23.5908l-13.1646-4.3887L180.7109,60.2949l9.9151,8.0977c.1108.09,11.1245,9.7129,11.8584,24.2969.6264,12.4521-6.1988,25.9091-20.2866,39.997-9.7823,9.7813-20.5181,19.2393-31.8848,29.252C102.4873,204.0693,48.28,251.82,48.28,342.1543q0,1.86.0346,3.7031A151.3619,151.3619,0,0,0,94.7588,452.3467,154.1769,154.1769,0,0,0,202.5835,496h92.1016l-11.3687-23.0723C237.1211,379.1768,269.7876,325.5254,311.145,257.6ZM202.5835,464c-66.1982,0-121.05-53.2666-122.2744-118.7393q-.0286-1.5453-.0288-3.1064c0-75.8779,46.3559-116.7129,91.1855-156.2041,11.2393-9.9014,22.8618-20.1387,33.3594-30.6367,20.7539-20.7539,30.7192-42.3653,29.6186-64.2324A64.96,64.96,0,0,0,227.23,64.5205c27.84,15.2119,67.5229,44.0537,81.0273,79.8779,8.5435,22.6641,5.9424,45.26-7.9511,69.0782-5.4654,9.3691-11.0718,18.5761-16.4937,27.4814C244.1318,306.1309,206.49,367.9434,244.3613,464Z"/>
    <path class="cls-1" d="M468.2427,341.1289q-.3978-1.5849-.834-3.1846c-11.5454-42.332-75.4566-96.7627-82.7061-102.8291l-14.5561-12.1826-9.5435,16.4082c-21.7529,37.4024-40.4214,71.5117-48.5591,110.2119-9.2793,44.1338-3.0332,88.9893,19.0957,137.13L335.4224,496h10.8755a125.1666,125.1666,0,0,0,99.2959-48.5049A123.1728,123.1728,0,0,0,468.2427,341.1289Zm-47.8794,86.6826a93.2981,93.2981,0,0,1-64.44,35.7041c-31.5411-75.8994-12.9312-127.6347,22.63-191.1133,23.6421,21.9942,52.4546,53.6895,57.9829,73.961q.3494,1.2818.6685,2.5537A91.37,91.37,0,0,1,420.3633,427.8115Z"/>
  </g>
</svg>
