<svg id="export" xmlns="http://www.w3.org/2000/svg" viewBox="0 0 512 512"><defs><style>.cls-1,.cls-2{fill:currentColor;}.cls-2{opacity:0.25;}</style></defs><title>blind</title><polygon class="cls-1" points="144.97 246.06 145 246.12 145 246.04 144.97 246.06"/><circle class="cls-1" cx="207.09" cy="64.09" r="38.09"/><polygon class="cls-1" points="196 347.19 167.15 290.07 93.18 475 144.88 475 196 347.19"/><polygon class="cls-2" points="415.3 475 441.5 475 344.48 253.44 325.73 270.47 415.3 475"/><path class="cls-1" d="M242,297.39V178.46l83.67,92,.06-.06,18.75-17,16.71-15.19L255.52,122H163.27l-35,22.75A68.28,68.28,0,0,0,97,202.24V274h48V246.12l0-.06,0,0V202.2A20.58,20.58,0,0,1,154.37,185l14.63-9.5v78.34L280.7,475h43.76Z"/></svg>