<svg id="export" xmlns="http://www.w3.org/2000/svg" viewBox="0 0 512 512"><defs><style>.cls-1{fill:none;}.cls-2,.cls-3{fill:currentColor;}.cls-3{opacity:0.25;}</style></defs><title>lock-locked</title><path class="cls-1" d="M259,64.05a80.08,80.08,0,0,0-83,80v56h160V145C336.05,101.79,302.18,65.62,259,64.05Z"/><path class="cls-2" d="M176.05,144a80.08,80.08,0,0,1,83-79.95c43.17,1.57,77,37.74,77,80.94v55h48V145.37C384.05,75.9,329.22,18,259.77,16.05,187.5,14,128.05,72.18,128.05,144v56h48Z"/><path class="cls-3" d="M384.05,200h-304V320a176,176,0,0,0,176,176h0a176,176,0,0,0,176-176V200Z"/><rect class="cls-2" x="232" y="280" width="48" height="96"/></svg>