<svg id="export" xmlns="http://www.w3.org/2000/svg" viewBox="0 0 512 512"><defs><style>.cls-1,.cls-2{fill:currentColor;}.cls-2{opacity:0.25;}</style></defs><title>lock-plus</title><path class="cls-1" d="M384,200V144A128,128,0,0,0,148.14,75.06l40.42,25.88A80,80,0,0,1,336,144v56Z"/><path class="cls-2" d="M384,200H80V320A176,176,0,0,0,256,496h0A176,176,0,0,0,432,320V200Z"/><polygon class="cls-1" points="274 264 238 264 238 318 184 318 184 354 238 354 238 408 274 408 274 354 328 354 328 318 274 318 274 264"/></svg>