<svg id="export" xmlns="http://www.w3.org/2000/svg" viewBox="0 0 512 512">
  <defs>
    <style>
      .cls-1 {
        fill: currentColor;
      }
    </style>
  </defs>
  <title>applications#apps</title>
  <g>
    <path class="cls-1" d="M88,32a64,64,0,1,0,64,64A64.0724,64.0724,0,0,0,88,32Zm0,96a32,32,0,1,1,32-32A32.0364,32.0364,0,0,1,88,128Z"/>
    <path class="cls-1" d="M256,32a64,64,0,1,0,64,64A64.0724,64.0724,0,0,0,256,32Zm0,96a32,32,0,1,1,32-32A32.0364,32.0364,0,0,1,256,128Z"/>
    <path class="cls-1" d="M424,160a64,64,0,1,0-64-64A64.0724,64.0724,0,0,0,424,160Zm0-96a32,32,0,1,1-32,32A32.0364,32.0364,0,0,1,424,64Z"/>
    <path class="cls-1" d="M88,192a64,64,0,1,0,64,64A64.0724,64.0724,0,0,0,88,192Zm0,96a32,32,0,1,1,32-32A32.0364,32.0364,0,0,1,88,288Z"/>
    <path class="cls-1" d="M256,192a64,64,0,1,0,64,64A64.0724,64.0724,0,0,0,256,192Zm0,96a32,32,0,1,1,32-32A32.0364,32.0364,0,0,1,256,288Z"/>
    <path class="cls-1" d="M424,192a64,64,0,1,0,64,64A64.0724,64.0724,0,0,0,424,192Zm0,96a32,32,0,1,1,32-32A32.0364,32.0364,0,0,1,424,288Z"/>
    <path class="cls-1" d="M88,352a64,64,0,1,0,64,64A64.0724,64.0724,0,0,0,88,352Zm0,96a32,32,0,1,1,32-32A32.0364,32.0364,0,0,1,88,448Z"/>
    <path class="cls-1" d="M256,352a64,64,0,1,0,64,64A64.0724,64.0724,0,0,0,256,352Zm0,96a32,32,0,1,1,32-32A32.0364,32.0364,0,0,1,256,448Z"/>
    <path class="cls-1" d="M424,352a64,64,0,1,0,64,64A64.0724,64.0724,0,0,0,424,352Zm0,96a32,32,0,1,1,32-32A32.0364,32.0364,0,0,1,424,448Z"/>
  </g>
</svg>
