<svg id="export" xmlns="http://www.w3.org/2000/svg" viewBox="0 0 512 512">
  <defs>
    <style>
      .cls-1 {
        fill: currentColor;
      }
    </style>
  </defs>
  <title>arrow-thick-square-right</title>
  <g>
    <path class="cls-1" d="M224.0146,400H262.418L406.6357,256.1738,262.6465,112.0107l-38.6475-.0185L224.0029,192H128V320h96.0107ZM160,224h96.0049l-.0039-73.36L361.3643,256.1289,256.0127,361.1953,256.0088,288H160Z"/>
    <path class="cls-1" d="M472,16H40A24.0275,24.0275,0,0,0,16,40V472a24.0275,24.0275,0,0,0,24,24H472a24.0275,24.0275,0,0,0,24-24V40A24.0275,24.0275,0,0,0,472,16Zm-8,448H48V48H464Z"/>
  </g>
</svg>
