<svg id="export" xmlns="http://www.w3.org/2000/svg" viewBox="0 0 512 512">
  <defs>
    <style>
      .cls-1 {
        fill: currentColor;
      }
    </style>
  </defs>
  <title>arrow-thick-square-down</title>
  <g>
    <path class="cls-1" d="M399.9873,262.6465l.0215-38.6475L320,224.0029V128H192v96.0107l-80,.0039V262.418L255.8262,406.6357ZM224,256.0088V160h64v96.0049l73.3594-.0039L255.8711,361.3643,150.8047,256.0127Z"/>
    <path class="cls-1" d="M472,16H40A24.0275,24.0275,0,0,0,16,40V472a24.0275,24.0275,0,0,0,24,24H472a24.0275,24.0275,0,0,0,24-24V40A24.0275,24.0275,0,0,0,472,16Zm-8,448H48V48H464Z"/>
  </g>
</svg>
