<svg id="export" xmlns="http://www.w3.org/2000/svg" viewBox="0 0 512 512">
  <defs>
    <style>
      .cls-1 {
        fill: currentColor;
      }
    </style>
  </defs>
  <title>arrow-thick-circle-left</title>
  <g>
    <path class="cls-1" d="M287.9854,112h-39.023L104.7446,255.8262l143.99,144.1611,39.2661.0215L287.9966,320H368V192H287.99ZM336,288H255.9946l.0044,73.9785L150.0171,255.8711,255.9878,150.1875,255.9917,224H336Z"/>
    <path class="cls-1" d="M425.7056,86.2939A240,240,0,0,0,86.2944,425.7061,240,240,0,0,0,425.7056,86.2939ZM256,464C141.3086,464,48,370.6914,48,256S141.3086,48,256,48s208,93.3086,208,208S370.6914,464,256,464Z"/>
  </g>
</svg>
