<svg id="export" xmlns="http://www.w3.org/2000/svg" viewBox="0 0 512 512">
  <defs>
    <style>
      .cls-1 {
        fill: currentColor;
      }
    </style>
  </defs>
  <title>arrow-thick-circle-right</title>
  <g>
    <path class="cls-1" d="M263.2656,112.0117l-39.2666-.02L224.0029,192H144V320h80.0107l.0039,80h39.0225L407.2549,256.1733Zm-7.2529,249.8008L256.0088,288H176V224h80.0049l-.0039-73.9795L361.9834,256.1294Z"/>
    <path class="cls-1" d="M425.7061,86.2944A240,240,0,0,0,86.2939,425.7056,240,240,0,0,0,425.7061,86.2944ZM256,464C141.3086,464,48,370.6914,48,256S141.3086,48,256,48s208,93.3086,208,208S370.6914,464,256,464Z"/>
  </g>
</svg>
