<svg id="export" xmlns="http://www.w3.org/2000/svg" viewBox="0 0 512 512">
  <defs>
    <style>
      .cls-1 {
        fill: currentColor;
      }
    </style>
  </defs>
  <title>arrow-thick-circle-up</title>
  <g>
    <path class="cls-1" d="M112.0117,249.3535l-.02,38.6611L192,288.0107V368H320V288.0029l80-.0039V249.582L256.1733,105.3643ZM288,256.0049V336H224V256.0088l-73.373.0039,105.5024-105.377L361.2085,256.001Z"/>
    <path class="cls-1" d="M425.7056,86.2939A240,240,0,0,0,86.2944,425.7061,240,240,0,0,0,425.7056,86.2939ZM256,464C141.3086,464,48,370.6914,48,256S141.3086,48,256,48s208,93.3086,208,208S370.6914,464,256,464Z"/>
  </g>
</svg>
