<svg id="export" xmlns="http://www.w3.org/2000/svg" viewBox="0 0 512 512">
  <defs>
    <style>
      .cls-1 {
        fill: currentColor;
      }
    </style>
  </defs>
  <title>arrow-thick-square-up</title>
  <g>
    <path class="cls-1" d="M192,384H320V287.9893l80-.0039V249.582L256.1738,105.3643,112.0107,249.3535l-.0185,38.6475L192,287.9971ZM150.64,255.999,256.1289,150.6357,361.1953,255.9873,288,255.9912V352H224V255.9951Z"/>
    <path class="cls-1" d="M472,16H40A24.0275,24.0275,0,0,0,16,40V472a24.0275,24.0275,0,0,0,24,24H472a24.0275,24.0275,0,0,0,24-24V40A24.0275,24.0275,0,0,0,472,16Zm-8,448H48V48H464Z"/>
  </g>
</svg>
