<svg id="export" xmlns="http://www.w3.org/2000/svg" viewBox="0 0 512 512">
  <defs>
    <style>
      .cls-1 {
        fill: currentColor;
      }
    </style>
  </defs>
  <title>brightness-medium</title>
  <g>
    <path class="cls-1" d="M497.5371,260.15,428.13,202.9556,417.8486,179.51,428.876,88.4932l-89.52,8.6372-23.8477-9.3081L258.9453,15.6665,201.7529,85.0737,178.3057,95.3555,87.29,84.33l8.6358,89.519-9.3086,23.85-72.1553,56.56L83.87,311.4526l10.2813,23.4453L83.124,425.9141l89.5225-8.6363,23.8467,9.3086,56.5625,72.1553,57.1953-69.4092,23.4424-10.28L424.7119,430.08l-8.6377-89.5235,9.3076-23.8452Zm-98.7822,36.7744-15.2666,39.107,5.5478,57.4921-60.1806-7.291-38.4463,16.86-36.7305,44.5742L216.28,399.9585l-39.1084-15.2656-57.4912,5.5464,7.291-60.1792L110.11,291.6108l-44.5723-36.729,47.708-37.3969,15.2656-39.1119-5.5459-57.4877,60.1778,7.2905,38.4511-16.8609,36.7276-44.5732L295.7207,114.45,334.83,129.7153l57.4892-5.5464-7.291,60.1788,16.8613,38.45,44.5733,36.73Z"/>
    <path class="cls-1" d="M168.7134,354.9272l43.5215,25.6009A131.773,131.773,0,0,0,256.0942,388q3.983,0,7.9058-.2427v-13.905L129.9539,295.0017A132.0733,132.0733,0,0,0,168.7134,354.9272Z"/>
    <path class="cls-1" d="M124.5835,244.6663,264,325.3811V288.4053L131.6855,211.802A131.3151,131.3151,0,0,0,124.5835,244.6663Z"/>
    <path class="cls-1" d="M152.7856,173.8372,264,236.5735v-36.74l-87.333-49.2649A132.777,132.777,0,0,0,152.7856,173.8372Z"/>
    <path class="cls-1" d="M220.2676,128.9236,264,152.9058V124.2417q-3.9232-.2362-7.9058-.2417A132.0933,132.0933,0,0,0,220.2676,128.9236Z"/>
  </g>
</svg>
