<svg id="export" xmlns="http://www.w3.org/2000/svg" viewBox="0 0 512 512">
  <defs>
    <style>
      .cls-1 {
        fill: currentColor;
      }
    </style>
  </defs>
  <title>brightness-auto</title>
  <g>
    <path class="cls-1" d="M235.4248,168l-55.176,157.4736h33.9076L224.4834,296h63.0314l10.3271,29.4736H331.75L276.5732,168Zm.2708,96,20.3034-57.9468L276.3026,264Z"/>
    <path class="cls-1" d="M497.5366,260.15l-69.4072-57.1943L417.8481,179.51l11.0264-91.0166-89.52,8.6372-23.8477-9.3081-56.562-72.1558L201.752,85.0737,178.3052,95.3555,87.29,84.33l8.6367,89.519-9.3091,23.85-72.1548,56.56L83.87,311.4526l10.2808,23.4453L83.1245,425.9141l89.5215-8.6363,23.8477,9.3086,56.5625,72.1553,57.1943-69.4092,23.4429-10.28,91.018,11.0274-8.6377-89.5239,9.3076-23.8453Zm-98.7832,36.7749-15.2646,39.1069,5.5468,57.4917-60.18-7.291-38.4468,16.86-36.7305,44.5742L216.28,399.9585l-39.1084-15.2656L119.68,390.2393l7.291-60.1792-16.86-38.4493-44.5732-36.729,47.7075-37.3969,15.2661-39.1119-5.5459-57.4877,60.1778,7.2905,38.4507-16.8613,36.7285-44.5728L295.7207,114.45,334.83,129.7153l57.4887-5.5464-7.291,60.1788,16.8614,38.45,44.5722,36.73Z"/>
  </g>
</svg>
