<svg id="export" xmlns="http://www.w3.org/2000/svg" viewBox="0 0 512 512">
  <defs>
    <style>
      .cls-1 {
        fill: currentColor;
      }
    </style>
  </defs>
  <title>brightness</title>
  <g>
    <path class="cls-1" d="M78.4619,253.835l52.522,43.2793,6.26,14.2758-8.3125,68.6172,67.7422-6.5351,14.52,5.6674,42.6416,54.398,43.28-52.5225,14.2734-6.2592,68.6187,8.3134-6.5361-67.7436,5.667-14.5191,54.3984-42.6416-52.5215-43.2793-6.26-14.2758,8.3125-68.6177-67.7413,6.5361-14.52-5.6675-42.642-54.3989-43.2784,52.522-14.2768,6.26-68.6167-8.312,6.5361,67.74L132.86,211.1943Zm81.0264-22.8536,11.6255-29.7846-3.4453-35.709,37.7788,4.5767,29.2807-12.8394,22.8145-27.687,23.478,29.9507,29.7822,11.6245,35.71-3.4453-4.5772,37.78,12.84,29.28,27.687,22.8145-29.9512,23.4785-11.624,29.7808,3.4453,35.7114-37.7807-4.5772-29.2774,12.8389-22.8154,27.688-23.4785-29.9507-29.7823-11.6245-35.7109,3.4453,4.5772-37.78-12.84-29.28L129.5381,254.458Z"/>
    <path class="cls-1" d="M472,16H40A24.0275,24.0275,0,0,0,16,40V472a24.0275,24.0275,0,0,0,24,24H472a24.0275,24.0275,0,0,0,24-24V40A24.0275,24.0275,0,0,0,472,16Zm-8,448H48V48H464Z"/>
  </g>
</svg>
