<svg id="export" xmlns="http://www.w3.org/2000/svg" viewBox="0 0 512 512">
  <defs>
    <style>
      .cls-1 {
        fill: currentColor;
      }
    </style>
  </defs>
  <title>chevron-double-down</title>
  <g>
    <path class="cls-1" d="M252.4824,345.0337l-109.02-109.021L64,315.4751,173.0869,424.563l-.041.0415,68.082,68.0815,11.3545,11.273.041.041,68.15-68.1484,11.206-11.2886L440.9658,315.4751l-79.4619-79.4624Zm45.5225,68.1489-11.17,11.252-34.3526,34.3515-.039-.0385L218.167,424.4707l.041-.0415L109.2539,315.4751l34.208-34.2075,109.0205,109.021,109.0215-109.021,34.208,34.2075Z"/>
    <path class="cls-1" d="M173.0459,203.396l68.082,68.0815,11.3545,11.273.041.041,68.15-68.1484,11.206-11.2886L440.9658,94.2671,361.5039,14.8042,252.4824,123.8252l-109.02-109.021L64,94.2671,173.0869,203.3545ZM109.2539,94.2671l34.208-34.208L252.4824,169.08,361.5039,60.0591l34.208,34.208-97.707,97.7065-11.1817,11.2642-34.3408,34.34-.039-.0385L218.167,203.2622l.041-.0415Z"/>
  </g>
</svg>
