<svg id="export" xmlns="http://www.w3.org/2000/svg" viewBox="0 0 512 512">
  <defs>
    <style>
      .cls-1 {
        fill: currentColor;
      }
    </style>
  </defs>
  <title>chevron-left</title>
  <path class="cls-1" d="M327.0859,496.89,184.4834,354.2861l-11.2588-11.15L87.626,257.5371l.0537-.0537,11.26-11.3672,85.497-85.498.0547.0537L327.0859,18.0771,424,114.9893,281.5059,257.4834,424,399.9775ZM184.64,309.2959l11.2667,11.1592,131.18,131.1806,51.6582-51.6582L236.251,257.4834,378.7441,114.9893,327.0859,63.3311,184.6943,205.7246l-.0547-.0537-51.8125,51.8125Z"/>
  <path class="cls-1" d="M327.0859,496.89,184.4834,354.2861l-11.2588-11.15L87.626,257.5371l.0537-.0537,11.26-11.3672,85.497-85.498.0547.0537L327.0859,18.0771,424,114.9893,281.5059,257.4834,424,399.9775ZM184.64,309.2959l11.2667,11.1592,131.18,131.1806,51.6582-51.6582L236.251,257.4834,378.7441,114.9893,327.0859,63.3311,184.6943,205.7246l-.0547-.0537-51.8125,51.8125Z"/>
</svg>
