<svg id="export" xmlns="http://www.w3.org/2000/svg" viewBox="0 0 512 512">
  <defs>
    <style>
      .cls-1 {
        fill: currentColor;
      }
    </style>
  </defs>
  <title>chevron-square-left</title>
  <g>
    <path class="cls-1" d="M472,16H40A24.0275,24.0275,0,0,0,16,40V472a24.0275,24.0275,0,0,0,24,24H472a24.0275,24.0275,0,0,0,24-24V40A24.0275,24.0275,0,0,0,472,16Zm-8,448H48V48H464Z"/>
    <path class="cls-1" d="M373.2266,350.8823l-94.5454-94.5454,95.9462-95.9463L295.9731,81.7363l-174.6,174.6006,173.2,173.2ZM295.9731,126.9912l33.3995,33.3994-95.9463,95.9463,94.5454,94.5454-33.3994,33.3994L166.6274,256.3369Z"/>
  </g>
</svg>
