<svg id="export" xmlns="http://www.w3.org/2000/svg" viewBox="0 0 512 512">
  <defs>
    <style>
      .cls-1 {
        fill: currentColor;
      }
    </style>
  </defs>
  <title>clone</title>
  <g>
    <path class="cls-1" d="M472,16H160a24.0269,24.0269,0,0,0-24,24V352a24.0269,24.0269,0,0,0,24,24H472a24.0269,24.0269,0,0,0,24-24V40A24.0269,24.0269,0,0,0,472,16Zm-8,328H168V48H464Z"/>
    <path class="cls-1" d="M344,464H48V168h56V136H40a24.0269,24.0269,0,0,0-24,24V472a24.0269,24.0269,0,0,0,24,24H352a24.0269,24.0269,0,0,0,24-24V408H344Z"/>
  </g>
</svg>
