<svg id="export" xmlns="http://www.w3.org/2000/svg" viewBox="0 0 512 512">
  <defs>
    <style>
      .cls-1 {
        fill: currentColor;
      }
    </style>
  </defs>
  <title>infinity</title>
  <path class="cls-1" d="M463.1953,176.8047a111.9968,111.9968,0,0,0-158.3906,0l-48.5693,48.5679L207.667,176.8037a112,112,0,1,0,0,158.3926l48.5684-48.5693,48.5693,48.5693A111.9994,111.9994,0,1,0,463.1953,176.8047ZM185.04,312.5693a80,80,0,1,1,0-113.1386l55.1954,55.1963v2.746Zm255.5284,0a80.0015,80.0015,0,0,1-113.1368,0l-55.1962-55.1972v-2.7442l55.1962-55.1963A80,80,0,0,1,440.5684,312.5693Z"/>
</svg>
