<svg id="export" xmlns="http://www.w3.org/2000/svg" viewBox="0 0 512 512">
  <defs>
    <style>
      .cls-1 {
        fill: currentColor;
      }
    </style>
  </defs>
  <title>options</title>
  <g>
    <path class="cls-1" d="M256,144a64,64,0,1,0-64-64A64.0726,64.0726,0,0,0,256,144Zm0-96a32,32,0,1,1-32,32A32.0361,32.0361,0,0,1,256,48Z"/>
    <path class="cls-1" d="M256,368a64,64,0,1,0,64,64A64.0726,64.0726,0,0,0,256,368Zm0,96a32,32,0,1,1,32-32A32.0361,32.0361,0,0,1,256,464Z"/>
    <path class="cls-1" d="M256,192a64,64,0,1,0,64,64A64.0726,64.0726,0,0,0,256,192Zm0,96a32,32,0,1,1,32-32A32.0361,32.0361,0,0,1,256,288Z"/>
  </g>
</svg>
