<svg id="export" xmlns="http://www.w3.org/2000/svg" viewBox="0 0 512 512">
  <defs>
    <style>
      .cls-1 {
        fill: currentColor;
      }
    </style>
  </defs>
  <title>overscan-settings</title>
  <g>
    <path class="cls-1" d="M472,16H40A24.0275,24.0275,0,0,0,16,40V392a24.0275,24.0275,0,0,0,24,24H472a24.0275,24.0275,0,0,0,24-24V40A24.0275,24.0275,0,0,0,472,16Zm-8,368H48V48H464Z"/>
    <polygon class="cls-1" points="256 108.827 293.757 140.292 314.243 115.708 256 67.173 197.757 115.708 218.243 140.292 256 108.827"/>
    <polygon class="cls-1" points="314.243 316.292 293.757 291.708 256 323.173 218.243 291.708 197.757 316.292 256 364.827 314.243 316.292"/>
    <polygon class="cls-1" points="388.292 274.243 436.827 216 388.292 157.757 363.708 178.243 395.173 216 363.708 253.757 388.292 274.243"/>
    <polygon class="cls-1" points="148.292 253.757 116.827 216 148.292 178.243 123.708 157.757 75.173 216 123.708 274.243 148.292 253.757"/>
    <rect class="cls-1" x="144" y="448" width="32" height="32"/>
    <rect class="cls-1" x="240" y="448" width="32" height="32"/>
    <rect class="cls-1" x="336" y="448" width="32" height="32"/>
  </g>
</svg>
