<svg id="export" xmlns="http://www.w3.org/2000/svg" viewBox="0 0 512 512">
  <defs>
    <style>
      .cls-1 {
        fill: currentColor;
      }
    </style>
  </defs>
  <title>overscan</title>
  <g>
    <path class="cls-1" d="M472,56H40A24.0275,24.0275,0,0,0,16,80V432a24.0275,24.0275,0,0,0,24,24H472a24.0275,24.0275,0,0,0,24-24V80A24.0275,24.0275,0,0,0,472,56Zm-8,368H48V88H464Z"/>
    <polygon class="cls-1" points="256 148.827 293.757 180.292 314.243 155.708 256 107.173 197.757 155.708 218.243 180.292 256 148.827"/>
    <polygon class="cls-1" points="314.243 356.292 293.757 331.708 256 363.173 218.243 331.708 197.757 356.292 256 404.827 314.243 356.292"/>
    <polygon class="cls-1" points="388.292 314.243 436.827 256 388.292 197.757 363.708 218.243 395.173 256 363.708 293.757 388.292 314.243"/>
    <polygon class="cls-1" points="148.292 293.757 116.827 256 148.292 218.243 123.708 197.757 75.173 256 123.708 314.243 148.292 293.757"/>
  </g>
</svg>
