<svg id="export" xmlns="http://www.w3.org/2000/svg" viewBox="0 0 512 512">
  <defs>
    <style>
      .cls-1 {
        fill: currentColor;
      }
    </style>
  </defs>
  <title>pin</title>
  <path class="cls-1" d="M477.8042,140.1963l-106-106a62.1318,62.1318,0,0,0-93.6167,81.2392l-4.9126,5.5333-97.6543,42.9-42.6113-23.0263a24.0355,24.0355,0,0,0-28.8594,4.6386L62.5986,189.4873a23.8811,23.8811,0,0,0,.479,33.4482l101.68,101.68L16,473.373V496H38.627L187.3845,347.2422,288.5991,448.457a23.9284,23.9284,0,0,0,33.2749.6416L366.3,407.9707a23.9777,23.9777,0,0,0,4.7725-29.0918L347.729,336.0215,389.86,245.5059l8.601-10.3174a62.1339,62.1339,0,0,0,79.3433-94.9922Zm-22.6279,65.23a30.1248,30.1248,0,0,1-42.6026,0L395.689,188.541l-33.08,39.6778L311.9058,337.1523l28.0869,51.5655-34.209,31.6689L91.2017,205.8057,123.2,171.916l50.9687,27.543,118.3863-52.0078,29.1772-32.8633L306.5737,99.4268h-.0009a30.1254,30.1254,0,0,1,42.604-42.6036l106,106a30.1254,30.1254,0,0,1,0,42.6036Z"/>
</svg>
