<svg id="export" xmlns="http://www.w3.org/2000/svg" viewBox="0 0 512 512">
  <defs>
    <style>
      .cls-1 {
        fill: currentColor;
      }
    </style>
  </defs>
  <title>power-settings</title>
  <g>
    <rect class="cls-1" x="144" y="464" width="32" height="32"/>
    <rect class="cls-1" x="240" y="464" width="32" height="32"/>
    <rect class="cls-1" x="336" y="464" width="32" height="32"/>
    <path class="cls-1" d="M312,76.82v34.2651A142.4181,142.4181,0,0,1,398.207,241.793C398.207,320.2061,334.4131,384,256,384S113.793,320.2061,113.793,241.793A142.4181,142.4181,0,0,1,200,111.0854V76.82C131.3292,100.1934,81.793,165.3164,81.793,241.793,81.793,337.8506,159.9419,416,256,416s174.207-78.1494,174.207-174.207C430.207,165.3164,380.6708,100.1934,312,76.82Z"/>
    <rect class="cls-1" x="240" y="16" width="32" height="229.793"/>
  </g>
</svg>
