<svg id="export" xmlns="http://www.w3.org/2000/svg" viewBox="0 0 512 512">
  <defs>
    <style>
      .cls-1 {
        fill: currentColor;
      }
    </style>
  </defs>
  <title>select-all</title>
  <g>
    <path class="cls-1" d="M96,416H416V96H96Zm32-288H384V384H128Z"/>
    <rect class="cls-1" x="16" y="16" width="32" height="32"/>
    <rect class="cls-1" x="80" y="16" width="32" height="32"/>
    <rect class="cls-1" x="144" y="16" width="32" height="32"/>
    <rect class="cls-1" x="208" y="16" width="32" height="32"/>
    <rect class="cls-1" x="272" y="16" width="32" height="32"/>
    <rect class="cls-1" x="336" y="16" width="32" height="32"/>
    <rect class="cls-1" x="400" y="16" width="32" height="32"/>
    <rect class="cls-1" x="464" y="16" width="32" height="32"/>
    <rect class="cls-1" x="16" y="464" width="32" height="32"/>
    <rect class="cls-1" x="80" y="464" width="32" height="32"/>
    <rect class="cls-1" x="144" y="464" width="32" height="32"/>
    <rect class="cls-1" x="208" y="464" width="32" height="32"/>
    <rect class="cls-1" x="272" y="464" width="32" height="32"/>
    <rect class="cls-1" x="336" y="464" width="32" height="32"/>
    <rect class="cls-1" x="400" y="464" width="32" height="32"/>
    <rect class="cls-1" x="464" y="400" width="32" height="32"/>
    <rect class="cls-1" x="464" y="336" width="32" height="32"/>
    <rect class="cls-1" x="464" y="272" width="32" height="32"/>
    <rect class="cls-1" x="464" y="208" width="32" height="32"/>
    <rect class="cls-1" x="464" y="144" width="32" height="32"/>
    <rect class="cls-1" x="464" y="80" width="32" height="32"/>
    <rect class="cls-1" x="16" y="400" width="32" height="32"/>
    <rect class="cls-1" x="16" y="336" width="32" height="32"/>
    <rect class="cls-1" x="16" y="272" width="32" height="32"/>
    <rect class="cls-1" x="16" y="208" width="32" height="32"/>
    <rect class="cls-1" x="16" y="144" width="32" height="32"/>
    <rect class="cls-1" x="16" y="80" width="32" height="32"/>
    <rect class="cls-1" x="464" y="464" width="32" height="32"/>
  </g>
</svg>
