<svg id="export" xmlns="http://www.w3.org/2000/svg" viewBox="0 0 512 512">
  <defs>
    <style>
      .cls-1 {
        fill: currentColor;
      }
    </style>
  </defs>
  <title>select</title>
  <g>
    <polygon class="cls-1" points="16 120 48 120 48 48 120 48 120 16 16 16 16 120"/>
    <polygon class="cls-1" points="392 16 392 48 464 48 464 120 496 120 496 16 392 16"/>
    <polygon class="cls-1" points="48 344 16 344 16 448 120 448 120 416 48 416 48 344"/>
    <rect class="cls-1" x="160" y="16" width="192" height="32"/>
    <rect class="cls-1" x="16" y="160" width="32" height="144"/>
    <path class="cls-1" d="M206.7334,183.4941a18.7755,18.7755,0,0,0-6.1094,19.1475L278.1152,496h31.8369L382.33,384.65,496,339.1836V307.3525L226.665,180.9316A18.7661,18.7661,0,0,0,206.7334,183.4941Zm245.5752,138.7L361.0273,358.707,299.82,452.8711,238.834,221.9932Z"/>
    <polygon class="cls-1" points="160 416 160 448 232.338 448 223.885 416 160 416"/>
    <polygon class="cls-1" points="464 256.982 496 272.002 496 160 464 160 464 256.982"/>
  </g>
</svg>
