<svg id="export" xmlns="http://www.w3.org/2000/svg" viewBox="0 0 512 512">
  <defs>
    <style>
      .cls-1 {
        fill: currentColor;
      }
    </style>
  </defs>
  <title>timeline</title>
  <path class="cls-1" d="M448,173.9746a64,64,0,1,0-32,0V240H272V173.9746a64,64,0,1,0-32,0V240H96V173.9746a64,64,0,1,0-32,0V240H16v32H152v66.0254a64,64,0,1,0,32,0V272H328v66.0254a64,64,0,1,0,32,0V272H496V240H448ZM400,112a32,32,0,1,1,32,32A32.0367,32.0367,0,0,1,400,112Zm-176,0a32,32,0,1,1,32,32A32.0367,32.0367,0,0,1,224,112ZM48,112a32,32,0,1,1,32,32A32.0367,32.0367,0,0,1,48,112ZM200,400a32,32,0,1,1-32-32A32.0367,32.0367,0,0,1,200,400Zm176,0a32,32,0,1,1-32-32A32.0367,32.0367,0,0,1,376,400Z"/>
</svg>
