<svg id="export" xmlns="http://www.w3.org/2000/svg" viewBox="0 0 512 512">
  <defs>
    <style>
      .cls-1 {
        fill: currentColor;
      }
    </style>
  </defs>
  <title>touch-app</title>
  <path class="cls-1" d="M454.4233,278.957,328,243.8389v-8.1846a116,116,0,1,0-104,0V312H199.582l-18.4936-22.6035A90.4139,90.4139,0,0,0,54.6577,276.0293a20.8621,20.8621,0,0,0-8.0254,33.47L215.0845,496H472V302.08A24.0671,24.0671,0,0,0,454.4233,278.957ZM192,132a84,84,0,1,1,136,65.9V132a52,52,0,0,0-104,0v65.9A83.8654,83.8654,0,0,1,192,132ZM440,464H229.3022L79.1411,297.75a58.439,58.439,0,0,1,77.1807,11.91L184.418,344H256V132a20,20,0,0,1,40,0V268.1611l144,40.001Z"/>
</svg>
