<svg id="export" xmlns="http://www.w3.org/2000/svg" viewBox="0 0 512 512">
  <defs>
    <style>
      .cls-1 {
        fill: currentColor;
      }
    </style>
  </defs>
  <title>view-array</title>
  <g>
    <path class="cls-1" d="M344,64H168a24.0272,24.0272,0,0,0-24,24V424a24.0272,24.0272,0,0,0,24,24H344a24.0272,24.0272,0,0,0,24-24V88A24.0272,24.0272,0,0,0,344,64Zm-8,352H176V96H336Z"/>
    <path class="cls-1" d="M88,64H40A24.0272,24.0272,0,0,0,16,88V424a24.0272,24.0272,0,0,0,24,24H88a24.0272,24.0272,0,0,0,24-24V88A24.0272,24.0272,0,0,0,88,64ZM80,416H48V96H80Z"/>
    <path class="cls-1" d="M472,64H424a24.0272,24.0272,0,0,0-24,24V424a24.0272,24.0272,0,0,0,24,24h48a24.0272,24.0272,0,0,0,24-24V88A24.0272,24.0272,0,0,0,472,64Zm-8,352H432V96h32Z"/>
  </g>
</svg>
