<svg id="export" xmlns="http://www.w3.org/2000/svg" viewBox="0 0 512 512">
  <defs>
    <style>
      .cls-1 {
        fill: currentColor;
      }
    </style>
  </defs>
  <title>view-carousel</title>
  <path class="cls-1" d="M344,448H168a24.0272,24.0272,0,0,1-24-24V88a24.0272,24.0272,0,0,1,24-24H344a24.0272,24.0272,0,0,1,24,24V424A24.0272,24.0272,0,0,1,344,448ZM176,416H336V96H176Z"/>
  <path class="cls-1" d="M87.999,384h-48a24.0272,24.0272,0,0,1-24-24V152a24.0272,24.0272,0,0,1,24-24h48a24.0272,24.0272,0,0,1,24,24V360A24.0272,24.0272,0,0,1,87.999,384Zm-40-32h32V160h-32Z"/>
  <path class="cls-1" d="M471.999,384h-48a24.0272,24.0272,0,0,1-24-24V152a24.0272,24.0272,0,0,1,24-24h48a24.0272,24.0272,0,0,1,24,24V360A24.0272,24.0272,0,0,1,471.999,384Zm-40-32h32V160h-32Z"/>
</svg>
