<svg id="export" xmlns="http://www.w3.org/2000/svg" viewBox="0 0 512 512">
  <defs>
    <style>
      .cls-1 {
        fill: currentColor;
      }
    </style>
  </defs>
  <title>x-square</title>
  <g>
    <path class="cls-1" d="M472,16H40A24.0275,24.0275,0,0,0,16,40V472a24.0275,24.0275,0,0,0,24,24H472a24.0275,24.0275,0,0,0,24-24V40A24.0275,24.0275,0,0,0,472,16Zm-8,448H48V48H464Z"/>
    <polygon class="cls-1" points="140.783 348.59 163.41 371.217 256 278.627 348.687 371.313 371.313 348.687 278.627 256 371.217 163.41 348.59 140.783 256 233.373 163.313 140.687 140.687 163.313 233.373 256 140.783 348.59"/>
  </g>
</svg>
