<svg id="export" xmlns="http://www.w3.org/2000/svg" viewBox="0 0 512 512">
  <defs>
    <style>
      .cls-1 {
        fill: currentColor;
      }
    </style>
  </defs>
  <title>zoom-out</title>
  <g>
    <rect class="cls-1" x="96.3438" y="175.3135" width="192" height="32"/>
    <path class="cls-1" d="M479.5977,399.7158l-81.084-81.084L336.146,292.8647A175.0146,175.0146,0,0,0,368,192c0-97.0469-78.9531-176-176-176S16,94.9531,16,192,94.9531,368,192,368a175.0313,175.0313,0,0,0,101.6189-32.3772l25.7,62.2043,81.0839,81.084a56,56,0,1,0,79.1954-79.1953ZM48,192c0-79.4014,64.5986-144,144-144s144,64.5986,144,144S271.4014,336,192,336,48,271.4014,48,192ZM456.9707,456.2842a24.0279,24.0279,0,0,1-33.9414,0L346.457,379.7119,322.5635,321.877l57.8349,23.8935,76.5723,76.5723A24.0279,24.0279,0,0,1,456.9707,456.2842Z"/>
  </g>
</svg>
