<svg xmlns="http://www.w3.org/2000/svg" id="export" viewBox="0 0 512 512">
  <defs>
    <style>
      .cls-1{fill:currentColor}
    </style>
  </defs>
  <path d="M470.1074,41.8926a88.3989,88.3989,0,0,0-130.9248,6.5293L189.8025,230.999l-91.074,18.5557a23.8735,23.8735,0,0,0-17.6494,15.0039L22.251,419.65a24.0359,24.0359,0,0,0,5.47,25.4814l37.94,37.94c9.6342,9.6343,22.7216,6.5166,25.4824,5.47l155.1562-58.8525a23.9214,23.9214,0,0,0,14.9385-17.3223l19.6675-90.09,182.6733-149.459a88.3989,88.3989,0,0,0,6.5293-130.9248ZM230.8984,401.3047,84.63,456.7861l-3.3945-3.3945,46.0781-46.0781-22.627-22.627L58.6084,430.7646l-4.6025-4.6025,55.43-146.1318,83.91-17.0967,55.618,55.6182ZM463.9287,107.21a55.7487,55.7487,0,0,1-20.6142,40.84L267.5361,291.8682l-47.4043-47.4043L363.9492,68.6855A56.3989,56.3989,0,0,1,463.9287,107.21Z" class="cls-1"/>
  <rect width="32" height="32" x="136" y="344" class="cls-1"/>
</svg>
