<svg xmlns="http://www.w3.org/2000/svg" viewBox="0 0 512 512">
  <path fill="currentColor" d="M469.9614,42.0391a88.8318,88.8318,0,0,0-125.6274,0L71.8379,314.5352,23.666,456.541a24.8442,24.8442,0,0,0,5.9971,25.709l.0869.0869a24.8445,24.8445,0,0,0,17.6123,7.3418A25.19,25.19,0,0,0,55.46,488.334l142.0053-48.1719L469.9609,167.666a88.8312,88.8312,0,0,0,.0005-125.6269ZM180.1157,412.2563,58.4824,453.5176,99.7437,331.8843,308.5005,123.1274,388.8726,203.5ZM447.3335,145.0386,411.5,180.8726l-80.3721-80.3721L366.9619,64.666a56.8317,56.8317,0,1,1,80.3716,80.3726Z"/>
</svg>
