<svg xmlns="http://www.w3.org/2000/svg" id="export" viewBox="0 0 512 512">
  <defs>
    <style>
      .cls-1{fill:currentColor}
    </style>
  </defs>
  <path d="M425.7056,86.2939A240,240,0,0,0,86.2944,425.7061,240,240,0,0,0,425.7056,86.2939ZM256,464C141.3086,464,48,370.6914,48,256S141.3086,48,256,48s208,93.3086,208,208S370.6914,464,256,464Z" class="cls-1"/>
  <path d="M372.5288,120H180.4678L121.8013,296h76.0468l-36.4,104h77.1792L384,254.627V208H318.751ZM352,240v1.373L225.3726,368H206.5518l36.4-104h-76.753l37.3335-112h111.939l-53.7778,88Z" class="cls-1"/>
</svg>
