<svg xmlns="http://www.w3.org/2000/svg" id="export" viewBox="0 0 512 512">
  <defs>
    <style>
      .cls-1{fill:currentColor}
    </style>
  </defs>
  <path d="M472,111.7319H368.7681V16h-224l0,95.7319H42A24.7961,24.7961,0,0,0,17.2319,136.5V470.5327A24.7961,24.7961,0,0,0,42,495.3008H472a24.7961,24.7961,0,0,0,24.7681-24.7681V136.5A24.7961,24.7961,0,0,0,472,111.7319ZM176.7681,48h160v63.7319H176.7686ZM463.2319,461.7646H50.7681V145.2681H463.2319Z" class="cls-1"/>
  <polygon points="275.084 214.58 252.456 191.952 138.775 305.633 252.456 419.313 275.084 396.686 200.03 321.633 352 321.633 352 289.633 200.03 289.633 275.084 214.58" class="cls-1"/>
</svg>
