<svg xmlns="http://www.w3.org/2000/svg" id="export" viewBox="0 0 512 512">
  <defs>
    <style>
      .cls-1{fill:currentColor}
    </style>
  </defs>
  <path d="M253.7319,48h4.5362c59.102,46.9063,159.9795,64.8486,197.602,70.1123-1.3518,72.8359-13.5726,154.0937-51.1283,220.0025l23.3425,23.3425a334.8074,334.8074,0,0,0,16.3928-30.6448C473.3569,269.4434,488,193.1328,488,104V89.5322l-14.395-1.4511c-1.3521-.1368-135.958-14.2588-199.2178-68.251L269.8994,16H242.1006l-4.4878,3.83C211.0734,42.4816,171.8933,58.1225,135.2839,68.657l25.65,25.65C193.9988,83.509,227.8661,68.5284,253.7319,48Z" class="cls-1"/>
  <path d="M39.313,16H16V37.9409l46.75,46.75c-14.69,2.3708-24.0054,3.355-24.3548,3.39L24,89.5322V104c0,89.1328,14.6431,165.4434,43.5229,226.8125,38.105,80.9736,100.1016,133.67,184.2671,156.624L256,488.584l4.21-1.1475c51.7118-14.1031,95.04-39.4527,129.6145-75.6711L474.0591,496H496V472.687ZM256,455.3818C96.5684,409.3291,58.5762,249.917,56.13,118.1123c8.5619-1.1979,20.407-3.0553,34.2831-5.7584L367.1537,389.0947C339.1114,418.576,302.7919,441.8657,256,455.3818Z" class="cls-1"/>
</svg>
