<svg xmlns="http://www.w3.org/2000/svg" id="export" viewBox="0 0 512 512">
  <defs>
    <style>
      .cls-1{fill:currentColor}
    </style>
  </defs>
  <path d="M256.0273,113.3726l-173.2011,173.2,78.6552,78.6543,94.5459-94.5454,95.9454,95.9462,78.6552-78.6543Zm0,112.0537-94.5459,94.5454L128.082,286.5723,256.0273,158.6274,385.3721,287.9731l-33.3994,33.3995Z" class="cls-1"/>
  <path d="M425.7061,86.2944A240,240,0,0,0,86.2939,425.7056,240,240,0,0,0,425.7061,86.2944ZM256,464C141.3086,464,48,370.6914,48,256S141.3086,48,256,48s208,93.3086,208,208S370.6914,464,256,464Z" class="cls-1"/>
</svg>
