<svg xmlns="http://www.w3.org/2000/svg" id="export" viewBox="0 0 512 512">
  <defs>
    <style>
      .cls-1{fill:currentColor}
    </style>
  </defs>
  <path d="M460.8577,50.5527a115.9487,115.9487,0,0,0-163.7891,0L211.304,136.3174h45.2539L319.6956,73.18A83.817,83.817,0,1,1,438.2307,191.7148l-99.99,99.99a83.9119,83.9119,0,0,1-118.5342,0A82.9591,82.9591,0,0,1,196.97,249.8135l-25.6006,25.6006a115.938,115.938,0,0,0,189.498,38.9179l99.99-99.99A115.9487,115.9487,0,0,0,460.8577,50.5527Z" class="cls-1"/>
  <path d="M192.0491,439.2754a84.414,84.414,0,0,1-119.38-119.3789L173.68,218.8848a83.9119,83.9119,0,0,1,118.5284-.0059l.8515.8516a83.0837,83.0837,0,0,1,22.2517,39.7414l25.3052-25.3052a115.2609,115.2609,0,0,0-24.9231-37.0573l-.8516-.8516a115.9449,115.9449,0,0,0-163.789,0L50.0422,297.27A116.4133,116.4133,0,1,0,214.676,461.9023l85.585-85.5849H255.0071Z" class="cls-1"/>
</svg>
