<svg xmlns="http://www.w3.org/2000/svg" id="export" viewBox="0 0 512 512">
  <defs>
    <style>
      .cls-1{fill:currentColor}
    </style>
  </defs>
  <path d="M136,104H112V16H80v88H56a24.0269,24.0269,0,0,0-24,24V384a24.0269,24.0269,0,0,0,24,24H80v88h32V408h24a24.0269,24.0269,0,0,0,24-24V128A24.0269,24.0269,0,0,0,136,104Zm-8,32V240H64V136ZM64,376V272h64V376Z" class="cls-1"/>
  <path d="M296,104H272V16H240v88H216a24.0269,24.0269,0,0,0-24,24V384a24.0269,24.0269,0,0,0,24,24h24v88h32V408h24a24.0269,24.0269,0,0,0,24-24V128A24.0269,24.0269,0,0,0,296,104Zm-8,32V240H224V136ZM224,376V272h64V376Z" class="cls-1"/>
  <path d="M456,104H432V16H400v88H376a24.0269,24.0269,0,0,0-24,24V384a24.0269,24.0269,0,0,0,24,24h24v88h32V408h24a24.0269,24.0269,0,0,0,24-24V128A24.0269,24.0269,0,0,0,456,104Zm-8,32V240H384V136ZM384,376V272h64V376Z" class="cls-1"/>
</svg>
