<svg xmlns="http://www.w3.org/2000/svg" id="export" viewBox="0 0 512 512">
  <defs>
    <style>
      .cls-1{fill:currentColor}
    </style>
  </defs>
  <path d="M168,383.4541a48,48,0,1,0-48-48A48.0537,48.0537,0,0,0,168,383.4541Zm0-64a16,16,0,1,1-16,16A16.0183,16.0183,0,0,1,168,319.4541Z" class="cls-1"/>
  <path d="M344,383.4541a48,48,0,1,0-48-48A48.0537,48.0537,0,0,0,344,383.4541Zm0-64a16,16,0,1,1-16,16A16.0183,16.0183,0,0,1,344,319.4541Z" class="cls-1"/>
  <path d="M416,16H96A48.0547,48.0547,0,0,0,48,64V431.4541h73.7036L72.1152,496h40.3526l49.5884-64.5459H349.9438L399.5322,496h40.3526l-49.5884-64.5459H464V64A48.0547,48.0547,0,0,0,416,16ZM80,64A16.0183,16.0183,0,0,1,96,48H416a16.0183,16.0183,0,0,1,16,16V239.4546H80ZM432,399.4541H80V272H432Z" class="cls-1"/>
  <rect width="128" height="32" x="192" y="88" class="cls-1"/>
</svg>
