<svg xmlns="http://www.w3.org/2000/svg" id="export" viewBox="0 0 512 512">
  <defs>
    <style>
      .cls-1{fill:currentColor}
    </style>
  </defs>
  <path d="M336,256a80,80,0,1,0-80,80A80.09,80.09,0,0,0,336,256Zm-128,0a48,48,0,1,1,48,48A48.05,48.05,0,0,1,208,256Z" class="cls-1"/>
  <path d="M160,398l85.31,98h21.38L352,398V368H160Zm147.83,2L256,459.54,204.17,400Z" class="cls-1"/>
  <path d="M245.31,16,160,114v30H352V114L266.69,16Zm-41.14,96L256,52.46,307.83,112Z" class="cls-1"/>
  <path d="M16,245.31v21.38L114,352h30V160H114Zm96,62.52L52.46,256,112,204.17Z" class="cls-1"/>
  <path d="M398,160H368V352h30l98-85.31V245.31Zm2,147.83V204.17L459.54,256Z" class="cls-1"/>
</svg>
