<svg xmlns="http://www.w3.org/2000/svg" viewBox="0 0 512 512">
  <path fill="currentColor" d="M494.6514,268.1675a207.1506,207.1506,0,0,0-31.376-87.8906,47.9938,47.9938,0,0,1-6.97-33.9908L466.4238,86.209a59.2468,59.2468,0,1,0-116.8476,0l10.1181,60.0771a47.99,47.99,0,0,1-6.97,33.99,206.44,206.44,0,0,0-21.633,44.8859,228.5636,228.5636,0,0,0-14.534-26.3264,56.0715,56.0715,0,0,1-8.1426-39.7119l11.3955-67.666A64.7094,64.7094,0,1,0,192.19,91.457l11.3955,67.6665a56.07,56.07,0,0,1-8.1426,39.7115,228.5676,228.5676,0,0,0-14.534,26.3267,206.43,206.43,0,0,0-21.633-44.8848,47.9938,47.9938,0,0,1-6.97-33.9908L162.4238,86.209a59.2468,59.2468,0,1,0-116.8476,0l10.1181,60.0771a47.99,47.99,0,0,1-6.97,33.99A206.0428,206.0428,0,0,0,27.9658,360.8853L58.624,446.8784h90.752l19.8382-55.6443c.9582,3.1042,1.96,6.1942,3.05,9.2527L206.3174,496h99.3652l34.0528-95.5132c1.09-3.0585,2.0922-6.1485,3.05-9.2527l19.8382,55.6443h90.752l30.6582-85.9931A207.1686,207.1686,0,0,0,494.6514,268.1675ZM83.1953,58.7744a27.2475,27.2475,0,0,1,47.6738,22.12l-7.2031,42.7691H84.334L77.1309,80.8945A27.1967,27.1967,0,0,1,83.1953,58.7744Zm43.702,128.8145H81.1024a79.81,79.81,0,0,0,7.2517-31.9253h31.2918A79.8142,79.8142,0,0,0,126.8973,187.5889Zm22.9943,162.55-23.08,64.7392H81.1885L58.1074,350.1392a175.3372,175.3372,0,0,1,5.5706-130.55h80.6438A175.3312,175.3312,0,0,1,149.8916,350.1392ZM231.0234,59.5884a32.71,32.71,0,0,1,57.2325,26.5542L279.8594,136H232.1406l-8.3965-49.8579A32.6506,32.6506,0,0,1,231.0234,59.5884ZM285.0164,208h-58.033a87.8631,87.8631,0,0,0,9.3633-40h39.3066A87.8655,87.8655,0,0,0,285.0164,208Zm24.5764,181.7407L283.1182,464H228.8818l-26.4746-74.2593A199.5116,199.5116,0,0,1,209.3,240H302.7A199.5115,199.5115,0,0,1,309.5928,389.7407ZM387.1953,58.7744a27.2475,27.2475,0,0,1,47.6738,22.12l-7.2031,42.7691H388.334l-7.2031-42.7691A27.1967,27.1967,0,0,1,387.1953,58.7744Zm43.702,128.8145H385.1024a79.81,79.81,0,0,0,7.2517-31.9253h31.2918A79.8142,79.8142,0,0,0,430.8973,187.5889Zm22.9943,162.55-23.08,64.7392h-45.623l-23.0811-64.7392a175.3372,175.3372,0,0,1,5.5706-130.55h80.6438A175.3312,175.3312,0,0,1,453.8916,350.1392Z"/>
</svg>
