<svg xmlns="http://www.w3.org/2000/svg" id="export" viewBox="0 0 512 512">
  <defs>
    <style>
      .cls-1{fill:currentColor}
    </style>
  </defs>
  <polygon points="272 240 272 72 272 40 240 40 240 72 240 240 72 240 40 240 40 272 72 272 240 272 240 440 240 472 272 472 272 440 272 272 440 272 472 272 472 240 440 240 272 240" class="cls-1"/>
  <rect width="32" height="32" x="440" y="440" class="cls-1"/>
  <rect width="33.455" height="32" x="306.182" y="440" class="cls-1"/>
  <rect width="33.455" height="32" x="172.364" y="440" class="cls-1"/>
  <rect width="33.455" height="32" x="373.091" y="440" class="cls-1"/>
  <rect width="33.455" height="32" x="105.455" y="440" class="cls-1"/>
  <rect width="32" height="32" x="40" y="440" class="cls-1"/>
  <rect width="32" height="33.454" x="40" y="306.183" class="cls-1"/>
  <rect width="32" height="33.454" x="40" y="373.092" class="cls-1"/>
  <rect width="32" height="33.454" x="40" y="172.364" class="cls-1"/>
  <rect width="32" height="33.454" x="40" y="105.455" class="cls-1"/>
  <rect width="32" height="32" x="40" y="40" class="cls-1"/>
  <rect width="33.455" height="32" x="306.182" y="40" class="cls-1"/>
  <rect width="33.455" height="32" x="172.364" y="40" class="cls-1"/>
  <rect width="33.455" height="32" x="373.091" y="40" class="cls-1"/>
  <rect width="33.455" height="32" x="105.455" y="40" class="cls-1"/>
  <rect width="32" height="32" x="440" y="40" class="cls-1"/>
  <rect width="32" height="33.454" x="440" y="373.091" class="cls-1"/>
  <rect width="32" height="33.454" x="440" y="306.182" class="cls-1"/>
  <rect width="32" height="33.454" x="440" y="105.454" class="cls-1"/>
  <rect width="32" height="33.454" x="440" y="172.363" class="cls-1"/>
</svg>
