<svg xmlns="http://www.w3.org/2000/svg" viewBox="0 0 512 512">
  <path fill="currentColor" d="M434.624,221.4707l-.001-.001a84.3551,84.3551,0,0,0-29.5341-2.3359L384,221.2559V152.39a23.9978,23.9978,0,0,0-25.1416-23.9716l-81.8047,3.8955,2.55-25.335.0147-.1523a84.2855,84.2855,0,0,0-2.3369-29.5342c-9.84-36.7109-42.3292-61.376-80.8458-61.376S125.43,40.5811,115.59,77.292a84.2883,84.2883,0,0,0-2.3369,29.5322l2.5313,25.1475L41.1436,128.418A23.998,23.998,0,0,0,16,152.39V471.61a23.9981,23.9981,0,0,0,24.0146,23.999q.5625,0,1.127-.0274l92.251-4.3925,15.1592-17.584-3.4366-34.1377a52.433,52.433,0,0,1,1.3828-18.2793c6.0381-22.5264,26.1065-37.6612,49.9375-37.6612s43.9,15.1348,49.9375,37.6612a52.4068,52.4068,0,0,1,1.3829,18.2773l-3.4024,33.8018,15.1592,17.584,99.3437,4.73A23.998,23.998,0,0,0,384,471.61V383.377l20.9365,2.1074.1543.0146a84.3113,84.3113,0,0,0,29.5332-2.3369C471.335,373.3223,496,340.833,496,302.3164S471.335,231.3105,434.624,221.4707ZM426.34,352.2529a52.4744,52.4744,0,0,1-18.2822,1.3838l-38.4551-3.8711L352,365.6855V463.22L277.8818,459.69l1.7217-17.1006.0147-.1523a84.2855,84.2855,0,0,0-2.3369-29.5342c-9.84-36.7109-42.3292-61.376-80.8458-61.376S125.43,376.1924,115.59,412.9033a84.2885,84.2885,0,0,0-2.3369,29.5322l1.77,17.5928L48,463.22V160.78l84.8018,4.0371,16.6806-17.584-4.3662-43.37a52.4494,52.4494,0,0,1,1.3818-18.2862c6.0381-22.5263,26.1065-37.6611,49.9375-37.6611s43.9,15.1348,49.9375,37.6611a52.4072,52.4072,0,0,1,1.3829,18.2774l-4.4,43.7207,16.6806,17.584L352,160.78v78.167l17.6025,15.92,38.4493-3.87a52.4673,52.4673,0,0,1,18.2871,1.3818C448.8652,258.417,464,278.4854,464,302.3164S448.8652,346.2158,426.34,352.2529Z"/>
</svg>
