<svg xmlns="http://www.w3.org/2000/svg" id="export" viewBox="0 0 512 512">
  <defs>
    <style>
      .cls-1{fill:currentColor}
    </style>
  </defs>
  <path d="M156.3877,198.1658a116.9671,116.9671,0,0,1,0-116.2222L128.61,66.07a148.9179,148.9179,0,0,0,0,147.9688Z" class="cls-1"/>
  <path d="M387.5544,214.0391a148.9172,148.9172,0,0,0,0-147.9688l-27.778,15.8733a116.9671,116.9671,0,0,1,0,116.2222Z" class="cls-1"/>
  <path d="M464.7329,21.9683,436.832,37.9119a205.5958,205.5958,0,0,1,0,204.2856l27.9009,15.9436a238.6219,238.6219,0,0,0,0-236.1728Z" class="cls-1"/>
  <path d="M51.4312,21.9683a238.6219,238.6219,0,0,0,0,236.1728L79.332,242.1975a205.5964,205.5964,0,0,1,0-204.2856Z" class="cls-1"/>
  <path d="M318.082,140A60,60,0,1,0,215.37,182.0862L110.7327,496h33.73l45.2605-135.7812H331.1772L380.2092,496h34.0227l-113.38-313.9749A59.794,59.794,0,0,0,318.082,140Zm-60-28a28,28,0,1,1-28,28A28,28,0,0,1,258.082,112ZM200.39,328.2188l42.5935-127.78H273.479l46.1428,127.78Z" class="cls-1"/>
</svg>
