<svg xmlns="http://www.w3.org/2000/svg" id="export" viewBox="0 0 512 512">
  <defs>
    <style>
      .cls-1{fill:currentColor}
    </style>
  </defs>
  <polygon points="432 80 432 16 400 16 400 80 336 80 336 112 400 112 400 176 432 176 432 112 496 112 496 80 432 80" class="cls-1"/>
  <rect width="40" height="40" x="112" y="256" class="cls-1"/>
  <rect width="40" height="40" x="248" y="256" class="cls-1"/>
  <path d="M203.4375,384h-6.875a63.69,63.69,0,0,1-59.3252-40h-34.47l4.6614,11.6533A95.542,95.542,0,0,0,196.5625,416h6.875a95.542,95.542,0,0,0,89.1338-60.3467L297.2327,344h-34.47A63.69,63.69,0,0,1,203.4375,384Z" class="cls-1"/>
  <path d="M200,128C98.542,128,16,210.542,16,312S98.542,496,200,496s184-82.542,184-184S301.458,128,200,128Zm0,336c-83.8135,0-152-68.1865-152-152s68.1865-152,152-152,152,68.1865,152,152S283.8135,464,200,464Z" class="cls-1"/>
</svg>
