<svg xmlns="http://www.w3.org/2000/svg" id="export" viewBox="0 0 512 512">
  <defs>
    <style>
      .cls-1{fill:currentColor}
    </style>
  </defs>
  <path d="M316,120h52V88H316a171.3315,171.3315,0,0,0-115.4795,44.6387l22.6558,22.6557A139.4213,139.4213,0,0,1,316,120Z" class="cls-1"/>
  <polygon points="299.882 232 344 232 344 200 267.882 200 299.882 232" class="cls-1"/>
  <path d="M266.5635,243.9365,254.627,232,232,209.373l-30.2294-30.2294-22.8753-22.8753L38.627,16H16V38.627L161.6128,184.24A171.0364,171.0364,0,0,0,154.8049,200H96v32h50.2914a172.22,172.22,0,0,0,0,56H96v32h58.8049C179.2059,385.3428,242.2529,432,316,432h36V400H316a140.1757,140.1757,0,0,1-126.4736-80H297.373l176,176H496V473.373ZM178.8149,288a140.2389,140.2389,0,0,1,7.0169-79.5413L265.373,288Z" class="cls-1"/>
</svg>
