<svg xmlns="http://www.w3.org/2000/svg" id="export" viewBox="0 0 512 512">
  <defs>
    <style>
      .cls-1{fill:currentColor}
    </style>
  </defs>
  <path d="M256,16C123.4517,16,16,123.4517,16,256S123.4517,496,256,496,496,388.5483,496,256,388.5483,16,256,16ZM403.0781,403.0781a207.2493,207.2493,0,1,1,44.5893-66.125A207.3427,207.3427,0,0,1,403.0781,403.0781Z" class="cls-1"/>
  <rect width="40" height="40" x="128" y="192" class="cls-1"/>
  <rect width="40" height="40" x="336" y="192" class="cls-1"/>
  <path d="M232,306.9482a5.0584,5.0584,0,0,1,.1943-1.3877L264,194.2407V168H232v21.7593L201.4263,296.7681A37.0507,37.0507,0,0,0,237.0518,344H296V312H237.0518A5.0574,5.0574,0,0,1,232,306.9482Z" class="cls-1"/>
</svg>
