<svg xmlns="http://www.w3.org/2000/svg" viewBox="0 0 512 512">
  <defs>
    <style>
      .a{fill:currentColor}
    </style>
  </defs>
  <rect width="32" height="32" x="232" y="400" class="a"/>
  <path d="M120,336V112H400V48a32.0364,32.0364,0,0,0-32-32H120A32.0364,32.0364,0,0,0,88,48V464a32.0364,32.0364,0,0,0,32,32H368a32.0364,32.0364,0,0,0,32-32V336Zm0-288H368l.0015,32H120ZM368,464H120V368H368.0156l.0049,95.999Z" class="a"/>
  <path d="M160,224a48,48,0,1,0,48-48A48.054,48.054,0,0,0,160,224Zm64,0a16,16,0,1,1-16-16A16.0183,16.0183,0,0,1,224,224Z" class="a"/>
  <path d="M320,176a48.0694,48.0694,0,1,0,32,12.2612A48.054,48.054,0,0,0,320,176Zm0,64a16,16,0,1,1,16-16A16.0183,16.0183,0,0,1,320,240Z" class="a"/>
  <path d="M432,176a48,48,0,1,0,48,48A48.054,48.054,0,0,0,432,176Zm0,64a16,16,0,1,1,16-16A16.0183,16.0183,0,0,1,432,240Z" class="a"/>
</svg>
