<svg xmlns="http://www.w3.org/2000/svg" id="export" viewBox="0 0 512 512">
  <defs>
    <style>
      .cls-1{fill:currentColor}
    </style>
  </defs>
  <circle cx="309.912" cy="82.088" r="34.088" class="cls-1" transform="rotate(-22.5 309.913 82.088)"/>
  <path d="M353.4141,200l-31.41-56.5383-60.5855-20.6394-77.6208,28.2256A24.0733,24.0733,0,0,0,168,173.6035V232h32V179.207l48.811-17.7494L158.6223,440h33.6126l50.082-155.811,7.8711,2.5683L288,356.0791V440h32V354.04a24.07,24.07,0,0,0-2.9307-11.4931l-37.56-68.8606,28.95-88.7151,19.269,34.6841A24.0141,24.0141,0,0,0,348.707,232H400V200Z" class="cls-1"/>
</svg>
