<svg xmlns="http://www.w3.org/2000/svg" viewBox="0 0 512 512">
  <path fill="currentColor" d="M256,16C123.4517,16,16,123.4517,16,256S123.4517,496,256,496,496,388.5483,496,256,388.5483,16,256,16ZM463.52,242H367.8c-1.5017-56.4027-11.7372-109.1594-29.2164-149.853a199.9955,199.9955,0,0,0-18.3854-34.0343C399.4053,83.7914,457.7825,155.69,463.52,242ZM256,464c-18.5718,0-37.9556-20.33-53.1812-55.7764C187.2894,372.0692,178.03,324.931,176.3011,274H335.6989c-1.7293,50.931-10.9883,98.0692-26.5177,134.2236C293.9556,443.67,274.5718,464,256,464ZM176.2085,242c1.4614-52.0781,10.7765-100.36,26.61-137.2236C218.0444,69.33,237.4282,49,256,49s37.9556,20.33,53.1812,55.7764C325.015,141.64,334.33,189.9219,335.7915,242ZM191.8019,58.1127A199.9955,199.9955,0,0,0,173.4165,92.147C155.9373,132.8406,145.7018,185.5973,144.2,242H48.48C54.2175,155.69,112.5947,83.7914,191.8019,58.1127ZM48.7838,274h95.4979c1.7792,55.2727,11.9656,106.8811,29.1348,146.8525a202.2765,202.2765,0,0,0,17.5081,32.75C113.3881,428.0819,56.0038,358.21,48.7838,274ZM321.0754,453.6025a202.2765,202.2765,0,0,0,17.5081-32.75c17.1692-39.9714,27.3556-91.58,29.1348-146.8525h95.4979C455.9962,358.21,398.6119,428.0819,321.0754,453.6025Z"/>
</svg>
