<svg xmlns="http://www.w3.org/2000/svg" id="export" viewBox="0 0 512 512">
  <defs>
    <style>
      .cls-1{fill:currentColor}
    </style>
  </defs>
  <path d="M146.7725,161.4814l94.5468,94.5455-95.9472,95.9462,78.6552,78.6543,174.6-174.6-173.1993-173.2Zm77.2548,223.8912-33.3994-33.3995,95.9463-95.9462-94.5459-94.5455,33.3994-33.3994L353.373,256.0269Z" class="cls-1"/>
  <path d="M425.7061,86.2944A240,240,0,0,0,86.2939,425.7056,240,240,0,0,0,425.7061,86.2944ZM256,464C141.3086,464,48,370.6914,48,256S141.3086,48,256,48s208,93.3086,208,208S370.6914,464,256,464Z" class="cls-1"/>
</svg>
