<svg xmlns="http://www.w3.org/2000/svg" id="export" viewBox="0 0 512 512">
  <defs>
    <style>
      .cls-1{fill:currentColor}
    </style>
  </defs>
  <path d="M256,80C141.1248,80,48,173.1248,48,288s93.1248,208,208,208,208-93.1248,208-208S370.8752,80,256,80ZM380.4508,412.4508A176,176,0,1,1,432,288,174.8477,174.8477,0,0,1,380.4508,412.4508Z" class="cls-1"/>
  <rect width="184.174" height="32.001" x="15.913" y="60" class="cls-1" transform="rotate(-34.38 108 76)"/>
  <rect width="32.001" height="184.174" x="388" y="-16.087" class="cls-1" transform="rotate(-55.619 404 76)"/>
  <polygon points="272 200 240 200 240 272 168 272 168 304 240 304 240 376 272 376 272 304 344 304 344 272 272 272 272 200" class="cls-1"/>
</svg>
