<svg xmlns="http://www.w3.org/2000/svg" viewBox="0 0 512 512">
  <path fill="currentColor" d="M364.7744,370.7373a31.2066,31.2066,0,0,1-13.1523-19.0386l-9.2238-43.0969,105.6774-102.155H402.0343l-67.5287,65.2778L331.46,257.4941l-.044-.1977a63.4479,63.4479,0,0,0-59.1289-49.2827L271.958,208H204.7741l18.846-87.6885A31.4528,31.4528,0,0,1,252.5488,96h47.6367V64h-48l-.6582.0137a63.4515,63.4515,0,0,0-59.13,49.2827L172.0438,208H88v32h77.1663L132.5654,391.6885A31.4528,31.4528,0,0,1,103.6367,416H56v32h48.3291l.3291-.0137a63.4517,63.4517,0,0,0,59.13-49.2827L197.8967,240h73.3689a31.4527,31.4527,0,0,1,28.9258,24.2959l7.2,33.6394L193.531,408h46.0414l75.7112-73.1875,5.0709,23.6934.043.1977a63.45,63.45,0,0,0,59.13,49.2827L432,408V376H380.5488A31.33,31.33,0,0,1,364.7744,370.7373Z"/>
</svg>
