<svg xmlns="http://www.w3.org/2000/svg" id="export" viewBox="0 0 512 512">
  <defs>
    <style>
      .cls-1{fill:currentColor}
    </style>
  </defs>
  <path d="M427.8579,355.688a201.5165,201.5165,0,0,0,47.0654-57.5371A171.1682,171.1682,0,0,0,496,216c0-54.0254-25.3755-104.6226-71.4521-142.4712C379.3853,36.4307,319.5269,16,256,16S132.6147,36.4307,87.4521,73.5288C41.3755,111.3774,16,161.9746,16,216S41.3755,320.6226,87.4521,358.4712C132.6147,395.5693,192.4731,416,256,416c9.3765,0,18.814-.4585,28.1479-1.3662l16.8272,14.584A273.3867,273.3867,0,0,0,480,496h16V457.3726l-4.6865-4.6861A285.21,285.21,0,0,1,427.8579,355.688ZM321.9331,405.0361l-27.4775-23.8144-7.0552.8652A259.02,259.02,0,0,1,256,384C141.3086,384,48,308.6357,48,216S141.3086,48,256,48s208,75.3643,208,168c0,46.4292-23.0371,89.6777-64.8682,121.7788l-9.21,7.0679,4.3965,12.4638.0009.0025A317.4966,317.4966,0,0,0,456.936,462.8955,241.3773,241.3773,0,0,1,321.9331,405.0361Z" class="cls-1"/>
  <polygon points="308.686 140.686 256 193.372 203.314 140.686 180.686 163.314 233.372 216 180.686 268.686 203.314 291.314 256 238.628 308.686 291.314 331.314 268.686 278.628 216 331.314 163.314 308.686 140.686" class="cls-1"/>
</svg>
