<svg xmlns="http://www.w3.org/2000/svg" id="export" viewBox="0 0 512 512">
  <defs>
    <style>
      .cls-1{fill:currentColor}
    </style>
  </defs>
  <path d="M472,16H304a24.0269,24.0269,0,0,0-24,24V208a24.0269,24.0269,0,0,0,24,24h88v1.3726l-112,112V416h70.6274L496,270.6274V40A24.0269,24.0269,0,0,0,472,16Zm-8,241.3726L337.3726,384H312V358.6274l112-112V200H312V48H464Z" class="cls-1"/>
  <path d="M208,16H40A24.0269,24.0269,0,0,0,16,40V208a24.0269,24.0269,0,0,0,24,24h88v1.3726l-112,112V416H86.6274L232,270.6274V40A24.0269,24.0269,0,0,0,208,16Zm-8,241.3726L73.3726,384H48V358.6274l112-112V200H48V48H200Z" class="cls-1"/>
</svg>
