<svg xmlns="http://www.w3.org/2000/svg" id="export" viewBox="0 0 512 512">
  <defs>
    <style>
      .cls-1{fill:currentColor}
    </style>
  </defs>
  <path d="M112,192a48,48,0,1,0-48,48A48.0543,48.0543,0,0,0,112,192Zm-64,0a16,16,0,1,1,16,16A16.0183,16.0183,0,0,1,48,192Z" class="cls-1"/>
  <path d="M320,240a48,48,0,1,0-48-48A48.0543,48.0543,0,0,0,320,240Zm0-64a16,16,0,1,1-16,16A16.0183,16.0183,0,0,1,320,176Z" class="cls-1"/>
  <path d="M184,112a48,48,0,1,0-48-48A48.0543,48.0543,0,0,0,184,112Zm0-64a16,16,0,1,1-16,16A16.0183,16.0183,0,0,1,184,48Z" class="cls-1"/>
  <path d="M448,144a48,48,0,1,0,48,48A48.0543,48.0543,0,0,0,448,144Zm0,64a16,16,0,1,1,16-16A16.0183,16.0183,0,0,1,448,208Z" class="cls-1"/>
  <path d="M448,112a48,48,0,1,0-48-48A48.0543,48.0543,0,0,0,448,112Zm0-64a16,16,0,1,1-16,16A16.0183,16.0183,0,0,1,448,48Z" class="cls-1"/>
  <path d="M320,112a48,48,0,1,0-48-48A48.0543,48.0543,0,0,0,320,112Zm0-64a16,16,0,1,1-16,16A16.0183,16.0183,0,0,1,320,48Z" class="cls-1"/>
  <path d="M376,320c-.9695,0-1.93.0376-2.8855.0945-.2927.0175-.5828.044-.8738.0667q-1.0188.0793-2.0251.2c-.3093.0373-.6184.0748-.9256.118q-1.0968.154-2.176.3592c-.2046.0384-.4119.0691-.6155.11q-1.363.275-2.6972.6273c-.2351.0618-.4661.1339-.7.1992-.6648.1857-1.3247.383-1.9776.5964-.2947.0963-.5874.1964-.88.2983q-.9342.3256-1.85.69c-.252.1-.5061.1947-.7559.2986-.8386.3485-1.6675.715-2.4814,1.109-.1035.05-.2034.1063-.3064.1572q-1.0724.5285-2.1131,1.1089c-.0944.0525-.1933.0976-.2873.1508-.0833-.13-.1768-.2524-.2612-.3815q-.534-.816-1.1006-1.6075c-.1521-.2134-.3-.43-.4561-.6408-.53-.718-1.0754-1.424-1.644-2.1108-.0742-.09-.1543-.1754-.23-.2648q-.7512-.8946-1.5447-1.7511c-.1992-.2152-.4041-.4251-.6069-.6367q-.645-.6719-1.3145-1.3184c-.219-.2111-.4375-.4225-.66-.63q-.7653-.7108-1.5625-1.3865c-.1538-.1311-.3027-.2682-.4585-.3974q-1.0213-.848-2.0906-1.6381c-.2-.1486-.4072-.2887-.61-.4341q-.7973-.5721-1.6167-1.1138c-.26-.171-.5227-.3384-.7862-.5044q-.7986-.5033-1.6186-.9739c-.2454-.1415-.4883-.2868-.7366-.424-.782-.4326-1.5737-.8493-2.3816-1.2387-.0739-.0357-.1506-.0666-.2248-.1018q-1.1141-.53-2.2593-1.0012c-.27-.1119-.5447-.2159-.8176-.323q-.8881-.3483-1.792-.6625c-.2913-.101-.5828-.2018-.8767-.2973-.67-.2176-1.3462-.4183-2.0284-.6068-.2094-.058-.416-.1232-.6264-.1783q-1.329-.3478-2.6868-.62c-.2263-.0454-.4563-.08-.6838-.1224-.6941-.1288-1.3921-.2449-2.0962-.3434-.31-.0434-.6221-.0816-.9341-.119q-.9957-.1194-2.0034-.1961c-.291-.0226-.5806-.0493-.8731-.0666-.95-.0564-1.9052-.0933-2.8691-.0933-.9695,0-1.93.0376-2.8855.0945-.2927.0175-.5828.044-.8738.0667q-1.0188.0793-2.0251.2c-.3093.0373-.6184.0748-.9256.118q-1.0968.154-2.176.3592c-.2046.0384-.4119.0691-.6155.11q-1.363.275-2.6972.6273c-.2351.0618-.4661.1339-.7.1992-.6648.1857-1.3247.383-1.9776.5964-.2947.0963-.5874.1964-.88.2983q-.9342.3256-1.85.69c-.252.1-.5061.1947-.7559.2986-.8386.3485-1.6675.715-2.4814,1.109-.1035.05-.2034.1063-.3064.1572q-1.0724.5285-2.1131,1.1089c-.0944.0525-.1933.0976-.2873.1508-.0833-.13-.1768-.2524-.2612-.3815q-.534-.816-1.1006-1.6075c-.1521-.2134-.3-.43-.4561-.6408-.53-.718-1.0754-1.424-1.644-2.1108-.0742-.09-.1543-.1754-.23-.2648q-.7512-.8946-1.5447-1.7511c-.1992-.2152-.4041-.4251-.6069-.6367q-.645-.6719-1.3145-1.3184c-.219-.2111-.4375-.4225-.66-.63q-.7653-.7108-1.5625-1.3865c-.1538-.1311-.3027-.2682-.4585-.3974q-1.0213-.848-2.0906-1.6381c-.2-.1486-.4072-.2887-.61-.4341q-.7973-.5721-1.6167-1.1138c-.26-.171-.5227-.3384-.7862-.5044q-.7986-.5033-1.6186-.9739c-.2454-.1415-.4883-.2868-.7366-.424-.782-.4326-1.5737-.8493-2.3816-1.2387-.0739-.0357-.1506-.0666-.2248-.1018q-1.1141-.53-2.2593-1.0012c-.27-.1119-.5447-.2159-.8176-.323q-.8881-.3483-1.792-.6625c-.2913-.101-.5828-.2018-.8767-.2973-.67-.2176-1.3462-.4183-2.0284-.6068-.2094-.058-.416-.1232-.6264-.1783q-1.329-.3478-2.6868-.62c-.2263-.0454-.4563-.08-.6838-.1224-.6941-.1288-1.3921-.2449-2.0962-.3434-.31-.0434-.6221-.0816-.9341-.119q-.9957-.1194-2.0034-.1961c-.291-.0226-.5806-.0493-.8731-.0666-.95-.0564-1.9052-.0933-2.8691-.0933-.77,0-1.5359.0222-2.2976.0583-.2471.0117-.4917.0322-.738.0477-.5152.0323-1.0293.0689-1.54.1175-.2849.027-.5679.06-.8511.0919q-.7094.08-1.4128.18c-.2876.0413-.5748.0841-.8609.13-.4729.0766-.9424.1621-1.41.2525-.2671.0515-.5349.1005-.8.1564-.5349.1128-1.0652.2382-1.5935.3687-.1887.0466-.3794.0872-.5672.1361q-1.0666.2773-2.1142.6017c-.1646.051-.3255.1092-.489.1619-.4432.1427-.887.2834-1.3245.4385V248a48,48,0,0,0-96,0v96.0376A79.5969,79.5969,0,0,0,88,328a24.0275,24.0275,0,0,0-24,24V496H96V360.6665A48.0786,48.0786,0,0,1,136,408v16h32V248a16,16,0,0,1,32,0V424h32V336a16,16,0,0,1,32,0v88h32V352a16,16,0,0,1,32,0v72h32V368a16,16,0,0,1,32,0V496h32V368A48.0543,48.0543,0,0,0,376,320Z" class="cls-1"/>
</svg>
