<svg xmlns="http://www.w3.org/2000/svg" id="export" viewBox="0 0 512 512">
  <defs>
    <style>
      .cls-1{fill:currentColor}
    </style>
  </defs>
  <polygon points="235.079 381.686 183.196 433.568 183.196 16 151.196 16 151.196 433.568 99.313 381.687 76.687 404.313 167.196 494.823 257.706 404.313 235.079 381.686" class="cls-1"/>
  <polygon points="392 200 392 56 360 56 360 88 328 88 328 120 360 120 360 200 320 200 320 232 432 232 432 200 392 200" class="cls-1"/>
  <path d="M376.4,280H372a55.6628,55.6628,0,0,0-55.6,55.6V340A55.6628,55.6628,0,0,0,372,395.6h4.4a55.2547,55.2547,0,0,0,23.4744-5.2152A44.85,44.85,0,0,1,355.2,432H336v32h19.2A76.8866,76.8866,0,0,0,432,387.2V335.6A55.6628,55.6628,0,0,0,376.4,280Zm0,83.6H372A23.6268,23.6268,0,0,1,348.4,340v-4.4A23.6268,23.6268,0,0,1,372,312h4.4A23.6268,23.6268,0,0,1,400,335.6V340A23.6268,23.6268,0,0,1,376.4,363.6Z" class="cls-1"/>
</svg>
