<svg xmlns="http://www.w3.org/2000/svg" id="export" viewBox="0 0 512 512">
  <defs>
    <style>
      .cls-1{fill:currentColor}
    </style>
  </defs>
  <path d="M364,136H272V376h92a52.06,52.06,0,0,0,52-52V188A52.06,52.06,0,0,0,364,136Zm20,188a20,20,0,0,1-20,20H304V168h60a20,20,0,0,1,20,20Z" class="cls-1"/>
  <polygon points="208 240 128 240 128 136 96 136 96 376 128 376 128 272 208 272 208 376 240 376 240 136 208 136 208 240" class="cls-1"/>
  <path d="M464,16H48A32,32,0,0,0,16,48V464a32,32,0,0,0,32,32H464a32,32,0,0,0,32-32V48A32,32,0,0,0,464,16Zm0,448H48V48H464l0,416Z" class="cls-1"/>
</svg>
