<svg xmlns="http://www.w3.org/2000/svg" id="export" viewBox="0 0 512 512">
  <defs>
    <style>
      .cls-1{fill:currentColor}
    </style>
  </defs>
  <path d="M473.2744,47.1357l-2.2671-4.1889L466.8188,40.68C416.85,13.6367,354.7651,6.1675,292.0029,19.6465c-63.8481,13.7124-123.7866,47.15-173.3349,96.6992s-82.9873,109.4868-96.7,173.335c-13.4795,62.7636-6.01,124.8481,21.0337,174.8164l2.267,4.1884,4.1885,2.2671c33.7222,18.25,72.9517,27.585,114.1948,27.585a289.0161,289.0161,0,0,0,60.6216-6.5513c63.8477-13.7124,123.7862-47.1509,173.3345-96.6992s82.9873-109.4873,96.7-173.335C507.7876,159.1885,500.3179,97.104,473.2744,47.1357ZM447.3545,66.6c19.78,38.8578,25.84,83.8066,19.3979,129.5253L317.8287,47.2018C363.5479,40.76,408.4969,46.82,447.3545,66.6ZM68.9219,445.0327C48.72,405.3459,42.83,359.3056,49.9534,312.58L201.374,464.0009C154.6487,471.1248,108.6084,465.2344,68.9219,445.0327Zm306.06-72.3735h0c-40.4339,40.4342-88.1116,68.5887-136.6612,83.0336L58.2615,275.6346c14.445-48.55,42.6-96.2274,83.0339-136.6615,41.156-41.1563,89.8171-69.5834,139.2634-83.7873l178.21,178.21C444.5647,282.8419,416.1377,331.5031,374.9814,372.6592Z" class="cls-1"/>
  <polygon points="347.313 187.313 324.687 164.687 304 185.373 275.313 156.687 252.687 179.313 281.373 208 256 233.373 227.313 204.687 204.687 227.313 233.373 256 208 281.373 179.313 252.687 156.687 275.313 185.373 304 164.687 324.687 187.313 347.313 208 326.627 236.687 355.313 259.313 332.687 230.627 304 256 278.627 284.687 307.313 307.313 284.687 278.627 256 304 230.627 332.687 259.313 355.313 236.687 326.627 208 347.313 187.313" class="cls-1"/>
</svg>
