<svg xmlns="http://www.w3.org/2000/svg" id="export" viewBox="0 0 512 512">
  <defs>
    <style>
      .cls-1{fill:currentColor}
    </style>
  </defs>
  <path d="M256,16C123.4517,16,16,123.4517,16,256S123.4517,496,256,496,496,388.5483,496,256,388.5483,16,256,16ZM403.0781,403.0781a207.2493,207.2493,0,1,1,44.5893-66.125A207.3427,207.3427,0,0,1,403.0781,403.0781Z" class="cls-1"/>
  <path d="M256,280A104,104,0,0,0,152,384H360A104,104,0,0,0,256,280Z" class="cls-1"/>
  <rect width="32.001" height="96.333" x="148" y="159.834" class="cls-1" transform="rotate(-48.367 164 208)"/>
  <rect width="96.333" height="32" x="291.834" y="192" class="cls-1" transform="rotate(-48.366 340 208)"/>
</svg>
