<svg xmlns="http://www.w3.org/2000/svg" id="export" viewBox="0 0 512 512">
  <defs>
    <style>
      .cls-1{fill:currentColor}
    </style>
  </defs>
  <path d="M256,84C141.1248,84,48,177.1248,48,292s93.1248,208,208,208,208-93.1248,208-208S370.8752,84,256,84ZM380.4508,416.4508A176,176,0,1,1,432,292,174.8479,174.8479,0,0,1,380.4508,416.4508Z" class="cls-1"/>
  <rect width="184.174" height="32.001" x="15.913" y="64" class="cls-1" transform="rotate(-34.38 108 80)"/>
  <rect width="32.001" height="184.174" x="388" y="-12.087" class="cls-1" transform="rotate(-55.619 404 80)"/>
  <polygon points="246.548 316.523 192.163 262.139 169.536 284.766 246.548 361.778 372.163 236.163 349.535 213.536 246.548 316.523" class="cls-1"/>
</svg>
