<svg xmlns="http://www.w3.org/2000/svg" id="export" viewBox="0 0 512 512">
  <defs>
    <style>
      .cls-1{fill:currentColor}
    </style>
  </defs>
  <path d="M256.3848,40.0039C256.0166,40.001,255.65,40,255.2822,40A152,152,0,0,0,103.293,192v32h32V192A119.9991,119.9991,0,0,1,255.2891,72c.288,0,.582.001.8711.0029,65.3027.46,118.7451,53.9644,119.1308,119.27A120.1283,120.1283,0,0,1,335.2422,281.49a23.939,23.939,0,0,0-7.9492,17.8379v77.3384A63.4049,63.4049,0,0,1,263.96,440H239.293v32H263.96a95.4416,95.4416,0,0,0,95.333-95.3335V302.8516A152.1456,152.1456,0,0,0,407.291,191.083C406.8008,108.36,339.1055,40.5864,256.3848,40.0039Z" class="cls-1"/>
  <path d="M199.293,265.5469V192.9038c0-31.1489,24.93-56.6753,55.5722-56.9023.1436-.001.2852-.0015.4278-.0015a55.9993,55.9993,0,0,1,56,56h32A88.0006,88.0006,0,0,0,255.3,104c-.2236,0-.4482.001-.6719.0024-48.1562.357-87.3349,40.2383-87.3349,88.9014v85.73l5.0888,5.082A118.4207,118.4207,0,0,1,207.293,368h32A150.1255,150.1255,0,0,0,199.293,265.5469Z" class="cls-1"/>
</svg>
