<svg xmlns="http://www.w3.org/2000/svg" id="export" viewBox="0 0 512 512">
  <defs>
    <style>
      .cls-1{fill:currentColor}
    </style>
  </defs>
  <path d="M48,448V120H16V448a48.055,48.055,0,0,0,48,48H400V464H64A16.0183,16.0183,0,0,1,48,448Z" class="cls-1"/>
  <rect width="32" height="32" x="464" y="368" class="cls-1"/>
  <rect width="29.091" height="32" x="173.091" y="368" class="cls-1"/>
  <rect width="29.091" height="32" x="405.818" y="368" class="cls-1"/>
  <rect width="29.091" height="32" x="231.273" y="368" class="cls-1"/>
  <rect width="29.091" height="32" x="289.455" y="368" class="cls-1"/>
  <rect width="29.091" height="32" x="347.637" y="368" class="cls-1"/>
  <rect width="32" height="32" x="112" y="368" class="cls-1"/>
  <rect width="32" height="29.091" x="112" y="135.273" class="cls-1"/>
  <rect width="32" height="29.091" x="112" y="77.091" class="cls-1"/>
  <rect width="32" height="29.091" x="112" y="309.818" class="cls-1"/>
  <rect width="32" height="29.091" x="112" y="251.637" class="cls-1"/>
  <rect width="32" height="29.091" x="112" y="193.455" class="cls-1"/>
  <rect width="32" height="32" x="112" y="16" class="cls-1"/>
  <rect width="29.091" height="32" x="289.454" y="16" class="cls-1"/>
  <rect width="29.091" height="32" x="231.273" y="16" class="cls-1"/>
  <rect width="29.091" height="32" x="405.818" y="16" class="cls-1"/>
  <rect width="29.091" height="32" x="173.091" y="16" class="cls-1"/>
  <rect width="29.091" height="32" x="347.637" y="16" class="cls-1"/>
  <rect width="32" height="32" x="464" y="16" class="cls-1"/>
  <rect width="32" height="29.091" x="464" y="309.818" class="cls-1"/>
  <rect width="32" height="29.091" x="464" y="77.091" class="cls-1"/>
  <rect width="32" height="29.091" x="464" y="193.454" class="cls-1"/>
  <rect width="32" height="29.091" x="464" y="135.273" class="cls-1"/>
  <rect width="32" height="29.091" x="464" y="251.637" class="cls-1"/>
</svg>
