<svg xmlns="http://www.w3.org/2000/svg" viewBox="0 0 512 512">
  <path fill="currentColor" d="M479.5981,399.7158l-81.0844-81.084L336.146,292.8647A175.0131,175.0131,0,0,0,368,192c0-97.0469-78.9531-176-176-176S16,94.9531,16,192,94.9531,368,192,368a175.0325,175.0325,0,0,0,101.6189-32.377l25.699,62.2041,81.084,81.084a56,56,0,1,0,79.1962-79.1953ZM48,192c0-79.4014,64.5981-144,144-144s144,64.5986,144,144S271.4019,336,192,336,48,271.4014,48,192ZM456.9707,456.2842a24.0279,24.0279,0,0,1-33.9414,0l-76.5728-76.5723L322.563,321.877l57.8354,23.8935,76.5723,76.5723A24.0279,24.0279,0,0,1,456.9707,456.2842Z"/>
</svg>
