<svg xmlns="http://www.w3.org/2000/svg" viewBox="0 0 512 512">
  <path fill="currentColor" d="M425.7061,86.2939A240.0007,240.0007,0,0,0,86.2939,425.7061,240.0007,240.0007,0,0,0,425.7061,86.2939ZM282.5928,107.7246c9.24-17.6677,11.4862-36.5615,6.7113-57.0461,88.067,14.2342,157.7835,83.9509,172.0175,172.018-20.4851-4.775-39.3789-2.5291-57.0462,6.7107-26.085,13.6407-45.3711,40.8028-64.0225,67.07-15.9218,22.4239-32.3847,45.61-52.4873,59.9112-21.3476,15.1894-44.5566,18.5967-73.0381,10.7236-23.4257-6.4746-43.4062-26.0859-43.581-26.2588-.1963-.1963-19.8233-20.2949-26.2588-43.58-7.8721-28.4824-4.4648-51.6914,10.7236-73.039,14.3008-20.1026,37.4873-36.5655,59.9112-52.4873C241.79,153.0957,268.9521,133.81,282.5928,107.7246ZM256,464C141.3086,464,48,370.6914,48,256,48,141.5507,140.9169,48.402,255.2758,48.0092c15.825,42.0886-11.1962,64.2144-58.28,97.6461-47.3789,33.6406-106.3428,75.5078-82.9522,160.1426,8.7637,31.706,33.43,56.6367,34.4756,57.6835,1.0459,1.045,25.9766,25.711,57.6826,34.4747a137.1008,137.1008,0,0,0,36.59,5.291c60.8945-.002,95.1562-48.25,123.5527-88.2432,33.4319-47.0845,55.5564-74.106,97.6461-58.28C463.5981,371.083,370.4493,464,256,464Z"/>
</svg>
