<svg xmlns="http://www.w3.org/2000/svg" viewBox="0 0 512 512">
  <path fill="currentColor" d="M396,216a100.3914,100.3914,0,0,0-14.6941,1.082L339.3926,96H256v32h60.6074l22.1536,64H190.355l-9.1431-32H208V128H112v32h35.9307l12.3567,43.248-10.6221,18.5889A100.2383,100.2383,0,1,0,177.668,237.33L185.2852,224H349.8379l.9722,2.8087A99.9751,99.9751,0,1,0,396,216ZM184,316a68.01,68.01,0,1,1-50.5825-65.7292L98.1084,312.0615l27.7832,15.877,35.65-62.3875A67.84,67.84,0,0,1,184,316Zm212,68a67.9788,67.9788,0,0,1-34.5735-126.5215L384.88,325.2334l30.24-10.4668L392.051,248.1233c1.3079-.0752,2.6228-.1233,3.949-.1233a68,68,0,0,1,0,136Z"/>
</svg>
