<svg xmlns="http://www.w3.org/2000/svg" id="export" viewBox="0 0 512 512">
  <defs>
    <style>
      .cls-1{fill:currentColor}
    </style>
  </defs>
  <path d="M301.4194,213.229,182.3325,153.5845a24,24,0,0,0-32.2153,32.1884l59.5688,119.19,119.0508,59.4243a24,24,0,0,0,32.1826-32.21Zm-67.8847,67.8731L189.48,192.9531l88.0864,44.1177,44.0064,87.9751Z" class="cls-1"/>
  <path d="M256,16C123.4517,16,16,123.4517,16,256S123.4517,496,256,496,496,388.5483,496,256,388.5483,16,256,16Zm16,447.3937V403H240v60.3937C139.22,455.7272,58.5259,376.2383,48.9614,276h63.01V244H48.3528C54.269,140.0184,136.5527,56.4756,240,48.6063V115h32V48.6063C375.4473,56.4756,457.731,140.0184,463.6472,244h-63.676v32h63.0674C453.4741,376.2383,372.7805,455.7272,272,463.3937Z" class="cls-1"/>
</svg>
