<svg xmlns="http://www.w3.org/2000/svg" id="export" viewBox="0 0 512 512">
  <defs>
    <style>
      .cls-1{fill:currentColor}
    </style>
  </defs>
  <polygon points="80 107.687 102.627 130.313 154.509 78.432 154.509 496 186.509 496 186.509 78.432 238.392 130.314 261.019 107.687 170.509 17.177 80 107.687" class="cls-1"/>
  <polygon points="395.313 200 395.313 56 363.313 56 363.313 88 331.313 88 331.313 120 363.313 120 363.313 200 323.313 200 323.313 232 435.313 232 435.313 200 395.313 200" class="cls-1"/>
  <path d="M379.7134,280h-4.4a55.6628,55.6628,0,0,0-55.6,55.6V340a55.6628,55.6628,0,0,0,55.6,55.6h4.4a55.2543,55.2543,0,0,0,23.4743-5.2152A44.85,44.85,0,0,1,358.5137,432h-19.2v32h19.2a76.8867,76.8867,0,0,0,76.8-76.8V335.6A55.6628,55.6628,0,0,0,379.7134,280Zm0,83.6h-4.4a23.6268,23.6268,0,0,1-23.6-23.6v-4.4a23.6268,23.6268,0,0,1,23.6-23.6h4.4a23.6268,23.6268,0,0,1,23.6,23.6V340A23.6268,23.6268,0,0,1,379.7134,363.6Z" class="cls-1"/>
</svg>
