<svg xmlns="http://www.w3.org/2000/svg" id="export" viewBox="0 0 512 512">
  <defs>
    <style>
      .cls-1{fill:currentColor}
    </style>
  </defs>
  <path d="M464,456.9917,398.2842,336H48V48H312l32-32H40A24.0275,24.0275,0,0,0,16,40V344a24.0275,24.0275,0,0,0,24,24H379.249l69.5225,128H496V168l-32,32Z" class="cls-1"/>
  <path d="M232.4561,258.709l-.1475.686A17.3428,17.3428,0,0,0,252.6113,279.69l84.75-20.0679,141.666-141.666a60.0922,60.0922,0,0,0-84.9824-84.9839L252.3789,174.6382Zm48.9677-67.8609L416.6719,55.5991A28.0925,28.0925,0,1,1,456.4,95.3281L321.1514,230.5767,269.085,242.915Z" class="cls-1"/>
</svg>
