<svg xmlns="http://www.w3.org/2000/svg" viewBox="0 0 512 512">
  <path fill="currentColor" d="M124,480c50.73,0,92-38.75,92-86.37s-41.27-86.37-92-86.37a95.17,95.17,0,0,0-60,20.95V221.42l240-42.35V310.52h.76a81.62,81.62,0,0,0-.76,11.11c0,47.62,41.27,86.37,92,86.37s92-38.75,92-86.37-41.27-86.37-92-86.37a95.17,95.17,0,0,0-60,20.95V36.93L32,90.58V382.52h.76A81.62,81.62,0,0,0,32,393.63C32,441.25,73.27,480,124,480ZM396,267.26c33.08,0,60,24.39,60,54.37S429.08,376,396,376s-60-24.39-60-54.37S362.92,267.26,396,267.26ZM64,128V117.42L304,75.07v71.51L64,188.93Zm60,211.26c33.08,0,60,24.39,60,54.37S157.08,448,124,448s-60-24.39-60-54.37S90.92,339.26,124,339.26Z"/>
</svg>
