<svg xmlns="http://www.w3.org/2000/svg" id="export" viewBox="0 0 512 512">
  <defs>
    <style>
      .cls-1{fill:currentColor}
    </style>
  </defs>
  <path d="M472,16H40A24.0275,24.0275,0,0,0,16,40V344a24.0275,24.0275,0,0,0,24,24H379.249l69.522,128H496V40A24.0275,24.0275,0,0,0,472,16Zm-8,440.9922L398.2842,336H48V48H464Z" class="cls-1"/>
  <rect width="40" height="40" x="80" y="80" class="cls-1"/>
  <path d="M432,216.0234,336.1064,124.24l-55.3637,51.9742L198.8169,88.52,80,216.5776v86.28H432Zm-32,54.834H112V229.1362l86.897-93.6557,80.36,86.019,56.6363-53.168L400,229.69Z" class="cls-1"/>
</svg>
