<svg xmlns="http://www.w3.org/2000/svg" id="export" viewBox="0 0 512 512">
  <defs>
    <style>
      .cls-1{fill:currentColor}
    </style>
  </defs>
  <rect width="32" height="32" x="152" y="80" class="cls-1"/>
  <rect width="32" height="32" x="184" y="112" class="cls-1"/>
  <rect width="32" height="32" x="152" y="144" class="cls-1"/>
  <rect width="32" height="32" x="184" y="176" class="cls-1"/>
  <rect width="32" height="32" x="152" y="208" class="cls-1"/>
  <path d="M137.1836,272l-9.1367,118.7729L128,424H240V392l-9.1836-120Zm22.8638,120,6.769-88h34.3672l6.769,88Z" class="cls-1"/>
  <path d="M334.6274,16H48V496H472V153.3726ZM440,166.6274V168H320V48h1.3726ZM80,464V48H184V80h32V48h72V200H440V464Z" class="cls-1"/>
</svg>
