<svg xmlns="http://www.w3.org/2000/svg" id="export" viewBox="0 0 512 512">
  <defs>
    <style>
      .cls-1{fill:currentColor}
    </style>
  </defs>
  <path d="M48,464V144H16V472a24,24,0,0,0,24,24H368V464H48Z" class="cls-1"/>
  <path d="M144,400H112V80H80V408a24,24,0,0,0,24,24H432V400H144Z" class="cls-1"/>
  <path d="M472,16H168a24,24,0,0,0-24,24V344a24,24,0,0,0,24,24H472a24,24,0,0,0,24-24V40A24,24,0,0,0,472,16Zm-8,320H176V48H464Z" class="cls-1"/>
  <path d="M297.91,245h0v2.6H298C299.44,274.57,323.5,296,353,296c30.4,0,55.05-22.82,55.05-51s-24.65-51-55.05-51a58.47,58.47,0,0,0-23,4.69V96h-.28V79.5L241.91,96.67V144l56-11Z" class="cls-1"/>
</svg>
