<svg xmlns="http://www.w3.org/2000/svg" id="export" viewBox="0 0 512 512">
  <defs>
    <style>
      .cls-1{fill:currentColor}
    </style>
  </defs>
  <path d="M472,64H40A24.0275,24.0275,0,0,0,16,88V216a24.0275,24.0275,0,0,0,24,24H472a24.0275,24.0275,0,0,0,24-24V88A24.0275,24.0275,0,0,0,472,64Zm-8,144H48V96H464Z" class="cls-1"/>
  <path d="M472,272H40a24.0275,24.0275,0,0,0-24,24V424a24.0275,24.0275,0,0,0,24,24H472a24.0275,24.0275,0,0,0,24-24V296A24.0275,24.0275,0,0,0,472,272Zm-8,144H48V304H464Z" class="cls-1"/>
</svg>
