<svg xmlns="http://www.w3.org/2000/svg" id="export" viewBox="0 0 512 512">
  <defs>
    <style>
      .cls-1{fill:currentColor}
    </style>
  </defs>
  <path d="M473.6055,88.0811c-1.3526-.1368-135.958-14.2588-199.2188-68.251L269.8994,16H242.1006l-4.4873,3.83c-63.1494,53.8974-197.87,68.1142-199.2188,68.251L24,89.5322V104c0,89.1328,14.6436,165.4434,43.5225,226.8125,38.1054,80.9736,100.1015,133.67,184.2675,156.624L256,488.584l4.21-1.1475c84.166-22.9541,146.1621-75.65,184.2675-156.624C473.3564,269.4434,488,193.1328,488,104V89.5322ZM256,455.3818C96.5684,409.3291,58.5762,249.917,56.13,118.1123,93.7529,112.8486,194.63,94.9063,253.7324,48h4.5352C317.37,94.9063,418.2471,112.8486,455.87,118.1123,453.4238,249.917,415.4316,409.3291,256,455.3818Z" class="cls-1"/>
  <polygon points="195.313 164.687 172.687 187.313 233.373 248 172.687 308.687 195.313 331.313 256 270.627 316.687 331.313 339.313 308.687 278.627 248 339.313 187.313 316.687 164.687 256 225.373 195.313 164.687" class="cls-1"/>
</svg>
