<svg xmlns="http://www.w3.org/2000/svg" id="export" viewBox="0 0 512 512">
  <defs>
    <style>
      .cls-1{fill:currentColor}
    </style>
  </defs>
  <polygon points="346.231 284.746 256.039 194.554 165.847 284.746 188.474 307.373 240.039 255.808 240.039 496 272.039 496 272.039 255.808 323.604 307.373 346.231 284.746" class="cls-1"/>
  <path d="M400,161.4531V160c0-79.4023-64.5986-144-144.001-144S112,80.5977,112,160v2.4912a122.2813,122.2813,0,0,0-62.7939,32.707A109.3993,109.3993,0,0,0,16,273.6191c0,31.1192,12.7881,60.7618,36.01,83.4688C74.6992,379.2754,105.3379,392,136.07,392H200V360H136.07C89.1543,360,48,319.6348,48,273.6191c0-42.2685,35.64-77.916,81.1367-81.1552L144,191.4053V160a112,112,0,0,1,224,0v32.04l15.7979.2C430.27,192.8281,464,227.0527,464,273.6191,464,322.0566,428.3457,360,382.83,360H312v32h70.83a109.7475,109.7475,0,0,0,81.14-35.4541C484.625,334.3389,496,304.8887,496,273.6191,496,215.1816,455.7158,169.3916,400,161.4531Z" class="cls-1"/>
</svg>
