<svg xmlns="http://www.w3.org/2000/svg" id="export" viewBox="0 0 512 512">
  <defs>
    <style>
      .cls-1{fill:currentColor}
    </style>
  </defs>
  <path d="M383.4985,91.627A423.876,423.876,0,0,0,16,146.4868v34.6524L196.5292,438.9624v0l.8119-3.4065,9.1085-38.2166-23.8018-33.9925a150.4523,150.4523,0,0,1,35.2609-14.0872l8.1986-34.3992a182.2044,182.2044,0,0,0-61.8943,22.1587l-48.6373-69.4613a266.4578,266.4578,0,0,1,131.23-39.5442l7.6605-32.1415a298.4623,298.4623,0,0,0-157.2691,45.44l-52.7488-75.333a392.0334,392.0334,0,0,1,423.1026,0L414.8038,241.31a299.2115,299.2115,0,0,0-65.3507-30.5937l-4.1173,32.403a267.3215,267.3215,0,0,1,51.0885,24.4387l-66.2087,94.5559v0l-8.6609,68.16L496,181.1392V146.4868A423.451,423.451,0,0,0,383.4985,91.627Z" class="cls-1"/>
  <path d="M224.6748,457.9587a30.7454,30.7454,0,0,0,23.8723,37.3006h0a30.7453,30.7453,0,0,0,36.54-26.3516l33.1411-266.3159-31.1159-5.668Z" class="cls-1"/>
</svg>
