<svg xmlns="http://www.w3.org/2000/svg" id="export" viewBox="0 0 512 512">
  <defs>
    <style>
      .cls-1{fill:currentColor}
    </style>
  </defs>
  <path d="M368,48V16H40A24,24,0,0,0,16,40V368H48V48H368Z" class="cls-1"/>
  <path d="M400,112h32V80H104a24,24,0,0,0-24,24V432h32V112H400Z" class="cls-1"/>
  <path d="M472,144H168a24,24,0,0,0-24,24V472a24,24,0,0,0,24,24H472a24,24,0,0,0,24-24V168A24,24,0,0,0,472,144Zm-8,320H176V176H464Z" class="cls-1"/>
  <path d="M296,376.13h.07c1.47,26.94,25.52,48.37,55,48.37,30.4,0,55-22.82,55-51s-24.64-51-55-51A58.48,58.48,0,0,0,328,327.24V224.5h-.27V208L240,225.16V272.5l56-11Z" class="cls-1"/>
</svg>
