<svg xmlns="http://www.w3.org/2000/svg" id="export" viewBox="0 0 512 512">
  <defs>
    <style>
      .cls-1{fill:currentColor}
    </style>
  </defs>
  <rect width="480" height="32" x="16" y="464" class="cls-1"/>
  <path d="M456.5781,412.8013c14.5518,0,23.7022-8.3037,27.792-17.8794,6.1084-14.2974,2.7461-34.6631-9.2246-55.8765-11.9316-21.145-29.8389-38.3994-50.4219-48.584l-.8447-.4184-67.91-24.1548L275.0381,78.144a47.7215,47.7215,0,0,0-41.46-28.9277l-34.1045-1.8638a24,24,0,0,0-24.9677,27.9981l24.2617,142.2881-48.6748-15.2095-2.1836-48.41a48.0629,48.0629,0,0,0-30.31-42.477L97.877,103.7476A24.0007,24.0007,0,0,0,66.1025,119.06L20.8359,267.3086l418.6524,142.209A50.6043,50.6043,0,0,0,456.5781,412.8013ZM94.1768,136.6934l11.6611,4.6088a16.0224,16.0224,0,0,1,10.1045,14.1587l3.1933,70.8208,119.9581,37.4839L207.7354,79.8516l24.0966,1.3169a15.9052,15.9052,0,0,1,13.8194,9.642l86.4521,200.5533,79.2285,28.1806c14.4688,7.3872,27.5967,20.2915,36.1153,35.5318,7.0146,12.5488,8.1914,21.7641,7.8418,25.6357a24.2209,24.2209,0,0,1-5.0547-1.3364l-.1543-.0562L60.5,246.9863Z" class="cls-1"/>
</svg>
