<svg xmlns="http://www.w3.org/2000/svg" viewBox="0 0 512 512">
  <path fill="currentColor" d="M491.6616,212.7588l-49.7763-71.1094A32.0265,32.0265,0,0,0,415.6694,128H336V80a32.0361,32.0361,0,0,0-32-32H48A32.0361,32.0361,0,0,0,16,80V408H69.0819a67.9824,67.9824,0,0,0,133.8362,0H309.0819a67.9824,67.9824,0,0,0,133.8362,0H496V226.522A23.8845,23.8845,0,0,0,491.6616,212.7588ZM48,80H304V256H47.9985L47.98,80.001Zm88,352a36,36,0,1,1,36-36A36.0406,36.0406,0,0,1,136,432Zm240,0a36,36,0,1,1,36-36A36.0406,36.0406,0,0,1,376,432Zm88-56H440.9943a68.0027,68.0027,0,0,0-129.9886,0H200.9943a68.0027,68.0027,0,0,0-129.9886,0H48V288H464Zm0-120H336V160h79.6694L464,229.0439Z"/>
</svg>
