<svg xmlns="http://www.w3.org/2000/svg" viewBox="0 0 512 512">
  <path fill="currentColor" d="M280,495.5767v-145.95l10.2842-3.9336a96.3,96.3,0,0,0,55.084-54.5523L349.3594,281H495.4746l-3.498,18.9106a240.2109,240.2109,0,0,1-193.1377,192.27Zm32-124.4576v85.2466A209.1091,209.1091,0,0,0,456.0752,313H370.6338A128.5025,128.5025,0,0,1,312,371.1191ZM231,495.4746l-18.91-3.4985C98.4678,470.957,16,371.7144,16,256S98.4678,41.043,212.09,20.0239L231,16.5254V162.6406l-10.1406,3.9912a96.0455,96.0455,0,0,0,0,178.7364L231,349.3594Zm-32-439.57a208.0765,208.0765,0,0,0,0,400.19V370.6411a128.0537,128.0537,0,0,1,0-229.2822ZM495.5771,232H349.626l-3.9336-10.2837a96.1892,96.1892,0,0,0-55.4082-55.4092L280,162.373V16.4233l18.8389,3.396A240.2094,240.2094,0,0,1,492.1807,213.1616ZM371.12,200h85.2481A208.9,208.9,0,0,0,312,55.6318v85.2476A128.2825,128.2825,0,0,1,371.12,200Z"/>
</svg>
