<svg xmlns="http://www.w3.org/2000/svg" id="export" viewBox="0 0 512 512">
  <defs>
    <style>
      .cls-1{fill:currentColor}
    </style>
  </defs>
  <path d="M224,144a64,64,0,1,0-64-64A64.0724,64.0724,0,0,0,224,144Zm0-96a32,32,0,1,1-32,32A32.0364,32.0364,0,0,1,224,48Z" class="cls-1"/>
  <path d="M353.959,251.37c-15.0205-16.8979-35.0635-27.6587-62.61-33.5063L266.5508,160H178.123L152,342.8633V400h56v96h96V400h80V352C384,307.0283,374.1738,274.1123,353.959,251.37ZM352,368H272v96H240V368H184V345.1367L205.877,192h39.5722l23.291,54.3442,8.6289,1.438c24.4961,4.0825,41.2325,11.9785,52.6719,24.8477C344.8174,289.2529,352,315.2148,352,352Z" class="cls-1"/>
</svg>
