<svg xmlns="http://www.w3.org/2000/svg" viewBox="0 0 512 512">
  <path fill="currentColor" d="M450.68,416.2432a75.3876,75.3876,0,0,0-23.1015-10.5265l48.0658-168.23L400,213.2807V112a32.0361,32.0361,0,0,0-32-32H328V16H184V80H144a32.0361,32.0361,0,0,0-32,32V213.2807L36.356,237.4868l47.37,165.7943a75.3638,75.3638,0,0,0-39.29,16.0334L16,441.951v40.9022l48.3657-38.5026a43.6289,43.6289,0,0,1,55.6607,1.1167l.706.61a75.6024,75.6024,0,0,0,98.8565,0,43.4817,43.4817,0,0,1,56.2832-.6176l3.9712,3.2822a75.76,75.76,0,0,0,96.0507.2261l4.7466-3.8853a43.8666,43.8666,0,0,1,52.084-2.3516L496,485.6231V446.9638Zm-14.3237-157.73-12.8172,44.86L272,254.8807V205.9193ZM216,48h80V80H216Zm-72,64H368v91.0407l-112-35.84-112,35.84Zm96,93.9193v48.9614L88.4612,303.3732l-12.8172-44.86ZM206.4067,416a76.6939,76.6939,0,0,0-7.7387,5.8638,43.8474,43.8474,0,0,1-57.0113.0029l-.706-.61a76.7721,76.7721,0,0,0-22.6663-13.5014L97.2566,334.1571,240,288.4794V403.8532A75.2974,75.2974,0,0,0,206.4067,416Zm159.8051,0c-2,1.3436-3.953,2.7761-5.84,4.3208l-4.7466,3.8853a43.6935,43.6935,0,0,1-55.395-.1294l-3.9712-3.2828A76.7957,76.7957,0,0,0,289.7681,416,75.49,75.49,0,0,0,272,407.3128V288.4794l142.7434,45.6777-20.0851,70.2983A74.7218,74.7218,0,0,0,366.2118,416Z"/>
</svg>
