<svg xmlns="http://www.w3.org/2000/svg" id="export" viewBox="0 0 512 512">
  <defs>
    <style>
      .cls-1{fill:currentColor}
    </style>
  </defs>
  <path d="M408,304a168.2116,168.2116,0,0,0-152,96.4953A168.2116,168.2116,0,0,0,104,304H16v16c0,92.6357,75.3643,168,168,168H328c92.6357,0,168-75.3643,168-168V304ZM184,456c-69.5806,0-127.1235-52.5186-135.0645-120H104c69.5806,0,127.1235,52.5186,135.0645,120Zm144,0H272.9355C280.8765,388.5186,338.4194,336,408,336h55.0645C455.1235,403.4814,397.5806,456,328,456Z" class="cls-1"/>
  <path d="M169.2271,262.7729a87.3576,87.3576,0,0,0,24.5473,47.4527l4.6865,4.686h6.6275A87.3537,87.3537,0,0,0,256,298.7158a87.3559,87.3559,0,0,0,50.9116,16.1958h6.6275l4.6865-4.686a87.3576,87.3576,0,0,0,24.5473-47.4527,87.3576,87.3576,0,0,0,47.4527-24.5473l4.686-4.6865v-6.6275A87.3537,87.3537,0,0,0,378.7158,176a87.3559,87.3559,0,0,0,16.1958-50.9116v-6.6275l-4.686-4.6865a87.3576,87.3576,0,0,0-47.4527-24.5473,87.3576,87.3576,0,0,0-24.5473-47.4527l-4.6865-4.686h-6.6275A87.3559,87.3559,0,0,0,256,53.2842a87.3537,87.3537,0,0,0-50.9116-16.1958h-6.6275l-4.6865,4.686a87.3576,87.3576,0,0,0-24.5473,47.4527,87.3576,87.3576,0,0,0-47.4527,24.5473l-4.686,4.6865v6.6275A87.3559,87.3559,0,0,0,133.2842,176a87.3537,87.3537,0,0,0-16.1958,50.9116v6.6275l4.686,4.6865A87.3576,87.3576,0,0,0,169.2271,262.7729Zm-3.7364-98.0864a55.5746,55.5746,0,0,1-15.997-32.8027A55.5743,55.5743,0,0,1,184,120h16V104a55.5743,55.5743,0,0,1,11.8838-34.5063A55.5713,55.5713,0,0,1,244.686,85.49L256,96.8042l11.3135-11.3135a55.5746,55.5746,0,0,1,32.8027-15.997A55.5743,55.5743,0,0,1,312,104v16h16a55.5743,55.5743,0,0,1,34.5063,11.8838,55.5746,55.5746,0,0,1-15.997,32.8027L335.1958,176l11.314,11.314a55.5713,55.5713,0,0,1,15.9965,32.8022A55.5743,55.5743,0,0,1,328,232H312v16a55.5743,55.5743,0,0,1-11.8838,34.5063,55.5746,55.5746,0,0,1-32.8027-15.997L256,255.1958,244.686,266.51a55.5713,55.5713,0,0,1-32.8022,15.9965A55.5743,55.5743,0,0,1,200,248V232H184a55.5743,55.5743,0,0,1-34.5063-11.8838A55.5713,55.5713,0,0,1,165.49,187.314L176.8042,176Z" class="cls-1"/>
</svg>
