<svg xmlns="http://www.w3.org/2000/svg" viewBox="0 0 512 512">
  <path fill="currentColor" d="M496,146.4868a423.876,423.876,0,0,0-480,0v34.6524l54.7393,78.176-.0005,0L236.4673,496h39.0654L441.2612,259.3154l0,0L496,181.1392ZM256,468.1045,182.6477,363.3467a151.6664,151.6664,0,0,1,146.7046,0ZM347.7861,337.02a183.5878,183.5878,0,0,0-183.5722,0l-48.6382-69.4627a268.1988,268.1988,0,0,1,280.8486,0Zm67.016-95.7083a300.1261,300.1261,0,0,0-317.6042,0L44.4487,165.9785a392.0334,392.0334,0,0,1,423.1026,0Z"/>
</svg>
