<svg xmlns="http://www.w3.org/2000/svg" viewBox="0 0 512 512">
  <path fill="currentColor" d="M471.2319,111.7314H368V16H144.2319l.0005,95.7314H41.2319A24.7965,24.7965,0,0,0,16.4639,136.5V470.5322a24.7964,24.7964,0,0,0,24.768,24.7686h430A24.7964,24.7964,0,0,0,496,470.5322V136.5A24.7965,24.7965,0,0,0,471.2319,111.7314ZM176.2319,48H336v63.7314H176.2324Zm286.232,97.2686v80.2861l-53.1773,53.1767H273V232H239.4639v46.7314H103.1772L50,225.5547V145.2686ZM50,461.7637V272.9819l39.2861,39.2867H239.4639V359.5H273V312.2686H423.1777l39.2862-39.2867V461.7637Z"/>
</svg>
