<svg xmlns="http://www.w3.org/2000/svg" id="export" viewBox="0 0 512 512">
  <defs>
    <style>
      .cls-1{fill:currentColor}
    </style>
  </defs>
  <path d="M48,448V328H16V448a48.054,48.054,0,0,0,48,48H184V464H64A16.0183,16.0183,0,0,1,48,448Z" class="cls-1"/>
  <path d="M48,64A16.0183,16.0183,0,0,1,64,48H184V16H64A48.054,48.054,0,0,0,16,64V184H48Z" class="cls-1"/>
  <path d="M448,16H328V48H448a16.0183,16.0183,0,0,1,16,16V184h32V64A48.054,48.054,0,0,0,448,16Z" class="cls-1"/>
  <path d="M464,448a16.0183,16.0183,0,0,1-16,16H328v32H448a48.054,48.054,0,0,0,48-48V328H464Z" class="cls-1"/>
  <path d="M256,168a88,88,0,1,0,88,88A88.1,88.1,0,0,0,256,168Zm0,144a56,56,0,1,1,56-56A56.0632,56.0632,0,0,1,256,312Z" class="cls-1"/>
</svg>
