<svg xmlns="http://www.w3.org/2000/svg" id="export" viewBox="0 0 512 512">
  <defs>
    <style>
      .cls-1{fill:currentColor}
    </style>
  </defs>
  <path d="M278.8784,260.7749A79.1267,79.1267,0,0,0,288,224V152A104.2116,104.2116,0,0,0,183.9468,47.8662C126.63,47.8662,80,94.5806,80,152v72a78.01,78.01,0,0,0,9.0151,36.7749l24.9082,45.6636L49.9546,348.2959a74.02,74.02,0,0,0-33.5513,62.1055L15.9072,496H304V464H48.0928l.31-53.5059a42.1593,42.1593,0,0,1,19.0733-35.4209l88.6826-58.0293-39.0508-71.5918A46.8475,46.8475,0,0,1,112,224V152a72,72,0,1,1,144,0v72a46.8178,46.8178,0,0,1-5.2144,21.4517L211.87,316.7988l89.0572,58.2744c1.0683.699,2.0836,1.4559,3.0732,2.2386v-38.47l-49.895-32.6484Z" class="cls-1"/>
  <path d="M400,120v72a46.8162,46.8162,0,0,1-5.2144,21.4517l-38.9165,71.3471L385.2133,304h58.4434l-45.5522-29.8066,24.7734-45.418A79.1206,79.1206,0,0,0,432,192V120A103.8979,103.8979,0,0,0,262.832,38.832l22.8218,22.8217c1.8217-1.33,3.6943-2.5885,5.627-3.7387A72.0241,72.0241,0,0,1,400,120Z" class="cls-1"/>
  <polygon points="432 400 432 336 400 336 400 400 336 400 336 432 400 432 400 496 432 496 432 432 496 432 496 400 432 400" class="cls-1"/>
</svg>
