<svg xmlns="http://www.w3.org/2000/svg" id="export" viewBox="0 0 512 512">
  <defs>
    <style>
      .cls-1{fill:currentColor}
    </style>
  </defs>
  <path d="M479.5977,400.4023l-81.084-81.0844-62.3682-25.7664A175.0141,175.0141,0,0,0,368,192.686q0-4.3689-.2158-8.686H335.7305c.1718,2.8746.2695,5.769.2695,8.686,0,79.4019-64.5986,144-144,144A144.0944,144.0944,0,0,1,66.9319,264H136V232H16V352H48V293.7537a175.7659,175.7659,0,0,0,245.6191,42.5551l25.6993,62.2049,81.0839,81.0844a56,56,0,1,0,79.1954-79.1958Zm-22.627,56.5684a24.0279,24.0279,0,0,1-33.9414,0L346.457,380.3979l-23.8935-57.8344,57.8349,23.893,76.5723,76.5728A24.0279,24.0279,0,0,1,456.9707,456.9707Z" class="cls-1"/>
  <path d="M48.1846,200q-.1829-3.6345-.1846-7.314c0-79.4018,64.5986-144,144-144A144.0609,144.0609,0,0,1,316.26,120H248v32H368V32H336V91.6187A175.8993,175.8993,0,0,0,192,16.686c-97.0469,0-176,78.9532-176,176,0,2.451.0637,4.887.1636,7.314Z" class="cls-1"/>
</svg>
