<svg xmlns="http://www.w3.org/2000/svg" id="export" viewBox="0 0 512 512">
  <defs>
    <style>
      .cls-1{fill:currentColor}
    </style>
  </defs>
  <path d="M208,16A112.1271,112.1271,0,0,0,96,128v79.6807a80.2376,80.2376,0,0,0,9.7681,38.3081l27.4546,50.3335-72.8213,47.334A79.7236,79.7236,0,0,0,24,410.7319V496H312V464H56V410.7319a47.8355,47.8355,0,0,1,21.8408-40.2456l97.6607-63.48-41.64-76.3408A48.1439,48.1439,0,0,1,128,207.6807V128a80,80,0,0,1,160,0v79.6807a48.1457,48.1457,0,0,1-5.8608,22.9848L240.498,307.0068,312,353.4827V315.3168l-29.2227-18.9945,27.4551-50.334A80.2394,80.2394,0,0,0,320,207.6807V128A112.1271,112.1271,0,0,0,208,16Z" class="cls-1"/>
  <polygon points="424 400 424 336 392 336 392 400 328 400 328 432 392 432 392 496 424 496 424 432 488 432 488 400 424 400" class="cls-1"/>
</svg>
