<svg xmlns="http://www.w3.org/2000/svg" viewBox="0 0 512 512">
  <defs>
    <style>
      .a{fill:currentColor}
    </style>
  </defs>
  <rect width="224" height="32" x="151.604" y="400" class="a"/>
  <rect width="32" height="32" x="87.604" y="400" class="a"/>
  <rect width="32" height="32" x="407.604" y="400" class="a"/>
  <rect width="32" height="32" x="375.604" y="336" class="a"/>
  <rect width="32" height="32" x="119.604" y="336" class="a"/>
  <rect width="32" height="32" x="183.604" y="336" class="a"/>
  <rect width="32" height="32" x="247.604" y="336" class="a"/>
  <rect width="32" height="32" x="311.604" y="336" class="a"/>
  <rect width="32" height="32" x="151.604" y="272" class="a"/>
  <rect width="32" height="32" x="87.604" y="272" class="a"/>
  <rect width="32" height="32" x="215.604" y="272" class="a"/>
  <rect width="32" height="32" x="279.604" y="272" class="a"/>
  <rect width="32" height="32" x="343.604" y="272" class="a"/>
  <rect width="32" height="32" x="407.604" y="272" class="a"/>
  <path d="M465.437,231.0112l-145.8818-20.84-9.5386-66.769a81.8,81.8,0,0,0-108.0332,0l-9.5386,66.769L46.563,231.0112,17.2085,144.6445l-.1812-.7866a24.489,24.489,0,0,1,6.585-22.9585l14.78-14.7807a307.7425,307.7425,0,0,1,435.2148,0l14.7818,14.7822a24.4878,24.4878,0,0,1,6.5834,22.957l-.1811.7866ZM347.8393,181.8867l95.8428,13.6919,18.8042-55.3257L450.98,128.7456a275.7419,275.7419,0,0,0-389.959.0005L49.5137,140.2529l18.8042,55.3257,95.8427-13.6919,7.6905-53.8315,3.771-3.771a113.7988,113.7988,0,0,1,160.7558,0l3.771,3.771Z" class="a"/>
</svg>
