<svg xmlns="http://www.w3.org/2000/svg" viewBox="0 0 512 512">
  <defs>
    <style>
      .a{fill:currentColor}
    </style>
  </defs>
  <rect width="32" height="32" x="240" y="400" class="a"/>
  <path d="M396,112h16V48a32.0364,32.0364,0,0,0-32-32H132a32.0364,32.0364,0,0,0-32,32v64H396ZM132,48H380l.0016,32H132Z" class="a"/>
  <path d="M100,336V464a32.0367,32.0367,0,0,0,32,32H380a32.0367,32.0367,0,0,0,32-32V336ZM380,464H132V368H380.0157l.0048,95.999Z" class="a"/>
  <polygon points="177.313 284.687 116.627 224 177.313 163.313 154.687 140.687 84 211.373 71.373 224 84 236.627 154.687 307.313 177.313 284.687" class="a"/>
  <polygon points="428 211.373 357.313 140.687 334.687 163.313 395.373 224 334.687 284.687 357.313 307.313 428 236.627 440.627 224 428 211.373" class="a"/>
</svg>
