<svg xmlns="http://www.w3.org/2000/svg" id="export" viewBox="0 0 512 512">
  <defs>
    <style>
      .cls-2{fill:currentColor}
    </style>
  </defs>
  <circle cx="256" cy="256" r="132" fill="none"/>
  <path d="M497.5366,260.15l-69.4072-57.1938L417.8486,179.51l11.0259-91.0166-89.52,8.6372-23.8477-9.3081-56.562-72.1558L201.752,85.0737,178.3052,95.3555,87.29,84.33l8.6367,89.519-9.3091,23.85-72.1548,56.56L83.87,311.4526l10.2808,23.4453L83.1245,425.9141l89.5215-8.6363,23.8477,9.3086,56.5625,72.1553,57.1943-69.4092,23.4429-10.28,91.018,11.0274-8.6377-89.5239,9.3076-23.8453Zm-98.7832,36.7749-15.2646,39.1069,5.5468,57.4917-60.18-7.291-38.4468,16.86-36.7305,44.5742L216.28,399.9585l-39.1084-15.2656L119.68,390.2393l7.291-60.1792-16.86-38.4493-44.5732-36.729,47.7075-37.3969,15.2661-39.1119-5.5459-57.4877,60.1778,7.2905,38.4507-16.8613,36.7285-44.5728L295.7207,114.45,334.83,129.7153l57.4887-5.5464-7.2905,60.1788,16.86,38.4492,44.5732,36.73Z" class="cls-2"/>
  <path d="M168.6191,354.9272l43.5215,25.6009a132.6547,132.6547,0,0,0,71.0425,4.6638L129.86,295.0017A132.0772,132.0772,0,0,0,168.6191,354.9272Z" class="cls-2"/>
  <path d="M124.49,244.6663,331.3154,364.4077a132.7239,132.7239,0,0,0,24.9334-22.5408L131.5913,211.802A131.3105,131.3105,0,0,0,124.49,244.6663Z" class="cls-2"/>
  <path d="M152.6915,173.8372,379.78,301.9385a131.2193,131.2193,0,0,0,7.542-32.4859L176.5728,150.5684A132.78,132.78,0,0,0,152.6915,173.8372Z" class="cls-2"/>
  <path d="M350.5959,163.95l-67.9377-37.2562a132.9959,132.9959,0,0,0-62.4846,2.23l162.2317,88.9658A131.89,131.89,0,0,0,350.5959,163.95Z" class="cls-2"/>
</svg>
