<svg xmlns="http://www.w3.org/2000/svg" id="export" viewBox="0 0 512 512">
  <defs>
    <style>
      .cls-1{fill:currentColor}
    </style>
  </defs>
  <path d="M472,232H424V120a24.0275,24.0275,0,0,0-24-24H163.8818l32,32H392V232H360a24.0272,24.0272,0,0,0-24,24v12.1182l32,32V264h96V396.1182l32,32V256A24.0272,24.0272,0,0,0,472,232Z" class="cls-1"/>
  <path d="M38.627,16H16V38.627L73.373,96H40a24.0275,24.0275,0,0,0-24,24V366a24.0275,24.0275,0,0,0,24,24H212v50H152v32H304V440H244V390h92v58a24.0272,24.0272,0,0,0,24,24h89.373l24,24H496V473.373ZM48,358V128h57.373l230,230Zm320,82V390.627L417.373,440Z" class="cls-1"/>
</svg>
