<svg xmlns="http://www.w3.org/2000/svg" id="export" viewBox="0 0 512 512">
  <defs>
    <style>
      .cls-1{fill:currentColor}
    </style>
  </defs>
  <rect width="480" height="32" x="16" y="464" class="cls-1"/>
  <path d="M480.3027,227.21c23.7461-11.1777,26.6416-29.0454,21.419-42.059-5.791-14.4283-22.57-26.4517-46.0342-32.9873-23.3877-6.5152-48.252-6.0533-70.0078,1.2993l-.8936.3017-65.0986,30.94L129.7051,109.1758a47.7219,47.7219,0,0,0-49.7715,8.8618L54.499,140.8364a24.0009,24.0009,0,0,0,2.1446,37.4517l117.7675,83.4575-45.1728,23.6636-35.7744-32.687a48.0664,48.0664,0,0,0-51.47-8.604l-19.455,8.4345a24,24,0,0,0-11.6416,33.295l72.82,136.8359ZM54.7217,273.4785a16.02,16.02,0,0,1,17.1572,2.8677l52.3359,47.8188,111.3291-58.3178L83.3223,157.9741l17.9707-16.1084a15.9073,15.9073,0,0,1,16.59-2.9536l202.9434,80.6812,75.95-36.0957c15.456-5.0083,33.8623-5.1651,50.6621-.4126,13.834,3.914,21.1816,9.5981,23.6719,12.5825a24.25,24.25,0,0,1-4.5206,2.6294l-.1484.07-369.0478,181.9L43.2178,278.4658Z" class="cls-1"/>
</svg>
