<svg xmlns="http://www.w3.org/2000/svg" id="export" viewBox="0 0 512 512">
  <defs>
    <style>
      .cls-1{fill:currentColor}
    </style>
  </defs>
  <path d="M223.3081,137.502a16.0519,16.0519,0,0,1,17.9224,3.0293l32.8825,35.1633L172.0582,265.743c9.554,1.9031,16.3081,5.0405,22.1317,7.758,7.78,3.6308,13.9248,6.499,27.5171,6.499s19.7383-2.8682,27.5191-6.499l.1534-.0716a173.4088,173.4088,0,0,0,41.4172-27.1033L317.845,222.46l52.9034,56.573c6.1786-1.1368,10.5609-3.17,15.6232-5.532a99.9963,99.9963,0,0,1,16.9071-6.533L264.3882,118.4443l-.3731-.3857a48.1519,48.1519,0,0,0-54.2392-9.5547l-64.542,30.12,13.5322,28.9981Z" class="cls-1"/>
  <circle cx="372" cy="132" r="36" class="cls-1"/>
  <path d="M427.4248,376c-20.6929,0-31.9824,5.2676-41.0532,9.501C378.59,389.1318,372.4438,392,358.8491,392s-19.7392-2.8682-27.52-6.499C322.2583,381.2686,310.97,376,290.2773,376s-31.9809,5.2686-41.0512,9.501C241.4453,389.1318,235.3,392,221.707,392s-19.7373-2.8682-27.5171-6.499c-9.07-4.2324-20.3584-9.501-41.05-9.501s-31.9809,5.2686-41.0512,9.501C104.3081,389.1318,98.1631,392,84.57,392s-19.7383-2.8682-27.519-6.499C47.981,381.2686,36.6924,376,16,376v32c13.5928,0,19.7383,2.8682,27.519,6.499C52.5894,418.7314,63.8779,424,84.57,424s31.98-5.2686,41.0508-9.501c7.7808-3.6308,13.9263-6.499,27.519-6.499s19.7369,2.8682,27.5166,6.499c9.07,4.2324,20.3584,9.501,41.05,9.501s31.981-5.2686,41.0513-9.501c7.7808-3.6308,13.9263-6.499,27.519-6.499s19.7388,2.8682,27.52,6.499c9.0708,4.2324,20.3594,9.501,41.0522,9.501s31.9829-5.2676,41.0542-9.501c7.7808-3.6308,13.9273-6.499,27.5215-6.499s19.7407,2.8682,27.5215,6.499C464.0176,418.7324,475.3066,424,496,424V392c-13.5942,0-19.7407-2.8682-27.5215-6.499C459.4072,381.2676,448.1182,376,427.4248,376Z" class="cls-1"/>
  <path d="M493.2988,311.9569c-11.7411-.3589-17.576-3.0754-24.82-6.4559-8.6652-4.0439-19.3759-9.02-38.3525-9.4579-.8892-.0206-1.7749-.0431-2.7012-.0431s-1.8119.0225-2.7012.0431c-18.9762.4383-29.6873,5.414-38.352,9.4579-7.2453,3.3805-13.08,6.097-24.8212,6.4559-.8694.0266-1.764.0431-2.7013.0431s-1.8316-.0165-2.701-.0431c-11.7406-.3589-17.5746-3.0754-24.819-6.4559-8.6648-4.043-19.375-9.0194-38.3508-9.4579-.8892-.0206-1.7747-.0431-2.701-.0431s-1.8116.0225-2.7007.0431c-18.9759.4383-29.6862,5.4149-38.35,9.4579-7.2444,3.3805-13.0785,6.097-24.8183,6.4559-.8693.0266-1.7637.0431-2.7008.0431s-1.8314-.0165-2.7006-.0431c-11.74-.3589-17.573-3.0754-24.8165-6.4559-8.6643-4.043-19.3742-9.02-38.3492-9.4579-.6288-.0192-1.2853-.0276-1.9493-.033l.0017.0019c-.2553-.0016-.4947-.012-.753-.012-.9261,0-1.8116.0225-2.7007.0431-18.9759.4383-29.6862,5.4149-38.3505,9.4579-7.2444,3.3805-13.078,6.097-24.8178,6.4559-.8693.0266-1.7637.0431-2.7008.0431s-1.8315-.0165-2.7007-.0431c-11.74-.3589-17.5739-3.0754-24.8183-6.4559-8.6644-4.043-19.3747-9.02-38.3506-9.4579C17.8116,296.0225,16.9261,296,16,296v32c13.5928,0,19.7383,2.8682,27.519,6.499C52.5894,338.7314,63.8779,344,84.57,344s31.98-5.2686,41.0508-9.501c7.7808-3.6308,13.9263-6.499,27.519-6.499s19.7369,2.8682,27.5166,6.499c9.07,4.2324,20.3584,9.501,41.05,9.501s31.981-5.2686,41.0513-9.501c7.7808-3.6308,13.9263-6.499,27.519-6.499s19.7388,2.8682,27.52,6.499c9.0708,4.2324,20.3594,9.501,41.0522,9.501s31.9829-5.2676,41.0542-9.501c7.7808-3.6308,13.9273-6.499,27.5215-6.499s19.7407,2.8682,27.5215,6.499C464.0176,338.7324,475.3066,344,496,344V312C495.0628,312,494.1682,311.9835,493.2988,311.9569Z" class="cls-1"/>
</svg>
