<svg xmlns="http://www.w3.org/2000/svg" id="export" viewBox="0 0 512 512">
  <defs>
    <style>
      .cls-1{fill:currentColor}
    </style>
  </defs>
  <path d="M425.71,86.29A238.43,238.43,0,0,0,256,16h0A240,240,0,0,0,86.29,425.71,240,240,0,0,0,425.71,86.29ZM256,464C141.31,464,48,370.69,48,256S141.31,48,256,48s208,93.31,208,208S370.69,464,256,464Z" class="cls-1"/>
  <path d="M136,384H376V288H136Zm32-64H344v32H168Z" class="cls-1"/>
  <path d="M240.64,96,136,218.08V256H376V218.08L271.36,96ZM173.07,224l82.29-96h1.28l82.29,96Z" class="cls-1"/>
</svg>
