<svg xmlns="http://www.w3.org/2000/svg" id="export" viewBox="0 0 512 512">
  <defs>
    <style>
      .cls-1{fill:currentColor}
    </style>
  </defs>
  <path d="M474.1826,120H360V40H328v80H200v32h17.92l6.1538,48H112a80.09,80.09,0,0,0-80,80v16H312V280a79.5115,79.5115,0,0,0-8-34.8458A80.2423,80.2423,0,0,0,256.8452,203.97L250.1826,152H437.8174L401.92,432H32v32H430.08l40-312H496V120ZM277.2578,264H66.7422A48.0823,48.0823,0,0,1,112,232H232A48.0823,48.0823,0,0,1,277.2578,264Z" class="cls-1"/>
  <polygon points="304 352 312 352 312 320 304 320 184 320 32 320 32 352 184 352 304 352" class="cls-1"/>
  <polygon points="304 408 312 408 312 376 304 376 184 376 32 376 32 408 184 408 304 408" class="cls-1"/>
</svg>
