<svg xmlns="http://www.w3.org/2000/svg" id="export" viewBox="0 0 512 512">
  <defs>
    <style>
      .cls-1{fill:currentColor}
    </style>
  </defs>
  <path d="M428.9814,173.4375a173.9214,173.9214,0,1,0-318.71,112.9883L231.1826,472.0391a29.6185,29.6185,0,0,0,49.6348,0L401.729,286.4258A174.4492,174.4492,0,0,0,428.9814,173.4375ZM374.9165,268.959,256,451.51,137.0835,268.959c-36.4-55.8789-28.5933-130.6621,18.563-177.8174a141.92,141.92,0,0,1,200.7075,0C403.51,138.2969,411.3164,213.08,374.9165,268.959Z" class="cls-1"/>
  <polygon points="272 112 240 112 240 176 176 176 176 208 240 208 240 272 272 272 272 208 336 208 336 176 272 176 272 112" class="cls-1"/>
</svg>
