<svg xmlns="http://www.w3.org/2000/svg" id="export" viewBox="0 0 512 512">
  <defs>
    <style>
      .cls-1{fill:currentColor}
    </style>
  </defs>
  <path d="M456,40H56A16,16,0,0,0,40,56V456a16,16,0,0,0,16,16H456a16,16,0,0,0,16-16V56A16,16,0,0,0,456,40ZM440,440H72V72H440Z" class="cls-1"/>
  <rect width="33.455" height="33.455" x="239.273" y="239.273" class="cls-1"/>
  <rect width="33.455" height="33.454" x="239.273" y="306.182" class="cls-1"/>
  <rect width="33.455" height="33.454" x="239.273" y="172.363" class="cls-1"/>
  <rect width="33.455" height="33.454" x="239.273" y="105.454" class="cls-1"/>
  <rect width="33.455" height="33.454" x="239.273" y="373.091" class="cls-1"/>
  <rect width="33.455" height="33.455" x="306.182" y="239.273" class="cls-1"/>
  <rect width="33.455" height="33.455" x="373.091" y="239.273" class="cls-1"/>
  <rect width="33.455" height="33.455" x="172.364" y="239.273" class="cls-1"/>
  <rect width="33.455" height="33.455" x="105.455" y="239.273" class="cls-1"/>
</svg>
