<svg xmlns="http://www.w3.org/2000/svg" id="export" viewBox="0 0 512 512">
  <defs>
    <style>
      .cls-1{fill:currentColor}
    </style>
  </defs>
  <path d="M451.6709,348.5688,408,267.9448V184c0-83.813-68.1865-152-152-152S104,100.187,104,184v83.9448L60.3291,348.5684A24,24,0,0,0,81.4316,384h86.9446c-.2407,2.6361-.3762,5.3021-.3762,8a88,88,0,0,0,176,0c0-2.6979-.1355-5.3639-.3762-8h86.9446a24,24,0,0,0,21.1025-35.4312ZM312,392a56,56,0,1,1-111.4182-8H311.4182A55.8187,55.8187,0,0,1,312,392ZM94.8633,352,136,276.0552V184a120,120,0,0,1,240,0v92.0552L417.1367,352Z" class="cls-1"/>
  <polygon points="272 120 240 120 240 192 168 192 168 224 240 224 240 296 272 296 272 224 344 224 344 192 272 192 272 120" class="cls-1"/>
</svg>
