<svg xmlns="http://www.w3.org/2000/svg" id="export" viewBox="0 0 512 512">
  <defs>
    <style>
      .cls-1{fill:currentColor}
    </style>
  </defs>
  <path d="M496,144.7681V111.2319H456.7681V42a25.0041,25.0041,0,0,0-25.1787-24.7681H80.4106A25.0041,25.0041,0,0,0,55.2319,42V472a25.0041,25.0041,0,0,0,25.1787,24.7681H431.5894A25.0041,25.0041,0,0,0,456.7681,472V400.7681H496V367.2319H456.7681V272.7681H496V239.2319H456.7681V144.7681Zm-72.7681,94.4638H376v33.5362h47.2319v94.4638H376v33.5362h47.2319v62.4638H88.7681V50.7681H423.2319v60.4638H376v33.5362h47.2319Z" class="cls-1"/>
  <path d="M313.6387,306.9253l.0005,0-28.7456-18.6851,13.8208-33.6548V201.7144a65.7144,65.7144,0,0,0-131.4288,0v52.5561l12.7217,34.6846-27.646,17.97A48.9719,48.9719,0,0,0,130,348.1289V400H336V348.1289A48.9719,48.9719,0,0,0,313.6387,306.9253ZM304,368H162V348.1289a17.0833,17.0833,0,0,1,7.8-14.373l49.0332-31.8721-19.5479-53.2969V201.7144a33.7144,33.7144,0,0,1,67.4288,0v46.5571l-21.4966,52.3462L296.2,333.7559l0,0a17.0828,17.0828,0,0,1,7.8,14.3726Z" class="cls-1"/>
</svg>
