<svg xmlns="http://www.w3.org/2000/svg" id="export" viewBox="0 0 512 512">
  <defs>
    <style>
      .cls-1{fill:currentColor}
    </style>
  </defs>
  <path d="M420.05,92A230.48,230.48,0,0,0,256,24a234,234,0,0,0-34.23,2.51l4.69,31.66A201.84,201.84,0,0,1,256,56c110.28,0,200,89.72,200,200S366.28,456,256,456a201.84,201.84,0,0,1-29.54-2.17l-4.69,31.66A234,234,0,0,0,256,488,232,232,0,0,0,420.05,92Z" class="cls-1"/>
  <path d="M221.11,128H176.93V376h44.18L395.62,252ZM210.89,344h-2V160h2l129.49,92Z" class="cls-1"/>
  <path d="M26.87,292.57A230.29,230.29,0,0,0,49.58,362L78,347.37a198.34,198.34,0,0,1-19.57-59.81Z" class="cls-1"/>
  <path d="M166.33,77.17,152,48.58A232.07,232.07,0,0,0,92.69,91.22L115.21,114A200.49,200.49,0,0,1,166.33,77.17Z" class="cls-1"/>
  <path d="M92.78,420.88a232.42,232.42,0,0,0,59.31,42.6l14.35-28.6a200.29,200.29,0,0,1-51.15-36.75Z" class="cls-1"/>
  <path d="M78,164.74,49.52,150.12a230,230,0,0,0-22.67,69.45l31.61,5A198.22,198.22,0,0,1,78,164.74Z" class="cls-1"/>
</svg>
