<svg xmlns="http://www.w3.org/2000/svg" id="export" viewBox="0 0 512 512">
  <defs>
    <style>
      .cls-1{fill:currentColor}
    </style>
  </defs>
  <path d="M472,104H269.334L248.82,54.77A23.9352,23.9352,0,0,0,226.667,40H40A24.0275,24.0275,0,0,0,16,64V448a24.0275,24.0275,0,0,0,24,24H472a24.0275,24.0275,0,0,0,24-24V128A24.0275,24.0275,0,0,0,472,104Zm-8,336H48V72H221.333L248,136H464Z" class="cls-1"/>
  <path d="M225.5437,237.8774l-48.4187,7.8689c-2.0107,6.1885-2.3857,7.3418-4.3965,13.5306l34.5466,34.8256c.1207.3716.222.6831.3426,1.0547l-7.4785,48.4805c5.2641,3.8247,6.2453,4.5376,11.51,8.3623l43.7967-22.094h1.1088L300.3511,352c5.2644-3.8247,6.2456-4.5376,11.51-8.3623l-7.4785-48.4805c.1206-.3716.2219-.6831.3426-1.0547l34.5466-34.8256c-2.0108-6.1888-2.3858-7.3421-4.3965-13.5306l-48.4187-7.8689-.8972-.6516-22.4458-43.6174H248.8867l-22.4458,43.6174Z" class="cls-1"/>
</svg>
