<svg xmlns="http://www.w3.org/2000/svg" id="export" viewBox="0 0 512 512">
  <defs>
    <style>
      .cls-1{fill:currentColor}
    </style>
  </defs>
  <path d="M216.0273,430.2637l174.6-174.6006-173.1993-173.2-78.6552,78.6543,94.5468,94.5454-95.9472,95.9463Zm-31.999-269.146,33.3994-33.3994L345.373,255.6631,216.0273,385.0088l-33.3994-33.3994,95.9463-95.9463Z" class="cls-1"/>
  <path d="M472,16H40A24.0275,24.0275,0,0,0,16,40V472a24.0275,24.0275,0,0,0,24,24H472a24.0275,24.0275,0,0,0,24-24V40A24.0275,24.0275,0,0,0,472,16Zm-8,448H48V48H464Z" class="cls-1"/>
</svg>
