<svg xmlns="http://www.w3.org/2000/svg" viewBox="0 0 512 512">
  <path fill="currentColor" d="M274.3867,19.83,269.8994,16H242.1006l-4.4873,3.83c-63.1494,53.897-197.87,68.1137-199.2188,68.2505L24,89.5322V104c0,89.1328,14.6436,165.4434,43.5225,226.8125,38.1054,80.9736,100.1015,133.67,184.2675,156.624L256,488.584l4.21-1.1475c84.166-22.9541,146.1621-75.65,184.2675-156.624C473.3564,269.4434,488,193.1328,488,104V89.5322l-14.3945-1.4516C472.2529,87.9443,337.6475,73.8223,274.3867,19.83ZM240,450.2241C145.196,416.563,96.9805,340.2415,74.18,256H240ZM240,224H66.7583c-6.9459-35.5112-9.9927-71.6309-10.6284-105.8872C90.9761,113.2372,180.0781,97.4817,240,57.9154Zm32,226.2241V256H437.82C415.02,340.2415,366.804,416.563,272,450.2241ZM445.2417,224H272V57.9154c59.9219,39.5663,149.0239,55.3218,183.87,60.1974C455.2344,152.3691,452.1876,188.4888,445.2417,224Z"/>
</svg>
