<svg xmlns="http://www.w3.org/2000/svg" id="export" viewBox="0 0 512 512">
  <defs>
    <style>
      .cls-1{fill:currentColor}
    </style>
  </defs>
  <path d="M256,16C123.4517,16,16,123.4517,16,256S123.4517,496,256,496,496,388.5483,496,256,388.5483,16,256,16ZM403.0781,403.0781a207.2482,207.2482,0,1,1,44.5894-66.125A207.3468,207.3468,0,0,1,403.0781,403.0781Z" class="cls-1"/>
  <path d="M292,128H168v32h32.4209V264H168v32h32.4209v32H168v32h32.4209v32h32V360H296V328H232.4209V296H292a84,84,0,0,0,0-168Zm0,136H232.4209V160H292a52,52,0,0,1,0,104Z" class="cls-1"/>
</svg>
