<svg xmlns="http://www.w3.org/2000/svg" viewBox="0 0 512 512">
  <path fill="currentColor" d="M480.97,137.6865,376.1257,32.8418A24,24,0,0,0,340.58,34.6143L250.6442,144.5356,120.5065,171.05a27.0939,27.0939,0,0,0-20.0244,17.0264L17.8825,405.84a27.2693,27.2693,0,0,0,6.2051,28.917l53.2715,53.2715a27.2657,27.2657,0,0,0,28.915,6.2071l217.86-82.6377a27.1426,27.1426,0,0,0,16.9492-19.6543L369.18,263.2471l110.018-90.0147a24,24,0,0,0,1.7725-35.5459Zm-170.6,244.9073L97.8073,463.2217,84.6647,450.0791l99.36-99.36a56.0576,56.0576,0,1,0-22.2686-22.9854L62.0373,427.4526,48.8942,414.31,129.47,201.8809l124.7168-25.41,83.0517,83.0518ZM187.42,301.9043a24,24,0,1,1,24,24A24,24,0,0,1,187.42,301.9043Zm168.3916-69.0654L280.9733,158.001,359.7487,61.72l92.3438,92.3438Z"/>
</svg>
