<svg xmlns="http://www.w3.org/2000/svg" id="export" viewBox="0 0 512 512">
  <defs>
    <style>
      .cls-1{fill:currentColor}
    </style>
  </defs>
  <path d="M144,383.4546a48,48,0,1,0-48-48A48.0543,48.0543,0,0,0,144,383.4546Zm0-64a16,16,0,1,1-16,16A16.0183,16.0183,0,0,1,144,319.4546Z" class="cls-1"/>
  <path d="M360,383.4546a48,48,0,1,0-48-48A48.0543,48.0543,0,0,0,360,383.4546Zm0-64a16,16,0,1,1-16,16A16.0183,16.0183,0,0,1,360,319.4546Z" class="cls-1"/>
  <path d="M416,16H96A48.0543,48.0543,0,0,0,48,64V399.4546a32.0361,32.0361,0,0,0,32,32H96V472.001a24.0272,24.0272,0,0,0,24,24h56a24.0272,24.0272,0,0,0,24-24V431.4546H312V472.001a24.0272,24.0272,0,0,0,24,24h56a24.0272,24.0272,0,0,0,24-24V431.4546h16a32.0361,32.0361,0,0,0,32-32V64A48.0543,48.0543,0,0,0,416,16ZM80,64A16.0183,16.0183,0,0,1,96,48H416a16.0183,16.0183,0,0,1,16,16V239.4546H80Zm88,400.001H128V431.4546h40Zm216,0H344V431.4546h40Zm48-64.5464H80V272H432Z" class="cls-1"/>
</svg>
