<svg xmlns="http://www.w3.org/2000/svg" id="export" viewBox="0 0 512 512">
  <defs>
    <style>
      .cls-1{fill:currentColor}
    </style>
  </defs>
  <path d="M324.0122,181.4033c-.2725.3081-27.69,30.7988-68.0122,30.7988-39.8789,0-67.7769-30.5375-68.0122-30.7988l-8.3418-9.4375L78.8989,225.3027,134.6138,342.3l11.6489-1.665a775.6635,775.6635,0,0,1,219.4746,0l12.0059,1.7158L432.731,217.7158,331.7974,172.5952Zm66.5874,52.53-32.3808,73.3945a807.56,807.56,0,0,0-204.794.0459l-32.4487-68.14,52.32-27.6992c14.1728,12.248,43.6577,32.6669,82.7036,32.6669,39.6123,0,69.3853-21.0166,83.312-33.1958Z" class="cls-1"/>
  <path d="M337.9863,60.7959c-22.5405,0-44.0483,13.373-62.1972,38.6738a180.5117,180.5117,0,0,0-15.0362,25.3262h-9.5058A180.5607,180.5607,0,0,0,236.2109,99.47c-18.1494-25.3008-39.6572-38.6738-62.1977-38.6738-27.6729,0-50.7461,14.31-74.813,46.4C80.6531,131.9253,31.4225,196.07,16,216.1505V255.29L57.4409,360.15l.4317.9932q.6929,1.4561,1.4111,2.8847A151.2487,151.2487,0,0,0,116.1445,425.5a155.367,155.367,0,0,0,80.63,22.5h118.45a155.3639,155.3639,0,0,0,80.63-22.5,151.2519,151.2519,0,0,0,56.8618-61.4707q.7193-1.4341,1.4106-2.8857l.3057-.6426L496,248.44v-39.757c-14.8024-17.5253-64.6525-76.7569-83.2-101.4867C388.7329,75.106,365.6592,60.7959,337.9863,60.7959Zm86.9473,287.2207q-.4035.8349-.8189,1.6631C403.9,389.9678,361.1587,416,315.2251,416h-118.45c-45.9336,0-88.6753-26.0332-108.8926-66.3281q-.4512-.8965-.8872-1.8037L42.2139,234.5547c16.32-21.25,64.2675-83.7339,82.5859-108.1587,22.2061-29.6079,37.3394-33.6,49.2139-33.6,25.1758,0,46.5132,39.8643,51.9936,53.8047l3.9693,10.1953H271.083l10.9116-.0249,3.9888-10.146c5.49-13.9648,26.8271-53.8291,52.0034-53.8291,11.8745,0,27.0073,3.9922,49.2134,33.6,18.5889,24.7856,65.6733,80.813,82.5488,100.8013Z" class="cls-1"/>
</svg>
