<svg xmlns="http://www.w3.org/2000/svg" id="export" viewBox="0 0 512 512">
  <defs>
    <style>
      .cls-1{fill:currentColor}
    </style>
  </defs>
  <path d="M472.9707,122.3438,373.6563,23.0293A23.84,23.84,0,0,0,356.6865,16H56A24.0275,24.0275,0,0,0,32,40V472a24.0275,24.0275,0,0,0,24,24H456a24.0275,24.0275,0,0,0,24-24V139.3135A23.8393,23.8393,0,0,0,472.9707,122.3438ZM320,48v96H176V48ZM448,464H64V48h80V176H352V48h1.373L448,142.627Z" class="cls-1"/>
  <path d="M252,224a92,92,0,1,0,92,92A92.1048,92.1048,0,0,0,252,224Zm0,152a60,60,0,1,1,60-60A60.0681,60.0681,0,0,1,252,376Z" class="cls-1"/>
</svg>
