<svg xmlns="http://www.w3.org/2000/svg" id="export" viewBox="0 0 512 512">
  <defs>
    <style>
      .cls-1{fill:currentColor}
    </style>
  </defs>
  <path d="M124,136H36a20.0226,20.0226,0,0,0-20,20V476a20.0226,20.0226,0,0,0,20,20h88a20.0226,20.0226,0,0,0,20-20V156A20.0226,20.0226,0,0,0,124,136ZM112,464H48V168h64Z" class="cls-1"/>
  <path d="M300,240H212a20.0226,20.0226,0,0,0-20,20V476a20.0226,20.0226,0,0,0,20,20h88a20.0226,20.0226,0,0,0,20-20V260A20.0226,20.0226,0,0,0,300,240ZM288,464H224V272h64Z" class="cls-1"/>
  <path d="M476,16H388a20.0226,20.0226,0,0,0-20,20V476a20.0226,20.0226,0,0,0,20,20h88a20.0226,20.0226,0,0,0,20-20V36A20.0226,20.0226,0,0,0,476,16ZM464,464H400V48h64Z" class="cls-1"/>
</svg>
