<svg xmlns="http://www.w3.org/2000/svg" id="export" viewBox="0 0 512 512">
  <defs>
    <style>
      .cls-1{fill:currentColor}
    </style>
  </defs>
  <path d="M412.7173,89.0122c-35.5786-20.9849-82.5449-32.5415-132.2466-32.5415H239.5293c-49.7017,0-96.668,11.5566-132.2466,32.5415C69.0537,111.56,48,142.4531,48,176v16H472V176C472,142.4531,450.9463,111.56,412.7173,89.0122ZM82.7983,160c14.1529-40.1206,80.1851-71.5293,156.731-71.5293h40.9414c76.5459,0,142.5781,31.4087,156.731,71.5293Z" class="cls-1"/>
  <rect width="424" height="32" x="48" y="304" class="cls-1"/>
  <path d="M387.1968,224.0391c-24.7847,0-37.77,6.125-49.2271,11.5288-10.0337,4.7329-17.9594,8.4712-35.5761,8.4712s-25.54-3.7383-35.5733-8.4707c-11.4565-5.4043-24.4414-11.5293-49.2256-11.5293s-37.7685,6.125-49.2246,11.5293c-10.0327,4.7324-17.9575,8.4707-35.5722,8.4707s-25.54-3.7383-35.5728-8.4707C85.7686,230.1641,72.7837,224.0391,48,224.0391v32c17.6152,0,25.54,3.7382,35.5728,8.4707,11.4565,5.4043,24.4414,11.5293,49.2251,11.5293s37.7685-6.125,49.2246-11.5293c10.0327-4.7325,17.9575-8.4707,35.5722-8.4707s25.54,3.7382,35.5733,8.4707c11.4565,5.4043,24.4414,11.5293,49.2256,11.5293s37.7705-6.125,49.2275-11.5288c10.0337-4.733,17.959-8.4712,35.5757-8.4712s25.5425,3.7382,35.5761,8.4712C434.23,269.9141,447.2153,276.0391,472,276.0391v-32c-17.6167,0-25.542-3.7383-35.5757-8.4712C424.9673,230.1641,411.9819,224.0391,387.1968,224.0391Z" class="cls-1"/>
  <path d="M48,448a24.0275,24.0275,0,0,0,24,24H448a24.0275,24.0275,0,0,0,24-24V368H48Zm32-48H440v40H80Z" class="cls-1"/>
</svg>
