<svg xmlns="http://www.w3.org/2000/svg" id="export" viewBox="0 0 512 512">
  <defs>
    <style>
      .cls-1{fill:currentColor}
    </style>
  </defs>
  <path d="M230.2019,356.821l14.4253-30.6538A573.6106,573.6106,0,0,1,204.2064,281.39q15.8793-21.418,29.5934-43.9584A543.3443,543.3443,0,0,0,292.2121,104H344V72H200V16H168V72H16v32H75.77a545.1049,545.1049,0,0,0,71.4489,153.9586c6.8107-8.4057,13.7058-17.4313,20.5657-27.03A512.7044,512.7044,0,0,1,109.13,104H258.8674C229.14,201.53,174.3209,273.2084,132.2266,317.1191c-48.9922,51.1065-91.9512,76.8594-92.38,77.1143l1.6213,2.7375L48,408l8.14,13.7744c1.8731-1.1064,46.4747-27.73,98.39-81.6806q15.3791-15.9825,29.44-32.9308A608.1713,608.1713,0,0,0,230.2019,356.821Z" class="cls-1"/>
  <path d="M370.2783,200H333.7217L328,212.5162,209.3786,472h35.1856l36.5713-80h141.729l36.5713,80h35.1856ZM328,360H295.764L328,289.4836l24-52.5L408.236,360Z" class="cls-1"/>
</svg>
