<svg xmlns="http://www.w3.org/2000/svg" id="export" viewBox="0 0 512 512">
  <defs>
    <style>
      .cls-1{fill:currentColor}
    </style>
  </defs>
  <path d="M350.5186,146.7734l-94.5459,94.5454-95.9454-95.9462L81.3721,224.0269,255.9727,398.6274l173.2011-173.2ZM126.6279,224.0269l33.3994-33.4,95.9454,95.9463,94.5459-94.5454,33.3994,33.3994L255.9727,353.3726Z" class="cls-1"/>
  <path d="M425.7061,86.2944A240,240,0,0,0,86.2939,425.7056,240,240,0,0,0,425.7061,86.2944ZM256,464C141.3086,464,48,370.6914,48,256S141.3086,48,256,48s208,93.3086,208,208S370.6914,464,256,464Z" class="cls-1"/>
</svg>
