<svg xmlns="http://www.w3.org/2000/svg" id="export" viewBox="0 0 512 512">
  <defs>
    <style>
      .cls-1{fill:currentColor}
    </style>
  </defs>
  <path d="M288,104H192V392h96a32.0367,32.0367,0,0,0,32-32V136A32.0367,32.0367,0,0,0,288,104Zm0,256H224V136h64Z" class="cls-1"/>
  <polygon points="128 232 64 232 64 104 32 104 32 392 64 392 64 264 128 264 128 392 160 392 160 104 128 104 128 232" class="cls-1"/>
  <path d="M480,232V136a32.0367,32.0367,0,0,0-32-32H352V392h32V264h29.1675L440,331.0811V392h32V324.9189L447.6323,264H448A32.0367,32.0367,0,0,0,480,232Zm-96-16V136h64v96H384Z" class="cls-1"/>
</svg>
