<svg xmlns="http://www.w3.org/2000/svg" id="export" viewBox="0 0 512 512">
  <defs>
    <style>
      .cls-1{fill:currentColor}
    </style>
  </defs>
  <path d="M462.541,316.2959l-64.3437-42.1025,24.7734-45.418A79.1206,79.1206,0,0,0,432.0928,192V120A103.94,103.94,0,0,0,257.4839,43.5234l21.748,23.4737A71.9893,71.9893,0,0,1,400.0928,120v72a46.8162,46.8162,0,0,1-5.2144,21.4517l-38.9165,71.3471L445.02,343.0732a42.1593,42.1593,0,0,1,19.0733,35.4209V432h-72v32h104V378.4941A74.0626,74.0626,0,0,0,462.541,316.2959Z" class="cls-1"/>
  <path d="M318.541,348.2959l-64.3432-42.1025,24.7729-45.418A79.1206,79.1206,0,0,0,288.0928,224V152A104.2113,104.2113,0,0,0,184.04,47.8662C126.7231,47.8662,80.0928,94.5806,80.0928,152v72a78.0044,78.0044,0,0,0,9.0151,36.7749l24.9082,45.6641L50.0474,348.2959a74.02,74.02,0,0,0-33.5513,62.1055L16,496H352.0928V410.4941A74.0626,74.0626,0,0,0,318.541,348.2959ZM320.0928,464H48.1855l.31-53.5059a42.16,42.16,0,0,1,19.0732-35.4209l88.6827-58.0288-39.0508-71.5927A46.8433,46.8433,0,0,1,112.0928,224V152a72,72,0,1,1,144,0v72a46.8162,46.8162,0,0,1-5.2144,21.4517l-38.916,71.3471L301.02,375.0732a42.1593,42.1593,0,0,1,19.0733,35.4209Z" class="cls-1"/>
</svg>
