<svg xmlns="http://www.w3.org/2000/svg" id="export" viewBox="0 0 512 512">
  <defs>
    <style>
      .cls-1{fill:currentColor}
    </style>
  </defs>
  <path d="M425.7061,86.2939A240.0134,240.0134,0,0,0,48,136.2017V56H16V184H144V152H75.84C112.7424,88.3213,181.7292,48,256,48c114.6914,0,208,93.3086,208,208S370.6914,464,256,464a206.8287,206.8287,0,0,1-145.5693-59.4277L88.0342,427.4277A240,240,0,0,0,425.7061,86.2939Z" class="cls-1"/>
  <path d="M344,256a88,88,0,1,0-88,88A88.1,88.1,0,0,0,344,256Zm-144,0a56,56,0,1,1,56,56A56.0629,56.0629,0,0,1,200,256Z" class="cls-1"/>
</svg>
