<svg xmlns="http://www.w3.org/2000/svg" id="export" viewBox="0 0 512 512">
  <defs>
    <style>
      .cls-1{fill:currentColor}
    </style>
  </defs>
  <path d="M226,388.1289V400h32V388.1289a17.0833,17.0833,0,0,1,7.8-14.373l49.0332-31.8711-19.5479-53.2979V241.7148a33.7144,33.7144,0,1,1,67.4288,0v46.5567l-21.4966,52.3467L392.2,373.7559a17.084,17.084,0,0,1,7.8,14.373V400h32V388.1289a48.9718,48.9718,0,0,0-22.36-41.2031l-28.746-18.6846,13.8208-33.6553V241.7148a65.7144,65.7144,0,1,0-131.4288,0v52.5557l12.7217,34.6846-27.646,17.9707A48.97,48.97,0,0,0,226,388.1289Z" class="cls-1"/>
  <path d="M472,104H269.3335L248.8208,54.77A23.9358,23.9358,0,0,0,226.667,40H40A24.0275,24.0275,0,0,0,16,64V448a24.0275,24.0275,0,0,0,24,24H472a24.0275,24.0275,0,0,0,24-24V128A24.0275,24.0275,0,0,0,472,104Zm-8,336H48V72H221.3335l26.667,64H464Z" class="cls-1"/>
</svg>
