<svg xmlns="http://www.w3.org/2000/svg" viewBox="0 0 512 512">
  <defs>
    <style>
      .a{fill:currentColor}
    </style>
  </defs>
  <path d="M392,16H144a32.0364,32.0364,0,0,0-32,32v64H392.0032l.011,224H112V464a32.0367,32.0367,0,0,0,32,32H392a32.0367,32.0367,0,0,0,32-32V48A32.0364,32.0364,0,0,0,392,16ZM144,80V48H392l.0016,32ZM392,464H144V368H392.0157l.0048,95.999Z" class="a"/>
  <rect width="32" height="32" x="256" y="400" class="a"/>
  <polygon points="232 205.119 232 288 264 288 264 152 120 152 120 184 207.756 184 96 289.548 93.014 292.368 96 295.53 114.986 315.632 232 205.119" class="a"/>
</svg>
