<svg xmlns="http://www.w3.org/2000/svg" id="export" viewBox="0 0 512 512">
  <defs>
    <style>
      .cls-1{fill:currentColor}
    </style>
  </defs>
  <path d="M397.2217,131.1006l-.2178-.2222C333.8314,67.7067,238.47,55.8625,163.2277,95.3459l23.9386,23.9387c61.5706-27.69,136.5725-16.3264,187.1042,34.1153L464,246.6826V249.79l-71.7436,74.5846,22.63,22.63L496,262.6826V233.79Z" class="cls-1"/>
  <path d="M352.7983,284.33A103.3075,103.3075,0,0,0,219.9067,151.438L246.0988,177.63a71.2288,71.2288,0,0,1,80.5075,80.5075Z" class="cls-1"/>
  <path d="M369.8954,347.2685l-33.8316-33.8316c.0879-.1077.1791-.2124.2665-.32L313.525,290.3111c-.0827.1127-.1694.2221-.2527.3343L213.5909,190.964c.1122-.0833.2216-.17.3343-.2526L191.12,167.906c-.108.0874-.2127.1787-.32.2665L38.627,16H16V38.627l95.6891,95.6891L16,233.79v28.8926l98.7783,102.69.2178.2221a199.73,199.73,0,0,0,252.3756,24.4045L473.373,496H496V473.373L392.5375,369.9105ZM192.7382,215.3651l96.133,96.1331a71.28,71.28,0,0,1-96.133-96.1331ZM137.73,343.0728,48,249.79v-3.1074l86.3187-89.7369,35.0648,35.0648A103.2473,103.2473,0,0,0,312.2258,334.8528L344.2335,366.86C279.7228,406.8748,193.7111,398.9547,137.73,343.0728Z" class="cls-1"/>
</svg>
