<svg xmlns="http://www.w3.org/2000/svg" id="export" viewBox="0 0 512 512">
  <defs>
    <style>
      .cls-1{fill:currentColor}
    </style>
  </defs>
  <polygon points="48 48 176 48 176 16 16 16 16 176 48 176 48 48" class="cls-1"/>
  <path d="M176,176V80H80v96h96Zm-64-64h32v32H112Z" class="cls-1"/>
  <polygon points="328 16 328 48 464 48 464 176 496 176 496 16 328 16" class="cls-1"/>
  <path d="M432,176V80H336v96h96Zm-64-64h32v32H368Z" class="cls-1"/>
  <polygon points="48 336 16 336 16 496 176 496 176 464 48 464 48 336" class="cls-1"/>
  <path d="M112,336H80v96h96V336H112Zm32,64H112V368h32Z" class="cls-1"/>
  <polygon points="464 464 328 464 328 496 496 496 496 336 464 336 464 464" class="cls-1"/>
  <polygon points="272 304 400 304 400 368 432 368 432 272 272 272 272 304" class="cls-1"/>
  <polygon points="432 432 432 400 240 400 240 272 80 272 80 304 208 304 208 432 432 432" class="cls-1"/>
  <rect width="32" height="96" x="208" y="80" class="cls-1"/>
  <polygon points="80 240 304 240 304 80 272 80 272 208 80 208 80 240" class="cls-1"/>
  <rect width="96" height="32" x="336" y="208" class="cls-1"/>
  <rect width="32" height="32" x="336" y="336" class="cls-1"/>
  <rect width="32" height="32" x="272" y="336" class="cls-1"/>
</svg>
