<svg xmlns="http://www.w3.org/2000/svg" id="export" viewBox="0 0 512 512">
  <defs>
    <style>
      .cls-1{fill:currentColor}
    </style>
  </defs>
  <path d="M286,332.1289a48.9719,48.9719,0,0,0-22.3613-41.2036l.0005,0-28.7456-18.6851,13.8208-33.6548V185.7144a65.7144,65.7144,0,0,0-131.4288,0v52.5561l12.7217,34.6846-27.646,17.97A48.9719,48.9719,0,0,0,80,332.1289V384H286ZM254,352H112V332.1289a17.0833,17.0833,0,0,1,7.8-14.373l49.0332-31.8721-19.5479-53.2969V185.7144a33.7144,33.7144,0,0,1,67.4288,0v46.5571l-21.4966,52.3462L246.2,317.7559l0,0a17.0828,17.0828,0,0,1,7.8,14.3726Z" class="cls-1"/>
  <path d="M472,64H40A24.0275,24.0275,0,0,0,16,88V424a24.0275,24.0275,0,0,0,24,24H472a24.0275,24.0275,0,0,0,24-24V88A24.0275,24.0275,0,0,0,472,64Zm-8,352H48V96H464Z" class="cls-1"/>
  <rect width="136" height="32" x="296" y="136" class="cls-1"/>
  <rect width="136" height="32" x="296" y="200" class="cls-1"/>
</svg>
