<svg xmlns="http://www.w3.org/2000/svg" id="export" viewBox="0 0 512 512">
  <defs>
    <style>
      .cls-1{fill:currentColor}
    </style>
  </defs>
  <rect width="32" height="32" x="296" y="40" class="cls-1"/>
  <rect width="32" height="32" x="368" y="40" class="cls-1"/>
  <rect width="32" height="32" x="296" y="440" class="cls-1"/>
  <rect width="32" height="32" x="368" y="440" class="cls-1"/>
  <rect width="32" height="32" x="440" y="40" class="cls-1"/>
  <rect width="32" height="33.454" x="440" y="105.454" class="cls-1"/>
  <rect width="32" height="33.454" x="440" y="172.363" class="cls-1"/>
  <rect width="32" height="33.454" x="440" y="373.091" class="cls-1"/>
  <rect width="32" height="33.454" x="440" y="239.273" class="cls-1"/>
  <rect width="32" height="33.454" x="440" y="306.182" class="cls-1"/>
  <rect width="32" height="32" x="440" y="440" class="cls-1"/>
  <path d="M224,40H56A16,16,0,0,0,40,56V456a16,16,0,0,0,16,16H224v24h32V16H224Zm0,400H72V72H224Z" class="cls-1"/>
</svg>
