<svg xmlns="http://www.w3.org/2000/svg" id="export" viewBox="0 0 512 512">
  <defs>
    <style>
      .cls-1{fill:currentColor}
    </style>
  </defs>
  <polygon points="459.26 96 328 225.697 328 96 293.45 96 229.01 161.128 251.638 183.756 296 138.92 296 228.118 333.314 265.433 464 136.303 464 396.118 496 428.118 496 416 496 96 459.26 96" class="cls-1"/>
  <polygon points="168 16 88 16 83.882 16 168 100.118 168 16" class="cls-1"/>
  <rect width="32" height="32" x="136" y="304" class="cls-1"/>
  <rect width="32" height="32" x="136" y="376" class="cls-1"/>
  <rect width="32" height="32" x="216" y="304" class="cls-1"/>
  <rect width="32" height="32" x="216" y="376" class="cls-1"/>
  <rect width="32" height="32" x="296" y="376" class="cls-1"/>
  <path d="M168,145.373l-32-32L70.627,48l-32-32H16V496H496V473.373L266.5635,243.9365ZM48,464V70.627l88,88V248h32V190.627L441.373,464Z" class="cls-1"/>
</svg>
