<svg xmlns="http://www.w3.org/2000/svg" id="export" viewBox="0 0 512 512">
  <defs>
    <style>
      .cls-1{fill:currentColor}
    </style>
  </defs>
  <path d="M96,146V16H64V146A64,64,0,0,0,64,270V496H96V270A64,64,0,0,0,96,146ZM80,240a32,32,0,1,1,32-32A32,32,0,0,1,80,240Z" class="cls-1"/>
  <path d="M272,290V16H240V290A64,64,0,0,0,240,414v82h32V414A64,64,0,0,0,272,290Zm-16,94a32,32,0,1,1,32-32A32,32,0,0,1,256,384Z" class="cls-1"/>
  <path d="M448,82V16H416V82A64,64,0,0,0,416,206V496h32V206A64,64,0,0,0,448,82Zm-16,94a32,32,0,1,1,32-32A32,32,0,0,1,432,176Z" class="cls-1"/>
</svg>
