<svg xmlns="http://www.w3.org/2000/svg" viewBox="0 0 512 512">
  <path fill="currentColor" d="M253.0547,498.7417l-56.5615-72.1553-23.8482-9.3086-89.521,8.6363L94.15,334.8979,83.8691,311.4526,14.4614,254.2588l72.1553-56.5606,9.3091-23.85L87.2886,84.33l91.0156,11.0259L201.751,85.0742l57.1928-69.4077,56.5625,72.1558L339.3535,97.13l89.52-8.6372L417.8477,179.51l10.2812,23.4463L497.5361,260.15,425.38,316.7109l-9.3072,23.8453L424.71,430.08l-91.018-11.0274-23.4424,10.28ZM177.17,384.6929l39.1089,15.2656,37.3984,47.708,36.7305-44.5742,38.4463-16.86,60.18,7.291-5.5464-57.4917,15.2641-39.1069,47.7085-37.3979-44.5732-36.729-16.86-38.45,7.2906-60.1788-57.4888,5.5464L295.72,114.45,258.3218,66.7417l-36.729,44.5728-38.4507,16.8613-60.1777-7.2905,5.5463,57.4877-15.2661,39.1119-47.708,37.3969,44.5728,36.729L126.9707,330.06l-7.291,60.1787Z"/>
</svg>
