<svg xmlns="http://www.w3.org/2000/svg" id="export" viewBox="0 0 512 512">
  <defs>
    <style>
      .cls-1{fill:currentColor}
    </style>
  </defs>
  <path d="M242.918,16.1729H200.5571v88H152A136.27,136.27,0,0,0,28.0249,184.1978,114.1623,114.1623,0,0,0,16,235.5063V496.1729H68.146L117.7524,318.417a85.3981,85.3981,0,0,1,81.9927-62.2441h.812v88h41.78l164.2905-164.29ZM232.5571,308.6978V224.1729h-32.812A117.5,117.5,0,0,0,86.93,309.8154L48,449.3154V235.5063a82.443,82.443,0,0,1,8.7852-37.2758l.2919-.6143A104.2163,104.2163,0,0,1,152,136.1729h80.5571V51.0669L361.3726,179.8828Z" class="cls-1"/>
  <polygon points="330.918 15.509 287.509 15.509 451.882 179.883 288.256 343.509 330.337 343.509 494.627 179.219 330.918 15.509" class="cls-1"/>
</svg>
