<svg xmlns="http://www.w3.org/2000/svg" viewBox="0 0 512 512">
  <path fill="currentColor" d="M488.6709,221.6445a23.85,23.85,0,0,0-18.917-9.23H403.5557V160a23.1375,23.1375,0,0,0-23.1114-23.1113H244.1484L226.37,94.22A23.052,23.052,0,0,0,205.0371,80H39.1113A23.1381,23.1381,0,0,0,16,103.1113V467.5557H436.707l56.33-225.32A23.8512,23.8512,0,0,0,488.6709,221.6445ZM48,435.5557V112H199.1113l23.7032,56.8887H371.5557v43.5254H137.5869a23.9657,23.9657,0,0,0-23.2832,18.1787l-51.24,204.9629Zm363.7227,0H96.0479L143.833,244.4141H459.5078Z"/>
</svg>
