<svg xmlns="http://www.w3.org/2000/svg" id="export" viewBox="0 0 512 512">
  <defs>
    <style>
      .cls-1{fill:currentColor}
    </style>
  </defs>
  <path d="M108,200a92,92,0,1,0-92-92A92.1042,92.1042,0,0,0,108,200Zm0-152a60,60,0,1,1-60,60A60.0681,60.0681,0,0,1,108,48Z" class="cls-1"/>
  <path d="M476.9365,38.26h-.0005a75.9992,75.9992,0,0,0-107.48,0l-5.4746,5.4746c-21.0533,21.0532-41.5533,43.1923-60.93,65.8017l-.3179.3706-138.8281,183.56L78.5479,378.8247a38.2626,38.2626,0,0,0-46.1216,60.229l40.52,40.5195a38.2722,38.2722,0,0,0,60.2378-46.13l85.24-85.24,179.9009-130.76.84-.6548c26.8658-22.4048,53.0313-46.3091,77.771-71.0489A76.086,76.086,0,0,0,476.9365,38.26Zm-22.6284,84.8525c-23.9346,23.9355-49.2432,47.0674-75.23,68.7607L197.5757,323.7969,88.8535,432.519l15.5728,15.5743a6.26,6.26,0,1,1-8.8526,8.853l-40.52-40.5195a6.26,6.26,0,0,1,8.8535-8.8536L79.4805,423.147,188.0947,314.5327l139.57-184.54c18.7529-21.8628,38.5815-43.2676,58.9438-63.63l5.4746-5.4741a44,44,0,1,1,62.2251,62.2251Z" class="cls-1"/>
</svg>
