<svg xmlns="http://www.w3.org/2000/svg" id="export" viewBox="0 0 512 512">
  <defs>
    <style>
      .cls-1{fill:currentColor}
    </style>
  </defs>
  <path d="M464,72H48a32,32,0,0,0-32,32V408a32,32,0,0,0,32,32H464a32,32,0,0,0,32-32V104A32,32,0,0,0,464,72Zm0,336H48V104H464l0,304Z" class="cls-1"/>
  <rect width="184" height="32" x="232" y="184" class="cls-1"/>
  <rect width="240" height="32" x="176" y="256" class="cls-1"/>
  <rect width="240" height="32" x="176" y="328" class="cls-1"/>
  <polygon points="88.92 144 88.92 272.92 188.09 203.5 88.92 144" class="cls-1"/>
</svg>
