<svg xmlns="http://www.w3.org/2000/svg" id="export" viewBox="0 0 512 512">
  <defs>
    <style>
      .cls-1{fill:currentColor}
    </style>
  </defs>
  <path d="M424.7832,310.0117,412.2842,294.37l-12.499,15.6416c-8.3545,10.4541-50.0274,64.208-50.0274,95.8828,0,36.4512,28.0488,66.1055,62.5264,66.1055s62.5263-29.6543,62.5263-66.1055C474.8105,374.22,433.1377,320.4658,424.7832,310.0117ZM412.2842,440c-16.8321,0-30.5264-15.3-30.5264-34.1055,0-11.6611,15.4854-37.8828,30.5313-59.1963,15.0429,21.2989,30.5214,47.5088,30.5214,59.1963C442.8105,424.7,429.1162,440,412.2842,440Z" class="cls-1"/>
  <path d="M122.6689,51.4922,96.1333,124.3986,30.0918,97.2051l-12.1836,29.59,67.271,27.7L26.9033,314.6064a48.055,48.055,0,0,0,28.6885,61.5225l184.7187,67.2324a48.0015,48.0015,0,0,0,61.5235-28.6884L397.6,151.56ZM151.1267,181.65a32.6442,32.6442,0,1,0,11.2363-29.98l-36.6147-15.0766,16.0456-44.0853,214.79,78.1768L328,249.2188V248H85.2l29.5944-81.3108Zm120.637,222.0779a16,16,0,0,1-20.5078,9.5635L66.5371,346.0586a16,16,0,0,1-9.5635-20.5068L73.553,280H316.7966Z" class="cls-1"/>
</svg>
