<svg xmlns="http://www.w3.org/2000/svg" id="export" viewBox="0 0 512 512">
  <defs>
    <style>
      .cls-1{fill:currentColor}
    </style>
  </defs>
  <polygon points="161.846 320 353.846 320 358.769 288 166.769 288 161.846 320" class="cls-1"/>
  <path d="M467.1216,16l-16.42,112H421.1748L439.49,16H407.0649L371.7441,232H155.8193a48.0506,48.0506,0,0,0-47.1523,39.0186l-9.3538,49.1066A88,88,0,1,0,188.6733,432H314.05A144.0008,144.0008,0,0,0,456.6387,308.1113L499.4644,16ZM104,464a56,56,0,1,1,56-56A56.0632,56.0632,0,0,1,104,464ZM424.9629,303.5669A111.2673,111.2673,0,0,1,400,359.5846,113.5739,113.5739,0,0,1,371.4771,384,111.2257,111.2257,0,0,1,314.05,400H191.6326a87.3291,87.3291,0,0,0-5.6568-24H345.2307l4.9231-32H164.3328q-2.6262-2.4768-5.4505-4.7354a87.9041,87.9041,0,0,0-27.7834-14.99L139.5322,280l.57-2.9937A16.0158,16.0158,0,0,1,155.8193,264H398.9355l17.0064-104h30.0686Z" class="cls-1"/>
</svg>
