<svg xmlns="http://www.w3.org/2000/svg" id="export" viewBox="0 0 512 512">
  <defs>
    <style>
      .cls-1{fill:currentColor}
    </style>
  </defs>
  <path d="M40,104a24.0275,24.0275,0,0,0-24,24V424.17a24.0272,24.0272,0,0,0,24,24h88v-32H48V136H496V104Z" class="cls-1"/>
  <path d="M472,184H344a24.0272,24.0272,0,0,0-24,24V424a24.0272,24.0272,0,0,0,24,24H472a24.0272,24.0272,0,0,0,24-24V208A24.0272,24.0272,0,0,0,472,184Zm-8,232H352V216H464Z" class="cls-1"/>
  <path d="M212,232a84,84,0,1,0,84,84A84.0953,84.0953,0,0,0,212,232Zm0,136a52,52,0,1,1,52-52A52.0589,52.0589,0,0,1,212,368Z" class="cls-1"/>
  <rect width="88" height="32" x="168" y="184" class="cls-1"/>
  <rect width="88" height="32" x="168" y="416.17" class="cls-1"/>
</svg>
