<svg xmlns="http://www.w3.org/2000/svg" id="export" viewBox="0 0 512 512">
  <defs>
    <style>
      .cls-1{fill:currentColor}
    </style>
  </defs>
  <path d="M312,128a183.6485,183.6485,0,0,0-139.7892,64.4945c-1.7051-3.804-3.4675-7.5883-5.3246-11.3387l11.3692-90.0044a66.7819,66.7819,0,1,0-132.5108-.0005l11.3692,90.0049A323.0979,323.0979,0,0,0,38.356,420.9717L61.8433,496H162.1567l17.5955-56.2073A183.468,183.468,0,0,0,312,496c101.458,0,184-82.542,184-184S413.458,128,312,128ZM85.91,59.78a34.7816,34.7816,0,0,1,60.5976,27.3608L136.2939,168H87.7061L77.4927,87.1406A34.7925,34.7925,0,0,1,85.91,59.78ZM155.105,411.4121,138.6431,464H85.3569L68.895,411.4121A289.2382,289.2382,0,0,1,83.5619,200h56.8762q5.58,11.7771,10.0754,23.8789a183.6577,183.6577,0,0,0,5.2778,185.2443C155.5593,409.8857,155.3434,410.6506,155.105,411.4121ZM312,464c-83.813,0-152-68.187-152-152s68.187-152,152-152,152,68.187,152,152S395.813,464,312,464Z" class="cls-1"/>
  <circle cx="312" cy="224" r="24" class="cls-1"/>
  <circle cx="384" cy="272" r="24" class="cls-1"/>
  <circle cx="304" cy="304" r="24" class="cls-1"/>
</svg>
