<svg xmlns="http://www.w3.org/2000/svg" id="export" viewBox="0 0 512 512">
  <defs>
    <style>
      .cls-1{fill:currentColor}
    </style>
  </defs>
  <path d="M464,16H48A32,32,0,0,0,16,48V464a32,32,0,0,0,32,32H464a32,32,0,0,0,32-32V48A32,32,0,0,0,464,16Zm0,448H48V48H464l0,416Z" class="cls-1"/>
  <path d="M256,168a88,88,0,1,0,88,88A88.1,88.1,0,0,0,256,168Zm0,144a56,56,0,1,1,56-56A56.06,56.06,0,0,1,256,312Z" class="cls-1"/>
  <path d="M131.55,131.55a176,176,0,0,0-10.37,237.58l24.51-20.57a144,144,0,0,1,8.49-194.38Z" class="cls-1"/>
  <path d="M357.82,154.18a144,144,0,0,1,8.49,194.38l24.51,20.57a176,176,0,0,0-10.37-237.58Z" class="cls-1"/>
</svg>
