<svg xmlns="http://www.w3.org/2000/svg" viewBox="0 0 512 512">
  <path fill="currentColor" d="M476.7568,337.8l13.3291-66.6455L320,186.1113V113.8887a105.153,105.153,0,0,0-37.9365-80.9971,40.7068,40.7068,0,0,0-52.127,0A105.153,105.153,0,0,0,192,113.8887v72.2226L21.9141,271.1543,35.2432,337.8l157.1884-20.5029,7.7364,81.2236L128,429.45V496H384V429.45l-72.168-30.93,7.7364-81.2236ZM352,450.5508V464H160V450.5508l74.2383-31.8174L224,311.24v-30.332L60.7568,302.2l-2.6709-13.3545L224,205.8887v-92a73.2365,73.2365,0,0,1,26.4229-56.4131,8.7089,8.7089,0,0,1,11.1542,0A73.2365,73.2365,0,0,1,288,113.8887v92l165.9141,82.957L451.2432,302.2,288,280.9082V311.24L277.7617,418.7334Z"/>
</svg>
