<svg xmlns="http://www.w3.org/2000/svg" id="export" viewBox="0 0 512 512">
  <defs>
    <style>
      .cls-1{fill:currentColor}
    </style>
  </defs>
  <path d="M320,144H192v80.01l-80,.0043v38.4039L255.8262,406.6362,399.9893,262.6455l.0185-38.6465L320,224.0034Zm41.3594,112.0015L255.8711,361.3638,150.8047,256.0122,224,256.0083V176h64v80.0054Z" class="cls-1"/>
  <path d="M425.7061,86.2944A240,240,0,0,0,86.2939,425.7056,240,240,0,0,0,425.7061,86.2944ZM256,464C141.3086,464,48,370.6914,48,256S141.3086,48,256,48s208,93.3086,208,208S370.6914,464,256,464Z" class="cls-1"/>
</svg>
