<svg xmlns="http://www.w3.org/2000/svg" id="export" viewBox="0 0 512 512">
  <defs>
    <style>
      .cls-1{fill:currentColor}
    </style>
  </defs>
  <path d="M230.5884,27.3408a31.9991,31.9991,0,0,0-45.2549,0L28.8179,183.8555a31.9994,31.9994,0,0,0,0,45.2549l256.039,256.04a32.0374,32.0374,0,0,0,45.2544-.001L486.627,328.6338v.001a31.9991,31.9991,0,0,0,0-45.2549ZM464.0005,306.0059,307.4849,462.5225l-256.04-256.04L207.96,49.9678,464.0137,305.9912Z" class="cls-1"/>
  <path d="M107.4709,438.0332A135.9005,135.9005,0,0,1,51.3008,328h-32c0,92.6357,75.3642,168,168,168h0l-60-80Z" class="cls-1"/>
  <path d="M407.83,73.9668A135.9014,135.9014,0,0,1,464,184h32c0-92.6357-75.3643-168-168-168l60,80Z" class="cls-1"/>
</svg>
