<svg xmlns="http://www.w3.org/2000/svg" viewBox="0 0 512 512">
  <path fill="currentColor" d="M256,16A240,240,0,0,0,86.2944,425.7056,240,240,0,1,0,425.7056,86.2944,238.4289,238.4289,0,0,0,256,16ZM107.7611,110.25q4.21,5.8254,8.1452,12.4664C134.5688,154.3091,145.7291,195.481,147.8911,240H48.6094A207.3836,207.3836,0,0,1,107.7611,110.25Zm0,291.5A207.3836,207.3836,0,0,1,48.6094,272h99.2817c-2.162,44.519-13.3223,85.6909-31.9848,117.2837Q111.98,395.9306,107.7611,401.75ZM240,463.3906a206.86,206.86,0,0,1-108.0485-40.5317,190.8531,190.8531,0,0,0,11.507-17.3c21.4827-36.3682,34.233-83.3025,36.47-133.5591H240ZM240,240H179.9288c-2.2373-50.2566-14.9876-97.1909-36.47-133.5591a190.8531,190.8531,0,0,0-11.507-17.3A206.86,206.86,0,0,1,240,48.6094ZM272,48.6094A206.86,206.86,0,0,1,380.0485,89.1411a190.8531,190.8531,0,0,0-11.507,17.3c-21.4827,36.3682-34.233,83.3025-36.47,133.5591H272Zm0,414.7812V272h60.0712c2.2373,50.2566,14.9876,97.1909,36.47,133.5591a190.8531,190.8531,0,0,0,11.507,17.3A206.86,206.86,0,0,1,272,463.3906ZM404.2389,401.75q-4.21-5.8254-8.1451-12.4664C377.4312,357.6909,366.2709,316.519,364.1089,272h99.2817A207.3836,207.3836,0,0,1,404.2389,401.75ZM364.1089,240c2.162-44.519,13.3223-85.6909,31.9849-117.2837q3.9264-6.647,8.1451-12.4664A207.3836,207.3836,0,0,1,463.3906,240Z"/>
</svg>
