<svg xmlns="http://www.w3.org/2000/svg" id="export" viewBox="0 0 512 512">
  <defs>
    <style>
      .cls-1{fill:currentColor}
    </style>
  </defs>
  <rect width="40" height="40" x="344" y="112" class="cls-1"/>
  <polygon points="72 72 224 72 224 40 40 40 40 224 72 224 72 72" class="cls-1"/>
  <polygon points="288 40 288 72 440 72 440 224 472 224 472 40 288 40" class="cls-1"/>
  <polygon points="72 288 40 288 40 472 224 472 224 440 72 440 72 288" class="cls-1"/>
  <polygon points="280.5 308.873 189.5 217.873 104 303.373 104 348.627 189.5 263.128 334.372 408 379.627 408 303.127 331.5 375.231 259.396 440 324.165 440 440 288 440 288 472 472 472 472 312 375.231 214.143 280.5 308.873" class="cls-1"/>
</svg>
