<svg xmlns="http://www.w3.org/2000/svg" id="export" viewBox="0 0 512 512">
  <defs>
    <style>
      .cls-1{fill:currentColor}
    </style>
  </defs>
  <path d="M342.46,231l24.94,20a132.37,132.37,0,0,0-.18-166.26l-24.9,20.08A100.44,100.44,0,0,1,342.46,231Z" class="cls-1"/>
  <path d="M407.41,283.14l25,20.1a216.06,216.06,0,0,0-.29-270.84l-25,20.15a183.6,183.6,0,0,1,.25,230.59Z" class="cls-1"/>
  <path d="M200,48a80.09,80.09,0,0,1,80,80v79.68a48.07,48.07,0,0,1-.32,5.37L305.61,239A80.16,80.16,0,0,0,312,207.68V128A111.94,111.94,0,0,0,118.21,51.58l22.63,22.63A79.8,79.8,0,0,1,200,48Z" class="cls-1"/>
  <path d="M39.31,16H16V37.94L89.26,111.2A112.13,112.13,0,0,0,88,128v79.68A80.25,80.25,0,0,0,97.77,246l27.45,50.33L52.4,343.66A79.72,79.72,0,0,0,16,410.73V496H384V405.94L474.06,496H496V472.69ZM352,464H48V410.73a47.84,47.84,0,0,1,21.84-40.24L167.5,307l-41.64-76.34a48.2,48.2,0,0,1-5.86-23V141.94l232,232Z" class="cls-1"/>
</svg>
