<svg xmlns="http://www.w3.org/2000/svg" id="export" viewBox="0 0 512 512">
  <defs>
    <style>
      .cls-1{fill:currentColor}
    </style>
  </defs>
  <path d="M16,80V432H496V80ZM48,220.4277a190.2129,190.2129,0,0,0,63.209-41.8115A190.1616,190.1616,0,0,0,154.3535,112h203.293A189.7855,189.7855,0,0,0,464,220.4277v71.1446A189.7855,189.7855,0,0,0,357.6465,400H154.3535a190.1616,190.1616,0,0,0-43.1445-66.6162A190.2129,190.2129,0,0,0,48,291.5723Zm416-35.1191A159.4436,159.4436,0,0,1,392.42,112H464ZM119.58,112A159.4436,159.4436,0,0,1,48,185.3086V112ZM48,326.6914A159.4436,159.4436,0,0,1,119.58,400H48ZM392.42,400A159.4436,159.4436,0,0,1,464,326.6914V400Z" class="cls-1"/>
  <path d="M256,352.1338c48.5234,0,88-43.125,88-96.1338s-39.4766-96.1338-88-96.1338S168,202.9912,168,256,207.4766,352.1338,256,352.1338Zm0-160.2676c30.8789,0,56,28.7705,56,64.1338s-25.1211,64.1338-56,64.1338S200,291.3633,200,256,225.1211,191.8662,256,191.8662Z" class="cls-1"/>
</svg>
