<svg xmlns="http://www.w3.org/2000/svg" id="export" viewBox="0 0 512 512">
  <defs>
    <style>
      .cls-1{fill:currentColor}
    </style>
  </defs>
  <path d="M448.71,80H63.29C50.45,80,40,90.77,40,104v80H72V112H440V392H72V328H40v72c0,13.23,10.45,24,23.29,24H448.71c12.84,0,23.29-10.77,23.29-24V104C472,90.77,461.55,80,448.71,80Z" class="cls-1"/>
  <path d="M136,256a48,48,0,1,0-48,48A48.05,48.05,0,0,0,136,256Zm-64,0a16,16,0,1,1,16,16A16,16,0,0,1,72,256Z" class="cls-1"/>
  <path d="M139.85,206.12a71.85,71.85,0,0,1,1.36,98.34l25.12,19.88a103.81,103.81,0,0,0-1.85-138.74Z" class="cls-1"/>
  <path d="M191.42,344.21l25.09,19.86a167.64,167.64,0,0,0-2.85-219.45l-24.59,20.49a135.71,135.71,0,0,1,2.35,179.1Z" class="cls-1"/>
</svg>
