<svg xmlns="http://www.w3.org/2000/svg" viewBox="0 0 512 512">
  <path fill="currentColor" d="M432,32a63.9728,63.9728,0,0,0-34.3437,117.9626L355.8942,296.13c-1.2894-.0778-2.5856-.13-3.8942-.13a63.6638,63.6638,0,0,0-38.1931,12.6779l-77.1542-64.2953a64.0027,64.0027,0,1,0-105.3933,25.3213l-45.292,90.5839C84.0013,360.105,82.013,360,80,360a64.0823,64.0823,0,1,0,36.2435,11.29l42.7947-85.5894A63.8434,63.8434,0,0,0,219.02,271.3445l74.7034,62.2529a63.9977,63.9977,0,1,0,92.6205-27.56l41.762-146.167c1.2894.0778,2.5856.13,3.8942.13a64,64,0,0,0,0-128ZM80,456a32,32,0,1,1,32-32A32.0364,32.0364,0,0,1,80,456Zm96-200a32,32,0,1,1,32-32A32.0364,32.0364,0,0,1,176,256ZM352,392a32,32,0,1,1,32-32A32.0364,32.0364,0,0,1,352,392Zm80-264a32,32,0,1,1,32-32A32.0364,32.0364,0,0,1,432,128Z"/>
</svg>
