<svg xmlns="http://www.w3.org/2000/svg" id="export" viewBox="0 0 512 512">
  <defs>
    <style>
      .cls-1{fill:currentColor}
    </style>
  </defs>
  <path d="M376,16H136A48.054,48.054,0,0,0,88,64V464a32.0364,32.0364,0,0,0,32,32H392a32.0364,32.0364,0,0,0,32-32V64A48.054,48.054,0,0,0,376,16Zm16,448H120V240H392Zm0-256H120V64a16.0183,16.0183,0,0,1,16-16H376a16.0183,16.0183,0,0,1,16,16Z" class="cls-1"/>
  <rect width="32" height="96" x="144" y="280" class="cls-1"/>
  <rect width="32" height="64" x="144" y="104" class="cls-1"/>
</svg>
