<svg xmlns="http://www.w3.org/2000/svg" id="export" viewBox="0 0 512 512">
  <defs>
    <style>
      .cls-1{fill:currentColor}
    </style>
  </defs>
  <path d="M399.1084,331.2266A151.3017,151.3017,0,0,0,408,280c0-83.8135-68.187-152-152-152a151.3025,151.3025,0,0,0-51.2266,8.8916l25.8233,25.8235A120.0191,120.0191,0,0,1,373.2849,305.4033Z" class="cls-1"/>
  <path d="M256,72c114.6914,0,208,93.3086,208,208a206.7225,206.7225,0,0,1-22.3633,93.7551l23.7468,23.7466A240.1625,240.1625,0,0,0,138.4982,70.6165l23.7467,23.7467A206.7238,206.7238,0,0,1,256,72Z" class="cls-1"/>
  <path d="M16,16V38.627l70.9917,70.9917c-.23.2282-.4679.4459-.6973.6752a240.001,240.001,0,0,0,0,339.4119l22.6965-22.6965a207.6008,207.6008,0,0,1,.7169-294.6747l39.5733,39.5732A151.7067,151.7067,0,0,0,148.57,387.43L171.187,364.813a119.7628,119.7628,0,0,1,.7091-170.29l39.5827,39.5826a63.9454,63.9454,0,1,0,90.42,90.42L473.373,496H496V473.373L38.627,16ZM256,312a31.9791,31.9791,0,0,1-21.915-55.2881l45.1956,45.1957A31.8883,31.8883,0,0,1,256,312Z" class="cls-1"/>
</svg>
