<svg xmlns="http://www.w3.org/2000/svg" id="export" viewBox="0 0 512 512">
  <defs>
    <style>
      .cls-1{fill:currentColor}
    </style>
  </defs>
  <path d="M88,128A56,56,0,1,0,32,72,56.0629,56.0629,0,0,0,88,128Zm0-80A24,24,0,1,1,64,72,24.0275,24.0275,0,0,1,88,48Z" class="cls-1"/>
  <path d="M200,250.667a56,56,0,1,0-56-56A56.0629,56.0629,0,0,0,200,250.667Zm0-80a24,24,0,1,1-24,24A24.0275,24.0275,0,0,1,200,170.667Z" class="cls-1"/>
  <path d="M88,261.333a56,56,0,1,0,56,56A56.0629,56.0629,0,0,0,88,261.333Zm0,80a24,24,0,1,1,24-24A24.0275,24.0275,0,0,1,88,341.333Z" class="cls-1"/>
  <path d="M200,384a56,56,0,1,0,56,56A56.0629,56.0629,0,0,0,200,384Zm0,80a24,24,0,1,1,24-24A24.0275,24.0275,0,0,1,200,464Z" class="cls-1"/>
  <path d="M312,128a56,56,0,1,0-56-56A56.0629,56.0629,0,0,0,312,128Zm0-80a24,24,0,1,1-24,24A24.0275,24.0275,0,0,1,312,48Z" class="cls-1"/>
  <path d="M424,250.667a56,56,0,1,0-56-56A56.0629,56.0629,0,0,0,424,250.667Zm0-80a24,24,0,1,1-24,24A24.0275,24.0275,0,0,1,424,170.667Z" class="cls-1"/>
  <path d="M312,261.333a56,56,0,1,0,56,56A56.0629,56.0629,0,0,0,312,261.333Zm0,80a24,24,0,1,1,24-24A24.0275,24.0275,0,0,1,312,341.333Z" class="cls-1"/>
  <path d="M424,384a56,56,0,1,0,56,56A56.0629,56.0629,0,0,0,424,384Zm0,80a24,24,0,1,1,24-24A24.0275,24.0275,0,0,1,424,464Z" class="cls-1"/>
</svg>
