<svg xmlns="http://www.w3.org/2000/svg" id="export" viewBox="0 0 512 512">
  <defs>
    <style>
      .cls-1{fill:currentColor}
    </style>
  </defs>
  <path d="M353.4146,200l-30.98-57.8552-60.717-20.239-.1409.4317L167.21,149.3A32.1341,32.1341,0,0,0,144,180.0684V264h32V180.0693l73.5994-21.0285-32.5122,99.6327-.1551-.0553-29.4638,82.499a16.09,16.09,0,0,1-20.1275,9.7978L101.06,328.8213,90.94,359.1787l66.2813,22.0938a48,48,0,0,0,60.3823-29.3916l24.2318-67.8491,17.1728,5.6037L307.313,337.94A15.901,15.901,0,0,1,312,349.2549V456h32V349.2549a47.689,47.689,0,0,0-14.0591-33.9414l-48.2652-48.2649,26.7833-82.0767,19.2685,34.6834A24.013,24.013,0,0,0,348.707,232H432V200Z" class="cls-1"/>
  <path d="M286.8281,109.707a35.9962,35.9962,0,1,0-12.9159-27.6192A35.8487,35.8487,0,0,0,286.8281,109.707Z" class="cls-1"/>
</svg>
