<svg xmlns="http://www.w3.org/2000/svg" id="export" viewBox="0 0 512 512">
  <defs>
    <style>
      .cls-1{fill:currentColor}
    </style>
  </defs>
  <polygon points="80 304 112 304 112 208 152 208 152 176 40 176 40 208 80 208 80 304" class="cls-1"/>
  <polygon points="333.483 304 356 269.358 378.517 304 416.683 304 375.083 240 416.683 176 378.517 176 356 210.642 333.483 176 295.317 176 336.917 240 295.317 304 333.483 304" class="cls-1"/>
  <rect width="32" height="128" x="440" y="176" class="cls-1"/>
  <rect width="432" height="32" x="40" y="104" class="cls-1"/>
  <rect width="432" height="32" x="40" y="344" class="cls-1"/>
  <path d="M241.3376,280l8,24h33.7309L240.4019,176H194.4482L155.0089,304h33.4842l7.395-24ZM217.72,209.1465,230.6709,248H205.748Z" class="cls-1"/>
</svg>
