<svg xmlns="http://www.w3.org/2000/svg" id="export" viewBox="0 0 512 512">
  <defs>
    <style>
      .cls-1{fill:currentColor}
    </style>
  </defs>
  <polygon points="208 96 176 96 176 176 96 176 96 208 176 208 176 288 208 288 208 208 288 208 288 176 208 176 208 96" class="cls-1"/>
  <path d="M479.5977,400.4023l-81.084-81.0839L336.146,293.5513A175.0151,175.0151,0,0,0,368,192.6865c0-97.0469-78.9531-176-176-176S16,95.64,16,192.6865s78.9531,176,176,176a175.0313,175.0313,0,0,0,101.6189-32.3772l25.7,62.2044,81.0839,81.084a56,56,0,1,0,79.1954-79.1954ZM48,192.6865c0-79.4013,64.5986-144,144-144s144,64.5987,144,144-64.5986,144-144,144S48,272.0879,48,192.6865ZM456.9707,456.9707a24.0279,24.0279,0,0,1-33.9414,0L346.457,380.3984l-23.8935-57.8349,57.8349,23.8935,76.5723,76.5723A24.0279,24.0279,0,0,1,456.9707,456.9707Z" class="cls-1"/>
</svg>
