<svg xmlns="http://www.w3.org/2000/svg" id="export" viewBox="0 0 512 512">
  <defs>
    <style>
      .cls-1{fill:currentColor}
    </style>
  </defs>
  <path d="M360,128.1323l27.5405,27.5406A152.6473,152.6473,0,0,1,410.322,342.3184l23.1865,23.1865a184.6312,184.6312,0,0,0-23.3405-232.459L381.21,104.0879,464.0171,104l-.0342-32L328,72.1436V208h32Z" class="cls-1"/>
  <path d="M232.0278,104l-.0556-32a183.9783,183.9783,0,0,0-75.7649,16.3252l24.56,24.5605A152.6378,152.6378,0,0,1,232.0278,104Z" class="cls-1"/>
  <path d="M38.627,16H16V38.627L102.6332,125.26c-.2652.2617-.537.5141-.8007.7778a184.4958,184.4958,0,0,0-.0005,260.916L130.8776,416H48v32H184V312H152v79.8677l-27.54-27.5406a152.4973,152.4973,0,0,1,0-215.6621c.2639-.2641.5395-.5117.8051-.7734l241.12,241.12A151.4074,151.4074,0,0,1,279.9722,416l.0556,32a183.1209,183.1209,0,0,0,109.2869-36.0581L473.373,496H496V473.373Z" class="cls-1"/>
</svg>
