<svg xmlns="http://www.w3.org/2000/svg" id="export" viewBox="0 0 512 512">
  <defs>
    <style>
      .cls-1{fill:currentColor}
    </style>
  </defs>
  <path d="M472,96H384V40H352V96H160V40H128V96H40a24.0275,24.0275,0,0,0-24,24V456a24.0275,24.0275,0,0,0,24,24H472a24.0275,24.0275,0,0,0,24-24V120A24.0275,24.0275,0,0,0,472,96Zm-8,352H48V128h80v40h32V128H352v40h32V128h80Z" class="cls-1"/>
  <rect width="32" height="32" x="112" y="224" class="cls-1"/>
  <rect width="32" height="32" x="200" y="224" class="cls-1"/>
  <rect width="32" height="32" x="280" y="224" class="cls-1"/>
  <rect width="32" height="32" x="368" y="224" class="cls-1"/>
  <rect width="32" height="32" x="112" y="296" class="cls-1"/>
  <rect width="32" height="32" x="200" y="296" class="cls-1"/>
  <rect width="32" height="32" x="280" y="296" class="cls-1"/>
  <rect width="32" height="32" x="368" y="296" class="cls-1"/>
  <rect width="32" height="32" x="112" y="368" class="cls-1"/>
  <rect width="32" height="32" x="200" y="368" class="cls-1"/>
  <rect width="32" height="32" x="280" y="368" class="cls-1"/>
  <rect width="32" height="32" x="368" y="368" class="cls-1"/>
</svg>
