<svg xmlns="http://www.w3.org/2000/svg" viewBox="0 0 512 512">
  <path fill="currentColor" d="M503.7852,124.2539a432.02,432.02,0,0,0-495.57,0l-.2148.15v27.4375l32.9949,47.1218,0,0L237.7782,480h36.4436L471.0054,198.9639l0,0L504,151.8418V124.4043ZM189.87,355.7891,315.4912,163.6624a317.1718,317.1718,0,0,1,42.1836,10.9807L213.9677,390.2041Zm-19.771-28.2361-26.4525-37.7781L233.17,158.9321q11.3529-.8008,22.83-.8042,12.2034,0,24.2765.918Zm-46.0636-65.7857L85.7878,207.1445a317.9838,317.9838,0,0,1,104.5337-42.257ZM233.6692,418.3408l154.47-231.7048a320.5129,320.5129,0,0,1,38.0733,20.5085L256,450.2324Zm210.91-237.427a351.9478,351.9478,0,0,0-377.1581,0L39.856,141.5469a400.0394,400.0394,0,0,1,432.288,0Z"/>
</svg>
