<svg xmlns="http://www.w3.org/2000/svg" id="export" viewBox="0 0 512 512">
  <defs>
    <style>
      .cls-1{fill:currentColor}
    </style>
  </defs>
  <path d="M87.3711,18.2813a71.3706,71.3706,0,1,0,71.37,71.3706A71.4514,71.4514,0,0,0,87.3711,18.2813Zm0,110.7412a39.3706,39.3706,0,1,1,39.37-39.3706A39.4157,39.4157,0,0,1,87.3711,129.0225Z" class="cls-1"/>
  <path d="M274.3105,46.0391a59.4675,59.4675,0,1,0,59.4668,59.4677A59.5349,59.5349,0,0,0,274.3105,46.0391Zm0,86.935a27.4675,27.4675,0,1,1,27.4668-27.4673A27.4988,27.4988,0,0,1,274.3105,132.9741Z" class="cls-1"/>
  <circle cx="435.516" cy="115.386" r="29.637" class="cls-1"/>
  <path d="M87.3711,185.77a71.3706,71.3706,0,1,0,71.37,71.3706A71.4514,71.4514,0,0,0,87.3711,185.77Zm0,110.7412a39.3706,39.3706,0,1,1,39.37-39.3706A39.4156,39.4156,0,0,1,87.3711,296.5112Z" class="cls-1"/>
  <path d="M274.3105,197.6729a59.4675,59.4675,0,1,0,59.4668,59.4677A59.5349,59.5349,0,0,0,274.3105,197.6729Zm0,86.935a27.4675,27.4675,0,1,1,27.4668-27.4673A27.4988,27.4988,0,0,1,274.3105,284.6079Z" class="cls-1"/>
  <circle cx="435.516" cy="257.14" r="29.637" class="cls-1"/>
  <path d="M87.3711,353.2583a71.3709,71.3709,0,1,0,71.37,71.3711A71.4518,71.4518,0,0,0,87.3711,353.2583Zm0,110.7417a39.3709,39.3709,0,1,1,39.37-39.3706A39.4156,39.4156,0,0,1,87.3711,464Z" class="cls-1"/>
  <path d="M274.3105,349.3071a59.4673,59.4673,0,1,0,59.4668,59.4673A59.5345,59.5345,0,0,0,274.3105,349.3071Zm0,86.9346a27.4673,27.4673,0,1,1,27.4668-27.4673A27.4988,27.4988,0,0,1,274.3105,436.2417Z" class="cls-1"/>
  <circle cx="435.516" cy="398.896" r="29.637" class="cls-1"/>
</svg>
