<svg xmlns="http://www.w3.org/2000/svg" id="export" viewBox="0 0 512 512">
  <defs>
    <style>
      .cls-1{fill:currentColor}
    </style>
  </defs>
  <path d="M321.7783,147.5557v-32h-68V56h-32v59.5557s-34.53.2282-37.7158.625l31.375,31.375Z" class="cls-1"/>
  <path d="M38.627,16H16V38.627L128.353,150.98A78.1625,78.1625,0,0,0,193.7783,272H249.373l67.2051,67.2051A46.2872,46.2872,0,0,1,273.7783,368H136v32h85.7783v56h32V400h20a78.2137,78.2137,0,0,0,66.4971-37.0977L473.373,496H496V473.373ZM193.7783,240a46.206,46.206,0,0,1-41.9712-65.5659L217.373,240Z" class="cls-1"/>
</svg>
