<svg xmlns="http://www.w3.org/2000/svg" id="export" viewBox="0 0 512 512">
  <defs>
    <style>
      .cls-1{fill:currentColor}
    </style>
  </defs>
  <path d="M472,112h-89.2L366.55,65.25a32,32,0,0,0-30.23-21.5H175.24A32,32,0,0,0,145,65.44L129.1,112H40a24,24,0,0,0-24,24V448a24,24,0,0,0,24,24H472a24,24,0,0,0,24-24V136A24,24,0,0,0,472,112Zm-8,328H48V144H152l23.22-68.25H336.32L360,144H464Z" class="cls-1"/>
  <path d="M256,168A114,114,0,1,0,370,282,114.13,114.13,0,0,0,256,168Zm0,196a82,82,0,1,1,82-82A82.1,82.1,0,0,1,256,364Z" class="cls-1"/>
</svg>
