<svg xmlns="http://www.w3.org/2000/svg" id="export" viewBox="0 0 512 512">
  <defs>
    <style>
      .cls-1{fill:currentColor}
    </style>
  </defs>
  <path d="M256,16C123.4517,16,16,123.4517,16,256S123.4517,496,256,496,496,388.5483,496,256,388.5483,16,256,16ZM403.0781,403.0781a207.2482,207.2482,0,1,1,44.5894-66.125A207.3468,207.3468,0,0,1,403.0781,403.0781Z" class="cls-1"/>
  <polygon points="256 212.473 189.02 118.7 162.98 137.3 242.052 248 240 248 176 248 176 280 240 280 240 312 176 312 176 344 240 344 240 400 272 400 272 344 336 344 336 312 272 312 272 280 336 280 336 248 272 248 269.948 248 349.02 137.3 322.98 118.7 256 212.473" class="cls-1"/>
</svg>
