<svg xmlns="http://www.w3.org/2000/svg" viewBox="0 0 512 512">
  <path fill="currentColor" d="M393.3042,161.33,334.5322,76.438a48.0918,48.0918,0,0,0-38.7749-20.6734L184.23,54.1616,184,54.16c-57.5786,0-101.7568,9.6308-130.21,56.6342C27.3018,154.5513,16,229.08,16,360v16H52.5573L29.0242,496h32.61l23.533-120H96a99.5245,99.5245,0,0,0,70.0884-27.9917c16.9785-16.2466,29.2261-38.4722,35.4184-64.2744l.0557-.2319L229.0057,152H196.3162L170.3369,276.4878C162.4248,309.1685,138.7656,344,96,344H48.06c.8686-113.2656,11.1821-180.4189,33.1049-216.6343C99.5688,96.9634,126.46,86.1748,183.8892,86.16l111.4082,1.6015a16.0286,16.0286,0,0,1,12.9248,6.8911L374.6958,190.67,464,205.5542v16.9585l-14.8916,79.4214c-4.395,23.4409-11.9082,35.2485-42.7183,38.95L280.084,362.4927,279.2489,496h32l.6667-106.4927,98.7-16.9013c22.3594-2.7491,38.8565-9.9551,50.4253-22.023,9.89-10.3179,15.91-23.5029,19.519-42.7519L496,225.4873V178.4458Z"/>
</svg>
