<svg xmlns="http://www.w3.org/2000/svg" viewBox="0 0 512 512">
  <defs>
    <style>
      .a{fill:currentColor}
    </style>
  </defs>
  <path d="M484.1411,124.4248l-.6836-.4268L396.8652,81.3359,303.4019,205.9531,346.4038,263.29A88.5282,88.5282,0,0,1,263.29,346.4043l-57.336-43.002L81.3359,396.8652,123.998,483.459l.4278.6846A25.0852,25.0852,0,0,0,145.8188,496h22.3448A327.8371,327.8371,0,0,0,496,168.1631V145.8184A25.0809,25.0809,0,0,0,484.1411,124.4248ZM464,168.1631C464,331.2881,331.2886,464,168.1636,464h-18.08l-28.3106-57.4629,84.18-63.1348,46.8657,35.1495h5.3335A120.5349,120.5349,0,0,0,378.5513,258.1533V252.82l-35.1494-46.8672,63.1352-84.18L464,150.084Z" class="a"/>
  <path d="M128,16H32V224h96ZM96,192H64V48H96Z" class="a"/>
  <path d="M256,16H160V224h96ZM224,192H192V48h32Z" class="a"/>
</svg>
