<svg xmlns="http://www.w3.org/2000/svg" id="export" viewBox="0 0 512 512">
  <defs>
    <style>
      .cls-1{fill:currentColor}
    </style>
  </defs>
  <path d="M432,64H16V384H432ZM400,352H48V96H400Z" class="cls-1"/>
  <polygon points="464 144 464 416 96 416 96 448 496 448 496 144 464 144" class="cls-1"/>
  <path d="M224,302.46c39.7012,0,72-35.1368,72-78.3262s-32.2988-78.3262-72-78.3262-72,35.1367-72,78.3262S184.2988,302.46,224,302.46Zm0-124.6524c22.0557,0,40,20.7822,40,46.3262S246.0557,270.46,224,270.46s-40-20.7823-40-46.3262S201.9443,177.8076,224,177.8076Z" class="cls-1"/>
  <rect width="32" height="176" x="80" y="136" class="cls-1"/>
  <rect width="32" height="176" x="336" y="136" class="cls-1"/>
</svg>
