<svg xmlns="http://www.w3.org/2000/svg" viewBox="0 0 512 512">
  <path fill="currentColor" d="M448,242.0253V152a48.0543,48.0543,0,0,0-48-48H112a48.0543,48.0543,0,0,0-48,48v90.0253A64.115,64.115,0,0,0,16,304V416a32.0361,32.0361,0,0,0,32,32H64v48H96V448H416v48h32V448h16a32.0361,32.0361,0,0,0,32-32V304A64.115,64.115,0,0,0,448,242.0253ZM112,416H48V304a32,32,0,0,1,64,0Zm256,0H144V320H368Zm2.0254-128H141.9746A64.24,64.24,0,0,0,96,242.0253V152a16.0183,16.0183,0,0,1,16-16H400a16.0183,16.0183,0,0,1,16,16v90.0253A64.24,64.24,0,0,0,370.0254,288ZM464,416H400V304a32,32,0,0,1,64,0l.02,111.999Z"/>
</svg>
