<svg xmlns="http://www.w3.org/2000/svg" viewBox="0 0 512 512">
  <path fill="currentColor" d="M450.27,348.5693l-43.6709-80.624V184c0-83.8135-68.1865-152-152-152s-152,68.1865-152,152v83.9453L58.9281,348.5684A24,24,0,0,0,80.0306,384h86.9358c-.2385,2.6359-.3674,5.303-.3674,8a88,88,0,0,0,176,0c0-2.697-.1289-5.3641-.3674-8h86.9358A23.9991,23.9991,0,0,0,450.27,348.5693ZM310.599,392A56,56,0,1,1,199.18,384H310.0184A56.1762,56.1762,0,0,1,310.599,392ZM93.4623,352l41.1367-75.9453V184a120,120,0,0,1,240,0v92.0547L415.7357,352Z"/>
</svg>
