<svg xmlns="http://www.w3.org/2000/svg" id="export" viewBox="0 0 512 512">
  <defs>
    <style>
      .cls-1{fill:currentColor}
    </style>
  </defs>
  <path d="M239.964,262.6579h72v-32h-72V177.3053a35.6477,35.6477,0,0,1,71.2954,0h32a67.6477,67.6477,0,0,0-135.2954,0v53.3526h-48v32h48v79.9345h-48v32h184v-32h-104Z" class="cls-1"/>
  <path d="M256,14.6579c-132.5483,0-240,107.4516-240,240s107.4517,240,240,240,240-107.4517,240-240S388.5484,14.6579,256,14.6579ZM403.0783,401.736a207.25,207.25,0,1,1,44.5891-66.125A207.3452,207.3452,0,0,1,403.0783,401.736Z" class="cls-1"/>
</svg>
