<svg xmlns="http://www.w3.org/2000/svg" id="export" viewBox="0 0 512 512">
  <defs>
    <style>
      .cls-1{fill:currentColor}
    </style>
  </defs>
  <path d="M448,184H384V352h32V296h32a40.0455,40.0455,0,0,0,40-40V224A40.0451,40.0451,0,0,0,448,184Zm8,72a8.0092,8.0092,0,0,1-8,8H416V216h32a8.0092,8.0092,0,0,1,8,8Z" class="cls-1"/>
  <polygon points="152 216 184 216 184 352 216 352 216 216 248 216 248 184 152 184 152 216" class="cls-1"/>
  <polygon points="264 216 296 216 296 352 328 352 328 216 360 216 360 184 264 184 264 216" class="cls-1"/>
  <polygon points="96 256 56 256 56 184 24 184 24 352 56 352 56 288 96 288 96 352 128 352 128 184 96 184 96 256" class="cls-1"/>
</svg>
