<svg xmlns="http://www.w3.org/2000/svg" id="export" viewBox="0 0 512 512">
  <defs>
    <style>
      .cls-1{fill:currentColor}
    </style>
  </defs>
  <polygon points="246.132 152 212.154 152 169.296 272 233.801 272 201.801 368 235.532 368 278.199 240 214.704 240 246.132 152" class="cls-1"/>
  <path d="M432,176V119.59A23.8248,23.8248,0,0,0,408,96H39.9863a23.8248,23.8248,0,0,0-24,23.59V400.41a23.8244,23.8244,0,0,0,24,23.59H408a23.8244,23.8244,0,0,0,24-23.59V344h64V176Zm32,136H400v80H47.9863V128H400v80h64Z" class="cls-1"/>
</svg>
