<svg xmlns="http://www.w3.org/2000/svg" id="export" viewBox="0 0 512 512">
  <defs>
    <style>
      .cls-1{fill:currentColor}
    </style>
  </defs>
  <path d="M382.8252,304.5762a131.5624,131.5624,0,0,0-253.65,0l-18.248,66.1494A80,80,0,0,0,188.0459,472H323.9541a80,80,0,0,0,77.1191-101.2744ZM362.1426,421.08A47.6354,47.6354,0,0,1,323.9541,440H188.0459a48,48,0,0,1-46.2715-60.7646l18.2481-66.15a99.5625,99.5625,0,0,1,191.955,0l18.2481,66.15A47.6333,47.6333,0,0,1,362.1426,421.08Z" class="cls-1"/>
  <path d="M146.0957,230.31c2.7842-17.3955-.9082-36.0269-10.3975-52.4624S111.92,148.8979,95.4629,142.6113c-17.624-6.7314-35.6045-5.66-50.6338,3.0171-29.8867,17.2554-37.752,59.7842-17.5332,94.8047,9.4893,16.436,23.7783,28.95,40.2354,35.2358A64.0428,64.0428,0,0,0,90.3936,280.04a55.1313,55.1313,0,0,0,27.7714-7.3886C133.1943,263.9741,143.1143,248.937,146.0957,230.31ZM114.498,225.252c-1.43,8.9287-5.8095,15.92-12.333,19.6865s-14.7685,4.063-23.2148.8369c-9.6133-3.6719-18.1152-11.2515-23.9414-21.3423-11.2031-19.4048-8.5381-42.8022,5.82-51.0918a23.4771,23.4771,0,0,1,11.8467-3.0581,31.9409,31.9409,0,0,1,11.3681,2.2212c9.6133,3.6724,18.1153,11.2519,23.9415,21.3428S116.124,215.0908,114.498,225.252Z" class="cls-1"/>
  <path d="M149.5664,164.0171c11.3613,9.083,24.3369,13.8125,37.458,13.812a54.95,54.95,0,0,0,11.6885-1.2612c33.7226-7.3306,54.17-45.4424,45.58-84.9575v0c-4.03-18.5454-13.8282-34.8169-27.5879-45.8178-14.7354-11.78-32.1895-16.2393-49.1475-12.5513-33.7217,7.3306-54.1689,45.4419-45.58,84.9575C126.0088,136.7446,135.8066,153.0161,149.5664,164.0171Zm24.7881-99.5059a22.26,22.26,0,0,1,4.7314-.5053c5.9483,0,12.0664,2.3276,17.6368,6.7807,8.0371,6.4258,13.8261,16.2349,16.3007,27.6211v0c4.76,21.895-4.9062,43.3682-21.1074,46.89-7.3613,1.6-15.3047-.6284-22.3672-6.2749-8.0371-6.4262-13.8261-16.2358-16.3017-27.6215C148.4883,89.5063,158.1543,68.0332,174.3545,64.5112Z" class="cls-1"/>
  <path d="M467.1709,145.6284c-15.0283-8.6767-33.0127-9.7485-50.6338-3.0171-16.457,6.2866-30.7461,18.8-40.2353,35.2359S363.12,212.9141,365.9043,230.31c2.9814,18.6274,12.9014,33.6645,27.9307,42.3418a55.1262,55.1262,0,0,0,27.7714,7.3886,64.0505,64.0505,0,0,0,22.8624-4.3711c16.457-6.2861,30.746-18.8,40.2353-35.2358C504.9229,205.4126,497.0576,162.8838,467.1709,145.6284Zm-10.18,78.8047c-5.8262,10.0908-14.3281,17.67-23.9414,21.3423-8.4463,3.228-16.6914,2.93-23.2148-.8369s-10.9034-10.7578-12.333-19.6865c-1.626-10.1612.6865-21.314,6.5126-31.4048s14.3282-17.67,23.9415-21.3428a31.9451,31.9451,0,0,1,11.3681-2.2212,23.4771,23.4771,0,0,1,11.8467,3.0581C465.5293,181.6309,468.1943,205.0283,456.9912,224.4331Z" class="cls-1"/>
  <path d="M313.2871,176.5679a54.95,54.95,0,0,0,11.6885,1.2612c13.12,0,26.0976-4.73,37.458-13.812,13.76-11.001,23.5576-27.2725,27.5889-45.8184,8.5888-39.5151-11.8584-77.6264-45.58-84.957-16.957-3.6855-34.4121.77-49.1475,12.5513-13.76,11.0009-23.5576,27.2724-27.5879,45.8174C259.1172,131.1255,279.5645,169.2373,313.2871,176.5679Zm-14.31-78.16v0c2.4746-11.3862,8.2636-21.1953,16.3007-27.6211,5.5713-4.4536,11.6885-6.7807,17.6368-6.7807a22.26,22.26,0,0,1,4.7314.5053c16.2,3.522,25.8662,24.9951,21.1074,46.89-2.4756,11.3862-8.2646,21.1958-16.3017,27.622-7.0616,5.6455-15.001,7.8741-22.3672,6.2749C303.8828,141.7764,294.2168,120.3032,298.9766,98.4082Z" class="cls-1"/>
</svg>
