<svg xmlns="http://www.w3.org/2000/svg" id="export" viewBox="0 0 512 512">
  <defs>
    <style>
      .cls-1{fill:currentColor}
    </style>
  </defs>
  <path d="M374.9058,253.877l11.36-10.3277L276.355,122.6465H207.8628l-44.2774,28.7524A60.3652,60.3652,0,0,0,136,202.2041V274h32V202.2041a28.4766,28.4766,0,0,1,13.0132-23.9673L208,160.7125v93.8357L313.701,474.9288h32.9421L272.7144,315.6976V166.2136l74.6273,82.09L429.751,474.9288h25.5371Z" class="cls-1"/>
  <path d="M214.6952,96.8613a34.0809,34.0809,0,1,0-10.8707-24.9491A33.96,33.96,0,0,0,214.6952,96.8613Z" class="cls-1"/>
  <polygon points="132.796 474.929 167.261 474.929 224.775 331.144 205.982 291.963 132.796 474.929" class="cls-1"/>
</svg>
