<svg xmlns="http://www.w3.org/2000/svg" id="export" viewBox="0 0 512 512">
  <defs>
    <style>
      .cls-1{fill:currentColor}
    </style>
  </defs>
  <path d="M472,111.7319H368.7681V16h-224l0,95.7319H42A24.7961,24.7961,0,0,0,17.2319,136.5V470.5327A24.7961,24.7961,0,0,0,42,495.3008H472a24.7961,24.7961,0,0,0,24.7681-24.7681V136.5A24.7961,24.7961,0,0,0,472,111.7319ZM176.7681,48h160v63.7319H176.7686ZM463.2319,461.7646H50.7681V145.2681H463.2319Z" class="cls-1"/>
  <polygon points="228.916 396.686 251.544 419.313 365.225 305.633 251.544 191.952 228.916 214.58 303.97 289.633 152 289.633 152 321.633 303.97 321.633 228.916 396.686" class="cls-1"/>
</svg>
