<svg xmlns="http://www.w3.org/2000/svg" id="export" viewBox="0 0 512 512">
  <defs>
    <style>
      .cls-1{fill:currentColor}
    </style>
  </defs>
  <path d="M304,176H192a24,24,0,0,0-24,24V470.67a24,24,0,0,0,24,24H304a24,24,0,0,0,24-24V200A24,24,0,0,0,304,176Zm-8,286.67H200V208h96Z" class="cls-1"/>
  <rect width="32" height="32" x="232" y="240" class="cls-1"/>
  <path d="M146.22,138.22l22.62,22.62a111.83,111.83,0,0,1,158.32,0l22.62-22.62a143.79,143.79,0,0,0-203.56,0Z" class="cls-1"/>
  <path d="M248,32A207.36,207.36,0,0,0,101,93l22.62,22.62a175.71,175.71,0,0,1,248.78,0L395,93A207.36,207.36,0,0,0,248,32Z" class="cls-1"/>
</svg>
