<svg xmlns="http://www.w3.org/2000/svg" id="export" viewBox="0 0 512 512">
  <defs>
    <style>
      .cls-1{fill:currentColor}
    </style>
  </defs>
  <rect width="108.001" height="32" x="274.777" y="168.527" class="cls-1" transform="rotate(-45 328.777 184.527)"/>
  <path d="M287.7646,78.46A104,104,0,0,1,434.8428,225.5391L364.1318,296.25l22.627,22.6272L457.47,248.1665a136,136,0,1,0-192.332-192.333l-70.7112,70.7113,22.627,22.627Z" class="cls-1"/>
  <path d="M16,16V38.627L149.1724,171.7992,55.834,265.1377A135.9993,135.9993,0,1,0,248.166,457.47l93.3384-93.3382L473.373,496H496V473.373L38.627,16ZM234.0249,256.6519,129.373,361.3037,152,383.9307,256.6521,279.2791l62.2253,62.2253-93.3383,93.3384A104,104,0,1,1,78.4609,287.7646l93.3384-93.3385Z" class="cls-1"/>
</svg>
