<svg xmlns="http://www.w3.org/2000/svg" id="export" viewBox="0 0 512 512">
  <defs>
    <style>
      .cls-1{fill:currentColor}
    </style>
  </defs>
  <path d="M277.1393,85.4143l-8.4288,31.021A154.4934,154.4934,0,0,1,394.2664,236.3912l31.9209-3.6045A186.5883,186.5883,0,0,0,277.1393,85.4143Z" class="cls-1"/>
  <path d="M422.0605,89.94A250.6776,250.6776,0,0,0,294.6017,21.1462l-8.4243,31.0044c88.46,17.4005,158.1077,87.8738,174.2668,176.7677l31.9043-3.6026A250.5936,250.5936,0,0,0,422.0605,89.94Z" class="cls-1"/>
  <path d="M233.106,148.7529q-1.5761-.0215-3.1462-.004A124.0829,124.0829,0,0,0,107.0225,272.83h32.2368a92.0916,92.0916,0,0,1,91.0616-92.085c.7-.0052,1.401-.005,2.1034.0054,49.729.69,90.45,41.7217,90.7739,91.4653a91.233,91.233,0,0,1-28.6206,67.3311,24.0214,24.0214,0,0,0-7.4072,17.333v50.686A56.4984,56.4984,0,0,1,230.7358,464h-8.6323v32h8.8692a88.5345,88.5345,0,0,0,88.4345-88.4346V360.2471a124.6142,124.6142,0,0,0,36.0269-88.24A124.4373,124.4373,0,0,0,233.106,148.7529Z" class="cls-1"/>
  <path d="M283.1406,272.83a52.03,52.03,0,1,0-104.0591,0h32a20.03,20.03,0,1,1,40.0591,0Z" class="cls-1"/>
  <rect width="32" height="32" x="216" y="304" class="cls-1"/>
  <rect width="32" height="32" x="112" y="408" class="cls-1"/>
  <rect width="31.999" height="124.451" x="162.963" y="310.812" class="cls-1" transform="rotate(-45 178.963 373.037)"/>
</svg>
