<svg xmlns="http://www.w3.org/2000/svg" id="export" viewBox="0 0 512 512">
  <defs>
    <style>
      .cls-1{fill:currentColor}
    </style>
  </defs>
  <path d="M358.6274,16H72V240H16V496H496V153.3726ZM464,166.6274V168H344V48h1.3726ZM48,464V272H464V464Zm56-224V48H312V200H464v40Z" class="cls-1"/>
  <path d="M148.5,304H100V432h32V400h16.5A47.554,47.554,0,0,0,196,352.5v-1A47.554,47.554,0,0,0,148.5,304ZM164,352.5A15.5173,15.5173,0,0,1,148.5,368H132V336h16.5A15.5173,15.5173,0,0,1,164,351.5Z" class="cls-1"/>
  <polygon points="340 432 372 432 372 392 404 392 404 360 372 360 372 336 420 336 420 304 340 304 340 432" class="cls-1"/>
  <path d="M259.8335,304H212V432h47.8335A56.23,56.23,0,0,0,316,375.8335v-15.667A56.23,56.23,0,0,0,259.8335,304ZM284,375.8335A24.1936,24.1936,0,0,1,259.8335,400H244V336h15.8335A24.1936,24.1936,0,0,1,284,360.1665Z" class="cls-1"/>
</svg>
