<svg xmlns="http://www.w3.org/2000/svg" id="export" viewBox="0 0 512 512">
  <defs>
    <style>
      .cls-1{fill:currentColor}
    </style>
  </defs>
  <path d="M427.8574,355.6875a201.5212,201.5212,0,0,0,47.0659-57.5361A171.1715,171.1715,0,0,0,496,216c0-54.0254-25.3755-104.6221-71.4521-142.4717C379.3848,36.4307,319.5269,16,256,16S132.6152,36.4307,87.4521,73.5283C41.3755,111.3779,16,161.9746,16,216S41.3755,320.6221,87.4521,358.4717C132.6152,395.5693,192.4731,416,256,416c9.3765,0,18.814-.459,28.1479-1.3662l16.8272,14.584A273.3867,273.3867,0,0,0,480,496h16V457.373l-4.6865-4.6865A285.2163,285.2163,0,0,1,427.8574,355.6875ZM321.9331,405.0361l-27.4775-23.8144-7.0552.8652A259.02,259.02,0,0,1,256,384C141.3086,384,48,308.6357,48,216S141.3086,48,256,48s208,75.3643,208,168c0,46.43-23.0371,89.6777-64.8682,121.7783l-9.208,7.0664,3.8589,10.9463.5366,1.5225a317.4978,317.4978,0,0,0,62.6167,105.582A241.3738,241.3738,0,0,1,321.9331,405.0361Z" class="cls-1"/>
  <rect width="32" height="32" x="144" y="216" class="cls-1"/>
  <rect width="32" height="32" x="240" y="216" class="cls-1"/>
  <rect width="32" height="32" x="336" y="216" class="cls-1"/>
</svg>
