<svg xmlns="http://www.w3.org/2000/svg" viewBox="0 0 512 512">
  <path fill="currentColor" d="M482.6489,31.03a48.6679,48.6679,0,0,0-65.7075-3.6016L185.407,219.2986c-1.7113-.0772-3.4212-.13-5.1243-.13a.2064.2064,0,0,1-.0249,0A113.8787,113.8787,0,0,0,71.7856,297.8252L18.3022,461.3867A26.8723,26.8723,0,0,0,43.771,496.5986a27,27,0,0,0,8.3984-1.3447l163.562-53.4824a113.8781,113.8781,0,0,0,78.6563-108.4756v-.001c0-2.5179-.0947-5.0476-.2622-7.5744L485.1187,95.668A48.372,48.372,0,0,0,482.6489,31.03ZM205.7861,411.3555,51.8726,461.6836l50.3281-153.9131a81.9476,81.9476,0,0,1,78.06-56.6025c2.2715,0,4.5591.0957,6.8414.2851l75.0009,75.001c.19,2.2813.2847,4.5684.2847,6.8418A81.9469,81.9469,0,0,1,205.7861,411.3555ZM460.4976,75.2266,277.3823,295.791,216.6,235.0088,437.3594,52.0674a16.44,16.44,0,0,1,23.1382,23.1592Z"/>
</svg>
