<svg xmlns="http://www.w3.org/2000/svg" id="export" viewBox="0 0 512 512">
  <defs>
    <style>
      .cls-1{fill:currentColor}
    </style>
  </defs>
  <path d="M412.0542,161.6611l-30.4-103.207a36.8729,36.8729,0,0,0-44.312-25.3535l-118.6411,29.66L180.8823,37.5479a33.0324,33.0324,0,0,0-50.01,18.1513L99.6614,161.6611,16,233.37v46.9238H495.7153V233.37ZM161.5688,64.74a1.0686,1.0686,0,0,1,1.5621-.5673L212.73,97.2393l132.376-33.0948a4.8736,4.8736,0,0,1,5.8525,3.3506L375.8491,152H135.8667ZM463.7153,248.2939H48v-.205l72.3926-62.0508H391.3232l72.3921,62.0508Z" class="cls-1"/>
  <path d="M372.873,309.6846A93.1317,93.1317,0,0,0,295.8708,350.47a82.4212,82.4212,0,0,0-80.947-.917,92.7274,92.7274,0,1,0,13.6,29.0977,50.3692,50.3692,0,0,1,54.0581,1.23,93.1625,93.1625,0,1,0,90.2915-70.1958ZM138.5576,464a61.1577,61.1577,0,1,1,61.1577-61.1582A61.2276,61.2276,0,0,1,138.5576,464Zm234.3154,0a61.1577,61.1577,0,1,1,61.1583-61.1582A61.2272,61.2272,0,0,1,372.873,464Z" class="cls-1"/>
</svg>
