<svg xmlns="http://www.w3.org/2000/svg" id="export" viewBox="0 0 512 512">
  <defs>
    <style>
      .cls-1{fill:currentColor}
    </style>
  </defs>
  <path d="M224,160H176V48H144V160H96V48H64V172c0,45.5049,34.6553,83.3933,80,90.7151V472h32V262.7151c45.3447-7.3218,80-45.21,80-90.7151V48H224Zm-64,72c-27.8113,0-51.5237-16.7219-60.33-40H220.33C211.5237,215.2781,187.8113,232,160,232Z" class="cls-1"/>
  <path d="M413.5674,40.1865A138.65,138.65,0,0,0,296,177.2236V344H400V472h32V37.3506ZM400,312H328V177.2236a105.9852,105.9852,0,0,1,72-100.91Z" class="cls-1"/>
</svg>
