<svg xmlns="http://www.w3.org/2000/svg" id="export" viewBox="0 0 512 512">
  <defs>
    <style>
      .cls-1{fill:currentColor}
    </style>
  </defs>
  <path d="M464,88H48a32.0364,32.0364,0,0,0-32,32V392a32.0364,32.0364,0,0,0,32,32H464a32.0364,32.0364,0,0,0,32-32V120A32.0364,32.0364,0,0,0,464,88Zm-80,32V392.0039l-256,.0127V120ZM48,392V120H96V392.0181l-47.999.0024Zm416,0-48,.0024V120h48Z" class="cls-1"/>
  <path d="M172,283.9355a84,84,0,1,0,168,0v-58.873H312.5v-24.748a56.3132,56.3132,0,0,0-56.249-56.25H252.25a56.3133,56.3133,0,0,0-56.25,56.25v24.748H172Zm136,0a52,52,0,1,1-104,0v-26.873H308Zm-80-83.621a24.2775,24.2775,0,0,1,24.25-24.25h4.0015a24.2771,24.2771,0,0,1,24.249,24.25v24.748H228Z" class="cls-1"/>
</svg>
