<svg xmlns="http://www.w3.org/2000/svg" id="export" viewBox="0 0 512 512">
  <defs>
    <style>
      .cls-1{fill:currentColor}
    </style>
  </defs>
  <path d="M435.918,86.1748,420.811,16H388.0781l16.3325,75.868a56.0028,56.0028,0,1,0,11.4849,98.1232c.0625,3.2384.1045,6.4768.1045,9.7144V436a28,28,0,0,1-56,0V300a60.0681,60.0681,0,0,0-60-60H280V96a48.0547,48.0547,0,0,0-48-48H64A48.0547,48.0547,0,0,0,16,96V496H280V272h20a28.0314,28.0314,0,0,1,28,28V436a60,60,0,0,0,120,0V199.7056A540.4644,540.4644,0,0,0,435.918,86.1748ZM384,168a24,24,0,1,1,24-24A24.0272,24.0272,0,0,1,384,168ZM248,464H48V96A16.0183,16.0183,0,0,1,64,80H232a16.0183,16.0183,0,0,1,16,16Z" class="cls-1"/>
  <polygon points="155.517 184 122.883 184 100.483 296 148.208 296 131.065 376 163.792 376 187.792 264 139.517 264 155.517 184" class="cls-1"/>
</svg>
