<svg xmlns="http://www.w3.org/2000/svg" viewBox="0 0 512 512">
  <path fill="currentColor" d="M435.918,86.1748,420.8109,16h-32.733l16.3327,75.868a56.0029,56.0029,0,1,0,11.4848,98.1231c.0624,3.2385.1046,6.4769.1046,9.7145V436a28,28,0,0,1-56,0V300a60.0681,60.0681,0,0,0-60-60H280V96a48.0543,48.0543,0,0,0-48-48H64A48.0543,48.0543,0,0,0,16,96V496H280V272h20a28.0314,28.0314,0,0,1,28,28V436a60,60,0,0,0,120,0V199.7056A540.4313,540.4313,0,0,0,435.918,86.1748ZM384,168a24,24,0,1,1,24-24A24.0269,24.0269,0,0,1,384,168ZM64,80H232a16.0183,16.0183,0,0,1,16,16v80H48V96A16.0183,16.0183,0,0,1,64,80ZM48,464V208H248V464Z"/>
</svg>
