<svg xmlns="http://www.w3.org/2000/svg" id="export" viewBox="0 0 512 512">
  <defs>
    <style>
      .cls-1{fill:currentColor}
    </style>
  </defs>
  <rect width="240" height="32" x="256" y="416" class="cls-1"/>
  <rect width="240" height="32" x="256" y="309.333" class="cls-1"/>
  <rect width="240" height="32" x="256" y="202.667" class="cls-1"/>
  <rect width="168" height="32" x="328" y="96" class="cls-1"/>
  <path d="M48,272c0-79.4019,50.7954-144,113.231-144h5.9653v69.2275l134.8-86.2255-134.8-83.7857V96H161.231C121.7827,96,84.91,114.7549,57.4038,148.81,30.7041,181.8662,16,225.6162,16,272s14.7041,90.1338,41.4038,123.19C84.91,429.2451,121.7827,448,161.231,448H216V416H161.231C98.7954,416,48,351.4014,48,272ZM199.1963,84.7837l42.8071,26.6069-42.8071,27.3819Z" class="cls-1"/>
</svg>
