<svg xmlns="http://www.w3.org/2000/svg" id="export" viewBox="0 0 512 512">
  <defs>
    <style>
      .cls-1{fill:currentColor}
    </style>
  </defs>
  <path d="M472,112h-89.2L366.55,65.25a32,32,0,0,0-30.23-21.5H175.24A32,32,0,0,0,145,65.44L134.55,96h33.8l6.89-20.25H336.32L360,144H464V440H48V232H16V448a24,24,0,0,0,24,24H472a24,24,0,0,0,24-24V136A24,24,0,0,0,472,112Z" class="cls-1"/>
  <path d="M256,396A114,114,0,1,0,142,282,114.13,114.13,0,0,0,256,396Zm0-196a82,82,0,1,1-82,82A82.1,82.1,0,0,1,256,200Z" class="cls-1"/>
  <polygon points="72 216 104 216 104 160 160 160 160 152 160 128 104 128 104 96 104 72 72 72 72 128 16 128 16 160 72 160 72 216" class="cls-1"/>
</svg>
