<svg xmlns="http://www.w3.org/2000/svg" id="export" viewBox="0 0 512 512">
  <defs>
    <style>
      .cls-1{fill:currentColor}
    </style>
  </defs>
  <path d="M256,16C123.4517,16,16,123.4517,16,256S123.4517,496,256,496,496,388.5483,496,256,388.5483,16,256,16ZM403.0782,403.0781a207.25,207.25,0,1,1,44.5892-66.125A207.3457,207.3457,0,0,1,403.0782,403.0781Z" class="cls-1"/>
  <path d="M149.62,208H104v32h37.0349a140.11,140.11,0,0,0,0,40H104v32h45.62A140.2214,140.2214,0,0,0,279.6,400H330V368H279.6a108.0833,108.0833,0,0,1-94.6307-56H304V280H173.4642a108.2224,108.2224,0,0,1,0-40H304V208H184.9694A108.0833,108.0833,0,0,1,279.6,152H330V120H279.6A140.2214,140.2214,0,0,0,149.62,208Z" class="cls-1"/>
</svg>
