<svg xmlns="http://www.w3.org/2000/svg" id="export" viewBox="0 0 512 512">
  <defs>
    <style>
      .cls-1{fill:currentColor}
    </style>
  </defs>
  <path d="M427.8579,355.6875a201.5244,201.5244,0,0,0,47.0654-57.5366,170.6479,170.6479,0,0,0,7.5841-148.6583l-24.9517,24.9518A137.4432,137.4432,0,0,1,464,216c0,46.4292-23.0371,89.6777-64.8682,121.7783l-9.2089,7.0674,4.395,12.4634.0014.0039A317.4966,317.4966,0,0,0,456.936,462.8955a241.3773,241.3773,0,0,1-135.0029-57.8594l-27.4775-23.8144-7.0552.8652A259.02,259.02,0,0,1,256,384C141.3086,384,48,308.6357,48,216S141.3086,48,256,48a252.7632,252.7632,0,0,1,63.8831,8.117l25.7631-25.7633A282.6825,282.6825,0,0,0,256,16C192.4731,16,132.6152,36.4307,87.4521,73.5288,41.3755,111.3774,16,161.9746,16,216S41.3755,320.6226,87.4521,358.4712C132.6152,395.5693,192.4731,416,256,416c9.3765,0,18.814-.4585,28.1479-1.3662l16.8272,14.584A273.3867,273.3867,0,0,0,480,496h16V457.3726l-4.6865-4.6861A285.2066,285.2066,0,0,1,427.8579,355.6875Z" class="cls-1"/>
  <path d="M223.8276,259.3374l-.145.6777a17.3417,17.3417,0,0,0,20.3023,20.3023L328.7334,260.25,470.3989,118.584a60.092,60.092,0,1,0-84.9824-84.9834L243.75,175.2666Zm48.9673-67.8608L408.0439,56.228A28.0922,28.0922,0,0,1,447.772,95.9565L312.5234,231.2051l-52.0669,12.3384Z" class="cls-1"/>
</svg>
