<svg xmlns="http://www.w3.org/2000/svg" id="export" viewBox="0 0 512 512">
  <defs>
    <style>
      .cls-1{fill:currentColor}
    </style>
  </defs>
  <path d="M256.16,72.0029c65.3027.46,118.7451,53.9644,119.1308,119.27A120.1286,120.1286,0,0,1,342.13,274.817l22.6311,22.6311A152.1456,152.1456,0,0,0,407.291,191.083c-.49-82.7226-68.1855-150.4966-150.9062-151.0791A150.7667,150.7667,0,0,0,149.8491,82.536l22.6284,22.6282A119.2436,119.2436,0,0,1,256.16,72.0029Z" class="cls-1"/>
  <path d="M359.293,337.2346h0l-32-32h0l-83.9937-83.9935-42.29-42.29h0l-24.843-24.843h0L38.0581,16H15.293V38.4892l98.2937,98.2935A151.9225,151.9225,0,0,0,103.293,192v32h32V192a120.8059,120.8059,0,0,1,3.71-29.8013l28.3244,28.3244c-.0208.7914-.0341,1.5845-.0341,2.3807v85.73l5.0888,5.082A118.4207,118.4207,0,0,1,207.293,368h32a150.1255,150.1255,0,0,0-40-102.4531V222.4888l128,128v26.1779A63.4049,63.4049,0,0,1,263.96,440H239.293v32H263.96a95.4515,95.4515,0,0,0,95.1608-89.6835L472.8047,496H495.293V473.2344Z" class="cls-1"/>
  <path d="M254.6279,104.0024a87.1515,87.1515,0,0,0-59.3235,23.9888l22.62,22.62a55.23,55.23,0,0,1,36.9409-14.61c.1436-.001.2852-.0015.4278-.0015a55.9993,55.9993,0,0,1,56,56h32a88.0007,88.0007,0,0,0-88.6651-87.9976Z" class="cls-1"/>
</svg>
