<svg xmlns="http://www.w3.org/2000/svg" viewBox="0 0 512 512">
  <defs>
    <style>
      .a{fill:currentColor}
    </style>
  </defs>
  <path d="M309.2617,391.7266h0l-67.3476-37.4317L264,299.0811V232a88,88,0,0,0-176,0v67.0811l22.0854,55.2138L42.7383,391.7266A52.0278,52.0278,0,0,0,16,437.1777V496H48V437.1777a20.01,20.01,0,0,1,10.2837-17.48l91.9785-51.1231L120,292.9189V232a56,56,0,0,1,112,0v60.9189l-30.2622,75.6553,91.9785,51.1231h0A20.0105,20.0105,0,0,1,304,437.1777V496h32V437.1777A52.0278,52.0278,0,0,0,309.2617,391.7266Z" class="a"/>
  <path d="M452.8979,87.7148a240.0244,240.0244,0,0,0-51.8007-55.1425,31.8624,31.8624,0,0,0-30.6983-4.5606h0L301.6421,53.7959,322.314,157.1553l55.4165,13.3818a57.4852,57.4852,0,0,1,.8486,73.92l-56.312,4.6153L301.79,371.94l72.2758,18.0683a32.2474,32.2474,0,0,0,7.84.9727,31.68,31.68,0,0,0,16.3755-4.5684C419.3281,373.749,488,322.8818,488,200,488,160.0439,476.19,122.2656,452.8979,87.7148Zm-71.07,271.2491-43.6167-10.9034,11.522-69.1328,43.5791-3.5713,4.1533-4.1533a89.4852,89.4852,0,0,0,0-126.4062l-3.1831-3.1826-44.5962-10.77L338.3574,74.2041l43.2783-16.2295.0279.02C399.1021,71.3262,456,120.9648,456,200,456,306.0938,399.1938,348.5176,381.8276,358.9639Z" class="a"/>
</svg>
