<svg xmlns="http://www.w3.org/2000/svg" id="export" viewBox="0 0 512 512">
  <defs>
    <style>
      .cls-1{fill:currentColor}
    </style>
  </defs>
  <polygon points="440 472 472 472 472 440 440 440 440 472 440 472" class="cls-1"/>
  <polygon points="306.182 472 339.636 472 339.636 440 306.182 440 306.182 472 306.182 472" class="cls-1"/>
  <polygon points="172.364 472 205.818 472 205.818 440 172.364 440 172.364 472 172.364 472" class="cls-1"/>
  <polygon points="373.091 472 406.545 472 406.545 440 373.091 440 373.091 472 373.091 472" class="cls-1"/>
  <polygon points="105.455 472 138.909 472 138.909 440 105.455 440 105.455 472 105.455 472" class="cls-1"/>
  <polygon points="40 472 72 472 72 440 40 440 40 472 40 472" class="cls-1"/>
  <polygon points="40 339.637 72 339.637 72 306.183 40 306.183 40 339.637 40 339.637" class="cls-1"/>
  <polygon points="40 406.546 72 406.546 72 373.092 40 373.092 40 406.546 40 406.546" class="cls-1"/>
  <polygon points="40 272.728 72 272.728 72 239.272 40 239.272 40 272.728 40 272.728" class="cls-1"/>
  <polygon points="40 205.818 72 205.818 72 172.364 40 172.364 40 205.818 40 205.818" class="cls-1"/>
  <polygon points="40 138.909 72 138.909 72 105.455 40 105.455 40 138.909 40 138.909" class="cls-1"/>
  <polygon points="40 72 72 72 72 40 40 40 40 72 40 72" class="cls-1"/>
  <polygon points="306.182 72 339.636 72 339.636 40 306.182 40 306.182 72 306.182 72" class="cls-1"/>
  <polygon points="172.364 72 205.818 72 205.818 40 172.364 40 172.364 72 172.364 72" class="cls-1"/>
  <polygon points="373.091 72 406.545 72 406.545 40 373.091 40 373.091 72 373.091 72" class="cls-1"/>
  <polygon points="239.272 72 272.728 72 272.728 40 239.272 40 239.272 72 239.272 72" class="cls-1"/>
  <polygon points="105.455 72 138.909 72 138.909 40 105.455 40 105.455 72 105.455 72" class="cls-1"/>
  <polygon points="440 40 440 72 472 72 472 40 440 40 440 40" class="cls-1"/>
  <polygon points="440 406.545 472 406.545 472 373.091 440 373.091 440 406.545 440 406.545" class="cls-1"/>
  <polygon points="440 339.636 472 339.636 472 306.182 440 306.182 440 339.636 440 339.636" class="cls-1"/>
  <polygon points="440 138.908 472 138.908 472 105.454 440 105.454 440 138.908 440 138.908" class="cls-1"/>
  <polygon points="440 205.817 472 205.817 472 172.363 440 172.363 440 205.817 440 205.817" class="cls-1"/>
  <polygon points="440 272.728 472 272.728 472 239.272 440 239.272 440 272.728 440 272.728" class="cls-1"/>
  <polygon points="239.272 272.728 272.728 272.728 272.728 239.272 239.272 239.272 239.272 272.728 239.272 272.728" class="cls-1"/>
  <polygon points="239.272 339.636 272.728 339.636 272.728 306.182 239.272 306.182 239.272 339.636 239.272 339.636" class="cls-1"/>
  <polygon points="239.272 205.817 272.728 205.817 272.728 172.363 239.272 172.363 239.272 205.817 239.272 205.817" class="cls-1"/>
  <polygon points="239.272 138.908 272.728 138.908 272.728 105.454 239.272 105.454 239.272 138.908 239.272 138.908" class="cls-1"/>
  <polygon points="239.272 406.545 272.728 406.545 272.728 373.091 239.272 373.091 239.272 406.545 239.272 406.545" class="cls-1"/>
  <polygon points="239.272 472 272.728 472 272.728 440 239.272 440 239.272 472 239.272 472" class="cls-1"/>
  <polygon points="306.182 272.728 339.636 272.728 339.636 239.272 306.182 239.272 306.182 272.728 306.182 272.728" class="cls-1"/>
  <polygon points="373.091 272.728 406.545 272.728 406.545 239.272 373.091 239.272 373.091 272.728 373.091 272.728" class="cls-1"/>
  <polygon points="172.364 272.728 205.818 272.728 205.818 239.272 172.364 239.272 172.364 272.728 172.364 272.728" class="cls-1"/>
  <polygon points="105.455 272.728 138.909 272.728 138.909 239.272 105.455 239.272 105.455 272.728 105.455 272.728" class="cls-1"/>
</svg>
