<svg xmlns="http://www.w3.org/2000/svg" id="export" viewBox="0 0 512 512">
  <defs>
    <style>
      .cls-1{fill:currentColor}
    </style>
  </defs>
  <path d="M299.4761,178.2449,416,225.7549V191.1978L311.7134,148.6772A55.9791,55.9791,0,0,0,212.71,107.5188L96,57.0281V91.8938l104.3225,45.1316A55.9578,55.9578,0,0,0,240,196.6587V463H136v32H272V196.6587A56.1537,56.1537,0,0,0,299.4761,178.2449ZM256,167a24,24,0,1,1,24-24A24,24,0,0,1,256,167Z" class="cls-1"/>
  <path d="M418.125,255h-36.25L304,419.4023v25.7823l4.7549,5.2314a124.3408,124.3408,0,0,0,91.3672,40.6045c.1416.001.2783.001.42.001a124.3535,124.3535,0,0,0,91.2236-39.9824L496,446.4443v-27.042ZM464,433.667a90.9014,90.9014,0,0,1-63.44,25.3545c-.1093,0-.2207,0-.3291-.001A90.9374,90.9374,0,0,1,336,432.6094v-6.0117l64-135.1114,64,135.1114Z" class="cls-1"/>
  <path d="M203.7656,331.0391,208,326.4443v-27.042L130.125,135H93.875L16,299.4023v25.7823l4.7549,5.2314a124.3408,124.3408,0,0,0,91.3672,40.6045c.1416.001.2783.001.42.001A124.3535,124.3535,0,0,0,203.7656,331.0391ZM176,313.667a90.9014,90.9014,0,0,1-63.4395,25.3545c-.1093,0-.2207,0-.3291-.001A90.9374,90.9374,0,0,1,48,312.6094v-6.0117l64-135.1114,64,135.1114Z" class="cls-1"/>
</svg>
