<svg id="export" xmlns="http://www.w3.org/2000/svg" viewBox="0 0 512 512">
  <defs>
    <style>
      .cls-1 {
        fill: currentColor;
      }
    </style>
  </defs>
  <title>assistive-listening-system</title>
  <g>
    <path class="cls-1" d="M432.1621,67.8379A258.9989,258.9989,0,0,0,319.1857,1.3647l-15.82,45.5242A213.1776,213.1776,0,0,1,455.4227,206.0414l46.9718-10.2133A258.68,258.68,0,0,0,432.1621,67.8379Z"/>
    <path class="cls-1" d="M266.1646,87.1011A152.9142,152.9142,0,0,0,111.0859,240h48A104.915,104.915,0,0,1,265.4985,135.0962c56.6538.7861,103.045,47.5317,103.4136,104.2031a103.94,103.94,0,0,1-32.6045,76.7075,33.5881,33.5881,0,0,0-10.3647,24.2369v60.4516a62.4612,62.4612,0,0,1-62.3907,62.3906H253.2573v48h10.2949A110.5156,110.5156,0,0,0,373.9429,400.6953v-54.43a153.5639,153.5639,0,0,0,42.9682-107.2788A153.3293,153.3293,0,0,0,266.1646,87.1011Z"/>
    <path class="cls-1" d="M292.3428,239.0859h48a76.03,76.03,0,1,0-152.0591,0h48a28.03,28.03,0,1,1,56.0591,0Z"/>
    <rect class="cls-1" x="216" y="280" width="48" height="48"/>
    <rect class="cls-1" x="88" y="408" width="48" height="48"/>
    <rect class="cls-1" x="151.9998" y="288.804" width="48.0004" height="158.3919" transform="translate(-208.6661 232.2355) rotate(-45)"/>
  </g>
</svg>
