<svg id="export" xmlns="http://www.w3.org/2000/svg" viewBox="0 0 512 512">
  <defs>
    <style>
      .cls-1 {
        fill: currentColor;
      }
    </style>
  </defs>
  <title>blind</title>
  <g>
    <path class="cls-1" d="M321.9827,266.4012,413.3,474.9288h26.2l-96.458-220.2667,18.1433-16.4941L255.5171,121.9324H163.2732L128.2285,144.69A68.3365,68.3365,0,0,0,97,202.2041V274h48V202.2041a20.505,20.505,0,0,1,9.37-17.2578l14.63-9.5v78.2731l35.9122,71.1222,75.7847,150.0874H324.463L241.7144,296.7009V178.1061Z"/>
    <polygon class="cls-1" points="93.18 474.929 144.877 474.929 195.999 347.124 167.153 289.996 93.18 474.929"/>
    <path class="cls-1" d="M187.6854,96.8613A38.0866,38.0866,0,1,0,169,64.0878,37.9015,37.9015,0,0,0,187.6854,96.8613Z"/>
  </g>
</svg>
