<svg id="export" xmlns="http://www.w3.org/2000/svg" viewBox="0 0 512 512">
  <defs>
    <style>
      .cls-1 {
        fill: currentColor;
      }
    </style>
  </defs>
  <title>braille</title>
  <g>
    <path class="cls-1" d="M440,336a32,32,0,0,0-32,32v24H392V352a32,32,0,0,0-64,0v40H312V336a32,32,0,0,0-64,0v56H232V248a32,32,0,0,0-64,0V448H152V408a64,64,0,0,0-64-64,8,8,0,0,0-8,8V496H472V368A32,32,0,0,0,440,336Z"/>
    <circle class="cls-1" cx="64" cy="192" r="32"/>
    <circle class="cls-1" cx="320" cy="192" r="32"/>
    <circle class="cls-1" cx="184" cy="64" r="32"/>
    <circle class="cls-1" cx="448" cy="192" r="32"/>
    <circle class="cls-1" cx="448" cy="64" r="32"/>
    <circle class="cls-1" cx="320" cy="64" r="32"/>
  </g>
</svg>
