<svg id="export" xmlns="http://www.w3.org/2000/svg" viewBox="0 0 512 512">
  <defs>
    <style>
      .cls-1 {
        fill: currentColor;
      }
    </style>
  </defs>
  <title>deaf</title>
  <g>
    <path class="cls-1" d="M248.0879,64c.2734,0,.5488.001.8223.0029,63.9091.45,116.21,52.8125,116.5869,116.7242a117.5682,117.5682,0,0,1-28.1692,77.0155L371.3357,291.75a165.5948,165.5948,0,0,0,42.1614-111.307C412.9648,90.4058,339.2832,16.6387,249.248,16.0039c-.3906-.0024-.7792-.0039-1.1689-.0039-40.601,0-79.3411,14.9048-110.2715,42.2224L171.839,92.2538C193.5872,73.9531,220.2723,64,248.0879,64Z"/>
    <path class="cls-1" d="M199.0789,119.4937,229.54,149.9548a36.05,36.05,0,0,1,15.4151-3.781c10.8916-.2031,20.8271,3.5718,28,10.6153A33.3447,33.3447,0,0,1,283,181.1665h42a75.5122,75.5122,0,0,0-22.6172-54.3447c-15.28-15.0054-35.9346-23.0357-58.1914-22.6411A77.9587,77.9587,0,0,0,199.0789,119.4937Z"/>
    <path class="cls-1" d="M46.3853,16H16V45.0122l76.437,76.4371A163.9119,163.9119,0,0,0,80.06,184h48a115.8429,115.8429,0,0,1,2.5891-24.3391L166.52,195.5317v85.167l14.2793,14.2793A113.8315,113.8315,0,0,1,214.36,376h42A155.5592,155.5592,0,0,0,210.498,265.28l-1.9785-1.978v-25.77L315.58,344.5923v44.9009A58.5732,58.5732,0,0,1,257.0732,448H205.5v48h51.5732a106.6318,106.6318,0,0,0,106.46-103.4543L466.9878,496H496V465.6147Z"/>
  </g>
</svg>
