<svg id="export" xmlns="http://www.w3.org/2000/svg" viewBox="0 0 512 512">
  <defs>
    <style>
      .cls-1 {
        fill: currentColor;
      }
    </style>
  </defs>
  <title>ear</title>
  <g>
    <path class="cls-1" d="M256.36,376A155.5592,155.5592,0,0,0,210.498,265.28l-1.9785-1.978V184c0-20.4922,16.3448-37.4609,36.4356-37.8262,10.8906-.2031,20.8271,3.5718,28,10.6153A33.3447,33.3447,0,0,1,283,181.1665h42a75.5122,75.5122,0,0,0-22.6172-54.3447c-15.2812-15.0054-35.9433-23.0357-58.1914-22.6411a78.2185,78.2185,0,0,0-55.1777,24.1142A79.8127,79.8127,0,0,0,166.52,184v96.6987l14.2793,14.2793A113.8315,113.8315,0,0,1,214.36,376Z"/>
    <path class="cls-1" d="M249.248,16.0039c-44.4453-.2778-86.69,17.2-119.0283,49.31C97.874,97.4331,80.06,139.5835,80.06,184H80v40h48V184h.06c0-31.5312,12.7783-61.5854,35.9824-84.626C187.2363,76.3418,217.41,63.7505,248.91,64.0029c63.9091.45,116.21,52.8125,116.5869,116.7242a117.5708,117.5708,0,0,1-39.1944,88.2949A32.2629,32.2629,0,0,0,315.58,293.061v96.4322A58.5732,58.5732,0,0,1,257.0732,448H205.5v48h51.5732A106.6272,106.6272,0,0,0,363.58,389.4932v-89.625a165.6035,165.6035,0,0,0,49.917-119.4248C412.9648,90.4058,339.2832,16.6387,249.248,16.0039Z"/>
  </g>
</svg>
