<svg id="export" xmlns="http://www.w3.org/2000/svg" viewBox="0 0 512 512">
  <defs>
    <style>
      .cls-1 {
        fill: currentColor;
      }
    </style>
  </defs>
  <title>eye-slash</title>
  <g>
    <path class="cls-1" d="M252,146.2363a89.8141,89.8141,0,0,0-23.1536,3.0249L338.9751,259.39A90.0145,90.0145,0,0,0,252,146.2363Z"/>
    <path class="cls-1" d="M397.2217,123.1l-.2178-.2217C334.5146,60.3892,240.5347,48.1378,165.6815,86.0963l35.0517,35.0516A125.981,125.981,0,0,1,367.0884,287.5032l49.6137,49.6137L496,254.6826V225.79Z"/>
    <path class="cls-1" d="M16,16V45.0122l88.636,88.6361L16,225.79v28.8926l98.7783,102.6895.2178.2221A199.8009,199.8009,0,0,0,358.5873,387.6L466.9878,496H496V465.6157L46.3843,16ZM143.4012,172.4135l26.6435,26.6434A89.9888,89.9888,0,0,0,289.1794,318.1917l26.6435,26.6434A125.9449,125.9449,0,0,1,143.4012,172.4135Z"/>
  </g>
</svg>
