<svg id="export" xmlns="http://www.w3.org/2000/svg" viewBox="0 0 512 512">
  <defs>
    <style>
      .cls-1 {
        fill: currentColor;
      }
    </style>
  </defs>
  <title>fingerprint</title>
  <g>
    <rect class="cls-1" x="130.1766" y="239.9998" width="203.6468" height="48.0004" transform="translate(-118.725 241.3726) rotate(-45)"/>
    <path class="cls-1" d="M369.0112,264.6855A99.3778,99.3778,0,0,0,228.396,124.2178l-51.1184,51.1184,33.9414,33.9414,51.1184-51.1184a51.3776,51.3776,0,0,1,72.6587,72.6592l-80.3667,81.7641c-20.668,21.0274-55.34,64.249-55.34,117.4619V496h48V430.0444c0-26.3857,15.1528-56.935,41.5727-83.8149Z"/>
    <path class="cls-1" d="M174.1128,246.3838l3.1648-3.1648-33.9414-33.9414-3.1648,3.1648c-27.6294,27.63-61.69,42.8462-95.9048,42.8462H16v48H44.2666C91.3032,303.2886,137.417,283.0791,174.1128,246.3838Z"/>
    <path class="cls-1" d="M72,335.1108H16v48H72a48.0544,48.0544,0,0,1,48,48v64h48v-64A96.1088,96.1088,0,0,0,72,335.1108Z"/>
    <path class="cls-1" d="M341.7,341.47c-18.2354,19.1948-32.6387,34.356-41.7744,57.77C291.3438,421.2358,288,448.3647,288,496h48c0-78.8384,7.7754-87.0229,40.5-121.47l5.8892-6.1992-33.952-33.952Z"/>
    <path class="cls-1" d="M340.1064,17.26V65.8113A112.1844,112.1844,0,0,1,432,176a175.6431,175.6431,0,0,1-48.5,121.47l-1.9918,2.0966,33.952,33.952,2.84-2.989A223.4459,223.4459,0,0,0,480,176C480,94.5848,418.8746,27.18,340.1064,17.26Z"/>
    <path class="cls-1" d="M154.6221,155.8271,199.13,112.8394a173.0242,173.0242,0,0,1,92.9765-46.6073V17.7436a220.7333,220.7333,0,0,0-126.3227,60.57l-44.8672,43.3344-.7266.7329A144.3286,144.3286,0,0,1,16,167.1108v48A192.5481,192.5481,0,0,0,154.6221,155.8271Z"/>
  </g>
</svg>
