<svg id="export" xmlns="http://www.w3.org/2000/svg" viewBox="0 0 512 512">
  <defs>
    <style>
      .cls-1 {
        fill: currentColor;
      }
    </style>
  </defs>
  <title>security</title>
  <path class="cls-1" d="M240,16C167.2723,78.0726,24,96,24,96c0,154.4726,43.2,348.5091,232,400C444.8,444.5091,488,250.4726,488,96c0,0-143.2723-17.9274-216-80ZM422.075,148.8842C419.4077,184.57,413.9863,217.8547,405.96,248H256V429.032c-58.19-20.3437-100.4061-60.18-128.7289-121.3166A366.6417,366.6417,0,0,1,106.04,248H256V83.843c34.9647,23.17,80.0273,42.35,134.4424,57.1815C401.5955,144.0646,412.2534,146.6708,422.075,148.8842Z"/>
</svg>
