<svg id="export" xmlns="http://www.w3.org/2000/svg" viewBox="0 0 512 512">
  <defs>
    <style>
      .cls-1 {
        fill: currentColor;
      }
    </style>
  </defs>
  <title>core-logo</title>
  <g>
    <path class="cls-1" d="M446.5882,116.6208,281.4118,21.2559a50.8247,50.8247,0,0,0-50.8236,0L65.4118,116.6206A50.9659,50.9659,0,0,0,40,160.6352v190.73a50.9645,50.9645,0,0,0,25.4118,44.0144l165.1764,95.3646a50.8228,50.8228,0,0,0,50.8236,0l165.1764-95.3646A50.9645,50.9645,0,0,0,472,351.3648v-190.73A50.9654,50.9654,0,0,0,446.5882,116.6208Zm-8.4706,234.744a16.9414,16.9414,0,0,1-8.47,14.6713L264.4706,461.4008a16.9418,16.9418,0,0,1-16.9412,0L82.3529,366.0361a16.9414,16.9414,0,0,1-8.4705-14.6713v-190.73a16.9416,16.9416,0,0,1,8.4705-14.6715L247.5294,50.599a16.9411,16.9411,0,0,1,16.9412,0l165.1765,95.3647a16.9416,16.9416,0,0,1,8.47,14.6715Z"/>
    <path class="cls-1" d="M353.5033,311.22H341.3651a16.942,16.942,0,0,0-8.1516,2.09l-73.1891,40.173-84.495-48.7845V207.3814l84.4929-48.7845,73.2255,40.0445a16.9408,16.9408,0,0,0,8.1284,2.0776h12.1266a8.4706,8.4706,0,0,0,8.4705-8.4706V180.7632a8.4708,8.4708,0,0,0-4.4056-7.4317L276.3,128.88a34.0475,34.0475,0,0,0-33.2164.38l-84.497,48.78a33.9858,33.9858,0,0,0-16.9391,29.3451v97.31a33.8831,33.8831,0,0,0,16.9411,29.3433l84.495,48.7845a34.0626,34.0626,0,0,0,33.2185.3722l81.2769-44.6024a8.471,8.471,0,0,0,4.3953-7.426V319.69A8.4705,8.4705,0,0,0,353.5033,311.22Z"/>
  </g>
</svg>
