<svg id="export" xmlns="http://www.w3.org/2000/svg" viewBox="0 0 512 512">
  <defs>
    <style>
      .cls-1 {
        fill: currentColor;
      }
    </style>
  </defs>
  <title>puzzle</title>
  <path class="cls-1" d="M412.167,206.6574,442.9,181.5455a64.7073,64.7073,0,0,0,14.7486-17.2282c14.1335-24.4848,10.6-55.5387-10.6-76.7387s-52.2539-24.7333-76.7387-10.6a64.7129,64.7129,0,0,0-17.2282,14.7487L327.97,122.46,266.0294,53.6375a8,8,0,0,0-11.3137,0l-65.6046,65.6047,33.1716,27.1046a64.7106,64.7106,0,0,1,14.7488,17.2283c14.1333,24.4847,10.6,55.5387-10.6,76.7386s-52.2539,24.7333-76.7385,10.6a64.7071,64.7071,0,0,1-17.2283-14.7487L105.36,202.9933,34.0984,274.2548a8,8,0,0,0,0,11.3137L209.4609,460.931a64,64,0,0,0,90.51,0L480.99,279.9117a8,8,0,0,0,0-11.3137Z"/>
</svg>
