<svg id="export" xmlns="http://www.w3.org/2000/svg" viewBox="0 0 512 512">
  <defs>
    <style>
      .cls-1 {
        fill: currentColor;
      }
    </style>
  </defs>
  <title>star-circle</title>
  <path class="cls-1" d="M256.6,17.2355c-132.2169,0-239.4,107.183-239.4,239.4s107.1829,239.4,239.4,239.4S496,388.8521,496,256.6353,388.8171,17.2355,256.6,17.2355ZM398.9326,220.2619l-64.0687,64.5865,13.87,89.91a8,8,0,0,1-11.51,8.3623L256,342.1465,174.7762,383.121a8,8,0,0,1-11.51-8.3623l13.87-89.91-64.0687-64.5865a8,8,0,0,1,4.3963-13.53l89.7957-14.593,41.6272-80.8913a8,8,0,0,1,14.2268,0l41.6272,80.8913,89.7957,14.593A8,8,0,0,1,398.9326,220.2619Z"/>
</svg>
