<svg id="export" xmlns="http://www.w3.org/2000/svg" viewBox="0 0 512 512">
  <defs>
    <style>
      .cls-1 {
        fill: currentColor;
      }
    </style>
  </defs>
  <title>beaker</title>
  <path class="cls-1" d="M456.001,354.4717a23.9,23.9,0,0,0-4.2393-13.6123L344,184.5107V121h40a24.0275,24.0275,0,0,0,24-24V16H104V97a24.0272,24.0272,0,0,0,24,24h39.917v64.6211L60.2764,340.834A23.8943,23.8943,0,0,0,56,354.5088V471.918a24.0283,24.0283,0,0,0,23.9946,24l352.04.08h.0058a24.0012,24.0012,0,0,0,24-24.0078ZM199.917,195.6309V89H136V48H376V89H312V194.47L376.4647,288H135.8589ZM88,463.92V357.0107L113.6669,320H398.52l25.4817,36.9707.0351,107.0254Z"/>
</svg>
