<svg id="export" xmlns="http://www.w3.org/2000/svg" viewBox="0 0 512 512">
  <defs>
    <style>
      .cls-1 {
        fill: currentColor;
      }
    </style>
  </defs>
  <title>bug</title>
  <path class="cls-1" d="M416.0342,211.2861l80.0244-28.705-.0244-70.7-32,.0117.0166,48.1728-66.2882,23.7784-45.7284.0068V152.8867A96.5538,96.5538,0,0,0,329.92,91.3l43.1289-43.4131h42.84v-32H359.7324L305.7445,70.231a96.8113,96.8113,0,0,0-100.5105-.5538l-53.0563-53.84-56.1582.05.0293,32,42.7481-.0381,42.0272,42.6485a96.5623,96.5623,0,0,0-22.79,62.39V183.88l-43.2352.0063L48,160.0928V111.9209H16v70.7422l80.0353,28.5093.0065,84.7143H16.0342v32h80.01l.0006,8.0108a159.7463,159.7463,0,0,0,9.7,54.979L16.0342,425.4482v70.4385h32V447.4111l71.73-27.6425a159.7942,159.7942,0,0,0,249.5781,29.0449,161.5059,161.5059,0,0,0,23.0549-29.147l71.6375,27.7271v48.4931h32V425.4658L406.42,390.7813a159.1882,159.1882,0,0,0,9.6143-55.1006v-7.794h80v-32h-80Zm-226-58.3994a65,65,0,0,1,130,0v30.9688l-130,.02Zm-61.9893,183.01-.01-120.0117,29.999-.0044v.0063H240.002V463.0293C176.991,455.2349,128.0449,401.1958,128.0449,335.8965Zm255.9893-.1729A128.2826,128.2826,0,0,1,272.002,462.9785V215.8867h80.0322v-.0361l32-.0049Z"/>
</svg>
