<svg id="export" xmlns="http://www.w3.org/2000/svg" viewBox="0 0 512 512">
  <defs>
    <style>
      .cls-1 {
        fill: currentColor;
      }
    </style>
  </defs>
  <title>device-unknown</title>
  <g>
    <path class="cls-1" d="M335.24,236.2246a79.5826,79.5826,0,0,0-76.1665-76.166,79.3,79.3,0,0,0-82.3715,79.24h32a47.3009,47.3009,0,0,1,49.1572-47.2631,47.3027,47.3027,0,0,1,4.2153,94.1767A25.3175,25.3175,0,0,0,240,311.2627V352h32V316.979a79.3256,79.3256,0,0,0,63.24-80.7544Z"/>
    <path class="cls-1" d="M384,16H128A32.0361,32.0361,0,0,0,96,48V464a32.0361,32.0361,0,0,0,32,32H384a32.0361,32.0361,0,0,0,32-32V48A32.0361,32.0361,0,0,0,384,16ZM128,48H384l.0023,48H128ZM384,464H128V416h72V384H128V128H384.0039l.0122,256H312v32h72.0177l.0023,47.999Z"/>
    <rect class="cls-1" x="240" y="384" width="32" height="32"/>
  </g>
</svg>
