<svg id="export" xmlns="http://www.w3.org/2000/svg" viewBox="0 0 512 512">
  <defs>
    <style>
      .cls-1 {
        fill: currentColor;
      }
    </style>
  </defs>
  <title>devices-important</title>
  <g>
    <path class="cls-1" d="M472,232H424V120a24.0275,24.0275,0,0,0-24-24H40a24.0275,24.0275,0,0,0-24,24V366a24.0275,24.0275,0,0,0,24,24H212v50H152v32H304V440H244V390h92v58a24.0272,24.0272,0,0,0,24,24H472a24.0272,24.0272,0,0,0,24-24V256A24.0272,24.0272,0,0,0,472,232ZM336,256V358H48V128H392V232H360A24.0272,24.0272,0,0,0,336,256ZM464,440H368V264h96Z"/>
    <path class="cls-1" d="M234.7232,162.15l22.4458,43.6175.897.6517,48.4189,7.8687,4.3963,13.53L276.3346,262.644l-.3426,1.0545,7.4786,48.4806-11.51,8.3623-43.7968-22.094h-1.1088l-43.7968,22.094-11.51-8.3623,7.4787-48.4806-.3427-1.0545-34.5465-34.8258,4.3963-13.53,48.4188-7.8687.8971-.6517L220.4964,162.15Z"/>
  </g>
</svg>
