<svg id="export" xmlns="http://www.w3.org/2000/svg" viewBox="0 0 512 512">
  <defs>
    <style>
      .cls-1 {
        fill: currentColor;
      }
    </style>
  </defs>
  <title>fax</title>
  <g>
    <path class="cls-1" d="M487.9443,233.6543,424,176.8149V89.373L350.627,16H152V144H80a24.0275,24.0275,0,0,0-24,24V472a24.0275,24.0275,0,0,0,24,24H496V251.5928A24.0222,24.0222,0,0,0,487.9443,233.6543ZM392,102.627V112H328V48h9.373ZM184,48H296v96h96v72H184ZM152,464H88V176h64Zm312,0H184V248H424V219.6294l40,35.5561Z"/>
    <rect class="cls-1" x="232" y="344" width="32" height="32"/>
    <rect class="cls-1" x="296" y="344" width="32" height="32"/>
    <rect class="cls-1" x="232" y="408" width="32" height="32"/>
    <rect class="cls-1" x="296" y="408" width="32" height="32"/>
    <rect class="cls-1" x="360" y="344" width="32" height="32"/>
    <rect class="cls-1" x="360" y="408" width="32" height="32"/>
    <rect class="cls-1" x="232" y="280" width="160" height="32"/>
  </g>
</svg>
