<svg id="export" xmlns="http://www.w3.org/2000/svg" viewBox="0 0 512 512">
  <defs>
    <style>
      .cls-1 {
        fill: currentColor;
      }
    </style>
  </defs>
  <title>fork</title>
  <path class="cls-1" d="M444,92a76,76,0,1,0-88,75.0437V202a48.0543,48.0543,0,0,1-48,48H156V166.2905a76,76,0,1,0-32,0V345.71a76,76,0,1,0,32,0V282H308a80.09,80.09,0,0,0,80-80v-36.69A76.1229,76.1229,0,0,0,444,92ZM96,92a44,44,0,1,1,44,44A44.05,44.05,0,0,1,96,92Zm88,328a44,44,0,1,1-44-44A44.05,44.05,0,0,1,184,420ZM368,136a44,44,0,1,1,44-44A44.05,44.05,0,0,1,368,136Z"/>
</svg>
