<svg id="export" xmlns="http://www.w3.org/2000/svg" viewBox="0 0 512 512">
  <defs>
    <style>
      .cls-1 {
        fill: currentColor;
      }
    </style>
  </defs>
  <title>hard-drive</title>
  <g>
    <path class="cls-1" d="M48,32V480a16,16,0,0,0,16,16H448a16,16,0,0,0,16-16V32a16,16,0,0,0-16-16H64A16,16,0,0,0,48,32ZM432,48V320H80V48ZM80,464V352H432V464Z"/>
    <rect class="cls-1" x="356.5381" y="389.6145" width="34.9238" height="34.9236"/>
    <rect class="cls-1" x="280" y="389.6145" width="34.9238" height="34.9236"/>
    <path class="cls-1" d="M260,112V80A100.113,100.113,0,0,0,160,180h32A68.0773,68.0773,0,0,1,260,112Z"/>
    <path class="cls-1" d="M260,280A100.113,100.113,0,0,0,360,180H328a68.0773,68.0773,0,0,1-68,68Z"/>
  </g>
</svg>
