<svg id="export" xmlns="http://www.w3.org/2000/svg" viewBox="0 0 512 512">
  <defs>
    <style>
      .cls-1 {
        fill: currentColor;
      }
    </style>
  </defs>
  <title>input-svideo</title>
  <g>
    <rect class="cls-1" x="152" y="208" width="40" height="40"/>
    <rect class="cls-1" x="132" y="280" width="40" height="40"/>
    <rect class="cls-1" x="348" y="280" width="40" height="40"/>
    <rect class="cls-1" x="316" y="204" width="40" height="40"/>
    <path class="cls-1" d="M256,56C145.72,56,56,145.72,56,256s89.72,200,200,200,200-89.72,200-200S366.28,56,256,56Zm0,368c-92.6357,0-168-75.3643-168-168S163.3643,88,256,88s168,75.3643,168,168S348.6357,424,256,424Z"/>
    <rect class="cls-1" x="208" y="344" width="104" height="32"/>
    <rect class="cls-1" x="208" y="136" width="104" height="32"/>
  </g>
</svg>
