<svg id="export" xmlns="http://www.w3.org/2000/svg" viewBox="0 0 512 512">
  <defs>
    <style>
      .cls-1 {
        fill: currentColor;
      }
    </style>
  </defs>
  <title>input-power-off</title>
  <g>
    <polygon class="cls-1" points="408 160 408 304.995 389.736 321.854 412.381 344.5 440 319.005 440 128 376 128 376 16 344 16 344 128 195.882 128 227.882 160 408 160"/>
    <polygon class="cls-1" points="192 16 160 16 160 92.118 192 124.118 192 16"/>
    <path class="cls-1" d="M38.627,16H16V38.627l88,88V319.0054l104,96V496H336V415.0054l29.4863-26.8922L473.373,496H496V473.373ZM304,400.9946V464H240V400.9946l-104-96V160h1.373L342.8569,365.4838Z"/>
  </g>
</svg>
