<svg id="export" xmlns="http://www.w3.org/2000/svg" viewBox="0 0 512 512">
  <defs>
    <style>
      .cls-1 {
        fill: currentColor;
      }
    </style>
  </defs>
  <title>mouse</title>
  <path class="cls-1" d="M440,16V48H264a24.0272,24.0272,0,0,0-24,24v40H208.625A88.7255,88.7255,0,0,0,120,200.6255V360.5713C120,435.2471,180.7529,496,255.4287,496h1.1426C331.2471,496,392,435.2471,392,360.5713V200.6255A88.7255,88.7255,0,0,0,303.375,112H272V80H448a24.0272,24.0272,0,0,0,24-24V16ZM208.625,144H240v88H152V200.6255A56.689,56.689,0,0,1,208.625,144Zm47.9463,320h-1.1426A103.5453,103.5453,0,0,1,152,360.5713V264H360v96.5713A103.5453,103.5453,0,0,1,256.5713,464ZM360,200.6255V232H272V144h31.375A56.689,56.689,0,0,1,360,200.6255Z"/>
</svg>
