<svg id="export" xmlns="http://www.w3.org/2000/svg" viewBox="0 0 512 512">
  <defs>
    <style>
      .cls-1 {
        fill: currentColor;
      }
    </style>
  </defs>
  <title>printer-slash</title>
  <g>
    <polygon class="cls-1" points="227.882 160 259.882 192 464 192 464 368 435.882 368 467.882 400 496 400 496 160 227.882 160"/>
    <polygon class="cls-1" points="168 48 344 48 344 120 376 120 376 16 136 16 136 67.283 168 99.283 168 48"/>
    <path class="cls-1" d="M38.627,16H16V38.627L137.373,160H16V400H87.3726l6.4-32H48V192H169.373l80,80H146.99l-46.667,224H411.6768l-16.2359-77.9321L473.373,496H496V473.373ZM372.3232,464H139.6768L173.01,304H281.373l72.7793,72.7793Z"/>
  </g>
</svg>
