<svg id="export" xmlns="http://www.w3.org/2000/svg" viewBox="0 0 512 512">
  <defs>
    <style>
      .cls-1 {
        fill: currentColor;
      }
    </style>
  </defs>
  <title>router</title>
  <g>
    <path class="cls-1" d="M360,96a111.7407,111.7407,0,0,1,83.0565,36.9434l22.6347-22.6346a143.7646,143.7646,0,0,0-211.3824,0l22.6347,22.6346A111.7407,111.7407,0,0,1,360,96Z"/>
    <path class="cls-1" d="M299.6144,155.6145l22.7046,22.7046a47.913,47.913,0,0,1,75.362,0l22.7046-22.7046a79.8309,79.8309,0,0,0-120.7712,0Z"/>
    <path class="cls-1" d="M472,280H376V216H344v64H40a24.0275,24.0275,0,0,0-24,24V416a24.0275,24.0275,0,0,0,24,24H472a24.0275,24.0275,0,0,0,24-24V304A24.0275,24.0275,0,0,0,472,280Zm-8,128H48V312H464Z"/>
    <rect class="cls-1" x="96" y="344" width="32" height="32"/>
    <rect class="cls-1" x="176" y="344" width="32" height="32"/>
    <rect class="cls-1" x="256" y="344" width="32" height="32"/>
  </g>
</svg>
