<svg id="export" xmlns="http://www.w3.org/2000/svg" viewBox="0 0 512 512">
  <defs>
    <style>
      .cls-1 {
        fill: currentColor;
      }
    </style>
  </defs>
  <title>satelite</title>
  <g>
    <path class="cls-1" d="M16,16V496H496V16ZM464,48V334.2959L389.5386,259.835l-77.5381,77.5376-112-112L48,377.3726V48ZM48,422.6274,200,270.6279,393.3726,464H48ZM438.6274,464l-104-104,54.9112-54.9109L464,379.55V464Z"/>
    <path class="cls-1" d="M120,80H80v40h0A40,40,0,0,0,120,80Z"/>
    <path class="cls-1" d="M196.6,80H163.6606A120.4694,120.4694,0,0,1,80,163.6606V196.6A152.4672,152.4672,0,0,0,196.6,80Z"/>
  </g>
</svg>
