<svg id="export" xmlns="http://www.w3.org/2000/svg" viewBox="0 0 512 512">
  <defs>
    <style>
      .cls-1 {
        fill: currentColor;
      }
    </style>
  </defs>
  <title>screen-portrait#screen-vertical</title>
  <g>
    <path class="cls-1" d="M392,16H120A32.0364,32.0364,0,0,0,88,48V464a32.0364,32.0364,0,0,0,32,32H392a32.0364,32.0364,0,0,0,32-32V48A32.0364,32.0364,0,0,0,392,16Zm0,448H120l-.02-415.999L120,48H392Z"/>
    <polygon class="cls-1" points="256 118.059 301.254 163.313 323.882 140.687 256 72.805 188.118 140.687 210.746 163.313 256 118.059"/>
    <polygon class="cls-1" points="323.882 371.313 301.254 348.687 256 393.941 210.746 348.687 188.118 371.313 256 439.195 323.882 371.313"/>
  </g>
</svg>
