<svg id="export" xmlns="http://www.w3.org/2000/svg" viewBox="0 0 512 512">
  <defs>
    <style>
      .cls-1 {
        fill: currentColor;
      }
    </style>
  </defs>
  <title>screen-horizontal#screen-landscape</title>
  <g>
    <path class="cls-1" d="M464,88H48a32.0364,32.0364,0,0,0-32,32V392a32.0364,32.0364,0,0,0,32,32H464a32.0364,32.0364,0,0,0,32-32V120A32.0364,32.0364,0,0,0,464,88Zm0,304-415.999.0205L48,392V120H464Z"/>
    <polygon class="cls-1" points="163.313 301.255 118.059 256 163.313 210.745 140.687 188.118 72.804 256 140.687 323.882 163.313 301.255"/>
    <polygon class="cls-1" points="371.313 323.882 439.196 256 371.313 188.118 348.687 210.745 393.941 256 348.687 301.255 371.313 323.882"/>
  </g>
</svg>
