<svg id="export" xmlns="http://www.w3.org/2000/svg" viewBox="0 0 512 512">
  <defs>
    <style>
      .cls-1 {
        fill: currentColor;
      }
    </style>
  </defs>
  <title>script</title>
  <path class="cls-1" d="M408,376V96a80.09,80.09,0,0,0-80-80H88v.1273C86.6754,16.05,85.3436,16,84,16A68.0773,68.0773,0,0,0,16,84v76H120V437.5A58.5665,58.5665,0,0,0,178.5,496H436.3335A59.7338,59.7338,0,0,0,496,436.3335V376ZM48,128V84a36,36,0,0,1,72,0v44ZM178.5,464A26.53,26.53,0,0,1,152,437.5V84a67.5742,67.5742,0,0,0-10.35-36H328a48.0543,48.0543,0,0,1,48,48V376H216v55a33.0373,33.0373,0,0,1-33,33ZM464,436.3335A27.6978,27.6978,0,0,1,436.3335,464h-197.35A64.5983,64.5983,0,0,0,248,431V408H464Z"/>
</svg>
