<svg id="export" xmlns="http://www.w3.org/2000/svg" viewBox="0 0 512 512">
  <defs>
    <style>
      .cls-1 {
        fill: currentColor;
      }
    </style>
  </defs>
  <title>signal-off</title>
  <g>
    <rect class="cls-1" x="144" y="288" width="32" height="208"/>
    <rect class="cls-1" x="56" y="376" width="32" height="120"/>
    <polygon class="cls-1" points="352 104 320 104 320 252.118 352 284.118 352 104"/>
    <polygon class="cls-1" points="440 16 408 16 408 338.497 440 370.497 440 16"/>
    <polygon class="cls-1" points="38.627 16 16 16 16 38.627 232 254.627 232 496 264 496 264 286.627 320 342.627 320 496 352 496 352 374.627 408 430.627 408 496 440 496 440 462.627 473.373 496 496 496 496 473.373 38.627 16"/>
  </g>
</svg>
