<svg id="export" xmlns="http://www.w3.org/2000/svg" viewBox="0 0 512 512">
  <defs>
    <style>
      .cls-1 {
        fill: currentColor;
      }
    </style>
  </defs>
  <title>signal-cellular-no-internet-4</title>
  <g>
    <path class="cls-1" d="M456.78,16l-72,72h-.0991v.0991L208.78,264h-.0993v.0994L16,456.78V496H416l.6807-394.6465L464,54.0342V200h32V16ZM120.6807,464H54.0347l66.646-66.646Zm88,0h-56V365.354l56-56Zm88,0h-56V277.3538l56-56Zm88,0h-56V189.3538l56-56Z"/>
    <rect class="cls-1" x="448" y="248" width="32" height="184"/>
    <polygon class="cls-1" points="448 464 448 496 480 496 480 464 464 464 448 464"/>
  </g>
</svg>
