<svg id="export" xmlns="http://www.w3.org/2000/svg" viewBox="0 0 512 512">
  <defs>
    <style>
      .cls-1 {
        fill: currentColor;
      }
    </style>
  </defs>
  <title>tv-dvr</title>
  <g>
    <path class="cls-1" d="M472,88.5H302.627l72.5-72.5H329.873l-72.5,72.5h-2.246L182.627,16H137.373l72.5,72.5H40a24.0275,24.0275,0,0,0-24,24v296a24.0275,24.0275,0,0,0,24,24H152V496H376V432.5h96a24.0275,24.0275,0,0,0,24-24v-296A24.0275,24.0275,0,0,0,472,88.5ZM344,464H184V432.5H344Zm120-63.5H48v-280H464Z"/>
    <rect class="cls-1" x="112" y="200" width="32" height="32"/>
    <rect class="cls-1" x="112" y="280" width="32" height="32"/>
    <rect class="cls-1" x="176" y="200" width="224" height="32"/>
    <rect class="cls-1" x="176" y="280" width="224" height="32"/>
  </g>
</svg>
