<svg id="export" xmlns="http://www.w3.org/2000/svg" viewBox="0 0 512 512">
  <defs>
    <style>
      .cls-1 {
        fill: currentColor;
      }
    </style>
  </defs>
  <title>waves</title>
  <g>
    <path class="cls-1" d="M307.7681,377.6611a100.4317,100.4317,0,0,1-103.5362,0,132.38,132.38,0,0,0-136.4638,0A101.0047,101.0047,0,0,1,16,391.9741v32.0073a133.1308,133.1308,0,0,0,68.2319-18.8808,100.4429,100.4429,0,0,1,103.5362,0,132.3773,132.3773,0,0,0,136.4638,0,100.4429,100.4429,0,0,1,103.5362,0A133.112,133.112,0,0,0,496,423.9829V391.9736a101.015,101.015,0,0,1-51.7681-14.3125A132.38,132.38,0,0,0,307.7681,377.6611Z"/>
    <path class="cls-1" d="M307.7681,289.6611a100.434,100.434,0,0,1-103.5362,0,132.38,132.38,0,0,0-136.4638,0A101.0033,101.0033,0,0,1,16,303.9746v32.0068a133.1279,133.1279,0,0,0,68.2319-18.8808,100.4429,100.4429,0,0,1,103.5362,0,132.3773,132.3773,0,0,0,136.4638,0,100.4429,100.4429,0,0,1,103.5362,0A133.114,133.114,0,0,0,496,335.9829V303.9734a101.0109,101.0109,0,0,1-51.7681-14.3123A132.38,132.38,0,0,0,307.7681,289.6611Z"/>
    <path class="cls-1" d="M307.7681,200.4229a100.4364,100.4364,0,0,1-103.5362,0,132.38,132.38,0,0,0-136.4638,0A101.0056,101.0056,0,0,1,16,214.7358v32.0074a133.129,133.129,0,0,0,68.2319-18.8809,100.4452,100.4452,0,0,1,103.5362,0,132.3767,132.3767,0,0,0,136.4638,0,100.4452,100.4452,0,0,1,103.5362,0A133.128,133.128,0,0,0,496,246.7441V214.7358a101.0057,101.0057,0,0,1-51.7681-14.3129A132.38,132.38,0,0,0,307.7681,200.4229Z"/>
    <path class="cls-1" d="M444.2319,109.042a132.38,132.38,0,0,0-136.4638,0,100.4342,100.4342,0,0,1-103.5362,0,132.38,132.38,0,0,0-136.4638,0A101.0048,101.0048,0,0,1,16,123.356v32.0063a133.128,133.128,0,0,0,68.2319-18.8809,100.4429,100.4429,0,0,1,103.5362,0,132.3767,132.3767,0,0,0,136.4638,0,100.4429,100.4429,0,0,1,103.5362,0A133.1257,133.1257,0,0,0,496,155.3638V123.3547A101.0084,101.0084,0,0,1,444.2319,109.042Z"/>
  </g>
</svg>
