<svg id="export" xmlns="http://www.w3.org/2000/svg" viewBox="0 0 512 512">
  <defs>
    <style>
      .cls-1 {
        fill: currentColor;
      }
    </style>
  </defs>
  <title>balance-scale</title>
  <g>
    <path class="cls-1" d="M277,182.5547A66.2878,66.2878,0,0,0,318.5547,141H416V99H318.5547a65.9788,65.9788,0,0,0-125.1094,0H96v42h97.4453A66.2878,66.2878,0,0,0,235,182.5547V435H128v42H384V435H277ZM256,144a24,24,0,1,1,24-24A24,24,0,0,1,256,144Z"/>
    <path class="cls-1" d="M199.1484,358.2334l6.001-6.5977V324.3618L132.5044,171H91.4956L18.8506,324.3618v28.4317l5.5581,6.03A118.721,118.721,0,0,0,111.5112,397c.1314,0,.2691,0,.4-.001A118.7239,118.7239,0,0,0,199.1484,358.2334ZM81.6009,290,112,225.8242,142.3991,290Z"/>
    <path class="cls-1" d="M420.5044,171H379.4956l-72.645,153.3618v28.4317l5.5581,6.03A118.721,118.721,0,0,0,399.5112,397c.1314,0,.2691,0,.4-.001a118.7239,118.7239,0,0,0,87.2368-38.7656l6.001-6.5977V324.3618ZM369.6009,290,400,225.8242,430.3991,290Z"/>
  </g>
</svg>
