<svg id="export" xmlns="http://www.w3.org/2000/svg" viewBox="0 0 512 512">
  <defs>
    <style>
      .cls-1 {
        fill: currentColor;
      }
    </style>
  </defs>
  <title>dollar-circle-slash</title>
  <g>
    <path class="cls-1" d="M440.062,410.0029,363.5791,333.52c-.0073.0207-.0137.0417-.0215.0625L337.9756,308h.0835L292,261.9407v.0837L261.9756,232h.084l-55.4707-55.47c-.0235.0047-.0474.0081-.0708.0129l-36.1065-36.1062.0513-.0329L101.9971,71.9377l-.0454.0385L45.9756,16H16V45.4219l56.23,56.23A239.0176,239.0176,0,0,0,16,256c0,132.5483,107.4517,240,240,240a239.0173,239.0173,0,0,0,154.3477-56.2295L466.5771,496H496V466.0244l-55.9761-55.9762ZM136,204a75.5253,75.5253,0,0,1,6.93-31.6479L186.8276,216.25A28.1813,28.1813,0,0,0,199.75,229.1726L250.5776,280H212A76.0862,76.0862,0,0,1,136,204ZM292,384H279.6807v48h-48V384H160V336H292a27.8264,27.8264,0,0,0,11.9106-2.6667l34.6612,34.661A75.599,75.599,0,0,1,292,384Z"/>
    <path class="cls-1" d="M212,128h19.6807V80h48v48H344v48H256.9707l59.5967,59.5969h0L461.3159,380.345A238.8823,238.8823,0,0,0,496,256C496,123.4517,388.5483,16,256,16A238.8775,238.8775,0,0,0,131.6553,50.6842l77.3906,77.3908C210.0273,128.0371,211.0093,128,212,128Z"/>
  </g>
</svg>
