<svg id="export" xmlns="http://www.w3.org/2000/svg" viewBox="0 0 512 512">
  <defs>
    <style>
      .cls-1 {
        fill: currentColor;
      }
    </style>
  </defs>
  <title>loyalty</title>
  <path class="cls-1" d="M26.09,248.4,279.1533,486.126a23.8132,23.8132,0,0,0,16.4092,6.5088q.4482,0,.8984-.0166a23.8243,23.8243,0,0,0,16.7862-7.7344L486.58,296.48a23.9432,23.9432,0,0,0-.6924-33.2188L248,25.373A31.7913,31.7913,0,0,0,225.373,16H64A48.055,48.055,0,0,0,16,64V225.0781A32.12,32.12,0,0,0,26.09,248.4Zm254.4119,4.7324,9.728,9.728,9.2264-9.2263a44.8385,44.8385,0,0,1,63.4111,63.4112L290.23,389.6831l-73.1391-73.1392a44.8384,44.8384,0,0,1,63.4111-63.4111ZM136,100a36,36,0,1,1-36,36A36,36,0,0,1,136,100Z"/>
</svg>
