<svg id="export" xmlns="http://www.w3.org/2000/svg" viewBox="0 0 512 512">
  <defs>
    <style>
      .cls-1 {
        fill: currentColor;
      }
    </style>
  </defs>
  <title>money-bill-alt</title>
  <path class="cls-1" d="M496,80H16V432H496ZM48,183.0693A157.4387,157.4387,0,0,0,117.3511,112H156.49a192.182,192.182,0,0,1-43.8662,68.0313A192.2388,192.2388,0,0,1,48,222.5913ZM256,336.1338c-39.7646,0-72-35.877-72-80.1338s32.2354-80.1338,72-80.1338S328,211.7432,328,256,295.7646,336.1338,256,336.1338ZM117.3511,400A157.4392,157.4392,0,0,0,48,328.9307v-39.522a192.2376,192.2376,0,0,1,64.624,42.56A192.1816,192.1816,0,0,1,156.49,400ZM464,328.9307A157.4392,157.4392,0,0,0,394.6489,400H355.51A191.8124,191.8124,0,0,1,464,289.4087Zm0-106.3394A191.8116,191.8116,0,0,1,355.51,112h39.1391A157.4387,157.4387,0,0,0,464,183.0693Z"/>
</svg>
