<svg id="export" xmlns="http://www.w3.org/2000/svg" viewBox="0 0 512 512">
  <defs>
    <style>
      .cls-1 {
        fill: currentColor;
      }
    </style>
  </defs>
  <title>percent</title>
  <g>
    <path class="cls-1" d="M152,216A104,104,0,1,0,48,112,104.1179,104.1179,0,0,0,152,216Zm0-144a40,40,0,1,1-40,40A40.0458,40.0458,0,0,1,152,72Z"/>
    <path class="cls-1" d="M368,296A104,104,0,1,0,472,400,104.1179,104.1179,0,0,0,368,296Zm0,144a40,40,0,1,1,40-40A40.0458,40.0458,0,0,1,368,440Z"/>
    <polygon class="cls-1" points="384.639 16 47.247 496 126.296 496 462.784 16 384.639 16"/>
  </g>
</svg>
