<svg id="export" xmlns="http://www.w3.org/2000/svg" viewBox="0 0 512 512">
  <defs>
    <style>
      .cls-1 {
        fill: currentColor;
      }
    </style>
  </defs>
  <title>beach-access</title>
  <path class="cls-1" d="M259.4314,268.8035l140-140L371.6465,101.019A208.3331,208.3331,0,0,0,77.019,395.6465l27.7847,27.7847,132-132L401.3721,456h45.2558ZM224.333,72a175.1784,175.1784,0,0,1,124.686,51.6465l5.1573,5.1572-57.0579,57.0578a477.7819,477.7819,0,0,0-62.8791-53.924c-25.2159-17.8359-49.438-30.3281-71.9947-37.1309a153.0279,153.0279,0,0,0-17.0915-4.1289A175.5783,175.5783,0,0,1,224.333,72ZM104.8037,378.1763l-5.1572-5.1573A176.6377,176.6377,0,0,1,66.6777,169.1528a153.0714,153.0714,0,0,0,4.1289,17.0918c6.8028,22.5567,19.295,46.7788,37.1309,71.9947a477.7748,477.7748,0,0,0,53.9241,62.8792Zm79.6975-79.6975c-11.8573-11.6336-32.2308-32.9764-50.4387-58.7181-22.8711-32.3354-46.5894-77.9019-33.7522-115.45,37.4211-12.7928,82.8026,10.7367,115.0046,33.4374,25.8643,18.233,47.4312,38.8146,59.1581,50.759Z"/>
</svg>
