<svg id="export" xmlns="http://www.w3.org/2000/svg" viewBox="0 0 512 512">
  <defs>
    <style>
      .cls-1 {
        fill: currentColor;
      }
    </style>
  </defs>
  <title>bed</title>
  <path class="cls-1" d="M416,224H208V344.6187H185.8462V303.6172A87.7162,87.7162,0,0,0,98.229,216H48V152H16V496H48V448.2566l416,3.3288V496h32V304A80.09,80.09,0,0,0,416,224ZM48,248H98.229a55.68,55.68,0,0,1,55.6172,55.6172v41.0015H48ZM464,419.5844,48,416.2556V376.6187H464Zm0-74.9657H240V256H416a48.0543,48.0543,0,0,1,48,48Z"/>
</svg>
