<svg id="export" xmlns="http://www.w3.org/2000/svg" viewBox="0 0 512 512">
  <defs>
    <style>
      .cls-1 {
        fill: currentColor;
      }
    </style>
  </defs>
  <title>building-slash</title>
  <g>
    <polygon class="cls-1" points="408 48 408 340.118 440 372.118 440 16 88 16 83.882 16 115.882 48 408 48"/>
    <rect class="cls-1" x="160" y="304" width="32" height="32"/>
    <rect class="cls-1" x="240" y="304" width="32" height="32"/>
    <rect class="cls-1" x="320" y="208" width="32" height="32"/>
    <rect class="cls-1" x="240" y="112" width="32" height="32"/>
    <rect class="cls-1" x="320" y="112" width="32" height="32"/>
    <path class="cls-1" d="M266.5635,243.9365,262.627,240,240,217.373l-136-136h0l-32-32h0L38.627,16H16V38.627l56,56V464H16v32H496V473.3731ZM272,464V400H240v64H104V126.627L441.373,464Z"/>
  </g>
</svg>
