<svg id="export" xmlns="http://www.w3.org/2000/svg" viewBox="0 0 512 512">
  <defs>
    <style>
      .cls-1 {
        fill: currentColor;
      }
    </style>
  </defs>
  <title>building-business-slash</title>
  <g>
    <polygon class="cls-1" points="312 144 312 16 88 16 83.882 16 115.882 48 280 48 280 144 280 212.118 312 244.118 312 176 464 176 464 396.118 496 428.118 496 416 496 144 312 144"/>
    <rect class="cls-1" x="104" y="304" width="32" height="32"/>
    <rect class="cls-1" x="184" y="304" width="32" height="32"/>
    <rect class="cls-1" x="376" y="216" width="32" height="32"/>
    <rect class="cls-1" x="104" y="208" width="32" height="32"/>
    <path class="cls-1" d="M70.627,48l-32-32H16V496H496V473.3731L266.5635,243.9365ZM312,334.627,441.373,464H312ZM280,464H176V400H144v64H48V70.627l232,232Z"/>
    <rect class="cls-1" x="200" y="88" width="32" height="32"/>
  </g>
</svg>
