<svg id="export" xmlns="http://www.w3.org/2000/svg" viewBox="0 0 512 512">
  <defs>
    <style>
      .cls-1 {
        fill: currentColor;
      }
    </style>
  </defs>
  <title>casino</title>
  <g>
    <path class="cls-1" d="M495.24,267.5923l-50.1738-226.51A32.0371,32.0371,0,0,0,406.9028,16.76l-226.51,50.1738a32,32,0,0,0-24.3223,38.1631L177.0925,200H48a32.0361,32.0361,0,0,0-32,32V464a32.0361,32.0361,0,0,0,32,32H280a32.0361,32.0361,0,0,0,32-32V340.957l158.9165-35.2011A32.037,32.037,0,0,0,495.24,267.5923ZM280,464H48V232H184.1807l22.0634,99.606a32.03,32.03,0,0,0,31.18,25.0918,32.2895,32.2895,0,0,0,6.9839-.7686L280.01,348.043l.01,115.956ZM463.9976,274.5127,237.4868,324.686,187.314,98.1763l226.51-50.1729,50.1929,226.5044Z"/>
    <rect class="cls-1" x="80" y="264" width="40" height="40"/>
    <rect class="cls-1" x="80" y="392" width="40" height="40"/>
    <rect class="cls-1" x="208" y="392" width="40" height="40"/>
    <rect class="cls-1" x="144" y="328" width="40" height="40"/>
    <rect class="cls-1" x="229.3289" y="117.7002" width="40" height="40" transform="translate(-23.8791 57.1792) rotate(-12.4896)"/>
    <rect class="cls-1" x="381.9815" y="214.9894" width="40" height="40" transform="translate(-41.3062 92.4933) rotate(-12.4895)"/>
    <rect class="cls-1" x="305.6552" y="166.3448" width="40" height="40" transform="translate(-32.5929 74.8369) rotate(-12.4896)"/>
  </g>
</svg>
