<svg id="export" xmlns="http://www.w3.org/2000/svg" viewBox="0 0 512 512">
  <defs>
    <style>
      .cls-1 {
        fill: currentColor;
      }
    </style>
  </defs>
  <title>city</title>
  <g>
    <path class="cls-1" d="M312,115.0176V256H216V96.418L111.5034,10.9209,16,96.874V496H496V76.2808ZM184,256V464H128V392H96v72H48V111.126l64.4966-58.0469L184,111.582ZM464,464H216V288H344V140.9824l120-25.2632Z"/>
    <rect class="cls-1" x="96" y="128" width="32" height="32"/>
    <rect class="cls-1" x="96" y="216" width="32" height="32"/>
    <rect class="cls-1" x="96" y="304" width="32" height="32"/>
    <rect class="cls-1" x="256" y="320" width="32" height="32"/>
    <rect class="cls-1" x="384" y="248" width="32" height="32"/>
    <rect class="cls-1" x="384" y="176" width="32" height="32"/>
    <rect class="cls-1" x="384" y="320" width="32" height="32"/>
    <rect class="cls-1" x="384" y="384" width="32" height="32"/>
    <rect class="cls-1" x="256" y="384" width="32" height="32"/>
  </g>
</svg>
