<svg id="export" xmlns="http://www.w3.org/2000/svg" viewBox="0 0 512 512">
  <defs>
    <style>
      .cls-1 {
        fill: currentColor;
      }
    </style>
  </defs>
  <title>fridge</title>
  <g>
    <path class="cls-1" d="M376,16H136A48.054,48.054,0,0,0,88,64V464a32.0364,32.0364,0,0,0,32,32H392a32.0364,32.0364,0,0,0,32-32V64A48.054,48.054,0,0,0,376,16Zm16,448H120V240H392Zm0-256H120V64a16.0183,16.0183,0,0,1,16-16H376a16.0183,16.0183,0,0,1,16,16Z"/>
    <rect class="cls-1" x="144" y="280" width="32" height="96"/>
    <rect class="cls-1" x="144" y="104" width="32" height="64"/>
  </g>
</svg>
