<svg id="export" xmlns="http://www.w3.org/2000/svg" viewBox="0 0 512 512">
  <defs>
    <style>
      .cls-1 {
        fill: currentColor;
      }
    </style>
  </defs>
  <title>hot-tub</title>
  <g>
    <circle class="cls-1" cx="111.4852" cy="141.9122" r="34.0878"/>
    <path class="cls-1" d="M192,296h-3.041L154.05,200H82.2871v96H16V448a48.054,48.054,0,0,0,48,48H448a48.054,48.054,0,0,0,48-48V296ZM464,448a16.0183,16.0183,0,0,1-16,16H64a16.0183,16.0183,0,0,1-16-16V328H464Z"/>
    <path class="cls-1" d="M296,216a20.3736,20.3736,0,0,1,12.3623-18.7476l11.8809-5.0918a52.3969,52.3969,0,0,0,0-96.3208l-11.8809-5.0922A20.3736,20.3736,0,0,1,296,72V32H264V72a52.3368,52.3368,0,0,0,31.7568,48.16l11.8809,5.0922a20.3966,20.3966,0,0,1,0,37.4952l-11.8809,5.0918A52.3378,52.3378,0,0,0,264,216v48h32Z"/>
    <path class="cls-1" d="M408,216a20.3736,20.3736,0,0,1,12.3623-18.7476l11.8809-5.0918a52.3969,52.3969,0,0,0,0-96.3208l-11.8809-5.0922A20.3736,20.3736,0,0,1,408,72V32H376V72a52.3368,52.3368,0,0,0,31.7568,48.16l11.8809,5.0922a20.3966,20.3966,0,0,1,0,37.4952l-11.8809,5.0918A52.3378,52.3378,0,0,0,376,216v48h32Z"/>
    <rect class="cls-1" x="96" y="360" width="32" height="72"/>
    <rect class="cls-1" x="192" y="360" width="32" height="72"/>
    <rect class="cls-1" x="288" y="360" width="32" height="72"/>
    <rect class="cls-1" x="384" y="360" width="32" height="72"/>
  </g>
</svg>
