<svg id="export" xmlns="http://www.w3.org/2000/svg" viewBox="0 0 512 512">
  <defs>
    <style>
      .cls-1 {
        fill: currentColor;
      }
    </style>
  </defs>
  <title>industry#factory</title>
  <g>
    <path class="cls-1" d="M459.26,96,328,225.6973V96H293.4751L168,223.2671V16H16V496H496V96ZM464,464H48V48h88V264h36.7776L296,139.0181V264h38.7642L464,136.3027Z"/>
    <polygon class="cls-1" points="136 328 136 336 168 336 168 328 168 304 136 304 136 328"/>
    <rect class="cls-1" x="136" y="376" width="32" height="32"/>
    <polygon class="cls-1" points="216 328 216 336 248 336 248 328 248 304 216 304 216 328"/>
    <rect class="cls-1" x="216" y="376" width="32" height="32"/>
    <polygon class="cls-1" points="296 328 296 336 328 336 328 328 328 304 296 304 296 328"/>
    <rect class="cls-1" x="296" y="376" width="32" height="32"/>
    <rect class="cls-1" x="376" y="304" width="32" height="32"/>
    <rect class="cls-1" x="376" y="376" width="32" height="32"/>
  </g>
</svg>
