<svg id="export" xmlns="http://www.w3.org/2000/svg" viewBox="0 0 512 512">
  <defs>
    <style>
      .cls-1 {
        fill: currentColor;
      }
    </style>
  </defs>
  <title>laundry</title>
  <g>
    <path class="cls-1" d="M424,16H88A32.0364,32.0364,0,0,0,56,48V464a32.0364,32.0364,0,0,0,32,32H424a32.0364,32.0364,0,0,0,32-32V48A32.0364,32.0364,0,0,0,424,16Zm0,448H88V48H424l.0205,415.999Z"/>
    <rect class="cls-1" x="232" y="88" width="32" height="32"/>
    <rect class="cls-1" x="128" y="88" width="72" height="32"/>
    <path class="cls-1" d="M256,160c-74.9907,0-136,61.01-136,136s61.0093,136,136,136,136-61.01,136-136S330.9907,160,256,160Zm0,240a104.18,104.18,0,0,1-101.1716-79.8853l20.83-10.519a71.5129,71.5129,0,0,1,71.5659,3.8027c.3941.2608.7813.5225,1.1685.7891,13.3755,9.2,29.2739,13.8535,46.5337,13.8535a112.8706,112.8706,0,0,0,35.934-6.2207l27.8335-9.3706A104.1624,104.1624,0,0,1,256,400Zm64.6509-108.5078c-21.1216,7.1133-40.3438,5.8076-54.1157-3.6651q-.8086-.5565-1.6495-1.1132c-30.6753-20.3008-70.3925-22.4776-103.6513-5.6826l-8.7,4.3933A104.004,104.004,0,0,1,358.5581,278.73Z"/>
  </g>
</svg>
