<svg id="export" xmlns="http://www.w3.org/2000/svg" viewBox="0 0 512 512">
  <defs>
    <style>
      .cls-1 {
        fill: currentColor;
      }
    </style>
  </defs>
  <title>shower</title>
  <g>
    <polygon class="cls-1" points="240.801 293.826 216.95 317.677 240.75 365.277 264.167 340.559 240.801 293.826"/>
    <polygon class="cls-1" points="255.978 395.732 278.277 440.332 301.695 415.613 279.395 371.014 255.978 395.732"/>
    <polygon class="cls-1" points="438.926 202.62 415.8 227.032 460.223 248.278 483.35 223.866 438.926 202.62"/>
    <polygon class="cls-1" points="342.603 192.024 385.464 212.523 408.591 188.112 366.599 168.028 342.603 192.024"/>
    <polygon class="cls-1" points="307.785 341.046 336.308 379.077 358.633 355.512 330.11 317.481 307.785 341.046"/>
    <polygon class="cls-1" points="310.633 291.512 281.697 252.93 258.84 275.787 288.308 315.077 310.633 291.512"/>
    <polygon class="cls-1" points="300.743 233.884 337.426 263.231 359.511 239.918 323.51 211.117 300.743 233.884"/>
    <polygon class="cls-1" points="362.501 283.291 399.222 312.668 421.307 289.355 384.586 259.979 362.501 283.291"/>
    <path class="cls-1" d="M348.6865,100.6865l-26.2392,26.239L297.73,102.208a111.6092,111.6092,0,0,0-157.84.001c-.3413.3413-.6723.6894-1.0083,1.0342A77.9741,77.9741,0,0,0,16,166.9883V408H48V166.9883A45.9751,45.9751,0,0,1,120.0479,129.12,111.81,111.81,0,0,0,139.89,260.0488l24.7173,24.7173-23.92,23.92,20,20,208-208ZM185.0059,259.9111l-22.4893-22.4892A79.6106,79.6106,0,0,1,275.1025,124.835l22.4893,22.49Z"/>
  </g>
</svg>
