<svg id="export" xmlns="http://www.w3.org/2000/svg" viewBox="0 0 512 512">
  <defs>
    <style>
      .cls-1 {
        fill: currentColor;
      }
    </style>
  </defs>
  <title>smoke-free#smoke-slash</title>
  <g>
    <polygon class="cls-1" points="384 316.118 416 348.118 416 240 384 240 384 316.118"/>
    <rect class="cls-1" x="440" y="240" width="32" height="120"/>
    <path class="cls-1" d="M363.4512,114.0547a64.096,64.096,0,0,0-4.649,76.9932L364.77,200H403.23l-17.8015-26.7021a31.9819,31.9819,0,0,1,2.3194-38.418,63.7441,63.7441,0,0,0,3.48-78.6895l-5.85-8.19H348.8l-1.82,1.3,18.207,25.49A31.8072,31.8072,0,0,1,363.4512,114.0547Z"/>
    <path class="cls-1" d="M435.4512,114.0547a64.096,64.096,0,0,0-4.649,76.9932L436.77,200H475.23l-17.8015-26.7021a31.9819,31.9819,0,0,1,2.3194-38.418,63.7441,63.7441,0,0,0,3.48-78.6895l-5.85-8.19H420.8l-1.82,1.3,18.207,25.49A31.8072,31.8072,0,0,1,435.4512,114.0547Z"/>
    <path class="cls-1" d="M262.627,240l-224-224H16V38.627L217.373,240H16V360H337.373l136,136H496V473.373ZM48,328V272H249.373l56,56Z"/>
  </g>
</svg>
