<svg id="export" xmlns="http://www.w3.org/2000/svg" viewBox="0 0 512 512">
  <defs>
    <style>
      .cls-1 {
        fill: currentColor;
      }
    </style>
  </defs>
  <title>smoking-room#smoke</title>
  <g>
    <path class="cls-1" d="M16,240V360H360V240H16Zm312,88H48V272H328Z"/>
    <rect class="cls-1" x="384" y="240" width="32" height="120"/>
    <rect class="cls-1" x="440" y="240" width="32" height="120"/>
    <path class="cls-1" d="M385.4282,173.2979a31.9819,31.9819,0,0,1,2.3194-38.418,63.7441,63.7441,0,0,0,3.48-78.6895L385.3766,48H348.8l-1.82,1.3,18.207,25.49a31.8072,31.8072,0,0,1-1.7363,39.2647,64.096,64.096,0,0,0-4.649,76.9932L364.77,200H403.23Z"/>
    <path class="cls-1" d="M457.4282,173.2979a31.9819,31.9819,0,0,1,2.3194-38.418,63.7441,63.7441,0,0,0,3.48-78.6895L457.3766,48H420.8l-1.82,1.3,18.207,25.49a31.8072,31.8072,0,0,1-1.7363,39.2647,64.096,64.096,0,0,0-4.649,76.9932L436.77,200H475.23Z"/>
  </g>
</svg>
