<svg id="export" xmlns="http://www.w3.org/2000/svg" viewBox="0 0 512 512">
  <defs>
    <style>
      .cls-1 {
        fill: currentColor;
      }
    </style>
  </defs>
  <title>wc</title>
  <g>
    <path class="cls-1" d="M132,139.8242A61.9121,61.9121,0,1,0,70.0879,77.9121,61.9819,61.9819,0,0,0,132,139.8242ZM132,48a29.9121,29.9121,0,1,1-29.9121,29.9121A29.9465,29.9465,0,0,1,132,48Z"/>
    <path class="cls-1" d="M176,152H88a48.0537,48.0537,0,0,0-48,48V352H72V496H192V352h32V200A48.0537,48.0537,0,0,0,176,152Zm16,168H160V464H104V320H72V200a16.0183,16.0183,0,0,1,16-16h88a16.0183,16.0183,0,0,1,16,16Z"/>
    <path class="cls-1" d="M370.0879,139.8242a61.9121,61.9121,0,1,0-61.9121-61.9121A61.9819,61.9819,0,0,0,370.0879,139.8242Zm0-91.8242a29.9121,29.9121,0,1,1-29.9121,29.9121A29.9465,29.9465,0,0,1,370.0879,48Z"/>
    <path class="cls-1" d="M425.7588,193.3545a61.5861,61.5861,0,0,0-115.833-1.3926L248,357.0986V400h64v96H416V400h64V349.2969ZM448,368H384v96H344V368H280v-5.0986l59.8887-159.7032a29.5852,29.5852,0,0,1,55.6455.669L448,354.7031Z"/>
  </g>
</svg>
