<svg id="export" xmlns="http://www.w3.org/2000/svg" viewBox="0 0 512 512">
  <defs>
    <style>
      .cls-1, .cls-2 {
        fill:currentColor;
      }

      .cls-1 {
        opacity: 0.25;
      }
    </style>
  </defs>
  <title>comment-square-smile</title>
  <path class="cls-1" d="M456,32H56A24,24,0,0,0,32,56V328a24,24,0,0,0,24,24H388.7666l69.522,128H480V56A24,24,0,0,0,456,32Z"/>
  <rect class="cls-2" x="168" y="120" width="40" height="40"/>
  <rect class="cls-2" x="304" y="120" width="40" height="40"/>
  <path class="cls-2" d="M252.5625,282h6.875a97.5322,97.5322,0,0,0,90.9912-61.6035L355.3867,208H316.5918a61.685,61.685,0,0,1-57.1543,38h-6.875a61.6864,61.6864,0,0,1-57.1548-38H156.6133l4.958,12.3965A97.5322,97.5322,0,0,0,252.5625,282Z"/>
</svg>
