<svg id="export" xmlns="http://www.w3.org/2000/svg" viewBox="0 0 512 512">
  <defs>
    <style>
      .cls-1, .cls-2 {
        fill:currentColor;
      }

      .cls-1 {
        opacity: 0.25;
      }
    </style>
  </defs>
  <title>comment-bubble-plus</title>
  <path class="cls-1" d="M480,216C480,114.38,379.7119,32,256,32S32,114.38,32,216,132.2881,400,256,400a273.9693,273.9693,0,0,0,33.3477-2.0322l22.1062,19.1589A257.349,257.349,0,0,0,480,480V464a299.2686,299.2686,0,0,1-70.5925-112.0122l-.5349-1.5159C452.6335,316.89,480,269.0737,480,216Z"/>
  <polygon class="cls-2" points="235 304 277 304 277 237 344 237 344 195 277 195 277 128 235 128 235 195 168 195 168 237 235 237 235 304"/>
  <polygon class="cls-1" points="344 237 277 237 277 304 235 304 235 237 168 237 168 195 235 195 235 128 277 128 277 195 344 195 344 237"/>
</svg>
