<svg id="export" xmlns="http://www.w3.org/2000/svg" viewBox="0 0 512 512">
  <defs>
    <style>
      .cls-1, .cls-2 {
        fill:currentColor;
      }

      .cls-1 {
        opacity: 0.25;
      }
    </style>
  </defs>
  <title>speech-notes</title>
  <path class="cls-1" d="M464,48H48A16,16,0,0,0,32,64V352a16,16,0,0,0,16,16h80V480h8L248,368H464a16,16,0,0,0,16-16V64A16,16,0,0,0,464,48Z"/>
  <rect class="cls-2" x="192" y="110" width="224" height="36"/>
  <rect class="cls-2" x="192" y="190" width="224" height="36"/>
  <rect class="cls-2" x="192" y="270" width="224" height="36"/>
  <rect class="cls-2" x="104" y="110" width="40" height="36"/>
  <rect class="cls-2" x="104" y="190" width="40" height="36"/>
  <rect class="cls-2" x="104" y="270" width="40" height="36"/>
</svg>
