<svg id="export" xmlns="http://www.w3.org/2000/svg" viewBox="0 0 512 512">
  <defs>
    <style>
      .cls-1, .cls-2 {
        fill:currentColor;
      }

      .cls-1 {
        opacity: 0.25;
      }
    </style>
  </defs>
  <title>double-quote-serif-left</title>
  <rect class="cls-1" x="32" y="32" width="448" height="448"/>
  <path class="cls-2" d="M199,222H128V201.6667L222,107.4V67H182.4668L68,181.4668V353a24,24,0,0,0,24,24H199a24,24,0,0,0,24-24V246A24,24,0,0,0,199,222Z"/>
  <path class="cls-2" d="M289,181.4668V353a24,24,0,0,0,24,24H420a24,24,0,0,0,24-24V246a24,24,0,0,0-24-24H350V201.6667L444,107.4V67H403.4668Z"/>
</svg>
