<svg id="export" xmlns="http://www.w3.org/2000/svg" viewBox="0 0 512 512">
  <defs>
    <style>
      .cls-1, .cls-2 {
        fill:currentColor;
      }

      .cls-1 {
        opacity: 0.25;
      }
    </style>
  </defs>
  <title>double-quote-serif-right</title>
  <rect class="cls-1" x="32" y="32" width="448" height="448"/>
  <path class="cls-2" d="M420,67H313a24,24,0,0,0-24,24V198a24,24,0,0,0,24,24h71v20.3333L290,336.6V377h39.5333L444,262.5332V91A24,24,0,0,0,420,67Z"/>
  <path class="cls-2" d="M199,67H92A24,24,0,0,0,68,91V198a24,24,0,0,0,24,24h70v20.3333L68,336.6V377h40.5332L223,262.5332V91A24,24,0,0,0,199,67Z"/>
</svg>
