<svg id="export" xmlns="http://www.w3.org/2000/svg" viewBox="0 0 512 512">
  <defs>
    <style>
      .cls-1, .cls-2 {
        fill:currentColor;
      }

      .cls-1 {
        opacity: 0.25;
      }
    </style>
  </defs>
  <title>header</title>
  <rect class="cls-1" x="32" y="32" width="447.9999" height="447.9999"/>
  <polygon class="cls-2" points="288 144 320 144 320 240 192 240 192 144 224 144 224 112 96 112 96 144 128 144 128 368 96 368 96 400 224 400 224 368 192 368 192 272 320 272 320 368 288 368 288 400 416 400 416 368 384 368 384 144 416 144 416 112 288 112 288 144"/>
</svg>
