<svg id="export" xmlns="http://www.w3.org/2000/svg" viewBox="0 0 512 512">
  <defs>
    <style>
      .cls-1 {
        opacity: 0.25;
      }

      .cls-2 {
        fill:currentColor;
      }
    </style>
  </defs>
  <title>pen</title>
  <g class="cls-1">
    <path class="cls-2" d="M458.6678,51.6932a72.8315,72.8315,0,0,0-103,0l-48.44,48.44,103,103,48.44-48.4405A72.8315,72.8315,0,0,0,458.6678,51.6932Z"/>
  </g>
  <path class="cls-2" d="M281.7722,125.5886l-92.5666,92.5669A627.23,627.23,0,0,0,38.8381,460.0213l0,.0006a9,9,0,0,0,2.1587,9.2548l.0871.0874a9,9,0,0,0,9.2549,2.1586H50.34a626.8029,626.8029,0,0,0,120.2168-55.5664,626.8,626.8,0,0,0,121.649-94.8009l92.5669-92.5668Z"/>
</svg>
