<svg id="export" xmlns="http://www.w3.org/2000/svg" viewBox="0 0 512 512">
  <defs>
    <style>
      .cls-1, .cls-2 {
        fill:currentColor;
      }

      .cls-1 {
        opacity: 0.25;
      }
    </style>
  </defs>
  <title>sort-alpha-up</title>
  <polygon class="cls-1" points="97.529 40 97.196 40 97.196 40.333 16.089 121.44 16.089 128 97.196 128 97.196 496 145.196 496 145.196 128 226 128 226 120.471 121.529 16 97.529 40"/>
  <g>
    <polygon class="cls-2" points="423 329.456 423 279 274 279 274 321 370.259 321 269 414.544 269 465 426 465 426 423 321.741 423 423 329.456"/>
    <path class="cls-2" d="M318.4692,193h63.0616l11.6667,35h44.2717L377.1357,47H322.8643L262.5308,228h44.2717ZM350,98.4077,367.5308,151H332.4692Z"/>
  </g>
</svg>
