<svg id="export" xmlns="http://www.w3.org/2000/svg" viewBox="0 0 512 512">
  <defs>
    <style>
      .cls-1, .cls-2 {
        fill:currentColor;
      }

      .cls-2 {
        opacity: 0.25;
      }
    </style>
  </defs>
  <title>sort-numeric-up</title>
  <g>
    <polygon class="cls-1" points="418.6 195 383.6 195 383.6 48 341.6 48 341.6 72 306.6 72 306.6 112 341.6 112 341.6 195 306.6 195 306.6 237 418.6 237 418.6 195"/>
    <path class="cls-1" d="M423.6,327.6A60.6687,60.6687,0,0,0,363,267h-4.4A60.6687,60.6687,0,0,0,298,327.6V332a60.6687,60.6687,0,0,0,60.6,60.6H363a60.3874,60.3874,0,0,0,17.0591-2.4611A39.8622,39.8622,0,0,1,341.8,419H322.6v42h19.2a81.8925,81.8925,0,0,0,81.8-81.8V333.6H423.56c.0139-.5333.0405-1.0635.0405-1.6Zm-42,4.4A18.6209,18.6209,0,0,1,363,350.6h-4.4A18.6209,18.6209,0,0,1,340,332v-4.4A18.6209,18.6209,0,0,1,358.6,309H363a18.6209,18.6209,0,0,1,18.6,18.6Z"/>
  </g>
  <polygon class="cls-2" points="113.529 40 113.196 40 113.196 40.333 32.089 121.44 32.089 128 113.196 128 113.196 496 161.196 496 161.196 128 242 128 242 120.471 137.529 16 113.529 40"/>
</svg>
