<svg id="export" xmlns="http://www.w3.org/2000/svg" viewBox="0 0 512 512">
  <defs>
    <style>
      .cls-1 {
        fill: currentColor;
      }
    </style>
  </defs>
  <title>mood-very-good</title>
  <g>
    <path class="cls-1" d="M256,16C123.4517,16,16,123.4517,16,256S123.4517,496,256,496,496,388.5483,496,256,388.5483,16,256,16ZM403.0782,403.0781a207.25,207.25,0,1,1,44.5892-66.125A207.3438,207.3438,0,0,1,403.0782,403.0781Z"/>
    <path class="cls-1" d="M256,384A104,104,0,0,0,360,280H152A104,104,0,0,0,256,384Z"/>
    <polygon class="cls-1" points="205.757 228.292 226.243 203.708 168 155.173 109.757 203.708 130.243 228.292 168 196.827 205.757 228.292"/>
    <polygon class="cls-1" points="285.757 203.708 306.243 228.292 344 196.827 381.757 228.292 402.243 203.708 344 155.173 285.757 203.708"/>
  </g>
</svg>
