<svg id="export" xmlns="http://www.w3.org/2000/svg" viewBox="0 0 512 512">
  <defs>
    <style>
      .cls-1 {
        fill: currentColor;
      }
    </style>
  </defs>
  <title>smile#happy</title>
  <g>
    <path class="cls-1" d="M256,16C123.4517,16,16,123.4517,16,256S123.4517,496,256,496,496,388.5483,496,256,388.5483,16,256,16ZM403.0782,403.0781a207.25,207.25,0,1,1,44.5892-66.125A207.3457,207.3457,0,0,1,403.0782,403.0781Z"/>
    <rect class="cls-1" x="152" y="200" width="40" height="40"/>
    <rect class="cls-1" x="320" y="200" width="40" height="40"/>
    <path class="cls-1" d="M338.2891,307.1963A83.5991,83.5991,0,0,1,260.2969,360h-8.5938a83.5991,83.5991,0,0,1-77.9922-52.8037L172.4324,304H137.9676L144,319.0811A116,116,0,0,0,251.7031,392h8.5938A116,116,0,0,0,368,319.0811L374.0324,304H339.5676Z"/>
  </g>
</svg>
