<svg id="export" xmlns="http://www.w3.org/2000/svg" viewBox="0 0 512 512">
  <defs>
    <style>
      .cls-1 {
        fill: currentColor;
      }
    </style>
  </defs>
  <title>contacts</title>
  <path class="cls-1" d="M464,144H48a16,16,0,0,0-16,16V464a16,16,0,0,0,16,16h65.7338V450.7786a17.7831,17.7831,0,0,1,9.5841-15.78l86.9353-45.17-25.3863-63.466V263.1331A71.133,71.133,0,0,1,256,192h0a71.133,71.133,0,0,1,71.133,71.1331v63.2294l-25.3863,63.466,86.9353,45.17a17.7831,17.7831,0,0,1,9.5841,15.78V480H464a16,16,0,0,0,16-16V160A16,16,0,0,0,464,144Z"/>
  <rect class="cls-1" x="128" y="30" width="256" height="36"/>
  <rect class="cls-1" x="64" y="86" width="384" height="36"/>
</svg>
