<svg id="export" xmlns="http://www.w3.org/2000/svg" viewBox="0 0 512 512">
  <defs>
    <style>
      .cls-1 {
        fill: currentColor;
      }
    </style>
  </defs>
  <title>mobile-plus</title>
  <g>
    <polygon class="cls-1" points="392 208 392 152 344 152 344 208 288 208 288 256 344 256 344 312 392 312 392 256 448 256 448 208 392 208"/>
    <path class="cls-1" d="M120,88H392V56a40.0455,40.0455,0,0,0-40-40H112A40.0455,40.0455,0,0,0,72,56V456a40.0455,40.0455,0,0,0,40,40H352a40.0455,40.0455,0,0,0,40-40V368H120Zm94,326h36v36H214Z"/>
  </g>
</svg>
