<svg id="export" xmlns="http://www.w3.org/2000/svg" viewBox="0 0 512 512">
  <defs>
    <style>
      .cls-1 {
        fill: currentColor;
      }
    </style>
  </defs>
  <title>phone-square</title>
  <path class="cls-1" d="M456,40H56A16,16,0,0,0,40,56V456a16,16,0,0,0,16,16H456a16,16,0,0,0,16-16V56A16,16,0,0,0,456,40ZM394.26,154.2357C394.26,289.9676,284.2273,400,148.4954,400h-17.61a7.2725,7.2725,0,0,1-6.1671-3.4181L96,338.2911l82.2786-61.7089,41.1392,30.8544h0a82.2784,82.2784,0,0,0,82.2785-82.2785h0l-30.8545-41.1393L332.5508,101.74l58.2909,28.7182a7.2727,7.2727,0,0,1,3.4181,6.1671Z"/>
</svg>
