<svg id="export" xmlns="http://www.w3.org/2000/svg" viewBox="0 0 512 512">
  <defs>
    <style>
      .cls-1 {
        fill: currentColor;
      }
    </style>
  </defs>
  <title>phone-settings</title>
  <path class="cls-1" d="M453.3687,129.9937,379.4066,93.5549,301.1077,197.9535l39.1494,52.1993v0A104.3984,104.3984,0,0,1,235.8586,354.5515h0L183.6592,315.402,79.2605,393.7009l36.4388,73.9622A9.228,9.228,0,0,0,123.5244,472H145.869c172.2226,0,311.8366-139.614,311.8366-311.8367V137.8187A9.2276,9.2276,0,0,0,453.3687,129.9937Z"/>
  <circle class="cls-1" cx="255.1526" cy="84.1158" r="32.0001" transform="translate(72.9682 281.5675) rotate(-65.5487)"/>
  <circle class="cls-1" cx="164.8528" cy="163.1472" r="32"/>
  <circle class="cls-1" cx="74.5531" cy="242.1786" r="32.0001" transform="translate(-172.8287 297.0501) rotate(-85.3956)"/>
</svg>
