<svg xmlns="http://www.w3.org/2000/svg" viewBox="0 0 512 512">
  <defs>
    <style>
      .a {
        fill: currentColor;
      }
    </style>
  </defs>
  <title>contact</title>
  <path class="a" d="M472,48H40A24.0275,24.0275,0,0,0,16,72V440a24.0275,24.0275,0,0,0,24,24h88V405.1777a20.0094,20.0094,0,0,1,10.2842-17.48l91.9785-51.1231L200,260.9189V200a56,56,0,0,1,112,0v60.9189l-30.2627,75.6553,91.9785,51.1231h.001A20.0105,20.0105,0,0,1,384,405.1777V464h88a24.0275,24.0275,0,0,0,24-24V72A24.0275,24.0275,0,0,0,472,48Zm-8,384H416V405.1777a52.0268,52.0268,0,0,0-26.7383-45.4511h.001L321.915,322.2949,344,267.0811V200a88,88,0,0,0-176,0v67.0811l22.085,55.2138-67.3467,37.4317A52.0268,52.0268,0,0,0,96,405.1777V432H48V80H464Z"/>
</svg>
