<svg xmlns="http://www.w3.org/2000/svg" viewBox="0 0 512 512">
  <defs>
    <style>
      .a {
        fill: currentColor;
      }
    </style>
  </defs>
  <title>dialpad</title>
  <g>
    <path class="a" d="M121,16a48,48,0,1,0,48,48A48.054,48.054,0,0,0,121,16Zm0,64a16,16,0,1,1,16-16A16.0183,16.0183,0,0,1,121,80Z"/>
    <path class="a" d="M249,16a48,48,0,1,0,48,48A48.054,48.054,0,0,0,249,16Zm0,64a16,16,0,1,1,16-16A16.0183,16.0183,0,0,1,249,80Z"/>
    <path class="a" d="M377,112a48,48,0,1,0-48-48A48.054,48.054,0,0,0,377,112Zm0-64a16,16,0,1,1-16,16A16.0183,16.0183,0,0,1,377,48Z"/>
    <path class="a" d="M121,144a48,48,0,1,0,48,48A48.054,48.054,0,0,0,121,144Zm0,64a16,16,0,1,1,16-16A16.0183,16.0183,0,0,1,121,208Z"/>
    <path class="a" d="M249,144a48,48,0,1,0,48,48A48.054,48.054,0,0,0,249,144Zm0,64a16,16,0,1,1,16-16A16.0183,16.0183,0,0,1,249,208Z"/>
    <path class="a" d="M377,144a48,48,0,1,0,48,48A48.054,48.054,0,0,0,377,144Zm0,64a16,16,0,1,1,16-16A16.0183,16.0183,0,0,1,377,208Z"/>
    <path class="a" d="M121,272a48,48,0,1,0,48,48A48.054,48.054,0,0,0,121,272Zm0,64a16,16,0,1,1,16-16A16.0183,16.0183,0,0,1,121,336Z"/>
    <path class="a" d="M249,272a48,48,0,1,0,48,48A48.054,48.054,0,0,0,249,272Zm0,64a16,16,0,1,1,16-16A16.0183,16.0183,0,0,1,249,336Z"/>
    <path class="a" d="M377,272a48,48,0,1,0,48,48A48.054,48.054,0,0,0,377,272Zm0,64a16,16,0,1,1,16-16A16.0183,16.0183,0,0,1,377,336Z"/>
    <path class="a" d="M249,400a48,48,0,1,0,48,48A48.054,48.054,0,0,0,249,400Zm0,64a16,16,0,1,1,16-16A16.0183,16.0183,0,0,1,249,464Z"/>
  </g>
</svg>
