<svg id="export" xmlns="http://www.w3.org/2000/svg" viewBox="0 0 512 512">
  <defs>
    <style>
      .cls-1 {
        fill:currentColor;
      }
    </style>
  </defs>
  <title>mobile-plus</title>
  <g>
    <rect class="cls-1" x="208" y="400" width="32" height="32"/>
    <path class="cls-1" d="M240.8511,336H104V112H384V48a32.0364,32.0364,0,0,0-32-32H104A32.0364,32.0364,0,0,0,72,48V464a32.0364,32.0364,0,0,0,32,32H352a32.0364,32.0364,0,0,0,32-32V336H240.8511ZM104,48H352l.0016,32H104ZM352,464H104V368H352.0157l.0048,95.999Z"/>
    <polygon class="cls-1" points="385.276 206.724 385.276 149.447 353.276 149.447 353.276 206.724 296 206.724 296 238.724 353.276 238.724 353.276 296 385.276 296 385.276 238.724 442.553 238.724 442.553 206.724 385.276 206.724"/>
  </g>
</svg>
