<svg id="export" xmlns="http://www.w3.org/2000/svg" viewBox="0 0 512 512">
  <defs>
    <style>
      .cls-1 {
        fill:currentColor;
      }
    </style>
  </defs>
  <title>mobile-minus</title>
  <g>
    <rect class="cls-1" x="208" y="400" width="32" height="32"/>
    <path class="cls-1" d="M240.8511,336H104V112H384V48a32.0361,32.0361,0,0,0-32-32H104A32.0361,32.0361,0,0,0,72,48V464a32.0361,32.0361,0,0,0,32,32H352a32.0361,32.0361,0,0,0,32-32V336H240.8511ZM104,48H352l.0015,32H104ZM352,464H104V368H352.0154l.0046,95.999Z"/>
    <rect class="cls-1" x="296" y="206.7236" width="146.5532" height="32"/>
  </g>
</svg>
