<svg xmlns="http://www.w3.org/2000/svg" viewBox="0 0 512 512">
  <defs>
    <style>
      .a {
        fill: currentColor;
      }
    </style>
  </defs>
  <title>mobile-slash</title>
  <g>
    <path class="a" d="M368,48l.0016,32H153.4554l32,32H368.0032l.0089,182.5569L400,326.5448V48a32.0364,32.0364,0,0,0-32-32H89.4555l32,32Z"/>
    <rect class="a" x="232" y="400" width="32" height="32"/>
    <path class="a" d="M38.627,16H16V38.627l72,72V464a32.0367,32.0367,0,0,0,32,32H368a32.0367,32.0367,0,0,0,32-32V422.627L473.373,496H496V473.373ZM313.373,336H120V142.627Zm54.6475,127.999L368,464H120V368H345.373l22.6439,22.6438Z"/>
  </g>
</svg>
