<svg xmlns="http://www.w3.org/2000/svg" viewBox="0 0 512 512">
  <defs>
    <style>
      .a {
        fill: currentColor;
      }
    </style>
  </defs>
  <title>mobile-arrow-remove</title>
  <g>
    <path class="a" d="M392,16H144a32.0364,32.0364,0,0,0-32,32v64H392.0032l.011,224H112V464a32.0367,32.0367,0,0,0,32,32H392a32.0367,32.0367,0,0,0,32-32V48A32.0364,32.0364,0,0,0,392,16ZM144,80V48H392l.0016,32ZM392,464H144V368H392.0157l.0048,95.999Z"/>
    <rect class="a" x="256" y="400" width="32" height="32"/>
    <polygon class="a" points="232 272 144.244 272 258.986 163.632 237.014 140.368 120 250.881 120 168 96 168 88 168 88 304 96 304 232 304 232 272"/>
  </g>
</svg>
