<svg id="export" xmlns="http://www.w3.org/2000/svg" viewBox="0 0 512 512">
  <defs>
    <style>
      .cls-1 {
        fill:currentColor;
      }
    </style>
  </defs>
  <title>phone-plus</title>
  <path class="cls-1" d="M460.1436,102.8711l-.6846-.4287L372.8652,59.7813,279.4023,184.3984l43.002,57.336A88.5291,88.5291,0,0,1,239.29,324.85l-57.3369-43.0029L57.3359,375.3105,99.998,461.9033l.4278.6846a25.0812,25.0812,0,0,0,21.3926,11.8574h22.3447A327.8379,327.8379,0,0,0,472,146.6084V124.2637A25.0838,25.0838,0,0,0,460.1436,102.8711ZM440,146.6084c0,163.125-132.7119,295.8369-295.8369,295.8369H126.084L97.7734,384.9824l84.18-63.1357,46.8672,35.15h5.333A120.5354,120.5354,0,0,0,354.5518,236.5977v-5.3331l-35.1495-46.8662,63.1348-84.18L440,128.5293Z"/>
  <polygon class="cls-1" points="200 104 144 104 144 48 112 48 112 104 56 104 56 136 112 136 112 192 144 192 144 136 200 136 200 104"/>
</svg>
