<svg xmlns="http://www.w3.org/2000/svg" viewBox="0 0 512 512">
  <defs>
    <style>
      .a {
        fill: currentColor;
      }
    </style>
  </defs>
  <title>phone-missed</title>
  <g>
    <polygon class="a" points="128 101.118 256.319 222.309 419.313 59.313 396.687 36.687 255.682 177.691 152.243 80 216 80 216 48 96 48 96 168 128 168 128 101.118"/>
    <path class="a" d="M488.3887,355.6055l-14.7813-14.7813a307.7439,307.7439,0,0,0-435.2148,0h0L23.61,355.6064a24.4932,24.4932,0,0,0-6.5826,22.9571l.1812.7861L46.563,465.7168l145.8818-20.84,9.5391-66.7725a81.6856,81.6856,0,0,1,108.0322,0l9.5391,66.7725,145.8818,20.84L494.7915,379.35l.1812-.7861A24.4927,24.4927,0,0,0,488.3887,355.6055Zm-44.7066,74.6787-95.8427-13.6924-7.69-53.8311-3.771-3.7714a113.6706,113.6706,0,0,0-160.7558,0l-3.771,3.7714-7.6905,53.8311L68.3179,430.2842,49.5137,374.958,61.02,363.4512h0a275.7444,275.7444,0,0,1,389.96,0l11.5063,11.5068Z"/>
  </g>
</svg>
