<svg xmlns="http://www.w3.org/2000/svg" viewBox="0 0 512 512">
  <defs>
    <style>
      .a {
        fill: currentColor;
      }
    </style>
  </defs>
  <title>phone-call-end</title>
  <path class="a" d="M488.3887,243.6045l-14.7823-14.78a307.7415,307.7415,0,0,0-435.2128,0v-.001L23.6084,243.6074a24.4971,24.4971,0,0,0-6.582,22.9531l.1816.7881,29.3555,86.3682,145.8818-20.84,9.5381-66.77a81.7958,81.7958,0,0,1,108.0332,0l9.5381,66.77,145.8818,20.84,29.0948-85.6035.2607-.7647.1816-.7881A24.4988,24.4988,0,0,0,488.3887,243.6045Zm-44.7071,74.68L347.84,304.5918l-7.69-53.8311-3.7715-3.7714a113.8,113.8,0,0,0-160.7558,0l-3.7715,3.7714-7.69,53.8311L68.3184,318.2842,49.5137,262.958l11.5068-11.5059v-.0009a275.7427,275.7427,0,0,1,389.959.0009l11.5068,11.5059Z"/>
</svg>
