<svg xmlns="http://www.w3.org/2000/svg" viewBox="0 0 512 512">
  <defs>
    <style>
      .a {
        fill: currentColor;
      }
    </style>
  </defs>
  <title>phone-settings</title>
  <path class="a" d="M461.8486,116.4258l-.6845-.4278L374.57,73.3359,281.1074,197.9536l43.002,57.336a88.5377,88.5377,0,0,1-83.1143,83.1147l-57.3359-43.002L59.042,388.8652l42.6611,86.5938.4287.6846A25.0839,25.0839,0,0,0,123.5244,488h22.3447a327.8379,327.8379,0,0,0,327.837-327.8364V137.8188A25.0853,25.0853,0,0,0,461.8486,116.4258Zm-20.1425,43.7378C441.7061,323.2881,308.9941,456,145.8691,456H127.79L99.48,398.5371l84.18-63.1348,46.8662,35.1495h5.333a120.5352,120.5352,0,0,0,120.3984-120.399v-5.3335l-35.1494-46.8657,63.1348-84.18,57.4639,28.3111Z"/>
  <path class="a" d="M300.0983,48.4092a47.9763,47.9763,0,1,0-4.5079,67.7324h.001a48,48,0,0,0,4.5069-67.7324ZM274.5162,92.0615a15.9933,15.9933,0,1,1,1.502-22.5771A16.02,16.02,0,0,1,274.5162,92.0615Z"/>
  <path class="a" d="M136.3846,123.8774a48,48,0,0,0,28.4248,84.0137q1.6349.1092,3.2569.1089A47.6482,47.6482,0,0,0,199.61,196.1172h-.001a48,48,0,1,0-63.2246-72.24ZM183.9618,161.06a15.8961,15.8961,0,0,1-5.4268,10.9775l-.0009,0a16,16,0,1,1,5.4277-10.978Z"/>
  <path class="a" d="M48.3658,211.8582a47.9995,47.9995,0,0,0,28.4248,84.0136q1.6349.1092,3.2569.1089a47.6482,47.6482,0,0,0,31.5439-11.8828h-.001a48,48,0,1,0-63.2246-72.24ZM95.943,249.04a15.8961,15.8961,0,0,1-5.4268,10.9775l-.001,0A15.9994,15.9994,0,1,1,95.943,249.04Z"/>
</svg>
