<svg xmlns="http://www.w3.org/2000/svg" viewBox="0 0 512 512">
  <defs>
    <style>
      .a {
        fill: currentColor;
      }
    </style>
  </defs>
  <title>phone-lock</title>
  <g>
    <path class="a" d="M460.1445,102.8711l-.685-.4277L372.8652,59.7813,279.4019,184.3984l43.0019,57.336A88.5283,88.5283,0,0,1,239.29,324.85l-57.336-43.0029L57.3359,375.3105l42.6626,86.5948.4287.6855a25.0868,25.0868,0,0,0,21.3916,11.8545h22.3448A327.8371,327.8371,0,0,0,472,146.6084V124.2637A25.0876,25.0876,0,0,0,460.1445,102.8711ZM440,146.6084c0,163.125-132.7114,295.8369-295.8364,295.8369h-18.08L97.7734,384.9824l84.18-63.1357,46.8657,35.15h5.3335A120.5351,120.5351,0,0,0,354.5513,236.5977v-5.3331l-35.1494-46.8662,63.1352-84.18L440,128.5293Z"/>
    <path class="a" d="M156,241.1484a84.0953,84.0953,0,0,0,84-84V98.2754H212.5V73.5273a56.3132,56.3132,0,0,0-56.249-56.25H152.25A56.3133,56.3133,0,0,0,96,73.5273V98.2754H72v58.873A84.0953,84.0953,0,0,0,156,241.1484Zm52-84a52,52,0,1,1-104,0v-26.873H208ZM128,73.5273a24.2776,24.2776,0,0,1,24.25-24.25h4.0015a24.2772,24.2772,0,0,1,24.249,24.25V98.2754H128Z"/>
  </g>
</svg>
