<svg xmlns="http://www.w3.org/2000/svg" viewBox="0 0 512 512">
  <defs>
    <style>
      .a {
        fill: currentColor;
      }
    </style>
  </defs>
  <title>phone-in-talk</title>
  <g>
    <path class="a" d="M460.1445,102.8711l-.685-.4277L372.8652,59.7813,279.4019,184.3984l43.0019,57.336A88.5283,88.5283,0,0,1,239.29,324.85l-57.336-43.0029L57.3359,375.3105l42.6626,86.5948.4287.6855a25.0868,25.0868,0,0,0,21.3916,11.8545h22.3448A327.8371,327.8371,0,0,0,472,146.6084V124.2637A25.0876,25.0876,0,0,0,460.1445,102.8711ZM440,146.6084c0,163.125-132.7114,295.8369-295.8364,295.8369h-18.08L97.7734,384.9824l84.18-63.1357,46.8657,35.15h5.3335A120.5351,120.5351,0,0,0,354.5513,236.5977v-5.3331l-35.1494-46.8662,63.1352-84.18L440,128.5293Z"/>
    <path class="a" d="M200.4653,256a55.4915,55.4915,0,0,1,55.4287-55.4287v-32A87.5278,87.5278,0,0,0,168.4653,256Z"/>
    <path class="a" d="M255.894,104.2861C172.2383,104.2861,104.18,172.3447,104.18,256h32A119.85,119.85,0,0,1,255.894,136.2861Z"/>
    <path class="a" d="M255.894,72V40a216,216,0,0,0-216,216h32C71.894,154.542,154.436,72,255.894,72Z"/>
  </g>
</svg>
