<svg xmlns="http://www.w3.org/2000/svg" viewBox="0 0 512 512">
  <defs>
    <style>
      .a {
        fill: currentColor;
      }
    </style>
  </defs>
  <title>voicemail</title>
  <path class="a" d="M382.4031,152.012c-55.7869.8413-101.3416,46.2245-102.3845,102.008A103.6419,103.6419,0,0,0,309.0261,328H202.9739a103.6419,103.6419,0,0,0,29.0075-73.98c-1.0429-55.7835-46.5976-101.1667-102.3845-102.008a103.9155,103.9155,0,1,0-3.5295,207.7988L136,360H376l9.9326-.1892a103.9144,103.9144,0,0,0-3.5295-207.7988ZM128,328a72,72,0,1,1,72-72A72.0812,72.0812,0,0,1,128,328Zm256,0a72,72,0,1,1,72-72A72.0812,72.0812,0,0,1,384,328Z"/>
</svg>
