<svg id="export" xmlns="http://www.w3.org/2000/svg" viewBox="0 0 512 512"><defs><style>.cls-1,.cls-2{fill:currentColor;}.cls-2{opacity:0.25;}</style></defs><title>rain</title><path class="cls-1" d="M383.76,152.24A128,128,0,0,0,256,32h0A128,128,0,0,0,128.23,152.49C75.93,156.1,32,196.61,32,249.62h0A97.78,97.78,0,0,0,43.85,296H469.63A107.79,107.79,0,0,0,480,249.62h0C480,194.43,438.75,152.81,383.76,152.24Z"/><polygon class="cls-2" points="126.39 496 170.67 496 224 336 179.73 336 126.39 496"/><polygon class="cls-2" points="320 496 364.27 496 417.61 336 373.33 336 320 496"/><polygon class="cls-2" points="275.73 336 238.4 448 282.67 448 320 336 275.73 336"/><polygon class="cls-2" points="82.93 336 45.59 448 89.86 448 127.2 336 82.93 336"/></svg>