<svg id="export" xmlns="http://www.w3.org/2000/svg" viewBox="0 0 512 512">
  <defs>
    <style>
      .cls-1, .cls-2 {
        fill:currentColor;
      }

      .cls-1 {
        opacity: 0.25;
      }
    </style>
  </defs>
  <title>frown#sad</title>
  <path class="cls-1" d="M342.3,32A240.7382,240.7382,0,0,0,169.7,32C79.794,66.6612,16,153.8745,16,256a240,240,0,1,0,480,0C496,153.8745,432.206,66.6612,342.3,32Z"/>
  <rect class="cls-2" x="144" y="176" width="48" height="48"/>
  <path class="cls-2" d="M256,282a98.1107,98.1107,0,0,0-98,98h36a62,62,0,0,1,124,0h36A98.1107,98.1107,0,0,0,256,282Z"/>
  <rect class="cls-2" x="320" y="176" width="48" height="48"/>
</svg>
