<svg id="export" xmlns="http://www.w3.org/2000/svg" viewBox="0 0 512 512">
  <defs>
    <style>
      .cls-1, .cls-2 {
        fill:currentColor;
      }

      .cls-1 {
        opacity: 0.25;
      }
    </style>
  </defs>
  <title>smile#happy</title>
  <path class="cls-1" d="M256,16a240,240,0,0,0,0,480c132.5483,0,240-107.4517,240-240S388.5483,16,256,16Z"/>
  <rect class="cls-2" x="320" y="192" width="48" height="48"/>
  <rect class="cls-2" x="144" y="192" width="48" height="48"/>
  <path class="cls-2" d="M336.4321,306.4531A81.6087,81.6087,0,0,1,260.2969,358h-8.5938a81.6093,81.6093,0,0,1-76.1352-51.5459L174.5862,304H135.8137l6.3294,15.8242A117.9993,117.9993,0,0,0,251.7031,394h8.5938a117.9982,117.9982,0,0,0,109.56-74.1768L376.1862,304H337.4135Z"/>
</svg>
