<svg id="export" xmlns="http://www.w3.org/2000/svg" viewBox="0 0 512 512">
  <defs>
    <style>
      .cls-1 {
        fill: none;
      }

      .cls-2 {
        opacity: 0.25;
      }

      .cls-3 {
        fill: currentColor;
      }

      .cls-4 {
        fill: #fff;
      }
    </style>
  </defs>
  <title>alarm-off</title>
  <path class="cls-1" d="M123.1179,93.0585l-.05.0351,20.13,20.13.0511-.0337Z"/>
  <path class="cls-1" d="M430.7764,400.8013,496,466.0249v-.084l-65.19-65.19Z"/>
  <g class="cls-2">
    <path class="cls-3" d="M256,80a207.3577,207.3577,0,0,0-79.3447,15.6844L316.5676,235.5969h0L448.3156,367.3447A207.3577,207.3577,0,0,0,464,288C464,173.1248,370.8752,80,256,80Z"/>
    <path class="cls-3" d="M48,288c0,114.8752,93.1248,208,208,208a207.3553,207.3553,0,0,0,148.3521-62.2264L110.2263,139.648A207.3548,207.3548,0,0,0,48,288Z"/>
  </g>
  <g>
    <polygon class="cls-3" points="118.521 37.55 152.963 71.992 181.84 51.607 154.16 12.393 118.521 37.55"/>
    <rect class="cls-3" x="387.9999" y="-3.2346" width="48.0002" height="166.4692" transform="translate(109.0511 370.4582) rotate(-54.7828)"/>
  </g>
  <polygon class="cls-3" points="430.776 400.801 143.198 113.224 123.068 93.094 88.626 58.651 45.975 16 16 16 16 45.422 53.808 83.229 18.16 108.393 45.84 147.607 88.25 117.671 110.226 139.648 404.352 433.774 466.579 496 496 496 496 466.025 430.776 400.801"/>
  <path class="cls-4" d="M72,16v-.1984c-.0752.0666-.1517.1318-.2269.1984Z"/>
</svg>
