<svg id="export" xmlns="http://www.w3.org/2000/svg" viewBox="0 0 512 512">
  <defs>
    <style>
      .cls-1, .cls-2 {
        fill: currentColor;
      }

      .cls-1 {
        opacity: 0.25;
      }
    </style>
  </defs>
  <title>bell-exclamation</title>
  <path class="cls-1" d="M256,464a72,72,0,0,0,72-72H184A72,72,0,0,0,256,464Z"/>
  <path class="cls-2" d="M437.6028,348.19,392,264V176A135.9926,135.9926,0,0,0,168.3745,72H168v.3168A135.6923,135.6923,0,0,0,120,176v88L74.3972,348.19A8,8,0,0,0,81.4316,360H430.5684A8,8,0,0,0,437.6028,348.19ZM238,304V264h36v40Zm36-72H238V120h36Z"/>
</svg>
