<svg id="export" xmlns="http://www.w3.org/2000/svg" viewBox="0 0 512 512">
  <defs>
    <style>
      .cls-1, .cls-2 {
        fill: currentColor;
      }

      .cls-1 {
        opacity: 0.25;
      }
    </style>
  </defs>
  <title>bell-plus</title>
  <path class="cls-1" d="M256,464a72,72,0,0,0,72-72H184A72,72,0,0,0,256,464Z"/>
  <path class="cls-2" d="M437.6025,348.19,392,264V176a136,136,0,0,0-272,0v88L74.3972,348.19A8,8,0,0,0,81.4316,360H430.5684A8,8,0,0,0,437.6025,348.19ZM328,222H274v54H238V222H184V186h54V132h36v54h54Z"/>
</svg>
