<svg id="export" xmlns="http://www.w3.org/2000/svg" viewBox="0 0 512 512">
  <defs>
    <style>
      .cls-1 {
        fill: none;
      }

      .cls-2 {
        fill: #fff;
      }

      .cls-3 {
        opacity: 0.25;
      }

      .cls-4 {
        fill: currentColor;
      }
    </style>
  </defs>
  <title>report-slash</title>
  <polygon class="cls-1" points="437.367 407.392 496 466.024 496 465.941 437.407 407.348 437.367 407.392"/>
  <path class="cls-2" d="M72,16v-.1984c-.0752.0666-.1519.1318-.2271.1984Z"/>
  <polygon class="cls-1" points="437.367 407.392 496 466.024 496 465.941 437.407 407.348 437.367 407.392"/>
  <path class="cls-2" d="M72,16v-.1984c-.0752.0666-.1519.1318-.2271.1984Z"/>
  <g class="cls-3">
    <polygon class="cls-4" points="355.411 16 156.589 16 127.942 46.971 224 143.029 288 207.029 316.568 235.597 316.568 235.597 461.871 380.9 496 344 496 168 355.411 16"/>
    <polygon class="cls-4" points="74.899 104.321 16 168 16 344 156.589 496 355.411 496 408.826 438.249 74.899 104.321"/>
  </g>
  <g>
    <rect class="cls-4" x="236" y="344" width="40" height="40"/>
    <polygon class="cls-4" points="288 120 224 120 224 143.029 288 207.029 288 120"/>
    <polygon class="cls-4" points="437.367 407.392 283.764 253.787 224 194.024 103.439 73.463 45.977 16 16 16 16 45.422 74.899 104.321 229.171 258.593 238 304 274 304 274.094 303.516 408.826 438.249 466.577 496 496 496 496 466.024 437.367 407.392"/>
  </g>
</svg>
