<svg id="export" xmlns="http://www.w3.org/2000/svg" viewBox="0 0 512 512">
  <defs>
    <style>
      .cls-1 {
        fill: currentColor;
      }
    </style>
  </defs>
  <title>applications-settings#apps-settings</title>
  <g>
    <circle class="cls-1" cx="88" cy="96" r="64"/>
    <circle class="cls-1" cx="256" cy="96" r="64"/>
    <circle class="cls-1" cx="424" cy="96" r="64"/>
    <circle class="cls-1" cx="88" cy="256" r="64"/>
    <circle class="cls-1" cx="256" cy="256" r="64"/>
    <circle class="cls-1" cx="424" cy="256" r="64"/>
    <circle class="cls-1" cx="424" cy="416" r="64"/>
    <path class="cls-1" d="M64,392h0a32,32,0,0,0-32,32h0a32,32,0,0,0,32,32h0a32,32,0,0,0,32-32h0A32,32,0,0,0,64,392Z"/>
    <path class="cls-1" d="M160,392h0a32,32,0,0,0-32,32h0a32,32,0,0,0,32,32h0a32,32,0,0,0,32-32h0A32,32,0,0,0,160,392Z"/>
    <path class="cls-1" d="M256,392h0a32,32,0,0,0-32,32h0a32,32,0,0,0,32,32h0a32,32,0,0,0,32-32h0A32,32,0,0,0,256,392Z"/>
  </g>
</svg>
