<svg id="export" xmlns="http://www.w3.org/2000/svg" viewBox="0 0 512 512">
  <defs>
    <style>
      .cls-1 {
        fill: currentColor;
      }
    </style>
  </defs>
  <title>ban</title>
  <path class="cls-1" d="M419.7236,91.8457A233.11,233.11,0,1,0,90.0562,421.5132,233.11,233.11,0,1,0,419.7236,91.8457ZM254.89,87.5693a168.1439,168.1439,0,0,1,95.0157,29.2886L115.0682,351.6951A168.1454,168.1454,0,0,1,85.78,256.6792C85.78,163.4316,161.6421,87.5693,254.89,87.5693Zm0,338.22a168.1481,168.1481,0,0,1-94.4859-28.9209L395.0794,162.194A168.1467,168.1467,0,0,1,424,256.6792C424,349.9272,348.1377,425.79,254.89,425.79Z"/>
</svg>
