<svg id="export" xmlns="http://www.w3.org/2000/svg" viewBox="0 0 512 512">
  <defs>
    <style>
      .cls-1 {
        fill: currentColor;
      }
    </style>
  </defs>
  <title>brightness-high</title>
  <g>
    <path class="cls-1" d="M415.0254,318.981,499,256l-83.87-62.9028-2.148-5.0108L427.8267,84.1733,324.043,98.999l-5.062-2.0244L256,13,193.0972,96.87l-5.0108,2.148L84.1733,84.1733,98.999,187.957l-2.0244,5.062L13,256l83.87,62.9028,2.148,5.0108L84.1733,427.8267,187.957,413.001l5.062,2.0244L256,499l62.9028-83.87,5.0108-2.148,103.9131,14.8448L413.001,324.043Zm-42.1528,21.1469a144.8193,144.8193,0,0,1-32.7442,32.7444,143.2275,143.2275,0,0,1-60.9831,25.2671,144.8918,144.8918,0,0,1-46.2908,0,143.2249,143.2249,0,0,1-60.9824-25.267,144.8127,144.8127,0,0,1-32.7444-32.7441,143.2258,143.2258,0,0,1-25.2671-60.983,144.8924,144.8924,0,0,1,0-46.2909,143.2278,143.2278,0,0,1,25.2668-60.9823,144.8193,144.8193,0,0,1,32.7442-32.7444,143.2275,143.2275,0,0,1,60.9831-25.2671,144.8918,144.8918,0,0,1,46.2908,0,143.2249,143.2249,0,0,1,60.9824,25.267,144.8127,144.8127,0,0,1,32.7444,32.7441,143.2258,143.2258,0,0,1,25.2671,60.983,144.8924,144.8924,0,0,1,0,46.2909A143.2278,143.2278,0,0,1,372.8726,340.1279Z"/>
    <circle class="cls-1" cx="256" cy="256" r="96"/>
  </g>
</svg>
