<svg id="export" xmlns="http://www.w3.org/2000/svg" viewBox="0 0 512 512">
  <defs>
    <style>
      .cls-1 {
        fill: currentColor;
      }
    </style>
  </defs>
  <title>infinity</title>
  <path class="cls-1" d="M460.5205,170.3442a121.1352,121.1352,0,0,0-171.3115,0l-32.9736,32.9732-32.9737-32.9732a121.0789,121.0789,0,1,0,0,171.3121l32.9737-32.9737,32.9736,32.9737A121.1357,121.1357,0,0,0,460.5205,170.3442ZM178.0078,296.4014a57.1092,57.1092,0,1,1,0-80.8023L218.4082,256Zm237.2578,0a57.2044,57.2044,0,0,1-80.8027,0L294.0625,256l40.4-40.4009a57.1349,57.1349,0,0,1,80.8017,0h.001A57.2021,57.2021,0,0,1,415.2656,296.4014Z"/>
</svg>
