<svg id="export" xmlns="http://www.w3.org/2000/svg" viewBox="0 0 512 512">
  <defs>
    <style>
      .cls-1 {
        fill: currentColor;
      }
    </style>
  </defs>
  <title>pin</title>
  <path class="cls-1" d="M466.49,151.5074l-106-106A46.125,46.125,0,0,0,295.26,110.7379l4.4984,4.4985-16.8432,18.9717-108.02,47.4531-49.4909-26.7436a8,8,0,0,0-9.62,1.5459L74.2313,200.47a8,8,0,0,0,.16,11.1494l96.0227,96.0225L16,462.0562v33.9414H49.9414l154.4139-154.414,95.5577,95.5576a8,8,0,0,0,11.0915.2139l44.4267-41.128a8,8,0,0,0,1.5908-9.6972l-27.2046-49.9453L376.2346,236.86l20.5259-24.6206,4.499,4.4991a46.1255,46.1255,0,0,0,65.2307,0v-.0005A46.1248,46.1248,0,0,0,466.49,151.5074Z"/>
</svg>
