<svg id="export" xmlns="http://www.w3.org/2000/svg" viewBox="0 0 512 512">
  <defs>
    <style>
      .cls-1 {
        fill: currentColor;
      }
    </style>
  </defs>
  <title>power-standby</title>
  <g>
    <path class="cls-1" d="M408.7354,127.2623A215.0815,215.0815,0,0,0,324,74.8663v69.2178a152.1655,152.1655,0,0,1,84,135.9135c0,83.8135-68.1865,152-152,152s-152-68.1865-152-152a152.1655,152.1655,0,0,1,84-135.9135V74.8663a216.1171,216.1171,0,1,0,220.7354,52.396Z"/>
    <polygon class="cls-1" points="288 131.398 288 66.337 288 15.998 224 15.998 224 66.337 224 131.398 224 287.998 288 287.998 288 131.398"/>
  </g>
</svg>
