<svg id="export" xmlns="http://www.w3.org/2000/svg" viewBox="0 0 512 512">
  <defs>
    <style>
      .cls-1 {
        fill: currentColor;
      }
    </style>
  </defs>
  <title>child#baby</title>
  <path class="cls-1" d="M425.39,200.0352A184.3847,184.3847,0,0,0,299.1214,93.0893L324.3521,52.72,283.6479,27.28,245.5134,88.2951A184.0912,184.0912,0,0,0,86.61,200.0352a71.9778,71.9778,0,0,0,0,143.93,184.0709,184.0709,0,0,0,338.78,0,71.9778,71.9778,0,0,0,0-143.93ZM306,222h36v36H306Zm-136,0h36v36H170Zm86,162a88,88,0,0,1-88-88H344A88,88,0,0,1,256,384Z"/>
</svg>
