<svg id="export" xmlns="http://www.w3.org/2000/svg" viewBox="0 0 512 512">
  <defs>
    <style>
      .cls-1 {
        fill: currentColor;
      }
    </style>
  </defs>
  <title>face-dead</title>
  <path class="cls-1" d="M256,16C123.4517,16,16,123.4517,16,256S123.4517,496,256,496,496,388.5483,496,256,388.5483,16,256,16ZM118.5469,232.0415l20.0415-22.5467-22.5469-20.0417,23.917-26.9062,22.5467,20.0415,20.0417-22.5469,26.9062,23.917-20.0415,22.5467,22.5469,20.0417-23.917,26.9062-22.5467-20.0415-20.0417,22.5469ZM344,354H168V318H344Zm20.0415-100.5469-22.5467-20.0415-20.0417,22.5469-26.9062-23.917,20.0415-22.5467-22.5469-20.0417,23.917-26.9062,22.5467,20.0415,20.0417-22.5469,26.9062,23.917-20.0415,22.5467,22.5469,20.0417Z"/>
</svg>
