<svg id="export" xmlns="http://www.w3.org/2000/svg" viewBox="0 0 512 512">
  <defs>
    <style>
      .cls-1 {
        fill: currentColor;
      }
    </style>
  </defs>
  <title>smile-plus</title>
  <g>
    <polygon class="cls-1" points="437 75 437 16 395 16 395 75 336 75 336 117 395 117 395 176 437 176 437 117 496 117 496 75 437 75"/>
    <path class="cls-1" d="M200,128C98.542,128,16,210.542,16,312S98.542,496,200,496s184-82.542,184-184S301.458,128,200,128Zm48,128h40v40H248Zm-136,0h40v40H112ZM294.4287,356.3965A97.5322,97.5322,0,0,1,203.4375,418h-6.875a97.5322,97.5322,0,0,1-90.9912-61.6035L100.613,344h38.7947a61.6864,61.6864,0,0,0,57.1548,38h6.875a61.6855,61.6855,0,0,0,57.1543-38H299.387Z"/>
  </g>
</svg>
